<svg width="171" height="53" viewBox="0 0 171 53" fill="none" xmlns="http://www.w3.org/2000/svg">
<path d="M29.7656 22.1215V23.5634L29.4051 24.9877L29.792 26.4559V27.9153L28.7897 29.2253L29.3875 30.799L28.5875 32.1002L28.3501 33.5333L27.9105 34.9136L27.5325 36.3291L27.0137 37.7006L25.5983 38.5798L24.763 39.7227L24.2092 41.0855L23.4179 42.2987L22.4508 43.2658L21.2551 43.978L20.6045 45.2967L19.2066 45.7451L18.3274 46.8265L16.8153 47.0199L16.1207 48.4442L14.8898 49.0508L13.5623 49.4553L12.393 50.141L10.9863 50.3081L9.72026 50.7565L8.71799 51.9873L7.27614 52.0401L6.01891 51.1609L5.79912 49.4465L4.64738 48.497L3.91767 47.2046L2.23843 46.7034L1.65817 45.2791L0.963623 44.0483L2.13292 43.9516L3.21432 42.9581H4.77046L5.64965 41.6921L6.89809 41.1118L7.77728 39.9865L8.77074 39.1073L9.86093 38.2897L11.2676 37.7094L11.6633 36.2763L12.3666 35.1158L13.2458 34.0344L13.7205 32.742L14.4327 31.5551L15.1272 30.3243L14.9074 28.8473L15.8481 27.634L15.1976 26.1394L16.2526 24.8734L16.1471 23.4755L15.9361 21.9984L14.5645 22.3149L13.2106 21.7347H11.8655L10.5115 21.6731L9.15758 22.2534L7.80365 21.8138L6.4497 22.4996L5.09577 21.6204L3.74182 22.1391L2.08017 22.3589V20.6533L2.78352 19.2378L2.43185 17.8311L2.1681 16.4156L1.98346 15.0002L2.80111 13.5935L2.31756 12.2307L2.22085 10.8153L2.73077 9.40857L2.01864 7.99308L2.5901 6.57761L2.02742 5.16211L2.60769 3.74664V2.32237L2.73077 1.23217L3.75941 0.889305L5.13093 0.959627H6.50245L7.87399 0.60796L9.24551 0.687083L10.617 0.959627L11.9885 0.42334L13.3601 0.634335L14.7316 1.06512L16.1031 1.41682L17.4746 0.493663L18.8462 0.60796L20.2177 0.84533L21.5892 1.28492L22.9607 1.03875L24.341 1.33767L25.7126 0.836556L27.0929 0.950854L28.4644 0.687083L29.8799 0.889305L29.7744 2.33995L30.3546 3.74664L30.2491 5.16211L29.8975 6.57761L30.3546 7.99308L29.6337 9.39977L29.915 10.8065L29.8271 12.2219L30.214 13.6374V15.0529L30.3019 16.4684L30.0118 17.8839L29.5194 19.2994L29.7216 20.7148L29.7656 22.1215Z" fill="#80A381"/>
<mask id="path-2-inside-1_1280_5300" fill="white">
<path d="M61.416 22.1215V23.5634L61.0555 24.9877L61.4424 26.4559V27.9153L60.4401 29.2253L61.0379 30.799L60.2379 32.1002L60.0005 33.5333L59.5609 34.9136L59.1828 36.3291L58.6641 37.7006L57.2487 38.5798L56.4134 39.7227L55.8595 41.0855L55.0683 42.2987L54.1012 43.2658L52.9055 43.978L52.2549 45.2967L50.857 45.7451L49.9778 46.8265L48.4656 47.0199L47.7711 48.4442L46.5402 49.0508L45.2127 49.4553L44.0434 50.141L42.6367 50.3081L41.3706 50.7565L40.3684 51.9873L38.9265 52.0401L37.6693 51.1609L37.4495 49.4465L36.2978 48.497L35.5681 47.2046L33.8888 46.7034L33.3086 45.2791L32.614 44.0483L33.7833 43.9516L34.8647 42.9581H36.4209L37.3 41.6921L38.5485 41.1118L39.4277 39.9865L40.4211 39.1073L41.5113 38.2897L42.918 37.7094L43.3136 36.2763L44.017 35.1158L44.8962 34.0344L45.3709 32.742L46.0831 31.5551L46.7776 30.3243L46.5578 28.8473L47.4985 27.634L46.8479 26.1394L47.903 24.8734L47.7975 23.4755L47.5865 21.9984L46.2149 22.3149L44.861 21.7347H43.5159L42.1619 21.6731L40.808 22.2534L39.454 21.8138L38.1001 22.4996L36.7462 21.6204L35.3922 22.1391L33.7306 22.3589V20.6533L34.4339 19.2378L34.0822 17.8311L33.8185 16.4156L33.6339 15.0002L34.4515 13.5935L33.9679 12.2307L33.8712 10.8153L34.3812 9.40857L33.669 7.99308L34.2405 6.57761L33.6778 5.16211L34.2581 3.74664V2.32237L34.3812 1.23217L35.4098 0.889305L36.7813 0.959627H38.1528L39.5244 0.60796L40.8959 0.687083L42.2674 0.959627L43.6389 0.42334L45.0105 0.634335L46.382 1.06512L47.7535 1.41682L49.125 0.493663L50.4965 0.60796L51.8681 0.84533L53.2396 1.28492L54.6111 1.03875L55.9914 1.33767L57.363 0.836556L58.7433 0.950854L60.1148 0.687083L61.5303 0.889305L61.4248 2.33995L62.005 3.74664L61.8995 5.16211L61.5478 6.57761L62.005 7.99308L61.2841 9.39977L61.5654 10.8065L61.4775 12.2219L61.8644 13.6374V15.0529L61.9523 16.4684L61.6621 17.8839L61.1698 19.2994L61.372 20.7148L61.416 22.1215Z"/>
</mask>
<path d="M61.416 22.1215V23.5634L61.0555 24.9877L61.4424 26.4559V27.9153L60.4401 29.2253L61.0379 30.799L60.2379 32.1002L60.0005 33.5333L59.5609 34.9136L59.1828 36.3291L58.6641 37.7006L57.2487 38.5798L56.4134 39.7227L55.8595 41.0855L55.0683 42.2987L54.1012 43.2658L52.9055 43.978L52.2549 45.2967L50.857 45.7451L49.9778 46.8265L48.4656 47.0199L47.7711 48.4442L46.5402 49.0508L45.2127 49.4553L44.0434 50.141L42.6367 50.3081L41.3706 50.7565L40.3684 51.9873L38.9265 52.0401L37.6693 51.1609L37.4495 49.4465L36.2978 48.497L35.5681 47.2046L33.8888 46.7034L33.3086 45.2791L32.614 44.0483L33.7833 43.9516L34.8647 42.9581H36.4209L37.3 41.6921L38.5485 41.1118L39.4277 39.9865L40.4211 39.1073L41.5113 38.2897L42.918 37.7094L43.3136 36.2763L44.017 35.1158L44.8962 34.0344L45.3709 32.742L46.0831 31.5551L46.7776 30.3243L46.5578 28.8473L47.4985 27.634L46.8479 26.1394L47.903 24.8734L47.7975 23.4755L47.5865 21.9984L46.2149 22.3149L44.861 21.7347H43.5159L42.1619 21.6731L40.808 22.2534L39.454 21.8138L38.1001 22.4996L36.7462 21.6204L35.3922 22.1391L33.7306 22.3589V20.6533L34.4339 19.2378L34.0822 17.8311L33.8185 16.4156L33.6339 15.0002L34.4515 13.5935L33.9679 12.2307L33.8712 10.8153L34.3812 9.40857L33.669 7.99308L34.2405 6.57761L33.6778 5.16211L34.2581 3.74664V2.32237L34.3812 1.23217L35.4098 0.889305L36.7813 0.959627H38.1528L39.5244 0.60796L40.8959 0.687083L42.2674 0.959627L43.6389 0.42334L45.0105 0.634335L46.382 1.06512L47.7535 1.41682L49.125 0.493663L50.4965 0.60796L51.8681 0.84533L53.2396 1.28492L54.6111 1.03875L55.9914 1.33767L57.363 0.836556L58.7433 0.950854L60.1148 0.687083L61.5303 0.889305L61.4248 2.33995L62.005 3.74664L61.8995 5.16211L61.5478 6.57761L62.005 7.99308L61.2841 9.39977L61.5654 10.8065L61.4775 12.2219L61.8644 13.6374V15.0529L61.9523 16.4684L61.6621 17.8839L61.1698 19.2994L61.372 20.7148L61.416 22.1215Z" stroke="#80A381" stroke-width="3.91207" mask="url(#path-2-inside-1_1280_5300)"/>
<path d="M125.271 43.3792C124.858 43.4168 124.576 43.3792 124.426 43.2666C124.276 43.154 124.163 42.9851 124.088 42.7598C123.938 42.3469 123.807 41.9339 123.694 41.521C123.582 41.0705 123.45 40.5262 123.3 39.888C123.262 39.813 123.281 39.7191 123.356 39.6065C123.431 39.4563 123.563 39.4 123.75 39.4376C124.989 39.5877 126.697 39.7191 128.875 39.8317C131.089 39.9068 134.093 39.9256 137.884 39.888L137.715 36.3406C137.678 35.6273 137.603 34.839 137.49 33.9756C137.377 33.1122 137.246 32.3239 137.096 31.6106C136.946 30.8598 136.795 30.3718 136.645 30.1466C136.57 29.9213 136.57 29.7712 136.645 29.6961C136.758 29.621 136.889 29.5647 137.039 29.5272H140.812C140.962 29.5647 141.037 29.7336 141.037 30.0339C141.037 30.0715 141.037 30.109 141.037 30.1466C141.037 31.1226 141.037 32.0798 141.037 33.0183C141.037 33.9568 141.056 34.9141 141.094 35.8901L141.206 39.888C143.046 39.888 144.904 39.8693 146.781 39.8317C148.658 39.7567 150.516 39.6816 152.356 39.6065L152.581 35.6649C152.618 34.9892 152.656 34.2384 152.693 33.4125C152.731 32.5866 152.731 31.8171 152.693 31.1038C152.656 30.3906 152.562 29.9026 152.412 29.6398C152.337 29.4521 152.356 29.3207 152.468 29.2456C152.581 29.133 152.712 29.0767 152.862 29.0767C153.05 29.0767 153.407 29.0955 153.932 29.133C154.495 29.133 155.021 29.1518 155.509 29.1893C156.034 29.2268 156.335 29.2456 156.41 29.2456C156.56 29.2832 156.616 29.4896 156.579 29.865L156.016 35.4959L155.621 39.4939C158.512 39.3813 161.102 39.2311 163.392 39.0434C165.72 38.8557 167.503 38.6492 168.741 38.424C169.117 38.3489 169.361 38.3677 169.474 38.4803C169.586 38.5929 169.661 38.7431 169.699 38.9308L170.037 41.6336C170.037 41.8213 169.98 41.9903 169.868 42.1404C169.755 42.2906 169.455 42.3656 168.967 42.3656C167.69 42.3281 166.208 42.3093 164.518 42.3093C162.829 42.3093 161.027 42.3093 159.113 42.3093C154.42 42.3093 149.878 42.3656 145.486 42.4783C141.094 42.5533 137.152 42.666 133.661 42.8161C130.17 42.9663 127.373 43.154 125.271 43.3792ZM129.944 27.4437C129.532 27.5188 129.25 27.4813 129.1 27.3311C128.95 27.1434 128.837 26.9369 128.762 26.7117C128.612 26.2988 128.499 25.9421 128.424 25.6418C128.349 25.3415 128.236 24.8723 128.086 24.2341C128.049 24.159 128.068 24.0652 128.143 23.9526C128.218 23.8399 128.349 23.8024 128.537 23.8399C129.55 23.9526 130.864 24.0464 132.478 24.1215C134.13 24.159 135.951 24.1778 137.94 24.1778L137.377 17.0828C137.34 16.4071 137.246 15.6563 137.096 14.8305C136.983 14.0046 136.852 13.2538 136.702 12.5781C136.551 11.8649 136.401 11.3956 136.251 11.1704C136.176 10.9451 136.176 10.795 136.251 10.7199C136.364 10.6448 136.495 10.5885 136.645 10.551L140.418 10.4384C140.568 10.4759 140.643 10.6448 140.643 10.9451C140.643 10.9827 140.643 11.0202 140.643 11.0578C140.681 12.0338 140.718 12.991 140.756 13.9295C140.793 14.868 140.831 15.8253 140.868 16.8013L141.206 24.1778C142.858 24.1403 144.66 24.1027 146.612 24.0652C148.564 23.9901 150.516 23.8962 152.468 23.7836L152.637 16.2382C152.675 15.5625 152.675 14.8117 152.637 13.9858C152.637 13.1224 152.6 12.3341 152.524 11.6209C152.487 10.9076 152.412 10.4384 152.299 10.2131C152.224 9.95035 152.243 9.80019 152.356 9.76265C152.468 9.68757 152.6 9.65003 152.75 9.65003C152.937 9.65003 153.275 9.66881 153.763 9.70634C154.251 9.70634 154.739 9.70634 155.227 9.70634C155.753 9.70634 156.128 9.72511 156.353 9.76265C156.616 9.80019 156.71 9.96912 156.635 10.2694C156.56 11.0953 156.485 12.0338 156.41 13.0849C156.335 14.0985 156.26 15.0745 156.185 16.013L155.734 23.6147C157.236 23.5396 158.625 23.4458 159.901 23.3332C161.177 23.2205 162.247 23.0891 163.111 22.939C163.223 22.9015 163.355 22.9202 163.505 22.9953C163.655 23.0328 163.749 23.1455 163.786 23.3332C163.861 23.8212 163.918 24.2904 163.955 24.7409C164.03 25.1538 164.068 25.5292 164.068 25.8671C164.068 26.28 163.843 26.4865 163.392 26.4865H155.509C155.246 26.4865 154.645 26.5052 153.707 26.5428C152.768 26.5428 151.642 26.5615 150.328 26.5991C149.015 26.6366 147.626 26.6742 146.162 26.7117C144.697 26.7492 143.29 26.7868 141.938 26.8243C140.624 26.8619 139.498 26.8994 138.56 26.9369C137.659 26.9369 137.077 26.9557 136.814 26.9932C135.876 27.0308 134.731 27.0871 133.379 27.1622C132.028 27.2373 130.883 27.3311 129.944 27.4437ZM131.071 8.91802C130.658 8.9931 130.395 8.95556 130.282 8.8054C130.17 8.65524 130.057 8.46754 129.944 8.24231C129.944 8.20477 129.944 8.186 129.944 8.186C129.794 7.77306 129.682 7.41644 129.607 7.11612C129.532 6.81581 129.419 6.34657 129.269 5.70839C129.231 5.63331 129.25 5.53947 129.325 5.42685C129.4 5.31423 129.532 5.27669 129.719 5.31423C130.357 5.38931 131.352 5.44562 132.704 5.48316C134.093 5.48316 135.726 5.48316 137.603 5.48316C139.48 5.44562 141.45 5.40808 143.515 5.37054C145.805 5.29546 148.095 5.22038 150.385 5.1453C152.712 5.03268 154.871 4.9013 156.86 4.75114C158.887 4.60098 160.577 4.43205 161.928 4.24436C162.041 4.20682 162.172 4.22559 162.322 4.30066C162.472 4.33821 162.566 4.45082 162.604 4.63852C162.679 5.05145 162.735 5.44562 162.773 5.82101C162.81 6.19641 162.848 6.66565 162.885 7.22874C162.885 7.45398 162.848 7.62291 162.773 7.73552C162.698 7.8106 162.51 7.84814 162.21 7.84814H155.002C154.326 7.84814 153.425 7.86691 152.299 7.90445C151.211 7.90445 150.028 7.92322 148.752 7.96076C147.475 7.9983 146.218 8.03584 144.979 8.07338C143.778 8.11092 142.727 8.14846 141.826 8.186C140.962 8.22354 140.38 8.26108 140.08 8.29861C139.63 8.33615 138.991 8.39246 138.166 8.46754C137.377 8.50508 136.514 8.56139 135.575 8.63647C134.637 8.67401 133.755 8.73032 132.929 8.8054C132.141 8.84294 131.521 8.88048 131.071 8.91802Z" fill="#80A381"/>
<path d="M90.854 51.4299C90.779 51.4299 90.6851 51.4111 90.5725 51.3736C90.4599 51.336 90.4036 51.2234 90.4036 51.0357C90.4036 50.9231 90.4036 50.7729 90.4036 50.5853C90.4036 50.3225 90.4036 49.9095 90.4036 49.3464C90.4411 48.8209 90.4411 47.92 90.4036 46.6436C90.4036 45.3297 90.3848 43.4715 90.3473 41.069C90.3473 40.093 90.2346 39.0794 90.0094 38.0283C89.8217 36.9772 89.634 36.3203 89.4463 36.0575C89.2962 35.8323 89.2586 35.6446 89.3337 35.4944C89.4463 35.3442 89.634 35.2692 89.8968 35.2692L93.5006 35.3818C94.4391 35.4193 95.6028 35.4381 96.9917 35.4381C98.3807 35.4381 99.8635 35.4381 101.44 35.4381C103.017 35.4005 104.556 35.363 106.058 35.3255C107.559 35.2504 108.892 35.1753 110.055 35.1002C111.219 35.0252 112.101 34.9501 112.702 34.875C112.777 34.875 112.852 34.8562 112.927 34.8187C113.19 34.7811 113.415 34.7811 113.603 34.8187L116.587 35.2128C116.888 35.2504 117 35.4756 116.925 35.8886C116.888 36.3766 116.831 37.0147 116.756 37.8031C116.719 38.5539 116.681 39.3046 116.644 40.0554C116.606 40.7687 116.587 41.313 116.587 41.6884L116.418 50.4163C116.418 50.9419 116.137 51.2047 115.574 51.2047C114.523 51.1671 113.171 51.1483 111.519 51.1483C109.905 51.1483 108.178 51.1483 106.339 51.1483C104.5 51.1483 102.698 51.1483 100.933 51.1483C99.2066 51.1483 97.6674 51.1483 96.316 51.1483C95.0021 51.1859 94.0449 51.2234 93.4443 51.261L90.854 51.4299ZM93.7821 48.164C94.3077 48.2015 95.2086 48.239 96.485 48.2766C97.7613 48.2766 99.2253 48.2766 100.877 48.2766C102.529 48.239 104.162 48.2015 105.776 48.164C107.428 48.1264 108.892 48.0889 110.168 48.0513C111.482 48.0138 112.42 47.9575 112.984 47.8824L113.096 38.4788C113.096 38.216 113.059 38.0658 112.984 38.0283C112.908 37.9532 112.777 37.9157 112.589 37.9157L93.7821 38.1409V48.164ZM86.7998 36.0575C86.4995 35.9824 86.1428 35.9073 85.7299 35.8322C85.317 35.7572 85.0167 35.6821 84.829 35.607C84.6413 35.5319 84.5474 35.4381 84.5474 35.3255C84.585 35.1753 84.6413 35.0627 84.7163 34.9876C85.6924 33.899 86.4995 32.5851 87.1376 31.046C87.8133 29.4693 88.3389 27.9865 88.7143 26.5976H88.4327C86.4056 26.7102 84.4536 26.8228 82.5766 26.9354C80.7372 27.048 79.198 27.1606 77.9592 27.2733C77.5463 27.3108 77.2835 27.292 77.1709 27.217C77.0583 27.1419 76.9457 26.9354 76.8331 26.5976C76.6829 26.1846 76.5515 25.8092 76.4389 25.4714C76.3638 25.096 76.2512 24.608 76.101 24.0073C76.0635 23.9323 76.0823 23.8384 76.1574 23.7258C76.2324 23.6132 76.3638 23.5756 76.5515 23.6132C77.3023 23.7258 78.71 23.8196 80.7747 23.8947C82.8394 23.9323 85.0917 23.9135 87.5318 23.8384C89.2962 23.7633 91.2294 23.6695 93.3316 23.5569C95.4714 23.4067 97.6111 23.2378 99.7509 23.0501C101.891 22.8248 103.899 22.5621 105.776 22.2617C107.653 21.9614 109.23 21.6423 110.506 21.3045C110.806 21.2294 110.975 21.3233 111.013 21.586L111.294 22.9938C111.369 23.3316 111.332 23.5756 111.182 23.7258C111.069 23.8384 110.9 23.9323 110.675 24.0073C109.549 24.3076 107.953 24.608 105.889 24.9083C103.861 25.1711 101.647 25.4338 99.2441 25.6966C96.8791 25.9218 94.608 26.1283 92.4307 26.316C92.0553 27.9677 91.5298 29.5819 90.854 31.1586C90.1783 32.7353 89.3525 34.1242 88.3764 35.3255C88.1887 35.5507 87.9635 35.7572 87.7007 35.9449C87.4755 36.095 87.1752 36.1326 86.7998 36.0575ZM82.4077 19.7278C82.1824 19.8029 81.9197 19.878 81.6193 19.9531C81.3566 19.9906 81.0562 19.8217 80.7184 19.4463L79.5922 18.2075C79.367 17.9447 79.4796 17.7195 79.9301 17.5318C82.1824 16.5558 84.0782 15.5047 85.6173 14.3785C87.1564 13.2523 88.3952 12.1449 89.3337 11.0562C90.3097 9.96759 91.0793 9.04787 91.6424 8.29708C92.2805 7.32106 92.8249 6.28872 93.2753 5.20008C93.7258 4.0739 93.9886 3.09787 94.0637 2.27201C94.0637 1.93415 94.2514 1.82153 94.6268 1.93415L97.7238 2.8351C97.9865 2.94771 98.0616 3.19172 97.949 3.56712C97.6487 4.28037 97.217 5.125 96.6539 6.10102C96.1283 7.07705 95.6028 7.99677 95.0772 8.86017C96.2785 9.2731 97.6674 9.77989 99.2441 10.3805C100.858 10.9812 102.416 11.6006 103.918 12.2387C105.419 12.8769 106.602 13.4588 107.465 13.9843C107.69 14.0969 107.897 14.2659 108.085 14.4911C108.272 14.6788 108.291 14.9228 108.141 15.2231C107.728 16.1991 107.259 17.025 106.733 17.7007C106.546 17.9259 106.358 17.9447 106.17 17.757C104.593 16.4056 102.698 15.1293 100.483 13.928C98.3056 12.7267 96.072 11.6569 93.7821 10.7184C92.1679 12.7455 90.3473 14.5286 88.3201 16.0677C86.3305 17.5693 84.3597 18.7894 82.4077 19.7278ZM113.378 32.8479C113.228 32.8479 113.152 32.754 113.152 32.5663V7.90292C113.152 6.47642 113.096 5.16254 112.984 3.96128C112.908 2.76002 112.777 1.97169 112.589 1.59629C112.514 1.4086 112.514 1.27721 112.589 1.20213C112.702 1.08951 112.833 1.0332 112.984 1.0332C113.396 1.0332 113.96 1.0332 114.673 1.0332C115.424 1.0332 116.081 1.05197 116.644 1.08951C116.831 1.08951 116.925 1.23967 116.925 1.53999C116.813 2.92895 116.737 4.14898 116.7 5.20008C116.7 6.21364 116.7 7.39614 116.7 8.74756V31.4401C116.7 32.0032 116.662 32.3411 116.587 32.4537C116.55 32.5663 116.437 32.6414 116.249 32.6789L113.378 32.8479Z" fill="#80A381"/>
</svg>
