<svg width="14" height="15" viewBox="0 0 14 15" fill="none" xmlns="http://www.w3.org/2000/svg">
<path d="M11.8123 11.2745C11.8123 11.2745 11.1018 11.9724 10.9277 12.177C10.6441 12.4796 10.3099 12.6226 9.87178 12.6226C9.82965 12.6226 9.78472 12.6226 9.74259 12.6198C8.90853 12.5665 8.13345 12.2414 7.55213 11.964C5.96264 11.1961 4.56692 10.1059 3.4071 8.72421C2.44948 7.57237 1.80919 6.5074 1.38514 5.36396C1.12397 4.66613 1.02848 4.12243 1.07061 3.60956C1.09869 3.28167 1.22506 3.00982 1.45815 2.77721L2.41578 1.82154C2.55338 1.69262 2.69941 1.62256 2.84264 1.62256C3.01956 1.62256 3.16278 1.72906 3.25265 1.81874C3.25545 1.82154 3.25826 1.82434 3.26107 1.82714C3.43238 1.98689 3.59526 2.15224 3.76656 2.3288C3.85362 2.41848 3.94348 2.50816 4.03335 2.60065L4.80001 3.36574C5.09769 3.66281 5.09769 3.93746 4.80001 4.23453C4.71857 4.31581 4.63994 4.39708 4.5585 4.47555C4.3226 4.71657 4.50791 4.53164 4.26359 4.75024C4.25798 4.75584 4.25236 4.75865 4.24955 4.76425C4.00804 5.00527 4.05297 5.24068 4.10352 5.40043C4.10633 5.40884 4.10914 5.41724 4.11194 5.42565C4.31133 5.90769 4.59216 6.3617 5.01902 6.90259L5.02183 6.9054C5.79692 7.85826 6.61413 8.60094 7.51559 9.16986C7.63073 9.24272 7.74867 9.30158 7.86101 9.35763C7.9621 9.40807 8.05759 9.45572 8.13903 9.50616C8.15026 9.51177 8.16149 9.52017 8.17273 9.52578C8.26821 9.57342 8.35807 9.59584 8.45075 9.59584C8.68383 9.59584 8.82987 9.45011 8.87761 9.40247L9.42807 8.85313C9.52355 8.75784 9.6752 8.64294 9.85212 8.64294C10.0262 8.64294 10.1695 8.75224 10.2565 8.84753C10.2593 8.85033 10.2593 8.85033 10.2621 8.85313L11.8095 10.3973C12.0987 10.6832 11.8123 11.2745 11.8123 11.2745Z" stroke="#5A5A62" stroke-linecap="round" stroke-linejoin="round"/>
</svg>
