<svg width="20" height="21" viewBox="0 0 20 21" fill="none" xmlns="http://www.w3.org/2000/svg">
<path d="M9.96875 12.9023C10.6259 12.9025 11.1631 13.4404 11.1631 14.0977C11.1629 14.7547 10.6258 15.2918 9.96875 15.292C9.31155 15.292 8.77362 14.7548 8.77344 14.0977C8.77344 13.4403 9.31143 12.9023 9.96875 12.9023ZM9.96875 9.31641C10.6259 9.31657 11.1631 9.8545 11.1631 10.5117C11.163 11.1688 10.6259 11.7069 9.96875 11.707C9.3115 11.707 8.77354 11.1689 8.77344 10.5117C8.77344 9.8544 9.31143 9.31641 9.96875 9.31641ZM9.96875 5.73145C10.6259 5.73161 11.1631 6.26954 11.1631 6.92676C11.163 7.58389 10.6259 8.12191 9.96875 8.12207C9.3115 8.12207 8.77354 7.58399 8.77344 6.92676C8.77344 6.26944 9.31143 5.73145 9.96875 5.73145Z" fill="#C7C7C7"/>
</svg>
