<svg width="14" height="15" viewBox="0 0 14 15" fill="none" xmlns="http://www.w3.org/2000/svg">
<path d="M6.62722 1.43212C6.87236 1.37357 7.12818 1.37351 7.37332 1.43212C7.67155 1.50346 7.93433 1.68745 8.25515 1.90087L12.4104 4.66454L13.6936 5.51806C13.9234 5.67087 13.9857 5.98155 13.8333 6.21142C13.6804 6.44129 13.3698 6.50388 13.1399 6.35106L12.6331 6.01317V8.91552C12.6331 9.68016 12.6337 10.2846 12.594 10.77C12.5539 11.2611 12.4699 11.6758 12.2776 12.0532C11.965 12.6665 11.4662 13.1655 10.8528 13.478C10.4753 13.6703 10.0608 13.7533 9.5696 13.7934C9.08424 13.8331 8.48067 13.8335 7.71609 13.8335H6.28347C5.51888 13.8335 4.91529 13.8331 4.42996 13.7934C3.93873 13.7533 3.52423 13.6704 3.14675 13.478C2.53347 13.1654 2.03452 12.6665 1.72195 12.0532C1.52972 11.6758 1.44567 11.2611 1.40554 10.77C1.36591 10.2846 1.36648 9.68015 1.36648 8.91552V6.01415L0.86062 6.35106L0.770776 6.39892C0.555264 6.48624 0.301066 6.41258 0.167261 6.21142C0.0146545 5.98156 0.0762196 5.67094 0.305933 5.51806L1.59011 4.66454L5.74441 1.90087C6.06542 1.68733 6.32885 1.50349 6.62722 1.43212ZM7.14089 2.40478C7.04862 2.38273 6.95192 2.38275 6.85964 2.40478C6.77587 2.42482 6.68437 2.47695 6.29812 2.73388L2.36648 5.34911V8.91552C2.36648 9.69663 2.36708 10.2537 2.40261 10.689C2.43769 11.1179 2.50514 11.3862 2.61355 11.5991C2.83022 12.0241 3.17586 12.3697 3.60085 12.5864C3.81383 12.6949 4.08181 12.7623 4.51101 12.7974C4.9462 12.8329 5.50239 12.8335 6.28347 12.8335H7.71609C8.49733 12.8335 9.0533 12.8329 9.48855 12.7974C9.91798 12.7623 10.1857 12.695 10.3987 12.5864C10.824 12.3697 11.1702 12.0244 11.387 11.5991C11.4954 11.3862 11.5619 11.1179 11.5969 10.689C11.6325 10.2537 11.6331 9.69663 11.6331 8.91552V5.34813L7.70144 2.73388C7.31572 2.4773 7.22459 2.42485 7.14089 2.40478Z" fill="#5A5A62"/>
</svg>
