<svg width="15" height="16" viewBox="0 0 15 16" fill="none" xmlns="http://www.w3.org/2000/svg">
<path d="M7.45044 1.29199C10.8118 1.29228 13.5374 3.98131 13.5374 7.06934C13.5371 9.28869 12.1791 11.196 10.8245 12.5107C10.1392 13.1758 9.43389 13.7112 8.85474 14.082C8.5657 14.2671 8.30193 14.4146 8.08325 14.5186C7.97428 14.5703 7.86966 14.6145 7.77466 14.6465C7.69111 14.6746 7.57262 14.7089 7.45044 14.709C7.32819 14.709 7.2089 14.6746 7.12524 14.6465C7.03035 14.6145 6.92548 14.5703 6.81665 14.5186C6.59803 14.4146 6.3341 14.267 6.04517 14.082C5.46603 13.7112 4.76064 13.1757 4.07544 12.5107C2.7208 11.196 1.3628 9.28869 1.36255 7.06934C1.36255 3.98114 4.08879 1.29199 7.45044 1.29199ZM7.45044 2.29199C4.60375 2.29199 2.36255 4.57003 2.36255 7.06934C2.3628 8.88483 3.48816 10.5471 4.77173 11.793C5.40547 12.408 6.05772 12.9021 6.58423 13.2393C6.84771 13.408 7.07476 13.5337 7.24634 13.6152C7.33242 13.6561 7.39871 13.6838 7.44458 13.6992C7.44613 13.6997 7.44802 13.6997 7.44946 13.7002C7.45124 13.6996 7.4534 13.6999 7.45532 13.6992C7.50123 13.6838 7.5674 13.6562 7.65356 13.6152C7.8252 13.5337 8.05204 13.4081 8.31567 13.2393C8.84225 12.9021 9.49433 12.4081 10.1282 11.793C11.4118 10.5471 12.5371 8.88487 12.5374 7.06934C12.5374 4.57019 10.2969 2.29228 7.45044 2.29199ZM7.44946 4.70605C8.92555 4.70605 10.1221 5.90286 10.1223 7.37891C10.1223 8.85512 8.92567 10.0518 7.44946 10.0518C5.97351 10.0515 4.77661 8.85493 4.77661 7.37891C4.7768 5.90304 5.97363 4.70635 7.44946 4.70605ZM7.44946 5.70605C6.52591 5.70635 5.7768 6.45533 5.77661 7.37891C5.77661 8.30265 6.52579 9.05146 7.44946 9.05176C8.37339 9.05176 9.12231 8.30283 9.12231 7.37891C9.12212 6.45514 8.37327 5.70605 7.44946 5.70605Z" fill="#919191"/>
</svg>
