<svg width="24" height="25" viewBox="0 0 24 25" fill="none" xmlns="http://www.w3.org/2000/svg">
<g clip-path="url(#clip0_1237_3721)">
<path d="M17.3655 11.559L17.2398 12.0248V12.4878L17.4198 12.9708L17.2369 13.4252V13.8996L17.074 14.3483V14.8284L16.7882 15.2342L16.7025 15.6972L16.6682 16.1945L16.3167 16.5488L16.1595 16.9975L15.828 17.3405L15.5422 17.7063L15.2564 18.075L14.9706 18.4179L14.6991 18.778L14.3876 19.0952L13.9532 19.2667L13.616 19.5525L13.2759 19.8383L12.8472 19.984L12.5014 20.2698L12.0784 20.4098L11.6469 20.5242L11.3125 20.8557L10.9524 21.1415L10.4494 21.05L10.1636 21.1443L9.87785 20.81L9.54919 20.467L9.1348 20.1812L8.84901 19.8068L8.62895 19.3696L8.28886 19.0352L7.91162 18.7151L8.37746 18.6065L8.82614 18.5036L9.16623 18.1721L9.53204 17.9149L9.86641 17.6291L10.2465 17.4091L10.6066 17.1547L10.9581 16.8689L11.3554 16.6203L11.6012 16.2373L11.6812 15.7572L12.0013 15.4314L12.287 15.0656L12.4014 14.6255L12.5957 14.2168L12.63 13.7624L12.75 13.328L12.9072 12.8965V12.4449L12.8529 11.9905L12.9043 11.3904L12.4157 11.4847L11.9755 11.6761L11.5383 11.619H11.0982L10.658 11.4532L10.2179 11.5247L9.77782 11.3904L9.33771 11.5161L8.89759 11.5618L8.38031 11.619L8.46033 11.0874L8.36888 10.6302L8.46033 10.17L8.35459 9.70993L8.49463 9.2498L8.34316 8.79254L8.50321 8.33528V7.87516L8.45748 7.41504L8.35745 6.95492L8.4632 6.49481L8.32316 6.03468L8.35745 5.57457L8.58323 5.11444L8.36888 4.56287L8.90331 4.58573L9.34914 4.81722L9.79497 4.53143L10.2408 4.55144L10.6866 4.64003L11.1325 4.59145L11.5783 4.64003L12.0241 4.79436L12.4699 4.73435L12.9158 4.52001L13.3616 4.8058L13.8074 4.5H14.2533L14.6991 4.72291L15.1449 4.75435L15.6108 4.66861H16.0566L16.5053 4.52286L16.9511 4.64003L17.4455 4.62003L17.4913 5.12302L17.4627 5.58314L17.2655 6.0404L17.3798 6.50052V6.95492L17.5484 7.41219L17.4084 7.8723L17.3312 8.33243L17.4827 8.78969L17.2769 9.2498V9.70993L17.5627 10.17L17.5427 10.6302L17.3798 11.0903L17.3655 11.559Z" stroke="#AFC6AF" stroke-miterlimit="10"/>
</g>
<defs>
<clipPath id="clip0_1237_3721">
<rect width="11" height="17" fill="white" transform="translate(7 4.5)"/>
</clipPath>
</defs>
</svg>
