<svg width="14" height="15" viewBox="0 0 14 15" fill="none" xmlns="http://www.w3.org/2000/svg">
<path d="M7.00008 7.49984H6.50008C6.50008 7.71505 6.6378 7.90612 6.84197 7.97418L7.00008 7.49984ZM7.50008 4.58317C7.50008 4.30703 7.27622 4.08317 7.00008 4.08317C6.72394 4.08317 6.50008 4.30703 6.50008 4.58317H7.50008ZM8.59197 8.55751C8.85394 8.64484 9.1371 8.50326 9.22442 8.24128C9.31175 7.97931 9.17017 7.69615 8.9082 7.60883L8.59197 8.55751ZM7.00008 7.49984H7.50008V4.58317H7.00008H6.50008V7.49984H7.00008ZM7.00008 7.49984L6.84197 7.97418L8.59197 8.55751L8.75008 8.08317L8.9082 7.60883L7.1582 7.0255L7.00008 7.49984ZM12.8334 7.49984H12.3334C12.3334 10.4454 9.9456 12.8332 7.00008 12.8332V13.3332V13.8332C10.4979 13.8332 13.3334 10.9976 13.3334 7.49984H12.8334ZM7.00008 13.3332V12.8332C4.05456 12.8332 1.66675 10.4454 1.66675 7.49984H1.16675H0.666748C0.666748 10.9976 3.50228 13.8332 7.00008 13.8332V13.3332ZM1.16675 7.49984H1.66675C1.66675 4.55432 4.05456 2.1665 7.00008 2.1665V1.6665V1.1665C3.50228 1.1665 0.666748 4.00203 0.666748 7.49984H1.16675ZM7.00008 1.6665V2.1665C9.9456 2.1665 12.3334 4.55432 12.3334 7.49984H12.8334H13.3334C13.3334 4.00203 10.4979 1.1665 7.00008 1.1665V1.6665Z" fill="#919191"/>
</svg>
