<svg width="32" height="33" viewBox="0 0 32 33" fill="none" xmlns="http://www.w3.org/2000/svg">
<path d="M9.94883 30.2711L9.71133 30.3273C9.51365 30.3751 9.29273 30.3829 9.06758 30.3148C8.84236 30.2467 8.66162 30.1191 8.52383 29.9711L8.34883 29.7836L8.28008 29.7148L8.19883 29.7273L7.95508 29.7586C7.73606 29.7854 7.49528 29.7531 7.26758 29.6336C7.04502 29.5165 6.88915 29.3441 6.78633 29.1711L6.64883 28.9398L6.53633 28.7523L6.43633 28.7273L6.22383 28.6711C6.20657 28.6665 6.14906 28.6571 6.03633 28.6711L5.75508 28.7086L5.47383 28.7398C5.08439 28.7875 4.64939 28.6882 4.33633 28.3211L4.18633 28.1461L4.03633 27.9648C3.93332 27.844 3.82868 27.7269 3.73008 27.6086L3.44258 27.2586C3.28884 27.0741 3.16552 26.8701 3.08008 26.6461L2.99883 26.4273L2.91758 26.2148C2.8804 26.1172 2.83676 26.0346 2.79258 25.9648L2.68008 25.7836L2.56758 25.6086C2.41499 25.3677 2.33101 25.0939 2.32383 24.8086V24.6023L2.31758 24.4398L2.00508 24.0273C1.78519 23.7384 1.66472 23.3755 1.72383 22.9836L1.79883 22.5211L1.93633 22.0711C2.00382 21.933 2.09147 21.8049 2.19883 21.6898L2.52383 21.3398C2.58075 21.279 2.62575 21.2183 2.65508 21.1586L2.74883 20.9586L2.84883 20.7586C2.96901 20.5139 3.14458 20.3059 3.36133 20.1398L3.53633 20.0023L3.71758 19.8648C3.77725 19.819 3.82983 19.762 3.88008 19.6961L4.02383 19.5148L4.16133 19.3273L4.40508 19.0898C4.58317 18.9588 4.78424 18.8884 4.98633 18.8648H5.29258L5.56758 18.8898L5.79258 18.9086L5.88008 18.8461L6.04883 18.7086C6.20279 18.5844 6.36714 18.4744 6.54258 18.3836L6.73633 18.2836L6.92383 18.1898C7.02845 18.1357 7.1324 18.0692 7.23633 18.0023L7.61133 17.7648C7.83216 17.623 8.07647 17.5328 8.33633 17.4961L8.56133 17.4648L8.73633 17.4336L8.90508 17.2773L9.08008 17.0961C9.29499 16.8835 9.56334 16.7227 9.88008 16.6586L10.3176 16.5711C10.5338 16.5275 10.7536 16.5128 10.9738 16.5273L11.2051 16.5461L11.4301 16.5586C11.4816 16.562 11.5261 16.5598 11.5676 16.5461L11.7801 16.4773L11.9926 16.4023C12.1949 16.3359 12.4053 16.2928 12.6176 16.2773L12.8363 16.2648L13.0551 16.2461C13.1674 16.2379 13.2812 16.2252 13.3926 16.2023L13.8301 16.1148C14.006 16.0788 14.1826 16.0484 14.3613 16.0336L14.5863 16.0148L14.8051 15.9961L15.2988 16.0461C15.4559 16.0887 15.6023 16.156 15.7363 16.2398L15.9613 16.3773L16.1363 16.4961L16.2738 16.4648L16.4926 16.4273C16.7518 16.3805 17.0125 16.3928 17.2676 16.4586L17.4863 16.5086L17.6988 16.5648C17.7652 16.5819 17.8288 16.5928 17.8926 16.5898L18.3301 16.5648C18.3823 16.5623 18.4513 16.5528 18.5363 16.5211L18.9988 16.3461C19.261 16.2475 19.546 16.2027 19.8363 16.2398L20.0551 16.2711L20.2801 16.2961C20.5163 16.3267 20.7422 16.3973 20.9551 16.5023L21.3676 16.7023C21.4551 16.7455 21.5392 16.781 21.6238 16.8023L21.8363 16.8523L22.0488 16.9086C22.0665 16.913 22.1049 16.9202 22.1676 16.9086L22.4113 16.8586L22.6551 16.8148L23.0051 16.8023C23.126 16.8162 23.2483 16.8508 23.3676 16.9086C23.4826 16.9643 23.579 17.0368 23.6613 17.1148L23.8676 17.3586L24.0176 17.5961L24.1738 17.8336C24.2204 17.9054 24.2346 17.9012 24.1988 17.8836L24.5863 18.0711L24.5801 18.0648C24.5855 18.0653 24.5997 18.0664 24.6176 18.0648L24.8613 18.0398L25.1113 18.0211H25.3738C25.5476 18.0363 25.7195 18.0812 25.8801 18.1648L26.1176 18.3211L26.2863 18.4648L26.4613 18.6086C26.4673 18.6135 26.4785 18.6269 26.5113 18.6336L26.9863 18.7211C27.2554 18.7743 27.4953 18.9006 27.6863 19.0898L27.8613 19.3023L28.1238 19.6898C28.1563 19.7373 28.1925 19.7706 28.2301 19.7961L28.4176 19.9211L28.6051 20.0523C28.8418 20.2132 29.0321 20.4281 29.1613 20.6836L29.3613 21.0836C29.403 21.166 29.4549 21.2503 29.5176 21.3273L29.6676 21.5023L29.8113 21.6836C29.951 21.8552 30.0518 22.0707 30.0738 22.3148C30.095 22.5513 30.0392 22.7653 29.9613 22.9398L29.8863 23.0961C30.0456 23.2864 30.1256 23.5023 30.1676 23.6398L30.3176 24.1273C30.377 24.3219 30.3986 24.5457 30.3426 24.7773C30.2856 25.0104 30.1627 25.206 30.0176 25.3523L29.8363 25.5273L29.6613 25.7086C29.5636 25.8071 29.4815 25.8991 29.4176 25.9836L29.1551 26.3336C29.0002 26.5381 28.8076 26.7069 28.5863 26.8336L28.3926 26.9461L28.1988 27.0523C28.0946 27.112 27.9976 27.1763 27.9113 27.2398L27.5738 27.4898C27.5303 27.522 27.4818 27.5663 27.4363 27.6273L27.2988 27.8148L27.1676 27.9961C27.0502 28.1548 26.9169 28.3038 26.7738 28.4398L26.6113 28.5961L26.4488 28.7461C26.1339 29.0455 25.7328 29.1354 25.3613 29.0836L25.1613 29.0523V29.0586L25.0363 29.3211C24.8821 29.6453 24.5985 29.9738 24.1426 30.0773L23.7051 30.1773C23.5243 30.2184 23.3403 30.2482 23.1551 30.2648L22.7051 30.3023C22.5855 30.313 22.4667 30.3287 22.3551 30.3523L22.1426 30.4023L21.9238 30.4461C21.8963 30.452 21.8569 30.4659 21.8051 30.5023L21.6051 30.6398L21.4113 30.7773C21.1559 30.957 20.8557 31.0632 20.5301 31.0648H20.0738C19.9331 31.0655 19.7935 31.0725 19.6551 31.0773L19.2051 31.0898C18.9624 31.0981 18.723 31.0669 18.4926 30.9961L18.2676 30.9273L18.1676 30.8961L18.0613 30.9711L17.8488 31.1086C17.4942 31.3435 17.0654 31.3988 16.6551 31.2211L16.4301 31.1211L16.2113 31.0273L16.0238 31.0711L15.8051 31.1148C15.5427 31.1695 15.2723 31.1652 15.0113 31.1023L14.7988 31.0523L14.5801 31.0023C14.5455 30.994 14.5081 30.9886 14.4676 30.9961L14.2426 31.0398L14.0238 31.0836C13.8064 31.1239 13.5816 31.1334 13.3613 31.1148L12.9238 31.0773C12.5667 31.0473 12.2641 30.8862 12.0301 30.6711L11.9113 30.5586L11.6738 30.7273C11.4981 30.8478 11.2297 30.9715 10.9051 30.9398C10.5662 30.9059 10.3203 30.72 10.1676 30.5336L9.99258 30.3148L9.94883 30.2711ZM14.7176 17.6148L14.4926 17.6273C14.3777 17.6369 14.2624 17.654 14.1488 17.6773L13.9301 17.7211L13.7176 17.7711C13.5387 17.8078 13.3556 17.8328 13.1738 17.8461L12.9551 17.8586L12.7301 17.8773C12.6503 17.8833 12.571 17.8954 12.4926 17.9211L12.2801 17.9961L12.0676 18.0648C11.8264 18.1443 11.5759 18.1753 11.3238 18.1586L11.0988 18.1398L10.8676 18.1273C10.786 18.122 10.7094 18.1253 10.6363 18.1398L10.4176 18.1836L10.2113 18.2211L10.2051 18.2336L9.84883 18.5898C9.62442 18.8115 9.33747 18.9738 8.99883 19.0211L8.78008 19.0523L8.56133 19.0773C8.52961 19.0818 8.50077 19.0913 8.47383 19.1086L8.29258 19.2336L8.10508 19.3523C7.96039 19.4454 7.81159 19.5308 7.66133 19.6086L7.46758 19.7086L7.28008 19.8086C7.20122 19.8494 7.12553 19.8957 7.05508 19.9523L6.71758 20.2273C6.40031 20.4832 6.02327 20.54 5.69258 20.5086L5.41133 20.4836L5.29883 20.4711L5.29258 20.4836L5.15508 20.6648C5.02029 20.842 4.86289 20.9984 4.68633 21.1336L4.51133 21.2711L4.33008 21.4086C4.31119 21.4235 4.29785 21.4414 4.28633 21.4648L4.08633 21.8648C3.98361 22.0739 3.85151 22.2638 3.69258 22.4336L3.53008 22.6086L3.37383 22.7711L3.34258 22.9898L3.31758 23.1211L3.43008 23.2648L3.59258 23.4711C3.68309 23.5906 3.7606 23.7247 3.81758 23.8711L3.91758 24.3523V24.5586L3.92383 24.7523H3.91758V24.7586L3.92383 24.7711V24.7586L4.03008 24.9273L4.14883 25.1086C4.25484 25.2762 4.33958 25.4576 4.41133 25.6461L4.49258 25.8586L4.57383 26.0773C4.59687 26.1375 4.6298 26.1877 4.66758 26.2336L4.81758 26.4086L4.96133 26.5836C5.05536 26.6964 5.15026 26.8117 5.24883 26.9273L5.40508 27.1086L5.42383 27.1336L5.56133 27.1211L5.84258 27.0836C6.10221 27.0517 6.37269 27.057 6.63633 27.1273L7.06133 27.2398C7.44593 27.3433 7.71425 27.6014 7.88633 27.8898L8.02383 28.1211L8.03008 28.1336L8.24883 28.1086H8.56133C8.86241 28.1428 9.13549 28.2806 9.34883 28.5086L9.52383 28.6961L9.54258 28.7211L9.58008 28.7148L9.82383 28.6586L10.1613 28.6211C10.2791 28.626 10.3984 28.6515 10.5176 28.6961C10.7477 28.7825 10.9222 28.9296 11.0488 29.0836L11.1176 29.1648L11.2801 29.0586L11.5863 28.9023C11.7037 28.8601 11.8351 28.8321 11.9801 28.8336C12.1337 28.8352 12.2742 28.867 12.3988 28.9211L12.7238 29.1336L12.9176 29.3148L13.1051 29.4836L13.2738 29.5023L13.4988 29.5211C13.5722 29.5271 13.6494 29.5236 13.7301 29.5086L13.9551 29.4648L14.1738 29.4273C14.4319 29.3795 14.6987 29.3843 14.9551 29.4461L15.1676 29.4961L15.3863 29.5523C15.4163 29.5596 15.4483 29.559 15.4801 29.5523L15.6988 29.5023L15.9176 29.4586C16.2392 29.3916 16.5553 29.4344 16.8426 29.5586L17.0676 29.6586L17.1113 29.6773L17.1801 29.6336L17.3926 29.4961L17.6488 29.3586C17.826 29.2882 18.0161 29.2576 18.2113 29.2711L18.5051 29.3273L18.7363 29.3961L18.9613 29.4648C19.033 29.4869 19.0959 29.4915 19.1488 29.4898L19.5988 29.4773C19.7541 29.4719 19.9104 29.4655 20.0676 29.4648H20.4926L20.6863 29.3336L20.8863 29.1898C21.0974 29.0418 21.3339 28.9321 21.5926 28.8773L21.8113 28.8336L22.0238 28.7898C22.1994 28.7527 22.3802 28.7248 22.5613 28.7086L23.0113 28.6711C23.1259 28.6608 23.2381 28.64 23.3488 28.6148L23.5676 28.5648L23.6238 28.5461L23.7176 28.3711L23.8426 28.1023L24.0238 27.8148C24.1012 27.7228 24.1994 27.6351 24.3176 27.5648C24.5624 27.4199 24.8269 27.3885 25.0613 27.4211L25.4551 27.4773L25.5051 27.4336L25.6738 27.2773C25.7489 27.2059 25.8184 27.1294 25.8801 27.0461L26.0113 26.8586L26.1488 26.6773C26.2823 26.497 26.4423 26.3363 26.6238 26.2023L26.9613 25.9523C27.0998 25.8502 27.245 25.753 27.3988 25.6648L27.5988 25.5523L27.7926 25.4461C27.8306 25.4243 27.8584 25.3994 27.8801 25.3711L28.1426 25.0211C28.2552 24.8723 28.3838 24.7249 28.5238 24.5836L28.7051 24.4023L28.7176 24.3836L28.7113 24.3523L28.6426 24.1273L28.5676 24.0836C28.2556 23.8751 28.1534 23.5472 28.1551 23.2961C28.1568 23.084 28.226 22.8987 28.2801 22.7773L28.3926 22.5336L28.4051 22.4898L28.2801 22.3336C28.1471 22.1702 28.031 21.9957 27.9363 21.8086L27.8301 21.6086L27.7301 21.4023C27.7236 21.3898 27.717 21.3855 27.7051 21.3773L27.5176 21.2461L27.3301 21.1211C27.1179 20.9773 26.9415 20.7942 26.7988 20.5836L26.6676 20.3898L26.5863 20.2773L26.4426 20.2461L26.2051 20.2023C25.9264 20.1476 25.6674 20.026 25.4426 19.8398L25.2676 19.6961L25.1738 19.6148L25.0051 19.6336L24.7551 19.6586C24.4688 19.6835 24.1712 19.643 23.8926 19.5086L23.5051 19.3211C23.2091 19.1783 22.9882 18.9519 22.8301 18.7086L22.6801 18.4711L22.6551 18.4398L22.4613 18.4773C22.2003 18.5258 21.9281 18.5256 21.6613 18.4586L21.4488 18.4086L21.2363 18.3523C21.037 18.3022 20.8406 18.2315 20.6551 18.1398L20.4551 18.0398L20.2488 17.9398C20.1889 17.9103 20.1302 17.8908 20.0738 17.8836L19.8551 17.8586L19.6363 17.8273C19.6334 17.827 19.612 17.8235 19.5676 17.8398L19.1051 18.0148C18.8835 18.0982 18.6494 18.153 18.4113 18.1648L18.1926 18.1773L17.9738 18.1836C17.7464 18.1947 17.519 18.1716 17.2988 18.1148L17.0863 18.0586L16.8676 18.0023C16.8374 17.9948 16.8103 17.9972 16.7801 18.0023L16.5613 18.0398L16.3426 18.0836C15.9668 18.1516 15.6149 18.0492 15.3301 17.8711L15.1113 17.7336L14.8863 17.5961L14.7176 17.6148Z" fill="#FF88F5"/>
<path d="M21.6115 21.9199L21.7615 21.9637L21.9178 22.0074C22.0358 22.041 22.1741 22.0858 22.3303 22.1387L22.7803 22.2887C22.9519 22.3468 23.1604 22.4458 23.3365 22.6137L23.499 22.8012L23.5803 22.9262L23.6678 23.0512C23.7002 23.0992 23.7449 23.1738 23.7803 23.2637C23.8113 23.3425 23.8671 23.5167 23.8303 23.7324C23.7846 23.9968 23.6208 24.2102 23.4053 24.3262C23.2314 24.4195 23.0661 24.426 22.9865 24.4262H22.949L22.8428 24.5137L22.6928 24.6262V24.6449L22.6178 24.8699L22.5365 25.1012C22.467 25.3076 22.3402 25.5103 22.1365 25.6637C21.9371 25.8138 21.717 25.8823 21.5178 25.9012L21.2553 25.9199L20.9928 25.9449C20.7876 25.9639 20.561 25.9432 20.3428 25.8387C20.124 25.7336 19.9628 25.5693 19.849 25.3949L19.5615 24.9574C19.3843 24.6838 19.2822 24.3469 19.3365 23.9762L19.3678 23.7574L19.399 23.5449C19.4357 23.2979 19.5244 23.0437 19.699 22.8199L19.9115 22.5449L20.1678 22.2887C20.2637 22.2134 20.3688 22.1447 20.4865 22.0949L20.6365 22.0324L20.7803 21.9699L21.1928 21.8762L21.6115 21.9199ZM21.2553 23.5074L21.149 23.5449L21.0678 23.6637L20.9803 23.7824L20.949 23.9949L20.924 24.1199L21.049 24.3012L21.0678 24.3324H21.1053V24.3262L21.174 24.1324C21.2449 23.9221 21.3664 23.7286 21.524 23.5574C21.5087 23.5529 21.4941 23.5488 21.4803 23.5449L21.324 23.5012L21.2865 23.4887L21.2553 23.5074Z" fill="#FF88F5"/>
<path d="M9.40215 3.15547L9.6209 3.21797L9.8334 3.27422C9.99611 3.31894 10.1568 3.37375 10.3146 3.43047L10.5209 3.50547L10.7334 3.58047C10.8057 3.60616 10.8867 3.62144 10.9771 3.63047L11.4396 3.68047C11.718 3.70797 11.9836 3.79803 12.2209 3.95547L12.4084 4.07422L12.5896 4.19922C12.684 4.2618 12.784 4.31976 12.8834 4.36797L13.0834 4.46172L13.2771 4.55547C13.3448 4.58828 13.4205 4.61467 13.5021 4.63047L13.7271 4.67422L13.9459 4.71797C14.4426 4.814 14.7296 5.17565 14.8709 5.51797L14.9834 5.79922L15.0709 6.01172L15.3521 6.10547C15.5369 6.16534 15.7239 6.24377 15.8896 6.34922L16.0271 6.43672L16.1709 6.52422C16.2303 6.56211 16.363 6.65725 16.4646 6.81797C16.5955 7.02652 16.6598 7.34847 16.4896 7.66172C16.3628 7.89451 16.1667 8.00238 16.0959 8.03672C16.0047 8.08077 15.9155 8.10242 15.8521 8.11797L15.6334 8.17422L15.4146 8.22422C15.2113 8.27387 15.0015 8.30592 14.7896 8.31172L14.3146 8.32422C14.2483 8.32603 14.2003 8.33459 14.1646 8.34922L13.9584 8.43672L13.7584 8.52422C13.587 8.59657 13.4083 8.65256 13.2271 8.69922L13.0084 8.75547L12.9709 8.76172L12.8959 8.95547L12.7834 9.24297C12.7034 9.44402 12.5495 9.68908 12.2709 9.84297C11.9823 10.0014 11.6828 9.99623 11.4521 9.93672L11.1771 9.86172L10.9646 9.80547L10.8834 9.86172L10.6959 9.98047C10.6891 9.98748 10.6731 10.0051 10.6521 10.043L10.5209 10.2867L10.3834 10.5305C10.2382 10.7947 9.99683 11.0834 9.6084 11.2055L9.5209 11.2305C9.53415 11.4688 9.48921 11.7061 9.36465 11.9242L9.23965 12.143L9.20215 12.1992L9.2334 12.2492L9.35215 12.468C9.53032 12.7966 9.57811 13.1789 9.4459 13.5555L9.2959 13.993C9.29255 14.0025 9.2901 14.0086 9.28965 14.0117V14.0242L9.32715 14.243L9.3709 14.4617C9.42064 14.7296 9.40496 15.0009 9.3334 15.2617L9.27715 15.4805L9.21465 15.6992C9.19745 15.7619 9.19215 15.8206 9.1959 15.8742L9.21465 16.093L9.22715 16.3117C9.24071 16.5056 9.23569 16.6996 9.21465 16.893L9.18965 17.1117L9.17715 17.2055L9.3334 17.3867L9.5209 17.6055C9.65368 17.7597 9.7831 17.9724 9.8209 18.2367C9.85949 18.5107 9.78852 18.7634 9.6709 18.968L9.5459 19.1867L9.5209 19.2242L9.5459 19.268L9.67715 19.4867C9.78443 19.6722 9.85191 19.8996 9.83965 20.1492C9.82708 20.3955 9.73532 20.6052 9.6209 20.7742L9.47715 20.9992L9.32715 21.218C9.27117 21.3005 9.24415 21.363 9.2334 21.4055L9.1209 21.843C9.1021 21.9173 9.09968 21.988 9.10215 22.0555L9.1084 22.2742L9.11465 22.4992C9.1165 22.5092 9.12371 22.5291 9.1334 22.5617C9.1511 22.6213 9.17965 22.7044 9.22715 22.8117L9.40215 23.2055L9.4709 23.3555V23.6305C9.46946 24.0711 9.11184 24.4305 8.6709 24.4305C8.27118 24.4305 7.95541 24.1323 7.8959 23.7492L7.76465 23.4617C7.64008 23.1806 7.52695 22.8641 7.51465 22.5617L7.5084 22.3367L7.50215 22.118C7.49353 21.8928 7.51568 21.6675 7.5709 21.4492L7.6834 21.0117C7.74685 20.7609 7.85931 20.5287 8.00215 20.318L8.15215 20.0992L8.1709 20.0742L8.16465 20.068L8.0334 19.8492C7.80627 19.4567 7.80754 19.006 8.0334 18.6117L8.1334 18.4367L8.1209 18.4305L7.9334 18.2117C7.70999 17.9522 7.53046 17.5915 7.57715 17.1617L7.60215 16.943L7.62715 16.718C7.6377 16.6198 7.64018 16.5219 7.6334 16.4242L7.61465 16.2055L7.60215 15.9867C7.58538 15.747 7.60762 15.5049 7.6709 15.2742L7.7959 14.8367C7.80458 14.8049 7.80037 14.7804 7.7959 14.7555L7.7584 14.5367L7.71465 14.3117C7.66134 14.0225 7.68788 13.7338 7.7834 13.4617L7.8584 13.243L7.90215 13.1367L7.82715 13.0117L7.7084 12.7867C7.49587 12.3935 7.50203 11.9508 7.7209 11.568L7.88965 11.2867L7.8584 11.2367L7.7459 11.018C7.69784 10.9251 7.61935 10.7618 7.5959 10.5742C7.58375 10.476 7.57768 10.3019 7.6584 10.1117C7.74669 9.90435 7.90942 9.75209 8.10215 9.66797L8.1959 9.48672L8.25215 9.38047L8.21465 9.29922L8.11465 9.08047C8.04367 8.91734 7.97928 8.75126 7.9209 8.58672L7.8459 8.36797L7.76465 8.14922C7.6448 7.81143 7.66045 7.45602 7.7959 7.13047L7.88965 6.91172L7.97715 6.69297C7.99757 6.6439 8.0026 6.61055 8.00215 6.58672L7.9959 6.36172L7.98965 6.14297C7.98278 5.91001 8.01244 5.67854 8.07715 5.45547L8.13965 5.23672L8.2084 5.01797C8.2302 4.94267 8.23388 4.87153 8.2334 4.80547V4.36797C8.23291 4.30102 8.22879 4.24961 8.22715 4.21797C8.22638 4.20362 8.22733 4.19483 8.22715 4.19297L8.2209 4.16172L8.2084 4.09297C8.16397 3.86728 8.20204 3.52945 8.48965 3.29297C8.70104 3.11969 8.93198 3.10841 9.00215 3.10547L9.40215 3.15547ZM9.8209 4.94922C9.81033 5.12282 9.78826 5.29392 9.73965 5.46172L9.67715 5.68047L9.61465 5.90547C9.59484 5.97445 9.58786 6.03995 9.58965 6.09922L9.60215 6.53672C9.61019 6.80489 9.5586 7.06363 9.4584 7.30547L9.36465 7.53047L9.2959 7.67422L9.35215 7.83047L9.4334 8.05547C9.47879 8.18319 9.52722 8.31386 9.5834 8.44297L9.67715 8.66172L9.7084 8.73047C9.75197 8.69588 9.79136 8.65467 9.83965 8.62422L10.0271 8.50547L10.2209 8.38672L10.4959 8.25547C10.5872 8.22533 10.6797 8.2085 10.7709 8.19922L11.3084 8.24297L11.4396 8.27422L11.5209 8.08047C11.6531 7.74829 11.9206 7.38386 12.3959 7.26172L12.6084 7.20547L12.8271 7.14922C12.9332 7.12194 13.0356 7.09043 13.1334 7.04922L13.3396 6.96172L13.5396 6.88047C13.5882 6.85998 13.6402 6.84674 13.6896 6.83047C13.6644 6.78238 13.6406 6.73459 13.6209 6.68672L13.5084 6.40547L13.4396 6.24297H13.4209L13.1959 6.19922C12.9834 6.1579 12.7781 6.09333 12.5834 5.99922L12.3834 5.89922L12.1834 5.80547C12.0192 5.72577 11.8613 5.63189 11.7084 5.53047L11.5209 5.41172L11.3396 5.28672C11.3294 5.27993 11.3134 5.27094 11.2834 5.26797L11.0521 5.24922L10.8209 5.22422C10.6047 5.20285 10.3932 5.15361 10.1896 5.08047L9.9834 5.01172L9.8209 4.94922Z" fill="#FF88F5"/>
</svg>
