<svg width="30" height="30" viewBox="0 0 30 30" fill="none" xmlns="http://www.w3.org/2000/svg">
<path d="M6.65937 27.2551L6.44958 27.9751L6.65937 27.2551ZM6.09981 27.214L6.20756 27.9562L6.09981 27.214ZM5.82045 27.2546L5.9282 27.9968L5.82045 27.2546ZM5.54109 27.2951L5.43333 26.5529L5.54109 27.2951ZM4.96767 27.3433L4.94831 26.5935L4.96767 27.3433ZM4.37956 27.3584L4.39892 28.1082L4.37956 27.3584ZM3.8416 27.1923L3.4064 27.8031L3.8416 27.1923ZM3.35378 26.8447L3.78898 26.2339L3.35378 26.8447ZM3.07492 26.3752L2.3301 26.4632L3.07492 26.3752ZM2.83635 25.2324L2.17182 25.5801L2.83635 25.2324ZM2.56894 24.7213L3.23347 24.3736L2.56894 24.7213ZM2.41526 24.1834L1.66713 24.2363L2.41526 24.1834ZM2.33264 21.9264L1.59356 22.0539L2.33264 21.9264ZM2.2838 21.6433L1.54472 21.7709L2.2838 21.6433ZM2.28056 20.7979L1.57006 20.5578L2.28056 20.7979ZM2.66057 19.6977L1.95694 19.4381L2.66057 19.6977ZM2.85395 19.1736L2.15032 18.914L2.85395 19.1736ZM4.03618 18.0939L3.63614 17.4595L4.03618 18.0939ZM4.49103 17.8071L4.09099 17.1727L4.49103 17.8071ZM5.54208 17.2882L5.23098 16.6058L5.54208 17.2882ZM7.51752 17.2318L7.49938 17.9815L7.51752 17.2318ZM10.5605 17.6419L11.161 17.1926L10.5605 17.6419ZM10.7464 17.8903L10.1459 18.3397L10.7464 17.8903ZM10.9323 18.1388L11.5328 17.6894L10.9323 18.1388ZM11.3375 18.5363L10.9159 19.1565L11.3375 18.5363ZM11.5568 18.6854L11.9784 18.0651L11.5568 18.6854ZM11.7761 18.8344L12.1978 18.2142L11.7761 18.8344ZM12.1903 19.2248L12.7738 18.7537L12.1903 19.2248ZM12.5799 19.7074L11.9964 20.1786L12.5799 19.7074ZM12.6694 20.2422L11.9635 19.9888L12.6694 20.2422ZM12.564 20.5357L11.8581 20.2822L12.564 20.5357ZM12.4587 20.8291L13.1645 21.0826L12.4587 20.8291ZM12.4219 21.403L11.6934 21.5812L12.4219 21.403ZM12.559 21.9637L13.2876 21.7855L12.559 21.9637ZM12.571 22.5255L13.3062 22.6735L12.571 22.5255ZM12.5143 22.8068L11.7791 22.6588L12.5143 22.8068ZM12.4577 23.0882L11.7225 22.9402L12.4577 23.0882ZM12.521 23.6575L11.8287 23.9459L12.521 23.6575ZM12.7609 24.2333L13.4532 23.9449L12.7609 24.2333ZM12.6343 24.7604L13.1566 25.2987L12.6343 24.7604ZM12.1413 25.2387L11.6191 24.7003L12.1413 25.2387ZM11.8276 25.7275L11.1034 25.5325L11.8276 25.7275ZM11.6931 26.2268L10.9689 26.0318L11.6931 26.2268ZM11.4146 26.6436L10.9493 26.0554L11.4146 26.6436ZM10.9921 26.9779L10.5268 26.3896L10.9921 26.9779ZM10.5147 27.2268L10.2943 26.5099L10.5147 27.2268ZM10.2486 27.3086L10.469 28.0255L10.2486 27.3086ZM9.98252 27.3904L10.2029 28.1073L9.98252 27.3904ZM9.43544 27.5146L9.54732 28.2562L9.43544 27.5146ZM9.15445 27.557L9.26634 28.2986L9.15445 27.557ZM8.87347 27.5994L8.76158 26.8578L8.87347 27.5994ZM8.31937 27.6475L8.33497 28.3973L8.31937 27.6475ZM7.77312 27.6588L7.78872 28.4087L7.77312 27.6588ZM7.21979 27.4184L7.42958 26.6983L7.21979 27.4184ZM6.93958 27.3367L7.14937 26.6167L6.86916 26.535L6.65937 27.2551L6.44958 27.9751L6.72979 28.0568L6.93958 27.3367ZM6.65937 27.2551L6.86916 26.535C6.5829 26.4516 6.28814 26.4288 5.99205 26.4718L6.09981 27.214L6.20756 27.9562C6.28395 27.9451 6.36223 27.9497 6.44958 27.9751L6.65937 27.2551ZM6.09981 27.214L5.99205 26.4718L5.71269 26.5123L5.82045 27.2546L5.9282 27.9968L6.20756 27.9562L6.09981 27.214ZM5.82045 27.2546L5.71269 26.5123L5.43333 26.5529L5.54109 27.2951L5.64884 28.0373L5.9282 27.9968L5.82045 27.2546ZM5.54109 27.2951L5.43333 26.5529C5.27758 26.5755 5.116 26.5892 4.94831 26.5935L4.96767 27.3433L4.98703 28.093C5.21142 28.0872 5.43211 28.0688 5.64884 28.0373L5.54109 27.2951ZM4.96767 27.3433L4.94831 26.5935L4.65426 26.6011L4.67362 27.3509L4.69298 28.1006L4.98703 28.093L4.96767 27.3433ZM4.67362 27.3509L4.65426 26.6011L4.3602 26.6087L4.37956 27.3584L4.39892 28.1082L4.69298 28.1006L4.67362 27.3509ZM4.37956 27.3584L4.3602 26.6087C4.32988 26.6095 4.30953 26.6048 4.27679 26.5814L3.8416 27.1923L3.4064 27.8031C3.69887 28.0115 4.03716 28.1175 4.39892 28.1082L4.37956 27.3584ZM3.8416 27.1923L4.27679 26.5814L4.03288 26.4077L3.59769 27.0185L3.16249 27.6293L3.4064 27.8031L3.8416 27.1923ZM3.59769 27.0185L4.03288 26.4077L3.78898 26.2339L3.35378 26.8447L2.91859 27.4555L3.16249 27.6293L3.59769 27.0185ZM3.35378 26.8447L3.78898 26.2339C3.78594 26.2317 3.78759 26.2325 3.79182 26.237C3.79617 26.2416 3.80167 26.2485 3.80695 26.2575C3.81224 26.2664 3.8158 26.2747 3.81795 26.2812C3.82004 26.2876 3.82007 26.29 3.81973 26.2872L3.07492 26.3752L2.3301 26.4632C2.3784 26.8719 2.58476 27.2177 2.91859 27.4555L3.35378 26.8447ZM3.07492 26.3752L3.81973 26.2872L3.78478 25.9914L3.03996 26.0794L2.29515 26.1675L2.3301 26.4632L3.07492 26.3752ZM3.03996 26.0794L3.78478 25.9914L3.74982 25.6957L3.00501 25.7837L2.26019 25.8717L2.29515 26.1675L3.03996 26.0794ZM3.00501 25.7837L3.74982 25.6957C3.71615 25.4108 3.63375 25.1387 3.50088 24.8847L2.83635 25.2324L2.17182 25.5801C2.21722 25.6669 2.24726 25.7623 2.26019 25.8717L3.00501 25.7837ZM2.83635 25.2324L3.50088 24.8847L3.36718 24.6292L2.70264 24.9769L2.03811 25.3246L2.17182 25.5801L2.83635 25.2324ZM2.70264 24.9769L3.36718 24.6292L3.23347 24.3736L2.56894 24.7213L1.90441 25.0691L2.03811 25.3246L2.70264 24.9769ZM2.56894 24.7213L3.23347 24.3736C3.19128 24.293 3.16929 24.2138 3.16339 24.1304L2.41526 24.1834L1.66713 24.2363C1.68787 24.5295 1.76833 24.809 1.90441 25.0691L2.56894 24.7213ZM2.41526 24.1834L3.16339 24.1304L3.14341 23.848L2.39528 23.9009L1.64714 23.9538L1.66713 24.2363L2.41526 24.1834ZM2.39528 23.9009L3.14341 23.848L3.12343 23.5655L2.3753 23.6185L1.62716 23.6714L1.64714 23.9538L2.39528 23.9009ZM2.3753 23.6185L3.12343 23.5655C3.11175 23.4005 3.10784 23.2359 3.11165 23.0718L2.36186 23.0543L1.61206 23.0369C1.60715 23.2483 1.6122 23.4598 1.62716 23.6714L2.3753 23.6185ZM2.36186 23.0543L3.11165 23.0718L3.11819 22.7901L2.3684 22.7727L1.6186 22.7553L1.61206 23.0369L2.36186 23.0543ZM2.3684 22.7727L3.11819 22.7901L3.12473 22.5084L2.37494 22.491L1.62514 22.4736L1.6186 22.7553L2.3684 22.7727ZM2.37494 22.491L3.12473 22.5084C3.13024 22.2712 3.11237 22.0344 3.07171 21.7988L2.33264 21.9264L1.59356 22.0539C1.61802 22.1956 1.62835 22.3353 1.62514 22.4736L2.37494 22.491ZM2.33264 21.9264L3.07171 21.7988L3.02288 21.5158L2.2838 21.6433L1.54472 21.7709L1.59356 22.0539L2.33264 21.9264ZM2.2838 21.6433L3.02288 21.5158L2.97404 21.2328L2.23496 21.3603L1.49588 21.4879L1.54472 21.7709L2.2838 21.6433ZM2.23496 21.3603L2.97404 21.2328C2.9633 21.1706 2.96697 21.1094 2.99107 21.0381L2.28056 20.7979L1.57006 20.5578C1.46823 20.859 1.44151 21.1728 1.49588 21.4879L2.23496 21.3603ZM2.28056 20.7979L2.99107 21.0381L3.08551 20.7587L2.375 20.5186L1.6645 20.2784L1.57006 20.5578L2.28056 20.7979ZM2.375 20.5186L3.08551 20.7587L3.17995 20.4794L2.46944 20.2392L1.75894 19.999L1.6645 20.2784L2.375 20.5186ZM2.46944 20.2392L3.17995 20.4794C3.24082 20.2993 3.30225 20.1253 3.3642 19.9574L2.66057 19.6977L1.95694 19.4381C1.88997 19.6196 1.82398 19.8066 1.75894 19.999L2.46944 20.2392ZM2.66057 19.6977L3.3642 19.9574L3.46089 19.6953L2.75726 19.4357L2.05363 19.1761L1.95694 19.4381L2.66057 19.6977ZM2.75726 19.4357L3.46089 19.6953L3.55758 19.4333L2.85395 19.1736L2.15032 18.914L2.05363 19.1761L2.75726 19.4357ZM2.85395 19.1736L3.55758 19.4333C3.57523 19.3854 3.5973 19.3573 3.62855 19.3327L3.16517 18.743L2.70178 18.1533C2.44699 18.3535 2.26159 18.6124 2.15032 18.914L2.85395 19.1736ZM3.16517 18.743L3.62855 19.3327L3.84308 19.1642L3.3797 18.5744L2.91631 17.9847L2.70178 18.1533L3.16517 18.743ZM3.3797 18.5744L3.84308 19.1642L4.05761 18.9956L3.59422 18.4059L3.13084 17.8161L2.91631 17.9847L3.3797 18.5744ZM3.59422 18.4059L4.05761 18.9956C4.1806 18.8989 4.30679 18.8099 4.43621 18.7283L4.03618 18.0939L3.63614 17.4595C3.46233 17.5691 3.29389 17.688 3.13084 17.8161L3.59422 18.4059ZM4.03618 18.0939L4.43621 18.7283L4.66364 18.5849L4.2636 17.9505L3.86357 17.3161L3.63614 17.4595L4.03618 18.0939ZM4.2636 17.9505L4.66364 18.5849L4.89106 18.4415L4.49103 17.8071L4.09099 17.1727L3.86357 17.3161L4.2636 17.9505ZM4.49103 17.8071L4.89106 18.4415C5.01094 18.3659 5.14811 18.2921 5.30409 18.221L4.99299 17.5385L4.6819 16.8561C4.47182 16.9518 4.27434 17.0571 4.09099 17.1727L4.49103 17.8071ZM4.99299 17.5385L5.30409 18.221L5.57864 18.0958L5.26754 17.4134L4.95644 16.7309L4.6819 16.8561L4.99299 17.5385ZM5.26754 17.4134L5.57864 18.0958L5.85318 17.9706L5.54208 17.2882L5.23098 16.6058L4.95644 16.7309L5.26754 17.4134ZM5.54208 17.2882L5.85318 17.9706C5.93411 17.9338 6.00173 17.9229 6.06465 17.9259L6.10092 17.1768L6.1372 16.4277C5.82105 16.4124 5.51611 16.4758 5.23098 16.6058L5.54208 17.2882ZM6.10092 17.1768L6.06465 17.9259L6.34895 17.9397L6.38522 17.1906L6.4215 16.4415L6.1372 16.4277L6.10092 17.1768ZM6.38522 17.1906L6.34895 17.9397L6.63325 17.9535L6.66952 17.2044L6.7058 16.4552L6.4215 16.4415L6.38522 17.1906ZM6.66952 17.2044L6.63325 17.9535C6.82876 17.9629 7.02352 17.97 7.21753 17.9747L7.23567 17.2249L7.25382 16.4752C7.07202 16.4708 6.88935 16.4641 6.7058 16.4552L6.66952 17.2044ZM7.23567 17.2249L7.21753 17.9747L7.49938 17.9815L7.51752 17.2318L7.53567 16.482L7.25382 16.4752L7.23567 17.2249ZM7.51752 17.2318L7.49938 17.9815L7.78123 17.9884L7.79937 17.2386L7.81752 16.4888L7.53567 16.482L7.51752 17.2318ZM7.79937 17.2386L7.78123 17.9884C7.94962 17.9924 8.11842 18.0031 8.28766 18.0204L8.36377 17.2742L8.43989 16.5281C8.2324 16.5069 8.02493 16.4938 7.81752 16.4888L7.79937 17.2386ZM8.36377 17.2742L8.28766 18.0204L8.57021 18.0492L8.64632 17.3031L8.72243 16.5569L8.43989 16.5281L8.36377 17.2742ZM8.64632 17.3031L8.57021 18.0492L8.85275 18.078L8.92887 17.3319L9.00498 16.5858L8.72243 16.5569L8.64632 17.3031ZM8.92887 17.3319L8.85275 18.078C9.05983 18.0991 9.2693 18.1126 9.4811 18.1186L9.50222 17.3689L9.52335 16.6192C9.3474 16.6142 9.17463 16.6031 9.00498 16.5858L8.92887 17.3319ZM9.50222 17.3689L9.4811 18.1186L9.7719 18.1268L9.79303 17.3771L9.81415 16.6274L9.52335 16.6192L9.50222 17.3689ZM9.79303 17.3771L9.7719 18.1268L10.0627 18.135L10.0838 17.3853L10.105 16.6356L9.81415 16.6274L9.79303 17.3771ZM10.0838 17.3853L10.0627 18.135C10.0517 18.1347 10.024 18.1307 9.9929 18.1139C9.9632 18.0979 9.95386 18.083 9.96001 18.0912L10.5605 17.6419L11.161 17.1926C10.9105 16.8577 10.5447 16.648 10.105 16.6356L10.0838 17.3853ZM10.5605 17.6419L9.96001 18.0912L10.1459 18.3397L10.7464 17.8903L11.3469 17.441L11.161 17.1926L10.5605 17.6419ZM10.7464 17.8903L10.1459 18.3397L10.3318 18.5881L10.9323 18.1388L11.5328 17.6894L11.3469 17.441L10.7464 17.8903ZM10.9323 18.1388L10.3318 18.5881C10.4972 18.8091 10.6904 19.0033 10.9159 19.1565L11.3375 18.5363L11.7591 17.916C11.6921 17.8705 11.6152 17.7996 11.5328 17.6894L10.9323 18.1388ZM11.3375 18.5363L10.9159 19.1565L11.1352 19.3056L11.5568 18.6854L11.9784 18.0651L11.7591 17.916L11.3375 18.5363ZM11.5568 18.6854L11.1352 19.3056L11.3545 19.4547L11.7761 18.8344L12.1978 18.2142L11.9784 18.0651L11.5568 18.6854ZM11.7761 18.8344L11.3545 19.4547C11.4304 19.5063 11.5155 19.583 11.6067 19.696L12.1903 19.2248L12.7738 18.7537C12.6052 18.5449 12.4143 18.3614 12.1978 18.2142L11.7761 18.8344ZM12.1903 19.2248L11.6067 19.696L11.8016 19.9373L12.3851 19.4661L12.9686 18.995L12.7738 18.7537L12.1903 19.2248ZM12.3851 19.4661L11.8016 19.9373L11.9964 20.1786L12.5799 19.7074L13.1635 19.2363L12.9686 18.995L12.3851 19.4661ZM12.5799 19.7074L11.9964 20.1786C11.9921 20.1733 11.9693 20.1411 11.96 20.0855C11.9507 20.0302 11.9619 19.9934 11.9635 19.9888L12.6694 20.2422L13.3753 20.4957C13.5334 20.0553 13.4588 19.6022 13.1635 19.2363L12.5799 19.7074ZM12.6694 20.2422L11.9635 19.9888L11.8581 20.2822L12.564 20.5357L13.2699 20.7891L13.3753 20.4957L12.6694 20.2422ZM12.564 20.5357L11.8581 20.2822L11.7528 20.5757L12.4587 20.8291L13.1645 21.0826L13.2699 20.7891L12.564 20.5357ZM12.4587 20.8291L11.7528 20.5757C11.637 20.8982 11.6098 21.2397 11.6934 21.5812L12.4219 21.403L13.1504 21.2248C13.1425 21.1924 13.1399 21.1513 13.1645 21.0826L12.4587 20.8291ZM12.4219 21.403L11.6934 21.5812L11.7619 21.8615L12.4905 21.6833L13.219 21.5051L13.1504 21.2248L12.4219 21.403ZM12.4905 21.6833L11.7619 21.8615L11.8305 22.1419L12.559 21.9637L13.2876 21.7855L13.219 21.5051L12.4905 21.6833ZM12.559 21.9637L11.8305 22.1419C11.8502 22.2225 11.8516 22.2984 11.8357 22.3775L12.571 22.5255L13.3062 22.6735C13.3658 22.3774 13.3593 22.0787 13.2876 21.7855L12.559 21.9637ZM12.571 22.5255L11.8357 22.3775L11.7791 22.6588L12.5143 22.8068L13.2496 22.9548L13.3062 22.6735L12.571 22.5255ZM12.5143 22.8068L11.7791 22.6588L11.7225 22.9402L12.4577 23.0882L13.193 23.2362L13.2496 22.9548L12.5143 22.8068ZM12.4577 23.0882L11.7225 22.9402C11.6526 23.287 11.6965 23.6285 11.8287 23.9459L12.521 23.6575L13.2133 23.3691C13.1856 23.3026 13.1873 23.2645 13.193 23.2362L12.4577 23.0882ZM12.521 23.6575L11.8287 23.9459L11.9486 24.2338L12.641 23.9454L13.3333 23.657L13.2133 23.3691L12.521 23.6575ZM12.641 23.9454L11.9486 24.2338L12.0686 24.5217L12.7609 24.2333L13.4532 23.9449L13.3333 23.657L12.641 23.9454ZM12.7609 24.2333L12.0686 24.5217C12.057 24.494 12.0385 24.4232 12.06 24.3339C12.0799 24.2509 12.1193 24.2151 12.1121 24.2221L12.6343 24.7604L13.1566 25.2987C13.3137 25.1462 13.4564 24.9428 13.5185 24.6842C13.5821 24.4192 13.5448 24.1646 13.4532 23.9449L12.7609 24.2333ZM12.6343 24.7604L12.1121 24.2221L11.8656 24.4612L12.3878 24.9995L12.9101 25.5378L13.1566 25.2987L12.6343 24.7604ZM12.3878 24.9995L11.8656 24.4612L11.6191 24.7003L12.1413 25.2387L12.6635 25.777L12.9101 25.5378L12.3878 24.9995ZM12.1413 25.2387L11.6191 24.7003C11.3886 24.9239 11.1931 25.1993 11.1034 25.5325L11.8276 25.7275L12.5518 25.9225C12.5519 25.9222 12.5551 25.9101 12.5708 25.8855C12.587 25.8604 12.6154 25.8237 12.6635 25.777L12.1413 25.2387ZM11.8276 25.7275L11.1034 25.5325L11.0361 25.7822L11.7603 25.9772L12.4845 26.1722L12.5518 25.9225L11.8276 25.7275ZM11.7603 25.9772L11.0361 25.7822L10.9689 26.0318L11.6931 26.2268L12.4173 26.4218L12.4845 26.1722L11.7603 25.9772ZM11.6931 26.2268L10.9689 26.0318C10.9678 26.0358 10.967 26.0378 10.9667 26.0383C10.9665 26.0388 10.9664 26.039 10.9663 26.0392C10.9661 26.0394 10.9652 26.0407 10.963 26.0431C10.9607 26.0456 10.9564 26.0498 10.9493 26.0554L11.4146 26.6436L11.8799 27.2319C12.1414 27.025 12.3288 26.7506 12.4173 26.4218L11.6931 26.2268ZM11.4146 26.6436L10.9493 26.0554L10.7381 26.2225L11.2033 26.8107L11.6686 27.399L11.8799 27.2319L11.4146 26.6436ZM11.2033 26.8107L10.7381 26.2225L10.5268 26.3896L10.9921 26.9779L11.4574 27.5661L11.6686 27.399L11.2033 26.8107ZM10.9921 26.9779L10.5268 26.3896C10.4613 26.4414 10.3858 26.4818 10.2943 26.5099L10.5147 27.2268L10.7351 27.9437C10.9984 27.8627 11.2411 27.7371 11.4574 27.5661L10.9921 26.9779ZM10.5147 27.2268L10.2943 26.5099L10.0282 26.5917L10.2486 27.3086L10.469 28.0255L10.7351 27.9437L10.5147 27.2268ZM10.2486 27.3086L10.0282 26.5917L9.76211 26.6735L9.98252 27.3904L10.2029 28.1073L10.469 28.0255L10.2486 27.3086ZM9.98252 27.3904L9.76211 26.6735C9.62095 26.7169 9.4749 26.7502 9.32355 26.773L9.43544 27.5146L9.54732 28.2562C9.77062 28.2225 9.98929 28.173 10.2029 28.1073L9.98252 27.3904ZM9.43544 27.5146L9.32355 26.773L9.04257 26.8154L9.15445 27.557L9.26634 28.2986L9.54732 28.2562L9.43544 27.5146ZM9.15445 27.557L9.04257 26.8154L8.76158 26.8578L8.87347 27.5994L8.98536 28.341L9.26634 28.2986L9.15445 27.557ZM8.87347 27.5994L8.76158 26.8578C8.60487 26.8814 8.45234 26.8945 8.30376 26.8976L8.31937 27.6475L8.33497 28.3973C8.55055 28.3928 8.76742 28.3739 8.98536 28.341L8.87347 27.5994ZM8.31937 27.6475L8.30376 26.8976L8.03064 26.9033L8.04624 27.6532L8.06185 28.403L8.33497 28.3973L8.31937 27.6475ZM8.04624 27.6532L8.03064 26.9033L7.75752 26.909L7.77312 27.6588L7.78872 28.4087L8.06185 28.403L8.04624 27.6532ZM7.77312 27.6588L7.75752 26.909C7.67506 26.9107 7.65261 26.9075 7.66481 26.9091C7.67061 26.9098 7.68555 26.9119 7.70664 26.9168C7.72567 26.9211 7.765 26.9312 7.8139 26.9523C7.85695 26.9708 7.95115 27.0162 8.04322 27.1114C8.14778 27.2194 8.25 27.3954 8.25 27.6234H7.5H6.75C6.75 28.1206 7.16743 28.307 7.22024 28.3298C7.32844 28.3764 7.42803 28.3909 7.47175 28.3966C7.575 28.41 7.68911 28.4107 7.78872 28.4087L7.77312 27.6588ZM7.5 27.6234H8.25V27.5823H7.5H6.75V27.6234H7.5ZM7.5 27.5823H8.25V27.5411H7.5H6.75V27.5823H7.5ZM7.5 27.5411H8.25C8.25 27.319 8.15557 27.1593 8.09325 27.0771C8.03039 26.9942 7.96379 26.9409 7.92537 26.9128C7.84832 26.8564 7.77266 26.8212 7.73093 26.8029C7.6389 26.7626 7.53156 26.728 7.42958 26.6983L7.21979 27.4184L7.01 28.1384C7.04913 28.1498 7.07895 28.1592 7.10078 28.1667C7.12379 28.1745 7.13159 28.178 7.12897 28.1768C7.12731 28.1761 7.11902 28.1724 7.10629 28.1656C7.09475 28.1594 7.07016 28.1457 7.03961 28.1233C7.01286 28.1037 6.95502 28.0586 6.898 27.9834C6.84151 27.9089 6.75 27.7564 6.75 27.5411H7.5ZM7.21979 27.4184L7.42958 26.6983L7.14937 26.6167L6.93958 27.3367L6.72979 28.0568L7.01 28.1384L7.21979 27.4184Z" fill="#515151"/>
<path d="M21.6594 27.2551L21.4496 27.9751L21.6594 27.2551ZM21.0998 27.214L21.2076 27.9562L21.0998 27.214ZM20.8204 27.2546L20.9282 27.9968L20.8204 27.2546ZM20.5411 27.2951L20.4333 26.5529L20.5411 27.2951ZM19.9677 27.3433L19.9483 26.5935L19.9677 27.3433ZM19.3796 27.3584L19.3989 28.1082L19.3796 27.3584ZM18.8416 27.1923L18.4064 27.8031L18.8416 27.1923ZM18.3538 26.8447L18.789 26.2339L18.3538 26.8447ZM18.0749 26.3752L17.3301 26.4632L18.0749 26.3752ZM17.8363 25.2324L17.1718 25.5801L17.8363 25.2324ZM17.5689 24.7213L18.2335 24.3736L17.5689 24.7213ZM17.4153 24.1834L16.6671 24.2363L17.4153 24.1834ZM17.3326 21.9264L16.5936 22.0539L17.3326 21.9264ZM17.2838 21.6433L16.5447 21.7709L17.2838 21.6433ZM17.2806 20.7979L16.5701 20.5578L17.2806 20.7979ZM17.6606 19.6977L16.9569 19.4381L17.6606 19.6977ZM17.8539 19.1736L17.1503 18.914L17.8539 19.1736ZM19.0362 18.0939L18.6361 17.4595L19.0362 18.0939ZM19.491 17.8071L19.091 17.1727L19.491 17.8071ZM20.5421 17.2882L20.231 16.6058L20.5421 17.2882ZM22.5175 17.2318L22.4994 17.9815L22.5175 17.2318ZM25.5605 17.6419L26.161 17.1926L25.5605 17.6419ZM25.7464 17.8903L25.1459 18.3397L25.7464 17.8903ZM25.9323 18.1388L26.5328 17.6894L25.9323 18.1388ZM26.3375 18.5363L25.9159 19.1565L26.3375 18.5363ZM26.5568 18.6854L26.9784 18.0651L26.5568 18.6854ZM26.7761 18.8344L27.1978 18.2142L26.7761 18.8344ZM27.1903 19.2248L27.7738 18.7537L27.1903 19.2248ZM27.5799 19.7074L26.9964 20.1786L27.5799 19.7074ZM27.6694 20.2422L26.9635 19.9888L27.6694 20.2422ZM27.564 20.5357L26.8581 20.2822L27.564 20.5357ZM27.4587 20.8291L28.1645 21.0826L27.4587 20.8291ZM27.4219 21.403L26.6934 21.5812L27.4219 21.403ZM27.559 21.9637L28.2876 21.7855L27.559 21.9637ZM27.571 22.5255L28.3062 22.6735L27.571 22.5255ZM27.5143 22.8068L26.7791 22.6588L27.5143 22.8068ZM27.4577 23.0882L26.7225 22.9402L27.4577 23.0882ZM27.521 23.6575L26.8287 23.9459L27.521 23.6575ZM27.7609 24.2333L28.4532 23.9449L27.7609 24.2333ZM27.6343 24.7604L28.1566 25.2987L27.6343 24.7604ZM27.1413 25.2387L26.6191 24.7003L27.1413 25.2387ZM26.8276 25.7275L26.1034 25.5325L26.8276 25.7275ZM26.6931 26.2268L25.9689 26.0318L26.6931 26.2268ZM26.4146 26.6436L25.9493 26.0554L26.4146 26.6436ZM25.9921 26.9779L25.5268 26.3896L25.9921 26.9779ZM25.5147 27.2268L25.2943 26.5099L25.5147 27.2268ZM25.2486 27.3086L25.469 28.0255L25.2486 27.3086ZM24.9825 27.3904L25.2029 28.1073L24.9825 27.3904ZM24.4354 27.5146L24.5473 28.2562L24.4354 27.5146ZM24.1545 27.557L24.2663 28.2986L24.1545 27.557ZM23.8735 27.5994L23.7616 26.8578L23.8735 27.5994ZM23.3194 27.6475L23.335 28.3973L23.3194 27.6475ZM22.7731 27.6588L22.7887 28.4087L22.7731 27.6588ZM22.2198 27.4184L22.4296 26.6983L22.2198 27.4184ZM21.9396 27.3367L22.1494 26.6167L21.8692 26.535L21.6594 27.2551L21.4496 27.9751L21.7298 28.0568L21.9396 27.3367ZM21.6594 27.2551L21.8692 26.535C21.5829 26.4516 21.2881 26.4288 20.9921 26.4718L21.0998 27.214L21.2076 27.9562C21.2839 27.9451 21.3622 27.9497 21.4496 27.9751L21.6594 27.2551ZM21.0998 27.214L20.9921 26.4718L20.7127 26.5123L20.8204 27.2546L20.9282 27.9968L21.2076 27.9562L21.0998 27.214ZM20.8204 27.2546L20.7127 26.5123L20.4333 26.5529L20.5411 27.2951L20.6488 28.0373L20.9282 27.9968L20.8204 27.2546ZM20.5411 27.2951L20.4333 26.5529C20.2776 26.5755 20.116 26.5892 19.9483 26.5935L19.9677 27.3433L19.987 28.093C20.2114 28.0872 20.4321 28.0688 20.6488 28.0373L20.5411 27.2951ZM19.9677 27.3433L19.9483 26.5935L19.6543 26.6011L19.6736 27.3509L19.693 28.1006L19.987 28.093L19.9677 27.3433ZM19.6736 27.3509L19.6543 26.6011L19.3602 26.6087L19.3796 27.3584L19.3989 28.1082L19.693 28.1006L19.6736 27.3509ZM19.3796 27.3584L19.3602 26.6087C19.3299 26.6095 19.3095 26.6048 19.2768 26.5814L18.8416 27.1923L18.4064 27.8031C18.6989 28.0115 19.0372 28.1175 19.3989 28.1082L19.3796 27.3584ZM18.8416 27.1923L19.2768 26.5814L19.0329 26.4077L18.5977 27.0185L18.1625 27.6293L18.4064 27.8031L18.8416 27.1923ZM18.5977 27.0185L19.0329 26.4077L18.789 26.2339L18.3538 26.8447L17.9186 27.4555L18.1625 27.6293L18.5977 27.0185ZM18.3538 26.8447L18.789 26.2339C18.7859 26.2317 18.7876 26.2325 18.7918 26.237C18.7962 26.2416 18.8017 26.2485 18.807 26.2575C18.8122 26.2664 18.8158 26.2747 18.8179 26.2812C18.82 26.2876 18.8201 26.29 18.8197 26.2872L18.0749 26.3752L17.3301 26.4632C17.3784 26.8719 17.5848 27.2177 17.9186 27.4555L18.3538 26.8447ZM18.0749 26.3752L18.8197 26.2872L18.7848 25.9914L18.04 26.0794L17.2951 26.1675L17.3301 26.4632L18.0749 26.3752ZM18.04 26.0794L18.7848 25.9914L18.7498 25.6957L18.005 25.7837L17.2602 25.8717L17.2951 26.1675L18.04 26.0794ZM18.005 25.7837L18.7498 25.6957C18.7162 25.4108 18.6337 25.1387 18.5009 24.8847L17.8363 25.2324L17.1718 25.5801C17.2172 25.6669 17.2473 25.7623 17.2602 25.8717L18.005 25.7837ZM17.8363 25.2324L18.5009 24.8847L18.3672 24.6292L17.7026 24.9769L17.0381 25.3246L17.1718 25.5801L17.8363 25.2324ZM17.7026 24.9769L18.3672 24.6292L18.2335 24.3736L17.5689 24.7213L16.9044 25.0691L17.0381 25.3246L17.7026 24.9769ZM17.5689 24.7213L18.2335 24.3736C18.1913 24.293 18.1693 24.2138 18.1634 24.1304L17.4153 24.1834L16.6671 24.2363C16.6879 24.5295 16.7683 24.809 16.9044 25.0691L17.5689 24.7213ZM17.4153 24.1834L18.1634 24.1304L18.1434 23.848L17.3953 23.9009L16.6471 23.9538L16.6671 24.2363L17.4153 24.1834ZM17.3953 23.9009L18.1434 23.848L18.1234 23.5655L17.3753 23.6185L16.6272 23.6714L16.6471 23.9538L17.3953 23.9009ZM17.3753 23.6185L18.1234 23.5655C18.1118 23.4005 18.1078 23.2359 18.1117 23.0718L17.3619 23.0543L16.6121 23.0369C16.6071 23.2483 16.6122 23.4598 16.6272 23.6714L17.3753 23.6185ZM17.3619 23.0543L18.1117 23.0718L18.1182 22.7901L17.3684 22.7727L16.6186 22.7553L16.6121 23.0369L17.3619 23.0543ZM17.3684 22.7727L18.1182 22.7901L18.1247 22.5084L17.3749 22.491L16.6251 22.4736L16.6186 22.7553L17.3684 22.7727ZM17.3749 22.491L18.1247 22.5084C18.1302 22.2712 18.1124 22.0344 18.0717 21.7988L17.3326 21.9264L16.5936 22.0539C16.618 22.1956 16.6283 22.3353 16.6251 22.4736L17.3749 22.491ZM17.3326 21.9264L18.0717 21.7988L18.0229 21.5158L17.2838 21.6433L16.5447 21.7709L16.5936 22.0539L17.3326 21.9264ZM17.2838 21.6433L18.0229 21.5158L17.974 21.2328L17.235 21.3603L16.4959 21.4879L16.5447 21.7709L17.2838 21.6433ZM17.235 21.3603L17.974 21.2328C17.9633 21.1706 17.967 21.1094 17.9911 21.0381L17.2806 20.7979L16.5701 20.5578C16.4682 20.859 16.4415 21.1728 16.4959 21.4879L17.235 21.3603ZM17.2806 20.7979L17.9911 21.0381L18.0855 20.7587L17.375 20.5186L16.6645 20.2784L16.5701 20.5578L17.2806 20.7979ZM17.375 20.5186L18.0855 20.7587L18.1799 20.4794L17.4694 20.2392L16.7589 19.999L16.6645 20.2784L17.375 20.5186ZM17.4694 20.2392L18.1799 20.4794C18.2408 20.2993 18.3022 20.1253 18.3642 19.9574L17.6606 19.6977L16.9569 19.4381C16.89 19.6196 16.824 19.8066 16.7589 19.999L17.4694 20.2392ZM17.6606 19.6977L18.3642 19.9574L18.4609 19.6953L17.7573 19.4357L17.0536 19.1761L16.9569 19.4381L17.6606 19.6977ZM17.7573 19.4357L18.4609 19.6953L18.5576 19.4333L17.8539 19.1736L17.1503 18.914L17.0536 19.1761L17.7573 19.4357ZM17.8539 19.1736L18.5576 19.4333C18.5752 19.3854 18.5973 19.3573 18.6286 19.3327L18.1652 18.743L17.7018 18.1533C17.447 18.3535 17.2616 18.6124 17.1503 18.914L17.8539 19.1736ZM18.1652 18.743L18.6286 19.3327L18.8431 19.1642L18.3797 18.5744L17.9163 17.9847L17.7018 18.1533L18.1652 18.743ZM18.3797 18.5744L18.8431 19.1642L19.0576 18.9956L18.5942 18.4059L18.1308 17.8161L17.9163 17.9847L18.3797 18.5744ZM18.5942 18.4059L19.0576 18.9956C19.1806 18.8989 19.3068 18.8099 19.4362 18.7283L19.0362 18.0939L18.6361 17.4595C18.4623 17.5691 18.2939 17.688 18.1308 17.8161L18.5942 18.4059ZM19.0362 18.0939L19.4362 18.7283L19.6636 18.5849L19.2636 17.9505L18.8636 17.3161L18.6361 17.4595L19.0362 18.0939ZM19.2636 17.9505L19.6636 18.5849L19.8911 18.4415L19.491 17.8071L19.091 17.1727L18.8636 17.3161L19.2636 17.9505ZM19.491 17.8071L19.8911 18.4415C20.0109 18.3659 20.1481 18.2921 20.3041 18.221L19.993 17.5385L19.6819 16.8561C19.4718 16.9518 19.2743 17.0571 19.091 17.1727L19.491 17.8071ZM19.993 17.5385L20.3041 18.221L20.5786 18.0958L20.2675 17.4134L19.9564 16.7309L19.6819 16.8561L19.993 17.5385ZM20.2675 17.4134L20.5786 18.0958L20.8532 17.9706L20.5421 17.2882L20.231 16.6058L19.9564 16.7309L20.2675 17.4134ZM20.5421 17.2882L20.8532 17.9706C20.9341 17.9338 21.0017 17.9229 21.0646 17.9259L21.1009 17.1768L21.1372 16.4277C20.8211 16.4124 20.5161 16.4758 20.231 16.6058L20.5421 17.2882ZM21.1009 17.1768L21.0646 17.9259L21.3489 17.9397L21.3852 17.1906L21.4215 16.4415L21.1372 16.4277L21.1009 17.1768ZM21.3852 17.1906L21.3489 17.9397L21.6332 17.9535L21.6695 17.2044L21.7058 16.4552L21.4215 16.4415L21.3852 17.1906ZM21.6695 17.2044L21.6332 17.9535C21.8288 17.9629 22.0235 17.97 22.2175 17.9747L22.2357 17.2249L22.2538 16.4752C22.072 16.4708 21.8893 16.4641 21.7058 16.4552L21.6695 17.2044ZM22.2357 17.2249L22.2175 17.9747L22.4994 17.9815L22.5175 17.2318L22.5357 16.482L22.2538 16.4752L22.2357 17.2249ZM22.5175 17.2318L22.4994 17.9815L22.7812 17.9884L22.7994 17.2386L22.8175 16.4888L22.5357 16.482L22.5175 17.2318ZM22.7994 17.2386L22.7812 17.9884C22.9496 17.9924 23.1184 18.0031 23.2877 18.0204L23.3638 17.2742L23.4399 16.5281C23.2324 16.5069 23.0249 16.4938 22.8175 16.4888L22.7994 17.2386ZM23.3638 17.2742L23.2877 18.0204L23.5702 18.0492L23.6463 17.3031L23.7224 16.5569L23.4399 16.5281L23.3638 17.2742ZM23.6463 17.3031L23.5702 18.0492L23.8528 18.078L23.9289 17.3319L24.005 16.5858L23.7224 16.5569L23.6463 17.3031ZM23.9289 17.3319L23.8528 18.078C24.0598 18.0991 24.2693 18.1126 24.4811 18.1186L24.5022 17.3689L24.5233 16.6192C24.3474 16.6142 24.1746 16.6031 24.005 16.5858L23.9289 17.3319ZM24.5022 17.3689L24.4811 18.1186L24.7719 18.1268L24.793 17.3771L24.8142 16.6274L24.5233 16.6192L24.5022 17.3689ZM24.793 17.3771L24.7719 18.1268L25.0627 18.135L25.0838 17.3853L25.105 16.6356L24.8142 16.6274L24.793 17.3771ZM25.0838 17.3853L25.0627 18.135C25.0517 18.1347 25.024 18.1307 24.9929 18.1139C24.9632 18.0979 24.9539 18.083 24.96 18.0912L25.5605 17.6419L26.161 17.1926C25.9105 16.8577 25.5447 16.648 25.105 16.6356L25.0838 17.3853ZM25.5605 17.6419L24.96 18.0912L25.1459 18.3397L25.7464 17.8903L26.3469 17.441L26.161 17.1926L25.5605 17.6419ZM25.7464 17.8903L25.1459 18.3397L25.3318 18.5881L25.9323 18.1388L26.5328 17.6894L26.3469 17.441L25.7464 17.8903ZM25.9323 18.1388L25.3318 18.5881C25.4972 18.8091 25.6904 19.0033 25.9159 19.1565L26.3375 18.5363L26.7591 17.916C26.6921 17.8705 26.6152 17.7996 26.5328 17.6894L25.9323 18.1388ZM26.3375 18.5363L25.9159 19.1565L26.1352 19.3056L26.5568 18.6854L26.9784 18.0651L26.7591 17.916L26.3375 18.5363ZM26.5568 18.6854L26.1352 19.3056L26.3545 19.4547L26.7761 18.8344L27.1978 18.2142L26.9784 18.0651L26.5568 18.6854ZM26.7761 18.8344L26.3545 19.4547C26.4304 19.5063 26.5155 19.583 26.6067 19.696L27.1903 19.2248L27.7738 18.7537C27.6052 18.5449 27.4143 18.3614 27.1978 18.2142L26.7761 18.8344ZM27.1903 19.2248L26.6067 19.696L26.8016 19.9373L27.3851 19.4661L27.9686 18.995L27.7738 18.7537L27.1903 19.2248ZM27.3851 19.4661L26.8016 19.9373L26.9964 20.1786L27.5799 19.7074L28.1635 19.2363L27.9686 18.995L27.3851 19.4661ZM27.5799 19.7074L26.9964 20.1786C26.9921 20.1733 26.9693 20.1411 26.96 20.0855C26.9507 20.0302 26.9619 19.9934 26.9635 19.9888L27.6694 20.2422L28.3753 20.4957C28.5334 20.0553 28.4588 19.6022 28.1635 19.2363L27.5799 19.7074ZM27.6694 20.2422L26.9635 19.9888L26.8581 20.2822L27.564 20.5357L28.2699 20.7891L28.3753 20.4957L27.6694 20.2422ZM27.564 20.5357L26.8581 20.2822L26.7528 20.5757L27.4587 20.8291L28.1645 21.0826L28.2699 20.7891L27.564 20.5357ZM27.4587 20.8291L26.7528 20.5757C26.637 20.8982 26.6098 21.2397 26.6934 21.5812L27.4219 21.403L28.1504 21.2248C28.1425 21.1924 28.1399 21.1513 28.1645 21.0826L27.4587 20.8291ZM27.4219 21.403L26.6934 21.5812L26.7619 21.8615L27.4905 21.6833L28.219 21.5051L28.1504 21.2248L27.4219 21.403ZM27.4905 21.6833L26.7619 21.8615L26.8305 22.1419L27.559 21.9637L28.2876 21.7855L28.219 21.5051L27.4905 21.6833ZM27.559 21.9637L26.8305 22.1419C26.8502 22.2225 26.8516 22.2984 26.8357 22.3775L27.571 22.5255L28.3062 22.6735C28.3658 22.3774 28.3593 22.0787 28.2876 21.7855L27.559 21.9637ZM27.571 22.5255L26.8357 22.3775L26.7791 22.6588L27.5143 22.8068L28.2496 22.9548L28.3062 22.6735L27.571 22.5255ZM27.5143 22.8068L26.7791 22.6588L26.7225 22.9402L27.4577 23.0882L28.193 23.2362L28.2496 22.9548L27.5143 22.8068ZM27.4577 23.0882L26.7225 22.9402C26.6526 23.287 26.6965 23.6285 26.8287 23.9459L27.521 23.6575L28.2133 23.3691C28.1856 23.3026 28.1873 23.2645 28.193 23.2362L27.4577 23.0882ZM27.521 23.6575L26.8287 23.9459L26.9486 24.2338L27.641 23.9454L28.3333 23.657L28.2133 23.3691L27.521 23.6575ZM27.641 23.9454L26.9486 24.2338L27.0686 24.5217L27.7609 24.2333L28.4532 23.9449L28.3333 23.657L27.641 23.9454ZM27.7609 24.2333L27.0686 24.5217C27.057 24.494 27.0385 24.4232 27.06 24.3339C27.0799 24.2509 27.1193 24.2151 27.1121 24.2221L27.6343 24.7604L28.1566 25.2987C28.3137 25.1462 28.4564 24.9428 28.5185 24.6842C28.5821 24.4192 28.5448 24.1646 28.4532 23.9449L27.7609 24.2333ZM27.6343 24.7604L27.1121 24.2221L26.8656 24.4612L27.3878 24.9995L27.9101 25.5378L28.1566 25.2987L27.6343 24.7604ZM27.3878 24.9995L26.8656 24.4612L26.6191 24.7003L27.1413 25.2387L27.6635 25.777L27.9101 25.5378L27.3878 24.9995ZM27.1413 25.2387L26.6191 24.7003C26.3886 24.9239 26.1931 25.1993 26.1034 25.5325L26.8276 25.7275L27.5518 25.9225C27.5519 25.9222 27.5551 25.9101 27.5708 25.8855C27.587 25.8604 27.6154 25.8237 27.6635 25.777L27.1413 25.2387ZM26.8276 25.7275L26.1034 25.5325L26.0361 25.7822L26.7603 25.9772L27.4845 26.1722L27.5518 25.9225L26.8276 25.7275ZM26.7603 25.9772L26.0361 25.7822L25.9689 26.0318L26.6931 26.2268L27.4173 26.4218L27.4845 26.1722L26.7603 25.9772ZM26.6931 26.2268L25.9689 26.0318C25.9678 26.0358 25.967 26.0378 25.9667 26.0383C25.9665 26.0388 25.9664 26.039 25.9663 26.0392C25.9661 26.0394 25.9652 26.0407 25.963 26.0431C25.9607 26.0456 25.9564 26.0498 25.9493 26.0554L26.4146 26.6436L26.8799 27.2319C27.1414 27.025 27.3288 26.7506 27.4173 26.4218L26.6931 26.2268ZM26.4146 26.6436L25.9493 26.0554L25.7381 26.2225L26.2033 26.8107L26.6686 27.399L26.8799 27.2319L26.4146 26.6436ZM26.2033 26.8107L25.7381 26.2225L25.5268 26.3896L25.9921 26.9779L26.4574 27.5661L26.6686 27.399L26.2033 26.8107ZM25.9921 26.9779L25.5268 26.3896C25.4613 26.4414 25.3858 26.4818 25.2943 26.5099L25.5147 27.2268L25.7351 27.9437C25.9984 27.8627 26.2411 27.7371 26.4574 27.5661L25.9921 26.9779ZM25.5147 27.2268L25.2943 26.5099L25.0282 26.5917L25.2486 27.3086L25.469 28.0255L25.7351 27.9437L25.5147 27.2268ZM25.2486 27.3086L25.0282 26.5917L24.7621 26.6735L24.9825 27.3904L25.2029 28.1073L25.469 28.0255L25.2486 27.3086ZM24.9825 27.3904L24.7621 26.6735C24.6209 26.7169 24.4749 26.7502 24.3236 26.773L24.4354 27.5146L24.5473 28.2562C24.7706 28.2225 24.9893 28.173 25.2029 28.1073L24.9825 27.3904ZM24.4354 27.5146L24.3236 26.773L24.0426 26.8154L24.1545 27.557L24.2663 28.2986L24.5473 28.2562L24.4354 27.5146ZM24.1545 27.557L24.0426 26.8154L23.7616 26.8578L23.8735 27.5994L23.9854 28.341L24.2663 28.2986L24.1545 27.557ZM23.8735 27.5994L23.7616 26.8578C23.6049 26.8814 23.4523 26.8945 23.3038 26.8976L23.3194 27.6475L23.335 28.3973C23.5505 28.3928 23.7674 28.3739 23.9854 28.341L23.8735 27.5994ZM23.3194 27.6475L23.3038 26.8976L23.0306 26.9033L23.0462 27.6532L23.0618 28.403L23.335 28.3973L23.3194 27.6475ZM23.0462 27.6532L23.0306 26.9033L22.7575 26.909L22.7731 27.6588L22.7887 28.4087L23.0618 28.403L23.0462 27.6532ZM22.7731 27.6588L22.7575 26.909C22.6751 26.9107 22.6526 26.9075 22.6648 26.9091C22.6706 26.9098 22.6856 26.9119 22.7066 26.9168C22.7257 26.9211 22.765 26.9312 22.8139 26.9523C22.8569 26.9708 22.9511 27.0162 23.0432 27.1114C23.1478 27.2194 23.25 27.3954 23.25 27.6234H22.5H21.75C21.75 28.1206 22.1674 28.307 22.2202 28.3298C22.3284 28.3764 22.428 28.3909 22.4718 28.3966C22.575 28.41 22.6891 28.4107 22.7887 28.4087L22.7731 27.6588ZM22.5 27.6234H23.25V27.5823H22.5H21.75V27.6234H22.5ZM22.5 27.5823H23.25V27.5411H22.5H21.75V27.5823H22.5ZM22.5 27.5411H23.25C23.25 27.319 23.1556 27.1593 23.0932 27.0771C23.0304 26.9942 22.9638 26.9409 22.9254 26.9128C22.8483 26.8564 22.7727 26.8212 22.7309 26.8029C22.6389 26.7626 22.5316 26.728 22.4296 26.6983L22.2198 27.4184L22.01 28.1384C22.0491 28.1498 22.079 28.1592 22.1008 28.1667C22.1238 28.1745 22.1316 28.178 22.129 28.1768C22.1273 28.1761 22.119 28.1724 22.1063 28.1656C22.0947 28.1594 22.0702 28.1457 22.0396 28.1233C22.0129 28.1037 21.955 28.0586 21.898 27.9834C21.8415 27.9089 21.75 27.7564 21.75 27.5411H22.5ZM22.2198 27.4184L22.4296 26.6983L22.1494 26.6167L21.9396 27.3367L21.7298 28.0568L22.01 28.1384L22.2198 27.4184Z" fill="#515151"/>
<path d="M6.65937 12.2551L6.44958 12.9751L6.65937 12.2551ZM6.09981 12.214L6.20756 12.9562L6.09981 12.214ZM5.82045 12.2546L5.9282 12.9968L5.82045 12.2546ZM5.54109 12.2951L5.43333 11.5529L5.54109 12.2951ZM4.96767 12.3433L4.94831 11.5935L4.96767 12.3433ZM4.37956 12.3584L4.39892 13.1082L4.37956 12.3584ZM3.8416 12.1923L3.4064 12.8031L3.8416 12.1923ZM3.35378 11.8447L3.78898 11.2339L3.35378 11.8447ZM3.07492 11.3752L2.3301 11.4632L3.07492 11.3752ZM2.83635 10.2324L2.17182 10.5801L2.83635 10.2324ZM2.56894 9.72135L3.23347 9.37364L2.56894 9.72135ZM2.41526 9.18336L1.66713 9.23628L2.41526 9.18336ZM2.33264 6.92635L1.59356 7.0539L2.33264 6.92635ZM2.2838 6.64334L1.54472 6.77089L2.2838 6.64334ZM2.28056 5.79794L1.57006 5.55777L2.28056 5.79794ZM2.66057 4.69774L1.95694 4.43813L2.66057 4.69774ZM2.85395 4.17363L2.15032 3.91402L2.85395 4.17363ZM4.03618 3.09389L3.63614 2.45948L4.03618 3.09389ZM4.49103 2.80708L4.09099 2.17267L4.49103 2.80708ZM5.54208 2.28821L5.23098 1.60577L5.54208 2.28821ZM7.51752 2.23177L7.49938 2.98155L7.51752 2.23177ZM10.5605 2.64191L11.161 2.19259L10.5605 2.64191ZM10.7464 2.89034L10.1459 3.33966L10.7464 2.89034ZM10.9323 3.13876L11.5328 2.68944L10.9323 3.13876ZM11.3375 3.53628L10.9159 4.15654L11.3375 3.53628ZM11.5568 3.68536L11.9784 3.06509L11.5568 3.68536ZM11.7761 3.83444L12.1978 3.21418L11.7761 3.83444ZM12.1903 4.22483L12.7738 3.75369L12.1903 4.22483ZM12.5799 4.70745L11.9964 5.17859L12.5799 4.70745ZM12.6694 5.24221L11.9635 4.98877L12.6694 5.24221ZM12.564 5.53567L11.8581 5.28222L12.564 5.53567ZM12.4587 5.82912L13.1645 6.08257L12.4587 5.82912ZM12.4219 6.40296L11.6934 6.58116L12.4219 6.40296ZM12.559 6.96372L13.2876 6.78552L12.559 6.96372ZM12.571 7.52547L13.3062 7.67348L12.571 7.52547ZM12.5143 7.80684L11.7791 7.65883L12.5143 7.80684ZM12.4577 8.08821L11.7225 7.9402L12.4577 8.08821ZM12.521 8.65749L11.8287 8.94592L12.521 8.65749ZM12.7609 9.23332L13.4532 8.94489L12.7609 9.23332ZM12.6343 9.76037L13.1566 10.2987L12.6343 9.76037ZM12.1413 10.2387L11.6191 9.70034L12.1413 10.2387ZM11.8276 10.7275L11.1034 10.5325L11.8276 10.7275ZM11.6931 11.2268L10.9689 11.0318L11.6931 11.2268ZM11.4146 11.6436L10.9493 11.0554L11.4146 11.6436ZM10.9921 11.9779L10.5268 11.3896L10.9921 11.9779ZM10.5147 12.2268L10.2943 11.5099L10.5147 12.2268ZM10.2486 12.3086L10.469 13.0255L10.2486 12.3086ZM9.98252 12.3904L10.2029 13.1073L9.98252 12.3904ZM9.43544 12.5146L9.54732 13.2562L9.43544 12.5146ZM9.15445 12.557L9.26634 13.2986L9.15445 12.557ZM8.87347 12.5994L8.76158 11.8578L8.87347 12.5994ZM8.31937 12.6475L8.33497 13.3973L8.31937 12.6475ZM7.77312 12.6588L7.78872 13.4087L7.77312 12.6588ZM7.21979 12.4184L7.42958 11.6983L7.21979 12.4184ZM6.93958 12.3367L7.14937 11.6167L6.86916 11.535L6.65937 12.2551L6.44958 12.9751L6.72979 13.0568L6.93958 12.3367ZM6.65937 12.2551L6.86916 11.535C6.5829 11.4516 6.28814 11.4288 5.99205 11.4718L6.09981 12.214L6.20756 12.9562C6.28395 12.9451 6.36223 12.9497 6.44958 12.9751L6.65937 12.2551ZM6.09981 12.214L5.99205 11.4718L5.71269 11.5123L5.82045 12.2546L5.9282 12.9968L6.20756 12.9562L6.09981 12.214ZM5.82045 12.2546L5.71269 11.5123L5.43333 11.5529L5.54109 12.2951L5.64884 13.0373L5.9282 12.9968L5.82045 12.2546ZM5.54109 12.2951L5.43333 11.5529C5.27758 11.5755 5.116 11.5892 4.94831 11.5935L4.96767 12.3433L4.98703 13.093C5.21142 13.0872 5.43211 13.0688 5.64884 13.0373L5.54109 12.2951ZM4.96767 12.3433L4.94831 11.5935L4.65426 11.6011L4.67362 12.3509L4.69298 13.1006L4.98703 13.093L4.96767 12.3433ZM4.67362 12.3509L4.65426 11.6011L4.3602 11.6087L4.37956 12.3584L4.39892 13.1082L4.69298 13.1006L4.67362 12.3509ZM4.37956 12.3584L4.3602 11.6087C4.32988 11.6095 4.30953 11.6048 4.27679 11.5814L3.8416 12.1923L3.4064 12.8031C3.69887 13.0115 4.03716 13.1175 4.39892 13.1082L4.37956 12.3584ZM3.8416 12.1923L4.27679 11.5814L4.03288 11.4077L3.59769 12.0185L3.16249 12.6293L3.4064 12.8031L3.8416 12.1923ZM3.59769 12.0185L4.03288 11.4077L3.78898 11.2339L3.35378 11.8447L2.91859 12.4555L3.16249 12.6293L3.59769 12.0185ZM3.35378 11.8447L3.78898 11.2339C3.78594 11.2317 3.78759 11.2325 3.79182 11.237C3.79617 11.2416 3.80167 11.2485 3.80695 11.2575C3.81224 11.2664 3.8158 11.2747 3.81795 11.2812C3.82004 11.2876 3.82007 11.29 3.81973 11.2872L3.07492 11.3752L2.3301 11.4632C2.3784 11.8719 2.58476 12.2177 2.91859 12.4555L3.35378 11.8447ZM3.07492 11.3752L3.81973 11.2872L3.78478 10.9914L3.03996 11.0794L2.29515 11.1675L2.3301 11.4632L3.07492 11.3752ZM3.03996 11.0794L3.78478 10.9914L3.74982 10.6957L3.00501 10.7837L2.26019 10.8717L2.29515 11.1675L3.03996 11.0794ZM3.00501 10.7837L3.74982 10.6957C3.71615 10.4108 3.63375 10.1387 3.50088 9.88471L2.83635 10.2324L2.17182 10.5801C2.21722 10.6669 2.24726 10.7623 2.26019 10.8717L3.00501 10.7837ZM2.83635 10.2324L3.50088 9.88471L3.36718 9.62918L2.70264 9.97688L2.03811 10.3246L2.17182 10.5801L2.83635 10.2324ZM2.70264 9.97688L3.36718 9.62918L3.23347 9.37364L2.56894 9.72135L1.90441 10.0691L2.03811 10.3246L2.70264 9.97688ZM2.56894 9.72135L3.23347 9.37364C3.19128 9.29301 3.16929 9.21383 3.16339 9.13044L2.41526 9.18336L1.66713 9.23628C1.68787 9.52949 1.76833 9.80897 1.90441 10.0691L2.56894 9.72135ZM2.41526 9.18336L3.16339 9.13044L3.14341 8.84798L2.39528 8.90091L1.64714 8.95383L1.66713 9.23628L2.41526 9.18336ZM2.39528 8.90091L3.14341 8.84798L3.12343 8.56553L2.3753 8.61845L1.62716 8.67138L1.64714 8.95383L2.39528 8.90091ZM2.3753 8.61845L3.12343 8.56553C3.11175 8.40052 3.10784 8.23595 3.11165 8.07175L2.36186 8.05434L1.61206 8.03693C1.60715 8.24828 1.6122 8.45979 1.62716 8.67138L2.3753 8.61845ZM2.36186 8.05434L3.11165 8.07175L3.11819 7.79009L2.3684 7.77268L1.6186 7.75527L1.61206 8.03693L2.36186 8.05434ZM2.3684 7.77268L3.11819 7.79009L3.12473 7.50843L2.37494 7.49102L1.62514 7.47361L1.6186 7.75527L2.3684 7.77268ZM2.37494 7.49102L3.12473 7.50843C3.13024 7.27118 3.11237 7.03441 3.07171 6.79881L2.33264 6.92635L1.59356 7.0539C1.61802 7.19564 1.62835 7.33532 1.62514 7.47361L2.37494 7.49102ZM2.33264 6.92635L3.07171 6.79881L3.02288 6.5158L2.2838 6.64334L1.54472 6.77089L1.59356 7.0539L2.33264 6.92635ZM2.2838 6.64334L3.02288 6.5158L2.97404 6.23279L2.23496 6.36033L1.49588 6.48788L1.54472 6.77089L2.2838 6.64334ZM2.23496 6.36033L2.97404 6.23279C2.9633 6.17056 2.96697 6.1094 2.99107 6.03812L2.28056 5.79794L1.57006 5.55777C1.46823 5.859 1.44151 6.17277 1.49588 6.48788L2.23496 6.36033ZM2.28056 5.79794L2.99107 6.03812L3.08551 5.75873L2.375 5.51856L1.6645 5.27839L1.57006 5.55777L2.28056 5.79794ZM2.375 5.51856L3.08551 5.75873L3.17995 5.47935L2.46944 5.23918L1.75894 4.99901L1.6645 5.27839L2.375 5.51856ZM2.46944 5.23918L3.17995 5.47935C3.24082 5.29925 3.30225 5.12527 3.3642 4.95736L2.66057 4.69774L1.95694 4.43813C1.88997 4.61962 1.82398 4.8066 1.75894 4.99901L2.46944 5.23918ZM2.66057 4.69774L3.3642 4.95736L3.46089 4.69531L2.75726 4.43569L2.05363 4.17607L1.95694 4.43813L2.66057 4.69774ZM2.75726 4.43569L3.46089 4.69531L3.55758 4.43325L2.85395 4.17363L2.15032 3.91402L2.05363 4.17607L2.75726 4.43569ZM2.85395 4.17363L3.55758 4.43325C3.57523 4.38542 3.5973 4.35729 3.62855 4.33273L3.16517 3.74301L2.70178 3.15329C2.44699 3.35349 2.26159 3.61244 2.15032 3.91402L2.85395 4.17363ZM3.16517 3.74301L3.62855 4.33273L3.84308 4.16416L3.3797 3.57444L2.91631 2.98472L2.70178 3.15329L3.16517 3.74301ZM3.3797 3.57444L3.84308 4.16416L4.05761 3.99559L3.59422 3.40587L3.13084 2.81615L2.91631 2.98472L3.3797 3.57444ZM3.59422 3.40587L4.05761 3.99559C4.1806 3.89895 4.30679 3.80991 4.43621 3.7283L4.03618 3.09389L3.63614 2.45948C3.46233 2.56908 3.29389 2.68802 3.13084 2.81615L3.59422 3.40587ZM4.03618 3.09389L4.43621 3.7283L4.66364 3.58489L4.2636 2.95048L3.86357 2.31608L3.63614 2.45948L4.03618 3.09389ZM4.2636 2.95048L4.66364 3.58489L4.89106 3.44149L4.49103 2.80708L4.09099 2.17267L3.86357 2.31608L4.2636 2.95048ZM4.49103 2.80708L4.89106 3.44149C5.01094 3.36589 5.14811 3.29206 5.30409 3.22095L4.99299 2.53852L4.6819 1.85608C4.47182 1.95185 4.27434 2.05706 4.09099 2.17267L4.49103 2.80708ZM4.99299 2.53852L5.30409 3.22095L5.57864 3.0958L5.26754 2.41336L4.95644 1.73093L4.6819 1.85608L4.99299 2.53852ZM5.26754 2.41336L5.57864 3.0958L5.85318 2.97064L5.54208 2.28821L5.23098 1.60577L4.95644 1.73093L5.26754 2.41336ZM5.54208 2.28821L5.85318 2.97064C5.93411 2.93375 6.00173 2.9229 6.06465 2.92594L6.10092 2.17682L6.1372 1.4277C5.82105 1.41239 5.51611 1.47579 5.23098 1.60577L5.54208 2.28821ZM6.10092 2.17682L6.06465 2.92594L6.34895 2.93971L6.38522 2.19059L6.4215 1.44147L6.1372 1.4277L6.10092 2.17682ZM6.38522 2.19059L6.34895 2.93971L6.63325 2.95348L6.66952 2.20436L6.7058 1.45523L6.4215 1.44147L6.38522 2.19059ZM6.66952 2.20436L6.63325 2.95348C6.82876 2.96295 7.02352 2.97003 7.21753 2.97473L7.23567 2.22495L7.25382 1.47517C7.07202 1.47076 6.88935 1.46412 6.7058 1.45523L6.66952 2.20436ZM7.23567 2.22495L7.21753 2.97473L7.49938 2.98155L7.51752 2.23177L7.53567 1.48199L7.25382 1.47517L7.23567 2.22495ZM7.51752 2.23177L7.49938 2.98155L7.78123 2.98837L7.79937 2.23859L7.81752 1.48881L7.53567 1.48199L7.51752 2.23177ZM7.79937 2.23859L7.78123 2.98837C7.94962 2.99245 8.11842 3.0031 8.28766 3.02036L8.36377 2.27424L8.43989 1.52811C8.2324 1.50694 8.02493 1.49383 7.81752 1.48881L7.79937 2.23859ZM8.36377 2.27424L8.28766 3.02036L8.57021 3.04919L8.64632 2.30306L8.72243 1.55693L8.43989 1.52811L8.36377 2.27424ZM8.64632 2.30306L8.57021 3.04919L8.85275 3.07801L8.92887 2.33188L9.00498 1.58575L8.72243 1.55693L8.64632 2.30306ZM8.92887 2.33188L8.85275 3.07801C9.05983 3.09913 9.2693 3.11263 9.4811 3.1186L9.50222 2.3689L9.52335 1.6192C9.3474 1.61424 9.17463 1.60306 9.00498 1.58575L8.92887 2.33188ZM9.50222 2.3689L9.4811 3.1186L9.7719 3.1268L9.79303 2.37709L9.81415 1.62739L9.52335 1.6192L9.50222 2.3689ZM9.79303 2.37709L9.7719 3.1268L10.0627 3.13499L10.0838 2.38529L10.105 1.63559L9.81415 1.62739L9.79303 2.37709ZM10.0838 2.38529L10.0627 3.13499C10.0517 3.13468 10.024 3.13068 9.9929 3.11393C9.9632 3.09794 9.95386 3.083 9.96001 3.09123L10.5605 2.64191L11.161 2.19259C10.9105 1.85771 10.5447 1.64797 10.105 1.63559L10.0838 2.38529ZM10.5605 2.64191L9.96001 3.09123L10.1459 3.33966L10.7464 2.89034L11.3469 2.44102L11.161 2.19259L10.5605 2.64191ZM10.7464 2.89034L10.1459 3.33966L10.3318 3.58809L10.9323 3.13876L11.5328 2.68944L11.3469 2.44102L10.7464 2.89034ZM10.9323 3.13876L10.3318 3.58809C10.4972 3.80915 10.6904 4.00329 10.9159 4.15654L11.3375 3.53628L11.7591 2.91601C11.6921 2.87048 11.6152 2.79962 11.5328 2.68944L10.9323 3.13876ZM11.3375 3.53628L10.9159 4.15654L11.1352 4.30563L11.5568 3.68536L11.9784 3.06509L11.7591 2.91601L11.3375 3.53628ZM11.5568 3.68536L11.1352 4.30563L11.3545 4.45471L11.7761 3.83444L12.1978 3.21418L11.9784 3.06509L11.5568 3.68536ZM11.7761 3.83444L11.3545 4.45471C11.4304 4.50629 11.5155 4.58303 11.6067 4.69597L12.1903 4.22483L12.7738 3.75369C12.6052 3.54489 12.4143 3.36137 12.1978 3.21418L11.7761 3.83444ZM12.1903 4.22483L11.6067 4.69597L11.8016 4.93728L12.3851 4.46614L12.9686 3.995L12.7738 3.75369L12.1903 4.22483ZM12.3851 4.46614L11.8016 4.93728L11.9964 5.17859L12.5799 4.70745L13.1635 4.23631L12.9686 3.995L12.3851 4.46614ZM12.5799 4.70745L11.9964 5.17859C11.9921 5.17325 11.9693 5.1411 11.96 5.08554C11.9507 5.03019 11.9619 4.99338 11.9635 4.98877L12.6694 5.24221L13.3753 5.49565C13.5334 5.05531 13.4588 4.60215 13.1635 4.23631L12.5799 4.70745ZM12.6694 5.24221L11.9635 4.98877L11.8581 5.28222L12.564 5.53567L13.2699 5.78911L13.3753 5.49565L12.6694 5.24221ZM12.564 5.53567L11.8581 5.28222L11.7528 5.57568L12.4587 5.82912L13.1645 6.08257L13.2699 5.78911L12.564 5.53567ZM12.4587 5.82912L11.7528 5.57568C11.637 5.89824 11.6098 6.23971 11.6934 6.58116L12.4219 6.40296L13.1504 6.22476C13.1425 6.19237 13.1399 6.15129 13.1645 6.08257L12.4587 5.82912ZM12.4219 6.40296L11.6934 6.58116L11.7619 6.86154L12.4905 6.68334L13.219 6.50514L13.1504 6.22476L12.4219 6.40296ZM12.4905 6.68334L11.7619 6.86154L11.8305 7.14192L12.559 6.96372L13.2876 6.78552L13.219 6.50514L12.4905 6.68334ZM12.559 6.96372L11.8305 7.14192C11.8502 7.22254 11.8516 7.29843 11.8357 7.37746L12.571 7.52547L13.3062 7.67348C13.3658 7.37735 13.3593 7.07873 13.2876 6.78552L12.559 6.96372ZM12.571 7.52547L11.8357 7.37746L11.7791 7.65883L12.5143 7.80684L13.2496 7.95485L13.3062 7.67348L12.571 7.52547ZM12.5143 7.80684L11.7791 7.65883L11.7225 7.9402L12.4577 8.08821L13.193 8.23622L13.2496 7.95485L12.5143 7.80684ZM12.4577 8.08821L11.7225 7.9402C11.6526 8.28704 11.6965 8.62854 11.8287 8.94592L12.521 8.65749L13.2133 8.36907C13.1856 8.30256 13.1873 8.26454 13.193 8.23622L12.4577 8.08821ZM12.521 8.65749L11.8287 8.94592L11.9486 9.23383L12.641 8.94541L13.3333 8.65698L13.2133 8.36907L12.521 8.65749ZM12.641 8.94541L11.9486 9.23383L12.0686 9.52175L12.7609 9.23332L13.4532 8.94489L13.3333 8.65698L12.641 8.94541ZM12.7609 9.23332L12.0686 9.52175C12.057 9.49399 12.0385 9.42317 12.06 9.33392C12.0799 9.25094 12.1193 9.21509 12.1121 9.22206L12.6343 9.76037L13.1566 10.2987C13.3137 10.1462 13.4564 9.94282 13.5185 9.68416C13.5821 9.41923 13.5448 9.16459 13.4532 8.94489L12.7609 9.23332ZM12.6343 9.76037L12.1121 9.22206L11.8656 9.4612L12.3878 9.99952L12.9101 10.5378L13.1566 10.2987L12.6343 9.76037ZM12.3878 9.99952L11.8656 9.4612L11.6191 9.70034L12.1413 10.2387L12.6635 10.777L12.9101 10.5378L12.3878 9.99952ZM12.1413 10.2387L11.6191 9.70034C11.3886 9.92391 11.1931 10.1993 11.1034 10.5325L11.8276 10.7275L12.5518 10.9225C12.5519 10.9222 12.5551 10.9101 12.5708 10.8855C12.587 10.8604 12.6154 10.8237 12.6635 10.777L12.1413 10.2387ZM11.8276 10.7275L11.1034 10.5325L11.0361 10.7822L11.7603 10.9772L12.4845 11.1722L12.5518 10.9225L11.8276 10.7275ZM11.7603 10.9772L11.0361 10.7822L10.9689 11.0318L11.6931 11.2268L12.4173 11.4218L12.4845 11.1722L11.7603 10.9772ZM11.6931 11.2268L10.9689 11.0318C10.9678 11.0358 10.967 11.0378 10.9667 11.0383C10.9665 11.0388 10.9664 11.039 10.9663 11.0392C10.9661 11.0394 10.9652 11.0407 10.963 11.0431C10.9607 11.0456 10.9564 11.0498 10.9493 11.0554L11.4146 11.6436L11.8799 12.2319C12.1414 12.025 12.3288 11.7506 12.4173 11.4218L11.6931 11.2268ZM11.4146 11.6436L10.9493 11.0554L10.7381 11.2225L11.2033 11.8107L11.6686 12.399L11.8799 12.2319L11.4146 11.6436ZM11.2033 11.8107L10.7381 11.2225L10.5268 11.3896L10.9921 11.9779L11.4574 12.5661L11.6686 12.399L11.2033 11.8107ZM10.9921 11.9779L10.5268 11.3896C10.4613 11.4414 10.3858 11.4818 10.2943 11.5099L10.5147 12.2268L10.7351 12.9437C10.9984 12.8627 11.2411 12.7371 11.4574 12.5661L10.9921 11.9779ZM10.5147 12.2268L10.2943 11.5099L10.0282 11.5917L10.2486 12.3086L10.469 13.0255L10.7351 12.9437L10.5147 12.2268ZM10.2486 12.3086L10.0282 11.5917L9.76211 11.6735L9.98252 12.3904L10.2029 13.1073L10.469 13.0255L10.2486 12.3086ZM9.98252 12.3904L9.76211 11.6735C9.62095 11.7169 9.4749 11.7502 9.32355 11.773L9.43544 12.5146L9.54732 13.2562C9.77062 13.2225 9.98929 13.173 10.2029 13.1073L9.98252 12.3904ZM9.43544 12.5146L9.32355 11.773L9.04257 11.8154L9.15445 12.557L9.26634 13.2986L9.54732 13.2562L9.43544 12.5146ZM9.15445 12.557L9.04257 11.8154L8.76158 11.8578L8.87347 12.5994L8.98536 13.341L9.26634 13.2986L9.15445 12.557ZM8.87347 12.5994L8.76158 11.8578C8.60487 11.8814 8.45234 11.8945 8.30376 11.8976L8.31937 12.6475L8.33497 13.3973C8.55055 13.3928 8.76742 13.3739 8.98536 13.341L8.87347 12.5994ZM8.31937 12.6475L8.30376 11.8976L8.03064 11.9033L8.04624 12.6532L8.06185 13.403L8.33497 13.3973L8.31937 12.6475ZM8.04624 12.6532L8.03064 11.9033L7.75752 11.909L7.77312 12.6588L7.78872 13.4087L8.06185 13.403L8.04624 12.6532ZM7.77312 12.6588L7.75752 11.909C7.67506 11.9107 7.65261 11.9075 7.66481 11.9091C7.67061 11.9098 7.68555 11.9119 7.70664 11.9168C7.72567 11.9211 7.765 11.9312 7.8139 11.9523C7.85695 11.9708 7.95115 12.0162 8.04322 12.1114C8.14778 12.2194 8.25 12.3954 8.25 12.6234H7.5H6.75C6.75 13.1206 7.16743 13.307 7.22024 13.3298C7.32844 13.3764 7.42803 13.3909 7.47175 13.3966C7.575 13.41 7.68911 13.4107 7.78872 13.4087L7.77312 12.6588ZM7.5 12.6234H8.25V12.5823H7.5H6.75V12.6234H7.5ZM7.5 12.5823H8.25V12.5411H7.5H6.75V12.5823H7.5ZM7.5 12.5411H8.25C8.25 12.319 8.15557 12.1593 8.09325 12.0771C8.03039 11.9942 7.96379 11.9409 7.92537 11.9128C7.84832 11.8564 7.77266 11.8212 7.73093 11.8029C7.6389 11.7626 7.53156 11.728 7.42958 11.6983L7.21979 12.4184L7.01 13.1384C7.04913 13.1498 7.07895 13.1592 7.10078 13.1667C7.12379 13.1745 7.13159 13.178 7.12897 13.1768C7.12731 13.1761 7.11902 13.1724 7.10629 13.1656C7.09475 13.1594 7.07016 13.1457 7.03961 13.1233C7.01286 13.1037 6.95502 13.0586 6.898 12.9834C6.84151 12.9089 6.75 12.7564 6.75 12.5411H7.5ZM7.21979 12.4184L7.42958 11.6983L7.14937 11.6167L6.93958 12.3367L6.72979 13.0568L7.01 13.1384L7.21979 12.4184Z" fill="#515151"/>
<path d="M17.5 7.5C17.5 5.57445 17.5 4.61168 17.9334 3.90442C18.1759 3.50866 18.5087 3.17593 18.9044 2.93341C19.6117 2.5 20.5745 2.5 22.5 2.5C24.4255 2.5 25.3883 2.5 26.0956 2.93341C26.4913 3.17593 26.8241 3.50866 27.0666 3.90442C27.5 4.61168 27.5 5.57445 27.5 7.5C27.5 9.42555 27.5 10.3883 27.0666 11.0956C26.8241 11.4913 26.4913 11.8241 26.0956 12.0666C25.3883 12.5 24.4255 12.5 22.5 12.5C20.5745 12.5 19.6117 12.5 18.9044 12.0666C18.5087 11.8241 18.1759 11.4913 17.9334 11.0956C17.5 10.3883 17.5 9.42555 17.5 7.5Z" fill="#515151"/>
<path d="M21.6594 12.2551L21.4496 12.9751L21.6594 12.2551ZM21.0998 12.214L21.2076 12.9562L21.0998 12.214ZM20.8204 12.2546L20.9282 12.9968L20.8204 12.2546ZM20.5411 12.2951L20.4333 11.5529L20.5411 12.2951ZM19.9677 12.3433L19.9483 11.5935L19.9677 12.3433ZM19.3796 12.3584L19.3989 13.1082L19.3796 12.3584ZM18.8416 12.1923L18.4064 12.8031L18.8416 12.1923ZM18.3538 11.8447L18.789 11.2339L18.3538 11.8447ZM18.0749 11.3752L17.3301 11.4632L18.0749 11.3752ZM17.8363 10.2324L17.1718 10.5801L17.8363 10.2324ZM17.5689 9.72135L18.2335 9.37364L17.5689 9.72135ZM17.4153 9.18336L16.6671 9.23628L17.4153 9.18336ZM17.3326 6.92635L16.5936 7.0539L17.3326 6.92635ZM17.2838 6.64334L16.5447 6.77089L17.2838 6.64334ZM17.2806 5.79794L16.5701 5.55777L17.2806 5.79794ZM17.6606 4.69774L16.9569 4.43813L17.6606 4.69774ZM17.8539 4.17363L17.1503 3.91402L17.8539 4.17363ZM19.0362 3.09389L18.6361 2.45948L19.0362 3.09389ZM19.491 2.80708L19.091 2.17267L19.491 2.80708ZM20.5421 2.28821L20.231 1.60577L20.5421 2.28821ZM22.5175 2.23177L22.4994 2.98155L22.5175 2.23177ZM25.5605 2.64191L26.161 2.19259L25.5605 2.64191ZM25.7464 2.89034L25.1459 3.33966L25.7464 2.89034ZM25.9323 3.13876L26.5328 2.68944L25.9323 3.13876ZM26.3375 3.53628L25.9159 4.15654L26.3375 3.53628ZM26.5568 3.68536L26.9784 3.06509L26.5568 3.68536ZM26.7761 3.83444L27.1978 3.21418L26.7761 3.83444ZM27.1903 4.22483L27.7738 3.75369L27.1903 4.22483ZM27.5799 4.70745L26.9964 5.17859L27.5799 4.70745ZM27.6694 5.24221L26.9635 4.98877L27.6694 5.24221ZM27.564 5.53567L26.8581 5.28222L27.564 5.53567ZM27.4587 5.82912L28.1645 6.08257L27.4587 5.82912ZM27.4219 6.40296L26.6934 6.58116L27.4219 6.40296ZM27.559 6.96372L28.2876 6.78552L27.559 6.96372ZM27.571 7.52547L28.3062 7.67348L27.571 7.52547ZM27.5143 7.80684L26.7791 7.65883L27.5143 7.80684ZM27.4577 8.08821L26.7225 7.9402L27.4577 8.08821ZM27.521 8.65749L26.8287 8.94592L27.521 8.65749ZM27.7609 9.23332L28.4532 8.94489L27.7609 9.23332ZM27.6343 9.76037L28.1566 10.2987L27.6343 9.76037ZM27.1413 10.2387L26.6191 9.70034L27.1413 10.2387ZM26.8276 10.7275L26.1034 10.5325L26.8276 10.7275ZM26.6931 11.2268L25.9689 11.0318L26.6931 11.2268ZM26.4146 11.6436L25.9493 11.0554L26.4146 11.6436ZM25.9921 11.9779L25.5268 11.3896L25.9921 11.9779ZM25.5147 12.2268L25.2943 11.5099L25.5147 12.2268ZM25.2486 12.3086L25.469 13.0255L25.2486 12.3086ZM24.9825 12.3904L25.2029 13.1073L24.9825 12.3904ZM24.4354 12.5146L24.5473 13.2562L24.4354 12.5146ZM24.1545 12.557L24.2663 13.2986L24.1545 12.557ZM23.8735 12.5994L23.7616 11.8578L23.8735 12.5994ZM23.3194 12.6475L23.335 13.3973L23.3194 12.6475ZM22.7731 12.6588L22.7887 13.4087L22.7731 12.6588ZM22.2198 12.4184L22.4296 11.6983L22.2198 12.4184ZM21.9396 12.3367L22.1494 11.6167L21.8692 11.535L21.6594 12.2551L21.4496 12.9751L21.7298 13.0568L21.9396 12.3367ZM21.6594 12.2551L21.8692 11.535C21.5829 11.4516 21.2881 11.4288 20.9921 11.4718L21.0998 12.214L21.2076 12.9562C21.2839 12.9451 21.3622 12.9497 21.4496 12.9751L21.6594 12.2551ZM21.0998 12.214L20.9921 11.4718L20.7127 11.5123L20.8204 12.2546L20.9282 12.9968L21.2076 12.9562L21.0998 12.214ZM20.8204 12.2546L20.7127 11.5123L20.4333 11.5529L20.5411 12.2951L20.6488 13.0373L20.9282 12.9968L20.8204 12.2546ZM20.5411 12.2951L20.4333 11.5529C20.2776 11.5755 20.116 11.5892 19.9483 11.5935L19.9677 12.3433L19.987 13.093C20.2114 13.0872 20.4321 13.0688 20.6488 13.0373L20.5411 12.2951ZM19.9677 12.3433L19.9483 11.5935L19.6543 11.6011L19.6736 12.3509L19.693 13.1006L19.987 13.093L19.9677 12.3433ZM19.6736 12.3509L19.6543 11.6011L19.3602 11.6087L19.3796 12.3584L19.3989 13.1082L19.693 13.1006L19.6736 12.3509ZM19.3796 12.3584L19.3602 11.6087C19.3299 11.6095 19.3095 11.6048 19.2768 11.5814L18.8416 12.1923L18.4064 12.8031C18.6989 13.0115 19.0372 13.1175 19.3989 13.1082L19.3796 12.3584ZM18.8416 12.1923L19.2768 11.5814L19.0329 11.4077L18.5977 12.0185L18.1625 12.6293L18.4064 12.8031L18.8416 12.1923ZM18.5977 12.0185L19.0329 11.4077L18.789 11.2339L18.3538 11.8447L17.9186 12.4555L18.1625 12.6293L18.5977 12.0185ZM18.3538 11.8447L18.789 11.2339C18.7859 11.2317 18.7876 11.2325 18.7918 11.237C18.7962 11.2416 18.8017 11.2485 18.807 11.2575C18.8122 11.2664 18.8158 11.2747 18.8179 11.2812C18.82 11.2876 18.8201 11.29 18.8197 11.2872L18.0749 11.3752L17.3301 11.4632C17.3784 11.8719 17.5848 12.2177 17.9186 12.4555L18.3538 11.8447ZM18.0749 11.3752L18.8197 11.2872L18.7848 10.9914L18.04 11.0794L17.2951 11.1675L17.3301 11.4632L18.0749 11.3752ZM18.04 11.0794L18.7848 10.9914L18.7498 10.6957L18.005 10.7837L17.2602 10.8717L17.2951 11.1675L18.04 11.0794ZM18.005 10.7837L18.7498 10.6957C18.7162 10.4108 18.6337 10.1387 18.5009 9.88471L17.8363 10.2324L17.1718 10.5801C17.2172 10.6669 17.2473 10.7623 17.2602 10.8717L18.005 10.7837ZM17.8363 10.2324L18.5009 9.88471L18.3672 9.62918L17.7026 9.97688L17.0381 10.3246L17.1718 10.5801L17.8363 10.2324ZM17.7026 9.97688L18.3672 9.62918L18.2335 9.37364L17.5689 9.72135L16.9044 10.0691L17.0381 10.3246L17.7026 9.97688ZM17.5689 9.72135L18.2335 9.37364C18.1913 9.29301 18.1693 9.21383 18.1634 9.13044L17.4153 9.18336L16.6671 9.23628C16.6879 9.52949 16.7683 9.80897 16.9044 10.0691L17.5689 9.72135ZM17.4153 9.18336L18.1634 9.13044L18.1434 8.84798L17.3953 8.90091L16.6471 8.95383L16.6671 9.23628L17.4153 9.18336ZM17.3953 8.90091L18.1434 8.84798L18.1234 8.56553L17.3753 8.61845L16.6272 8.67138L16.6471 8.95383L17.3953 8.90091ZM17.3753 8.61845L18.1234 8.56553C18.1118 8.40052 18.1078 8.23595 18.1117 8.07175L17.3619 8.05434L16.6121 8.03693C16.6071 8.24828 16.6122 8.45979 16.6272 8.67138L17.3753 8.61845ZM17.3619 8.05434L18.1117 8.07175L18.1182 7.79009L17.3684 7.77268L16.6186 7.75527L16.6121 8.03693L17.3619 8.05434ZM17.3684 7.77268L18.1182 7.79009L18.1247 7.50843L17.3749 7.49102L16.6251 7.47361L16.6186 7.75527L17.3684 7.77268ZM17.3749 7.49102L18.1247 7.50843C18.1302 7.27118 18.1124 7.03441 18.0717 6.79881L17.3326 6.92635L16.5936 7.0539C16.618 7.19564 16.6283 7.33532 16.6251 7.47361L17.3749 7.49102ZM17.3326 6.92635L18.0717 6.79881L18.0229 6.5158L17.2838 6.64334L16.5447 6.77089L16.5936 7.0539L17.3326 6.92635ZM17.2838 6.64334L18.0229 6.5158L17.974 6.23279L17.235 6.36033L16.4959 6.48788L16.5447 6.77089L17.2838 6.64334ZM17.235 6.36033L17.974 6.23279C17.9633 6.17056 17.967 6.1094 17.9911 6.03812L17.2806 5.79794L16.5701 5.55777C16.4682 5.859 16.4415 6.17277 16.4959 6.48788L17.235 6.36033ZM17.2806 5.79794L17.9911 6.03812L18.0855 5.75873L17.375 5.51856L16.6645 5.27839L16.5701 5.55777L17.2806 5.79794ZM17.375 5.51856L18.0855 5.75873L18.1799 5.47935L17.4694 5.23918L16.7589 4.99901L16.6645 5.27839L17.375 5.51856ZM17.4694 5.23918L18.1799 5.47935C18.2408 5.29925 18.3022 5.12527 18.3642 4.95736L17.6606 4.69774L16.9569 4.43813C16.89 4.61962 16.824 4.8066 16.7589 4.99901L17.4694 5.23918ZM17.6606 4.69774L18.3642 4.95736L18.4609 4.69531L17.7573 4.43569L17.0536 4.17607L16.9569 4.43813L17.6606 4.69774ZM17.7573 4.43569L18.4609 4.69531L18.5576 4.43325L17.8539 4.17363L17.1503 3.91402L17.0536 4.17607L17.7573 4.43569ZM17.8539 4.17363L18.5576 4.43325C18.5752 4.38542 18.5973 4.35729 18.6286 4.33273L18.1652 3.74301L17.7018 3.15329C17.447 3.35349 17.2616 3.61244 17.1503 3.91402L17.8539 4.17363ZM18.1652 3.74301L18.6286 4.33273L18.8431 4.16416L18.3797 3.57444L17.9163 2.98472L17.7018 3.15329L18.1652 3.74301ZM18.3797 3.57444L18.8431 4.16416L19.0576 3.99559L18.5942 3.40587L18.1308 2.81615L17.9163 2.98472L18.3797 3.57444ZM18.5942 3.40587L19.0576 3.99559C19.1806 3.89895 19.3068 3.80991 19.4362 3.7283L19.0362 3.09389L18.6361 2.45948C18.4623 2.56908 18.2939 2.68802 18.1308 2.81615L18.5942 3.40587ZM19.0362 3.09389L19.4362 3.7283L19.6636 3.58489L19.2636 2.95048L18.8636 2.31608L18.6361 2.45948L19.0362 3.09389ZM19.2636 2.95048L19.6636 3.58489L19.8911 3.44149L19.491 2.80708L19.091 2.17267L18.8636 2.31608L19.2636 2.95048ZM19.491 2.80708L19.8911 3.44149C20.0109 3.36589 20.1481 3.29206 20.3041 3.22095L19.993 2.53852L19.6819 1.85608C19.4718 1.95185 19.2743 2.05706 19.091 2.17267L19.491 2.80708ZM19.993 2.53852L20.3041 3.22095L20.5786 3.0958L20.2675 2.41336L19.9564 1.73093L19.6819 1.85608L19.993 2.53852ZM20.2675 2.41336L20.5786 3.0958L20.8532 2.97064L20.5421 2.28821L20.231 1.60577L19.9564 1.73093L20.2675 2.41336ZM20.5421 2.28821L20.8532 2.97064C20.9341 2.93375 21.0017 2.9229 21.0646 2.92594L21.1009 2.17682L21.1372 1.4277C20.8211 1.41239 20.5161 1.47579 20.231 1.60577L20.5421 2.28821ZM21.1009 2.17682L21.0646 2.92594L21.3489 2.93971L21.3852 2.19059L21.4215 1.44147L21.1372 1.4277L21.1009 2.17682ZM21.3852 2.19059L21.3489 2.93971L21.6332 2.95348L21.6695 2.20436L21.7058 1.45523L21.4215 1.44147L21.3852 2.19059ZM21.6695 2.20436L21.6332 2.95348C21.8288 2.96295 22.0235 2.97003 22.2175 2.97473L22.2357 2.22495L22.2538 1.47517C22.072 1.47076 21.8893 1.46412 21.7058 1.45523L21.6695 2.20436ZM22.2357 2.22495L22.2175 2.97473L22.4994 2.98155L22.5175 2.23177L22.5357 1.48199L22.2538 1.47517L22.2357 2.22495ZM22.5175 2.23177L22.4994 2.98155L22.7812 2.98837L22.7994 2.23859L22.8175 1.48881L22.5357 1.48199L22.5175 2.23177ZM22.7994 2.23859L22.7812 2.98837C22.9496 2.99245 23.1184 3.0031 23.2877 3.02036L23.3638 2.27424L23.4399 1.52811C23.2324 1.50694 23.0249 1.49383 22.8175 1.48881L22.7994 2.23859ZM23.3638 2.27424L23.2877 3.02036L23.5702 3.04919L23.6463 2.30306L23.7224 1.55693L23.4399 1.52811L23.3638 2.27424ZM23.6463 2.30306L23.5702 3.04919L23.8528 3.07801L23.9289 2.33188L24.005 1.58575L23.7224 1.55693L23.6463 2.30306ZM23.9289 2.33188L23.8528 3.07801C24.0598 3.09913 24.2693 3.11263 24.4811 3.1186L24.5022 2.3689L24.5233 1.6192C24.3474 1.61424 24.1746 1.60306 24.005 1.58575L23.9289 2.33188ZM24.5022 2.3689L24.4811 3.1186L24.7719 3.1268L24.793 2.37709L24.8142 1.62739L24.5233 1.6192L24.5022 2.3689ZM24.793 2.37709L24.7719 3.1268L25.0627 3.13499L25.0838 2.38529L25.105 1.63559L24.8142 1.62739L24.793 2.37709ZM25.0838 2.38529L25.0627 3.13499C25.0517 3.13468 25.024 3.13068 24.9929 3.11393C24.9632 3.09794 24.9539 3.083 24.96 3.09123L25.5605 2.64191L26.161 2.19259C25.9105 1.85771 25.5447 1.64797 25.105 1.63559L25.0838 2.38529ZM25.5605 2.64191L24.96 3.09123L25.1459 3.33966L25.7464 2.89034L26.3469 2.44102L26.161 2.19259L25.5605 2.64191ZM25.7464 2.89034L25.1459 3.33966L25.3318 3.58809L25.9323 3.13876L26.5328 2.68944L26.3469 2.44102L25.7464 2.89034ZM25.9323 3.13876L25.3318 3.58809C25.4972 3.80915 25.6904 4.00329 25.9159 4.15654L26.3375 3.53628L26.7591 2.91601C26.6921 2.87048 26.6152 2.79962 26.5328 2.68944L25.9323 3.13876ZM26.3375 3.53628L25.9159 4.15654L26.1352 4.30563L26.5568 3.68536L26.9784 3.06509L26.7591 2.91601L26.3375 3.53628ZM26.5568 3.68536L26.1352 4.30563L26.3545 4.45471L26.7761 3.83444L27.1978 3.21418L26.9784 3.06509L26.5568 3.68536ZM26.7761 3.83444L26.3545 4.45471C26.4304 4.50629 26.5155 4.58303 26.6067 4.69597L27.1903 4.22483L27.7738 3.75369C27.6052 3.54489 27.4143 3.36137 27.1978 3.21418L26.7761 3.83444ZM27.1903 4.22483L26.6067 4.69597L26.8016 4.93728L27.3851 4.46614L27.9686 3.995L27.7738 3.75369L27.1903 4.22483ZM27.3851 4.46614L26.8016 4.93728L26.9964 5.17859L27.5799 4.70745L28.1635 4.23631L27.9686 3.995L27.3851 4.46614ZM27.5799 4.70745L26.9964 5.17859C26.9921 5.17325 26.9693 5.1411 26.96 5.08554C26.9507 5.03019 26.9619 4.99338 26.9635 4.98877L27.6694 5.24221L28.3753 5.49565C28.5334 5.05531 28.4588 4.60215 28.1635 4.23631L27.5799 4.70745ZM27.6694 5.24221L26.9635 4.98877L26.8581 5.28222L27.564 5.53567L28.2699 5.78911L28.3753 5.49565L27.6694 5.24221ZM27.564 5.53567L26.8581 5.28222L26.7528 5.57568L27.4587 5.82912L28.1645 6.08257L28.2699 5.78911L27.564 5.53567ZM27.4587 5.82912L26.7528 5.57568C26.637 5.89824 26.6098 6.23971 26.6934 6.58116L27.4219 6.40296L28.1504 6.22476C28.1425 6.19237 28.1399 6.15129 28.1645 6.08257L27.4587 5.82912ZM27.4219 6.40296L26.6934 6.58116L26.7619 6.86154L27.4905 6.68334L28.219 6.50514L28.1504 6.22476L27.4219 6.40296ZM27.4905 6.68334L26.7619 6.86154L26.8305 7.14192L27.559 6.96372L28.2876 6.78552L28.219 6.50514L27.4905 6.68334ZM27.559 6.96372L26.8305 7.14192C26.8502 7.22254 26.8516 7.29843 26.8357 7.37746L27.571 7.52547L28.3062 7.67348C28.3658 7.37735 28.3593 7.07873 28.2876 6.78552L27.559 6.96372ZM27.571 7.52547L26.8357 7.37746L26.7791 7.65883L27.5143 7.80684L28.2496 7.95485L28.3062 7.67348L27.571 7.52547ZM27.5143 7.80684L26.7791 7.65883L26.7225 7.9402L27.4577 8.08821L28.193 8.23622L28.2496 7.95485L27.5143 7.80684ZM27.4577 8.08821L26.7225 7.9402C26.6526 8.28704 26.6965 8.62854 26.8287 8.94592L27.521 8.65749L28.2133 8.36907C28.1856 8.30256 28.1873 8.26454 28.193 8.23622L27.4577 8.08821ZM27.521 8.65749L26.8287 8.94592L26.9486 9.23383L27.641 8.94541L28.3333 8.65698L28.2133 8.36907L27.521 8.65749ZM27.641 8.94541L26.9486 9.23383L27.0686 9.52175L27.7609 9.23332L28.4532 8.94489L28.3333 8.65698L27.641 8.94541ZM27.7609 9.23332L27.0686 9.52175C27.057 9.49399 27.0385 9.42317 27.06 9.33392C27.0799 9.25094 27.1193 9.21509 27.1121 9.22206L27.6343 9.76037L28.1566 10.2987C28.3137 10.1462 28.4564 9.94282 28.5185 9.68416C28.5821 9.41923 28.5448 9.16459 28.4532 8.94489L27.7609 9.23332ZM27.6343 9.76037L27.1121 9.22206L26.8656 9.4612L27.3878 9.99952L27.9101 10.5378L28.1566 10.2987L27.6343 9.76037ZM27.3878 9.99952L26.8656 9.4612L26.6191 9.70034L27.1413 10.2387L27.6635 10.777L27.9101 10.5378L27.3878 9.99952ZM27.1413 10.2387L26.6191 9.70034C26.3886 9.92391 26.1931 10.1993 26.1034 10.5325L26.8276 10.7275L27.5518 10.9225C27.5519 10.9222 27.5551 10.9101 27.5708 10.8855C27.587 10.8604 27.6154 10.8237 27.6635 10.777L27.1413 10.2387ZM26.8276 10.7275L26.1034 10.5325L26.0361 10.7822L26.7603 10.9772L27.4845 11.1722L27.5518 10.9225L26.8276 10.7275ZM26.7603 10.9772L26.0361 10.7822L25.9689 11.0318L26.6931 11.2268L27.4173 11.4218L27.4845 11.1722L26.7603 10.9772ZM26.6931 11.2268L25.9689 11.0318C25.9678 11.0358 25.967 11.0378 25.9667 11.0383C25.9665 11.0388 25.9664 11.039 25.9663 11.0392C25.9661 11.0394 25.9652 11.0407 25.963 11.0431C25.9607 11.0456 25.9564 11.0498 25.9493 11.0554L26.4146 11.6436L26.8799 12.2319C27.1414 12.025 27.3288 11.7506 27.4173 11.4218L26.6931 11.2268ZM26.4146 11.6436L25.9493 11.0554L25.7381 11.2225L26.2033 11.8107L26.6686 12.399L26.8799 12.2319L26.4146 11.6436ZM26.2033 11.8107L25.7381 11.2225L25.5268 11.3896L25.9921 11.9779L26.4574 12.5661L26.6686 12.399L26.2033 11.8107ZM25.9921 11.9779L25.5268 11.3896C25.4613 11.4414 25.3858 11.4818 25.2943 11.5099L25.5147 12.2268L25.7351 12.9437C25.9984 12.8627 26.2411 12.7371 26.4574 12.5661L25.9921 11.9779ZM25.5147 12.2268L25.2943 11.5099L25.0282 11.5917L25.2486 12.3086L25.469 13.0255L25.7351 12.9437L25.5147 12.2268ZM25.2486 12.3086L25.0282 11.5917L24.7621 11.6735L24.9825 12.3904L25.2029 13.1073L25.469 13.0255L25.2486 12.3086ZM24.9825 12.3904L24.7621 11.6735C24.6209 11.7169 24.4749 11.7502 24.3236 11.773L24.4354 12.5146L24.5473 13.2562C24.7706 13.2225 24.9893 13.173 25.2029 13.1073L24.9825 12.3904ZM24.4354 12.5146L24.3236 11.773L24.0426 11.8154L24.1545 12.557L24.2663 13.2986L24.5473 13.2562L24.4354 12.5146ZM24.1545 12.557L24.0426 11.8154L23.7616 11.8578L23.8735 12.5994L23.9854 13.341L24.2663 13.2986L24.1545 12.557ZM23.8735 12.5994L23.7616 11.8578C23.6049 11.8814 23.4523 11.8945 23.3038 11.8976L23.3194 12.6475L23.335 13.3973C23.5505 13.3928 23.7674 13.3739 23.9854 13.341L23.8735 12.5994ZM23.3194 12.6475L23.3038 11.8976L23.0306 11.9033L23.0462 12.6532L23.0618 13.403L23.335 13.3973L23.3194 12.6475ZM23.0462 12.6532L23.0306 11.9033L22.7575 11.909L22.7731 12.6588L22.7887 13.4087L23.0618 13.403L23.0462 12.6532ZM22.7731 12.6588L22.7575 11.909C22.6751 11.9107 22.6526 11.9075 22.6648 11.9091C22.6706 11.9098 22.6856 11.9119 22.7066 11.9168C22.7257 11.9211 22.765 11.9312 22.8139 11.9523C22.8569 11.9708 22.9511 12.0162 23.0432 12.1114C23.1478 12.2194 23.25 12.3954 23.25 12.6234H22.5H21.75C21.75 13.1206 22.1674 13.307 22.2202 13.3298C22.3284 13.3764 22.428 13.3909 22.4718 13.3966C22.575 13.41 22.6891 13.4107 22.7887 13.4087L22.7731 12.6588ZM22.5 12.6234H23.25V12.5823H22.5H21.75V12.6234H22.5ZM22.5 12.5823H23.25V12.5411H22.5H21.75V12.5823H22.5ZM22.5 12.5411H23.25C23.25 12.319 23.1556 12.1593 23.0932 12.0771C23.0304 11.9942 22.9638 11.9409 22.9254 11.9128C22.8483 11.8564 22.7727 11.8212 22.7309 11.8029C22.6389 11.7626 22.5316 11.728 22.4296 11.6983L22.2198 12.4184L22.01 13.1384C22.0491 13.1498 22.079 13.1592 22.1008 13.1667C22.1238 13.1745 22.1316 13.178 22.129 13.1768C22.1273 13.1761 22.119 13.1724 22.1063 13.1656C22.0947 13.1594 22.0702 13.1457 22.0396 13.1233C22.0129 13.1037 21.955 13.0586 21.898 12.9834C21.8415 12.9089 21.75 12.7564 21.75 12.5411H22.5ZM22.2198 12.4184L22.4296 11.6983L22.1494 11.6167L21.9396 12.3367L21.7298 13.0568L22.01 13.1384L22.2198 12.4184Z" fill="#515151"/>
</svg>
