<svg width="30" height="30" viewBox="0 0 30 30" fill="none" xmlns="http://www.w3.org/2000/svg">
<path d="M12.5 23.0341L12.3603 23.771L12.5 23.0341ZM13.25 23.1763L13.1103 23.9132L13.25 23.1763ZM14 23.2768L13.9413 24.0245L14 23.2768ZM14.75 23.3356L14.6913 24.0833L14.75 23.3356ZM19.2459 23.3048L19.1075 24.0419L19.2459 23.3048ZM19.5011 23.75L20.2162 23.976L19.5011 23.75ZM19.2641 24.5L18.5489 24.274L19.2641 24.5ZM19.2432 25.25L18.5174 25.4389L19.2432 25.25ZM19.4021 26.598L20.0449 26.9843L19.4021 26.598ZM19.134 27.044L18.4912 26.6576L19.134 27.044ZM18.625 27.3326L18.4956 26.5939L18.625 27.3326ZM17.875 27.464L18.0044 28.2027L17.875 27.464ZM17.125 27.464L16.9958 28.2028L17.125 27.464ZM16.75 27.3985L16.8792 26.6597L16.75 27.3985ZM16.375 27.3329L16.5042 26.5941L16.375 27.3329ZM15.625 27.3623L15.8093 28.0893L15.625 27.3623ZM14.875 27.5525L14.6907 26.8255L14.875 27.5525ZM14.125 27.5528L13.9412 28.2799L14.125 27.5528ZM13.375 27.3632L13.5588 26.6361L13.375 27.3632ZM12.625 27.31L12.7077 28.0555L12.625 27.31ZM12.25 27.3516L12.1673 26.6062L12.25 27.3516ZM11.875 27.3932L11.9577 28.1387L11.875 27.3932ZM11.325 27.2949L11.7934 26.7092L11.325 27.2949ZM10.7064 26.5L9.97868 26.6815L10.7064 26.5ZM10.416 24.625L9.66606 24.6348L10.416 24.625ZM11.375 23.044L11.4555 23.7897L11.8305 23.7492L11.75 23.0035L11.6695 22.2579L11.2945 22.2983L11.375 23.044ZM11.75 23.0035L11.8305 23.7492C12.0062 23.7302 12.182 23.7372 12.3603 23.771L12.5 23.0341L12.6397 22.2972C12.318 22.2363 11.9938 22.2228 11.6695 22.2579L11.75 23.0035ZM12.5 23.0341L12.3603 23.771L12.7353 23.8421L12.875 23.1052L13.0147 22.3683L12.6397 22.2972L12.5 23.0341ZM12.875 23.1052L12.7353 23.8421L13.1103 23.9132L13.25 23.1763L13.3897 22.4394L13.0147 22.3683L12.875 23.1052ZM13.25 23.1763L13.1103 23.9132C13.3867 23.9656 13.6638 24.0027 13.9413 24.0245L14 23.2768L14.0587 22.5291C13.8362 22.5116 13.6133 22.4818 13.3897 22.4394L13.25 23.1763ZM14 23.2768L13.9413 24.0245L14.3163 24.0539L14.375 23.3062L14.4337 22.5585L14.0587 22.5291L14 23.2768ZM14.375 23.3062L14.3163 24.0539L14.6913 24.0833L14.75 23.3356L14.8087 22.5879L14.4337 22.5585L14.375 23.3062ZM14.75 23.3356L14.6913 24.0833C15.0306 24.11 15.3675 24.0763 15.6982 23.9856L15.5 23.2623L15.3018 22.539C15.1325 22.5853 14.9694 22.6005 14.8087 22.5879L14.75 23.3356ZM15.5 23.2623L15.6982 23.9856L16.0732 23.8829L15.875 23.1595L15.6768 22.4362L15.3018 22.539L15.5 23.2623ZM15.875 23.1595L16.0732 23.8829L16.4482 23.7801L16.25 23.0568L16.0518 22.3334L15.6768 22.4362L15.875 23.1595ZM16.25 23.0568L16.4482 23.7801C16.6139 23.7347 16.7731 23.7211 16.9302 23.7358L17 22.989L17.0698 22.2423C16.7269 22.2102 16.3861 22.2418 16.0518 22.3334L16.25 23.0568ZM17 22.989L16.9302 23.7358L17.3052 23.7708L17.375 23.0241L17.4448 22.2773L17.0698 22.2423L17 22.989ZM17.375 23.0241L17.3052 23.7708L17.6802 23.8059L17.75 23.0591L17.8198 22.3124L17.4448 22.2773L17.375 23.0241ZM17.75 23.0591L17.6802 23.8059C17.907 23.8271 18.1336 23.8589 18.3602 23.9015L18.4986 23.1644L18.6371 22.4273C18.3655 22.3763 18.093 22.3379 17.8198 22.3124L17.75 23.0591ZM18.4986 23.1644L18.3602 23.9015L18.7338 23.9717L18.8723 23.2346L19.0108 22.4975L18.6371 22.4273L18.4986 23.1644ZM18.8723 23.2346L18.7338 23.9717L19.1075 24.0419L19.2459 23.3048L19.3844 22.5677L19.0108 22.4975L18.8723 23.2346ZM19.2459 23.3048L19.1075 24.0419C19.1073 24.0419 19.1054 24.0415 19.1018 24.0406C19.0983 24.0397 19.0928 24.0381 19.0858 24.0357C19.072 24.0309 19.0502 24.022 19.0237 24.0065C18.9674 23.9736 18.898 23.9151 18.8458 23.8241C18.7395 23.6386 18.7957 23.4932 18.7859 23.524L19.5011 23.75L20.2162 23.976C20.2855 23.7568 20.3387 23.4122 20.1473 23.0783C19.9514 22.7365 19.6189 22.6117 19.3844 22.5677L19.2459 23.3048ZM19.5011 23.75L18.7859 23.524L18.6674 23.899L19.3826 24.125L20.0977 24.351L20.2162 23.976L19.5011 23.75ZM19.3826 24.125L18.6674 23.899L18.5489 24.274L19.2641 24.5L19.9792 24.726L20.0977 24.351L19.3826 24.125ZM19.2641 24.5L18.5489 24.274C18.4281 24.6564 18.4162 25.0502 18.5174 25.4389L19.2432 25.25L19.969 25.0611C19.94 24.9498 19.9421 24.8436 19.9792 24.726L19.2641 24.5ZM19.2432 25.25L18.5174 25.4389L18.615 25.8139L19.3408 25.625L20.0666 25.4361L19.969 25.0611L19.2432 25.25ZM19.3408 25.625L18.615 25.8139L18.7126 26.1889L19.4385 26L20.1643 25.8111L20.0666 25.4361L19.3408 25.625ZM19.4385 26L18.7126 26.1889C18.7214 26.2228 18.7259 26.2481 18.7279 26.2658C18.73 26.2834 18.7295 26.2915 18.7296 26.2914C18.7296 26.2912 18.7302 26.2822 18.7346 26.267C18.7391 26.2514 18.7469 26.2321 18.7592 26.2116L19.4021 26.598L20.0449 26.9843C20.2796 26.5938 20.2554 26.1612 20.1643 25.8111L19.4385 26ZM19.4021 26.598L18.7592 26.2116L18.6252 26.4346L19.268 26.821L19.9109 27.2073L20.0449 26.9843L19.4021 26.598ZM19.268 26.821L18.6252 26.4346L18.4912 26.6576L19.134 27.044L19.7769 27.4303L19.9109 27.2073L19.268 26.821ZM19.134 27.044L18.4912 26.6576C18.5049 26.6347 18.5209 26.6156 18.5367 26.6006C18.5522 26.586 18.5645 26.5782 18.5698 26.5752C18.5747 26.5724 18.5725 26.5744 18.5601 26.5785C18.5476 26.5827 18.5267 26.5884 18.4956 26.5939L18.625 27.3326L18.7544 28.0714C19.1172 28.0078 19.5316 27.8383 19.7769 27.4303L19.134 27.044ZM18.625 27.3326L18.4956 26.5939L18.1206 26.6595L18.25 27.3983L18.3794 28.1371L18.7544 28.0714L18.625 27.3326ZM18.25 27.3983L18.1206 26.6595L17.7456 26.7252L17.875 27.464L18.0044 28.2027L18.3794 28.1371L18.25 27.3983ZM17.875 27.464L17.7456 26.7252C17.5812 26.754 17.4187 26.754 17.2542 26.7253L17.125 27.464L16.9958 28.2028C17.3313 28.2615 17.6688 28.2615 18.0044 28.2027L17.875 27.464ZM17.125 27.464L17.2542 26.7253L16.8792 26.6597L16.75 27.3985L16.6208 28.1372L16.9958 28.2028L17.125 27.464ZM16.75 27.3985L16.8792 26.6597L16.5042 26.5941L16.375 27.3329L16.2458 28.0716L16.6208 28.1372L16.75 27.3985ZM16.375 27.3329L16.5042 26.5941C16.1483 26.5318 15.7915 26.5464 15.4407 26.6353L15.625 27.3623L15.8093 28.0893C15.9585 28.0515 16.1017 28.0464 16.2458 28.0716L16.375 27.3329ZM15.625 27.3623L15.4407 26.6353L15.0657 26.7304L15.25 27.4574L15.4343 28.1844L15.8093 28.0893L15.625 27.3623ZM15.25 27.4574L15.0657 26.7304L14.6907 26.8255L14.875 27.5525L15.0593 28.2795L15.4343 28.1844L15.25 27.4574ZM14.875 27.5525L14.6907 26.8255C14.5614 26.8582 14.438 26.8583 14.3088 26.8256L14.125 27.5528L13.9412 28.2799C14.312 28.3736 14.6886 28.3735 15.0593 28.2795L14.875 27.5525ZM14.125 27.5528L14.3088 26.8256L13.9338 26.7308L13.75 27.458L13.5662 28.1851L13.9412 28.2799L14.125 27.5528ZM13.75 27.458L13.9338 26.7308L13.5588 26.6361L13.375 27.3632L13.1912 28.0903L13.5662 28.1851L13.75 27.458ZM13.375 27.3632L13.5588 26.6361C13.224 26.5515 12.8838 26.5267 12.5423 26.5646L12.625 27.31L12.7077 28.0555C12.8662 28.0379 13.026 28.0486 13.1912 28.0903L13.375 27.3632ZM12.625 27.31L12.5423 26.5646L12.1673 26.6062L12.25 27.3516L12.3327 28.0971L12.7077 28.0555L12.625 27.31ZM12.25 27.3516L12.1673 26.6062L11.7923 26.6478L11.875 27.3932L11.9577 28.1387L12.3327 28.0971L12.25 27.3516ZM11.875 27.3932L11.7923 26.6478C11.7555 26.6519 11.728 26.653 11.7087 26.6528C11.6894 26.6525 11.6812 26.651 11.682 26.6512C11.6836 26.6515 11.7328 26.6607 11.7934 26.7092L11.325 27.2949L10.8566 27.8806C11.2059 28.16 11.6372 28.1742 11.9577 28.1387L11.875 27.3932ZM11.325 27.2949L11.7934 26.7092L11.6184 26.5692L11.15 27.1549L10.6815 27.7407L10.8566 27.8806L11.325 27.2949ZM11.15 27.1549L11.6184 26.5692L11.4434 26.4292L10.9749 27.015L10.5065 27.6007L10.6815 27.7407L11.15 27.1549ZM10.9749 27.015L11.4434 26.4292C11.4867 26.4639 11.4955 26.489 11.4853 26.4694C11.4752 26.45 11.4554 26.4038 11.4341 26.3185L10.7064 26.5L9.97868 26.6815C10.0549 26.9872 10.1974 27.3535 10.5065 27.6007L10.9749 27.015ZM10.7064 26.5L11.4341 26.3185L11.3406 25.9435L10.6129 26.125L9.88515 26.3065L9.97868 26.6815L10.7064 26.5ZM10.6129 26.125L11.3406 25.9435L11.247 25.5685L10.5193 25.75L9.79163 25.9315L9.88515 26.3065L10.6129 26.125ZM10.5193 25.75L11.247 25.5685C11.1983 25.373 11.1733 25.1806 11.1708 24.9902L10.4209 25L9.67097 25.0098C9.67502 25.3194 9.71569 25.627 9.79163 25.9315L10.5193 25.75ZM10.4209 25L11.1708 24.9902L11.1659 24.6152L10.416 24.625L9.66606 24.6348L9.67097 25.0098L10.4209 25ZM10.416 24.625L11.1659 24.6152L11.161 24.2402L10.4111 24.25L9.66116 24.2598L9.66606 24.6348L10.416 24.625ZM10.4111 24.25L11.161 24.2402C11.1579 24.0044 11.1717 23.8879 11.18 23.8507L10.448 23.6875L9.71595 23.5243C9.66852 23.7371 9.6577 23.9956 9.66116 24.2598L10.4111 24.25ZM10.448 23.6875L11.18 23.8507L11.2218 23.6632L10.4898 23.5L9.75775 23.3368L9.71595 23.5243L10.448 23.6875ZM10.4898 23.5L11.2218 23.6632L11.2636 23.4757L10.5316 23.3125L9.79954 23.1493L9.75775 23.3368L10.4898 23.5ZM10.5316 23.3125L11.2636 23.4757C11.2767 23.417 11.284 23.3892 11.2861 23.3819C11.2884 23.3743 11.2822 23.3977 11.2672 23.4327C11.2615 23.4458 11.2389 23.4986 11.1956 23.56C11.1744 23.5901 11.1279 23.6518 11.0518 23.7124C10.9784 23.7708 10.8179 23.875 10.5863 23.875V23.125V22.375C10.3536 22.375 10.1919 22.4797 10.1173 22.5391C10.04 22.6007 9.99217 22.6638 9.96956 22.6959C9.92356 22.7611 9.89787 22.8198 9.88887 22.8408C9.86713 22.8914 9.85304 22.9382 9.84616 22.9618C9.83006 23.017 9.81432 23.083 9.79954 23.1493L10.5316 23.3125ZM10.5863 23.125V23.875H10.5992V23.125V22.375H10.5863V23.125ZM10.5992 23.125V23.875H10.6121V23.125V22.375H10.5992V23.125ZM10.6121 23.125V23.875C10.6322 23.875 10.648 23.8742 10.6524 23.8739C10.6592 23.8736 10.6649 23.8732 10.6684 23.8729C10.6755 23.8724 10.6818 23.8719 10.686 23.8715C10.6948 23.8708 10.7046 23.8698 10.7142 23.8689C10.7339 23.867 10.7606 23.8642 10.7934 23.8608C10.8594 23.8539 10.9553 23.8437 11.0805 23.8302L11 23.0845L10.9195 22.3388C10.7947 22.3523 10.7009 22.3623 10.6377 22.3689C10.6058 22.3723 10.5829 22.3746 10.5681 22.376C10.5605 22.3768 10.5568 22.3771 10.556 22.3772C10.5553 22.3772 10.5577 22.377 10.5618 22.3767C10.5639 22.3766 10.5683 22.3763 10.5741 22.376C10.5775 22.3758 10.5926 22.375 10.6121 22.375V23.125ZM11 23.0845L11.0805 23.8302L11.4555 23.7897L11.375 23.044L11.2945 22.2983L10.9195 22.3388L11 23.0845Z" fill="#D39EB8"/>
<path d="M16.125 2.62965L16.0854 1.8807L16.125 2.62965ZM15.375 2.66931L15.4146 3.41826L15.375 2.66931ZM7.7121 5.86687L6.96275 5.83561L7.7121 5.86687ZM7.86253 11.1183L7.11907 11.0195L7.86253 11.1183ZM7.97501 12.2367L7.24269 12.3986L7.97501 12.2367ZM8.05655 12.6056L8.78887 12.4437L8.05655 12.6056ZM8.12329 14.1141L7.37335 14.1043L8.12329 14.1141ZM8.26106 14.8503L7.5648 15.1291L8.26106 14.8503ZM8.54647 15.5631L7.85021 15.8419L8.54647 15.5631ZM8.71087 16.2978L7.9621 16.3407L8.71087 16.2978ZM8.88979 17.791L8.17495 18.018L8.88979 17.791ZM9.00362 18.1496L8.28878 18.3766L9.00362 18.1496ZM9.11746 18.5082L9.8323 18.2812L9.11746 18.5082ZM9.28338 19.2428L8.54047 19.3457L9.28338 19.2428ZM9.38754 19.995L10.1305 19.8921L9.38754 19.995ZM9.61776 20.708L10.2808 20.3574L9.61776 20.708ZM9.79589 21.0449L9.13286 21.3954L9.79589 21.0449ZM9.97401 21.3818L9.31099 21.7323L9.97401 21.3818ZM10.274 22.1047L9.55875 22.3304L10.274 22.1047ZM10.5176 22.8768L11.2329 22.6511L10.5176 22.8768ZM11.0145 23.277L10.9864 24.0264L11.0145 23.277ZM11.3895 23.291L11.3614 24.0405L11.3895 23.291ZM11.7645 23.3051L11.7926 22.5556L11.7645 23.3051ZM12.5145 23.245L12.3691 22.5093L12.5145 23.245ZM13.2645 23.0968L13.4099 23.8326L13.2645 23.0968ZM14.0145 23.014L14.0318 23.7638L14.0145 23.014ZM14.7645 22.9967L14.7472 22.2469L14.7645 22.9967ZM15.5145 22.9916L15.5074 23.7416L15.5145 22.9916ZM15.8895 22.9951L15.8965 22.2451L15.8895 22.9951ZM16.2645 22.9986L16.2574 23.7486L16.2645 22.9986ZM17.0145 23.0404L16.9384 23.7865L17.0145 23.0404ZM17.7645 23.1168L17.8405 22.3707L17.7645 23.1168ZM18.7273 22.9873L18.9331 23.7085L18.7273 22.9873ZM19.0212 22.9035L18.8154 22.1822L19.0212 22.9035ZM19.5194 22.495L18.8846 22.0955L19.5194 22.495ZM19.7236 22.1703L20.3584 22.5697L19.7236 22.1703ZM19.9279 21.8457L19.2931 21.4463L19.9279 21.8457ZM20.2433 21.1617L20.9598 21.3833L20.2433 21.1617ZM20.3544 20.8024L19.6378 20.5809L20.3544 20.8024ZM20.4655 20.4431L21.182 20.6647L20.4655 20.4431ZM20.7043 19.7283L19.9984 19.4747L20.7043 19.7283ZM20.9597 19.0172L21.6655 19.2708L20.9597 19.0172ZM21.0893 18.2756L21.8393 18.2794L21.0893 18.2756ZM21.5542 16.0605L20.8663 15.7617L21.5542 16.0605ZM21.7684 15.3362L21.0284 15.2144L21.7684 15.3362ZM21.8908 14.592L22.6309 14.7138L21.8908 14.592ZM21.9851 13.8444L22.7322 13.9102L21.9851 13.8444ZM22.0182 13.4689L21.2711 13.4031L22.0182 13.4689ZM22.0513 13.0933L22.7984 13.1591L22.0513 13.0933ZM22.1146 12.3433L21.367 12.2829L22.1146 12.3433ZM22.1751 11.5942L22.9227 11.6546L22.1751 11.5942ZM22.2528 10.8467L21.5088 10.7522L22.2528 10.8467ZM22.3475 10.1006L23.0916 10.1951L22.3475 10.1006ZM22.3695 9.34967L21.6212 9.39987L22.3695 9.34967ZM22.3188 8.59393L23.0672 8.54372L22.3188 8.59393ZM22.3009 7.8407L21.5511 7.82588L22.3009 7.8407ZM22.3157 7.08997L23.0656 7.10479L22.3157 7.08997ZM22.3138 6.33913L21.5641 6.35774L22.3138 6.33913ZM22.2952 5.58819L21.5454 5.60679L22.2952 5.58819ZM22.3349 4.83909L23.0786 4.93669L22.3349 4.83909ZM22.433 4.09183L21.6894 3.99423L22.433 4.09183ZM22.4865 3.41365L23.2365 3.4247L22.4865 3.41365ZM22.4955 2.80455L21.7456 2.7935L22.4955 2.80455ZM21.75 2.39073L21.8581 1.64857L21.4831 1.59393L21.375 2.3361L21.2669 3.07826L21.6419 3.13289L21.75 2.39073ZM21.375 2.3361L21.4831 1.59393C21.1945 1.55188 20.9051 1.53263 20.6152 1.53642L20.625 2.28635L20.6348 3.03629C20.8449 3.03355 21.0555 3.04746 21.2669 3.07826L21.375 2.3361ZM20.625 2.28635L20.6152 1.53642L20.2402 1.54131L20.25 2.29125L20.2598 3.04118L20.6348 3.03629L20.625 2.28635ZM20.25 2.29125L20.2402 1.54131L19.8652 1.5462L19.875 2.29614L19.8848 3.04607L20.2598 3.04118L20.25 2.29125ZM19.875 2.29614L19.8652 1.5462C19.598 1.54969 19.3309 1.56235 19.0639 1.58416L19.125 2.33167L19.1861 3.07918C19.4191 3.06014 19.652 3.04911 19.8848 3.04607L19.875 2.29614ZM19.125 2.33167L19.0639 1.58416L18.6889 1.61481L18.75 2.36232L18.8111 3.10982L19.1861 3.07918L19.125 2.33167ZM18.75 2.36232L18.6889 1.61481L18.3139 1.64545L18.375 2.39296L18.4361 3.14047L18.8111 3.10982L18.75 2.36232ZM18.375 2.39296L18.3139 1.64545C18.0534 1.66674 17.793 1.69355 17.5326 1.72587L17.625 2.47016L17.7174 3.21444C17.957 3.18469 18.1966 3.16004 18.4361 3.14047L18.375 2.39296ZM17.625 2.47016L17.5326 1.72587L17.1576 1.77243L17.25 2.51671L17.3424 3.261L17.7174 3.21444L17.625 2.47016ZM17.25 2.51671L17.1576 1.77243L16.7826 1.81898L16.875 2.56327L16.9674 3.30755L17.3424 3.261L17.25 2.51671ZM16.875 2.56327L16.7826 1.81898C16.55 1.84785 16.3176 1.86842 16.0854 1.8807L16.125 2.62965L16.1646 3.37861C16.4324 3.36445 16.7 3.34075 16.9674 3.30755L16.875 2.56327ZM16.125 2.62965L16.0854 1.8807L15.7104 1.90053L15.75 2.64948L15.7896 3.39843L16.1646 3.37861L16.125 2.62965ZM15.75 2.64948L15.7104 1.90053L15.3354 1.92035L15.375 2.66931L15.4146 3.41826L15.7896 3.39843L15.75 2.64948ZM15.375 2.66931L15.3354 1.92035C15.1072 1.93242 14.879 1.93452 14.6509 1.92664L14.625 2.6762L14.5991 3.42575C14.871 3.43513 15.1428 3.43263 15.4146 3.41826L15.375 2.66931ZM14.625 2.6762L14.6509 1.92664L14.2759 1.91371L14.25 2.66326L14.2241 3.41281L14.5991 3.42575L14.625 2.6762ZM14.25 2.66326L14.2759 1.91371L13.9009 1.90077L13.875 2.65032L13.8491 3.39988L14.2241 3.41281L14.25 2.66326ZM13.875 2.65032L13.9009 1.90077C13.6715 1.89286 13.4421 1.87545 13.2124 1.84851L13.125 2.5934L13.0376 3.33829C13.3079 3.37 13.5785 3.39054 13.8491 3.39988L13.875 2.65032ZM13.125 2.5934L13.2124 1.84851L12.8374 1.80452L12.75 2.54942L12.6626 3.29431L13.0376 3.33829L13.125 2.5934ZM12.75 2.54942L12.8374 1.80452L12.4624 1.76054L12.375 2.50543L12.2876 3.25033L12.6626 3.29431L12.75 2.54942ZM12.375 2.50543L12.4624 1.76054C12.2167 1.73173 11.9711 1.70072 11.7255 1.66752L11.625 2.41076L11.5245 3.154C11.7789 3.18838 12.0333 3.22049 12.2876 3.25033L12.375 2.50543ZM11.625 2.41076L11.7255 1.66752L11.3505 1.61683L11.25 2.36008L11.1495 3.10332L11.5245 3.154L11.625 2.41076ZM11.25 2.36008L11.3505 1.61683L10.9755 1.56615L10.875 2.30939L10.7745 3.05263L11.1495 3.10332L11.25 2.36008ZM10.875 2.30939L10.9755 1.56615C10.6273 1.51909 10.2798 1.54092 9.93829 1.6287L10.125 2.35509L10.3117 3.08148C10.4702 3.04074 10.6227 3.03211 10.7745 3.05263L10.875 2.30939ZM10.125 2.35509L9.93829 1.6287L9.56329 1.72509L9.75 2.45148L9.93671 3.17787L10.3117 3.08148L10.125 2.35509ZM9.75 2.45148L9.56329 1.72509L9.18829 1.82148L9.375 2.54787L9.56171 3.27425L9.93671 3.17787L9.75 2.45148ZM9.375 2.54787L9.18829 1.82148C9.01232 1.86671 8.84128 1.88271 8.67237 1.87202L8.625 2.62052L8.57763 3.36903C8.90872 3.38998 9.23768 3.35754 9.56171 3.27425L9.375 2.54787ZM8.625 2.62052L8.67237 1.87202L8.29737 1.84829L8.25 2.59679L8.20263 3.34529L8.57763 3.36903L8.625 2.62052ZM8.25 2.59679L8.29737 1.84829L7.92237 1.82456L7.875 2.57306L7.82763 3.32156L8.20263 3.34529L8.25 2.59679ZM7.875 2.57306L7.92237 1.82456C7.70328 1.81069 7.35191 1.83815 7.07468 2.11248C6.79027 2.39391 6.76578 2.75297 6.78709 2.98056L7.53382 2.91066L8.28056 2.84076C8.28068 2.84202 8.28151 2.85146 8.28062 2.86766C8.27972 2.88388 8.27696 2.90936 8.26869 2.94141C8.25112 3.00951 8.21045 3.09885 8.12974 3.17871C7.96623 3.34051 7.79672 3.31961 7.82763 3.32156L7.875 2.57306ZM7.53382 2.91066L6.78709 2.98056L6.82091 3.3419L7.56765 3.27199L8.31438 3.20209L8.28056 2.84076L7.53382 2.91066ZM7.56765 3.27199L6.82091 3.3419L6.85474 3.70323L7.60147 3.63333L8.34821 3.56343L8.31438 3.20209L7.56765 3.27199ZM7.60147 3.63333L6.85474 3.70323C6.87653 3.936 6.8949 4.17325 6.90985 4.415L7.65842 4.36873L8.40699 4.32246C8.3911 4.06545 8.37152 3.81243 8.34821 3.56343L7.60147 3.63333ZM7.65842 4.36873L6.90985 4.415L6.93297 4.78907L7.68154 4.7428L8.43011 4.69653L8.40699 4.32246L7.65842 4.36873ZM7.68154 4.7428L6.93297 4.78907L6.95609 5.16314L7.70466 5.11687L8.45323 5.0706L8.43011 4.69653L7.68154 4.7428ZM7.70466 5.11687L6.95609 5.16314C6.9699 5.38661 6.97213 5.61073 6.96275 5.83561L7.7121 5.86687L8.46145 5.89814C8.47298 5.62178 8.47025 5.3459 8.45323 5.0706L7.70466 5.11687ZM7.7121 5.86687L6.96275 5.83561L6.94707 6.21154L7.69642 6.2428L8.44576 6.27406L8.46145 5.89814L7.7121 5.86687ZM7.69642 6.2428L6.94707 6.21154L6.93138 6.58747L7.68073 6.61873L8.43008 6.64999L8.44576 6.27406L7.69642 6.2428ZM7.68073 6.61873L6.93138 6.58747C6.92069 6.8439 6.91297 7.10042 6.90825 7.35704L7.65812 7.37085L8.40799 7.38467C8.4125 7.13969 8.41987 6.8948 8.43008 6.64999L7.68073 6.61873ZM7.65812 7.37085L6.90825 7.35704L6.90131 7.73323L7.65119 7.74705L8.40106 7.76086L8.40799 7.38467L7.65812 7.37085ZM7.65119 7.74705L6.90131 7.73323L6.89438 8.10942L7.64426 8.12324L8.39413 8.13705L8.40106 7.76086L7.65119 7.74705ZM7.64426 8.12324L6.89438 8.10942C6.88851 8.42825 6.92564 8.74374 7.00487 9.05414L7.73157 8.86865L8.45827 8.68317C8.41184 8.50127 8.39076 8.31982 8.39413 8.13705L7.64426 8.12324ZM7.73157 8.86865L7.00487 9.05414L7.09911 9.42337L7.82581 9.23788L8.55251 9.05239L8.45827 8.68317L7.73157 8.86865ZM7.82581 9.23788L7.09911 9.42337L7.19335 9.79259L7.92005 9.6071L8.64676 9.42161L8.55251 9.05239L7.82581 9.23788ZM7.92005 9.6071L7.19335 9.79259C7.2323 9.94518 7.24145 10.0986 7.22025 10.2582L7.96371 10.357L8.70717 10.4558C8.75342 10.1078 8.73346 9.76132 8.64676 9.42161L7.92005 9.6071ZM7.96371 10.357L7.22025 10.2582L7.16966 10.6388L7.91312 10.7376L8.65658 10.8364L8.70717 10.4558L7.96371 10.357ZM7.91312 10.7376L7.16966 10.6388L7.11907 11.0195L7.86253 11.1183L8.60599 11.2171L8.65658 10.8364L7.91312 10.7376ZM7.86253 11.1183L7.11907 11.0195C7.07399 11.3587 7.08757 11.6968 7.16115 12.0297L7.89348 11.8678L8.6258 11.706C8.59067 11.547 8.58362 11.3854 8.60599 11.2171L7.86253 11.1183ZM7.89348 11.8678L7.16115 12.0297L7.24269 12.3986L7.97501 12.2367L8.70734 12.0749L8.6258 11.706L7.89348 11.8678ZM7.97501 12.2367L7.24269 12.3986L7.32422 12.7675L8.05655 12.6056L8.78887 12.4437L8.70734 12.0749L7.97501 12.2367ZM8.05655 12.6056L7.32422 12.7675C7.36606 12.9568 7.38576 13.1488 7.38321 13.3446L8.13315 13.3544L8.88309 13.3641C8.88712 13.0535 8.85575 12.7463 8.78887 12.4437L8.05655 12.6056ZM8.13315 13.3544L7.38321 13.3446L7.37828 13.7245L8.12822 13.7342L8.87815 13.7439L8.88309 13.3641L8.13315 13.3544ZM8.12822 13.7342L7.37828 13.7245L7.37335 14.1043L8.12329 14.1141L8.87322 14.1238L8.87815 13.7439L8.12822 13.7342ZM8.12329 14.1141L7.37335 14.1043C7.36876 14.4574 7.43334 14.8008 7.5648 15.1291L8.26106 14.8503L8.95732 14.5715C8.8985 14.4246 8.87123 14.2772 8.87322 14.1238L8.12329 14.1141ZM8.26106 14.8503L7.5648 15.1291L7.7075 15.4855L8.40376 15.2067L9.10002 14.9279L8.95732 14.5715L8.26106 14.8503ZM8.40376 15.2067L7.7075 15.4855L7.85021 15.8419L8.54647 15.5631L9.24273 15.2843L9.10002 14.9279L8.40376 15.2067ZM8.54647 15.5631L7.85021 15.8419C7.91562 16.0053 7.95234 16.1706 7.9621 16.3407L8.71087 16.2978L9.45963 16.2548C9.44047 15.9206 9.36759 15.5962 9.24273 15.2843L8.54647 15.5631ZM8.71087 16.2978L7.9621 16.3407L7.98379 16.7189L8.73256 16.676L9.48133 16.633L9.45963 16.2548L8.71087 16.2978ZM8.73256 16.676L7.98379 16.7189L8.00549 17.0972L8.75426 17.0542L9.50303 17.0113L9.48133 16.633L8.73256 16.676ZM8.75426 17.0542L8.00549 17.0972C8.02351 17.4114 8.07998 17.7188 8.17495 18.018L8.88979 17.791L9.60463 17.5641C9.54782 17.3852 9.51393 17.2014 9.50303 17.0113L8.75426 17.0542ZM8.88979 17.791L8.17495 18.018L8.28878 18.3766L9.00362 18.1496L9.71846 17.9227L9.60463 17.5641L8.88979 17.791ZM9.00362 18.1496L8.28878 18.3766L8.40262 18.7351L9.11746 18.5082L9.8323 18.2812L9.71846 17.9227L9.00362 18.1496ZM9.11746 18.5082L8.40262 18.7351C8.46554 18.9333 8.51152 19.1367 8.54047 19.3457L9.28338 19.2428L10.0263 19.1399C9.98579 18.8475 9.92116 18.5611 9.8323 18.2812L9.11746 18.5082ZM9.28338 19.2428L8.54047 19.3457L8.59255 19.7218L9.33546 19.6189L10.0784 19.516L10.0263 19.1399L9.28338 19.2428ZM9.33546 19.6189L8.59255 19.7218L8.64463 20.0979L9.38754 19.995L10.1305 19.8921L10.0784 19.516L9.33546 19.6189ZM9.38754 19.995L8.64463 20.0979C8.69139 20.4355 8.79528 20.7569 8.95473 21.0585L9.61776 20.708L10.2808 20.3574C10.2027 20.2098 10.1531 20.0559 10.1305 19.8921L9.38754 19.995ZM9.61776 20.708L8.95473 21.0585L9.13286 21.3954L9.79589 21.0449L10.4589 20.6943L10.2808 20.3574L9.61776 20.708ZM9.79589 21.0449L9.13286 21.3954L9.31099 21.7323L9.97401 21.3818L10.637 21.0312L10.4589 20.6943L9.79589 21.0449ZM9.97401 21.3818L9.31099 21.7323C9.40735 21.9146 9.49029 22.1135 9.55875 22.3304L10.274 22.1047L10.9892 21.879C10.8952 21.5812 10.7782 21.2982 10.637 21.0312L9.97401 21.3818ZM10.274 22.1047L9.55875 22.3304L9.68058 22.7165L10.3958 22.4908L11.111 22.2651L10.9892 21.879L10.274 22.1047ZM10.3958 22.4908L9.68058 22.7165L9.80241 23.1026L10.5176 22.8768L11.2329 22.6511L11.111 22.2651L10.3958 22.4908ZM10.5176 22.8768L9.80241 23.1026C9.87558 23.3344 10.007 23.5725 10.2323 23.754C10.4621 23.9391 10.7294 24.0168 10.9864 24.0264L11.0145 23.277L11.0426 22.5275C11.0435 22.5275 11.06 22.5283 11.0864 22.5373C11.114 22.5468 11.1446 22.5627 11.1732 22.5858C11.233 22.6339 11.2409 22.6766 11.2329 22.6511L10.5176 22.8768ZM11.0145 23.277L10.9864 24.0264L11.3614 24.0405L11.3895 23.291L11.4176 22.5415L11.0426 22.5275L11.0145 23.277ZM11.3895 23.291L11.3614 24.0405L11.7364 24.0546L11.7645 23.3051L11.7926 22.5556L11.4176 22.5415L11.3895 23.291ZM11.7645 23.3051L11.7364 24.0546C12.0456 24.0662 12.3538 24.0413 12.6599 23.9808L12.5145 23.245L12.3691 22.5093C12.1751 22.5476 11.9833 22.5628 11.7926 22.5556L11.7645 23.3051ZM12.5145 23.245L12.6599 23.9808L13.0349 23.9067L12.8895 23.1709L12.7441 22.4351L12.3691 22.5093L12.5145 23.245ZM12.8895 23.1709L13.0349 23.9067L13.4099 23.8326L13.2645 23.0968L13.1191 22.361L12.7441 22.4351L12.8895 23.1709ZM13.2645 23.0968L13.4099 23.8326C13.6185 23.7913 13.8256 23.7686 14.0318 23.7638L14.0145 23.014L13.9972 22.2642C13.7033 22.271 13.4105 22.3034 13.1191 22.361L13.2645 23.0968ZM14.0145 23.014L14.0318 23.7638L14.4068 23.7552L14.3895 23.0054L14.3722 22.2556L13.9972 22.2642L14.0145 23.014ZM14.3895 23.0054L14.4068 23.7552L14.7818 23.7465L14.7645 22.9967L14.7472 22.2469L14.3722 22.2556L14.3895 23.0054ZM14.7645 22.9967L14.7818 23.7465C15.0237 23.7409 15.2656 23.7393 15.5074 23.7416L15.5145 22.9916L15.5215 22.2416C15.2634 22.2392 15.0053 22.241 14.7472 22.2469L14.7645 22.9967ZM15.5145 22.9916L15.5074 23.7416L15.8824 23.7451L15.8895 22.9951L15.8965 22.2451L15.5215 22.2416L15.5145 22.9916ZM15.8895 22.9951L15.8824 23.7451L16.2574 23.7486L16.2645 22.9986L16.2715 22.2487L15.8965 22.2451L15.8895 22.9951ZM16.2645 22.9986L16.2574 23.7486C16.4843 23.7507 16.7112 23.7633 16.9384 23.7865L17.0145 23.0404L17.0905 22.2942C16.8177 22.2664 16.5447 22.2512 16.2715 22.2487L16.2645 22.9986ZM17.0145 23.0404L16.9384 23.7865L17.3134 23.8247L17.3895 23.0786L17.4655 22.3325L17.0905 22.2942L17.0145 23.0404ZM17.3895 23.0786L17.3134 23.8247L17.6884 23.863L17.7645 23.1168L17.8405 22.3707L17.4655 22.3325L17.3895 23.0786ZM17.7645 23.1168L17.6884 23.863C18.0117 23.8959 18.3331 23.8797 18.6392 23.7924L18.4334 23.0712L18.2276 22.35C18.1418 22.3745 18.0172 22.3887 17.8405 22.3707L17.7645 23.1168ZM18.4334 23.0712L18.6392 23.7924L18.9331 23.7085L18.7273 22.9873L18.5215 22.2661L18.2276 22.35L18.4334 23.0712ZM18.7273 22.9873L18.9331 23.7085L19.227 23.6247L19.0212 22.9035L18.8154 22.1822L18.5215 22.2661L18.7273 22.9873ZM19.0212 22.9035L19.227 23.6247C19.6427 23.5061 19.9456 23.2259 20.1542 22.8944L19.5194 22.495L18.8846 22.0955C18.8515 22.1481 18.8271 22.1713 18.8171 22.1795C18.8091 22.1861 18.8095 22.1839 18.8154 22.1822L19.0212 22.9035ZM19.5194 22.495L20.1542 22.8944L20.3584 22.5697L19.7236 22.1703L19.0888 21.7709L18.8846 22.0955L19.5194 22.495ZM19.7236 22.1703L20.3584 22.5697L20.5627 22.2451L19.9279 21.8457L19.2931 21.4463L19.0888 21.7709L19.7236 22.1703ZM19.9279 21.8457L20.5627 22.2451C20.7331 21.9743 20.866 21.6867 20.9598 21.3833L20.2433 21.1617L19.5267 20.9402C19.4724 21.1159 19.3951 21.2842 19.2931 21.4463L19.9279 21.8457ZM20.2433 21.1617L20.9598 21.3833L21.0709 21.024L20.3544 20.8024L19.6378 20.5809L19.5267 20.9402L20.2433 21.1617ZM20.3544 20.8024L21.0709 21.024L21.182 20.6647L20.4655 20.4431L19.7489 20.2216L19.6378 20.5809L20.3544 20.8024ZM20.4655 20.4431L21.182 20.6647C21.2527 20.4359 21.3288 20.2083 21.4101 19.9818L20.7043 19.7283L19.9984 19.4747C19.9095 19.7223 19.8263 19.9712 19.7489 20.2216L20.4655 20.4431ZM20.7043 19.7283L21.4101 19.9818L21.5378 19.6263L20.832 19.3728L20.1262 19.1192L19.9984 19.4747L20.7043 19.7283ZM20.832 19.3728L21.5378 19.6263L21.6655 19.2708L20.9597 19.0172L20.2539 18.7637L20.1262 19.1192L20.832 19.3728ZM20.9597 19.0172L21.6655 19.2708C21.7801 18.9518 21.8376 18.62 21.8393 18.2794L21.0893 18.2756L20.3393 18.2719C20.3385 18.446 20.3096 18.6086 20.2539 18.7637L20.9597 19.0172ZM21.0893 18.2756L21.8393 18.2794L21.8412 17.8933L21.0912 17.8896L20.3412 17.8859L20.3393 18.2719L21.0893 18.2756ZM21.0912 17.8896L21.8412 17.8933L21.8431 17.5072L21.0931 17.5035L20.3432 17.4998L20.3412 17.8859L21.0912 17.8896ZM21.0931 17.5035L21.8431 17.5072C21.8439 17.3509 21.8746 17.2052 21.936 17.064L21.2481 16.7652L20.5602 16.4663C20.4175 16.7949 20.3449 17.1414 20.3432 17.4998L21.0931 17.5035ZM21.2481 16.7652L21.936 17.064L22.089 16.7117L21.4011 16.4129L20.7132 16.114L20.5602 16.4663L21.2481 16.7652ZM21.4011 16.4129L22.089 16.7117L22.2421 16.3594L21.5542 16.0605L20.8663 15.7617L20.7132 16.114L21.4011 16.4129ZM21.5542 16.0605L22.2421 16.3594C22.3682 16.0689 22.4574 15.7681 22.5085 15.4579L21.7684 15.3362L21.0284 15.2144C20.9978 15.4004 20.9441 15.5824 20.8663 15.7617L21.5542 16.0605ZM21.7684 15.3362L22.5085 15.4579L22.5697 15.0859L21.8296 14.9641L21.0896 14.8424L21.0284 15.2144L21.7684 15.3362ZM21.8296 14.9641L22.5697 15.0859L22.6309 14.7138L21.8908 14.592L21.1508 14.4703L21.0896 14.8424L21.8296 14.9641ZM21.8908 14.592L22.6309 14.7138C22.6747 14.4472 22.7085 14.1793 22.7322 13.9102L21.9851 13.8444L21.238 13.7786C21.2176 14.0103 21.1885 14.2408 21.1508 14.4703L21.8908 14.592ZM21.9851 13.8444L22.7322 13.9102L22.7653 13.5347L22.0182 13.4689L21.2711 13.4031L21.238 13.7786L21.9851 13.8444ZM22.0182 13.4689L22.7653 13.5347L22.7984 13.1591L22.0513 13.0933L21.3041 13.0275L21.2711 13.4031L22.0182 13.4689ZM22.0513 13.0933L22.7984 13.1591C22.8206 12.907 22.8418 12.6552 22.8622 12.4037L22.1146 12.3433L21.367 12.2829C21.347 12.5307 21.326 12.779 21.3041 13.0275L22.0513 13.0933ZM22.1146 12.3433L22.8622 12.4037L22.8924 12.0292L22.1449 11.9687L21.3973 11.9083L21.367 12.2829L22.1146 12.3433ZM22.1449 11.9687L22.8924 12.0292L22.9227 11.6546L22.1751 11.5942L21.4276 11.5338L21.3973 11.9083L22.1449 11.9687ZM22.1751 11.5942L22.9227 11.6546C22.942 11.4163 22.9667 11.1785 22.9968 10.9411L22.2528 10.8467L21.5088 10.7522C21.4757 11.0122 21.4487 11.2727 21.4276 11.5338L22.1751 11.5942ZM22.2528 10.8467L22.9968 10.9411L23.0442 10.5681L22.3002 10.4736L21.5561 10.3791L21.5088 10.7522L22.2528 10.8467ZM22.3002 10.4736L23.0442 10.5681L23.0916 10.1951L22.3475 10.1006L21.6035 10.0061L21.5561 10.3791L22.3002 10.4736ZM22.3475 10.1006L23.0916 10.1951C23.1293 9.89805 23.138 9.59928 23.1179 9.29946L22.3695 9.34967L21.6212 9.39987C21.6349 9.60387 21.6289 9.80572 21.6035 10.0061L22.3475 10.1006ZM22.3695 9.34967L23.1179 9.29946L23.0925 8.92159L22.3442 8.9718L21.5959 9.022L21.6212 9.39987L22.3695 9.34967ZM22.3442 8.9718L23.0925 8.92159L23.0672 8.54372L22.3188 8.59393L21.5705 8.64414L21.5959 9.022L22.3442 8.9718ZM22.3188 8.59393L23.0672 8.54372C23.0517 8.31326 23.0463 8.08388 23.0508 7.85551L22.3009 7.8407L21.5511 7.82588C21.5457 8.098 21.5522 8.37077 21.5705 8.64414L22.3188 8.59393ZM22.3009 7.8407L23.0508 7.85551L23.0582 7.48015L22.3083 7.46533L21.5585 7.45052L21.5511 7.82588L22.3009 7.8407ZM22.3083 7.46533L23.0582 7.48015L23.0656 7.10479L22.3157 7.08997L21.5659 7.07515L21.5585 7.45052L22.3083 7.46533ZM22.3157 7.08997L23.0656 7.10479C23.0708 6.8434 23.0701 6.58198 23.0636 6.32053L22.3138 6.33913L21.5641 6.35774C21.57 6.59692 21.5706 6.83606 21.5659 7.07515L22.3157 7.08997ZM22.3138 6.33913L23.0636 6.32053L23.0543 5.94506L22.3045 5.96366L21.5548 5.98227L21.5641 6.35774L22.3138 6.33913ZM22.3045 5.96366L23.0543 5.94506L23.045 5.56958L22.2952 5.58819L21.5454 5.60679L21.5548 5.98227L22.3045 5.96366ZM22.2952 5.58819L23.045 5.56958C23.0397 5.35823 23.0509 5.14739 23.0786 4.93669L22.3349 4.83909L21.5913 4.74148C21.5536 5.02896 21.5383 5.31751 21.5454 5.60679L22.2952 5.58819ZM22.3349 4.83909L23.0786 4.93669L23.1276 4.56306L22.384 4.46546L21.6404 4.36785L21.5913 4.74148L22.3349 4.83909ZM22.384 4.46546L23.1276 4.56306L23.1766 4.18943L22.433 4.09183L21.6894 3.99423L21.6404 4.36785L22.384 4.46546ZM22.433 4.09183L23.1766 4.18943C23.2123 3.91806 23.233 3.66251 23.2365 3.4247L22.4865 3.41365L21.7366 3.4026C21.7341 3.57086 21.7192 3.76742 21.6894 3.99423L22.433 4.09183ZM22.4865 3.41365L23.2365 3.4247L23.2409 3.12015L22.491 3.1091L21.7411 3.09805L21.7366 3.4026L22.4865 3.41365ZM22.491 3.1091L23.2409 3.12015L23.2454 2.8156L22.4955 2.80455L21.7456 2.7935L21.7411 3.09805L22.491 3.1091ZM22.4955 2.80455L23.2454 2.8156C23.2494 2.54785 23.1642 2.25375 22.9272 2.02398C22.7104 1.81388 22.4443 1.73397 22.2331 1.7032L22.125 2.44537L22.0169 3.18753C22.0557 3.19318 21.9763 3.19135 21.8831 3.10098C21.8339 3.05329 21.7952 2.99405 21.7714 2.93024C21.7486 2.86907 21.7452 2.81967 21.7456 2.7935L22.4955 2.80455ZM22.125 2.44537L22.2331 1.7032L21.8581 1.64857L21.75 2.39073L21.6419 3.13289L22.0169 3.18753L22.125 2.44537Z" fill="#D39EB8"/>
<path d="M12.9019 13.6804C13.7964 12.5051 14.486 10.8814 14.8587 10C15.5111 10.8814 16.9275 13.0928 17.3748 14.268C17.9339 15.7371 16.5361 17.5 14.8587 17.5C13.1814 17.5 11.7836 15.1494 12.9019 13.6804Z" fill="#D39EB8"/>
<path d="M13.3559 12.649L12.6695 12.3468L13.3559 12.649ZM15.2737 10.5595L14.6698 11.0043L15.2737 10.5595ZM15.7197 11.1649L16.3235 10.7201L15.7197 11.1649ZM16.6642 13.2152L16.0352 13.6236L16.6642 13.2152ZM17.0712 13.8419L16.4422 14.2503L17.0712 13.8419ZM17.279 14.5081L16.5291 14.5173L17.279 14.5081ZM17.2877 15.2136L18.0376 15.2044L17.2877 15.2136ZM16.7891 16.5538L16.1208 16.2135L16.7891 16.5538ZM16.2838 17.0769L16.6574 17.7273L16.2838 17.0769ZM15.6085 17.4648L15.235 16.8144L15.6085 17.4648ZM14.9077 17.5337L14.6635 18.2428L14.9077 17.5337ZM14.1814 17.2836L14.4256 16.5744L14.1814 17.2836ZM13.6041 16.8706L14.2058 16.423L13.6041 16.8706ZM13.3899 16.5828L12.7882 17.0304L13.3899 16.5828ZM13.1757 16.2949L12.574 16.7425L13.1757 16.2949ZM12.8082 15.0026L12.0668 15.1158L12.8082 15.0026ZM12.8769 13.6614L13.3311 13.0646L12.8769 13.6614ZM12.8935 13.674L12.4393 14.2708L12.8935 13.674ZM13.2046 12.9928L13.891 13.295L14.0423 12.9512L13.3559 12.649L12.6695 12.3468L12.5181 12.6906L13.2046 12.9928ZM13.3559 12.649L14.0423 12.9512C14.1385 12.7328 14.239 12.5185 14.3437 12.3084L13.6724 11.9738L13.0012 11.6393C12.8857 11.8711 12.7751 12.1069 12.6695 12.3468L13.3559 12.649ZM13.6724 11.9738L14.3437 12.3084L14.5089 11.9769L13.8376 11.6424L13.1664 11.3078L13.0012 11.6393L13.6724 11.9738ZM13.8376 11.6424L14.5089 11.9769L14.6741 11.6455L14.0028 11.3109L13.3316 10.9764L13.1664 11.3078L13.8376 11.6424ZM14.0028 11.3109L14.6741 11.6455C14.7504 11.4922 14.8193 11.4156 14.8638 11.3791L14.3887 10.7988L13.9135 10.2185C13.6638 10.423 13.4754 10.6877 13.3316 10.9764L14.0028 11.3109ZM14.3887 10.7988L14.8638 11.3791L15.0845 11.1984L14.6094 10.6181L14.1342 10.0378L13.9135 10.2185L14.3887 10.7988ZM14.6094 10.6181L15.0845 11.1984L15.3052 11.0177L14.83 10.4374L14.3549 9.85713L14.1342 10.0378L14.6094 10.6181ZM14.83 10.4374L15.3052 11.0177C15.2795 11.0388 15.2234 11.0777 15.1363 11.1013C15.0434 11.1264 14.944 11.1259 14.8524 11.1007C14.6892 11.0558 14.6369 10.9596 14.6698 11.0043L15.2737 10.5595L15.8776 10.1147C15.7618 9.95754 15.5612 9.74001 15.2502 9.65445C14.8849 9.55397 14.566 9.6843 14.3549 9.85713L14.83 10.4374ZM15.2737 10.5595L14.6698 11.0043L14.8928 11.307L15.4967 10.8622L16.1005 10.4174L15.8776 10.1147L15.2737 10.5595ZM15.4967 10.8622L14.8928 11.307L15.1158 11.6097L15.7197 11.1649L16.3235 10.7201L16.1005 10.4174L15.4967 10.8622ZM15.7197 11.1649L15.1158 11.6097C15.2211 11.7526 15.3046 11.9089 15.3668 12.081L16.0722 11.8262L16.7776 11.5714C16.667 11.2654 16.5156 10.9809 16.3235 10.7201L15.7197 11.1649ZM16.0722 11.8262L15.3668 12.081L15.4963 12.4395L16.2017 12.1847L16.9071 11.9299L16.7776 11.5714L16.0722 11.8262ZM16.2017 12.1847L15.4963 12.4395L15.6258 12.7981L16.3312 12.5433L17.0366 12.2884L16.9071 11.9299L16.2017 12.1847ZM16.3312 12.5433L15.6258 12.7981C15.7313 13.09 15.8677 13.3656 16.0352 13.6236L16.6642 13.2152L17.2933 12.8067C17.1895 12.6469 17.1039 12.4746 17.0366 12.2884L16.3312 12.5433ZM16.6642 13.2152L16.0352 13.6236L16.2387 13.937L16.8677 13.5285L17.4967 13.1201L17.2933 12.8067L16.6642 13.2152ZM16.8677 13.5285L16.2387 13.937L16.4422 14.2503L17.0712 13.8419L17.7002 13.4335L17.4967 13.1201L16.8677 13.5285ZM17.0712 13.8419L16.4422 14.2503C16.5053 14.3476 16.528 14.4324 16.5291 14.5173L17.279 14.5081L18.0289 14.4988C18.0242 14.1133 17.9083 13.754 17.7002 13.4335L17.0712 13.8419ZM17.279 14.5081L16.5291 14.5173L16.5334 14.8701L17.2833 14.8608L18.0333 14.8516L18.0289 14.4988L17.279 14.5081ZM17.2833 14.8608L16.5334 14.8701L16.5378 15.2228L17.2877 15.2136L18.0376 15.2044L18.0333 14.8516L17.2833 14.8608ZM17.2877 15.2136L16.5378 15.2228C16.5391 15.3309 16.5154 15.4387 16.4561 15.5552L17.1244 15.8955L17.7927 16.2359C17.9569 15.9135 18.0421 15.5667 18.0376 15.2044L17.2877 15.2136ZM17.1244 15.8955L16.4561 15.5552L16.2885 15.8843L16.9568 16.2247L17.6251 16.5651L17.7927 16.2359L17.1244 15.8955ZM16.9568 16.2247L16.2885 15.8843L16.1208 16.2135L16.7891 16.5538L17.4575 16.8942L17.6251 16.5651L16.9568 16.2247ZM16.7891 16.5538L16.1208 16.2135C16.0788 16.2959 16.0163 16.3656 15.9103 16.4265L16.2838 17.0769L16.6574 17.7273C17.0016 17.5296 17.2759 17.2506 17.4575 16.8942L16.7891 16.5538ZM16.2838 17.0769L15.9103 16.4265L15.5727 16.6205L15.9462 17.2708L16.3197 17.9212L16.6574 17.7273L16.2838 17.0769ZM15.9462 17.2708L15.5727 16.6205L15.235 16.8144L15.6085 17.4648L15.9821 18.1151L16.3197 17.9212L15.9462 17.2708ZM15.6085 17.4648L15.235 16.8144C15.2047 16.8318 15.1915 16.8325 15.1911 16.8326C15.1911 16.8326 15.1804 16.8343 15.1519 16.8245L14.9077 17.5337L14.6635 18.2428C15.1136 18.3978 15.5722 18.3506 15.9821 18.1151L15.6085 17.4648ZM14.9077 17.5337L15.1519 16.8245L14.7888 16.6995L14.5446 17.4086L14.3004 18.1178L14.6635 18.2428L14.9077 17.5337ZM14.5446 17.4086L14.7888 16.6995L14.4256 16.5744L14.1814 17.2836L13.9372 17.9927L14.3004 18.1178L14.5446 17.4086ZM14.1814 17.2836L14.4256 16.5744C14.3157 16.5366 14.252 16.4851 14.2058 16.423L13.6041 16.8706L13.0024 17.3183C13.2417 17.6401 13.5629 17.8638 13.9372 17.9927L14.1814 17.2836ZM13.6041 16.8706L14.2058 16.423L13.9916 16.1351L13.3899 16.5828L12.7882 17.0304L13.0024 17.3183L13.6041 16.8706ZM13.3899 16.5828L13.9916 16.1351L13.7775 15.8472L13.1757 16.2949L12.574 16.7425L12.7882 17.0304L13.3899 16.5828ZM13.1757 16.2949L13.7775 15.8472C13.7034 15.7476 13.6663 15.6537 13.6519 15.559L12.9104 15.6722L12.169 15.7854C12.2227 16.137 12.3625 16.4582 12.574 16.7425L13.1757 16.2949ZM12.9104 15.6722L13.6519 15.559L13.6008 15.2242L12.8593 15.3374L12.1179 15.4506L12.169 15.7854L12.9104 15.6722ZM12.8593 15.3374L13.6008 15.2242L13.5496 14.8894L12.8082 15.0026L12.0668 15.1158L12.1179 15.4506L12.8593 15.3374ZM12.8082 15.0026L13.5496 14.8894C13.5224 14.711 13.521 14.5832 13.5305 14.4966L12.785 14.4146L12.0395 14.3326C12.0119 14.5837 12.0259 14.8478 12.0668 15.1158L12.8082 15.0026ZM12.785 14.4146L13.5305 14.4966L13.5583 14.2434L12.8128 14.1614L12.0673 14.0794L12.0395 14.3326L12.785 14.4146ZM12.8128 14.1614L13.5583 14.2434L13.5862 13.9902L12.8407 13.9082L12.0952 13.8262L12.0673 14.0794L12.8128 14.1614ZM12.8407 13.9082L13.5862 13.9902C13.5953 13.9076 13.6018 13.8559 13.6057 13.8287C13.6083 13.8114 13.6075 13.8198 13.6031 13.8395C13.6028 13.8407 13.5927 13.8897 13.5678 13.9499C13.5621 13.9637 13.5188 14.0754 13.415 14.1828C13.3597 14.2401 13.2303 14.3557 13.022 14.3969C12.7792 14.445 12.5652 14.3667 12.4226 14.2581L12.8769 13.6614L13.3311 13.0646C13.1882 12.9558 12.9739 12.8773 12.7307 12.9255C12.522 12.9668 12.3922 13.0827 12.3365 13.1403C12.2319 13.2485 12.1878 13.3618 12.1812 13.3777C12.1545 13.4423 12.1424 13.4984 12.1399 13.5093C12.1311 13.5485 12.1251 13.5872 12.1216 13.6111C12.1135 13.6662 12.1047 13.74 12.0952 13.8262L12.8407 13.9082ZM12.8769 13.6614L12.4226 14.2581L12.4309 14.2645L12.8852 13.6677L13.3395 13.0709L13.3311 13.0646L12.8769 13.6614ZM12.8852 13.6677L12.4309 14.2645L12.4393 14.2708L12.8935 13.674L13.3478 13.0773L13.3395 13.0709L12.8852 13.6677ZM12.8935 13.674L12.4393 14.2708C12.7014 14.4704 12.9889 14.437 13.1479 14.3799C13.2824 14.3315 13.3681 14.2568 13.3969 14.2309C13.4631 14.1713 13.5034 14.1129 13.5122 14.1004C13.5398 14.0609 13.5593 14.0251 13.5657 14.0132C13.5834 13.9806 13.601 13.9444 13.6156 13.9136C13.6467 13.8478 13.6886 13.7547 13.7396 13.6388L13.0532 13.3366L12.3668 13.0344C12.3169 13.1477 12.2818 13.2254 12.2597 13.272C12.2476 13.2975 12.2446 13.3029 12.2475 13.2974C12.2488 13.2951 12.2519 13.2895 12.2565 13.2817C12.2604 13.2752 12.2697 13.2596 12.2835 13.2399C12.2901 13.2305 12.3286 13.1743 12.3934 13.116C12.4214 13.0908 12.5065 13.0165 12.6405 12.9683C12.799 12.9113 13.086 12.878 13.3478 13.0773L12.8935 13.674ZM13.0532 13.3366L13.7396 13.6388L13.891 13.295L13.2046 12.9928L12.5181 12.6906L12.3668 13.0344L13.0532 13.3366Z" fill="#D39EB8"/>
<path d="M8.125 5.5C7.71079 5.5 7.375 5.83579 7.375 6.25C7.375 6.66421 7.71079 7 8.125 7V5.5ZM8.225 6.25V7H8.25257L8.28007 6.99798L8.225 6.25ZM13 6.13304L12.8521 6.86832L13 6.13304ZM14.5 6.28887L14.3616 5.55175L14.5 6.28887ZM19.75 6.09877L19.5656 5.37178L19.75 6.09877ZM21.25 6.3755L21.0146 7.08761L21.25 6.3755ZM21.6875 6.43708L21.1578 5.90617L21.6875 6.43708ZM21.75 6.37472L22.2797 6.90564L22.4407 6.74505L22.4854 6.52212L21.75 6.37472ZM21.775 6.25V5.5H21.1604L21.0396 6.1026L21.775 6.25ZM21.875 7C22.2892 7 22.625 6.66421 22.625 6.25C22.625 5.83579 22.2892 5.5 21.875 5.5V7ZM8.125 6.25V7H8.225V6.25V5.5H8.125V6.25ZM8.225 6.25L8.28007 6.99798L8.98007 6.94644L8.925 6.19847L8.86993 5.45049L8.16993 5.50202L8.225 6.25ZM8.925 6.19847L8.98007 6.94644C9.42716 6.91353 9.71084 6.92439 9.86728 6.95252L10 6.21435L10.1327 5.47619C9.78916 5.41442 9.35618 5.41469 8.86993 5.45049L8.925 6.19847ZM10 6.21435L9.86728 6.95252L10.2423 7.01994L10.375 6.28178L10.5077 5.54361L10.1327 5.47619L10 6.21435ZM10.375 6.28178L10.2423 7.01994L10.6173 7.08736L10.75 6.3492L10.8827 5.61103L10.5077 5.54361L10.375 6.28178ZM10.75 6.3492L10.6173 7.08736C10.9705 7.15086 11.3251 7.13991 11.6746 7.05628L11.5 6.32687L11.3254 5.59747C11.1749 5.6335 11.0295 5.63743 10.8827 5.61103L10.75 6.3492ZM11.5 6.32687L11.6746 7.05628L12.0496 6.96653L11.875 6.23713L11.7004 5.50772L11.3254 5.59747L11.5 6.32687ZM11.875 6.23713L12.0496 6.96653L12.4246 6.87678L12.25 6.14738L12.0754 5.41798L11.7004 5.50772L11.875 6.23713ZM12.25 6.14738L12.4246 6.87678C12.5697 6.84205 12.7097 6.83967 12.8521 6.86832L13 6.13304L13.1479 5.39777C12.7903 5.32587 12.4303 5.33304 12.0754 5.41798L12.25 6.14738ZM13 6.13304L12.8521 6.86832L13.2271 6.94374L13.375 6.20846L13.5229 5.47318L13.1479 5.39777L13 6.13304ZM13.375 6.20846L13.2271 6.94374L13.6021 7.01915L13.75 6.28387L13.8979 5.54859L13.5229 5.47318L13.375 6.20846ZM13.75 6.28387L13.6021 7.01915C13.9463 7.08836 14.2935 7.09075 14.6384 7.02599L14.5 6.28887L14.3616 5.55175C14.2065 5.58087 14.0537 5.57993 13.8979 5.54859L13.75 6.28387ZM14.5 6.28887L14.6384 7.02599L15.0134 6.95557L14.875 6.21845L14.7366 5.48134L14.3616 5.55175L14.5 6.28887ZM14.875 6.21845L15.0134 6.95557L15.3884 6.88516L15.25 6.14804L15.1116 5.41092L14.7366 5.48134L14.875 6.21845ZM15.25 6.14804L15.3884 6.88516C15.5609 6.85278 15.7308 6.84828 15.9012 6.87093L16 6.12747L16.0988 5.38401C15.7692 5.3402 15.4391 5.34941 15.1116 5.41092L15.25 6.14804ZM16 6.12747L15.9012 6.87093L16.2762 6.92078L16.375 6.17732L16.4738 5.43386L16.0988 5.38401L16 6.12747ZM16.375 6.17732L16.2762 6.92078L16.6512 6.97063L16.75 6.22717L16.8488 5.48371L16.4738 5.43386L16.375 6.17732ZM16.75 6.22717L16.6512 6.97063C16.9162 7.00586 17.1813 7.03295 17.4466 7.05188L17.5 6.30379L17.5534 5.55569C17.3187 5.53894 17.0838 5.51495 16.8488 5.48371L16.75 6.22717ZM17.5 6.30379L17.4466 7.05188L17.8216 7.07865L17.875 6.33056L17.9284 5.58246L17.5534 5.55569L17.5 6.30379ZM17.875 6.33056L17.8216 7.07865L18.1966 7.10542L18.25 6.35732L18.3034 5.60923L17.9284 5.58246L17.875 6.33056ZM18.25 6.35732L18.1966 7.10542C18.5288 7.12913 18.859 7.09848 19.1844 7.01596L19 6.28898L18.8156 5.562C18.641 5.6063 18.4712 5.6212 18.3034 5.60923L18.25 6.35732ZM19 6.28898L19.1844 7.01596L19.5594 6.92086L19.375 6.19387L19.1906 5.46689L18.8156 5.562L19 6.28898ZM19.375 6.19387L19.5594 6.92086L19.9344 6.82575L19.75 6.09877L19.5656 5.37178L19.1906 5.46689L19.375 6.19387ZM19.75 6.09877L19.9344 6.82575C20.0429 6.79823 20.1473 6.80093 20.2646 6.83971L20.5 6.1276L20.7354 5.41549C20.3527 5.28902 19.9571 5.27249 19.5656 5.37178L19.75 6.09877ZM20.5 6.1276L20.2646 6.83971L20.6396 6.96366L20.875 6.25155L21.1104 5.53944L20.7354 5.41549L20.5 6.1276ZM20.875 6.25155L20.6396 6.96366L21.0146 7.08761L21.25 6.3755L21.4854 5.66339L21.1104 5.53944L20.875 6.25155ZM21.25 6.3755L21.0146 7.08761C21.1546 7.13387 21.3033 7.17597 21.4423 7.19555C21.5105 7.20514 21.6096 7.21437 21.7204 7.20194C21.8177 7.19101 22.0332 7.15167 22.2172 6.968L21.6875 6.43708L21.1578 5.90617C21.2417 5.82238 21.3306 5.77559 21.3977 5.74978C21.4637 5.72439 21.5191 5.71511 21.5531 5.7113C21.5881 5.70737 21.6143 5.70774 21.628 5.70831C21.6423 5.70891 21.6506 5.71008 21.6514 5.71019C21.652 5.71027 21.6386 5.70827 21.6071 5.70007C21.5768 5.69218 21.5367 5.68035 21.4854 5.66339L21.25 6.3755ZM21.6875 6.43708L22.2172 6.968L22.2797 6.90564L21.75 6.37472L21.2203 5.8438L21.1578 5.90617L21.6875 6.43708ZM21.75 6.37472L22.4854 6.52212L22.5104 6.3974L21.775 6.25L21.0396 6.1026L21.0146 6.22732L21.75 6.37472ZM21.775 6.25V7H21.875V6.25V5.5H21.775V6.25Z" fill="#D39EB8"/>
</svg>
