<svg width="30" height="30" viewBox="0 0 30 30" fill="none" xmlns="http://www.w3.org/2000/svg">
<path d="M25.9037 21.9153C26.2712 22.1065 26.724 21.9637 26.9153 21.5963C27.1065 21.2288 26.9637 20.776 26.5963 20.5847L25.9037 21.9153ZM26.1613 21.2038L26.5076 20.5386L26.469 20.5185L26.4283 20.503L26.1613 21.2038ZM25.6746 21.0184L25.4076 21.7193L25.6746 21.0184ZM24.9126 20.8115L24.9711 20.0638H24.9711L24.9126 20.8115ZM24.6374 20.7899L24.5789 21.5377L24.6374 20.7899ZM24.3621 20.7684L24.4206 20.0207L24.3621 20.7684ZM23.8008 20.6896L23.948 19.9542L23.8008 20.6896ZM23.5147 20.6323L23.6619 19.8969L23.5147 20.6323ZM23.2286 20.5751L23.0814 21.3105L23.2286 20.5751ZM22.7054 20.3515L23.1359 19.7374L22.7054 20.3515ZM22.2311 20.019L21.8006 20.6331L22.2311 20.019ZM21.6791 18.9961L22.383 18.7373L21.6791 18.9961ZM21.3435 18.5309L21.8044 17.9393L21.3435 18.5309ZM20.8823 18.1717L21.3432 17.58L20.8823 18.1717ZM20.5284 17.7333L19.8513 18.0559L20.5284 17.7333ZM20.4052 17.4746L21.0823 17.152L20.4052 17.4746ZM20.2819 17.2158L19.6048 17.5384L20.2819 17.2158ZM20.1028 16.6756L19.3671 16.8216L20.1028 16.6756ZM19.9911 16.1128L19.2554 16.2588L19.9911 16.1128ZM19.7469 14.9658L19.014 15.1252L19.7469 14.9658ZM20.0252 13.8501L19.3319 13.5642L20.0252 13.8501ZM21.3593 11.3973L20.7129 11.017L21.3593 11.3973ZM21.5007 11.157L22.1471 11.5374L21.5007 11.157ZM21.642 10.9168L20.9956 10.5365L21.642 10.9168ZM22.248 9.89227L22.8933 10.2746L22.248 9.89227ZM22.6664 9.49648L22.3256 8.82834L22.6664 9.49648ZM24.2891 8.80952L24.047 8.09967L24.2891 8.80952ZM24.8565 8.68938L24.7908 7.94227L24.8565 8.68938ZM25.9883 8.6814L26.403 8.05644L26.2991 7.98752L26.1785 7.95591L25.9883 8.6814ZM26.1613 8.79617L25.7467 9.42113L26.1152 9.66566L26.5076 9.46145L26.1613 8.79617ZM26.5963 9.41528C26.9637 9.22404 27.1065 8.77115 26.9153 8.40373C26.724 8.03631 26.2712 7.89348 25.9037 8.08472L26.5963 9.41528ZM26.25 21.25L26.5963 20.5847L26.5076 20.5386L26.1613 21.2038L25.815 21.8691L25.9037 21.9153L26.25 21.25ZM26.1613 21.2038L26.4283 20.503L25.9416 20.3176L25.6746 21.0184L25.4076 21.7193L25.8943 21.9047L26.1613 21.2038ZM25.6746 21.0184L25.9416 20.3176C25.5983 20.1868 25.2636 20.0867 24.9711 20.0638L24.9126 20.8115L24.8541 21.5592C24.9286 21.565 25.1019 21.6029 25.4076 21.7193L25.6746 21.0184ZM24.9126 20.8115L24.9711 20.0638L24.6959 20.0422L24.6374 20.7899L24.5789 21.5377L24.8541 21.5592L24.9126 20.8115ZM24.6374 20.7899L24.6959 20.0422L24.4206 20.0207L24.3621 20.7684L24.3036 21.5161L24.5789 21.5377L24.6374 20.7899ZM24.3621 20.7684L24.4206 20.0207C24.2686 20.0088 24.1111 19.9868 23.948 19.9542L23.8008 20.6896L23.6536 21.425C23.872 21.4687 24.0887 21.4993 24.3036 21.5161L24.3621 20.7684ZM23.8008 20.6896L23.948 19.9542L23.6619 19.8969L23.5147 20.6323L23.3675 21.3678L23.6536 21.425L23.8008 20.6896ZM23.5147 20.6323L23.6619 19.8969L23.3758 19.8397L23.2286 20.5751L23.0814 21.3105L23.3675 21.3678L23.5147 20.6323ZM23.2286 20.5751L23.3758 19.8397C23.2861 19.8217 23.2084 19.7882 23.1359 19.7374L22.7054 20.3515L22.2748 20.9656C22.5186 21.1366 22.7896 21.2521 23.0814 21.3105L23.2286 20.5751ZM22.7054 20.3515L23.1359 19.7374L22.8988 19.5712L22.4683 20.1853L22.0377 20.7994L22.2748 20.9656L22.7054 20.3515ZM22.4683 20.1853L22.8988 19.5712L22.6617 19.4049L22.2311 20.019L21.8006 20.6331L22.0377 20.7994L22.4683 20.1853ZM22.2311 20.019L22.6617 19.4049C22.6353 19.3865 22.613 19.3629 22.5929 19.3084L21.889 19.5672L21.1851 19.826C21.305 20.1522 21.5107 20.4299 21.8006 20.6331L22.2311 20.019ZM21.889 19.5672L22.5929 19.3084L22.488 19.0229L21.784 19.2817L21.0801 19.5404L21.1851 19.826L21.889 19.5672ZM21.784 19.2817L22.488 19.0229L22.383 18.7373L21.6791 18.9961L20.9751 19.2549L21.0801 19.5404L21.784 19.2817ZM21.6791 18.9961L22.383 18.7373C22.2667 18.4211 22.0733 18.1487 21.8044 17.9393L21.3435 18.5309L20.8826 19.1226C20.9212 19.1527 20.9514 19.1904 20.9751 19.2549L21.6791 18.9961ZM21.3435 18.5309L21.8044 17.9393L21.5738 17.7596L21.1129 18.3513L20.652 18.943L20.8826 19.1226L21.3435 18.5309ZM21.1129 18.3513L21.5738 17.7596L21.3432 17.58L20.8823 18.1717L20.4214 18.7634L20.652 18.943L21.1129 18.3513ZM20.8823 18.1717L21.3432 17.58C21.2796 17.5305 21.2365 17.4759 21.2055 17.4108L20.5284 17.7333L19.8513 18.0559C19.9847 18.3358 20.1776 18.5735 20.4214 18.7634L20.8823 18.1717ZM20.5284 17.7333L21.2055 17.4108L21.0823 17.152L20.4052 17.4746L19.7281 17.7971L19.8513 18.0559L20.5284 17.7333ZM20.4052 17.4746L21.0823 17.152L20.959 16.8933L20.2819 17.2158L19.6048 17.5384L19.7281 17.7971L20.4052 17.4746ZM20.2819 17.2158L20.959 16.8933C20.9036 16.777 20.8636 16.6562 20.8384 16.5296L20.1028 16.6756L19.3671 16.8216C19.4165 17.0702 19.4958 17.3096 19.6048 17.5384L20.2819 17.2158ZM20.1028 16.6756L20.8384 16.5296L20.7826 16.2482L20.0469 16.3942L19.3113 16.5402L19.3671 16.8216L20.1028 16.6756ZM20.0469 16.3942L20.7826 16.2482L20.7267 15.9668L19.9911 16.1128L19.2554 16.2588L19.3113 16.5402L20.0469 16.3942ZM19.9911 16.1128L20.7267 15.9668C20.6886 15.7745 20.6481 15.5801 20.6053 15.3834L19.8724 15.5428L19.1396 15.7023C19.1805 15.8903 19.2191 16.0758 19.2554 16.2588L19.9911 16.1128ZM19.8724 15.5428L20.6053 15.3834L20.5425 15.0949L19.8097 15.2543L19.0768 15.4137L19.1396 15.7023L19.8724 15.5428ZM19.8097 15.2543L20.5425 15.0949L20.4797 14.8063L19.7469 14.9658L19.014 15.1252L19.0768 15.4137L19.8097 15.2543ZM19.7469 14.9658L20.4797 14.8063C20.4707 14.7646 20.4729 14.7318 20.4912 14.6875L19.7978 14.4015L19.1045 14.1156C18.9711 14.4389 18.9394 14.7822 19.014 15.1252L19.7469 14.9658ZM19.7978 14.4015L20.4912 14.6875L20.6049 14.4118L19.9115 14.1258L19.2182 13.8399L19.1045 14.1156L19.7978 14.4015ZM19.9115 14.1258L20.6049 14.4118L20.7186 14.1361L20.0252 13.8501L19.3319 13.5642L19.2182 13.8399L19.9115 14.1258ZM20.0252 13.8501L20.7186 14.1361C20.7975 13.9447 20.8713 13.7568 20.9399 13.5725L20.237 13.3109L19.5341 13.0493C19.472 13.2163 19.4046 13.3879 19.3319 13.5642L20.0252 13.8501ZM20.237 13.3109L20.9399 13.5725L21.038 13.309L20.3351 13.0474L19.6322 12.7858L19.5341 13.0493L20.237 13.3109ZM20.3351 13.0474L21.038 13.309L21.1361 13.0455L20.4332 12.7839L19.7303 12.5223L19.6322 12.7858L20.3351 13.0474ZM20.4332 12.7839L21.1361 13.0455C21.175 12.941 21.2276 12.8467 21.295 12.7601L20.7029 12.2997L20.1109 11.8392C19.9494 12.0469 19.8222 12.2755 19.7303 12.5223L20.4332 12.7839ZM20.7029 12.2997L21.295 12.7601L21.4666 12.5394L20.8746 12.079L20.2826 11.6185L20.1109 11.8392L20.7029 12.2997ZM20.8746 12.079L21.4666 12.5394L21.6383 12.3187L21.0463 11.8582L20.4543 11.3978L20.2826 11.6185L20.8746 12.079ZM21.0463 11.8582L21.6383 12.3187C21.7725 12.1461 21.895 11.9657 22.0057 11.7776L21.3593 11.3973L20.7129 11.017C20.6351 11.1492 20.5489 11.2761 20.4543 11.3978L21.0463 11.8582ZM21.3593 11.3973L22.0057 11.7776L22.1471 11.5374L21.5007 11.157L20.8542 10.7767L20.7129 11.017L21.3593 11.3973ZM21.5007 11.157L22.1471 11.5374L22.2884 11.2971L21.642 10.9168L20.9956 10.5365L20.8542 10.7767L21.5007 11.157ZM21.642 10.9168L22.2884 11.2971C22.3822 11.1377 22.4806 10.9711 22.5835 10.7974L21.9382 10.4151L21.293 10.0328C21.1894 10.2077 21.0902 10.3756 20.9956 10.5365L21.642 10.9168ZM21.9382 10.4151L22.5835 10.7974L22.7384 10.536L22.0931 10.1537L21.4479 9.77141L21.293 10.0328L21.9382 10.4151ZM22.0931 10.1537L22.7384 10.536L22.8933 10.2746L22.248 9.89227L21.6027 9.50998L21.4479 9.77141L22.0931 10.1537ZM22.248 9.89227L22.8933 10.2746C22.9262 10.2189 22.9616 10.1878 23.0071 10.1646L22.6664 9.49648L22.3256 8.82834C22.0198 8.98429 21.7763 9.21703 21.6027 9.50998L22.248 9.89227ZM22.6664 9.49648L23.0071 10.1646L23.2706 10.0302L22.9298 9.36211L22.5891 8.69397L22.3256 8.82834L22.6664 9.49648ZM22.9298 9.36211L23.2706 10.0302L23.5341 9.89588L23.1933 9.22774L22.8526 8.55961L22.5891 8.69397L22.9298 9.36211ZM23.1933 9.22774L23.5341 9.89588C23.6782 9.82239 23.8255 9.76004 23.9763 9.70861L23.7342 8.99876L23.4921 8.28891C23.2731 8.36363 23.0598 8.45394 22.8526 8.55961L23.1933 9.22774ZM23.7342 8.99876L23.9763 9.70861L24.2538 9.61399L24.0117 8.90414L23.7696 8.19429L23.4921 8.28891L23.7342 8.99876ZM24.0117 8.90414L24.2538 9.61399L24.5312 9.51938L24.2891 8.80952L24.047 8.09967L23.7696 8.19429L24.0117 8.90414ZM24.2891 8.80952L24.5312 9.51938C24.6594 9.47563 24.7894 9.44819 24.9223 9.43649L24.8565 8.68938L24.7908 7.94227C24.5369 7.96461 24.2886 8.01726 24.047 8.09967L24.2891 8.80952ZM24.8565 8.68938L24.9223 9.43649L25.2123 9.41097L25.1466 8.66385L25.0808 7.91674L24.7908 7.94227L24.8565 8.68938ZM25.1466 8.66385L25.2123 9.41097L25.5024 9.38544L25.4366 8.63833L25.3708 7.89122L25.0808 7.91674L25.1466 8.66385ZM25.4366 8.63833L25.5024 9.38544C25.5814 9.37848 25.6363 9.37687 25.6712 9.37759C25.6882 9.37795 25.6965 9.37878 25.6976 9.37892C25.6994 9.37912 25.688 9.37801 25.6673 9.37259L25.8575 8.6471L26.0477 7.92161C25.8261 7.86353 25.5743 7.87331 25.3708 7.89122L25.4366 8.63833ZM25.8575 8.6471L25.6673 9.37259L25.7981 9.40689L25.9883 8.6814L26.1785 7.95591L26.0477 7.92161L25.8575 8.6471ZM25.9883 8.6814L25.5737 9.30636L25.7467 9.42113L26.1613 8.79617L26.5759 8.17121L26.403 8.05644L25.9883 8.6814ZM26.1613 8.79617L26.5076 9.46145L26.5963 9.41528L26.25 8.75L25.9037 8.08472L25.815 8.13089L26.1613 8.79617Z" fill="#8D997B"/>
<path d="M26.0526 26.9736C26.4522 27.0826 26.8645 26.847 26.9736 26.4474C27.0826 26.0478 26.847 25.6355 26.4474 25.5264L26.0526 26.9736ZM26.1535 26.2237L25.9049 26.9313L25.9302 26.9402L25.9561 26.9472L26.1535 26.2237ZM24.8779 25.8852L24.8479 25.1358L24.8779 25.8852ZM24.3168 25.9076L24.3468 26.657L24.3168 25.9076ZM23.7449 25.9203L23.7486 26.6703L23.7449 25.9203ZM23.4535 25.9217L23.4499 25.1717L23.4535 25.9217ZM23.1622 25.9231L23.1585 25.1731L23.1622 25.9231ZM22.6002 25.8317L22.8436 25.1223L22.6002 25.8317ZM22.059 25.646L21.8156 26.3554L22.059 25.646ZM21.589 25.322L21.0211 25.8119L21.589 25.322ZM21.1901 24.8596L21.758 24.3697L21.1901 24.8596ZM20.7038 24.5627L20.5364 25.2938L20.7038 24.5627ZM20.4168 24.4971L20.5841 23.766L20.4168 24.4971ZM20.1299 24.4314L20.2972 23.7003L20.1299 24.4314ZM19.6093 24.2035L19.1816 24.8196L19.6093 24.2035ZM19.3757 24.0413L19.8034 23.4252L19.3757 24.0413ZM19.142 23.879L19.5698 23.263L19.142 23.879ZM18.705 23.5178L19.2296 22.9818L18.705 23.5178ZM18.2983 23.1198L17.7737 23.6559L18.2983 23.1198ZM17.8672 22.7394L17.3998 23.3259L17.8672 22.7394ZM17.6395 22.5579L18.1068 21.9714L17.6395 22.5579ZM17.4117 22.3765L17.8791 21.7899L17.4117 22.3765ZM17.0786 21.9193L17.7792 21.6516L17.0786 21.9193ZM16.9733 21.6437L16.2727 21.9114L16.9733 21.6437ZM16.8679 21.368L16.1673 21.6358L16.8679 21.368ZM16.5005 20.5942L15.8367 20.9434L16.5005 20.5942ZM16.3695 20.3452L15.7057 20.6944L16.3695 20.3452ZM16.0199 19.2788L15.2954 19.4725L16.0199 19.2788ZM15.8203 18.7553L16.4897 18.4172L15.8203 18.7553ZM15.5667 18.2532L14.8972 18.5913L15.5667 18.2532ZM14.7959 16.6845L14.0472 16.7274L14.7959 16.6845ZM14.7488 14.9523L13.9988 14.95L14.7488 14.9523ZM14.8426 14.0971L14.1025 13.9758L14.8426 14.0971ZM14.8891 13.8136L15.6292 13.9349L14.8891 13.8136ZM14.9637 13.2443L14.2174 13.1707L14.9637 13.2443ZM15.2722 12.1602L14.7384 11.6333L15.2722 12.1602ZM15.4961 11.9333L16.0299 12.4602L15.4961 11.9333ZM15.72 11.7064L15.1863 11.1796L15.72 11.7064ZM16.0686 10.6401L15.3267 10.53L16.0686 10.6401ZM16.1968 9.44365L15.4501 9.37305L16.1968 9.44365ZM16.4854 8.96882L16.0758 8.3405L16.4854 8.96882ZM16.7451 8.79954L16.3355 8.17122L16.7451 8.79954ZM17.0048 8.63026L17.4143 9.25857L17.0048 8.63026ZM17.3896 8.20075L16.7136 7.87584L17.3896 8.20075ZM17.6397 7.68028L18.3157 8.00519L17.6397 7.68028ZM18.0026 7.25916L17.5822 6.63802L18.0026 7.25916ZM18.2403 7.09827L18.6607 7.71941L18.2403 7.09827ZM18.4781 6.93738L18.0577 6.31624L18.4781 6.93738ZM18.8537 6.49601L19.5268 6.82678L18.8537 6.49601ZM19.1293 5.93504L18.4562 5.60428L19.1293 5.93504ZM19.6159 5.66912L19.6472 4.91977L19.6159 5.66912ZM20.3134 5.69823L20.2822 6.44758L20.3134 5.69823ZM21.2844 5.13106L20.7722 4.5832L21.2844 5.13106ZM21.7448 4.81961L21.4288 4.13945L21.7448 4.81961ZM22.2507 4.58454L21.9347 3.90437L22.2507 4.58454ZM22.7654 4.36337L22.4893 3.66603L22.7654 4.36337ZM23.0272 4.25973L23.3033 4.95707L23.0272 4.25973ZM23.2889 4.1561L23.0129 3.45877L23.2889 4.1561ZM23.823 3.96862L23.6023 3.25183L23.823 3.96862ZM24.0953 3.88478L24.316 4.60157L24.0953 3.88478ZM24.3676 3.80094L24.5883 4.51773L24.3676 3.80094ZM25.4901 3.62571L25.41 2.88L25.4901 3.62571ZM25.8926 3.63394L26.1243 2.92061L25.8926 3.63394ZM26.0118 3.67262L26.4545 3.06728L26.3576 2.99639L26.2434 2.9593L26.0118 3.67262ZM26.1535 3.77632L25.7107 4.38167L26.0024 4.59498L26.3509 4.49987L26.1535 3.77632ZM26.4474 4.47355C26.847 4.36452 27.0826 3.95219 26.9736 3.55258C26.8645 3.15298 26.4522 2.91742 26.0526 3.02645L26.4474 4.47355ZM26.25 26.25L26.4474 25.5264L26.3509 25.5001L26.1535 26.2237L25.9561 26.9472L26.0526 26.9736L26.25 26.25ZM26.1535 26.2237L26.4021 25.5161L25.9046 25.3413L25.6559 26.0489L25.4073 26.7564L25.9049 26.9313L26.1535 26.2237ZM25.6559 26.0489L25.9046 25.3413C25.5479 25.216 25.1798 25.1226 24.8479 25.1358L24.8779 25.8852L24.9078 26.6346C24.9499 26.633 25.1005 26.6486 25.4073 26.7564L25.6559 26.0489ZM24.8779 25.8852L24.8479 25.1358L24.5674 25.147L24.5974 25.8964L24.6273 26.6458L24.9078 26.6346L24.8779 25.8852ZM24.5974 25.8964L24.5674 25.147L24.2869 25.1582L24.3168 25.9076L24.3468 26.657L24.6273 26.6458L24.5974 25.8964ZM24.3168 25.9076L24.2869 25.1582C24.109 25.1653 23.9271 25.1694 23.7413 25.1703L23.7449 25.9203L23.7486 26.6703C23.9513 26.6693 24.1507 26.6649 24.3468 26.657L24.3168 25.9076ZM23.7449 25.9203L23.7413 25.1703L23.4499 25.1717L23.4535 25.9217L23.4572 26.6717L23.7486 26.6703L23.7449 25.9203ZM23.4535 25.9217L23.4499 25.1717L23.1585 25.1731L23.1622 25.9231L23.1658 26.6731L23.4572 26.6717L23.4535 25.9217ZM23.1622 25.9231L23.1585 25.1731C23.0467 25.1736 22.943 25.1564 22.8436 25.1223L22.6002 25.8317L22.3568 26.5411C22.6181 26.6307 22.8891 26.6744 23.1658 26.6731L23.1622 25.9231ZM22.6002 25.8317L22.8436 25.1223L22.573 25.0294L22.3296 25.7388L22.0862 26.4482L22.3568 26.5411L22.6002 25.8317ZM22.3296 25.7388L22.573 25.0294L22.3024 24.9366L22.059 25.646L21.8156 26.3554L22.0862 26.4482L22.3296 25.7388ZM22.059 25.646L22.3024 24.9366C22.2562 24.9207 22.2091 24.8926 22.1569 24.8321L21.589 25.322L21.0211 25.8119C21.2348 26.0596 21.501 26.2475 21.8156 26.3554L22.059 25.646ZM21.589 25.322L22.1569 24.8321L21.9574 24.6009L21.3896 25.0908L20.8217 25.5807L21.0211 25.8119L21.589 25.322ZM21.3896 25.0908L21.9574 24.6009L21.758 24.3697L21.1901 24.8596L20.6222 25.3495L20.8217 25.5807L21.3896 25.0908ZM21.1901 24.8596L21.758 24.3697C21.5248 24.0994 21.2243 23.9125 20.8711 23.8316L20.7038 24.5627L20.5364 25.2938C20.5658 25.3006 20.5895 25.3116 20.6222 25.3495L21.1901 24.8596ZM20.7038 24.5627L20.8711 23.8316L20.5841 23.766L20.4168 24.4971L20.2495 25.2282L20.5364 25.2938L20.7038 24.5627ZM20.4168 24.4971L20.5841 23.766L20.2972 23.7003L20.1299 24.4314L19.9626 25.1625L20.2495 25.2282L20.4168 24.4971ZM20.1299 24.4314L20.2972 23.7003C20.196 23.6771 20.1114 23.6391 20.0371 23.5875L19.6093 24.2035L19.1816 24.8196C19.4187 24.9842 19.6812 25.0981 19.9626 25.1625L20.1299 24.4314ZM19.6093 24.2035L20.0371 23.5875L19.8034 23.4252L19.3757 24.0413L18.9479 24.6573L19.1816 24.8196L19.6093 24.2035ZM19.3757 24.0413L19.8034 23.4252L19.5698 23.263L19.142 23.879L18.7143 24.4951L18.9479 24.6573L19.3757 24.0413ZM19.142 23.879L19.5698 23.263C19.4485 23.1788 19.3352 23.0851 19.2296 22.9818L18.705 23.5178L18.1805 24.0539C18.346 24.2159 18.524 24.363 18.7143 24.4951L19.142 23.879ZM18.705 23.5178L19.2296 22.9818L19.0262 22.7828L18.5016 23.3188L17.9771 23.8549L18.1805 24.0539L18.705 23.5178ZM18.5016 23.3188L19.0262 22.7828L18.8228 22.5838L18.2983 23.1198L17.7737 23.6559L17.9771 23.8549L18.5016 23.3188ZM18.2983 23.1198L18.8228 22.5838C18.6686 22.4329 18.5058 22.2893 18.3346 22.1528L17.8672 22.7394L17.3998 23.3259C17.5322 23.4314 17.6568 23.5414 17.7737 23.6559L18.2983 23.1198ZM17.8672 22.7394L18.3346 22.1528L18.1068 21.9714L17.6395 22.5579L17.1721 23.1445L17.3998 23.3259L17.8672 22.7394ZM17.6395 22.5579L18.1068 21.9714L17.8791 21.7899L17.4117 22.3765L16.9444 22.963L17.1721 23.1445L17.6395 22.5579ZM17.4117 22.3765L17.8791 21.7899C17.8336 21.7536 17.8023 21.7119 17.7792 21.6516L17.0786 21.9193L16.3781 22.1871C16.4955 22.4943 16.6862 22.7574 16.9444 22.963L17.4117 22.3765ZM17.0786 21.9193L17.7792 21.6516L17.6738 21.3759L16.9733 21.6437L16.2727 21.9114L16.3781 22.1871L17.0786 21.9193ZM16.9733 21.6437L17.6738 21.3759L17.5685 21.1002L16.8679 21.368L16.1673 21.6358L16.2727 21.9114L16.9733 21.6437ZM16.8679 21.368L17.5685 21.1002C17.4881 20.8899 17.3971 20.6877 17.2952 20.4941L16.6315 20.8433L15.9678 21.1925C16.0406 21.3309 16.1072 21.4785 16.1673 21.6358L16.8679 21.368ZM16.6315 20.8433L17.2952 20.4941L17.1642 20.245L16.5005 20.5942L15.8367 20.9434L15.9678 21.1925L16.6315 20.8433ZM16.5005 20.5942L17.1642 20.245L17.0332 19.996L16.3695 20.3452L15.7057 20.6944L15.8367 20.9434L16.5005 20.5942ZM16.3695 20.3452L17.0332 19.996C16.9719 19.8795 16.9243 19.7578 16.8901 19.63L16.1656 19.8237L15.441 20.0174C15.504 20.2528 15.5923 20.4788 15.7057 20.6944L16.3695 20.3452ZM16.1656 19.8237L16.8901 19.63L16.8173 19.3575L16.0928 19.5512L15.3682 19.7449L15.441 20.0174L16.1656 19.8237ZM16.0928 19.5512L16.8173 19.3575L16.7445 19.0851L16.0199 19.2788L15.2954 19.4725L15.3682 19.7449L16.0928 19.5512ZM16.0199 19.2788L16.7445 19.0851C16.6826 18.8537 16.5976 18.6308 16.4897 18.4172L15.8203 18.7553L15.1508 19.0934C15.212 19.2145 15.2601 19.3406 15.2954 19.4725L16.0199 19.2788ZM15.8203 18.7553L16.4897 18.4172L16.363 18.1661L15.6935 18.5042L15.024 18.8424L15.1508 19.0934L15.8203 18.7553ZM15.6935 18.5042L16.363 18.1661L16.2362 17.9151L15.5667 18.2532L14.8972 18.5913L15.024 18.8424L15.6935 18.5042ZM15.5667 18.2532L16.2362 17.9151C16.142 17.7287 16.0376 17.5418 15.9234 17.3545L15.2831 17.745L14.6428 18.1356C14.7377 18.2911 14.8224 18.443 14.8972 18.5913L15.5667 18.2532ZM15.2831 17.745L15.9234 17.3545L15.7665 17.0973L15.1262 17.4879L14.4859 17.8785L14.6428 18.1356L15.2831 17.745ZM15.1262 17.4879L15.7665 17.0973L15.6097 16.8402L14.9694 17.2308L14.3291 17.6213L14.4859 17.8785L15.1262 17.4879ZM14.9694 17.2308L15.6097 16.8402C15.5666 16.7696 15.5484 16.7063 15.5447 16.6415L14.7959 16.6845L14.0472 16.7274C14.0656 17.0482 14.163 17.3491 14.3291 17.6213L14.9694 17.2308ZM14.7959 16.6845L15.5447 16.6415L15.5281 16.3524L14.7794 16.3953L14.0306 16.4382L14.0472 16.7274L14.7959 16.6845ZM14.7794 16.3953L15.5281 16.3524L15.5116 16.0632L14.7628 16.1062L14.014 16.1491L14.0306 16.4382L14.7794 16.3953ZM14.7628 16.1062L15.5116 16.0632C15.5014 15.8854 15.4965 15.708 15.4971 15.531L14.7471 15.5288L13.9971 15.5265C13.9965 15.7338 14.0021 15.9413 14.014 16.1491L14.7628 16.1062ZM14.7471 15.5288L15.4971 15.531L15.498 15.2428L14.748 15.2405L13.998 15.2382L13.9971 15.5265L14.7471 15.5288ZM14.748 15.2405L15.498 15.2428L15.4988 14.9546L14.7488 14.9523L13.9988 14.95L13.998 15.2382L14.748 15.2405ZM14.7488 14.9523L15.4988 14.9546C15.4993 14.8022 15.5118 14.6514 15.5363 14.5019L14.7962 14.3806L14.056 14.2593C14.0186 14.4877 13.9995 14.7181 13.9988 14.95L14.7488 14.9523ZM14.7962 14.3806L15.5363 14.5019L15.5828 14.2184L14.8426 14.0971L14.1025 13.9758L14.056 14.2593L14.7962 14.3806ZM14.8426 14.0971L15.5828 14.2184L15.6292 13.9349L14.8891 13.8136L14.149 13.6923L14.1025 13.9758L14.8426 14.0971ZM14.8891 13.8136L15.6292 13.9349C15.6628 13.7301 15.6898 13.5244 15.7101 13.318L14.9637 13.2443L14.2174 13.1707C14.2002 13.3453 14.1774 13.5191 14.149 13.6923L14.8891 13.8136ZM14.9637 13.2443L15.7101 13.318L15.7383 13.0322L14.9919 12.9586L14.2455 12.885L14.2174 13.1707L14.9637 13.2443ZM14.9919 12.9586L15.7383 13.0322L15.7665 12.7464L15.0201 12.6728L14.2737 12.5992L14.2455 12.885L14.9919 12.9586ZM15.0201 12.6728L15.7665 12.7464C15.7671 12.7402 15.7681 12.737 15.7703 12.7327C15.7728 12.7275 15.7815 12.7118 15.806 12.687L15.2722 12.1602L14.7384 11.6333C14.4826 11.8925 14.3113 12.2187 14.2737 12.5992L15.0201 12.6728ZM15.2722 12.1602L15.806 12.687L16.0299 12.4602L15.4961 11.9333L14.9623 11.4065L14.7384 11.6333L15.2722 12.1602ZM15.4961 11.9333L16.0299 12.4602L16.2538 12.2333L15.72 11.7064L15.1863 11.1796L14.9623 11.4065L15.4961 11.9333ZM15.72 11.7064L16.2538 12.2333C16.5001 11.9838 16.6734 11.6736 16.7274 11.3099L15.9855 11.1998L15.2436 11.0896C15.2422 11.099 15.2385 11.1266 15.1863 11.1796L15.72 11.7064ZM15.9855 11.1998L16.7274 11.3099L16.7689 11.0301L16.027 10.9199L15.2852 10.8098L15.2436 11.0896L15.9855 11.1998ZM16.027 10.9199L16.7689 11.0301L16.8104 10.7503L16.0686 10.6401L15.3267 10.53L15.2852 10.8098L16.027 10.9199ZM16.0686 10.6401L16.8104 10.7503C16.8402 10.5495 16.8652 10.3412 16.8857 10.1254L16.139 10.0548L15.3923 9.98417C15.3742 10.1758 15.3523 10.3577 15.3267 10.53L16.0686 10.6401ZM16.139 10.0548L16.8857 10.1254L16.9145 9.81981L16.1679 9.74921L15.4212 9.67861L15.3923 9.98417L16.139 10.0548ZM16.1679 9.74921L16.9145 9.81981L16.9434 9.51425L16.1968 9.44365L15.4501 9.37305L15.4212 9.67861L16.1679 9.74921ZM16.1968 9.44365L16.9434 9.51425C16.9435 9.51337 16.941 9.53412 16.9243 9.5617C16.9076 9.58907 16.8914 9.59944 16.8949 9.59713L16.4854 8.96882L16.0758 8.3405C15.7135 8.5767 15.4911 8.93912 15.4501 9.37305L16.1968 9.44365ZM16.4854 8.96882L16.8949 9.59713L17.1546 9.42785L16.7451 8.79954L16.3355 8.17122L16.0758 8.3405L16.4854 8.96882ZM16.7451 8.79954L17.1546 9.42785L17.4143 9.25857L17.0048 8.63026L16.5953 8.00194L16.3355 8.17122L16.7451 8.79954ZM17.0048 8.63026L17.4143 9.25857C17.6936 9.07658 17.9184 8.83186 18.0656 8.52565L17.3896 8.20075L16.7136 7.87584C16.694 7.91661 16.6623 7.95824 16.5953 8.00194L17.0048 8.63026ZM17.3896 8.20075L18.0656 8.52565L18.1906 8.26542L17.5147 7.94052L16.8387 7.61561L16.7136 7.87584L17.3896 8.20075ZM17.5147 7.94052L18.1906 8.26542L18.3157 8.00519L17.6397 7.68028L16.9638 7.35538L16.8387 7.61561L17.5147 7.94052ZM17.6397 7.68028L18.3157 8.00519C18.342 7.9506 18.375 7.91272 18.4229 7.8803L18.0026 7.25916L17.5822 6.63802C17.3132 6.82012 17.1043 7.06299 16.9638 7.35538L17.6397 7.68028ZM18.0026 7.25916L18.4229 7.8803L18.6607 7.71941L18.2403 7.09827L17.82 6.47713L17.5822 6.63802L18.0026 7.25916ZM18.2403 7.09827L18.6607 7.71941L18.8984 7.55852L18.4781 6.93738L18.0577 6.31624L17.82 6.47713L18.2403 7.09827ZM18.4781 6.93738L18.8984 7.55852C19.1745 7.37172 19.3826 7.12022 19.5268 6.82678L18.8537 6.49601L18.1805 6.16524C18.141 6.24578 18.0987 6.28853 18.0577 6.31624L18.4781 6.93738ZM18.8537 6.49601L19.5268 6.82678L19.6646 6.54629L18.9915 6.21553L18.3184 5.88476L18.1805 6.16524L18.8537 6.49601ZM18.9915 6.21553L19.6646 6.54629L19.8024 6.26581L19.1293 5.93504L18.4562 5.60428L18.3184 5.88476L18.9915 6.21553ZM19.1293 5.93504L19.8024 6.26581C19.7892 6.29278 19.7511 6.34734 19.6795 6.38645C19.6137 6.42243 19.5697 6.41784 19.5846 6.41846L19.6159 5.66912L19.6472 4.91977C19.4296 4.91069 19.1882 4.94557 18.9602 5.07019C18.7264 5.19794 18.5613 5.39032 18.4562 5.60428L19.1293 5.93504ZM19.6159 5.66912L19.5846 6.41846L19.9334 6.43302L19.9647 5.68367L19.9959 4.93433L19.6472 4.91977L19.6159 5.66912ZM19.9647 5.68367L19.9334 6.43302L20.2822 6.44758L20.3134 5.69823L20.3447 4.94888L19.9959 4.93433L19.9647 5.68367ZM20.3134 5.69823L20.2822 6.44758C20.6664 6.46362 21.0643 6.36354 21.3818 6.06674L20.8696 5.51888L20.3574 4.97102C20.3632 4.96559 20.3705 4.96 20.3788 4.95519C20.387 4.95042 20.3934 4.94791 20.3967 4.94687C20.403 4.94483 20.3892 4.95074 20.3447 4.94888L20.3134 5.69823ZM20.8696 5.51888L21.3818 6.06674L21.5892 5.87283L21.077 5.32497L20.5648 4.77711L20.3574 4.97102L20.8696 5.51888ZM21.077 5.32497L21.5892 5.87283L21.7966 5.67892L21.2844 5.13106L20.7722 4.5832L20.5648 4.77711L21.077 5.32497ZM21.2844 5.13106L21.7966 5.67892C21.878 5.60286 21.9655 5.54409 22.0608 5.49978L21.7448 4.81961L21.4288 4.13945C21.1868 4.25186 20.9674 4.40071 20.7722 4.5832L21.2844 5.13106ZM21.7448 4.81961L22.0608 5.49978L22.3138 5.38224L21.9978 4.70208L21.6817 4.02191L21.4288 4.13945L21.7448 4.81961ZM21.9978 4.70208L22.3138 5.38224L22.5668 5.2647L22.2507 4.58454L21.9347 3.90437L21.6817 4.02191L21.9978 4.70208ZM22.2507 4.58454L22.5668 5.2647C22.7221 5.19251 22.8804 5.1245 23.0415 5.0607L22.7654 4.36337L22.4893 3.66603C22.3015 3.74041 22.1166 3.81985 21.9347 3.90437L22.2507 4.58454ZM22.7654 4.36337L23.0415 5.0607L23.3033 4.95707L23.0272 4.25973L22.7511 3.5624L22.4893 3.66603L22.7654 4.36337ZM23.0272 4.25973L23.3033 4.95707L23.565 4.85344L23.2889 4.1561L23.0129 3.45877L22.7511 3.5624L23.0272 4.25973ZM23.2889 4.1561L23.565 4.85344C23.7211 4.79164 23.8807 4.73562 24.0437 4.68541L23.823 3.96862L23.6023 3.25183C23.4023 3.31342 23.2058 3.38239 23.0129 3.45877L23.2889 4.1561ZM23.823 3.96862L24.0437 4.68541L24.316 4.60157L24.0953 3.88478L23.8746 3.16799L23.6023 3.25183L23.823 3.96862ZM24.0953 3.88478L24.316 4.60157L24.5883 4.51773L24.3676 3.80094L24.1469 3.08415L23.8746 3.16799L24.0953 3.88478ZM24.3676 3.80094L24.5883 4.51773C24.724 4.47595 24.8621 4.44752 25.0034 4.43234L24.9233 3.68663L24.8431 2.94093C24.6065 2.96635 24.3742 3.01414 24.1469 3.08415L24.3676 3.80094ZM24.9233 3.68663L25.0034 4.43234L25.2868 4.40188L25.2067 3.65617L25.1265 2.91047L24.8431 2.94093L24.9233 3.68663ZM25.2067 3.65617L25.2868 4.40188L25.5703 4.37142L25.4901 3.62571L25.41 2.88L25.1265 2.91047L25.2067 3.65617ZM25.4901 3.62571L25.5703 4.37142C25.6449 4.36339 25.692 4.36187 25.7171 4.36238C25.7291 4.36262 25.7304 4.36324 25.7235 4.36231C25.7174 4.3615 25.6945 4.35816 25.661 4.34726L25.8926 3.63394L26.1243 2.92061C25.8794 2.84108 25.6032 2.85923 25.41 2.88L25.4901 3.62571ZM25.8926 3.63394L25.661 4.34726L25.7801 4.38595L26.0118 3.67262L26.2434 2.9593L26.1243 2.92061L25.8926 3.63394ZM26.0118 3.67262L25.569 4.27797L25.7107 4.38167L26.1535 3.77632L26.5963 3.17098L26.4545 3.06728L26.0118 3.67262ZM26.1535 3.77632L26.3509 4.49987L26.4474 4.47355L26.25 3.75L26.0526 3.02645L25.9561 3.05277L26.1535 3.77632Z" fill="#8D997B"/>
<path d="M8.25 3.75C8.25 3.33579 7.91421 3 7.5 3C7.08579 3 6.75 3.33579 6.75 3.75L8.25 3.75ZM7.5 3.85L8.21549 4.07488L8.25 3.96509L8.25 3.85L7.5 3.85ZM7.33892 4.3625L6.62343 4.13762L7.33892 4.3625ZM7.23058 5.15625L6.49343 5.29447L7.23058 5.15625ZM7.60886 6.84375L6.88314 7.03304L7.60886 6.84375ZM7.34044 9.09375L6.65184 8.79654L7.34044 9.09375ZM7.31341 9.53125L7.95542 9.14353L7.31341 9.53125ZM7.50213 9.84375L6.86012 10.2315L7.50213 9.84375ZM7.54825 10L6.87276 10.3259L7.07737 10.75L7.54825 10.75L7.54825 10ZM7.5 9.9L8.17549 9.5741L6.75 9.9L7.5 9.9ZM6.75 10C6.75 10.4142 7.08579 10.75 7.5 10.75C7.91421 10.75 8.25 10.4142 8.25 10L6.75 10ZM8.25 13.75C8.25 13.3358 7.91421 13 7.5 13C7.08579 13 6.75 13.3358 6.75 13.75L8.25 13.75ZM7.5 13.85L8.24373 13.9468L8.25 13.8986L8.25 13.85L7.5 13.85ZM7.43332 14.3625L6.68959 14.2657L7.43332 14.3625ZM7.15808 15.7188L6.43 15.5388L7.15808 15.7188ZM7.14733 16.8438L6.39914 16.8959L7.14733 16.8438ZM7.19805 17.6875L6.4492 17.7289L7.19805 17.6875ZM7.25664 18.5313L6.51019 18.6041L7.25664 18.5313ZM7.3608 19.6563L6.61304 19.7142L7.3608 19.6563ZM7.3826 19.9375L6.63484 19.9954L7.3826 19.9375ZM7.38645 20.7813L6.64382 20.6763L7.38645 20.7813ZM7.30698 21.3438L8.04961 21.4487L7.30698 21.3438ZM7.33137 21.9063L6.60014 22.073L7.33137 21.9063ZM7.45963 22.4688L8.19086 22.302L7.45963 22.4688ZM7.46451 23.0313L6.73062 22.8767L7.46451 23.0313ZM7.40527 23.3125L8.13916 23.4671L7.40527 23.3125ZM7.34602 23.5938L6.61213 23.4392L7.34602 23.5938ZM7.42216 24.1563L6.74637 24.4815L7.42216 24.1563ZM7.69292 24.7187L8.36871 24.3935L7.69292 24.7187ZM7.73647 26.1562L7.46006 25.459L7.73647 26.1562ZM7.65765 26.1875L7.48408 26.9171L7.71419 26.9719L7.93406 26.8847L7.65765 26.1875ZM7.5 26.15L7.67356 25.4204L6.75 25.2007L6.75 26.15L7.5 26.15ZM6.75 26.25C6.75 26.6642 7.08579 27 7.5 27C7.91421 27 8.25 26.6642 8.25 26.25L6.75 26.25ZM7.5 3.75L6.75 3.75L6.75 3.85L7.5 3.85L8.25 3.85L8.25 3.75L7.5 3.75ZM7.5 3.85L6.78451 3.62512L6.62343 4.13762L7.33892 4.3625L8.05442 4.58738L8.21549 4.07488L7.5 3.85ZM7.33892 4.3625L6.62343 4.13762C6.50621 4.5106 6.42335 4.92072 6.49343 5.29447L7.23058 5.15625L7.96774 5.01803C7.9696 5.02794 7.96323 5.00054 7.97441 4.91862C7.9852 4.83955 8.00941 4.73058 8.05442 4.58738L7.33892 4.3625ZM7.23058 5.15625L6.49343 5.29447L6.54617 5.57572L7.28332 5.4375L8.02047 5.29928L7.96774 5.01803L7.23058 5.15625ZM7.28332 5.4375L6.54617 5.57572L6.5989 5.85697L7.33606 5.71875L8.07321 5.58053L8.02047 5.29928L7.28332 5.4375ZM7.33606 5.71875L6.5989 5.85697C6.63733 6.06189 6.68319 6.26642 6.73643 6.47054L7.46215 6.28125L8.18787 6.09197C8.1433 5.92108 8.1051 5.75061 8.07321 5.58053L7.33606 5.71875ZM7.46215 6.28125L6.73643 6.47054L6.80978 6.75179L7.53551 6.5625L8.26123 6.37322L8.18787 6.09197L7.46215 6.28125ZM7.53551 6.5625L6.80978 6.75179L6.88314 7.03304L7.60886 6.84375L8.33458 6.65447L8.26123 6.37322L7.53551 6.5625ZM7.60886 6.84375L6.88314 7.03304C6.91768 7.16546 6.93544 7.29447 6.93796 7.42117L7.68782 7.40625L8.43767 7.39133C8.43273 7.14303 8.39785 6.89704 8.33458 6.65447L7.60886 6.84375ZM7.68782 7.40625L6.93796 7.42117L6.94356 7.70242L7.69341 7.6875L8.44327 7.67258L8.43767 7.39133L7.68782 7.40625ZM7.69341 7.6875L6.94356 7.70242L6.94916 7.98367L7.69901 7.96875L8.44886 7.95383L8.44327 7.67258L7.69341 7.6875ZM7.69901 7.96875L6.94916 7.98367C6.95057 8.0547 6.93687 8.13615 6.89462 8.23404L7.58322 8.53125L8.27182 8.82846C8.39142 8.55135 8.45491 8.2578 8.44886 7.95383L7.69901 7.96875ZM7.58322 8.53125L6.89462 8.23404L6.77323 8.51529L7.46183 8.8125L8.15043 9.10971L8.27182 8.82846L7.58322 8.53125ZM7.46183 8.8125L6.77323 8.51529L6.65184 8.79654L7.34044 9.09375L8.02904 9.39096L8.15043 9.10971L7.46183 8.8125ZM7.34044 9.09375L6.65184 8.79654C6.53978 9.05617 6.41757 9.49866 6.6714 9.91897L7.31341 9.53125L7.95542 9.14353C8.01746 9.24626 8.02453 9.34189 8.02156 9.39C8.01906 9.43047 8.0103 9.43437 8.02904 9.39096L7.34044 9.09375ZM7.31341 9.53125L6.6714 9.91897L6.76576 10.0752L7.40777 9.6875L8.04978 9.29978L7.95542 9.14353L7.31341 9.53125ZM7.40777 9.6875L6.76576 10.0752L6.86012 10.2315L7.50213 9.84375L8.14414 9.45603L8.04978 9.29978L7.40777 9.6875ZM7.50213 9.84375L6.86012 10.2315C6.88931 10.2798 6.89085 10.2863 6.88281 10.2684C6.87978 10.2617 6.87288 10.2459 6.86516 10.2236C6.85887 10.2055 6.84334 10.1586 6.83435 10.0948C6.82886 10.0558 6.8034 9.87646 6.89957 9.67476C6.95601 9.55639 7.05244 9.43601 7.19663 9.35178C7.33578 9.2705 7.47281 9.25 7.57237 9.25L7.57237 10L7.57237 10.75C7.67394 10.75 7.81267 10.7291 7.95321 10.647C8.0988 10.562 8.19631 10.4404 8.25353 10.3204C8.35125 10.1154 8.32611 9.9312 8.31971 9.88571C8.3029 9.76631 8.26007 9.67375 8.25094 9.65344C8.21949 9.58348 8.17786 9.51187 8.14414 9.45603L7.50213 9.84375ZM7.57237 10L7.57237 9.25L7.54825 9.25L7.54825 10L7.54825 10.75L7.57237 10.75L7.57237 10ZM7.54825 10L8.22374 9.6741L8.17549 9.5741L7.5 9.9L6.82451 10.2259L6.87276 10.3259L7.54825 10ZM7.5 9.9L6.75 9.9L6.75 10L7.5 10L8.25 10L8.25 9.9L7.5 9.9ZM7.5 13.75L6.75 13.75L6.75 13.85L7.5 13.85L8.25 13.85L8.25 13.75L7.5 13.75ZM7.5 13.85L6.75627 13.7532L6.68959 14.2657L7.43332 14.3625L8.17705 14.4593L8.24373 13.9468L7.5 13.85ZM7.43332 14.3625L6.68959 14.2657C6.64644 14.5974 6.60532 14.8295 6.56904 14.9763L7.29712 15.1563L8.02521 15.3362C8.08162 15.108 8.13131 14.8109 8.17705 14.4593L7.43332 14.3625ZM7.29712 15.1563L6.56904 14.9763L6.49952 15.2575L7.2276 15.4375L7.95569 15.6175L8.02521 15.3362L7.29712 15.1563ZM7.2276 15.4375L6.49952 15.2575L6.43 15.5388L7.15808 15.7188L7.88617 15.8987L7.95569 15.6175L7.2276 15.4375ZM7.15808 15.7188L6.43 15.5388C6.36542 15.8 6.34133 16.0658 6.35996 16.3334L7.10815 16.2813L7.85634 16.2291C7.84886 16.1217 7.85804 16.0125 7.88617 15.8987L7.15808 15.7188ZM7.10815 16.2813L6.35996 16.3334L6.37955 16.6146L7.12774 16.5625L7.87593 16.5104L7.85634 16.2291L7.10815 16.2813ZM7.12774 16.5625L6.37955 16.6146L6.39914 16.8959L7.14733 16.8438L7.89552 16.7916L7.87593 16.5104L7.12774 16.5625ZM7.14733 16.8438L6.39914 16.8959C6.41196 17.0798 6.42345 17.2638 6.43363 17.4477L7.18249 17.4063L7.93134 17.3648C7.92077 17.1737 7.90883 16.9827 7.89552 16.7916L7.14733 16.8438ZM7.18249 17.4063L6.43363 17.4477L6.4492 17.7289L7.19805 17.6875L7.94691 17.6461L7.93134 17.3648L7.18249 17.4063ZM7.19805 17.6875L6.4492 17.7289L6.46476 18.0102L7.21362 17.9688L7.96247 17.9273L7.94691 17.6461L7.19805 17.6875ZM7.21362 17.9688L6.46476 18.0102C6.47572 18.2082 6.49086 18.4062 6.51019 18.6041L7.25664 18.5313L8.00309 18.4584C7.9858 18.2813 7.97226 18.1043 7.96247 17.9273L7.21362 17.9688ZM7.25664 18.5313L6.51019 18.6041L6.53764 18.8854L7.28409 18.8125L8.03055 18.7396L8.00309 18.4584L7.25664 18.5313ZM7.28409 18.8125L6.53764 18.8854L6.5651 19.1666L7.31155 19.0938L8.058 19.0209L8.03055 18.7396L7.28409 18.8125ZM7.31155 19.0938L6.5651 19.1666C6.58292 19.3492 6.5989 19.5317 6.61304 19.7142L7.3608 19.6563L8.10856 19.5983C8.09365 19.4058 8.07679 19.2133 8.058 19.0209L7.31155 19.0938ZM7.3608 19.6563L6.61304 19.7142L6.63484 19.9954L7.3826 19.9375L8.13035 19.8796L8.10856 19.5983L7.3608 19.6563ZM7.3826 19.9375L6.63484 19.9954L6.65663 20.2767L7.40439 20.2188L8.15215 20.1608L8.13035 19.8796L7.3826 19.9375ZM7.40439 20.2188L6.65663 20.2767C6.66692 20.4095 6.66275 20.5424 6.64382 20.6763L7.38645 20.7813L8.12907 20.8862C8.16313 20.6451 8.17091 20.403 8.15215 20.1608L7.40439 20.2188ZM7.38645 20.7813L6.64382 20.6763L6.60409 20.9576L7.34671 21.0625L8.08934 21.1674L8.12907 20.8862L7.38645 20.7813ZM7.34671 21.0625L6.60409 20.9576L6.56435 21.2388L7.30698 21.3438L8.04961 21.4487L8.08934 21.1674L7.34671 21.0625ZM7.30698 21.3438L6.56435 21.2388C6.52488 21.5182 6.5374 21.7978 6.60014 22.073L7.33137 21.9063L8.06261 21.7395C8.03985 21.6397 8.0361 21.5443 8.04961 21.4487L7.30698 21.3438ZM7.33137 21.9063L6.60014 22.073L6.66427 22.3542L7.3955 22.1875L8.12674 22.0208L8.06261 21.7395L7.33137 21.9063ZM7.3955 22.1875L6.66427 22.3542L6.7284 22.6355L7.45963 22.4688L8.19086 22.302L8.12674 22.0208L7.3955 22.1875ZM7.45963 22.4688L6.7284 22.6355C6.74715 22.7177 6.7477 22.7956 6.73062 22.8767L7.46451 23.0313L8.19841 23.1858C8.26033 22.8919 8.25762 22.5948 8.19086 22.302L7.45963 22.4688ZM7.46451 23.0313L6.73062 22.8767L6.67137 23.1579L7.40527 23.3125L8.13916 23.4671L8.19841 23.1858L7.46451 23.0313ZM7.40527 23.3125L6.67137 23.1579L6.61213 23.4392L7.34602 23.5938L8.07991 23.7483L8.13916 23.4671L7.40527 23.3125ZM7.34602 23.5938L6.61213 23.4392C6.53551 23.8029 6.59088 24.1585 6.74637 24.4815L7.42216 24.1563L8.09794 23.831C8.07293 23.779 8.07753 23.7596 8.07991 23.7483L7.34602 23.5938ZM7.42216 24.1563L6.74637 24.4815L6.88176 24.7628L7.55754 24.4375L8.23332 24.1122L8.09794 23.831L7.42216 24.1563ZM7.55754 24.4375L6.88176 24.7628L7.01714 25.044L7.69292 24.7187L8.36871 24.3935L8.23332 24.1122L7.55754 24.4375ZM7.69292 24.7187L7.01714 25.044C7.06284 25.139 7.07579 25.2128 7.0751 25.2726L7.82505 25.2812L8.575 25.2899C8.57865 24.9747 8.50351 24.6735 8.36871 24.3935L7.69292 24.7187ZM7.82505 25.2812L7.0751 25.2726L7.07185 25.5538L7.8218 25.5625L8.57175 25.5712L8.575 25.2899L7.82505 25.2812ZM7.8218 25.5625L7.07185 25.5538L7.0686 25.8351L7.81855 25.8437L8.5685 25.8524L8.57175 25.5712L7.8218 25.5625ZM7.81855 25.8437L7.0686 25.8351C7.06778 25.9055 7.06171 25.9073 7.071 25.872C7.07588 25.8534 7.0928 25.7937 7.13924 25.721C7.18773 25.6452 7.28718 25.5276 7.46006 25.459L7.73647 26.1562L8.01288 26.8535C8.39793 26.7008 8.49871 26.3409 8.5218 26.253C8.55845 26.1135 8.56714 25.9695 8.5685 25.8524L7.81855 25.8437ZM7.73647 26.1562L7.46006 25.459L7.38124 25.4903L7.65765 26.1875L7.93406 26.8847L8.01288 26.8535L7.73647 26.1562ZM7.65765 26.1875L7.83121 25.4579L7.67356 25.4204L7.5 26.15L7.32644 26.8796L7.48408 26.9171L7.65765 26.1875ZM7.5 26.15L6.75 26.15L6.75 26.25L7.5 26.25L8.25 26.25L8.25 26.15L7.5 26.15Z" fill="#8D997B"/>
<path d="M4.375 9.25C3.96079 9.25 3.625 9.58579 3.625 10C3.625 10.4142 3.96079 10.75 4.375 10.75V9.25ZM4.475 10L4.69988 9.28451L4.59009 9.25H4.475V10ZM9.15625 9.91678L8.85904 10.6054L9.15625 9.91678ZM10.1562 10.1866L9.76853 9.54458L10.1562 10.1866ZM10.4688 9.99787L10.8565 10.6399L10.4688 9.99787ZM10.625 9.95175L10.9509 10.6272L11.375 10.4226V9.95175H10.625ZM10.525 10L10.1991 9.32451L10.525 10.75V10ZM10.625 10.75C11.0392 10.75 11.375 10.4142 11.375 10C11.375 9.58579 11.0392 9.25 10.625 9.25V10.75ZM4.375 10V10.75H4.475V10V9.25H4.375V10ZM4.475 10L4.25012 10.7155L4.76262 10.8766L4.9875 10.1611L5.21238 9.44558L4.69988 9.28451L4.475 10ZM4.9875 10.1611L4.76262 10.8766C5.1356 10.9938 5.54572 11.0766 5.91947 11.0066L5.78125 10.2694L5.64303 9.53226C5.65294 9.5304 5.62554 9.53677 5.54362 9.52559C5.46455 9.5148 5.35558 9.49059 5.21238 9.44558L4.9875 10.1611ZM5.78125 10.2694L5.91947 11.0066L6.20072 10.9538L6.0625 10.2167L5.92428 9.47953L5.64303 9.53226L5.78125 10.2694ZM6.0625 10.2167L6.20072 10.9538L6.48197 10.9011L6.34375 10.1639L6.20553 9.42679L5.92428 9.47953L6.0625 10.2167ZM6.34375 10.1639L6.48197 10.9011C6.68689 10.8627 6.89142 10.8168 7.09554 10.7636L6.90625 10.0379L6.71697 9.31213C6.54608 9.3567 6.37561 9.3949 6.20553 9.42679L6.34375 10.1639ZM6.90625 10.0379L7.09554 10.7636L7.37679 10.6902L7.1875 9.96449L6.99822 9.23877L6.71697 9.31213L6.90625 10.0379ZM7.1875 9.96449L7.37679 10.6902L7.65804 10.6169L7.46875 9.89114L7.27947 9.16542L6.99822 9.23877L7.1875 9.96449ZM7.46875 9.89114L7.65804 10.6169C7.79046 10.5823 7.91947 10.5646 8.04617 10.562L8.03125 9.81218L8.01633 9.06233C7.76803 9.06727 7.52204 9.10215 7.27947 9.16542L7.46875 9.89114ZM8.03125 9.81218L8.04617 10.562L8.32742 10.5564L8.3125 9.80659L8.29758 9.05673L8.01633 9.06233L8.03125 9.81218ZM8.3125 9.80659L8.32742 10.5564L8.60867 10.5508L8.59375 9.80099L8.57883 9.05114L8.29758 9.05673L8.3125 9.80659ZM8.59375 9.80099L8.60867 10.5508C8.6797 10.5494 8.76115 10.5631 8.85904 10.6054L9.15625 9.91678L9.45346 9.22818C9.17635 9.10858 8.8828 9.04509 8.57883 9.05114L8.59375 9.80099ZM9.15625 9.91678L8.85904 10.6054L9.14029 10.7268L9.4375 10.0382L9.73471 9.34957L9.45346 9.22818L9.15625 9.91678ZM9.4375 10.0382L9.14029 10.7268L9.42154 10.8482L9.71875 10.1596L10.016 9.47096L9.73471 9.34957L9.4375 10.0382ZM9.71875 10.1596L9.42154 10.8482C9.68117 10.9602 10.1237 11.0824 10.544 10.8286L10.1562 10.1866L9.76853 9.54458C9.87126 9.48254 9.96689 9.47547 10.015 9.47844C10.0555 9.48094 10.0594 9.4897 10.016 9.47096L9.71875 10.1596ZM10.1562 10.1866L10.544 10.8286L10.7002 10.7342L10.3125 10.0922L9.92478 9.45022L9.76853 9.54458L10.1562 10.1866ZM10.3125 10.0922L10.7002 10.7342L10.8565 10.6399L10.4688 9.99787L10.081 9.35586L9.92478 9.45022L10.3125 10.0922ZM10.4688 9.99787L10.8565 10.6399C10.9048 10.6107 10.9113 10.6092 10.8934 10.6172C10.8867 10.6202 10.8709 10.6271 10.8486 10.6348C10.8305 10.6411 10.7836 10.6567 10.7198 10.6657C10.6808 10.6711 10.5015 10.6966 10.2998 10.6004C10.1814 10.544 10.061 10.4476 9.97678 10.3034C9.8955 10.1642 9.875 10.0272 9.875 9.92763H10.625H11.375C11.375 9.82606 11.3541 9.68733 11.272 9.54679C11.187 9.4012 11.0654 9.30369 10.9454 9.24647C10.7404 9.14875 10.5562 9.17389 10.5107 9.18029C10.3913 9.1971 10.2987 9.23993 10.2784 9.24906C10.2085 9.28051 10.1369 9.32214 10.081 9.35586L10.4688 9.99787ZM10.625 9.92763H9.875V9.95175H10.625H11.375V9.92763H10.625ZM10.625 9.95175L10.2991 9.27626L10.1991 9.32451L10.525 10L10.8509 10.6755L10.9509 10.6272L10.625 9.95175ZM10.525 10V10.75H10.625V10V9.25H10.525V10Z" fill="#8D997B"/>
<path d="M12 3.75276C12.0015 3.33855 11.667 3.00153 11.2528 3.00001C10.8386 2.99848 10.5015 3.33303 10.5 3.74724L12 3.75276ZM11.2496 3.85L11.9652 4.07464L11.9992 3.96631L11.9996 3.85276L11.2496 3.85ZM11.0887 4.3625L11.8043 4.58714L11.0887 4.3625ZM11.2121 6.28125L10.4864 6.47053L11.2121 6.28125ZM11.2855 6.5625L10.5598 6.75178L11.2855 6.5625ZM11.3589 6.84375L12.0846 6.65446L11.3589 6.84375ZM11.4378 7.40625L10.688 7.42117L11.4378 7.40625ZM11.3326 8.53038L12.0204 8.82957L11.3326 8.53038ZM11.2107 8.81075L11.8984 9.10995L11.2107 8.81075ZM11.0887 9.09113L10.4009 8.79194L11.0887 9.09113ZM11.0291 9.65736L10.2963 9.8172L11.0291 9.65736ZM11.1538 10.229L11.8865 10.0692L11.1538 10.229ZM11.1388 10.7916L10.4165 10.5898L11.1388 10.7916ZM10.9842 11.345L11.7065 11.5468L10.9842 11.345ZM10.7453 11.8623L10.1228 11.444L10.7453 11.8623ZM10.5836 12.1028L11.2061 12.5211L10.5836 12.1028ZM10.422 12.3434L11.0445 12.7617L10.422 12.3434ZM10.0674 12.8156L9.49102 12.3358L10.0674 12.8156ZM9.8745 13.0474L10.4509 13.5272L9.8745 13.0474ZM9.18859 13.5541L9.29545 14.2964L9.18859 13.5541ZM8.5885 13.6404L8.69536 14.3828L8.5885 13.6404ZM8.00807 13.6916L8.02935 14.4413L8.00807 13.6916ZM7.72769 13.6995L7.70642 12.9498L7.72769 13.6995ZM7.44731 13.7075L7.42604 12.9578L7.44731 13.7075ZM6.91602 13.603L7.2227 12.9186L6.91602 13.603ZM6.41421 13.3782L6.10753 14.0626L6.41421 13.3782ZM5.91455 13.1511L5.60066 13.8323L5.91455 13.1511ZM5.41707 12.9219L5.73096 12.2407L5.41707 12.9219ZM4.90962 12.6414L5.31444 12.01L4.90962 12.6414ZM4.65091 12.4755L5.05574 11.8441L4.65091 12.4755ZM4.39221 12.3096L3.98738 12.941L4.39221 12.3096ZM4.03002 11.8619L4.73405 11.6034L4.03002 11.8619ZM3.82305 11.2983L3.11902 11.5568L3.82305 11.2983ZM3.57378 10.1451L2.83406 10.2688L3.57378 10.1451ZM3.57509 8.99197L2.82634 8.94865L3.57509 8.99197ZM3.80621 7.01692L3.14745 6.65841L3.80621 7.01692ZM3.95928 6.73567L3.30051 6.37716L3.95928 6.73567ZM3.9169 5.61067L3.18625 5.77991L3.9169 5.61067ZM3.50495 4.48567L2.81127 4.7708L3.50495 4.48567ZM3.56968 3.97721L3.13793 3.36395L3.04946 3.42623L2.98221 3.51097L3.56968 3.97721ZM3.75037 3.85L4.18212 4.46326L4.50181 4.2382L4.50036 3.84724L3.75037 3.85ZM4.5 3.74724C4.49847 3.33303 4.16145 2.99848 3.74724 3.00001C3.33303 3.00153 2.99848 3.33856 3.00001 3.75277L4.5 3.74724ZM11.25 3.75L10.5 3.74724L10.4996 3.84724L11.2496 3.85L11.9996 3.85276L12 3.75276L11.25 3.75ZM11.2496 3.85L10.5341 3.62536L10.3732 4.13786L11.0887 4.3625L11.8043 4.58714L11.9652 4.07464L11.2496 3.85ZM11.0887 4.3625L10.3732 4.13786C10.2561 4.51084 10.1734 4.92086 10.2434 5.29447L10.9806 5.15625L11.7177 5.01803C11.7196 5.02786 11.7132 5.0004 11.7244 4.91845C11.7352 4.83934 11.7593 4.73035 11.8043 4.58714L11.0887 4.3625ZM10.9806 5.15625L10.2434 5.29447L10.2962 5.57572L11.0333 5.4375L11.7705 5.29928L11.7177 5.01803L10.9806 5.15625ZM11.0333 5.4375L10.2962 5.57572L10.3489 5.85697L11.0861 5.71875L11.8232 5.58053L11.7705 5.29928L11.0333 5.4375ZM11.0861 5.71875L10.3489 5.85697C10.3873 6.06189 10.4332 6.26642 10.4864 6.47053L11.2121 6.28125L11.9379 6.09196C11.8933 5.92108 11.8551 5.75061 11.8232 5.58053L11.0861 5.71875ZM11.2121 6.28125L10.4864 6.47053L10.5598 6.75178L11.2855 6.5625L12.0112 6.37321L11.9379 6.09196L11.2121 6.28125ZM11.2855 6.5625L10.5598 6.75178L10.6331 7.03303L11.3589 6.84375L12.0846 6.65446L12.0112 6.37321L11.2855 6.5625ZM11.3589 6.84375L10.6331 7.03303C10.6677 7.16546 10.6854 7.29447 10.688 7.42117L11.4378 7.40625L12.1877 7.39133C12.1827 7.14303 12.1479 6.89704 12.0846 6.65446L11.3589 6.84375ZM11.4378 7.40625L10.688 7.42117L10.6936 7.70242L11.4434 7.6875L12.1933 7.67258L12.1877 7.39133L11.4378 7.40625ZM11.4434 7.6875L10.6936 7.70242L10.6992 7.98367L11.449 7.96875L12.1989 7.95383L12.1933 7.67258L11.4434 7.6875ZM11.449 7.96875L10.6992 7.98367C10.7006 8.0541 10.6869 8.13456 10.6449 8.23118L11.3326 8.53038L12.0204 8.82957C12.141 8.55236 12.2049 8.2584 12.1989 7.95383L11.449 7.96875ZM11.3326 8.53038L10.6449 8.23118L10.5229 8.51156L11.2107 8.81075L11.8984 9.10995L12.0204 8.82957L11.3326 8.53038ZM11.2107 8.81075L10.5229 8.51156L10.4009 8.79194L11.0887 9.09113L11.7764 9.39033L11.8984 9.10995L11.2107 8.81075ZM11.0887 9.09113L10.4009 8.79194C10.2598 9.1164 10.2196 9.46545 10.2963 9.8172L11.0291 9.65736L11.7618 9.49752C11.7554 9.46813 11.7549 9.4397 11.7764 9.39033L11.0887 9.09113ZM11.0291 9.65736L10.2963 9.8172L10.3586 10.103L11.0914 9.9432L11.8242 9.78336L11.7618 9.49752L11.0291 9.65736ZM11.0914 9.9432L10.3586 10.103L10.421 10.3889L11.1538 10.229L11.8865 10.0692L11.8242 9.78336L11.0914 9.9432ZM11.1538 10.229L10.421 10.3889C10.437 10.4621 10.4344 10.5255 10.4165 10.5898L11.1388 10.7916L11.8612 10.9934C11.9462 10.6888 11.9537 10.3771 11.8865 10.0692L11.1538 10.229ZM11.1388 10.7916L10.4165 10.5898L10.3392 10.8665L11.0615 11.0683L11.7838 11.2701L11.8612 10.9934L11.1388 10.7916ZM11.0615 11.0683L10.3392 10.8665L10.2619 11.1432L10.9842 11.345L11.7065 11.5468L11.7838 11.2701L11.0615 11.0683ZM10.9842 11.345L10.2619 11.1432C10.232 11.25 10.1863 11.3494 10.1228 11.444L10.7453 11.8623L11.3678 12.2806C11.5197 12.0544 11.6333 11.809 11.7065 11.5468L10.9842 11.345ZM10.7453 11.8623L10.1228 11.444L9.96112 11.6845L10.5836 12.1028L11.2061 12.5211L11.3678 12.2806L10.7453 11.8623ZM10.5836 12.1028L9.96112 11.6845L9.79948 11.925L10.422 12.3434L11.0445 12.7617L11.2061 12.5211L10.5836 12.1028ZM10.422 12.3434L9.79948 11.925C9.70659 12.0633 9.60389 12.2002 9.49102 12.3358L10.0674 12.8156L10.6438 13.2955C10.7882 13.1221 10.9219 12.9442 11.0445 12.7617L10.422 12.3434ZM10.0674 12.8156L9.49102 12.3358L9.2981 12.5675L9.8745 13.0474L10.4509 13.5272L10.6438 13.2955L10.0674 12.8156ZM9.8745 13.0474L9.2981 12.5675L9.10517 12.7993L9.68157 13.2791L10.258 13.759L10.4509 13.5272L9.8745 13.0474ZM9.68157 13.2791L9.10517 12.7993C9.10003 12.8054 9.09684 12.8082 9.09594 12.809C9.09511 12.8097 9.09542 12.8093 9.09656 12.8087C9.09769 12.8081 9.09796 12.8081 9.09654 12.8086C9.09502 12.8091 9.09041 12.8105 9.08174 12.8117L9.18859 13.5541L9.29545 14.2964C9.67799 14.2413 10.01 14.0569 10.258 13.759L9.68157 13.2791ZM9.18859 13.5541L9.08174 12.8117L8.78169 12.8549L8.88855 13.5972L8.9954 14.3396L9.29545 14.2964L9.18859 13.5541ZM8.88855 13.5972L8.78169 12.8549L8.48165 12.8981L8.5885 13.6404L8.69536 14.3828L8.9954 14.3396L8.88855 13.5972ZM8.5885 13.6404L8.48165 12.8981C8.30773 12.9231 8.14289 12.9374 7.9868 12.9419L8.00807 13.6916L8.02935 14.4413C8.2471 14.4351 8.46921 14.4153 8.69536 14.3828L8.5885 13.6404ZM8.00807 13.6916L7.9868 12.9419L7.70642 12.9498L7.72769 13.6995L7.74897 14.4492L8.02935 14.4413L8.00807 13.6916ZM7.72769 13.6995L7.70642 12.9498L7.42604 12.9578L7.44731 13.7075L7.46859 14.4572L7.74897 14.4492L7.72769 13.6995ZM7.44731 13.7075L7.42604 12.9578C7.3496 12.96 7.28483 12.9464 7.2227 12.9186L6.91602 13.603L6.60935 14.2875C6.88176 14.4095 7.17119 14.4656 7.46859 14.4572L7.44731 13.7075ZM6.91602 13.603L7.2227 12.9186L6.97179 12.8062L6.66512 13.4906L6.35844 14.175L6.60935 14.2875L6.91602 13.603ZM6.66512 13.4906L6.97179 12.8062L6.72088 12.6937L6.41421 13.3782L6.10753 14.0626L6.35844 14.175L6.66512 13.4906ZM6.41421 13.3782L6.72088 12.6937C6.55601 12.6199 6.39187 12.5453 6.22844 12.47L5.91455 13.1511L5.60066 13.8323C5.7689 13.9098 5.93786 13.9866 6.10753 14.0626L6.41421 13.3782ZM5.91455 13.1511L6.22844 12.47L5.9797 12.3553L5.66581 13.0365L5.35192 13.7177L5.60066 13.8323L5.91455 13.1511ZM5.66581 13.0365L5.9797 12.3553L5.73096 12.2407L5.41707 12.9219L5.10318 13.603L5.35192 13.7177L5.66581 13.0365ZM5.41707 12.9219L5.73096 12.2407C5.60008 12.1804 5.46125 12.1041 5.31444 12.01L4.90962 12.6414L4.5048 13.2727C4.70293 13.3998 4.9024 13.5105 5.10318 13.603L5.41707 12.9219ZM4.90962 12.6414L5.31444 12.01L5.05574 11.8441L4.65091 12.4755L4.24609 13.1068L4.5048 13.2727L4.90962 12.6414ZM4.65091 12.4755L5.05574 11.8441L4.79703 11.6782L4.39221 12.3096L3.98738 12.941L4.24609 13.1068L4.65091 12.4755ZM4.39221 12.3096L4.79703 11.6782C4.75878 11.6537 4.74522 11.6338 4.73405 11.6034L4.03002 11.8619L3.32598 12.1204C3.45279 12.4658 3.68069 12.7443 3.98738 12.941L4.39221 12.3096ZM4.03002 11.8619L4.73405 11.6034L4.63057 11.3216L3.92654 11.5801L3.2225 11.8386L3.32598 12.1204L4.03002 11.8619ZM3.92654 11.5801L4.63057 11.3216L4.52709 11.0398L3.82305 11.2983L3.11902 11.5568L3.2225 11.8386L3.92654 11.5801ZM3.82305 11.2983L4.52709 11.0398C4.47384 10.8947 4.43526 10.7491 4.41069 10.6022L3.67098 10.726L2.93126 10.8497C2.97149 11.0902 3.03429 11.326 3.11902 11.5568L3.82305 11.2983ZM3.67098 10.726L4.41069 10.6022L4.3621 10.3118L3.62238 10.4355L2.88266 10.5593L2.93126 10.8497L3.67098 10.726ZM3.62238 10.4355L4.3621 10.3118L4.3135 10.0213L3.57378 10.1451L2.83406 10.2688L2.88266 10.5593L3.62238 10.4355ZM3.57378 10.1451L4.3135 10.0213C4.29013 9.88159 4.28278 9.74496 4.29057 9.61037L3.54182 9.56705L2.79307 9.52373C2.77868 9.77253 2.79264 10.0212 2.83406 10.2688L3.57378 10.1451ZM3.54182 9.56705L4.29057 9.61037L4.3072 9.32283L3.55846 9.27951L2.80971 9.23619L2.79307 9.52373L3.54182 9.56705ZM3.55846 9.27951L4.3072 9.32283L4.32384 9.03528L3.57509 8.99197L2.82634 8.94865L2.80971 9.23619L3.55846 9.27951ZM3.57509 8.99197L4.32384 9.03528C4.3369 8.80958 4.3345 8.58516 4.31634 8.36228L3.56882 8.42317L2.82129 8.48406C2.83368 8.63619 2.83547 8.79096 2.82634 8.94865L3.57509 8.99197ZM3.56882 8.42317L4.31634 8.36228L4.29343 8.08103L3.54591 8.14192L2.79838 8.20281L2.82129 8.48406L3.56882 8.42317ZM3.54591 8.14192L4.29343 8.08103L4.27052 7.79978L3.523 7.86067L2.77547 7.92156L2.79838 8.20281L3.54591 8.14192ZM3.523 7.86067L4.27052 7.79978C4.26864 7.7767 4.26995 7.73379 4.31191 7.65669L3.65315 7.29817L2.99439 6.93966C2.83227 7.23755 2.74681 7.56965 2.77547 7.92156L3.523 7.86067ZM3.65315 7.29817L4.31191 7.65669L4.46498 7.37544L3.80621 7.01692L3.14745 6.65841L2.99439 6.93966L3.65315 7.29817ZM3.80621 7.01692L4.46498 7.37544L4.61804 7.09419L3.95928 6.73567L3.30051 6.37716L3.14745 6.65841L3.80621 7.01692ZM3.95928 6.73567L4.61804 7.09419C4.7975 6.76443 4.86731 6.39017 4.77785 6.00393L4.04719 6.17317L3.31654 6.34241C3.31695 6.34418 3.31673 6.34385 3.31666 6.34203C3.31663 6.34123 3.31664 6.34042 3.31668 6.3397C3.31673 6.33898 3.31679 6.33859 3.31678 6.33861C3.31678 6.33863 3.31668 6.33927 3.31635 6.34059C3.31601 6.34192 3.3154 6.34408 3.31433 6.34712C3.31221 6.35317 3.30813 6.36316 3.30051 6.37716L3.95928 6.73567ZM4.04719 6.17317L4.77785 6.00393L4.7127 5.72268L3.98205 5.89192L3.25139 6.06116L3.31654 6.34241L4.04719 6.17317ZM3.98205 5.89192L4.7127 5.72268L4.64756 5.44143L3.9169 5.61067L3.18625 5.77991L3.25139 6.06116L3.98205 5.89192ZM3.9169 5.61067L4.64756 5.44143C4.59449 5.21233 4.52154 4.98613 4.42985 4.76305L3.73616 5.04817L3.04247 5.3333C3.10491 5.48522 3.15245 5.63402 3.18625 5.77991L3.9169 5.61067ZM3.73616 5.04817L4.42985 4.76305L4.31424 4.4818L3.62056 4.76692L2.92687 5.05205L3.04247 5.3333L3.73616 5.04817ZM3.62056 4.76692L4.31424 4.4818L4.19864 4.20055L3.50495 4.48567L2.81127 4.7708L2.92687 5.05205L3.62056 4.76692ZM3.50495 4.48567L4.19864 4.20055C4.17632 4.14624 4.18621 4.15108 4.18924 4.19811C4.19256 4.24964 4.1889 4.40345 4.06698 4.55706L3.47951 4.09082L2.89205 3.62458C2.71003 3.85392 2.68055 4.11141 2.69235 4.29455C2.70386 4.47321 2.75652 4.6376 2.81127 4.7708L3.50495 4.48567ZM3.47951 4.09082L4.06698 4.55706L4.15715 4.44345L3.56968 3.97721L2.98221 3.51097L2.89205 3.62458L3.47951 4.09082ZM3.56968 3.97721L4.00143 4.59047L4.18212 4.46326L3.75037 3.85L3.31862 3.23674L3.13793 3.36395L3.56968 3.97721ZM3.75037 3.85L4.50036 3.84724L4.5 3.74724L3.75 3.75L3.00001 3.75277L3.00037 3.85277L3.75037 3.85Z" fill="#8D997B"/>
</svg>
