<svg width="30" height="30" viewBox="0 0 30 30" fill="none" xmlns="http://www.w3.org/2000/svg">
<path d="M10.5821 12.3065C10.4752 11.9063 10.0641 11.6685 9.66395 11.7754C9.26376 11.8823 9.02599 12.2933 9.13287 12.6935L10.5821 12.3065ZM9.88327 12.5966L10.6223 12.4688L10.6166 12.4356L10.6079 12.4031L9.88327 12.5966ZM9.9743 13.1231L10.7133 12.9953L9.9743 13.1231ZM10.2287 13.881L9.61602 14.3136L10.2287 13.881ZM10.5555 14.3439L11.1682 13.9113L10.5555 14.3439ZM10.8823 14.817L11.5036 14.397L10.8823 14.817ZM11.2092 15.3005L10.5879 15.7206L11.2092 15.3005ZM11.4345 15.8248L10.7018 15.9852L11.4345 15.8248ZM11.4964 16.1072L12.229 15.9468L11.4964 16.1072ZM11.5582 16.3897L10.8256 16.5502L11.5582 16.3897ZM11.5017 16.952L12.1925 17.2442L11.5017 16.952ZM11.265 17.5117L10.5743 17.2195L11.265 17.5117ZM11.2351 18.657L11.9812 18.5808L11.2351 18.657ZM11.1355 19.2036L11.8062 19.5392L11.1355 19.2036ZM10.5488 20.1852L10.0081 19.6655L10.5488 20.1852ZM10.1504 20.5997L9.60968 20.08L10.1504 20.5997ZM9.75591 21.0249L9.19729 20.5245L9.75591 21.0249ZM9.36543 21.4608L9.92405 21.9613L9.36543 21.4608ZM8.88888 21.7666L9.11235 22.4825L8.88888 21.7666ZM8.32628 21.9422L8.10281 21.2263L8.32628 21.9422ZM7.28895 22.4064L7.62323 23.0778L7.28895 22.4064ZM6.76624 22.6206L6.99991 23.3333L6.76624 22.6206ZM6.22485 22.7982L5.99118 22.0855L6.22485 22.7982ZM5.72434 23.0557L5.28036 22.4512L5.72434 23.0557ZM5.26473 23.3933L5.70872 23.9978L5.26473 23.3933ZM4.88593 23.7917L5.5151 24.2L4.88593 23.7917ZM4.58793 24.2511L5.21711 24.6593L4.58793 24.2511ZM4.33913 24.691L3.66156 24.3694L4.33913 24.691ZM4.13954 25.1116L3.46197 24.79L4.13954 25.1116ZM4.07443 25.5631L3.33207 25.6699L4.07443 25.5631ZM4.61277 26.8929L4.00317 27.3298L4.61277 26.8929ZM5.00577 27.1336L4.88995 27.8746L5.00577 27.1336ZM5.50225 27.2112L5.61806 26.4702L5.50225 27.2112ZM6.035 27.3982L6.38137 26.7329L6.035 27.3982ZM6.31951 27.5463L5.97314 28.2115L6.31951 27.5463ZM6.60403 27.6944L6.9504 27.0292L6.60403 27.6944ZM7.16823 27.7607L6.95755 27.0409L7.16823 27.7607ZM7.44792 27.6789L7.6586 28.3987L7.44792 27.6789ZM8.27046 27.3674L7.90328 26.7134L8.27046 27.3674ZM8.79678 27.0719L9.16396 27.7258L8.79678 27.0719ZM9.35774 26.9923L9.19043 27.7234L9.35774 26.9923ZM9.95335 27.1286L10.1207 26.3975L9.95335 27.1286ZM10.5025 27.0543L10.1329 26.4018L10.5025 27.0543ZM11.0053 26.7695L11.375 27.4221L11.0053 26.7695ZM11.5382 26.5752L11.6743 27.3127L11.5382 26.5752ZM12.1013 26.4713L11.9652 25.7337L12.1013 26.4713ZM12.5598 26.1648L13.1756 26.5929L12.5598 26.1648ZM12.7367 25.9103L13.3525 26.3384L12.7367 25.9103ZM12.9136 25.6558L12.2978 25.2277L12.9136 25.6558ZM13.4386 25.4303L13.5009 24.6829L13.4386 25.4303ZM14.1348 25.4883L14.1971 24.7408L14.1348 25.4883ZM14.6842 25.3078L14.1435 24.788L14.6842 25.3078ZM15.0869 24.8888L14.5462 24.3691L15.0869 24.8888ZM15.5215 24.5218L15.9414 25.1432L15.5215 24.5218ZM15.988 24.2066L16.4079 24.828L15.988 24.2066ZM16.4612 23.9055L16.846 24.5493L16.4612 23.9055ZM16.9413 23.6186L17.3261 24.2624L16.9413 23.6186ZM17.4704 23.4674L17.4905 24.2171L17.4704 23.4674ZM18.0487 23.4519L18.0287 22.7022L18.0487 23.4519ZM18.4409 23.5206L17.994 24.1229L18.4409 23.5206ZM18.5439 23.5971L19.1873 23.2117L19.1107 23.0837L18.9909 22.9948L18.5439 23.5971ZM18.656 23.7842L18.0126 24.1696L18.3309 24.7009L18.9127 24.4889L18.656 23.7842ZM19.0067 24.4547C19.3959 24.3129 19.5965 23.8825 19.4547 23.4933C19.3129 23.1041 18.8825 22.9035 18.4933 23.0453L19.0067 24.4547ZM9.85747 12.5L9.13287 12.6935L9.15867 12.7901L9.88327 12.5966L10.6079 12.4031L10.5821 12.3065L9.85747 12.5ZM9.88327 12.5966L9.14424 12.7244L9.23526 13.2509L9.9743 13.1231L10.7133 12.9953L10.6223 12.4688L9.88327 12.5966ZM9.9743 13.1231L9.23526 13.2509C9.30101 13.6311 9.40831 14.0194 9.61602 14.3136L10.2287 13.881L10.8414 13.4485C10.8423 13.4497 10.8224 13.4204 10.7944 13.3372C10.7674 13.2568 10.7392 13.1449 10.7133 12.9953L9.9743 13.1231ZM10.2287 13.881L9.61602 14.3136L9.77941 14.545L10.3921 14.1124L11.0048 13.6799L10.8414 13.4485L10.2287 13.881ZM10.3921 14.1124L9.77941 14.545L9.94279 14.7764L10.5555 14.3439L11.1682 13.9113L11.0048 13.6799L10.3921 14.1124ZM10.5555 14.3439L9.94279 14.7764C10.0487 14.9264 10.1548 15.08 10.261 15.2371L10.8823 14.817L11.5036 14.397C11.3919 14.2317 11.2801 14.0698 11.1682 13.9113L10.5555 14.3439ZM10.8823 14.817L10.261 15.2371L10.4244 15.4788L11.0457 15.0588L11.6671 14.6387L11.5036 14.397L10.8823 14.817ZM11.0457 15.0588L10.4244 15.4788L10.5879 15.7206L11.2092 15.3005L11.8305 14.8804L11.6671 14.6387L11.0457 15.0588ZM11.2092 15.3005L10.5879 15.7206C10.6441 15.8038 10.6811 15.8905 10.7018 15.9852L11.4345 15.8248L12.1671 15.6643C12.1054 15.3823 11.9922 15.1196 11.8305 14.8804L11.2092 15.3005ZM11.4345 15.8248L10.7018 15.9852L10.7637 16.2677L11.4964 16.1072L12.229 15.9468L12.1671 15.6643L11.4345 15.8248ZM11.4964 16.1072L10.7637 16.2677L10.8256 16.5502L11.5582 16.3897L12.2909 16.2293L12.229 15.9468L11.4964 16.1072ZM11.5582 16.3897L10.8256 16.5502C10.8319 16.579 10.8327 16.6086 10.811 16.6599L11.5017 16.952L12.1925 17.2442C12.3286 16.9224 12.367 16.5771 12.2909 16.2293L11.5582 16.3897ZM11.5017 16.952L10.811 16.6599L10.6926 16.9397L11.3834 17.2319L12.0741 17.524L12.1925 17.2442L11.5017 16.952ZM11.3834 17.2319L10.6926 16.9397L10.5743 17.2195L11.265 17.5117L11.9558 17.8038L12.0741 17.524L11.3834 17.2319ZM11.265 17.5117L10.5743 17.2195C10.4486 17.5165 10.3969 17.8323 10.43 18.1562L11.1761 18.08L11.9223 18.0037C11.916 17.943 11.9236 17.8799 11.9558 17.8038L11.265 17.5117ZM11.1761 18.08L10.43 18.1562L10.4595 18.4448L11.2056 18.3685L11.9517 18.2923L11.9223 18.0037L11.1761 18.08ZM11.2056 18.3685L10.4595 18.4448L10.489 18.7333L11.2351 18.657L11.9812 18.5808L11.9517 18.2923L11.2056 18.3685ZM11.2351 18.657L10.489 18.7333C10.4943 18.7847 10.4868 18.824 10.4647 18.8681L11.1355 19.2036L11.8062 19.5392C11.9563 19.2391 12.0153 18.914 11.9812 18.5808L11.2351 18.657ZM11.1355 19.2036L10.4647 18.8681L10.3356 19.1262L11.0063 19.4617L11.6771 19.7973L11.8062 19.5392L11.1355 19.2036ZM11.0063 19.4617L10.3356 19.1262L10.2065 19.3843L10.8772 19.7198L11.548 20.0554L11.6771 19.7973L11.0063 19.4617ZM10.8772 19.7198L10.2065 19.3843C10.1541 19.489 10.0884 19.582 10.0081 19.6655L10.5488 20.1852L11.0896 20.705C11.275 20.5121 11.4282 20.2948 11.548 20.0554L10.8772 19.7198ZM10.5488 20.1852L10.0081 19.6655L9.80892 19.8727L10.3496 20.3925L10.8903 20.9122L11.0896 20.705L10.5488 20.1852ZM10.3496 20.3925L9.80892 19.8727L9.60968 20.08L10.1504 20.5997L10.6911 21.1195L10.8903 20.9122L10.3496 20.3925ZM10.1504 20.5997L9.60968 20.08C9.47067 20.2246 9.3332 20.3728 9.19729 20.5245L9.75591 21.0249L10.3145 21.5254C10.4389 21.3865 10.5645 21.2512 10.6911 21.1195L10.1504 20.5997ZM9.75591 21.0249L9.19729 20.5245L9.00204 20.7425L9.56067 21.2429L10.1193 21.7433L10.3145 21.5254L9.75591 21.0249ZM9.56067 21.2429L9.00204 20.7425L8.8068 20.9604L9.36543 21.4608L9.92405 21.9613L10.1193 21.7433L9.56067 21.2429ZM9.36543 21.4608L8.8068 20.9604C8.76756 21.0042 8.72481 21.0321 8.66541 21.0507L8.88888 21.7666L9.11235 22.4825C9.42803 22.384 9.70297 22.2081 9.92405 21.9613L9.36543 21.4608ZM8.88888 21.7666L8.66541 21.0507L8.38411 21.1385L8.60758 21.8544L8.83105 22.5703L9.11235 22.4825L8.88888 21.7666ZM8.60758 21.8544L8.38411 21.1385L8.10281 21.2263L8.32628 21.9422L8.54975 22.6581L8.83105 22.5703L8.60758 21.8544ZM8.32628 21.9422L8.10281 21.2263C7.87898 21.2961 7.66401 21.3819 7.45869 21.4841L7.79297 22.1555L8.12725 22.8269C8.25794 22.7618 8.39851 22.7053 8.54975 22.6581L8.32628 21.9422ZM7.79297 22.1555L7.45869 21.4841L7.20668 21.6096L7.54096 22.2809L7.87524 22.9523L8.12725 22.8269L7.79297 22.1555ZM7.54096 22.2809L7.20668 21.6096L6.95467 21.735L7.28895 22.4064L7.62323 23.0778L7.87524 22.9523L7.54096 22.2809ZM7.28895 22.4064L6.95467 21.735C6.81955 21.8023 6.67896 21.86 6.53258 21.908L6.76624 22.6206L6.99991 23.3333C7.21445 23.263 7.42234 23.1778 7.62323 23.0778L7.28895 22.4064ZM6.76624 22.6206L6.53258 21.908L6.26188 21.9967L6.49554 22.7094L6.72921 23.4221L6.99991 23.3333L6.76624 22.6206ZM6.49554 22.7094L6.26188 21.9967L5.99118 22.0855L6.22485 22.7982L6.45851 23.5108L6.72921 23.4221L6.49554 22.7094ZM6.22485 22.7982L5.99118 22.0855C5.73526 22.1694 5.49744 22.2918 5.28036 22.4512L5.72434 23.0557L6.16833 23.6602C6.25765 23.5946 6.3535 23.5453 6.45851 23.5108L6.22485 22.7982ZM5.72434 23.0557L5.28036 22.4512L5.05055 22.62L5.49454 23.2245L5.93852 23.829L6.16833 23.6602L5.72434 23.0557ZM5.49454 23.2245L5.05055 22.62L4.82075 22.7888L5.26473 23.3933L5.70872 23.9978L5.93852 23.829L5.49454 23.2245ZM5.26473 23.3933L4.82075 22.7888C4.59754 22.9528 4.40748 23.1512 4.25675 23.3835L4.88593 23.7917L5.5151 24.2C5.56304 24.1261 5.62552 24.0589 5.70872 23.9978L5.26473 23.3933ZM4.88593 23.7917L4.25675 23.3835L4.10775 23.6132L4.73693 24.0214L5.36611 24.4296L5.5151 24.2L4.88593 23.7917ZM4.73693 24.0214L4.10775 23.6132L3.95875 23.8428L4.58793 24.2511L5.21711 24.6593L5.36611 24.4296L4.73693 24.0214ZM4.58793 24.2511L3.95875 23.8428C3.84444 24.019 3.74451 24.1947 3.66156 24.3694L4.33913 24.691L5.0167 25.0126C5.06682 24.9069 5.13275 24.7893 5.21711 24.6593L4.58793 24.2511ZM4.33913 24.691L3.66156 24.3694L3.56176 24.5797L4.23933 24.9013L4.9169 25.2228L5.0167 25.0126L4.33913 24.691ZM4.23933 24.9013L3.56176 24.5797L3.46197 24.79L4.13954 25.1116L4.8171 25.4331L4.9169 25.2228L4.23933 24.9013ZM4.13954 25.1116L3.46197 24.79C3.3291 25.07 3.28899 25.3703 3.33207 25.6699L4.07443 25.5631L4.8168 25.4564C4.81572 25.4489 4.8155 25.4439 4.81548 25.441C4.81547 25.4381 4.81566 25.4368 4.81568 25.4366C4.81571 25.4364 4.8157 25.4365 4.81571 25.4365C4.81573 25.4364 4.81604 25.4354 4.8171 25.4331L4.13954 25.1116ZM4.07443 25.5631L3.33207 25.6699L3.36676 25.9111L4.10912 25.8044L4.85149 25.6977L4.8168 25.4564L4.07443 25.5631ZM4.10912 25.8044L3.36676 25.9111L3.40145 26.1524L4.14382 26.0457L4.88618 25.9389L4.85149 25.6977L4.10912 25.8044ZM4.14382 26.0457L3.40145 26.1524C3.44205 26.4348 3.54848 26.6953 3.71367 26.9258L4.32327 26.4889L4.93286 26.052C4.90505 26.0132 4.89184 25.9783 4.88618 25.9389L4.14382 26.0457ZM4.32327 26.4889L3.71367 26.9258L3.85842 27.1278L4.46802 26.6909L5.07762 26.254L4.93286 26.052L4.32327 26.4889ZM4.46802 26.6909L3.85842 27.1278L4.00317 27.3298L4.61277 26.8929L5.22237 26.4559L5.07762 26.254L4.46802 26.6909ZM4.61277 26.8929L4.00317 27.3298C4.2183 27.6299 4.52824 27.8181 4.88995 27.8746L5.00577 27.1336L5.12158 26.3926C5.12773 26.3936 5.14895 26.3984 5.1752 26.4145C5.2016 26.4307 5.21689 26.4483 5.22237 26.4559L4.61277 26.8929ZM5.00577 27.1336L4.88995 27.8746L5.13819 27.9134L5.25401 27.1724L5.36982 26.4314L5.12158 26.3926L5.00577 27.1336ZM5.25401 27.1724L5.13819 27.9134L5.38643 27.9522L5.50225 27.2112L5.61806 26.4702L5.36982 26.4314L5.25401 27.1724ZM5.50225 27.2112L5.38643 27.9522C5.45274 27.9626 5.55219 27.9923 5.68863 28.0634L6.035 27.3982L6.38137 26.7329C6.13846 26.6065 5.88274 26.5116 5.61806 26.4702L5.50225 27.2112ZM6.035 27.3982L5.68863 28.0634L5.97314 28.2115L6.31951 27.5463L6.66589 26.8811L6.38137 26.7329L6.035 27.3982ZM6.31951 27.5463L5.97314 28.2115L6.25766 28.3597L6.60403 27.6944L6.9504 27.0292L6.66589 26.8811L6.31951 27.5463ZM6.60403 27.6944L6.25766 28.3597C6.60015 28.538 6.98722 28.5952 7.37891 28.4805L7.16823 27.7607L6.95755 27.0409C6.95694 27.0411 6.95906 27.0404 6.96328 27.0401C6.96756 27.0397 6.97167 27.0398 6.97484 27.0402C6.97791 27.0406 6.97798 27.0409 6.97452 27.0398C6.97093 27.0387 6.96293 27.0357 6.9504 27.0292L6.60403 27.6944ZM7.16823 27.7607L7.37891 28.4805L7.6586 28.3987L7.44792 27.6789L7.23724 26.9591L6.95755 27.0409L7.16823 27.7607ZM7.44792 27.6789L7.6586 28.3987L7.93829 28.3168L7.72761 27.597L7.51693 26.8772L7.23724 26.9591L7.44792 27.6789ZM7.72761 27.597L7.93829 28.3168C8.18115 28.2457 8.41446 28.1467 8.63765 28.0213L8.27046 27.3674L7.90328 26.7134C7.77558 26.7851 7.64699 26.8391 7.51693 26.8772L7.72761 27.597ZM8.27046 27.3674L8.63765 28.0213L8.90081 27.8736L8.53362 27.2196L8.16644 26.5656L7.90328 26.7134L8.27046 27.3674ZM8.53362 27.2196L8.90081 27.8736L9.16396 27.7258L8.79678 27.0719L8.4296 26.4179L8.16644 26.5656L8.53362 27.2196ZM8.79678 27.0719L9.16396 27.7258C9.17062 27.7221 9.17429 27.7208 9.17513 27.7205C9.17588 27.7202 9.17531 27.7205 9.17397 27.7206C9.17265 27.7208 9.17252 27.7207 9.17428 27.7208C9.17615 27.7209 9.18136 27.7213 9.19043 27.7234L9.35774 26.9923L9.52506 26.2612C9.14742 26.1747 8.76964 26.227 8.4296 26.4179L8.79678 27.0719ZM9.35774 26.9923L9.19043 27.7234L9.48823 27.7915L9.65555 27.0604L9.82286 26.3293L9.52506 26.2612L9.35774 26.9923ZM9.65555 27.0604L9.48823 27.7915L9.78604 27.8597L9.95335 27.1286L10.1207 26.3975L9.82286 26.3293L9.65555 27.0604ZM9.95335 27.1286L9.78604 27.8597C10.1556 27.9442 10.5317 27.8998 10.8722 27.7069L10.5025 27.0543L10.1329 26.4018C10.13 26.4034 10.1296 26.4033 10.1317 26.4026C10.1338 26.4018 10.1364 26.4012 10.1391 26.4008C10.1416 26.4005 10.1422 26.4007 10.1399 26.4006C10.1376 26.4005 10.1314 26.3999 10.1207 26.3975L9.95335 27.1286ZM10.5025 27.0543L10.8722 27.7069L11.1236 27.5645L10.7539 26.9119L10.3842 26.2593L10.1329 26.4018L10.5025 27.0543ZM10.7539 26.9119L11.1236 27.5645L11.375 27.4221L11.0053 26.7695L10.6356 26.1169L10.3842 26.2593L10.7539 26.9119ZM11.0053 26.7695L11.375 27.4221C11.4706 27.3679 11.5694 27.3321 11.6743 27.3127L11.5382 26.5752L11.4021 25.8376C11.1316 25.8875 10.8751 25.9813 10.6356 26.1169L11.0053 26.7695ZM11.5382 26.5752L11.6743 27.3127L11.9558 27.2608L11.8198 26.5232L11.6837 25.7857L11.4021 25.8376L11.5382 26.5752ZM11.8198 26.5232L11.9558 27.2608L12.2374 27.2088L12.1013 26.4713L11.9652 25.7337L11.6837 25.7857L11.8198 26.5232ZM12.1013 26.4713L12.2374 27.2088C12.6365 27.1352 12.955 26.9101 13.1756 26.5929L12.5598 26.1648L11.944 25.7367C11.9377 25.7457 11.9339 25.7496 11.9334 25.7501C11.933 25.7505 11.9351 25.7483 11.9399 25.7451C11.9447 25.7419 11.9503 25.7389 11.956 25.7367C11.9586 25.7356 11.9609 25.7349 11.9626 25.7344C11.9643 25.7339 11.9652 25.7337 11.9652 25.7337L12.1013 26.4713ZM12.5598 26.1648L13.1756 26.5929L13.3525 26.3384L12.7367 25.9103L12.1209 25.4822L11.944 25.7367L12.5598 26.1648ZM12.7367 25.9103L13.3525 26.3384L13.5294 26.0839L12.9136 25.6558L12.2978 25.2277L12.1209 25.4822L12.7367 25.9103ZM12.9136 25.6558L13.5294 26.0839C13.5239 26.0919 13.5125 26.1061 13.4938 26.1217C13.4747 26.1377 13.4526 26.1513 13.4294 26.1613C13.3816 26.1818 13.3558 26.176 13.3764 26.1777L13.4386 25.4303L13.5009 24.6829C13.0428 24.6447 12.5906 24.8066 12.2978 25.2277L12.9136 25.6558ZM13.4386 25.4303L13.3764 26.1777L13.7245 26.2067L13.7867 25.4593L13.849 24.7119L13.5009 24.6829L13.4386 25.4303ZM13.7867 25.4593L13.7245 26.2067L14.0726 26.2357L14.1348 25.4883L14.1971 24.7408L13.849 24.7119L13.7867 25.4593ZM14.1348 25.4883L14.0726 26.2357C14.4792 26.2695 14.9023 26.1632 15.2249 25.8275L14.6842 25.3078L14.1435 24.788C14.1507 24.7805 14.1612 24.7714 14.1748 24.7629C14.1883 24.7544 14.2014 24.7486 14.2121 24.7451C14.2337 24.738 14.2333 24.7439 14.1971 24.7408L14.1348 25.4883ZM14.6842 25.3078L15.2249 25.8275L15.4263 25.618L14.8856 25.0983L14.3448 24.5786L14.1435 24.788L14.6842 25.3078ZM14.8856 25.0983L15.4263 25.618L15.6276 25.4086L15.0869 24.8888L14.5462 24.3691L14.3448 24.5786L14.8856 25.0983ZM15.0869 24.8888L15.6276 25.4086C15.7264 25.3058 15.831 25.2178 15.9414 25.1432L15.5215 24.5218L15.1016 23.9003C14.901 24.0359 14.7158 24.1926 14.5462 24.3691L15.0869 24.8888ZM15.5215 24.5218L15.9414 25.1432L16.1746 24.9856L15.7547 24.3642L15.3348 23.7427L15.1016 23.9003L15.5215 24.5218ZM15.7547 24.3642L16.1746 24.9856L16.4079 24.828L15.988 24.2066L15.5681 23.5851L15.3348 23.7427L15.7547 24.3642ZM15.988 24.2066L16.4079 24.828C16.552 24.7307 16.698 24.6378 16.846 24.5493L16.4612 23.9055L16.0765 23.2617C15.9045 23.3645 15.735 23.4723 15.5681 23.5851L15.988 24.2066ZM16.4612 23.9055L16.846 24.5493L17.086 24.4058L16.7013 23.7621L16.3165 23.1183L16.0765 23.2617L16.4612 23.9055ZM16.7013 23.7621L17.086 24.4058L17.3261 24.2624L16.9413 23.6186L16.5565 22.9748L16.3165 23.1183L16.7013 23.7621ZM16.9413 23.6186L17.3261 24.2624C17.3717 24.2351 17.4218 24.219 17.4905 24.2171L17.4704 23.4674L17.4504 22.7177C17.1336 22.7262 16.8309 22.8108 16.5565 22.9748L16.9413 23.6186ZM17.4704 23.4674L17.4905 24.2171L17.7797 24.2094L17.7596 23.4597L17.7395 22.7099L17.4504 22.7177L17.4704 23.4674ZM17.7596 23.4597L17.7797 24.2094L18.0688 24.2017L18.0487 23.4519L18.0287 22.7022L17.7395 22.7099L17.7596 23.4597ZM18.0487 23.4519L18.0688 24.2017C18.1003 24.2008 18.1239 24.2013 18.1406 24.2022C18.1576 24.2031 18.164 24.2043 18.1619 24.204C18.1604 24.2037 18.1438 24.2008 18.1172 24.191C18.091 24.1812 18.0457 24.1613 17.994 24.1229L18.4409 23.5206L18.8879 22.9184C18.7221 22.7954 18.5438 22.748 18.4208 22.7265C18.2894 22.7035 18.1548 22.6988 18.0287 22.7022L18.0487 23.4519ZM18.4409 23.5206L17.994 24.1229L18.097 24.1994L18.5439 23.5971L18.9909 22.9948L18.8879 22.9184L18.4409 23.5206ZM18.5439 23.5971L17.9005 23.9825L18.0126 24.1696L18.656 23.7842L19.2994 23.3988L19.1873 23.2117L18.5439 23.5971ZM18.656 23.7842L18.9127 24.4889L19.0067 24.4547L18.75 23.75L18.4933 23.0453L18.3994 23.0795L18.656 23.7842Z" fill="#B89CFF"/>
<path d="M20.7365 12.698C20.8459 12.2985 20.6107 11.886 20.2111 11.7766C19.8116 11.6673 19.3991 11.9025 19.2897 12.302L20.7365 12.698ZM19.9867 12.5965L20.516 13.1279L20.6574 12.987L20.7101 12.7945L19.9867 12.5965ZM19.6025 12.9791L19.0733 12.4477L19.6025 12.9791ZM19.1462 13.6415L18.4199 13.4542L19.1462 13.6415ZM19.0019 14.2011L19.7281 14.3884L19.0019 14.2011ZM18.903 14.7688L19.6498 14.8381L18.903 14.7688ZM18.8496 15.3445L18.1028 15.2752L18.8496 15.3445ZM18.7736 15.9004L18.036 15.7647L18.7736 15.9004ZM18.6749 16.4365L19.4126 16.5723L18.6749 16.4365ZM18.5017 16.9859L19.1881 17.2882L18.5017 16.9859ZM18.2539 17.5487L17.5675 17.2464L18.2539 17.5487ZM18.2857 18.0882L18.9279 17.7008L18.2857 18.0882ZM18.4414 18.3463L17.7992 18.7337L18.4414 18.3463ZM18.5971 18.6044L19.2393 18.217L18.5971 18.6044ZM18.8969 19.0938L19.5335 18.6972L18.8969 19.0938ZM19.1852 19.5564L18.5486 19.953L19.1852 19.5564ZM19.5107 19.9933L20.0731 19.4972L19.5107 19.9933ZM19.692 20.199L19.1296 20.6951L19.692 20.199ZM19.8734 20.4046L20.4359 19.9085L19.8734 20.4046ZM20.3029 20.7375L20.6452 20.0701L20.3029 20.7375ZM20.799 20.992L20.4568 21.6593L20.799 20.992ZM21.2437 21.3289L20.6966 21.8419L21.2437 21.3289ZM21.6369 21.7483L22.184 21.2353L21.6369 21.7483ZM22.0762 22.1004L22.4558 21.4535L22.0762 22.1004ZM22.3188 22.2428L21.9392 22.8896L22.3188 22.2428ZM22.5615 22.3852L22.1819 23.0321L22.5615 22.3852ZM23.266 22.8618L23.7057 22.2541L23.266 22.8618ZM23.4969 23.0288L23.0573 23.6365L23.4969 23.0288ZM23.996 23.288L24.2396 22.5786L23.996 23.288ZM24.5323 23.4722L24.2888 24.1815L24.5323 23.4722ZM25.1016 23.6531L24.8892 24.3724L25.1016 23.6531ZM25.7037 23.831L25.9162 23.1117L25.7037 23.831ZM26.1294 24.2189L26.8217 23.9305L26.1294 24.2189ZM26.2539 24.5179L25.5615 24.8062L26.2539 24.5179ZM26.3784 24.8169L25.6861 25.1052L26.3784 24.8169ZM26.3818 26.048L25.6381 25.9514L26.3818 26.048ZM26.1367 26.5881L25.5771 26.0887L26.1367 26.5881ZM25.9319 26.8176L25.3724 26.3181L25.9319 26.8176ZM25.7272 27.047L26.2867 27.5464L25.7272 27.047ZM25.2389 27.3943L24.9509 26.7018L25.2389 27.3943ZM24.6719 27.6301L24.9599 28.3226L24.6719 27.6301ZM24.107 27.5921L24.4705 26.936L24.107 27.5921ZM23.5442 27.2803L23.1807 27.9363L23.5442 27.2803ZM22.9812 27.1757L23.1156 27.9135L22.9812 27.1757ZM22.6997 27.2269L22.5653 26.4891L22.6997 27.2269ZM22.4181 27.2782L22.5525 28.0161L22.4181 27.2782ZM21.8428 27.4152L21.6328 26.6952L21.8428 27.4152ZM21.5491 27.5009L21.339 26.7809L21.5491 27.5009ZM21.2553 27.5866L21.4654 28.3066L21.2553 27.5866ZM20.7041 27.5009L20.2884 28.1252L20.7041 27.5009ZM20.4466 27.3295L20.8623 26.7052L20.4466 27.3295ZM20.1891 27.158L19.7734 27.7823L20.1891 27.158ZM19.6429 26.9794L19.6614 26.2297L19.6429 26.9794ZM19.0654 26.9652L19.0469 27.7149L19.0654 26.9652ZM18.0402 26.5119L17.6516 27.1534L18.0402 26.5119ZM17.4843 26.342L17.4334 27.0903L17.4843 26.342ZM17.1739 26.3209L17.2249 25.5726L17.1739 26.3209ZM16.4191 25.9561L17.1118 25.6683L16.4191 25.9561ZM16.1512 25.3109L15.4585 25.5986L16.1512 25.3109ZM15.7387 24.9056L15.9523 24.1867L15.7387 24.9056ZM15.4602 24.8229L15.2465 25.5418L15.4602 24.8229ZM15.1817 24.7401L15.3953 24.0212L15.1817 24.7401ZM14.6561 24.5225L15.0155 23.8642L14.6561 24.5225ZM14.1619 24.2526L13.8025 24.9109L14.1619 24.2526ZM13.6615 23.9951L13.3349 24.6703L13.6615 23.9951ZM13.4081 23.8726L13.0815 24.5477L13.4081 23.8726ZM13.1546 23.75L13.4812 23.0748L13.1546 23.75ZM12.6322 23.6307L12.623 22.8807L12.6322 23.6307ZM12.094 23.6373L12.1031 24.3872L12.094 23.6373ZM11.6941 23.6766L11.8933 24.3996L11.6941 23.6766ZM11.5632 23.7126L11.364 22.9896L11.5632 23.7126ZM11.2887 23.7457L12.0009 23.5105L11.2887 23.7457ZM11.2758 23.7066L10.8889 23.0641L10.3758 23.373L10.5636 23.9418L11.2758 23.7066ZM11.3425 23.6665L11.7294 24.309L13.0085 23.5389L11.627 22.9725L11.3425 23.6665ZM11.5345 22.9346C11.1512 22.7775 10.7132 22.9608 10.5561 23.344C10.3989 23.7273 10.5822 24.1653 10.9655 24.3225L11.5345 22.9346ZM20.0131 12.5L19.2897 12.302L19.2633 12.3984L19.9867 12.5965L20.7101 12.7945L20.7365 12.698L20.0131 12.5ZM19.9867 12.5965L19.4575 12.065L19.0733 12.4477L19.6025 12.9791L20.1318 13.5105L20.516 13.1279L19.9867 12.5965ZM19.6025 12.9791L19.0733 12.4477C18.7923 12.7275 18.5199 13.0665 18.4199 13.4542L19.1462 13.6415L19.8724 13.8288C19.8678 13.8469 19.8697 13.8257 19.914 13.7615C19.9567 13.6995 20.0259 13.6159 20.1318 13.5105L19.6025 12.9791ZM19.1462 13.6415L18.4199 13.4542L18.3478 13.734L19.074 13.9213L19.8003 14.1086L19.8724 13.8288L19.1462 13.6415ZM19.074 13.9213L18.3478 13.734L18.2756 14.0139L19.0019 14.2011L19.7281 14.3884L19.8003 14.1086L19.074 13.9213ZM19.0019 14.2011L18.2756 14.0139C18.2176 14.2391 18.1777 14.4678 18.1562 14.6995L18.903 14.7688L19.6498 14.8381C19.6639 14.686 19.69 14.5362 19.7281 14.3884L19.0019 14.2011ZM18.903 14.7688L18.1562 14.6995L18.1295 14.9874L18.8763 15.0566L19.6231 15.1259L19.6498 14.8381L18.903 14.7688ZM18.8763 15.0566L18.1295 14.9874L18.1028 15.2752L18.8496 15.3445L19.5964 15.4138L19.6231 15.1259L18.8763 15.0566ZM18.8496 15.3445L18.1028 15.2752C18.087 15.4462 18.0646 15.6093 18.036 15.7647L18.7736 15.9004L19.5112 16.0362C19.5484 15.8342 19.5767 15.6266 19.5964 15.4138L18.8496 15.3445ZM18.7736 15.9004L18.036 15.7647L17.9867 16.0327L18.7243 16.1685L19.4619 16.3042L19.5112 16.0362L18.7736 15.9004ZM18.7243 16.1685L17.9867 16.0327L17.9373 16.3008L18.6749 16.4365L19.4126 16.5723L19.4619 16.3042L18.7243 16.1685ZM18.6749 16.4365L17.9373 16.3008C17.9162 16.4154 17.8774 16.5427 17.8153 16.6837L18.5017 16.9859L19.1881 17.2882C19.2912 17.054 19.3679 16.815 19.4126 16.5723L18.6749 16.4365ZM18.5017 16.9859L17.8153 16.6837L17.6914 16.965L18.3778 17.2673L19.0642 17.5696L19.1881 17.2882L18.5017 16.9859ZM18.3778 17.2673L17.6914 16.965L17.5675 17.2464L18.2539 17.5487L18.9403 17.851L19.0642 17.5696L18.3778 17.2673ZM18.2539 17.5487L17.5675 17.2464C17.3888 17.6521 17.4106 18.0896 17.6435 18.4756L18.2857 18.0882L18.9279 17.7008C18.9314 17.7066 18.9459 17.7352 18.9486 17.7801C18.9512 17.8244 18.9403 17.851 18.9403 17.851L18.2539 17.5487ZM18.2857 18.0882L17.6435 18.4756L17.7992 18.7337L18.4414 18.3463L19.0836 17.9589L18.9279 17.7008L18.2857 18.0882ZM18.4414 18.3463L17.7992 18.7337L17.9549 18.9918L18.5971 18.6044L19.2393 18.217L19.0836 17.9589L18.4414 18.3463ZM18.5971 18.6044L17.9549 18.9918C18.0604 19.1667 18.1622 19.3329 18.2604 19.4905L18.8969 19.0938L19.5335 18.6972C19.4395 18.5464 19.3414 18.3863 19.2393 18.217L18.5971 18.6044ZM18.8969 19.0938L18.2604 19.4905L18.4045 19.7217L19.0411 19.3251L19.6776 18.9285L19.5335 18.6972L18.8969 19.0938ZM19.0411 19.3251L18.4045 19.7217L18.5486 19.953L19.1852 19.5564L19.8217 19.1598L19.6776 18.9285L19.0411 19.3251ZM19.1852 19.5564L18.5486 19.953C18.6668 20.1426 18.8001 20.3215 18.9482 20.4894L19.5107 19.9933L20.0731 19.4972C19.9795 19.391 19.8958 19.2786 19.8217 19.1598L19.1852 19.5564ZM19.5107 19.9933L18.9482 20.4894L19.1296 20.6951L19.692 20.199L20.2545 19.7029L20.0731 19.4972L19.5107 19.9933ZM19.692 20.199L19.1296 20.6951L19.3109 20.9007L19.8734 20.4046L20.4359 19.9085L20.2545 19.7029L19.692 20.199ZM19.8734 20.4046L19.3109 20.9007C19.495 21.1093 19.7132 21.2779 19.9606 21.4048L20.3029 20.7375L20.6452 20.0701C20.5618 20.0274 20.4937 19.974 20.4359 19.9085L19.8734 20.4046ZM20.3029 20.7375L19.9606 21.4048L20.2087 21.5321L20.551 20.8647L20.8932 20.1974L20.6452 20.0701L20.3029 20.7375ZM20.551 20.8647L20.2087 21.5321L20.4568 21.6593L20.799 20.992L21.1413 20.3246L20.8932 20.1974L20.551 20.8647ZM20.799 20.992L20.4568 21.6593C20.5431 21.7036 20.6226 21.763 20.6966 21.8419L21.2437 21.3289L21.7908 20.8159C21.6027 20.6153 21.3857 20.45 21.1413 20.3246L20.799 20.992ZM21.2437 21.3289L20.6966 21.8419L20.8932 22.0516L21.4403 21.5386L21.9874 21.0256L21.7908 20.8159L21.2437 21.3289ZM21.4403 21.5386L20.8932 22.0516L21.0897 22.2612L21.6369 21.7483L22.184 21.2353L21.9874 21.0256L21.4403 21.5386ZM21.6369 21.7483L21.0897 22.2612C21.2689 22.4523 21.4715 22.6151 21.6965 22.7472L22.0762 22.1004L22.4558 21.4535C22.3573 21.3957 22.267 21.3238 22.184 21.2353L21.6369 21.7483ZM22.0762 22.1004L21.6965 22.7472L21.9392 22.8896L22.3188 22.2428L22.6985 21.596L22.4558 21.4535L22.0762 22.1004ZM22.3188 22.2428L21.9392 22.8896L22.1819 23.0321L22.5615 22.3852L22.9411 21.7384L22.6985 21.596L22.3188 22.2428ZM22.5615 22.3852L22.1819 23.0321C22.3228 23.1148 22.4607 23.2048 22.5955 23.3023L23.0351 22.6947L23.4748 22.0871C23.3017 21.9619 23.1238 21.8456 22.9411 21.7384L22.5615 22.3852ZM23.0351 22.6947L22.5955 23.3023L22.8264 23.4694L23.266 22.8618L23.7057 22.2541L23.4748 22.0871L23.0351 22.6947ZM23.266 22.8618L22.8264 23.4694L23.0573 23.6365L23.4969 23.0288L23.9366 22.4212L23.7057 22.2541L23.266 22.8618ZM23.4969 23.0288L23.0573 23.6365C23.2709 23.791 23.5033 23.9118 23.7524 23.9973L23.996 23.288L24.2396 22.5786C24.1312 22.5414 24.0308 22.4894 23.9366 22.4212L23.4969 23.0288ZM23.996 23.288L23.7524 23.9973L24.0206 24.0894L24.2642 23.3801L24.5077 22.6707L24.2396 22.5786L23.996 23.288ZM24.2642 23.3801L24.0206 24.0894L24.2888 24.1815L24.5323 23.4722L24.7759 22.7628L24.5077 22.6707L24.2642 23.3801ZM24.5323 23.4722L24.2888 24.1815C24.4789 24.2468 24.6791 24.3104 24.8892 24.3724L25.1016 23.6531L25.314 22.9339C25.1226 22.8773 24.9434 22.8203 24.7759 22.7628L24.5323 23.4722ZM25.1016 23.6531L24.8892 24.3724L25.1902 24.4614L25.4027 23.7421L25.6151 23.0228L25.314 22.9339L25.1016 23.6531ZM25.4027 23.7421L25.1902 24.4614L25.4913 24.5503L25.7037 23.831L25.9162 23.1117L25.6151 23.0228L25.4027 23.7421ZM25.7037 23.831L25.4913 24.5503C25.4933 24.5508 25.4893 24.5499 25.4816 24.5456C25.4737 24.5412 25.4645 24.5349 25.4555 24.5267C25.4465 24.5186 25.4405 24.511 25.4371 24.5061C25.4339 24.5013 25.4344 24.5009 25.437 24.5072L26.1294 24.2189L26.8217 23.9305C26.655 23.5302 26.3414 23.2373 25.9162 23.1117L25.7037 23.831ZM26.1294 24.2189L25.437 24.5072L25.5615 24.8062L26.2539 24.5179L26.9462 24.2295L26.8217 23.9305L26.1294 24.2189ZM26.2539 24.5179L25.5615 24.8062L25.6861 25.1052L26.3784 24.8169L27.0708 24.5285L26.9462 24.2295L26.2539 24.5179ZM26.3784 24.8169L25.6861 25.1052C25.7202 25.1872 25.7282 25.2579 25.7188 25.3299L26.4626 25.4266L27.2063 25.5232C27.2508 25.1809 27.2026 24.8451 27.0708 24.5285L26.3784 24.8169ZM26.4626 25.4266L25.7188 25.3299L25.6784 25.6406L26.4222 25.7373L27.1659 25.8339L27.2063 25.5232L26.4626 25.4266ZM26.4222 25.7373L25.6784 25.6406L25.6381 25.9514L26.3818 26.048L27.1256 26.1447L27.1659 25.8339L26.4222 25.7373ZM26.3818 26.048L25.6381 25.9514C25.6302 26.0118 25.6111 26.0507 25.5771 26.0887L26.1367 26.5881L26.6962 27.0876C26.9353 26.8197 27.0796 26.4985 27.1256 26.1447L26.3818 26.048ZM26.1367 26.5881L25.5771 26.0887L25.3724 26.3181L25.9319 26.8176L26.4915 27.317L26.6962 27.0876L26.1367 26.5881ZM25.9319 26.8176L25.3724 26.3181L25.1676 26.5476L25.7272 27.047L26.2867 27.5464L26.4915 27.317L25.9319 26.8176ZM25.7272 27.047L25.1676 26.5476C25.1059 26.6167 25.0359 26.6664 24.9509 26.7018L25.2389 27.3943L25.5269 28.0868C25.8199 27.9649 26.0754 27.7831 26.2867 27.5464L25.7272 27.047ZM25.2389 27.3943L24.9509 26.7018L24.6674 26.8197L24.9554 27.5122L25.2434 28.2047L25.5269 28.0868L25.2389 27.3943ZM24.9554 27.5122L24.6674 26.8197L24.3839 26.9376L24.6719 27.6301L24.9599 28.3226L25.2434 28.2047L24.9554 27.5122ZM24.6719 27.6301L24.3839 26.9376C24.3843 26.9374 24.3903 26.935 24.4012 26.9331C24.4124 26.9312 24.4255 26.9303 24.4393 26.9312C24.4691 26.9332 24.4811 26.9419 24.4705 26.936L24.107 27.5921L23.7436 28.2481C24.1203 28.4568 24.5482 28.4938 24.9599 28.3226L24.6719 27.6301ZM24.107 27.5921L24.4705 26.936L24.189 26.7801L23.8256 27.4362L23.4622 28.0922L23.7436 28.2481L24.107 27.5921ZM23.8256 27.4362L24.189 26.7801L23.9076 26.6242L23.5442 27.2803L23.1807 27.9363L23.4622 28.0922L23.8256 27.4362ZM23.5442 27.2803L23.9076 26.6242C23.5884 26.4474 23.2261 26.3687 22.8468 26.4378L22.9812 27.1757L23.1156 27.9135C23.1197 27.9128 23.1215 27.9128 23.1257 27.9135C23.131 27.9145 23.1489 27.9187 23.1807 27.9363L23.5442 27.2803ZM22.9812 27.1757L22.8468 26.4378L22.5653 26.4891L22.6997 27.2269L22.8341 27.9648L23.1156 27.9135L22.9812 27.1757ZM22.6997 27.2269L22.5653 26.4891L22.2838 26.5403L22.4181 27.2782L22.5525 28.0161L22.8341 27.9648L22.6997 27.2269ZM22.4181 27.2782L22.2838 26.5403C22.0689 26.5795 21.8518 26.6313 21.6328 26.6952L21.8428 27.4152L22.0529 28.1352C22.2256 28.0848 22.392 28.0453 22.5525 28.0161L22.4181 27.2782ZM21.8428 27.4152L21.6328 26.6952L21.339 26.7809L21.5491 27.5009L21.7592 28.2209L22.0529 28.1352L21.8428 27.4152ZM21.5491 27.5009L21.339 26.7809L21.0453 26.8667L21.2553 27.5866L21.4654 28.3066L21.7592 28.2209L21.5491 27.5009ZM21.2553 27.5866L21.0453 26.8667C21.0429 26.8674 21.0462 26.8662 21.0544 26.8655C21.0629 26.8649 21.0738 26.8651 21.0859 26.867C21.098 26.8688 21.1079 26.8719 21.1148 26.8747C21.1215 26.8774 21.1232 26.8789 21.1197 26.8766L20.7041 27.5009L20.2884 28.1252C20.642 28.3606 21.0544 28.4265 21.4654 28.3066L21.2553 27.5866ZM20.7041 27.5009L21.1197 26.8766L20.8623 26.7052L20.4466 27.3295L20.0309 27.9537L20.2884 28.1252L20.7041 27.5009ZM20.4466 27.3295L20.8623 26.7052L20.6048 26.5337L20.1891 27.158L19.7734 27.7823L20.0309 27.9537L20.4466 27.3295ZM20.1891 27.158L20.6048 26.5337C20.324 26.3468 20.0056 26.2382 19.6614 26.2297L19.6429 26.9794L19.6244 27.7292C19.6651 27.7302 19.7109 27.7407 19.7734 27.7823L20.1891 27.158ZM19.6429 26.9794L19.6614 26.2297L19.3727 26.2225L19.3542 26.9723L19.3356 27.7221L19.6244 27.7292L19.6429 26.9794ZM19.3542 26.9723L19.3727 26.2225L19.084 26.2154L19.0654 26.9652L19.0469 27.7149L19.3356 27.7221L19.3542 26.9723ZM19.0654 26.9652L19.084 26.2154C19.0213 26.2138 18.9709 26.1988 18.9198 26.1678L18.5312 26.8093L18.1426 27.4508C18.4188 27.6181 18.7246 27.707 19.0469 27.7149L19.0654 26.9652ZM18.5312 26.8093L18.9198 26.1678L18.6743 26.0191L18.2857 26.6606L17.8971 27.3021L18.1426 27.4508L18.5312 26.8093ZM18.2857 26.6606L18.6743 26.0191L18.4288 25.8704L18.0402 26.5119L17.6516 27.1534L17.8971 27.3021L18.2857 26.6606ZM18.0402 26.5119L18.4288 25.8704C18.1543 25.7041 17.8514 25.6153 17.5353 25.5938L17.4843 26.342L17.4334 27.0903C17.5311 27.0969 17.5988 27.1214 17.6516 27.1534L18.0402 26.5119ZM17.4843 26.342L17.5353 25.5938L17.2249 25.5726L17.1739 26.3209L17.123 27.0692L17.4334 27.0903L17.4843 26.342ZM17.1739 26.3209L17.2249 25.5726L16.9145 25.5515L16.8635 26.2998L16.8126 27.048L17.123 27.0692L17.1739 26.3209ZM16.8635 26.2998L16.9145 25.5515C16.9427 25.5534 17 25.5667 17.0561 25.61C17.1074 25.6497 17.1184 25.6844 17.1118 25.6683L16.4191 25.9561L15.7265 26.2438C15.8092 26.4427 15.9389 26.6422 16.1384 26.7965C16.3425 26.9544 16.5774 27.032 16.8126 27.048L16.8635 26.2998ZM16.4191 25.9561L17.1118 25.6683L16.9778 25.3458L16.2851 25.6335L15.5925 25.9212L15.7265 26.2438L16.4191 25.9561ZM16.2851 25.6335L16.9778 25.3458L16.8438 25.0232L16.1512 25.3109L15.4585 25.5986L15.5925 25.9212L16.2851 25.6335ZM16.1512 25.3109L16.8438 25.0232C16.6872 24.6463 16.3986 24.3193 15.9523 24.1867L15.7387 24.9056L15.5251 25.6245C15.515 25.6216 15.5022 25.6164 15.4884 25.6083C15.4746 25.6001 15.4634 25.5912 15.4554 25.5833C15.4392 25.5674 15.4446 25.565 15.4585 25.5986L16.1512 25.3109ZM15.7387 24.9056L15.9523 24.1867L15.6738 24.1039L15.4602 24.8229L15.2465 25.5418L15.5251 25.6245L15.7387 24.9056ZM15.4602 24.8229L15.6738 24.1039L15.3953 24.0212L15.1817 24.7401L14.968 25.4591L15.2465 25.5418L15.4602 24.8229ZM15.1817 24.7401L15.3953 24.0212C15.2586 23.9806 15.1324 23.928 15.0155 23.8642L14.6561 24.5225L14.2966 25.1807C14.5092 25.2968 14.7334 25.3893 14.968 25.4591L15.1817 24.7401ZM14.6561 24.5225L15.0155 23.8642L14.7685 23.7293L14.409 24.3875L14.0496 25.0458L14.2966 25.1807L14.6561 24.5225ZM14.409 24.3875L14.7685 23.7293L14.5214 23.5944L14.1619 24.2526L13.8025 24.9109L14.0496 25.0458L14.409 24.3875ZM14.1619 24.2526L14.5214 23.5944C14.3459 23.4985 14.1681 23.4071 13.988 23.32L13.6615 23.9951L13.3349 24.6703C13.4927 24.7467 13.6486 24.8268 13.8025 24.9109L14.1619 24.2526ZM13.6615 23.9951L13.988 23.32L13.7346 23.1974L13.4081 23.8726L13.0815 24.5477L13.3349 24.6703L13.6615 23.9951ZM13.4081 23.8726L13.7346 23.1974L13.4812 23.0748L13.1546 23.75L12.8281 24.4251L13.0815 24.5477L13.4081 23.8726ZM13.1546 23.75L13.4812 23.0748C13.2126 22.9449 12.924 22.8771 12.623 22.8807L12.6322 23.6307L12.6413 24.3806C12.6991 24.3799 12.7588 24.3916 12.8281 24.4251L13.1546 23.75ZM12.6322 23.6307L12.623 22.8807L12.3539 22.884L12.3631 23.634L12.3722 24.3839L12.6413 24.3806L12.6322 23.6307ZM12.3631 23.634L12.3539 22.884L12.0848 22.8873L12.094 23.6373L12.1031 24.3872L12.3722 24.3839L12.3631 23.634ZM12.094 23.6373L12.0848 22.8873C11.8911 22.8897 11.6785 22.9029 11.4948 22.9535L11.6941 23.6766L11.8933 24.3996C11.8812 24.403 11.8906 24.3993 11.9329 24.3951C11.9724 24.3912 12.0282 24.3881 12.1031 24.3872L12.094 23.6373ZM11.6941 23.6766L11.4948 22.9535L11.364 22.9896L11.5632 23.7126L11.7625 24.4357L11.8933 24.3996L11.6941 23.6766ZM11.5632 23.7126L11.364 22.9896L11.2332 23.0256L11.4324 23.7487L11.6317 24.4717L11.7625 24.4357L11.5632 23.7126ZM11.4324 23.7487L11.2332 23.0256C11.2091 23.0323 11.2598 23.0143 11.3467 23.0161C11.3904 23.017 11.4997 23.0234 11.6262 23.084C11.7747 23.155 11.9297 23.2949 12.0009 23.5105L11.2887 23.7457L10.5765 23.9809C10.7432 24.4858 11.2362 24.5142 11.3154 24.5158C11.4502 24.5186 11.5685 24.4892 11.6317 24.4717L11.4324 23.7487ZM11.2887 23.7457L12.0009 23.5105L11.988 23.4715L11.2758 23.7066L10.5636 23.9418L10.5765 23.9809L11.2887 23.7457ZM11.2758 23.7066L11.6626 24.3492L11.7294 24.309L11.3425 23.6665L10.9557 23.0239L10.8889 23.0641L11.2758 23.7066ZM11.3425 23.6665L11.627 22.9725L11.5345 22.9346L11.25 23.6285L10.9655 24.3225L11.058 24.3604L11.3425 23.6665Z" fill="#B89CFF"/>
<path d="M12.5 5C12.5 6.38071 13.6193 7.5 15 7.5C16.3807 7.5 17.5 6.38071 17.5 5C17.5 3.61929 16.3807 2.5 15 2.5C13.6193 2.5 12.5 3.61929 12.5 5Z" fill="#B89CFF"/>
<path d="M12.7692 5.47363L13.4212 5.10308L12.7692 5.47363ZM12.9037 5.71045L12.2517 6.08101L12.9037 5.71045ZM13.1575 6.17827L12.491 6.52215L13.1575 6.17827ZM13.7394 7.05787L14.219 6.48125L13.7394 7.05787ZM14.7129 7.62182L14.7234 6.8719L14.7129 7.62182ZM15.0134 7.62604L15.0029 8.37597L15.0134 7.62604ZM15.3139 7.63026L15.3244 6.88033L15.3139 7.63026ZM15.8092 7.40758L16.3782 7.89617L15.8092 7.40758ZM17.1093 6.26441L16.7022 5.63451L17.1093 6.26441ZM17.4224 5.82718L18.1476 6.01835L17.4224 5.82718ZM17.4232 4.12543L18.1488 3.93561L17.4232 4.12543ZM17.1959 3.57437L17.8467 3.20147L17.1959 3.57437ZM14.197 2.7459L13.7576 2.13811L14.197 2.7459ZM13.7588 3.06269L14.1982 3.67048L13.7588 3.06269ZM13.3451 3.40679L12.8274 2.86416L13.3451 3.40679ZM12.9558 3.77823L13.4735 4.32086L12.9558 3.77823ZM12.6072 4.22296L13.2519 4.60617L12.6072 4.22296ZM12.2993 4.74099L11.6546 4.35778L12.2993 4.74099ZM12.6346 5.23682L11.9825 5.60737L12.6346 5.23682ZM12.7692 5.47363L13.4212 5.10308L13.5558 5.3399L12.9037 5.71045L12.2517 6.08101L12.1171 5.84419L12.7692 5.47363ZM12.9037 5.71045L13.5558 5.3399C13.6503 5.50615 13.7397 5.67099 13.824 5.8344L13.1575 6.17827L12.491 6.52215C12.4164 6.37755 12.3366 6.23051 12.2517 6.08101L12.9037 5.71045ZM13.1575 6.17827L13.824 5.8344L13.9432 6.0654L13.2767 6.40928L12.6102 6.75316L12.491 6.52215L13.1575 6.17827ZM13.2767 6.40928L13.9432 6.0654L14.0624 6.2964L13.3959 6.64028L12.7293 6.98416L12.6102 6.75316L13.2767 6.40928ZM13.3959 6.64028L14.0624 6.2964C14.0904 6.35076 14.1372 6.41326 14.219 6.48125L13.7394 7.05787L13.2598 7.63448C13.0424 7.45369 12.8602 7.2378 12.7293 6.98416L13.3959 6.64028ZM13.7394 7.05787L14.219 6.48125L14.4433 6.66783L13.9637 7.24445L13.4841 7.82106L13.2598 7.63448L13.7394 7.05787ZM13.9637 7.24445L14.4433 6.66783L14.6676 6.85441L14.188 7.43103L13.7084 8.00764L13.4841 7.82106L13.9637 7.24445ZM14.188 7.43103L14.6676 6.85441C14.6789 6.86381 14.6851 6.86621 14.6876 6.86715C14.6905 6.86818 14.7006 6.87158 14.7234 6.8719L14.7129 7.62182L14.7023 8.37175C14.336 8.36661 13.9941 8.24528 13.7084 8.00764L14.188 7.43103ZM14.7129 7.62182L14.7234 6.8719L15.0239 6.87611L15.0134 7.62604L15.0029 8.37597L14.7023 8.37175L14.7129 7.62182ZM15.0134 7.62604L15.0239 6.87611L15.3244 6.88033L15.3139 7.63026L15.3034 8.38018L15.0029 8.37597L15.0134 7.62604ZM15.3139 7.63026L15.3244 6.88033C15.3268 6.88036 15.3081 6.88023 15.2805 6.89264C15.2527 6.9051 15.2397 6.91961 15.2402 6.91899L15.8092 7.40758L16.3782 7.89617C16.1026 8.21712 15.7248 8.3861 15.3034 8.38018L15.3139 7.63026ZM15.8092 7.40758L15.2402 6.91899L15.435 6.69209L16.004 7.18068L16.5731 7.66927L16.3782 7.89617L15.8092 7.40758ZM16.004 7.18068L15.435 6.69209L15.6299 6.4652L16.1989 6.95379L16.7679 7.44238L16.5731 7.66927L16.004 7.18068ZM16.1989 6.95379L15.6299 6.4652C15.8042 6.26221 16.0025 6.08672 16.2251 5.94284L16.6322 6.57273L17.0393 7.20262C16.9439 7.26429 16.8534 7.34284 16.7679 7.44238L16.1989 6.95379ZM16.6322 6.57273L16.2251 5.94284L16.4636 5.78868L16.8708 6.41857L17.2779 7.04846L17.0393 7.20262L16.6322 6.57273ZM16.8708 6.41857L16.4636 5.78868L16.7022 5.63451L17.1093 6.26441L17.5164 6.8943L17.2779 7.04846L16.8708 6.41857ZM17.1093 6.26441L16.7022 5.63451C16.7053 5.63248 16.7054 5.63208 16.7036 5.63375C16.7018 5.63548 16.6994 5.63811 16.6971 5.64132C16.696 5.64282 16.6952 5.64414 16.6946 5.64519C16.694 5.64623 16.6937 5.6468 16.6937 5.64677C16.6937 5.64673 16.6941 5.64593 16.6947 5.64424C16.6953 5.64254 16.6962 5.63984 16.6972 5.63602L17.4224 5.82718L18.1476 6.01835C18.0519 6.38171 17.8377 6.68666 17.5164 6.8943L17.1093 6.26441ZM17.4224 5.82718L16.6972 5.63602L16.7718 5.35296L17.497 5.54412L18.2223 5.73529L18.1476 6.01835L17.4224 5.82718ZM17.497 5.54412L16.7718 5.35296L16.8464 5.0699L17.5716 5.26106L18.2969 5.45222L18.2223 5.73529L17.497 5.54412ZM17.5716 5.26106L16.8464 5.0699C16.8631 5.0065 16.8633 4.94864 16.8463 4.88363L17.5719 4.69381L18.2975 4.50399C18.3796 4.8179 18.3796 5.13821 18.2969 5.45222L17.5716 5.26106ZM17.5719 4.69381L16.8463 4.88363L16.772 4.59944L17.4976 4.40962L18.2231 4.2198L18.2975 4.50399L17.5719 4.69381ZM17.4976 4.40962L16.772 4.59944L16.6976 4.31525L17.4232 4.12543L18.1488 3.93561L18.2231 4.2198L17.4976 4.40962ZM17.4232 4.12543L16.6976 4.31525C16.6656 4.1928 16.6158 4.07043 16.5452 3.94727L17.1959 3.57437L17.8467 3.20147C17.98 3.43413 18.0817 3.67914 18.1488 3.93561L17.4232 4.12543ZM17.1959 3.57437L16.5452 3.94727L16.3923 3.6804L17.043 3.3075L17.6937 2.93461L17.8467 3.20147L17.1959 3.57437ZM17.043 3.3075L16.3923 3.6804L16.2394 3.41353L16.8901 3.04064L17.5408 2.66774L17.6937 2.93461L17.043 3.3075ZM16.8901 3.04064L16.2394 3.41353C16.2373 3.40997 16.2379 3.41166 16.2421 3.41644C16.2464 3.42136 16.253 3.42767 16.2617 3.4339C16.2703 3.44014 16.2784 3.44443 16.2846 3.44705C16.2906 3.44959 16.2926 3.44963 16.2888 3.44887L16.436 2.71347L16.5833 1.97807C16.9967 2.06085 17.3314 2.30232 17.5408 2.66774L16.8901 3.04064ZM16.436 2.71347L16.2888 3.44887L15.9876 3.38856L16.1349 2.65316L16.2822 1.91776L16.5833 1.97807L16.436 2.71347ZM16.1349 2.65316L15.9876 3.38856L15.6865 3.32826L15.8338 2.59286L15.981 1.85746L16.2822 1.91776L16.1349 2.65316ZM15.8338 2.59286L15.6865 3.32826C15.5404 3.29901 15.409 3.28955 15.2904 3.29539L15.2535 2.5463L15.2166 1.7972C15.4702 1.78473 15.7256 1.80631 15.981 1.85746L15.8338 2.59286ZM15.2535 2.5463L15.2904 3.29539L15.0112 3.30913L14.9744 2.56003L14.9375 1.81094L15.2166 1.7972L15.2535 2.5463ZM14.9744 2.56003L15.0112 3.30913L14.7321 3.32287L14.6952 2.57377L14.6584 1.82468L14.9375 1.81094L14.9744 2.56003ZM14.6952 2.57377L14.7321 3.32287C14.6859 3.32514 14.6607 3.33616 14.6364 3.3537L14.197 2.7459L13.7576 2.13811C14.0255 1.94445 14.3324 1.84072 14.6584 1.82468L14.6952 2.57377ZM14.197 2.7459L14.6364 3.3537L14.4173 3.51209L13.9779 2.90429L13.5385 2.2965L13.7576 2.13811L14.197 2.7459ZM13.9779 2.90429L14.4173 3.51209L14.1982 3.67048L13.7588 3.06269L13.3194 2.45489L13.5385 2.2965L13.9779 2.90429ZM13.7588 3.06269L14.1982 3.67048C14.0796 3.75626 13.9679 3.84921 13.8628 3.94943L13.3451 3.40679L12.8274 2.86416C12.9818 2.71676 13.1459 2.58031 13.3194 2.45489L13.7588 3.06269ZM13.3451 3.40679L13.8628 3.94943L13.6682 4.13515L13.1504 3.59251L12.6327 3.04987L12.8274 2.86416L13.3451 3.40679ZM13.1504 3.59251L13.6682 4.13515L13.4735 4.32086L12.9558 3.77823L12.4381 3.23559L12.6327 3.04987L13.1504 3.59251ZM12.9558 3.77823L13.4735 4.32086C13.3986 4.3923 13.3238 4.48524 13.2519 4.60617L12.6072 4.22296L11.9625 3.83975C12.0959 3.61532 12.2534 3.41177 12.4381 3.23559L12.9558 3.77823ZM12.6072 4.22296L13.2519 4.60617L13.0979 4.86518L12.4532 4.48197L11.8085 4.09876L11.9625 3.83975L12.6072 4.22296ZM12.4532 4.48197L13.0979 4.86518L12.944 5.12419L12.2993 4.74099L11.6546 4.35778L11.8085 4.09876L12.4532 4.48197ZM12.2993 4.74099L12.944 5.12419C12.8951 5.20638 12.9152 5.19005 12.9332 5.11855C12.9371 5.10316 12.9911 4.91249 12.8932 4.68601C12.8338 4.54889 12.728 4.42254 12.5795 4.34016C12.4424 4.26405 12.3135 4.25 12.234 4.25V5V5.75C12.1397 5.75 11.9986 5.73325 11.8517 5.65174C11.6935 5.56397 11.5805 5.42952 11.5165 5.28161C11.4092 5.03355 11.464 4.8105 11.4787 4.75194C11.5185 4.59411 11.6008 4.44827 11.6546 4.35778L12.2993 4.74099ZM12.234 5V4.25H12.3227V5V5.75H12.234V5ZM12.3227 5V4.25H12.4113V5V5.75H12.3227V5ZM12.4113 5V4.25C12.7647 4.25 12.9863 4.46957 13.0572 4.54474C13.1538 4.64715 13.2292 4.76512 13.2866 4.86626L12.6346 5.23682L11.9825 5.60737C11.9503 5.55064 11.9436 5.5502 11.9657 5.57367C11.9778 5.58643 12.0143 5.62341 12.0769 5.66042C12.1406 5.69811 12.2562 5.75 12.4113 5.75V5ZM12.6346 5.23682L13.2866 4.86626L13.4212 5.10308L12.7692 5.47363L12.1171 5.84419L11.9825 5.60737L12.6346 5.23682Z" fill="#B89CFF"/>
<path d="M4.23647 20.5708C3.92121 20.8395 3.44784 20.8017 3.17917 20.4865C2.9105 20.1712 2.94827 19.6978 3.26353 19.4292L4.23647 20.5708ZM3.82611 19.9351L3.33964 19.3643L3.42547 19.2912L3.52901 19.2465L3.82611 19.9351ZM4.29572 19.7325L3.99862 19.0439L4.29572 19.7325ZM5.02552 19.4621L4.83625 18.7364L5.02552 19.4621ZM5.2857 19.3942L5.47497 20.1199L5.2857 19.3942ZM5.54589 19.3264L5.35662 18.6006L5.54589 19.3264ZM6.06552 19.1255L5.72338 18.4581L6.06552 19.1255ZM6.32498 18.9925L6.66711 19.6599L6.32498 18.9925ZM6.58443 18.8595L6.92657 19.5269L6.58443 18.8595ZM7.01956 18.4962L7.61588 18.951L7.01956 18.4962ZM7.19523 18.2659L6.59891 17.811L7.19523 18.2659ZM7.37091 18.0356L6.77459 17.5807L7.37091 18.0356ZM7.56719 17.5007L8.31548 17.5514L7.56719 17.5007ZM7.6084 16.8917L8.35669 16.9423L7.6084 16.8917ZM7.81431 16.3588L7.23199 15.8862L7.81431 16.3588ZM8.18492 15.9023L8.76723 16.3749L8.18492 15.9023ZM8.45414 15.4023L7.73754 15.1809L8.45414 15.4023ZM8.62197 14.8588L9.33857 15.0801L8.62197 14.8588ZM8.76516 14.317L9.49773 14.4778L8.76516 14.317ZM8.82444 14.0469L8.09187 13.8861L8.82444 14.0469ZM8.88372 13.7768L8.15115 13.616L8.88372 13.7768ZM9.11852 13.3106L8.55972 12.8104L9.11852 13.3106ZM9.29404 13.1145L9.85284 13.6148L9.29404 13.1145ZM9.46957 12.9185L10.0284 13.4187L9.46957 12.9185ZM9.79076 12.478L9.1465 12.094L9.79076 12.478ZM9.93642 12.2336L9.29217 11.8496L9.93642 12.2336ZM10.0821 11.9892L10.7263 12.3731L10.0821 11.9892ZM10.4506 11.5734L10.9078 12.1679L10.4506 11.5734ZM10.6734 11.402L10.2162 10.8075L10.6734 11.402ZM10.8962 11.2307L10.4391 10.6362L10.8962 11.2307ZM11.3532 10.8907L11.7916 11.4992L11.3532 10.8907ZM11.8215 10.5533L11.3831 9.94476L11.8215 10.5533ZM12.3396 10.3347L12.4695 11.0733L12.3396 10.3347ZM13.4787 10.2348L13.6072 9.49592L13.4787 10.2348ZM15.147 10.3167L15.21 11.0641L15.147 10.3167ZM15.6854 10.3229L15.7651 9.57712L15.6854 10.3229ZM16.7631 10.4621L16.9077 9.7262L16.7631 10.4621ZM17.0321 10.515L17.1767 9.77907L17.0321 10.515ZM17.8088 10.7562L17.4384 11.4083L17.8088 10.7562ZM18.0473 10.8916L18.4177 10.2395L18.0473 10.8916ZM18.2858 11.0271L17.9154 11.6793L18.2858 11.0271ZM19.4853 11.2482L19.5519 10.5012L19.4853 11.2482ZM19.9774 11.5189L19.3659 11.953L19.9774 11.5189ZM20.1493 11.7609L20.7608 11.3268L20.1493 11.7609ZM20.3211 12.003L20.9327 11.5688L20.3211 12.003ZM20.5552 12.5271L21.2875 12.3654L20.5552 12.5271ZM20.9369 13.5989L21.5045 13.1086L20.9369 13.5989ZM21.1318 13.8245L21.6994 13.3343L21.1318 13.8245ZM21.3267 14.0502L20.7591 14.5405L21.3267 14.0502ZM21.5222 14.5646L20.7722 14.5662L21.5222 14.5646ZM21.5234 15.1421L22.2734 15.1404L21.5234 15.1421ZM21.6687 15.6787L21.0208 16.0566L21.6687 15.6787ZM21.8133 15.9267L21.1654 16.3045L21.8133 15.9267ZM21.9579 16.1746L22.6057 15.7968L21.9579 16.1746ZM22.1105 16.7362L22.8602 16.7171L22.1105 16.7362ZM22.1185 17.0499L21.3687 17.069L22.1185 17.0499ZM22.1265 17.3635L21.3767 17.3826L22.1265 17.3635ZM22.462 17.7945L22.209 18.5006L22.462 17.7945ZM23.117 18.0293L23.3701 17.3233L23.117 18.0293ZM23.5822 18.3852L24.2318 18.0104L23.5822 18.3852ZM23.7199 18.6238L23.0703 18.9987L23.7199 18.6238ZM23.8576 18.8624L24.5072 18.4876L23.8576 18.8624ZM24.2266 19.2468L23.8268 19.8813L24.2266 19.2468ZM24.6893 19.5383L25.0891 18.9038L24.6893 19.5383ZM25.1874 19.7667L25.4092 19.0502L25.1874 19.7667ZM25.4541 19.8492L25.2324 20.5657L25.4541 19.8492ZM25.7209 19.9318L25.9427 19.2153L25.7209 19.9318ZM26.0532 20.0108L26.0122 19.2619L26.0532 20.0108ZM26.1188 20.0072L26.7146 20.4627L26.5048 20.7372L26.1598 20.7561L26.1188 20.0072ZM26.1739 19.9351L25.5781 19.4796L26.0584 18.8513L26.6604 19.3643L26.1739 19.9351ZM26.7365 19.4292C27.0517 19.6978 27.0895 20.1712 26.8208 20.4865C26.5522 20.8017 26.0788 20.8395 25.7635 20.5708L26.7365 19.4292ZM3.75 20L3.26353 19.4292L3.33964 19.3643L3.82611 19.9351L4.31258 20.506L4.23647 20.5708L3.75 20ZM3.82611 19.9351L3.52901 19.2465L3.99862 19.0439L4.29572 19.7325L4.59282 20.4212L4.12321 20.6238L3.82611 19.9351ZM4.29572 19.7325L3.99862 19.0439C4.32144 18.9046 4.60654 18.7963 4.83625 18.7364L5.02552 19.4621L5.21479 20.1878C5.09758 20.2184 4.89616 20.2903 4.59282 20.4212L4.29572 19.7325ZM5.02552 19.4621L4.83625 18.7364L5.09643 18.6685L5.2857 19.3942L5.47497 20.1199L5.21479 20.1878L5.02552 19.4621ZM5.2857 19.3942L5.09643 18.6685L5.35662 18.6006L5.54589 19.3264L5.73515 20.0521L5.47497 20.1199L5.2857 19.3942ZM5.54589 19.3264L5.35662 18.6006C5.47291 18.5703 5.59504 18.5239 5.72338 18.4581L6.06552 19.1255L6.40766 19.7929C6.19007 19.9045 5.96577 19.9919 5.73515 20.0521L5.54589 19.3264ZM6.06552 19.1255L5.72338 18.4581L5.98284 18.3251L6.32498 18.9925L6.66711 19.6599L6.40766 19.7929L6.06552 19.1255ZM6.32498 18.9925L5.98284 18.3251L6.24229 18.1921L6.58443 18.8595L6.92657 19.5269L6.66711 19.6599L6.32498 18.9925ZM6.58443 18.8595L6.24229 18.1921C6.31642 18.1541 6.3744 18.1053 6.42324 18.0413L7.01956 18.4962L7.61588 18.951C7.43048 19.1941 7.19838 19.3876 6.92657 19.5269L6.58443 18.8595ZM7.01956 18.4962L6.42324 18.0413L6.59891 17.811L7.19523 18.2659L7.79156 18.7207L7.61588 18.951L7.01956 18.4962ZM7.19523 18.2659L6.59891 17.811L6.77459 17.5807L7.37091 18.0356L7.96723 18.4904L7.79156 18.7207L7.19523 18.2659ZM7.37091 18.0356L6.77459 17.5807C6.7976 17.5505 6.81453 17.5147 6.8189 17.4501L7.56719 17.5007L8.31548 17.5514C8.29238 17.8928 8.17846 18.2135 7.96723 18.4904L7.37091 18.0356ZM7.56719 17.5007L6.8189 17.4501L6.8395 17.1456L7.58779 17.1962L8.33608 17.2468L8.31548 17.5514L7.56719 17.5007ZM7.58779 17.1962L6.8395 17.1456L6.86011 16.841L7.6084 16.8917L8.35669 16.9423L8.33608 17.2468L7.58779 17.1962ZM7.6084 16.8917L6.86011 16.841C6.88387 16.4898 7.00702 16.1633 7.23199 15.8862L7.81431 16.3588L8.39662 16.8315C8.37451 16.8587 8.3604 16.8875 8.35669 16.9423L7.6084 16.8917ZM7.81431 16.3588L7.23199 15.8862L7.4173 15.6579L7.99961 16.1306L8.58192 16.6032L8.39662 16.8315L7.81431 16.3588ZM7.99961 16.1306L7.4173 15.6579L7.60261 15.4296L8.18492 15.9023L8.76723 16.3749L8.58192 16.6032L7.99961 16.1306ZM8.18492 15.9023L7.60261 15.4296C7.66782 15.3493 7.71084 15.2674 7.73754 15.1809L8.45414 15.4023L9.17074 15.6236C9.08555 15.8994 8.94909 16.1509 8.76723 16.3749L8.18492 15.9023ZM8.45414 15.4023L7.73754 15.1809L7.82145 14.9092L8.53805 15.1305L9.25466 15.3519L9.17074 15.6236L8.45414 15.4023ZM8.53805 15.1305L7.82145 14.9092L7.90536 14.6375L8.62197 14.8588L9.33857 15.0801L9.25466 15.3519L8.53805 15.1305ZM8.62197 14.8588L7.90536 14.6375C7.95532 14.4758 7.99768 14.3153 8.03259 14.1562L8.76516 14.317L9.49773 14.4778C9.45361 14.6788 9.4005 14.8796 9.33857 15.0801L8.62197 14.8588ZM8.76516 14.317L8.03259 14.1562L8.09187 13.8861L8.82444 14.0469L9.557 14.2077L9.49773 14.4778L8.76516 14.317ZM8.82444 14.0469L8.09187 13.8861L8.15115 13.616L8.88372 13.7768L9.61628 13.9375L9.557 14.2077L8.82444 14.0469ZM8.88372 13.7768L8.15115 13.616C8.21691 13.3164 8.35206 13.0423 8.55972 12.8104L9.11852 13.3106L9.67732 13.8108C9.65095 13.8403 9.62956 13.877 9.61628 13.9375L8.88372 13.7768ZM9.11852 13.3106L8.55972 12.8104L8.73525 12.6143L9.29404 13.1145L9.85284 13.6148L9.67732 13.8108L9.11852 13.3106ZM9.29404 13.1145L8.73525 12.6143L8.91077 12.4182L9.46957 12.9185L10.0284 13.4187L9.85284 13.6148L9.29404 13.1145ZM9.46957 12.9185L8.91077 12.4182C8.99315 12.3262 9.0721 12.2189 9.1465 12.094L9.79076 12.478L10.435 12.862C10.3152 13.063 10.18 13.2493 10.0284 13.4187L9.46957 12.9185ZM9.79076 12.478L9.1465 12.094L9.29217 11.8496L9.93642 12.2336L10.5807 12.6175L10.435 12.862L9.79076 12.478ZM9.93642 12.2336L9.29217 11.8496L9.43783 11.6052L10.0821 11.9892L10.7263 12.3731L10.5807 12.6175L9.93642 12.2336ZM10.0821 11.9892L9.43783 11.6052C9.58284 11.3619 9.76882 11.1516 9.9934 10.9789L10.4506 11.5734L10.9078 12.1679C10.8352 12.2237 10.7756 12.2905 10.7263 12.3731L10.0821 11.9892ZM10.4506 11.5734L9.9934 10.9789L10.2162 10.8075L10.6734 11.402L11.1306 11.9966L10.9078 12.1679L10.4506 11.5734ZM10.6734 11.402L10.2162 10.8075L10.4391 10.6362L10.8962 11.2307L11.3534 11.8252L11.1306 11.9966L10.6734 11.402ZM10.8962 11.2307L10.4391 10.6362C10.594 10.517 10.7526 10.399 10.9148 10.2821L11.3532 10.8907L11.7916 11.4992C11.6417 11.6072 11.4956 11.7159 11.3534 11.8252L10.8962 11.2307ZM11.3532 10.8907L10.9148 10.2821L11.149 10.1134L11.5874 10.722L12.0258 11.3305L11.7916 11.4992L11.3532 10.8907ZM11.5874 10.722L11.149 10.1134L11.3831 9.94476L11.8215 10.5533L12.2599 11.1618L12.0258 11.3305L11.5874 10.722ZM11.8215 10.5533L11.3831 9.94476C11.6308 9.76629 11.909 9.64888 12.2097 9.59599L12.3396 10.3347L12.4695 11.0733C12.3916 11.087 12.3244 11.1154 12.2599 11.1618L11.8215 10.5533ZM12.3396 10.3347L12.2097 9.59599L12.4937 9.54606L12.6236 10.2847L12.7535 11.0234L12.4695 11.0733L12.3396 10.3347ZM12.6236 10.2847L12.4937 9.54606L12.7776 9.49612L12.9075 10.2348L13.0374 10.9735L12.7535 11.0234L12.6236 10.2847ZM12.9075 10.2348L12.7776 9.49612C13.0534 9.44763 13.3312 9.4479 13.6072 9.49592L13.4787 10.2348L13.3501 10.9737C13.2432 10.9551 13.1403 10.9554 13.0374 10.9735L12.9075 10.2348ZM13.4787 10.2348L13.6072 9.49592L13.8944 9.54588L13.7659 10.2848L13.6373 11.0237L13.3501 10.9737L13.4787 10.2348ZM13.7659 10.2848L13.8944 9.54588L14.1816 9.59585L14.0531 10.3347L13.9245 11.0736L13.6373 11.0237L13.7659 10.2848ZM14.0531 10.3347L14.1816 9.59585C14.3149 9.61903 14.4358 9.62401 14.5462 9.6147L14.6092 10.3621L14.6722 11.1094C14.424 11.1303 14.1742 11.1171 13.9245 11.0736L14.0531 10.3347ZM14.6092 10.3621L14.5462 9.6147L14.8151 9.59204L14.8781 10.3394L14.9411 11.0867L14.6722 11.1094L14.6092 10.3621ZM14.8781 10.3394L14.8151 9.59204L15.0841 9.56938L15.147 10.3167L15.21 11.0641L14.9411 11.0867L14.8781 10.3394ZM15.147 10.3167L15.0841 9.56938C15.311 9.55026 15.5383 9.55288 15.7651 9.57712L15.6854 10.3229L15.6058 11.0686C15.4733 11.0545 15.3416 11.053 15.21 11.0641L15.147 10.3167ZM15.6854 10.3229L15.7651 9.57712L16.0346 9.60591L15.955 10.3517L15.8753 11.0974L15.6058 11.0686L15.6854 10.3229ZM15.955 10.3517L16.0346 9.60591L16.3041 9.63471L16.2245 10.3805L16.1448 11.1262L15.8753 11.0974L15.955 10.3517ZM16.2245 10.3805L16.3041 9.63471C16.5058 9.65626 16.707 9.68678 16.9077 9.7262L16.7631 10.4621L16.6185 11.1981C16.4603 11.167 16.3024 11.1431 16.1448 11.1262L16.2245 10.3805ZM16.7631 10.4621L16.9077 9.7262L17.1767 9.77907L17.0321 10.515L16.8876 11.2509L16.6185 11.1981L16.7631 10.4621ZM17.0321 10.515L17.1767 9.77907L17.4458 9.83194L17.3012 10.5679L17.1566 11.3038L16.8876 11.2509L17.0321 10.515ZM17.3012 10.5679L17.4458 9.83194C17.7045 9.88276 17.95 9.97384 18.1792 10.104L17.8088 10.7562L17.4384 11.4083C17.3497 11.3579 17.2567 11.3235 17.1566 11.3038L17.3012 10.5679ZM17.8088 10.7562L18.1792 10.104L18.4177 10.2395L18.0473 10.8916L17.6769 11.5438L17.4384 11.4083L17.8088 10.7562ZM18.0473 10.8916L18.4177 10.2395L18.6562 10.375L18.2858 11.0271L17.9154 11.6793L17.6769 11.5438L18.0473 10.8916ZM18.2858 11.0271L18.6562 10.375C18.7071 10.4039 18.7863 10.4329 18.9112 10.4441L18.8446 11.1911L18.778 11.9382C18.4758 11.9112 18.1824 11.8309 17.9154 11.6793L18.2858 11.0271ZM18.8446 11.1911L18.9112 10.4441L19.2315 10.4726L19.1649 11.2197L19.0983 11.9667L18.778 11.9382L18.8446 11.1911ZM19.1649 11.2197L19.2315 10.4726L19.5519 10.5012L19.4853 11.2482L19.4187 11.9953L19.0983 11.9667L19.1649 11.2197ZM19.4853 11.2482L19.5519 10.5012C19.9635 10.5379 20.3358 10.728 20.589 11.0847L19.9774 11.5189L19.3659 11.953C19.3672 11.9549 19.3716 11.9606 19.3796 11.9678C19.3877 11.9751 19.3972 11.9819 19.4071 11.9874C19.4284 11.9991 19.437 11.9969 19.4187 11.9953L19.4853 11.2482ZM19.9774 11.5189L20.589 11.0847L20.7608 11.3268L20.1493 11.7609L19.5377 12.195L19.3659 11.953L19.9774 11.5189ZM20.1493 11.7609L20.7608 11.3268L20.9327 11.5688L20.3211 12.003L19.7095 12.4371L19.5377 12.195L20.1493 11.7609ZM20.3211 12.003L20.9327 11.5688C21.1036 11.8097 21.2238 12.0766 21.2875 12.3654L20.5552 12.5271L19.8228 12.6887C19.8035 12.6014 19.7676 12.519 19.7095 12.4371L20.3211 12.003ZM20.5552 12.5271L21.2875 12.3654L21.3498 12.6474L20.6174 12.8091L19.8851 12.9708L19.8228 12.6887L20.5552 12.5271ZM20.6174 12.8091L21.3498 12.6474L21.4121 12.9295L20.6797 13.0912L19.9473 13.2528L19.8851 12.9708L20.6174 12.8091ZM20.6797 13.0912L21.4121 12.9295C21.4259 12.992 21.4531 13.0492 21.5045 13.1086L20.9369 13.5989L20.3693 14.0891C20.1607 13.8477 20.0165 13.5664 19.9473 13.2528L20.6797 13.0912ZM20.9369 13.5989L21.5045 13.1086L21.6994 13.3343L21.1318 13.8245L20.5642 14.3148L20.3693 14.0891L20.9369 13.5989ZM21.1318 13.8245L21.6994 13.3343L21.8943 13.56L21.3267 14.0502L20.7591 14.5405L20.5642 14.3148L21.1318 13.8245ZM21.3267 14.0502L21.8943 13.56C22.1373 13.8414 22.2714 14.1847 22.2722 14.563L21.5222 14.5646L20.7722 14.5662C20.7722 14.5604 20.7717 14.5576 20.7716 14.5572C20.7716 14.5569 20.7717 14.5574 20.7719 14.5581C20.7722 14.5588 20.772 14.5581 20.7706 14.5557C20.7691 14.5533 20.7657 14.5481 20.7591 14.5405L21.3267 14.0502ZM21.5222 14.5646L22.2722 14.563L22.2728 14.8517L21.5228 14.8533L20.7728 14.8549L20.7722 14.5662L21.5222 14.5646ZM21.5228 14.8533L22.2728 14.8517L22.2734 15.1404L21.5234 15.1421L20.7734 15.1437L20.7728 14.8549L21.5228 14.8533ZM21.5234 15.1421L22.2734 15.1404C22.2736 15.2015 22.2871 15.2505 22.3165 15.3009L21.6687 15.6787L21.0208 16.0566C20.8574 15.7763 20.7741 15.4675 20.7734 15.1437L21.5234 15.1421ZM21.6687 15.6787L22.3165 15.3009L22.4611 15.5488L21.8133 15.9267L21.1654 16.3045L21.0208 16.0566L21.6687 15.6787ZM21.8133 15.9267L22.4611 15.5488L22.6057 15.7968L21.9579 16.1746L21.31 16.5525L21.1654 16.3045L21.8133 15.9267ZM21.9579 16.1746L22.6057 15.7968C22.7716 16.0811 22.852 16.3938 22.8602 16.7171L22.1105 16.7362L21.3607 16.7553C21.3583 16.6604 21.337 16.5987 21.31 16.5525L21.9579 16.1746ZM22.1105 16.7362L22.8602 16.7171L22.8682 17.0307L22.1185 17.0499L21.3687 17.069L21.3607 16.7553L22.1105 16.7362ZM22.1185 17.0499L22.8682 17.0307L22.8762 17.3444L22.1265 17.3635L21.3767 17.3826L21.3687 17.069L22.1185 17.0499ZM22.1265 17.3635L22.8762 17.3444C22.8754 17.3135 22.863 17.2404 22.8062 17.1674C22.7537 17.1 22.7034 17.0843 22.715 17.0885L22.462 17.7945L22.209 18.5006C22.0022 18.4265 21.7868 18.2999 21.6225 18.0888C21.4539 17.8721 21.3828 17.6227 21.3767 17.3826L22.1265 17.3635ZM22.462 17.7945L22.715 17.0885L23.0425 17.2059L22.7895 17.9119L22.5365 18.6179L22.209 18.5006L22.462 17.7945ZM22.7895 17.9119L23.0425 17.2059L23.3701 17.3233L23.117 18.0293L22.864 18.7353L22.5365 18.6179L22.7895 17.9119ZM23.117 18.0293L23.3701 17.3233C23.7104 17.4452 24.0299 17.6604 24.2318 18.0104L23.5822 18.3852L22.9326 18.7601C22.9392 18.7715 22.9453 18.7757 22.9413 18.7726C22.9355 18.7682 22.9136 18.7531 22.864 18.7353L23.117 18.0293ZM23.5822 18.3852L24.2318 18.0104L24.3695 18.249L23.7199 18.6238L23.0703 18.9987L22.9326 18.7601L23.5822 18.3852ZM23.7199 18.6238L24.3695 18.249L24.5072 18.4876L23.8576 18.8624L23.208 19.2373L23.0703 18.9987L23.7199 18.6238ZM23.8576 18.8624L24.5072 18.4876C24.5385 18.5419 24.5761 18.5805 24.6264 18.6122L24.2266 19.2468L23.8268 19.8813C23.5686 19.7187 23.3602 19.5011 23.208 19.2373L23.8576 18.8624ZM24.2266 19.2468L24.6264 18.6122L24.8578 18.758L24.4579 19.3925L24.0581 20.0271L23.8268 19.8813L24.2266 19.2468ZM24.4579 19.3925L24.8578 18.758L25.0891 18.9038L24.6893 19.5383L24.2895 20.1729L24.0581 20.0271L24.4579 19.3925ZM24.6893 19.5383L25.0891 18.9038C25.1867 18.9652 25.2927 19.0141 25.4092 19.0502L25.1874 19.7667L24.9656 20.4831C24.7265 20.4091 24.5004 20.3058 24.2895 20.1729L24.6893 19.5383ZM25.1874 19.7667L25.4092 19.0502L25.6759 19.1328L25.4541 19.8492L25.2324 20.5657L24.9656 20.4831L25.1874 19.7667ZM25.4541 19.8492L25.6759 19.1328L25.9427 19.2153L25.7209 19.9318L25.4991 20.6482L25.2324 20.5657L25.4541 19.8492ZM25.7209 19.9318L25.9427 19.2153C26.0242 19.2406 26.0785 19.2555 26.1107 19.2631C26.1269 19.267 26.1297 19.2671 26.1227 19.266C26.1188 19.2654 26.1083 19.2639 26.0928 19.2627C26.0788 19.2615 26.0501 19.2598 26.0122 19.2619L26.0532 20.0108L26.0942 20.7596C25.9498 20.7675 25.8122 20.734 25.7639 20.7225C25.6854 20.7038 25.5954 20.678 25.4991 20.6482L25.7209 19.9318ZM26.0532 20.0108L26.0122 19.2619L26.0778 19.2583L26.1188 20.0072L26.1598 20.7561L26.0942 20.7596L26.0532 20.0108ZM26.1188 20.0072L25.523 19.5516L25.5781 19.4796L26.1739 19.9351L26.7697 20.3907L26.7146 20.4627L26.1188 20.0072ZM26.1739 19.9351L26.6604 19.3643L26.7365 19.4292L26.25 20L25.7635 20.5708L25.6874 20.506L26.1739 19.9351Z" fill="#B89CFF"/>
</svg>
