<svg width="30" height="30" viewBox="0 0 30 30" fill="none" xmlns="http://www.w3.org/2000/svg">
<path d="M2.35541 26.7246C1.94896 26.8045 1.68421 27.1987 1.76407 27.6051C1.84393 28.0116 2.23815 28.2763 2.64459 28.1965L2.35541 26.7246ZM2.59812 27.4413L2.83363 26.7292L2.64671 26.6674L2.45353 26.7053L2.59812 27.4413ZM3.91686 27.6972L3.69783 26.9799L3.91686 27.6972ZM4.98795 27.258L4.51511 26.6759L4.98795 27.258ZM5.43034 26.8987L4.95751 26.3166L5.43034 26.8987ZM7.54934 26.4501L7.30568 27.1594L7.54934 26.4501ZM9.21571 26.6643L9.59468 26.0171L9.21571 26.6643ZM9.69233 26.9434L9.31336 27.5906L9.69233 26.9434ZM10.1903 27.1526L10.3845 26.4282L10.1903 27.1526ZM10.45 27.2222L10.2559 27.9466L10.45 27.2222ZM10.7098 27.2918L10.9039 26.5674L10.7098 27.2918ZM11.2293 27.2926L11.4213 28.0176L11.2293 27.2926ZM11.7491 27.155L11.5572 26.43L11.7491 27.155ZM12.2817 27.0536L12.1925 26.3089L12.2817 27.0536ZM12.827 26.9883L12.9161 27.733L12.827 26.9883ZM13.3479 26.8269L13.0027 26.1611L13.3479 26.8269ZM14.3659 26.444L14.3565 27.194L14.3659 26.444ZM14.912 26.4508L14.9213 25.7009L14.912 26.4508ZM15.4543 26.4793L15.3846 27.2261L15.4543 26.4793ZM16.5415 26.6244L16.3598 27.3521L16.5415 26.6244ZM16.821 26.6942L16.6393 27.4219L16.821 26.6942ZM17.1005 26.764L17.2821 26.0364L17.1005 26.764ZM17.6135 26.9241L17.3432 27.6237L17.6135 26.9241ZM18.0807 27.1046L18.351 26.405L18.0807 27.1046ZM18.574 27.1919L18.5655 26.4419L18.574 27.1919ZM20.1228 26.985L19.936 26.2586L20.1228 26.985ZM21.6146 26.3334L21.3918 27.0495L21.6146 26.3334ZM21.9135 26.4264L21.6907 27.1425L21.9135 26.4264ZM22.7761 26.5963L22.7305 25.8477L22.7761 26.5963ZM23.8638 26.5973L23.9881 25.8577L23.8638 26.5973ZM24.1573 26.6466L24.2816 25.907L24.1573 26.6466ZM24.4509 26.6959L24.3266 27.4356L24.4509 26.6959ZM24.9561 26.947L24.4387 27.4899L24.9561 26.947ZM25.3795 27.3505L24.8621 27.8934L25.3795 27.3505ZM25.8765 27.5001L26.0112 28.2379L25.8765 27.5001ZM26.4471 27.3959L26.3124 26.6581L26.4471 27.3959ZM26.9244 27.3973L26.7231 28.1198L26.9244 27.3973ZM27.3081 27.5041L27.5093 26.7816L27.3081 27.5041ZM27.5 27.5091H28.25V27.1152L27.9257 26.8916L27.5 27.5091ZM27.4018 27.4414L27.5454 26.7053L26.9761 28.0589L27.4018 27.4414ZM27.3564 28.1967C27.763 28.276 28.1568 28.0107 28.2361 27.6041C28.3154 27.1976 28.0501 26.8037 27.6436 26.7244L27.3564 28.1967ZM2.5 27.4605L2.64459 28.1965L2.74272 28.1772L2.59812 27.4413L2.45353 26.7053L2.35541 26.7246L2.5 27.4605ZM2.59812 27.4413L2.36261 28.1533L2.88034 28.3246L3.11585 27.6125L3.35136 26.9004L2.83363 26.7292L2.59812 27.4413ZM3.11585 27.6125L2.88034 28.3246C3.26565 28.452 3.71846 28.542 4.1359 28.4145L3.91686 27.6972L3.69783 26.9799C3.72775 26.9708 3.72102 26.9805 3.65385 26.9734C3.58855 26.9665 3.48966 26.9462 3.35136 26.9004L3.11585 27.6125ZM3.91686 27.6972L4.1359 28.4145L4.41919 28.328L4.20016 27.6107L3.98112 26.8934L3.69783 26.9799L3.91686 27.6972ZM4.20016 27.6107L4.41919 28.328L4.70249 28.2415L4.48346 27.5242L4.26442 26.8069L3.98112 26.8934L4.20016 27.6107ZM4.48346 27.5242L4.70249 28.2415C4.98016 28.1567 5.23526 28.0234 5.46078 27.8402L4.98795 27.258L4.51511 26.6759C4.4457 26.7322 4.36448 26.7763 4.26442 26.8069L4.48346 27.5242ZM4.98795 27.258L5.46078 27.8402L5.68198 27.6606L5.20914 27.0784L4.73631 26.4962L4.51511 26.6759L4.98795 27.258ZM5.20914 27.0784L5.68198 27.6606L5.90318 27.4809L5.43034 26.8987L4.95751 26.3166L4.73631 26.4962L5.20914 27.0784ZM5.43034 26.8987L5.90318 27.4809C6.01264 27.392 6.13389 27.3112 6.26814 27.2389L5.9126 26.5785L5.55705 25.9182C5.34322 26.0333 5.14297 26.1659 4.95751 26.3166L5.43034 26.8987ZM5.9126 26.5785L6.26814 27.2389L6.5292 27.0983L6.17365 26.438L5.81811 25.7776L5.55705 25.9182L5.9126 26.5785ZM6.17365 26.438L6.5292 27.0983L6.79026 26.9578L6.43471 26.2974L6.07917 25.637L5.81811 25.7776L6.17365 26.438ZM6.43471 26.2974L6.79026 26.9578C6.79259 26.9565 6.79057 26.9579 6.78445 26.9597C6.77816 26.9616 6.76984 26.9634 6.76031 26.9641C6.75081 26.9649 6.74296 26.9644 6.73773 26.9637C6.73267 26.963 6.73213 26.9624 6.73663 26.9639L6.9803 26.2546L7.22396 25.5453C6.83976 25.4133 6.44043 25.4425 6.07917 25.637L6.43471 26.2974ZM6.9803 26.2546L6.73663 26.9639L7.02116 27.0617L7.26482 26.3523L7.50848 25.643L7.22396 25.5453L6.9803 26.2546ZM7.26482 26.3523L7.02116 27.0617L7.30568 27.1594L7.54934 26.4501L7.793 25.7408L7.50848 25.643L7.26482 26.3523ZM7.54934 26.4501L7.30568 27.1594C7.57419 27.2516 7.85178 27.2976 8.13484 27.2919L8.11975 26.5421L8.10466 25.7922C8.00654 25.7942 7.90386 25.7788 7.793 25.7408L7.54934 26.4501ZM8.11975 26.5421L8.13484 27.2919L8.42072 27.2862L8.40563 26.5363L8.39054 25.7865L8.10466 25.7922L8.11975 26.5421ZM8.40563 26.5363L8.42072 27.2862L8.70661 27.2804L8.69151 26.5306L8.67642 25.7807L8.39054 25.7865L8.40563 26.5363ZM8.69151 26.5306L8.70661 27.2804C8.76403 27.2792 8.8016 27.291 8.83673 27.3116L9.21571 26.6643L9.59468 26.0171C9.31207 25.8517 9.00018 25.7742 8.67642 25.7807L8.69151 26.5306ZM9.21571 26.6643L8.83673 27.3116L9.07504 27.4511L9.45402 26.8039L9.833 26.1567L9.59468 26.0171L9.21571 26.6643ZM9.45402 26.8039L9.07504 27.4511L9.31336 27.5906L9.69233 26.9434L10.0713 26.2962L9.833 26.1567L9.45402 26.8039ZM9.69233 26.9434L9.31336 27.5906C9.52852 27.7166 9.75651 27.8128 9.99616 27.877L10.1903 27.1526L10.3845 26.4282C10.2779 26.3996 10.1739 26.3563 10.0713 26.2962L9.69233 26.9434ZM10.1903 27.1526L9.99616 27.877L10.2559 27.9466L10.45 27.2222L10.6442 26.4978L10.3845 26.4282L10.1903 27.1526ZM10.45 27.2222L10.2559 27.9466L10.5156 28.0162L10.7098 27.2918L10.9039 26.5674L10.6442 26.4978L10.45 27.2222ZM10.7098 27.2918L10.5156 28.0162C10.8151 28.0965 11.1215 28.097 11.4213 28.0176L11.2293 27.2926L11.0374 26.5676C10.9907 26.58 10.9506 26.5799 10.9039 26.5674L10.7098 27.2918ZM11.2293 27.2926L11.4213 28.0176L11.6812 27.9488L11.4892 27.2238L11.2973 26.4988L11.0374 26.5676L11.2293 27.2926ZM11.4892 27.2238L11.6812 27.9488L11.9411 27.88L11.7491 27.155L11.5572 26.43L11.2973 26.4988L11.4892 27.2238ZM11.7491 27.155L11.9411 27.88C12.0798 27.8433 12.223 27.8159 12.3708 27.7982L12.2817 27.0536L12.1925 26.3089C11.9768 26.3347 11.7649 26.375 11.5572 26.43L11.7491 27.155ZM12.2817 27.0536L12.3708 27.7982L12.6435 27.7656L12.5543 27.0209L12.4652 26.2762L12.1925 26.3089L12.2817 27.0536ZM12.5543 27.0209L12.6435 27.7656L12.9161 27.733L12.827 26.9883L12.7379 26.2436L12.4652 26.2762L12.5543 27.0209ZM12.827 26.9883L12.9161 27.733C13.189 27.7003 13.4493 27.6192 13.6932 27.4927L13.3479 26.8269L13.0027 26.1611C12.9156 26.2063 12.8285 26.2327 12.7379 26.2436L12.827 26.9883ZM13.3479 26.8269L13.6932 27.4927L13.9415 27.3639L13.5962 26.6981L13.251 26.0323L13.0027 26.1611L13.3479 26.8269ZM13.5962 26.6981L13.9415 27.3639L14.1898 27.2352L13.8445 26.5694L13.4993 25.9036L13.251 26.0323L13.5962 26.6981ZM13.8445 26.5694L14.1898 27.2352C14.2486 27.2047 14.3009 27.1933 14.3565 27.194L14.3659 26.444L14.3752 25.6941C14.0668 25.6902 13.7715 25.7624 13.4993 25.9036L13.8445 26.5694ZM14.3659 26.444L14.3565 27.194L14.6296 27.1974L14.6389 26.4474L14.6483 25.6975L14.3752 25.6941L14.3659 26.444ZM14.6389 26.4474L14.6296 27.1974L14.9026 27.2008L14.912 26.4508L14.9213 25.7009L14.6483 25.6975L14.6389 26.4474ZM14.912 26.4508L14.9026 27.2008C15.0647 27.2028 15.2254 27.2113 15.3846 27.2261L15.4543 26.4793L15.5239 25.7326C15.3241 25.714 15.1233 25.7034 14.9213 25.7009L14.912 26.4508ZM15.4543 26.4793L15.3846 27.2261L15.6539 27.2512L15.7235 26.5044L15.7931 25.7577L15.5239 25.7326L15.4543 26.4793ZM15.7235 26.5044L15.6539 27.2512L15.9231 27.2763L15.9927 26.5295L16.0624 25.7828L15.7931 25.7577L15.7235 26.5044ZM15.9927 26.5295L15.9231 27.2763C16.0625 27.2893 16.2079 27.3142 16.3598 27.3521L16.5415 26.6244L16.7232 25.8968C16.5024 25.8417 16.282 25.8033 16.0624 25.7828L15.9927 26.5295ZM16.5415 26.6244L16.3598 27.3521L16.6393 27.4219L16.821 26.6942L17.0027 25.9666L16.7232 25.8968L16.5415 26.6244ZM16.821 26.6942L16.6393 27.4219L16.9188 27.4917L17.1005 26.764L17.2821 26.0364L17.0027 25.9666L16.821 26.6942ZM17.1005 26.764L16.9188 27.4917C17.0794 27.5318 17.2204 27.5762 17.3432 27.6237L17.6135 26.9241L17.8838 26.2245C17.6953 26.1516 17.4942 26.0893 17.2821 26.0364L17.1005 26.764ZM17.6135 26.9241L17.3432 27.6237L17.5768 27.7139L17.8471 27.0143L18.1174 26.3147L17.8838 26.2245L17.6135 26.9241ZM17.8471 27.0143L17.5768 27.7139L17.8104 27.8042L18.0807 27.1046L18.351 26.405L18.1174 26.3147L17.8471 27.0143ZM18.0807 27.1046L17.8104 27.8042C18.0583 27.8999 18.3177 27.9448 18.5825 27.9418L18.574 27.1919L18.5655 26.4419C18.4841 26.4428 18.4146 26.4295 18.351 26.405L18.0807 27.1046ZM18.574 27.1919L18.5825 27.9418L18.8421 27.9389L18.8336 27.1889L18.8251 26.439L18.5655 26.4419L18.574 27.1919ZM18.8336 27.1889L18.8421 27.9389L19.1018 27.9359L19.0933 27.186L19.0847 26.436L18.8251 26.439L18.8336 27.1889ZM19.0933 27.186L19.1018 27.9359C19.3363 27.9333 19.5682 27.9021 19.7964 27.8434L19.6095 27.117L19.4227 26.3907C19.3087 26.42 19.1964 26.4348 19.0847 26.436L19.0933 27.186ZM19.6095 27.117L19.7964 27.8434L20.0531 27.7773L19.8662 27.051L19.6793 26.3246L19.4227 26.3907L19.6095 27.117ZM19.8662 27.051L20.0531 27.7773L20.3097 27.7113L20.1228 26.985L19.936 26.2586L19.6793 26.3246L19.8662 27.051ZM20.1228 26.985L20.3097 27.7113C20.5799 27.6418 20.8284 27.5198 21.0537 27.3566L20.6135 26.7493L20.1734 26.142C20.0866 26.2049 20.0079 26.2401 19.936 26.2586L20.1228 26.985ZM20.6135 26.7493L21.0537 27.3566L21.2877 27.1869L20.8476 26.5796L20.4074 25.9724L20.1734 26.142L20.6135 26.7493ZM20.8476 26.5796L21.2877 27.1869L21.5218 27.0173L21.0816 26.41L20.6415 25.8027L20.4074 25.9724L20.8476 26.5796ZM21.0816 26.41L21.5218 27.0173C21.5087 27.0267 21.4791 27.0426 21.4387 27.0484C21.4004 27.0539 21.3814 27.0463 21.3918 27.0495L21.6146 26.3334L21.8375 25.6172C21.4341 25.4917 21.0067 25.538 20.6415 25.8027L21.0816 26.41ZM21.6146 26.3334L21.3918 27.0495L21.6907 27.1425L21.9135 26.4264L22.1364 25.7103L21.8375 25.6172L21.6146 26.3334ZM21.9135 26.4264L21.6907 27.1425L21.9896 27.2355L22.2124 26.5194L22.4353 25.8033L22.1364 25.7103L21.9135 26.4264ZM22.2124 26.5194L21.9896 27.2355C22.2603 27.3198 22.5397 27.3621 22.8216 27.3449L22.7761 26.5963L22.7305 25.8477C22.6595 25.852 22.5631 25.843 22.4353 25.8033L22.2124 26.5194ZM22.7761 26.5963L22.8216 27.3449L23.0864 27.3288L23.0408 26.5802L22.9952 25.8316L22.7305 25.8477L22.7761 26.5963ZM23.0408 26.5802L23.0864 27.3288L23.3511 27.3127L23.3055 26.5641L23.2599 25.8155L22.9952 25.8316L23.0408 26.5802ZM23.3055 26.5641L23.3511 27.3127C23.4644 27.3058 23.5932 27.3123 23.7395 27.3369L23.8638 26.5973L23.9881 25.8577C23.743 25.8165 23.4996 25.8009 23.2599 25.8155L23.3055 26.5641ZM23.8638 26.5973L23.7395 27.3369L24.033 27.3862L24.1573 26.6466L24.2816 25.907L23.9881 25.8577L23.8638 26.5973ZM24.1573 26.6466L24.033 27.3862L24.3266 27.4356L24.4509 26.6959L24.5752 25.9563L24.2816 25.907L24.1573 26.6466ZM24.4509 26.6959L24.3266 27.4356C24.3774 27.4441 24.4081 27.4608 24.4387 27.4899L24.9561 26.947L25.4735 26.4041C25.2219 26.1643 24.9158 26.0136 24.5752 25.9563L24.4509 26.6959ZM24.9561 26.947L24.4387 27.4899L24.6504 27.6917L25.1678 27.1487L25.6852 26.6058L25.4735 26.4041L24.9561 26.947ZM25.1678 27.1487L24.6504 27.6917L24.8621 27.8934L25.3795 27.3505L25.8969 26.8075L25.6852 26.6058L25.1678 27.1487ZM25.3795 27.3505L24.8621 27.8934C25.1752 28.1918 25.5827 28.3162 26.0112 28.2379L25.8765 27.5001L25.7418 26.7623C25.7497 26.7609 25.7821 26.7574 25.8258 26.7706C25.8693 26.7837 25.8931 26.8039 25.8969 26.8075L25.3795 27.3505ZM25.8765 27.5001L26.0112 28.2379L26.2965 28.1858L26.1618 27.448L26.0271 26.7102L25.7418 26.7623L25.8765 27.5001ZM26.1618 27.448L26.2965 28.1858L26.5819 28.1337L26.4471 27.3959L26.3124 26.6581L26.0271 26.7102L26.1618 27.448ZM26.4471 27.3959L26.5819 28.1337C26.6411 28.1229 26.6819 28.1201 26.707 28.1202C26.7321 28.1203 26.7353 28.1232 26.7231 28.1198L26.9244 27.3973L27.1256 26.6748C26.85 26.598 26.5673 26.6116 26.3124 26.6581L26.4471 27.3959ZM26.9244 27.3973L26.7231 28.1198L26.915 28.1732L27.1162 27.4507L27.3174 26.7282L27.1256 26.6748L26.9244 27.3973ZM27.1162 27.4507L26.915 28.1732L27.1069 28.2267L27.3081 27.5041L27.5093 26.7816L27.3174 26.7282L27.1162 27.4507ZM27.3081 27.5041L27.1069 28.2267C27.1764 28.246 27.2604 28.2676 27.3393 28.2796C27.3681 28.284 27.4572 28.2975 27.5633 28.2868C27.6094 28.2822 27.7431 28.2661 27.886 28.1794C28.0707 28.0674 28.25 27.8426 28.25 27.5333H27.5H26.75C26.75 27.4043 26.7838 27.2671 26.8613 27.1418C26.9358 27.0212 27.0306 26.9439 27.108 26.8969C27.2469 26.8127 27.3746 26.7982 27.4128 26.7944C27.4657 26.789 27.5062 26.7911 27.5237 26.7923C27.5442 26.7937 27.5587 26.7958 27.5648 26.7967C27.5797 26.7989 27.5678 26.7979 27.5093 26.7816L27.3081 27.5041ZM27.5 27.5333H28.25V27.5091H27.5H26.75V27.5333H27.5ZM27.5 27.5091L27.9257 26.8916L27.8276 26.8239L27.4018 27.4414L26.9761 28.0589L27.0743 28.1265L27.5 27.5091ZM27.4018 27.4414L27.2583 28.1775L27.3564 28.1967L27.5 27.4605L27.6436 26.7244L27.5454 26.7053L27.4018 27.4414Z" fill="#A8D8AA"/>
<path d="M2.35541 21.7246C1.94896 21.8045 1.68421 22.1987 1.76407 22.6051C1.84393 23.0116 2.23815 23.2763 2.64459 23.1965L2.35541 21.7246ZM2.59812 22.4413L2.83363 21.7292L2.64671 21.6674L2.45353 21.7053L2.59812 22.4413ZM3.91686 22.6972L3.69783 21.9799L3.91686 22.6972ZM4.98795 22.258L4.51511 21.6759L4.98795 22.258ZM5.43034 21.8987L4.95751 21.3166L5.43034 21.8987ZM7.54934 21.4501L7.30568 22.1594L7.54934 21.4501ZM9.21571 21.6643L9.59468 21.0171L9.21571 21.6643ZM9.69233 21.9434L9.31336 22.5906L9.69233 21.9434ZM10.1903 22.1526L10.3845 21.4282L10.1903 22.1526ZM10.45 22.2222L10.2559 22.9466L10.45 22.2222ZM10.7098 22.2918L10.9039 21.5674L10.7098 22.2918ZM11.2293 22.2926L11.4213 23.0176L11.2293 22.2926ZM11.7491 22.155L11.5572 21.43L11.7491 22.155ZM12.2817 22.0536L12.1925 21.3089L12.2817 22.0536ZM12.827 21.9883L12.9161 22.733L12.827 21.9883ZM13.3479 21.8269L13.0027 21.1611L13.3479 21.8269ZM14.3659 21.444L14.3565 22.194L14.3659 21.444ZM14.912 21.4508L14.9213 20.7009L14.912 21.4508ZM15.4543 21.4793L15.3846 22.2261L15.4543 21.4793ZM16.5415 21.6244L16.3598 22.3521L16.5415 21.6244ZM16.821 21.6942L16.6393 22.4219L16.821 21.6942ZM17.1005 21.764L17.2821 21.0364L17.1005 21.764ZM17.6135 21.9241L17.3432 22.6237L17.6135 21.9241ZM18.0807 22.1046L18.351 21.405L18.0807 22.1046ZM18.574 22.1919L18.5655 21.4419L18.574 22.1919ZM20.1228 21.985L19.936 21.2586L20.1228 21.985ZM21.6146 21.3334L21.3918 22.0495L21.6146 21.3334ZM21.9135 21.4264L21.6907 22.1425L21.9135 21.4264ZM22.7761 21.5963L22.7305 20.8477L22.7761 21.5963ZM23.8638 21.5973L23.9881 20.8577L23.8638 21.5973ZM24.1573 21.6466L24.2816 20.907L24.1573 21.6466ZM24.4509 21.6959L24.3266 22.4356L24.4509 21.6959ZM24.9561 21.947L24.4387 22.4899L24.9561 21.947ZM25.3795 22.3505L24.8621 22.8934L25.3795 22.3505ZM25.8765 22.5001L26.0112 23.2379L25.8765 22.5001ZM26.4471 22.3959L26.3124 21.6581L26.4471 22.3959ZM26.9244 22.3973L26.7231 23.1198L26.9244 22.3973ZM27.3081 22.5041L27.5093 21.7816L27.3081 22.5041ZM27.5 22.5091H28.25V22.1152L27.9257 21.8916L27.5 22.5091ZM27.4018 22.4414L27.5454 21.7053L26.9761 23.0589L27.4018 22.4414ZM27.3564 23.1967C27.763 23.276 28.1568 23.0107 28.2361 22.6041C28.3154 22.1976 28.0501 21.8037 27.6436 21.7244L27.3564 23.1967ZM2.5 22.4605L2.64459 23.1965L2.74272 23.1772L2.59812 22.4413L2.45353 21.7053L2.35541 21.7246L2.5 22.4605ZM2.59812 22.4413L2.36261 23.1533L2.88034 23.3246L3.11585 22.6125L3.35136 21.9004L2.83363 21.7292L2.59812 22.4413ZM3.11585 22.6125L2.88034 23.3246C3.26565 23.452 3.71846 23.542 4.1359 23.4145L3.91686 22.6972L3.69783 21.9799C3.72775 21.9708 3.72102 21.9805 3.65385 21.9734C3.58855 21.9665 3.48966 21.9462 3.35136 21.9004L3.11585 22.6125ZM3.91686 22.6972L4.1359 23.4145L4.41919 23.328L4.20016 22.6107L3.98112 21.8934L3.69783 21.9799L3.91686 22.6972ZM4.20016 22.6107L4.41919 23.328L4.70249 23.2415L4.48346 22.5242L4.26442 21.8069L3.98112 21.8934L4.20016 22.6107ZM4.48346 22.5242L4.70249 23.2415C4.98016 23.1567 5.23526 23.0234 5.46078 22.8402L4.98795 22.258L4.51511 21.6759C4.4457 21.7322 4.36448 21.7763 4.26442 21.8069L4.48346 22.5242ZM4.98795 22.258L5.46078 22.8402L5.68198 22.6606L5.20914 22.0784L4.73631 21.4962L4.51511 21.6759L4.98795 22.258ZM5.20914 22.0784L5.68198 22.6606L5.90318 22.4809L5.43034 21.8987L4.95751 21.3166L4.73631 21.4962L5.20914 22.0784ZM5.43034 21.8987L5.90318 22.4809C6.01264 22.392 6.13389 22.3112 6.26814 22.2389L5.9126 21.5785L5.55705 20.9182C5.34322 21.0333 5.14297 21.1659 4.95751 21.3166L5.43034 21.8987ZM5.9126 21.5785L6.26814 22.2389L6.5292 22.0983L6.17365 21.438L5.81811 20.7776L5.55705 20.9182L5.9126 21.5785ZM6.17365 21.438L6.5292 22.0983L6.79026 21.9578L6.43471 21.2974L6.07917 20.637L5.81811 20.7776L6.17365 21.438ZM6.43471 21.2974L6.79026 21.9578C6.79259 21.9565 6.79057 21.9579 6.78445 21.9597C6.77816 21.9616 6.76984 21.9634 6.76031 21.9641C6.75081 21.9649 6.74296 21.9644 6.73773 21.9637C6.73267 21.963 6.73213 21.9624 6.73663 21.9639L6.9803 21.2546L7.22396 20.5453C6.83976 20.4133 6.44043 20.4425 6.07917 20.637L6.43471 21.2974ZM6.9803 21.2546L6.73663 21.9639L7.02116 22.0617L7.26482 21.3523L7.50848 20.643L7.22396 20.5453L6.9803 21.2546ZM7.26482 21.3523L7.02116 22.0617L7.30568 22.1594L7.54934 21.4501L7.793 20.7408L7.50848 20.643L7.26482 21.3523ZM7.54934 21.4501L7.30568 22.1594C7.57419 22.2516 7.85178 22.2976 8.13484 22.2919L8.11975 21.5421L8.10466 20.7922C8.00654 20.7942 7.90386 20.7788 7.793 20.7408L7.54934 21.4501ZM8.11975 21.5421L8.13484 22.2919L8.42072 22.2862L8.40563 21.5363L8.39054 20.7865L8.10466 20.7922L8.11975 21.5421ZM8.40563 21.5363L8.42072 22.2862L8.70661 22.2804L8.69151 21.5306L8.67642 20.7807L8.39054 20.7865L8.40563 21.5363ZM8.69151 21.5306L8.70661 22.2804C8.76403 22.2792 8.8016 22.291 8.83673 22.3116L9.21571 21.6643L9.59468 21.0171C9.31207 20.8517 9.00018 20.7742 8.67642 20.7807L8.69151 21.5306ZM9.21571 21.6643L8.83673 22.3116L9.07504 22.4511L9.45402 21.8039L9.833 21.1567L9.59468 21.0171L9.21571 21.6643ZM9.45402 21.8039L9.07504 22.4511L9.31336 22.5906L9.69233 21.9434L10.0713 21.2962L9.833 21.1567L9.45402 21.8039ZM9.69233 21.9434L9.31336 22.5906C9.52852 22.7166 9.75651 22.8128 9.99616 22.877L10.1903 22.1526L10.3845 21.4282C10.2779 21.3996 10.1739 21.3563 10.0713 21.2962L9.69233 21.9434ZM10.1903 22.1526L9.99616 22.877L10.2559 22.9466L10.45 22.2222L10.6442 21.4978L10.3845 21.4282L10.1903 22.1526ZM10.45 22.2222L10.2559 22.9466L10.5156 23.0162L10.7098 22.2918L10.9039 21.5674L10.6442 21.4978L10.45 22.2222ZM10.7098 22.2918L10.5156 23.0162C10.8151 23.0965 11.1215 23.097 11.4213 23.0176L11.2293 22.2926L11.0374 21.5676C10.9907 21.58 10.9506 21.5799 10.9039 21.5674L10.7098 22.2918ZM11.2293 22.2926L11.4213 23.0176L11.6812 22.9488L11.4892 22.2238L11.2973 21.4988L11.0374 21.5676L11.2293 22.2926ZM11.4892 22.2238L11.6812 22.9488L11.9411 22.88L11.7491 22.155L11.5572 21.43L11.2973 21.4988L11.4892 22.2238ZM11.7491 22.155L11.9411 22.88C12.0798 22.8433 12.223 22.8159 12.3708 22.7982L12.2817 22.0536L12.1925 21.3089C11.9768 21.3347 11.7649 21.375 11.5572 21.43L11.7491 22.155ZM12.2817 22.0536L12.3708 22.7982L12.6435 22.7656L12.5543 22.0209L12.4652 21.2762L12.1925 21.3089L12.2817 22.0536ZM12.5543 22.0209L12.6435 22.7656L12.9161 22.733L12.827 21.9883L12.7379 21.2436L12.4652 21.2762L12.5543 22.0209ZM12.827 21.9883L12.9161 22.733C13.189 22.7003 13.4493 22.6192 13.6932 22.4927L13.3479 21.8269L13.0027 21.1611C12.9156 21.2063 12.8285 21.2327 12.7379 21.2436L12.827 21.9883ZM13.3479 21.8269L13.6932 22.4927L13.9415 22.3639L13.5962 21.6981L13.251 21.0323L13.0027 21.1611L13.3479 21.8269ZM13.5962 21.6981L13.9415 22.3639L14.1898 22.2352L13.8445 21.5694L13.4993 20.9036L13.251 21.0323L13.5962 21.6981ZM13.8445 21.5694L14.1898 22.2352C14.2486 22.2047 14.3009 22.1933 14.3565 22.194L14.3659 21.444L14.3752 20.6941C14.0668 20.6902 13.7715 20.7624 13.4993 20.9036L13.8445 21.5694ZM14.3659 21.444L14.3565 22.194L14.6296 22.1974L14.6389 21.4474L14.6483 20.6975L14.3752 20.6941L14.3659 21.444ZM14.6389 21.4474L14.6296 22.1974L14.9026 22.2008L14.912 21.4508L14.9213 20.7009L14.6483 20.6975L14.6389 21.4474ZM14.912 21.4508L14.9026 22.2008C15.0647 22.2028 15.2254 22.2113 15.3846 22.2261L15.4543 21.4793L15.5239 20.7326C15.3241 20.714 15.1233 20.7034 14.9213 20.7009L14.912 21.4508ZM15.4543 21.4793L15.3846 22.2261L15.6539 22.2512L15.7235 21.5044L15.7931 20.7577L15.5239 20.7326L15.4543 21.4793ZM15.7235 21.5044L15.6539 22.2512L15.9231 22.2763L15.9927 21.5295L16.0624 20.7828L15.7931 20.7577L15.7235 21.5044ZM15.9927 21.5295L15.9231 22.2763C16.0625 22.2893 16.2079 22.3142 16.3598 22.3521L16.5415 21.6244L16.7232 20.8968C16.5024 20.8417 16.282 20.8033 16.0624 20.7828L15.9927 21.5295ZM16.5415 21.6244L16.3598 22.3521L16.6393 22.4219L16.821 21.6942L17.0027 20.9666L16.7232 20.8968L16.5415 21.6244ZM16.821 21.6942L16.6393 22.4219L16.9188 22.4917L17.1005 21.764L17.2821 21.0364L17.0027 20.9666L16.821 21.6942ZM17.1005 21.764L16.9188 22.4917C17.0794 22.5318 17.2204 22.5762 17.3432 22.6237L17.6135 21.9241L17.8838 21.2245C17.6953 21.1516 17.4942 21.0893 17.2821 21.0364L17.1005 21.764ZM17.6135 21.9241L17.3432 22.6237L17.5768 22.7139L17.8471 22.0143L18.1174 21.3147L17.8838 21.2245L17.6135 21.9241ZM17.8471 22.0143L17.5768 22.7139L17.8104 22.8042L18.0807 22.1046L18.351 21.405L18.1174 21.3147L17.8471 22.0143ZM18.0807 22.1046L17.8104 22.8042C18.0583 22.8999 18.3177 22.9448 18.5825 22.9418L18.574 22.1919L18.5655 21.4419C18.4841 21.4428 18.4146 21.4295 18.351 21.405L18.0807 22.1046ZM18.574 22.1919L18.5825 22.9418L18.8421 22.9389L18.8336 22.1889L18.8251 21.439L18.5655 21.4419L18.574 22.1919ZM18.8336 22.1889L18.8421 22.9389L19.1018 22.9359L19.0933 22.186L19.0847 21.436L18.8251 21.439L18.8336 22.1889ZM19.0933 22.186L19.1018 22.9359C19.3363 22.9333 19.5682 22.9021 19.7964 22.8434L19.6095 22.117L19.4227 21.3907C19.3087 21.42 19.1964 21.4348 19.0847 21.436L19.0933 22.186ZM19.6095 22.117L19.7964 22.8434L20.0531 22.7773L19.8662 22.051L19.6793 21.3246L19.4227 21.3907L19.6095 22.117ZM19.8662 22.051L20.0531 22.7773L20.3097 22.7113L20.1228 21.985L19.936 21.2586L19.6793 21.3246L19.8662 22.051ZM20.1228 21.985L20.3097 22.7113C20.5799 22.6418 20.8284 22.5198 21.0537 22.3566L20.6135 21.7493L20.1734 21.142C20.0866 21.2049 20.0079 21.2401 19.936 21.2586L20.1228 21.985ZM20.6135 21.7493L21.0537 22.3566L21.2877 22.1869L20.8476 21.5796L20.4074 20.9724L20.1734 21.142L20.6135 21.7493ZM20.8476 21.5796L21.2877 22.1869L21.5218 22.0173L21.0816 21.41L20.6415 20.8027L20.4074 20.9724L20.8476 21.5796ZM21.0816 21.41L21.5218 22.0173C21.5087 22.0267 21.4791 22.0426 21.4387 22.0484C21.4004 22.0539 21.3814 22.0463 21.3918 22.0495L21.6146 21.3334L21.8375 20.6172C21.4341 20.4917 21.0067 20.538 20.6415 20.8027L21.0816 21.41ZM21.6146 21.3334L21.3918 22.0495L21.6907 22.1425L21.9135 21.4264L22.1364 20.7103L21.8375 20.6172L21.6146 21.3334ZM21.9135 21.4264L21.6907 22.1425L21.9896 22.2355L22.2124 21.5194L22.4353 20.8033L22.1364 20.7103L21.9135 21.4264ZM22.2124 21.5194L21.9896 22.2355C22.2603 22.3198 22.5397 22.3621 22.8216 22.3449L22.7761 21.5963L22.7305 20.8477C22.6595 20.852 22.5631 20.843 22.4353 20.8033L22.2124 21.5194ZM22.7761 21.5963L22.8216 22.3449L23.0864 22.3288L23.0408 21.5802L22.9952 20.8316L22.7305 20.8477L22.7761 21.5963ZM23.0408 21.5802L23.0864 22.3288L23.3511 22.3127L23.3055 21.5641L23.2599 20.8155L22.9952 20.8316L23.0408 21.5802ZM23.3055 21.5641L23.3511 22.3127C23.4644 22.3058 23.5932 22.3123 23.7395 22.3369L23.8638 21.5973L23.9881 20.8577C23.743 20.8165 23.4996 20.8009 23.2599 20.8155L23.3055 21.5641ZM23.8638 21.5973L23.7395 22.3369L24.033 22.3862L24.1573 21.6466L24.2816 20.907L23.9881 20.8577L23.8638 21.5973ZM24.1573 21.6466L24.033 22.3862L24.3266 22.4356L24.4509 21.6959L24.5752 20.9563L24.2816 20.907L24.1573 21.6466ZM24.4509 21.6959L24.3266 22.4356C24.3774 22.4441 24.4081 22.4608 24.4387 22.4899L24.9561 21.947L25.4735 21.4041C25.2219 21.1643 24.9158 21.0136 24.5752 20.9563L24.4509 21.6959ZM24.9561 21.947L24.4387 22.4899L24.6504 22.6917L25.1678 22.1487L25.6852 21.6058L25.4735 21.4041L24.9561 21.947ZM25.1678 22.1487L24.6504 22.6917L24.8621 22.8934L25.3795 22.3505L25.8969 21.8075L25.6852 21.6058L25.1678 22.1487ZM25.3795 22.3505L24.8621 22.8934C25.1752 23.1918 25.5827 23.3162 26.0112 23.2379L25.8765 22.5001L25.7418 21.7623C25.7497 21.7609 25.7821 21.7574 25.8258 21.7706C25.8693 21.7837 25.8931 21.8039 25.8969 21.8075L25.3795 22.3505ZM25.8765 22.5001L26.0112 23.2379L26.2965 23.1858L26.1618 22.448L26.0271 21.7102L25.7418 21.7623L25.8765 22.5001ZM26.1618 22.448L26.2965 23.1858L26.5819 23.1337L26.4471 22.3959L26.3124 21.6581L26.0271 21.7102L26.1618 22.448ZM26.4471 22.3959L26.5819 23.1337C26.6411 23.1229 26.6819 23.1201 26.707 23.1202C26.7321 23.1203 26.7353 23.1232 26.7231 23.1198L26.9244 22.3973L27.1256 21.6748C26.85 21.598 26.5673 21.6116 26.3124 21.6581L26.4471 22.3959ZM26.9244 22.3973L26.7231 23.1198L26.915 23.1732L27.1162 22.4507L27.3174 21.7282L27.1256 21.6748L26.9244 22.3973ZM27.1162 22.4507L26.915 23.1732L27.1069 23.2267L27.3081 22.5041L27.5093 21.7816L27.3174 21.7282L27.1162 22.4507ZM27.3081 22.5041L27.1069 23.2267C27.1764 23.246 27.2604 23.2676 27.3393 23.2796C27.3681 23.284 27.4572 23.2975 27.5633 23.2868C27.6094 23.2822 27.7431 23.2661 27.886 23.1794C28.0707 23.0674 28.25 22.8426 28.25 22.5333H27.5H26.75C26.75 22.4043 26.7838 22.2671 26.8613 22.1418C26.9358 22.0212 27.0306 21.9439 27.108 21.8969C27.2469 21.8127 27.3746 21.7982 27.4128 21.7944C27.4657 21.789 27.5062 21.7911 27.5237 21.7923C27.5442 21.7937 27.5587 21.7958 27.5648 21.7967C27.5797 21.7989 27.5678 21.7979 27.5093 21.7816L27.3081 22.5041ZM27.5 22.5333H28.25V22.5091H27.5H26.75V22.5333H27.5ZM27.5 22.5091L27.9257 21.8916L27.8276 21.8239L27.4018 22.4414L26.9761 23.0589L27.0743 23.1265L27.5 22.5091ZM27.4018 22.4414L27.2583 23.1775L27.3564 23.1967L27.5 22.4605L27.6436 21.7244L27.5454 21.7053L27.4018 22.4414Z" fill="#A8D8AA"/>
<path d="M2.5 16.75C2.08579 16.75 1.75 17.0858 1.75 17.5C1.75 17.9142 2.08579 18.25 2.5 18.25V16.75ZM2.6 17.5L2.82488 16.7845L2.71509 16.75H2.6V17.5ZM7.28125 17.4168L6.98404 18.1054L7.28125 17.4168ZM8.96875 17.4979L8.73019 16.7868L8.96875 17.4979ZM10.6562 17.3606L10.6377 18.1104L10.6562 17.3606ZM11.2188 17.3745L11.2373 16.6247L11.2188 17.3745ZM11.7812 17.3301L11.9158 18.068L11.7812 17.3301ZM12.3438 17.2276L12.2092 16.4898L12.3438 17.2276ZM12.9062 17.2513L13.0995 16.5266L12.9062 17.2513ZM13.4688 17.4013L13.2755 18.126L13.4688 17.4013ZM14.0312 17.4868L14.0031 18.2363L14.0312 17.4868ZM15.1562 17.5635L15.0377 18.304L15.1562 17.5635ZM17.4062 17.4366L17.1615 16.7276L17.4062 17.4366ZM17.9688 17.2424L18.2135 17.9514L17.9688 17.2424ZM18.5312 17.1634L18.4831 17.9119L18.5312 17.1634ZM19.0938 17.1996L19.0456 17.9481L19.0938 17.1996ZM19.9375 17.2313L19.9194 17.9811L19.9375 17.2313ZM21.3438 17.3175L21.2794 18.0648L21.3438 17.3175ZM22.4688 17.273L22.4079 16.5255L22.4688 17.273ZM23.0312 17.4032L23.3898 16.7444L23.0312 17.4032ZM23.5938 17.7093L23.2352 18.368L23.5938 17.7093ZM25.2812 17.4862L25.5664 18.1798L25.2812 17.4862ZM25.8438 17.255L25.5586 16.5613L25.8438 17.255ZM26.4062 17.264L26.7101 16.5783L26.4062 17.264ZM26.9688 17.5132L26.6649 18.1989L26.9688 17.5132ZM27.3125 17.6034L27.6746 18.2602L27.3125 17.6034ZM27.375 17.5689L27.7371 18.2257L27.9839 18.0896L28.08 17.8247L27.375 17.5689ZM27.4 17.5V16.75H26.8743L26.695 17.2442L27.4 17.5ZM27.5 18.25C27.9142 18.25 28.25 17.9142 28.25 17.5C28.25 17.0858 27.9142 16.75 27.5 16.75V18.25ZM2.5 17.5V18.25H2.6V17.5V16.75H2.5V17.5ZM2.6 17.5L2.37512 18.2155L2.88762 18.3766L3.1125 17.6611L3.33738 16.9456L2.82488 16.7845L2.6 17.5ZM3.1125 17.6611L2.88762 18.3766C3.2606 18.4938 3.67072 18.5766 4.04447 18.5066L3.90625 17.7694L3.76803 17.0323C3.77794 17.0304 3.75054 17.0368 3.66862 17.0256C3.58955 17.0148 3.48058 16.9906 3.33738 16.9456L3.1125 17.6611ZM3.90625 17.7694L4.04447 18.5066L4.32572 18.4538L4.1875 17.7167L4.04928 16.9795L3.76803 17.0323L3.90625 17.7694ZM4.1875 17.7167L4.32572 18.4538L4.60697 18.4011L4.46875 17.6639L4.33053 16.9268L4.04928 16.9795L4.1875 17.7167ZM4.46875 17.6639L4.60697 18.4011C4.81189 18.3627 5.01642 18.3168 5.22054 18.2636L5.03125 17.5379L4.84197 16.8121C4.67108 16.8567 4.50061 16.8949 4.33053 16.9268L4.46875 17.6639ZM5.03125 17.5379L5.22054 18.2636L5.50179 18.1902L5.3125 17.4645L5.12322 16.7388L4.84197 16.8121L5.03125 17.5379ZM5.3125 17.4645L5.50179 18.1902L5.78304 18.1169L5.59375 17.3911L5.40447 16.6654L5.12322 16.7388L5.3125 17.4645ZM5.59375 17.3911L5.78304 18.1169C5.91546 18.0823 6.04447 18.0646 6.17117 18.062L6.15625 17.3122L6.14133 16.5623C5.89303 16.5673 5.64704 16.6021 5.40447 16.6654L5.59375 17.3911ZM6.15625 17.3122L6.17117 18.062L6.45242 18.0564L6.4375 17.3066L6.42258 16.5567L6.14133 16.5623L6.15625 17.3122ZM6.4375 17.3066L6.45242 18.0564L6.73367 18.0508L6.71875 17.301L6.70383 16.5511L6.42258 16.5567L6.4375 17.3066ZM6.71875 17.301L6.73367 18.0508C6.8047 18.0494 6.88615 18.0631 6.98404 18.1054L7.28125 17.4168L7.57846 16.7282C7.30135 16.6086 7.0078 16.5451 6.70383 16.5511L6.71875 17.301ZM7.28125 17.4168L6.98404 18.1054L7.26529 18.2268L7.5625 17.5382L7.85971 16.8496L7.57846 16.7282L7.28125 17.4168ZM7.5625 17.5382L7.26529 18.2268L7.54654 18.3482L7.84375 17.6596L8.14096 16.971L7.85971 16.8496L7.5625 17.5382ZM7.84375 17.6596L7.54654 18.3482C7.89768 18.4997 8.27588 18.5214 8.64481 18.3976L8.40625 17.6866L8.16769 16.9755C8.16185 16.9775 8.15907 16.9779 8.15893 16.9779C8.15886 16.9779 8.15977 16.9778 8.161 16.9779C8.1622 16.9779 8.16182 16.9781 8.15929 16.9775C8.15665 16.9768 8.15063 16.9751 8.14096 16.971L7.84375 17.6596ZM8.40625 17.6866L8.64481 18.3976L8.92606 18.3033L8.6875 17.5922L8.44894 16.8812L8.16769 16.9755L8.40625 17.6866ZM8.6875 17.5922L8.92606 18.3033L9.20731 18.2089L8.96875 17.4979L8.73019 16.7868L8.44894 16.8812L8.6875 17.5922ZM8.96875 17.4979L9.20731 18.2089C9.33205 18.1671 9.45052 18.1454 9.56445 18.1403L9.53125 17.391L9.49805 16.6418C9.23698 16.6533 8.98045 16.7029 8.73019 16.7868L8.96875 17.4979ZM9.53125 17.391L9.56445 18.1403L9.8457 18.1278L9.8125 17.3786L9.7793 16.6293L9.49805 16.6418L9.53125 17.391ZM9.8125 17.3786L9.8457 18.1278L10.127 18.1154L10.0938 17.3661L10.0605 16.6169L9.7793 16.6293L9.8125 17.3786ZM10.0938 17.3661L10.127 18.1154C10.2972 18.1078 10.4675 18.1062 10.6377 18.1104L10.6562 17.3606L10.6748 16.6108C10.47 16.6058 10.2653 16.6078 10.0605 16.6169L10.0938 17.3661ZM10.6562 17.3606L10.6377 18.1104L10.919 18.1173L10.9375 17.3675L10.956 16.6178L10.6748 16.6108L10.6562 17.3606ZM10.9375 17.3675L10.919 18.1173L11.2002 18.1242L11.2188 17.3745L11.2373 16.6247L10.956 16.6178L10.9375 17.3675ZM11.2188 17.3745L11.2002 18.1242C11.4399 18.1302 11.6786 18.1112 11.9158 18.068L11.7812 17.3301L11.6467 16.5923C11.5089 16.6174 11.3726 16.628 11.2373 16.6247L11.2188 17.3745ZM11.7812 17.3301L11.9158 18.068L12.197 18.0167L12.0625 17.2789L11.928 16.541L11.6467 16.5923L11.7812 17.3301ZM12.0625 17.2789L12.197 18.0167L12.4783 17.9654L12.3438 17.2276L12.2092 16.4898L11.928 16.541L12.0625 17.2789ZM12.3438 17.2276L12.4783 17.9654C12.5549 17.9515 12.6305 17.954 12.713 17.976L12.9062 17.2513L13.0995 16.5266C12.807 16.4486 12.5076 16.4354 12.2092 16.4898L12.3438 17.2276ZM12.9062 17.2513L12.713 17.976L12.9943 18.051L13.1875 17.3263L13.3807 16.6016L13.0995 16.5266L12.9062 17.2513ZM13.1875 17.3263L12.9943 18.051L13.2755 18.126L13.4688 17.4013L13.662 16.6766L13.3807 16.6016L13.1875 17.3263ZM13.4688 17.4013L13.2755 18.126C13.5151 18.1898 13.758 18.2271 14.0031 18.2363L14.0312 17.4868L14.0594 16.7373C13.9295 16.7325 13.7974 16.7127 13.662 16.6766L13.4688 17.4013ZM14.0312 17.4868L14.0031 18.2363L14.2844 18.2468L14.3125 17.4973L14.3406 16.7479L14.0594 16.7373L14.0312 17.4868ZM14.3125 17.4973L14.2844 18.2468L14.5656 18.2574L14.5938 17.5079L14.6219 16.7584L14.3406 16.7479L14.3125 17.4973ZM14.5938 17.5079L14.5656 18.2574C14.7225 18.2632 14.8798 18.2787 15.0377 18.304L15.1562 17.5635L15.2748 16.8229C15.0577 16.7881 14.84 16.7666 14.6219 16.7584L14.5938 17.5079ZM15.1562 17.5635L15.0377 18.304L15.3189 18.3491L15.4375 17.6085L15.5561 16.8679L15.2748 16.8229L15.1562 17.5635ZM15.4375 17.6085L15.3189 18.3491L15.6002 18.3941L15.7188 17.6535L15.8373 16.913L15.5561 16.8679L15.4375 17.6085ZM15.7188 17.6535L15.6002 18.3941C15.8628 18.4362 16.127 18.438 16.39 18.3994L16.2812 17.6573L16.1725 16.9153C16.0605 16.9317 15.9497 16.931 15.8373 16.913L15.7188 17.6535ZM16.2812 17.6573L16.39 18.3994L16.6713 18.3582L16.5625 17.6161L16.4537 16.874L16.1725 16.9153L16.2812 17.6573ZM16.5625 17.6161L16.6713 18.3582L16.9525 18.3169L16.8438 17.5749L16.735 16.8328L16.4537 16.874L16.5625 17.6161ZM16.8438 17.5749L16.9525 18.3169C17.1884 18.2824 17.4213 18.2248 17.651 18.1455L17.4062 17.4366L17.1615 16.7276C17.0162 16.7778 16.8741 16.8124 16.735 16.8328L16.8438 17.5749ZM17.4062 17.4366L17.651 18.1455L17.9322 18.0484L17.6875 17.3395L17.4428 16.6305L17.1615 16.7276L17.4062 17.4366ZM17.6875 17.3395L17.9322 18.0484L18.2135 17.9514L17.9688 17.2424L17.724 16.5334L17.4428 16.6305L17.6875 17.3395ZM17.9688 17.2424L18.2135 17.9514C18.3122 17.9173 18.4003 17.9065 18.4831 17.9119L18.5312 17.1634L18.5794 16.415C18.2872 16.3962 18.0003 16.4381 17.724 16.5334L17.9688 17.2424ZM18.5312 17.1634L18.4831 17.9119L18.7643 17.93L18.8125 17.1815L18.8607 16.4331L18.5794 16.415L18.5312 17.1634ZM18.8125 17.1815L18.7643 17.93L19.0456 17.9481L19.0938 17.1996L19.1419 16.4512L18.8607 16.4331L18.8125 17.1815ZM19.0938 17.1996L19.0456 17.9481C19.2431 17.9608 19.4406 17.9695 19.6381 17.9743L19.6562 17.2245L19.6744 16.4747C19.4969 16.4704 19.3194 16.4626 19.1419 16.4512L19.0938 17.1996ZM19.6562 17.2245L19.6381 17.9743L19.9194 17.9811L19.9375 17.2313L19.9556 16.4815L19.6744 16.4747L19.6562 17.2245ZM19.9375 17.2313L19.9194 17.9811L20.2006 17.9879L20.2188 17.2381L20.2369 16.4883L19.9556 16.4815L19.9375 17.2313ZM20.2188 17.2381L20.2006 17.9879C20.3727 17.992 20.5447 18.0015 20.7169 18.0163L20.7812 17.2691L20.8456 16.5219C20.6428 16.5044 20.4398 16.4932 20.2369 16.4883L20.2188 17.2381ZM20.7812 17.2691L20.7169 18.0163L20.9982 18.0405L21.0625 17.2933L21.1268 16.5461L20.8456 16.5219L20.7812 17.2691ZM21.0625 17.2933L20.9982 18.0405L21.2794 18.0648L21.3438 17.3175L21.4081 16.5703L21.1268 16.5461L21.0625 17.2933ZM21.3438 17.3175L21.2794 18.0648C21.5086 18.0845 21.738 18.085 21.9671 18.0663L21.9062 17.3188L21.8454 16.5713C21.6995 16.5832 21.5539 16.5828 21.4081 16.5703L21.3438 17.3175ZM21.9062 17.3188L21.9671 18.0663L22.2484 18.0434L22.1875 17.2959L22.1266 16.5484L21.8454 16.5713L21.9062 17.3188ZM22.1875 17.2959L22.2484 18.0434L22.5296 18.0205L22.4688 17.273L22.4079 16.5255L22.1266 16.5484L22.1875 17.2959ZM22.4688 17.273L22.5296 18.0205C22.5527 18.0186 22.5956 18.02 22.6727 18.0619L23.0312 17.4032L23.3898 16.7444C23.0919 16.5823 22.7598 16.4968 22.4079 16.5255L22.4688 17.273ZM23.0312 17.4032L22.6727 18.0619L22.954 18.215L23.3125 17.5562L23.671 16.8975L23.3898 16.7444L23.0312 17.4032ZM23.3125 17.5562L22.954 18.215L23.2352 18.368L23.5938 17.7093L23.9523 17.0505L23.671 16.8975L23.3125 17.5562ZM23.5938 17.7093L23.2352 18.368C23.565 18.5475 23.9393 18.6173 24.3255 18.5278L24.1562 17.7972L23.987 17.0665C23.9852 17.0669 23.9856 17.0667 23.9874 17.0667C23.9882 17.0666 23.989 17.0666 23.9897 17.0667C23.9904 17.0667 23.9908 17.0668 23.9908 17.0668C23.9908 17.0668 23.9902 17.0667 23.9888 17.0663C23.9875 17.066 23.9853 17.0654 23.9823 17.0643C23.9763 17.0622 23.9663 17.0581 23.9523 17.0505L23.5938 17.7093ZM24.1562 17.7972L24.3255 18.5278L24.6067 18.4627L24.4375 17.732L24.2683 17.0014L23.987 17.0665L24.1562 17.7972ZM24.4375 17.732L24.6067 18.4627L24.888 18.3976L24.7188 17.6669L24.5495 16.9362L24.2683 17.0014L24.4375 17.732ZM24.7188 17.6669L24.888 18.3976C25.1171 18.3445 25.3433 18.2715 25.5664 18.1798L25.2812 17.4862L24.9961 16.7925C24.8442 16.8549 24.6954 16.9025 24.5495 16.9362L24.7188 17.6669ZM25.2812 17.4862L25.5664 18.1798L25.8476 18.0642L25.5625 17.3706L25.2774 16.6769L24.9961 16.7925L25.2812 17.4862ZM25.5625 17.3706L25.8476 18.0642L26.1289 17.9486L25.8438 17.255L25.5586 16.5613L25.2774 16.6769L25.5625 17.3706ZM25.8438 17.255L26.1289 17.9486C26.1333 17.9468 26.1335 17.9472 26.1297 17.948C26.1258 17.9487 26.1199 17.9494 26.113 17.9493C26.1061 17.9492 26.1007 17.9483 26.0978 17.9477C26.0951 17.947 26.0965 17.947 26.1024 17.9497L26.4062 17.264L26.7101 16.5783C26.338 16.4134 25.9378 16.4054 25.5586 16.5613L25.8438 17.255ZM26.4062 17.264L26.1024 17.9497L26.3837 18.0743L26.6875 17.3886L26.9913 16.7029L26.7101 16.5783L26.4062 17.264ZM26.6875 17.3886L26.3837 18.0743L26.6649 18.1989L26.9688 17.5132L27.2726 16.8275L26.9913 16.7029L26.6875 17.3886ZM26.9688 17.5132L26.6649 18.1989C26.773 18.2468 26.8908 18.2936 27.005 18.3235C27.0615 18.3383 27.1417 18.3557 27.2336 18.3599C27.3115 18.3634 27.4885 18.3628 27.6746 18.2602L27.3125 17.6034L26.9504 16.9466C27.038 16.8983 27.1183 16.8781 27.1734 16.8692C27.2289 16.8602 27.2737 16.8602 27.3015 16.8614C27.3303 16.8627 27.3517 16.8659 27.3637 16.868C27.3761 16.8701 27.3837 16.8721 27.3856 16.8726C27.3886 16.8734 27.3805 16.8714 27.3587 16.8632C27.3378 16.8554 27.3094 16.8438 27.2726 16.8275L26.9688 17.5132ZM27.3125 17.6034L27.6746 18.2602L27.7371 18.2257L27.375 17.5689L27.0129 16.9121L26.9504 16.9466L27.3125 17.6034ZM27.375 17.5689L28.08 17.8247L28.105 17.7558L27.4 17.5L26.695 17.2442L26.67 17.3131L27.375 17.5689ZM27.4 17.5V18.25H27.5V17.5V16.75H27.4V17.5Z" fill="#A8D8AA"/>
<path d="M6.75 17.5C6.75 17.9142 7.08579 18.25 7.5 18.25C7.91421 18.25 8.25 17.9142 8.25 17.5H6.75ZM7.5 17.4L6.78451 17.1751L6.75 17.2849V17.4H7.5ZM7.66108 16.8875L6.94558 16.6626L7.66108 16.8875ZM7.76941 16.0938L8.50657 15.9555L7.76941 16.0938ZM7.71668 15.8125L6.97953 15.9507L7.71668 15.8125ZM7.66394 15.5312L8.4011 15.393L7.66394 15.5312ZM7.53785 14.9688L6.81213 15.158L7.53785 14.9688ZM7.39114 14.4062L6.66542 14.5955L7.39114 14.4062ZM7.31218 13.8438L6.56233 13.8587L7.31218 13.8438ZM7.65956 12.1562L6.97096 11.859L7.65956 12.1562ZM7.68659 11.5938L8.39764 11.3552L7.68659 11.5938ZM7.49787 11.0312L6.78682 11.2698L7.49787 11.0312ZM7.39104 10.4688L8.14031 10.4355L7.39104 10.4688ZM7.37858 10.1875L6.62932 10.2207L7.37858 10.1875ZM7.3606 9.34375L8.11037 9.36225L7.3606 9.34375ZM7.36754 9.0625L6.61777 9.044L7.36754 9.0625ZM7.33014 8.21875L6.5923 8.35327L7.33014 8.21875ZM7.22759 7.65625L6.48975 7.79077L7.22759 7.65625ZM7.2513 7.09375L6.52661 6.90054L7.2513 7.09375ZM7.48679 5.96875L6.73732 5.94065L7.48679 5.96875ZM7.49734 5.6875L8.24681 5.7156L7.49734 5.6875ZM7.56346 4.84375L6.8229 4.72517L7.56346 4.84375ZM7.64893 3.9375L8.23621 3.47103L7.64893 3.9375ZM7.59928 3.875L8.18657 3.40853L8.02865 3.2097L7.78242 3.1477L7.59928 3.875ZM7.5 3.85H6.75V4.43456L7.31687 4.5773L7.5 3.85ZM7.5 3.75L7.98014 3.17383L7.5 2.77372L7.01986 3.17383L7.5 3.75ZM7.42318 3.81402L6.94304 3.23785L6.8772 3.29272L6.82543 3.36103L7.42318 3.81402ZM6.68708 4.89283L6.00144 4.58887L6.68708 4.89283ZM5.60031 6.06289L5.95125 6.72572L5.60031 6.06289ZM4.92719 6.65826L4.37434 6.15145L4.92719 6.65826ZM3.75 7.03265L3.04135 6.78705L3 6.90637V7.03265H3.75ZM3.82682 6.81098L4.53547 7.05658L5.41867 4.50816L3.34668 6.23482L3.82682 6.81098ZM3.26986 6.29883C2.95165 6.56401 2.90866 7.03693 3.17383 7.35514C3.43901 7.67335 3.91193 7.71634 4.23014 7.45117L3.26986 6.29883ZM7.57682 3.81402L8.32303 3.73874L8.29229 3.43396L8.05696 3.23785L7.57682 3.81402ZM7.91824 5.13958L8.40575 4.56963L7.91824 5.13958ZM8.88142 5.80936L8.66096 6.52622L8.88142 5.80936ZM9.44394 5.98235L9.6644 5.26549L9.44394 5.98235ZM10.1323 6.50271L10.6792 5.98955L10.1323 6.50271ZM10.3358 6.71964L9.78882 7.2328L10.3358 6.71964ZM11.0723 6.79464L10.8794 6.0699L11.0723 6.79464ZM11.25 6.81117L11.2482 7.56117L12 7.563V6.81117H11.25ZM11.1732 6.81098L11.175 6.06098L9.09557 6.05592L10.693 7.38715L11.1732 6.81098ZM10.7699 7.45117C11.0881 7.71634 11.561 7.67335 11.8262 7.35514C12.0913 7.03693 12.0483 6.56401 11.7301 6.29883L10.7699 7.45117ZM3.37208 9.97718C3.0143 10.1859 2.89346 10.6451 3.10218 11.0029C3.3109 11.3607 3.77014 11.4815 4.12792 11.2728L3.37208 9.97718ZM3.83638 10.5746L3.61689 9.85745L3.53365 9.88292L3.45846 9.92679L3.83638 10.5746ZM5.07268 10.2018L4.86665 9.48069L5.07268 10.2018ZM5.62368 10.0444L5.82971 10.7656L5.62368 10.0444ZM6.10387 9.76275L6.63192 10.2954L6.10387 9.76275ZM6.30857 9.5598L5.78052 9.0272L6.30857 9.5598ZM6.51326 9.35686L5.98521 8.82426L6.51326 9.35686ZM6.94146 8.94812L6.43346 8.39637L6.94146 8.94812ZM7.38847 8.53656L7.89648 9.08831L7.38847 8.53656ZM7.64449 8.21554L6.92269 8.01183L7.64449 8.21554ZM7.70953 7.98508L8.43134 8.18879L7.70953 7.98508ZM7.84459 8.1365L8.54462 7.86733L7.84459 8.1365ZM8.04965 8.66981L8.74968 8.40064L8.04965 8.66981ZM8.3348 9.15962L7.75438 9.63461L8.3348 9.15962ZM8.70002 9.60591L9.28044 9.13091L8.70002 9.60591ZM9.11589 10.0121L8.65289 10.6021L9.11589 10.0121ZM9.58238 10.3781L10.0454 9.78811L9.58238 10.3781ZM10.1097 10.6113L10.2356 9.8719L10.1097 10.6113ZM10.6979 10.7114L10.8238 9.97207L10.6979 10.7114ZM11.0565 10.7274L11.4072 11.3903L11.0565 10.7274ZM11.121 10.6933L11.4717 11.3562L11.7285 11.2204L11.8268 10.947L11.121 10.6933ZM11.1636 10.5746L11.5415 9.92679L10.7628 9.4725L10.4578 10.3209L11.1636 10.5746ZM10.8721 11.2728C11.2299 11.4815 11.6891 11.3607 11.8978 11.0029C12.1065 10.6451 11.9857 10.1859 11.6279 9.97718L10.8721 11.2728ZM7.5 17.5H8.25V17.4H7.5H6.75V17.5H7.5ZM7.5 17.4L8.21549 17.6249L8.37657 17.1124L7.66108 16.8875L6.94558 16.6626L6.78451 17.1751L7.5 17.4ZM7.66108 16.8875L8.37657 17.1124C8.49379 16.7394 8.57665 16.3293 8.50657 15.9555L7.76941 16.0938L7.03226 16.232C7.0304 16.2221 7.03677 16.2495 7.02559 16.3314C7.0148 16.4105 6.99059 16.5194 6.94558 16.6626L7.66108 16.8875ZM7.76941 16.0938L8.50657 15.9555L8.45383 15.6743L7.71668 15.8125L6.97953 15.9507L7.03226 16.232L7.76941 16.0938ZM7.71668 15.8125L8.45383 15.6743L8.4011 15.393L7.66394 15.5312L6.92679 15.6695L6.97953 15.9507L7.71668 15.8125ZM7.66394 15.5312L8.4011 15.393C8.36267 15.1881 8.31681 14.9836 8.26357 14.7795L7.53785 14.9688L6.81213 15.158C6.8567 15.3289 6.8949 15.4994 6.92679 15.6695L7.66394 15.5312ZM7.53785 14.9688L8.26357 14.7795L8.19022 14.4982L7.46449 14.6875L6.73877 14.8768L6.81213 15.158L7.53785 14.9688ZM7.46449 14.6875L8.19022 14.4982L8.11686 14.217L7.39114 14.4062L6.66542 14.5955L6.73877 14.8768L7.46449 14.6875ZM7.39114 14.4062L8.11686 14.217C8.08232 14.0845 8.06456 13.9555 8.06204 13.8288L7.31218 13.8438L6.56233 13.8587C6.56727 14.107 6.60215 14.353 6.66542 14.5955L7.39114 14.4062ZM7.31218 13.8438L8.06204 13.8288L8.05644 13.5476L7.30659 13.5625L6.55673 13.5774L6.56233 13.8587L7.31218 13.8438ZM7.30659 13.5625L8.05644 13.5476L8.05084 13.2663L7.30099 13.2812L6.55114 13.2962L6.55673 13.5774L7.30659 13.5625ZM7.30099 13.2812L8.05084 13.2663C8.04943 13.1953 8.06313 13.1139 8.10538 13.016L7.41678 12.7188L6.72818 12.4215C6.60858 12.6986 6.54509 12.9922 6.55114 13.2962L7.30099 13.2812ZM7.41678 12.7188L8.10538 13.016L8.22677 12.7347L7.53817 12.4375L6.84957 12.1403L6.72818 12.4215L7.41678 12.7188ZM7.53817 12.4375L8.22677 12.7347L8.34816 12.4535L7.65956 12.1562L6.97096 11.859L6.84957 12.1403L7.53817 12.4375ZM7.65956 12.1562L8.34816 12.4535C8.49971 12.1023 8.52142 11.7241 8.39764 11.3552L7.68659 11.5938L6.97554 11.8323C6.9775 11.8381 6.97789 11.8409 6.97792 11.8411C6.97792 11.8411 6.97782 11.8402 6.97788 11.839C6.97794 11.8378 6.97806 11.8382 6.97745 11.8407C6.97682 11.8433 6.97514 11.8494 6.97096 11.859L7.65956 12.1562ZM7.68659 11.5938L8.39764 11.3552L8.30328 11.0739L7.59223 11.3125L6.88118 11.5511L6.97554 11.8323L7.68659 11.5938ZM7.59223 11.3125L8.30328 11.0739L8.20892 10.7927L7.49787 11.0312L6.78682 11.2698L6.88118 11.5511L7.59223 11.3125ZM7.49787 11.0312L8.20892 10.7927C8.16707 10.668 8.14536 10.5495 8.14031 10.4355L7.39104 10.4688L6.64178 10.502C6.65335 10.763 6.70285 11.0195 6.78682 11.2698L7.49787 11.0312ZM7.39104 10.4688L8.14031 10.4355L8.12785 10.1543L7.37858 10.1875L6.62932 10.2207L6.64178 10.502L7.39104 10.4688ZM7.37858 10.1875L8.12785 10.1543L8.11538 9.87305L7.36612 9.90625L6.61685 9.93945L6.62932 10.2207L7.37858 10.1875ZM7.36612 9.90625L8.11538 9.87305C8.10784 9.70276 8.10617 9.53251 8.11037 9.36225L7.3606 9.34375L6.61083 9.32525C6.60577 9.52999 6.60778 9.73474 6.61685 9.93945L7.36612 9.90625ZM7.3606 9.34375L8.11037 9.36225L8.11731 9.081L7.36754 9.0625L6.61777 9.044L6.61083 9.32525L7.3606 9.34375ZM7.36754 9.0625L8.11731 9.081L8.12425 8.79975L7.37448 8.78125L6.62471 8.76275L6.61777 9.044L7.36754 9.0625ZM7.37448 8.78125L8.12425 8.79975C8.13016 8.56015 8.11121 8.32138 8.06798 8.08423L7.33014 8.21875L6.5923 8.35327C6.61744 8.49112 6.62805 8.62736 6.62471 8.76275L7.37448 8.78125ZM7.33014 8.21875L8.06798 8.08423L8.0167 7.80298L7.27887 7.9375L6.54103 8.07202L6.5923 8.35327L7.33014 8.21875ZM7.27887 7.9375L8.0167 7.80298L7.96543 7.52173L7.22759 7.65625L6.48975 7.79077L6.54103 8.07202L7.27887 7.9375ZM7.22759 7.65625L7.96543 7.52173C7.95146 7.44513 7.95397 7.36953 7.97599 7.28696L7.2513 7.09375L6.52661 6.90054C6.44865 7.19297 6.43535 7.49237 6.48975 7.79077L7.22759 7.65625ZM7.2513 7.09375L7.97599 7.28696L8.05097 7.00571L7.32628 6.8125L6.60159 6.61929L6.52661 6.90054L7.2513 7.09375ZM7.32628 6.8125L8.05097 7.00571L8.12595 6.72446L7.40126 6.53125L6.67658 6.33804L6.60159 6.61929L7.32628 6.8125ZM7.40126 6.53125L8.12595 6.72446C8.18983 6.48486 8.22707 6.24202 8.23627 5.99685L7.48679 5.96875L6.73732 5.94065C6.73245 6.07048 6.71268 6.20264 6.67658 6.33804L7.40126 6.53125ZM7.48679 5.96875L8.23627 5.99685L8.24681 5.7156L7.49734 5.6875L6.74787 5.6594L6.73732 5.94065L7.48679 5.96875ZM7.49734 5.6875L8.24681 5.7156L8.25736 5.43435L7.50788 5.40625L6.75841 5.37815L6.74787 5.6594L7.49734 5.6875ZM7.50788 5.40625L8.25736 5.43435C8.26324 5.27753 8.27875 5.12024 8.30403 4.96233L7.56346 4.84375L6.8229 4.72517C6.78814 4.94226 6.76659 5.15997 6.75841 5.37815L7.50788 5.40625ZM7.56346 4.84375L8.30403 4.96233L8.34907 4.68108L7.6085 4.5625L6.86793 4.44392L6.8229 4.72517L7.56346 4.84375ZM7.6085 4.5625L8.34907 4.68108L8.3941 4.39983L7.65353 4.28125L6.91297 4.16267L6.86793 4.44392L7.6085 4.5625ZM7.65353 4.28125L8.3941 4.39983C8.41212 4.28731 8.42643 4.16376 8.42483 4.04464C8.42403 3.98474 8.41909 3.90599 8.40006 3.82013C8.38244 3.74062 8.34185 3.60403 8.23621 3.47103L7.64893 3.9375L7.06164 4.40397C6.97255 4.29181 6.94456 4.18516 6.9356 4.14471C6.92523 4.09792 6.925 4.06734 6.92497 4.06474C6.92491 4.0602 6.92497 4.08769 6.91297 4.16267L7.65353 4.28125ZM7.64893 3.9375L8.23621 3.47103L8.18657 3.40853L7.59928 3.875L7.012 4.34147L7.06164 4.40397L7.64893 3.9375ZM7.59928 3.875L7.78242 3.1477L7.68313 3.1227L7.5 3.85L7.31687 4.5773L7.41615 4.6023L7.59928 3.875ZM7.5 3.85H8.25V3.75H7.5H6.75V3.85H7.5ZM7.5 3.75L7.01986 3.17383L6.94304 3.23785L7.42318 3.81402L7.90332 4.39018L7.98014 4.32617L7.5 3.75ZM7.42318 3.81402L6.82543 3.36103L6.5148 3.77093L7.11254 4.22392L7.71029 4.67691L8.02092 4.26701L7.42318 3.81402ZM7.11254 4.22392L6.5148 3.77093C6.29615 4.05945 6.11317 4.33684 6.00144 4.58887L6.68708 4.89283L7.37273 5.19679C7.4141 5.10347 7.51476 4.93493 7.71029 4.67691L7.11254 4.22392ZM6.68708 4.89283L6.00144 4.58887L5.88661 4.84789L6.57226 5.15185L7.2579 5.45581L7.37273 5.19679L6.68708 4.89283ZM6.57226 5.15185L5.88661 4.84789L5.77179 5.1069L6.45743 5.41086L7.14307 5.71482L7.2579 5.45581L6.57226 5.15185ZM6.45743 5.41086L5.77179 5.1069C5.76497 5.12228 5.76027 5.12709 5.75993 5.12746C5.75966 5.12775 5.75633 5.13165 5.74423 5.13805L6.09517 5.80088L6.44612 6.4637C6.76164 6.29664 6.99924 6.03926 7.14307 5.71482L6.45743 5.41086ZM6.09517 5.80088L5.74423 5.13805L5.4968 5.26906L5.84774 5.93188L6.19869 6.59471L6.44612 6.4637L6.09517 5.80088ZM5.84774 5.93188L5.4968 5.26906L5.24937 5.40007L5.60031 6.06289L5.95125 6.72572L6.19869 6.59471L5.84774 5.93188ZM5.60031 6.06289L5.24937 5.40007C4.99985 5.53218 4.77981 5.70915 4.58718 5.91927L5.14004 6.42608L5.69289 6.93289C5.78406 6.83344 5.87086 6.76828 5.95125 6.72572L5.60031 6.06289ZM5.14004 6.42608L4.58718 5.91927L4.37434 6.15145L4.92719 6.65826L5.48004 7.16507L5.69289 6.93289L5.14004 6.42608ZM4.92719 6.65826L4.37434 6.15145L4.1615 6.38364L4.71435 6.89044L5.2672 7.39725L5.48004 7.16507L4.92719 6.65826ZM4.71435 6.89044L4.1615 6.38364C4.12229 6.4264 4.10494 6.43611 4.11179 6.43185C4.12011 6.42667 4.16678 6.39973 4.24637 6.39256L4.31363 7.13954L4.38089 7.88652C4.78264 7.85034 5.07787 7.60379 5.2672 7.39725L4.71435 6.89044ZM4.31363 7.13954L4.24637 6.39256L4.05849 6.40948L4.12575 7.15646L4.19301 7.90344L4.38089 7.88652L4.31363 7.13954ZM4.12575 7.15646L4.05849 6.40948L3.87061 6.4264L3.93788 7.17338L4.00514 7.92035L4.19301 7.90344L4.12575 7.15646ZM3.93788 7.17338L3.87061 6.4264C3.8342 6.42968 3.913 6.41492 4.03168 6.45403C4.09996 6.47653 4.22326 6.53069 4.33158 6.65727C4.45093 6.79674 4.5 6.96332 4.5 7.11147H3.75H3C3 7.2859 3.05689 7.47476 3.1919 7.63252C3.31588 7.7774 3.46267 7.84587 3.56226 7.87868C3.74356 7.93843 3.9163 7.92835 4.00514 7.92035L3.93788 7.17338ZM3.75 7.11147H4.5V7.03265H3.75H3V7.11147H3.75ZM3.75 7.03265L4.45865 7.27824L4.53547 7.05658L3.82682 6.81098L3.11817 6.56539L3.04135 6.78705L3.75 7.03265ZM3.82682 6.81098L3.34668 6.23482L3.26986 6.29883L3.75 6.875L4.23014 7.45117L4.30696 7.38715L3.82682 6.81098ZM7.5 3.75L7.01986 4.32617L7.09668 4.39018L7.57682 3.81402L8.05696 3.23785L7.98014 3.17383L7.5 3.75ZM7.57682 3.81402L6.83061 3.8893L6.88766 4.45486L7.63388 4.37958L8.38009 4.3043L8.32303 3.73874L7.57682 3.81402ZM7.63388 4.37958L6.88766 4.45486C6.92965 4.87106 7.04703 5.38132 7.43073 5.70952L7.91824 5.13958L8.40575 4.56963C8.45476 4.61156 8.45402 4.63787 8.43594 4.58954C8.41813 4.54196 8.39501 4.45219 8.38009 4.3043L7.63388 4.37958ZM7.91824 5.13958L7.43073 5.70952L7.65804 5.90395L8.14555 5.334L8.63305 4.76406L8.40575 4.56963L7.91824 5.13958ZM8.14555 5.334L7.65804 5.90395L7.88535 6.09838L8.37285 5.52843L8.86036 4.95849L8.63305 4.76406L8.14555 5.334ZM8.37285 5.52843L7.88535 6.09838C8.11358 6.2936 8.37367 6.43787 8.66096 6.52622L8.88142 5.80936L9.10188 5.09249C9.01416 5.06551 8.9352 5.0225 8.86036 4.95849L8.37285 5.52843ZM8.88142 5.80936L8.66096 6.52622L8.94222 6.61272L9.16268 5.89586L9.38314 5.17899L9.10188 5.09249L8.88142 5.80936ZM9.16268 5.89586L8.94222 6.61272L9.22348 6.69922L9.44394 5.98235L9.6644 5.26549L9.38314 5.17899L9.16268 5.89586ZM9.44394 5.98235L9.22348 6.69922C9.28487 6.7181 9.33433 6.74838 9.38177 6.79894L9.92872 6.28578L10.4757 5.77262C10.2518 5.53394 9.97802 5.36194 9.6644 5.26549L9.44394 5.98235ZM9.92872 6.28578L9.38177 6.79894L9.58529 7.01587L10.1323 6.50271L10.6792 5.98955L10.4757 5.77262L9.92872 6.28578ZM10.1323 6.50271L9.58529 7.01587L9.78882 7.2328L10.3358 6.71964L10.8827 6.20648L10.6792 5.98955L10.1323 6.50271ZM10.3358 6.71964L9.78882 7.2328C9.98899 7.44615 10.3859 7.75354 10.91 7.61401L10.717 6.88926L10.524 6.16451C10.6525 6.1303 10.767 6.15379 10.8377 6.18528C10.8957 6.21107 10.9091 6.23455 10.8827 6.20648L10.3358 6.71964ZM10.717 6.88926L10.91 7.61401L11.0876 7.5667L10.8947 6.84195L10.7017 6.1172L10.524 6.16451L10.717 6.88926ZM10.8947 6.84195L11.0876 7.5667L11.2653 7.51939L11.0723 6.79464L10.8794 6.0699L10.7017 6.1172L10.8947 6.84195ZM11.0723 6.79464L11.2653 7.51939C11.3169 7.50566 11.309 7.51099 11.2703 7.51434C11.2636 7.51492 11.1662 7.52581 11.0416 7.49184C10.9754 7.47377 10.8427 7.42753 10.7193 7.30519C10.5757 7.16296 10.5 6.97202 10.5 6.77925H11.25H12C12 6.58116 11.9224 6.38574 11.7752 6.23983C11.6481 6.11382 11.5098 6.06474 11.4362 6.04466C11.2968 6.00665 11.1771 6.0168 11.1409 6.01994C11.043 6.02842 10.9462 6.05209 10.8794 6.0699L11.0723 6.79464ZM11.25 6.77925H10.5V6.81117H11.25H12V6.77925H11.25ZM11.25 6.81117L11.2518 6.06117L11.175 6.06098L11.1732 6.81098L11.1714 7.56098L11.2482 7.56117L11.25 6.81117ZM11.1732 6.81098L10.693 7.38715L10.7699 7.45117L11.25 6.875L11.7301 6.29883L11.6533 6.23482L11.1732 6.81098ZM3.75 10.625L4.12792 11.2728L4.2143 11.2224L3.83638 10.5746L3.45846 9.92679L3.37208 9.97718L3.75 10.625ZM3.83638 10.5746L4.05587 11.2918L4.53627 11.1447L4.31678 10.4276L4.09729 9.71042L3.61689 9.85745L3.83638 10.5746ZM4.31678 10.4276L4.53627 11.1447C4.85485 11.0472 5.10168 10.9736 5.27872 10.923L5.07268 10.2018L4.86665 9.48069C4.67636 9.53506 4.41925 9.61188 4.09729 9.71042L4.31678 10.4276ZM5.07268 10.2018L5.27872 10.923L5.55422 10.8443L5.34818 10.1231L5.14214 9.40198L4.86665 9.48069L5.07268 10.2018ZM5.34818 10.1231L5.55422 10.8443L5.82971 10.7656L5.62368 10.0444L5.41764 9.32327L5.14214 9.40198L5.34818 10.1231ZM5.62368 10.0444L5.82971 10.7656C6.13565 10.6781 6.40628 10.5191 6.63192 10.2954L6.10387 9.76275L5.57582 9.23015C5.52853 9.27704 5.47903 9.30573 5.41764 9.32327L5.62368 10.0444ZM6.10387 9.76275L6.63192 10.2954L6.83662 10.0924L6.30857 9.5598L5.78052 9.0272L5.57582 9.23015L6.10387 9.76275ZM6.30857 9.5598L6.83662 10.0924L7.04131 9.88946L6.51326 9.35686L5.98521 8.82426L5.78052 9.0272L6.30857 9.5598ZM6.51326 9.35686L7.04131 9.88946C7.17088 9.761 7.30691 9.63114 7.44947 9.49987L6.94146 8.94812L6.43346 8.39637C6.27802 8.53949 6.12858 8.68211 5.98521 8.82426L6.51326 9.35686ZM6.94146 8.94812L7.44947 9.49987L7.67297 9.29409L7.16497 8.74234L6.65696 8.19059L6.43346 8.39637L6.94146 8.94812ZM7.16497 8.74234L7.67297 9.29409L7.89648 9.08831L7.38847 8.53656L6.88046 7.98481L6.65696 8.19059L7.16497 8.74234ZM7.38847 8.53656L7.89648 9.08831C7.98717 9.0048 8.07558 8.91509 8.15058 8.82105C8.21735 8.73734 8.31557 8.59901 8.3663 8.41925L7.64449 8.21554L6.92269 8.01183C6.93115 7.98185 6.94057 7.95788 6.94832 7.94049C6.95611 7.923 6.96322 7.90991 6.96814 7.90147C6.97747 7.88543 6.98253 7.87993 6.97787 7.88577C6.97368 7.89103 6.96412 7.90234 6.94715 7.92002C6.9304 7.93748 6.90847 7.95902 6.88046 7.98481L7.38847 8.53656ZM7.64449 8.21554L8.3663 8.41925L8.39882 8.30402L7.67701 8.10031L6.95521 7.8966L6.92269 8.01183L7.64449 8.21554ZM7.67701 8.10031L8.39882 8.30402L8.43134 8.18879L7.70953 7.98508L6.98773 7.78137L6.95521 7.8966L7.67701 8.10031ZM7.70953 7.98508L8.43134 8.18879C8.42393 8.21504 8.40423 8.2789 8.35861 8.3535C8.31543 8.42411 8.20949 8.56839 8.00571 8.64888C7.77646 8.73944 7.56174 8.69634 7.42143 8.62956C7.30002 8.57177 7.22755 8.4956 7.19983 8.46453C7.1669 8.4276 7.14722 8.39694 7.1395 8.38445C7.1306 8.37004 7.12618 8.36106 7.12599 8.36069C7.12598 8.36065 7.13221 8.37358 7.14455 8.40567L7.84459 8.1365L8.54462 7.86733C8.52278 7.81054 8.49776 7.75049 8.4694 7.6934C8.44677 7.64785 8.3985 7.55493 8.31928 7.46611C8.28031 7.42242 8.19731 7.33761 8.06611 7.27516C7.916 7.20371 7.69222 7.15993 7.45463 7.25378C7.24251 7.33757 7.12896 7.48911 7.0789 7.57098C7.02641 7.65683 7.00056 7.73591 6.98773 7.78137L7.70953 7.98508ZM7.84459 8.1365L7.14455 8.40567L7.24708 8.67233L7.94712 8.40316L8.64715 8.13399L8.54462 7.86733L7.84459 8.1365ZM7.94712 8.40316L7.24708 8.67233L7.34962 8.93898L8.04965 8.66981L8.74968 8.40064L8.64715 8.13399L7.94712 8.40316ZM8.04965 8.66981L7.34962 8.93898C7.4469 9.19199 7.58254 9.42463 7.75438 9.63461L8.3348 9.15962L8.91521 8.68462C8.84357 8.59708 8.78911 8.50318 8.74968 8.40064L8.04965 8.66981ZM8.3348 9.15962L7.75438 9.63461L7.93699 9.85775L8.51741 9.38276L9.09783 8.90777L8.91521 8.68462L8.3348 9.15962ZM8.51741 9.38276L7.93699 9.85775L8.11961 10.0809L8.70002 9.60591L9.28044 9.13091L9.09783 8.90777L8.51741 9.38276ZM8.70002 9.60591L8.11961 10.0809C8.27713 10.2734 8.45538 10.4471 8.65289 10.6021L9.11589 10.0121L9.57888 9.42205C9.4654 9.333 9.3664 9.23596 9.28044 9.13091L8.70002 9.60591ZM9.11589 10.0121L8.65289 10.6021L8.88614 10.7851L9.34913 10.1951L9.81213 9.60508L9.57888 9.42205L9.11589 10.0121ZM9.34913 10.1951L8.88614 10.7851L9.11938 10.9682L9.58238 10.3781L10.0454 9.78811L9.81213 9.60508L9.34913 10.1951ZM9.58238 10.3781L9.11938 10.9682C9.3737 11.1677 9.66549 11.2964 9.98379 11.3506L10.1097 10.6113L10.2356 9.8719C10.1618 9.85933 10.1021 9.83259 10.0454 9.78811L9.58238 10.3781ZM10.1097 10.6113L9.98379 11.3506L10.2779 11.4007L10.4038 10.6613L10.5297 9.92199L10.2356 9.8719L10.1097 10.6113ZM10.4038 10.6613L10.2779 11.4007L10.5719 11.4508L10.6979 10.7114L10.8238 9.97207L10.5297 9.92199L10.4038 10.6613ZM10.6979 10.7114L10.5719 11.4508C10.6834 11.4698 10.7969 11.4851 10.9012 11.4897C10.9533 11.492 11.019 11.4925 11.0898 11.4849C11.1493 11.4785 11.274 11.4608 11.4072 11.3903L11.0565 10.7274L10.7058 10.0644C10.7668 10.0322 10.8196 10.0159 10.8526 10.0075C10.8869 9.99887 10.914 9.99517 10.9299 9.99346C10.9601 9.99022 10.9756 9.99154 10.9679 9.9912C10.9527 9.99052 10.9084 9.98648 10.8238 9.97207L10.6979 10.7114ZM11.0565 10.7274L11.4072 11.3903L11.4717 11.3562L11.121 10.6933L10.7703 10.0303L10.7058 10.0644L11.0565 10.7274ZM11.121 10.6933L11.8268 10.947L11.8694 10.8283L11.1636 10.5746L10.4578 10.3209L10.4152 10.4395L11.121 10.6933ZM11.1636 10.5746L10.7857 11.2224L10.8721 11.2728L11.25 10.625L11.6279 9.97718L11.5415 9.92679L11.1636 10.5746Z" fill="#A8D8AA"/>
<circle cx="21.875" cy="5.625" r="3.125" fill="#A8D8AA"/>
<path d="M24.4095 6.8625L25.1155 7.11544L24.4095 6.8625ZM24.32 7.11239L25.026 7.36533L24.32 7.11239ZM24.2304 7.36228L23.5244 7.10934L24.2304 7.36228ZM23.9643 7.84469L24.5615 8.29839L23.9643 7.84469ZM23.611 8.30972L23.0138 7.85601L23.611 8.30972ZM23.1531 8.63831L22.9107 7.92857L23.1531 8.63831ZM22.5907 8.83043L22.8331 9.54016L22.5907 8.83043ZM22.0392 8.7937L22.37 8.12058L22.0392 8.7937ZM21.4987 8.5281L21.168 9.20122L21.4987 8.5281ZM20.9426 8.3724L20.8827 9.12001L20.9426 8.3724ZM20.3707 8.3266L20.4306 7.579L20.3707 8.3266ZM19.8675 8.1104L20.366 7.55002L19.8675 8.1104ZM19.6502 7.91709L19.1517 8.47747L19.6502 7.91709ZM19.4329 7.72379L19.9314 7.16341L19.4329 7.72379ZM19.097 7.26397L19.7822 6.959L19.097 7.26397ZM18.9784 6.99746L18.2932 7.30243L18.9784 6.99746ZM18.8597 6.73095L18.1745 7.03592L18.8597 6.73095ZM18.6665 6.17004L17.9395 6.35428L18.6665 6.17004ZM18.5173 5.58126L17.7903 5.7655L18.5173 5.58126ZM18.5947 5.02308L17.9448 4.64872L18.5947 5.02308ZM18.8986 4.49549L18.2487 4.12114L18.8986 4.49549ZM19.5764 3.57593L18.9913 3.10673L19.5764 3.57593ZM20.5043 3.02963L20.2049 2.34198L20.5043 3.02963ZM21.0099 2.82411L20.7447 2.12256L21.0099 2.82411ZM22.0792 2.48379L21.9544 1.74423L22.0792 2.48379ZM22.3842 2.43232L22.509 3.17187L22.3842 2.43232ZM22.6893 2.38085L22.5645 1.6413L22.6893 2.38085ZM23.2551 2.49491L22.8531 3.12807L23.2551 2.49491ZM24.2286 3.22739L23.6463 3.7L24.2286 3.22739ZM24.6115 3.69915L25.1938 3.22654L24.6115 3.69915ZM24.8809 4.22397L24.1569 4.4195L24.8809 4.22397ZM25.037 4.80183L25.761 4.60631L25.037 4.80183ZM25.0863 5.22432L24.353 5.06649L25.0863 5.22432ZM25.0575 5.35788L25.7907 5.51572L25.0575 5.35788ZM25.0288 5.49144L25.762 5.64928L25.0288 5.49144ZM24.8747 5.8719L24.2059 5.5326L24.8747 5.8719ZM24.7495 6.11881L24.0806 5.7795L23.9554 6.02641L24.6242 6.36571L25.2931 6.70502L25.4184 6.45811L24.7495 6.11881ZM24.6242 6.36571L23.9554 6.02641C23.8583 6.2178 23.7741 6.4122 23.7034 6.60957L24.4095 6.8625L25.1155 7.11544C25.1642 6.97962 25.2232 6.84283 25.2931 6.70502L24.6242 6.36571ZM24.4095 6.8625L23.7034 6.60957L23.6139 6.85945L24.32 7.11239L25.026 7.36533L25.1155 7.11544L24.4095 6.8625ZM24.32 7.11239L23.6139 6.85945L23.5244 7.10934L24.2304 7.36228L24.9365 7.61522L25.026 7.36533L24.32 7.11239ZM24.2304 7.36228L23.5244 7.10934C23.493 7.19702 23.4431 7.29088 23.3671 7.39098L23.9643 7.84469L24.5615 8.29839C24.721 8.08846 24.8485 7.86072 24.9365 7.61522L24.2304 7.36228ZM23.9643 7.84469L23.3671 7.39098L23.1904 7.6235L23.7876 8.0772L24.3848 8.53091L24.5615 8.29839L23.9643 7.84469ZM23.7876 8.0772L23.1904 7.6235L23.0138 7.85601L23.611 8.30972L24.2082 8.76343L24.3848 8.53091L23.7876 8.0772ZM23.611 8.30972L23.0138 7.85601C22.9879 7.89012 22.9597 7.91182 22.9107 7.92857L23.1531 8.63831L23.3955 9.34804C23.7214 9.23671 23.9985 9.03936 24.2082 8.76343L23.611 8.30972ZM23.1531 8.63831L22.9107 7.92857L22.6294 8.02464L22.8719 8.73437L23.1143 9.4441L23.3955 9.34804L23.1531 8.63831ZM22.8719 8.73437L22.6294 8.02464L22.3482 8.1207L22.5907 8.83043L22.8331 9.54016L23.1143 9.4441L22.8719 8.73437ZM22.5907 8.83043L22.3482 8.1207C22.3439 8.12217 22.3437 8.12183 22.3471 8.12135C22.3507 8.12086 22.3559 8.12053 22.3621 8.12094C22.3682 8.12135 22.3728 8.12233 22.3752 8.12299C22.3774 8.1236 22.3757 8.1234 22.37 8.12058L22.0392 8.7937L21.7085 9.46682C22.0646 9.64183 22.4545 9.66951 22.8331 9.54016L22.5907 8.83043ZM22.0392 8.7937L22.37 8.12058L22.0997 7.98778L21.769 8.6609L21.4382 9.33402L21.7085 9.46682L22.0392 8.7937ZM21.769 8.6609L22.0997 7.98778L21.8295 7.85498L21.4987 8.5281L21.168 9.20122L21.4382 9.33402L21.769 8.6609ZM21.4987 8.5281L21.8295 7.85498C21.5688 7.72689 21.2919 7.64798 21.0024 7.6248L20.9426 8.3724L20.8827 9.12001C20.9745 9.12736 21.0683 9.15226 21.168 9.20122L21.4987 8.5281ZM20.9426 8.3724L21.0024 7.6248L20.7165 7.6019L20.6567 8.3495L20.5968 9.09711L20.8827 9.12001L20.9426 8.3724ZM20.6567 8.3495L20.7165 7.6019L20.4306 7.579L20.3707 8.3266L20.3109 9.07421L20.5968 9.09711L20.6567 8.3495ZM20.3707 8.3266L20.4306 7.579C20.4051 7.57695 20.3908 7.57206 20.366 7.55002L19.8675 8.1104L19.369 8.67077C19.634 8.90647 19.9551 9.04571 20.3109 9.07421L20.3707 8.3266ZM19.8675 8.1104L20.366 7.55002L20.1487 7.35672L19.6502 7.91709L19.1517 8.47747L19.369 8.67077L19.8675 8.1104ZM19.6502 7.91709L20.1487 7.35672L19.9314 7.16341L19.4329 7.72379L18.9344 8.28416L19.1517 8.47747L19.6502 7.91709ZM19.4329 7.72379L19.9314 7.16341C19.8665 7.10565 19.818 7.03954 19.7822 6.959L19.097 7.26397L18.4118 7.56894C18.5341 7.84376 18.7096 8.08418 18.9344 8.28416L19.4329 7.72379ZM19.097 7.26397L19.7822 6.959L19.6636 6.69249L18.9784 6.99746L18.2932 7.30243L18.4118 7.56894L19.097 7.26397ZM18.9784 6.99746L19.6636 6.69249L19.5449 6.42597L18.8597 6.73095L18.1745 7.03592L18.2932 7.30243L18.9784 6.99746ZM18.8597 6.73095L19.5449 6.42597C19.4839 6.28884 19.4332 6.14239 19.3935 5.9858L18.6665 6.17004L17.9395 6.35428C17.9993 6.59021 18.0774 6.8177 18.1745 7.03592L18.8597 6.73095ZM18.6665 6.17004L19.3935 5.9858L19.3189 5.69141L18.5919 5.87565L17.8649 6.05989L17.9395 6.35428L18.6665 6.17004ZM18.5919 5.87565L19.3189 5.69141L19.2443 5.39702L18.5173 5.58126L17.7903 5.7655L17.8649 6.05989L18.5919 5.87565ZM18.5173 5.58126L19.2443 5.39702L19.2445 5.39743L18.5947 5.02308L17.9448 4.64872C17.7463 4.9932 17.6925 5.37959 17.7903 5.7655L18.5173 5.58126ZM18.5947 5.02308L19.2445 5.39743L19.3965 5.13364L18.7466 4.75928L18.0967 4.38493L17.9448 4.64872L18.5947 5.02308ZM18.7466 4.75928L19.3965 5.13364L19.5485 4.86985L18.8986 4.49549L18.2487 4.12114L18.0967 4.38493L18.7466 4.75928ZM18.8986 4.49549L19.5485 4.86985C19.6322 4.72438 19.72 4.59568 19.8109 4.48231L19.2258 4.01311L18.6407 3.54391C18.4979 3.72199 18.3675 3.91487 18.2487 4.12114L18.8986 4.49549ZM19.2258 4.01311L19.8109 4.48231L19.9862 4.26372L19.4011 3.79452L18.816 3.32532L18.6407 3.54391L19.2258 4.01311ZM19.4011 3.79452L19.9862 4.26372L20.1615 4.04513L19.5764 3.57593L18.9913 3.10673L18.816 3.32532L19.4011 3.79452ZM19.5764 3.57593L20.1615 4.04513C20.2041 3.99195 20.249 3.95882 20.302 3.93575L20.0026 3.2481L19.7032 2.56045C19.4216 2.68304 19.1823 2.86845 18.9913 3.10673L19.5764 3.57593ZM20.0026 3.2481L20.302 3.93575L20.5528 3.82652L20.2534 3.13887L19.954 2.45122L19.7032 2.56045L20.0026 3.2481ZM20.2534 3.13887L20.5528 3.82652L20.8037 3.71728L20.5043 3.02963L20.2049 2.34198L19.954 2.45122L20.2534 3.13887ZM20.5043 3.02963L20.8037 3.71728C20.9598 3.64934 21.1169 3.58547 21.2751 3.52566L21.0099 2.82411L20.7447 2.12256C20.5634 2.19112 20.3834 2.26427 20.2049 2.34198L20.5043 3.02963ZM21.0099 2.82411L21.2751 3.52566L21.5298 3.42937L21.2647 2.72782L20.9995 2.02627L20.7447 2.12256L21.0099 2.82411ZM21.2647 2.72782L21.5298 3.42937L21.7846 3.33309L21.5194 2.63154L21.2542 1.92999L20.9995 2.02627L21.2647 2.72782ZM21.5194 2.63154L21.7846 3.33309C21.9032 3.28822 22.0421 3.25063 22.2039 3.22334L22.0792 2.48379L21.9544 1.74423C21.7094 1.78556 21.4751 1.84647 21.2542 1.92999L21.5194 2.63154ZM22.0792 2.48379L22.2039 3.22334L22.509 3.17187L22.3842 2.43232L22.2595 1.69277L21.9544 1.74423L22.0792 2.48379ZM22.3842 2.43232L22.509 3.17187L22.8141 3.1204L22.6893 2.38085L22.5645 1.6413L22.2595 1.69277L22.3842 2.43232ZM22.6893 2.38085L22.8141 3.1204C22.8236 3.11879 22.8294 3.11862 22.832 3.11865C22.8333 3.11866 22.8342 3.11873 22.8345 3.11877C22.8349 3.11881 22.8351 3.11884 22.8351 3.11884C22.8351 3.11885 22.8352 3.11887 22.8355 3.11897C22.8359 3.11907 22.8366 3.1193 22.8378 3.11979C22.84 3.12071 22.8451 3.12301 22.8531 3.12807L23.2551 2.49491L23.6571 1.86176C23.3266 1.65188 22.9503 1.57623 22.5645 1.6413L22.6893 2.38085ZM23.2551 2.49491L22.8531 3.12807L23.1138 3.2936L23.5158 2.66044L23.9178 2.02729L23.6571 1.86176L23.2551 2.49491ZM23.5158 2.66044L23.1138 3.2936L23.3745 3.45913L23.7765 2.82597L24.1785 2.19282L23.9178 2.02729L23.5158 2.66044ZM23.7765 2.82597L23.3745 3.45913C23.481 3.52679 23.5705 3.60669 23.6463 3.7L24.2286 3.22739L24.811 2.75477C24.6314 2.53357 24.4195 2.34587 24.1785 2.19282L23.7765 2.82597ZM24.2286 3.22739L23.6463 3.7L23.8377 3.93588L24.42 3.46327L25.0024 2.99066L24.811 2.75477L24.2286 3.22739ZM24.42 3.46327L23.8377 3.93588L24.0291 4.17177L24.6115 3.69915L25.1938 3.22654L25.0024 2.99066L24.42 3.46327ZM24.6115 3.69915L24.0291 4.17177C24.0917 4.24885 24.1326 4.32969 24.1569 4.4195L24.8809 4.22397L25.605 4.02844C25.5252 3.73301 25.3865 3.46397 25.1938 3.22654L24.6115 3.69915ZM24.8809 4.22397L24.1569 4.4195L24.2349 4.70843L24.959 4.5129L25.683 4.31737L25.605 4.02844L24.8809 4.22397ZM24.959 4.5129L24.2349 4.70843L24.3129 4.99736L25.037 4.80183L25.761 4.60631L25.683 4.31737L24.959 4.5129ZM25.037 4.80183L24.3129 4.99736C24.3328 5.07115 24.3408 5.11647 24.3434 5.1388C24.3446 5.14923 24.3439 5.14853 24.344 5.13889C24.3441 5.12992 24.345 5.10394 24.353 5.06649L25.0863 5.22432L25.8195 5.38216C25.8797 5.10251 25.8155 4.80811 25.761 4.60631L25.037 4.80183ZM25.0863 5.22432L24.353 5.06649L24.3243 5.20005L25.0575 5.35788L25.7907 5.51572L25.8195 5.38216L25.0863 5.22432ZM25.0575 5.35788L24.3243 5.20005L24.2955 5.33361L25.0288 5.49144L25.762 5.64928L25.7907 5.51572L25.0575 5.35788ZM25.0288 5.49144L24.2955 5.33361C24.2983 5.32059 24.2973 5.33077 24.2807 5.37193C24.2652 5.41026 24.2411 5.46317 24.2059 5.5326L24.8747 5.8719L25.5436 6.21121C25.6329 6.03526 25.7215 5.83722 25.762 5.64928L25.0288 5.49144ZM24.8747 5.8719L24.2059 5.5326L24.0806 5.7795L24.7495 6.11881L25.4184 6.45811L25.5436 6.21121L24.8747 5.8719Z" fill="#A8D8AA"/>
</svg>
