<svg width="30" height="30" viewBox="0 0 30 30" fill="none" xmlns="http://www.w3.org/2000/svg">
<path d="M20.0351 2.5L16.4337 6.21899C14.4996 8.25065 14.5329 11.522 16.4671 13.5192C18.4345 15.5164 21.6024 15.482 23.5366 13.4848C25.504 11.4531 25.4707 8.18175 23.5366 6.18452L20.0351 2.5Z" fill="#6CBDFF"/>
<path d="M19.2746 2.93804L18.9003 2.28813L19.2746 2.93804ZM18.7056 3.56151L19.3313 3.97503L18.7056 3.56151ZM18.5478 3.80023L17.9221 3.38671L18.5478 3.80023ZM18.247 4.29203L18.9001 4.66092L18.247 4.29203ZM17.9611 4.79818L17.3081 4.42929L17.9611 4.79818ZM17.2433 5.66905L16.6942 5.15813L17.2433 5.66905ZM16.7686 6.00157L16.4624 5.31693L16.7686 6.00157ZM16.2026 6.25475L16.5088 6.93939L16.2026 6.25475ZM15.6987 7.25605L14.9715 7.07243L15.6987 7.25605ZM15.5431 7.80966L14.8273 7.58593L15.5431 7.80966ZM15.1651 9.4068L14.4249 9.28601L15.1651 9.4068ZM15.1912 9.94208L14.4661 10.1341L15.1912 9.94208ZM15.2613 10.207L14.5363 10.399L15.2613 10.207ZM15.5403 12.1154L14.8674 12.4466L15.5403 12.1154ZM15.6643 12.3673L16.3372 12.036L15.6643 12.3673ZM15.7883 12.6192L15.1154 12.9504L15.7883 12.6192ZM16.0667 13.1171L15.4314 13.5157L16.0667 13.1171ZM16.2211 13.3631L16.8563 12.9644L16.2211 13.3631ZM16.3754 13.6091L15.7402 14.0078L16.3754 13.6091ZM16.7864 13.9906L16.4362 14.6538L16.7864 13.9906ZM17.043 14.1261L16.6928 14.7893L17.043 14.1261ZM17.2996 14.2615L17.6497 13.5983L17.2996 14.2615ZM17.8437 14.4135L17.8005 15.1623L17.8437 14.4135ZM18.4188 14.4467L18.3756 15.1955L18.4188 14.4467ZM18.962 14.5252L19.1384 13.7962L18.962 14.5252ZM19.2176 14.5871L19.0412 15.316L19.2176 14.5871ZM19.9942 14.7017L19.9684 13.9521L19.9942 14.7017ZM20.5247 14.6834L20.5505 15.433L20.5247 14.6834ZM21.0545 14.6208L21.2031 15.356L21.0545 14.6208ZM21.5837 14.5139L21.4352 13.7788L21.5837 14.5139ZM22.0709 14.3077L22.4953 14.9261L22.0709 14.3077ZM22.2936 14.1549L21.8692 13.5365L22.2936 14.1549ZM22.5162 14.0021L22.9406 14.6205L22.5162 14.0021ZM23.0507 13.7697L22.8652 13.043L23.0507 13.7697ZM23.3627 13.6901L23.5482 14.4168L23.3627 13.6901ZM23.6746 13.6104L23.4891 12.8837L23.6746 13.6104ZM24.1015 13.2532L24.7944 13.5402L24.1015 13.2532ZM24.2165 12.9756L24.9094 13.2626L24.2165 12.9756ZM24.3314 12.698L23.6385 12.411L24.3314 12.698ZM24.4448 12.1235L23.6948 12.1275L24.4448 12.1235ZM24.4417 11.5297L25.1917 11.5257L24.4417 11.5297ZM24.6108 10.9843L23.9926 10.5596L24.6108 10.9843ZM24.7815 10.7358L25.3997 11.1605L24.7815 10.7358ZM24.9522 10.4873L25.5704 10.912L24.9522 10.4873ZM25.048 9.9601L24.3237 10.1549L25.048 9.9601ZM24.898 9.40258L25.6223 9.20779L24.898 9.40258ZM24.8101 8.83865L25.5593 8.80462L24.8101 8.83865ZM24.7971 8.55347L24.0479 8.5875L24.7971 8.55347ZM24.7842 8.2683L24.035 8.30233L24.7842 8.2683ZM24.537 7.795L24.0674 8.37973L24.537 7.795ZM24.3028 7.60686L24.7725 7.02214L24.3028 7.60686ZM24.0686 7.41873L23.5989 8.00346L24.0686 7.41873ZM23.8219 6.88438L24.5714 6.85734L23.8219 6.88438ZM23.7969 6.19194L23.0474 6.21897L23.7969 6.19194ZM23.5378 5.69204L23.9345 5.05555L23.5378 5.69204ZM23.0447 5.3847L23.4414 4.7482L23.0447 5.3847ZM22.5957 5.03539L22.0745 5.5747L22.5957 5.03539ZM22.3933 4.83977L22.9145 4.30046L22.3933 4.83977ZM22.1909 4.64414L21.6697 5.18344L22.1909 4.64414ZM21.7772 4.26124L21.2797 4.82244L21.7772 4.26124ZM21.3548 3.88671L21.8523 3.32551L21.3548 3.88671ZM20.9275 3.51675L21.4118 2.94407L20.9275 3.51675ZM20.7115 3.33406L20.2272 3.90675L20.7115 3.33406ZM20.2183 2.85151L19.5533 3.19814L20.2183 2.85151ZM20.0962 2.61717L20.7613 2.27054L20.0962 2.61717ZM19.7816 2.64601L19.4073 1.9961L19.7816 2.64601ZM19.5281 2.79203L19.1538 2.14212L18.9003 2.28813L19.2746 2.93804L19.6489 3.58795L19.9024 3.44194L19.5281 2.79203ZM19.2746 2.93804L18.9003 2.28813C18.6326 2.44231 18.4086 2.65062 18.2376 2.90926L18.8633 3.32278L19.489 3.7363C19.5285 3.67664 19.5786 3.62845 19.6489 3.58795L19.2746 2.93804ZM18.8633 3.32278L18.2376 2.90926L18.0798 3.14799L18.7056 3.56151L19.3313 3.97503L19.489 3.7363L18.8633 3.32278ZM18.7056 3.56151L18.0798 3.14799L17.9221 3.38671L18.5478 3.80023L19.1735 4.21375L19.3313 3.97503L18.7056 3.56151ZM18.5478 3.80023L17.9221 3.38671C17.8071 3.56065 17.6978 3.73948 17.594 3.92315L18.247 4.29203L18.9001 4.66092C18.9869 4.50715 19.0781 4.35812 19.1735 4.21375L18.5478 3.80023ZM18.247 4.29203L17.594 3.92315L17.4511 4.17622L18.1041 4.5451L18.7571 4.91399L18.9001 4.66092L18.247 4.29203ZM18.1041 4.5451L17.4511 4.17622L17.3081 4.42929L17.9611 4.79818L18.6141 5.16706L18.7571 4.91399L18.1041 4.5451ZM17.9611 4.79818L17.3081 4.42929C17.2408 4.54845 17.1638 4.65348 17.0775 4.74626L17.6265 5.25718L18.1756 5.76811C18.3448 5.5863 18.4908 5.38533 18.6141 5.16706L17.9611 4.79818ZM17.6265 5.25718L17.0775 4.74626L16.8859 4.95219L17.4349 5.46312L17.984 5.97404L18.1756 5.76811L17.6265 5.25718ZM17.4349 5.46312L16.8859 4.95219L16.6942 5.15813L17.2433 5.66905L17.7923 6.17998L17.984 5.97404L17.4349 5.46312ZM17.2433 5.66905L16.6942 5.15813C16.6416 5.21463 16.5687 5.26938 16.4624 5.31693L16.7686 6.00157L17.0748 6.68621C17.3459 6.56499 17.5894 6.39806 17.7923 6.17998L17.2433 5.66905ZM16.7686 6.00157L16.4624 5.31693L16.1794 5.44352L16.4856 6.12816L16.7918 6.8128L17.0748 6.68621L16.7686 6.00157ZM16.4856 6.12816L16.1794 5.44352L15.8963 5.57011L16.2026 6.25475L16.5088 6.93939L16.7918 6.8128L16.4856 6.12816ZM16.2026 6.25475L15.8963 5.57011C15.5056 5.74487 15.226 6.06435 15.1187 6.48929L15.8459 6.67291L16.5731 6.85652C16.5721 6.86033 16.5647 6.88328 16.5425 6.90928C16.5209 6.93469 16.5031 6.94194 16.5088 6.93939L16.2026 6.25475ZM15.8459 6.67291L15.1187 6.48929L15.0451 6.78086L15.7723 6.96448L16.4995 7.1481L16.5731 6.85652L15.8459 6.67291ZM15.7723 6.96448L15.0451 6.78086L14.9715 7.07243L15.6987 7.25605L16.4258 7.43967L16.4995 7.1481L15.7723 6.96448ZM15.6987 7.25605L14.9715 7.07243C14.9255 7.25459 14.8774 7.42568 14.8273 7.58593L15.5431 7.80966L16.259 8.03338C16.3181 7.84425 16.3737 7.64626 16.4258 7.43967L15.6987 7.25605ZM15.5431 7.80966L14.8273 7.58593L14.7454 7.84797L15.4613 8.0717L16.1771 8.29542L16.259 8.03338L15.5431 7.80966ZM15.4613 8.0717L14.7454 7.84797L14.6635 8.11001L15.3794 8.33374L16.0952 8.55746L16.1771 8.29542L15.4613 8.0717ZM15.3794 8.33374L14.6635 8.11001C14.5984 8.31832 14.5482 8.53018 14.5131 8.74533L15.2533 8.86612L15.9936 8.98691C16.0173 8.8416 16.0511 8.69853 16.0952 8.55746L15.3794 8.33374ZM15.2533 8.86612L14.5131 8.74533L14.469 9.01567L15.2092 9.13646L15.9494 9.25725L15.9936 8.98691L15.2533 8.86612ZM15.2092 9.13646L14.469 9.01567L14.4249 9.28601L15.1651 9.4068L15.9053 9.52759L15.9494 9.25725L15.2092 9.13646ZM15.1651 9.4068L14.4249 9.28601C14.3785 9.57046 14.3924 9.85546 14.4661 10.1341L15.1912 9.94208L15.9162 9.7501C15.8964 9.67545 15.8929 9.6036 15.9053 9.52759L15.1651 9.4068ZM15.1912 9.94208L14.4661 10.1341L14.5363 10.399L15.2613 10.207L15.9863 10.015L15.9162 9.7501L15.1912 9.94208ZM15.2613 10.207L14.5363 10.399L14.6064 10.6639L15.3315 10.472L16.0565 10.28L15.9863 10.015L15.2613 10.207ZM15.3315 10.472L14.6064 10.6639C14.637 10.7794 14.6537 10.9003 14.6553 11.0283L15.4053 11.0185L16.1552 11.0088C16.152 10.7612 16.1194 10.5177 16.0565 10.28L15.3315 10.472ZM15.4053 11.0185L14.6553 11.0283L14.659 11.3099L15.4089 11.3002L16.1589 11.2904L16.1552 11.0088L15.4053 11.0185ZM15.4089 11.3002L14.659 11.3099L14.6627 11.5916L15.4126 11.5818L16.1626 11.5721L16.1589 11.2904L15.4089 11.3002ZM15.4126 11.5818L14.6627 11.5916C14.6666 11.8905 14.7353 12.1782 14.8674 12.4466L15.5403 12.1154L16.2132 11.7841C16.1799 11.7166 16.1635 11.6486 16.1626 11.5721L15.4126 11.5818ZM15.5403 12.1154L14.8674 12.4466L14.9914 12.6985L15.6643 12.3673L16.3372 12.036L16.2132 11.7841L15.5403 12.1154ZM15.6643 12.3673L14.9914 12.6985L15.1154 12.9504L15.7883 12.6192L16.4612 12.2879L16.3372 12.036L15.6643 12.3673ZM15.7883 12.6192L15.1154 12.9504C15.2098 13.1422 15.3153 13.3306 15.4314 13.5157L16.0667 13.1171L16.7019 12.7184C16.6122 12.5755 16.5321 12.432 16.4612 12.2879L15.7883 12.6192ZM16.0667 13.1171L15.4314 13.5157L15.5858 13.7617L16.2211 13.3631L16.8563 12.9644L16.7019 12.7184L16.0667 13.1171ZM16.2211 13.3631L15.5858 13.7617L15.7402 14.0078L16.3754 13.6091L17.0107 13.2105L16.8563 12.9644L16.2211 13.3631ZM16.3754 13.6091L15.7402 14.0078C15.9131 14.2834 16.1484 14.5019 16.4362 14.6538L16.7864 13.9906L17.1366 13.3273C17.0823 13.2987 17.0436 13.2629 17.0107 13.2105L16.3754 13.6091ZM16.7864 13.9906L16.4362 14.6538L16.6928 14.7893L17.043 14.1261L17.3931 13.4628L17.1366 13.3273L16.7864 13.9906ZM17.043 14.1261L16.6928 14.7893L16.9494 14.9248L17.2996 14.2615L17.6497 13.5983L17.3931 13.4628L17.043 14.1261ZM17.2996 14.2615L16.9494 14.9248C17.2148 15.0648 17.5007 15.145 17.8005 15.1623L17.8437 14.4135L17.8869 13.6648C17.8032 13.66 17.7265 13.6388 17.6497 13.5983L17.2996 14.2615ZM17.8437 14.4135L17.8005 15.1623L18.0881 15.1789L18.1312 14.4301L18.1744 13.6814L17.8869 13.6648L17.8437 14.4135ZM18.1312 14.4301L18.0881 15.1789L18.3756 15.1955L18.4188 14.4467L18.4619 13.6979L18.1744 13.6814L18.1312 14.4301ZM18.4188 14.4467L18.3756 15.1955C18.5266 15.2042 18.6627 15.2244 18.7855 15.2541L18.962 14.5252L19.1384 13.7962C18.9203 13.7434 18.6944 13.7113 18.4619 13.6979L18.4188 14.4467ZM18.962 14.5252L18.7855 15.2541L19.0412 15.316L19.2176 14.5871L19.3941 13.8581L19.1384 13.7962L18.962 14.5252ZM19.2176 14.5871L19.0412 15.316L19.2968 15.3779L19.4733 14.6489L19.6497 13.92L19.3941 13.8581L19.2176 14.5871ZM19.4733 14.6489L19.2968 15.3779C19.534 15.4353 19.7757 15.4597 20.02 15.4512L19.9942 14.7017L19.9684 13.9521C19.859 13.9559 19.7534 13.9451 19.6497 13.92L19.4733 14.6489ZM19.9942 14.7017L20.02 15.4512L20.2853 15.4421L20.2594 14.6926L20.2336 13.943L19.9684 13.9521L19.9942 14.7017ZM20.2594 14.6926L20.2853 15.4421L20.5505 15.433L20.5247 14.6834L20.4989 13.9339L20.2336 13.943L20.2594 14.6926ZM20.5247 14.6834L20.5505 15.433C20.7693 15.4254 20.9869 15.3996 21.2031 15.356L21.0545 14.6208L20.906 13.8857C20.7694 13.9133 20.6338 13.9292 20.4989 13.9339L20.5247 14.6834ZM21.0545 14.6208L21.2031 15.356L21.4677 15.3025L21.3191 14.5674L21.1706 13.8322L20.906 13.8857L21.0545 14.6208ZM21.3191 14.5674L21.4677 15.3025L21.7323 15.2491L21.5837 14.5139L21.4352 13.7788L21.1706 13.8322L21.3191 14.5674ZM21.5837 14.5139L21.7323 15.2491C22.0075 15.1934 22.2638 15.085 22.4953 14.9261L22.0709 14.3077L21.6466 13.6893C21.5813 13.7341 21.5127 13.7631 21.4352 13.7788L21.5837 14.5139ZM22.0709 14.3077L22.4953 14.9261L22.7179 14.7733L22.2936 14.1549L21.8692 13.5365L21.6466 13.6893L22.0709 14.3077ZM22.2936 14.1549L22.7179 14.7733L22.9406 14.6205L22.5162 14.0021L22.0918 13.3837L21.8692 13.5365L22.2936 14.1549ZM22.5162 14.0021L22.9406 14.6205C23.0039 14.5771 23.0977 14.5318 23.2363 14.4964L23.0507 13.7697L22.8652 13.043C22.5879 13.1138 22.3253 13.2235 22.0918 13.3837L22.5162 14.0021ZM23.0507 13.7697L23.2363 14.4964L23.5482 14.4168L23.3627 13.6901L23.1771 12.9634L22.8652 13.043L23.0507 13.7697ZM23.3627 13.6901L23.5482 14.4168L23.8601 14.3371L23.6746 13.6104L23.4891 12.8837L23.1771 12.9634L23.3627 13.6901ZM23.6746 13.6104L23.8601 14.3371C24.278 14.2304 24.6201 13.9611 24.7944 13.5402L24.1015 13.2532L23.4086 12.9662C23.4101 12.9627 23.4143 12.9535 23.423 12.9414C23.4319 12.9292 23.4431 12.9169 23.456 12.9061C23.4834 12.8832 23.5014 12.8806 23.4891 12.8837L23.6746 13.6104ZM24.1015 13.2532L24.7944 13.5402L24.9094 13.2626L24.2165 12.9756L23.5235 12.6886L23.4086 12.9662L24.1015 13.2532ZM24.2165 12.9756L24.9094 13.2626L25.0244 12.985L24.3314 12.698L23.6385 12.411L23.5235 12.6886L24.2165 12.9756ZM24.3314 12.698L25.0244 12.985C25.1387 12.7088 25.1964 12.4185 25.1948 12.1196L24.4448 12.1235L23.6948 12.1275C23.6954 12.2244 23.6774 12.3171 23.6385 12.411L24.3314 12.698ZM24.4448 12.1235L25.1948 12.1196L25.1933 11.8226L24.4433 11.8266L23.6933 11.8306L23.6948 12.1275L24.4448 12.1235ZM24.4433 11.8266L25.1933 11.8226L25.1917 11.5257L24.4417 11.5297L23.6917 11.5337L23.6933 11.8306L24.4433 11.8266ZM24.4417 11.5297L25.1917 11.5257C25.1915 11.4833 25.2004 11.4506 25.229 11.409L24.6108 10.9843L23.9926 10.5596C23.7936 10.8493 23.6898 11.1803 23.6917 11.5337L24.4417 11.5297ZM24.6108 10.9843L25.229 11.409L25.3997 11.1605L24.7815 10.7358L24.1633 10.3112L23.9926 10.5596L24.6108 10.9843ZM24.7815 10.7358L25.3997 11.1605L25.5704 10.912L24.9522 10.4873L24.334 10.0627L24.1633 10.3112L24.7815 10.7358ZM24.9522 10.4873L25.5704 10.912C25.8022 10.5746 25.8821 10.1737 25.7722 9.76532L25.048 9.9601L24.3237 10.1549C24.3221 10.149 24.3182 10.127 24.3236 10.0973C24.3288 10.0686 24.3385 10.0562 24.334 10.0627L24.9522 10.4873ZM25.048 9.9601L25.7722 9.76532L25.6972 9.48656L24.973 9.68134L24.2487 9.87613L24.3237 10.1549L25.048 9.9601ZM24.973 9.68134L25.6972 9.48656L25.6223 9.20779L24.898 9.40258L24.1737 9.59737L24.2487 9.87613L24.973 9.68134ZM24.898 9.40258L25.6223 9.20779C25.5863 9.07388 25.5655 8.93979 25.5593 8.80462L24.8101 8.83865L24.0609 8.87267C24.072 9.11773 24.1098 9.35959 24.1737 9.59737L24.898 9.40258ZM24.8101 8.83865L25.5593 8.80462L25.5464 8.51945L24.7971 8.55347L24.0479 8.5875L24.0609 8.87267L24.8101 8.83865ZM24.7971 8.55347L25.5464 8.51945L25.5334 8.23428L24.7842 8.2683L24.035 8.30233L24.0479 8.5875L24.7971 8.55347ZM24.7842 8.2683L25.5334 8.23428C25.5145 7.81649 25.3208 7.46257 25.0067 7.21027L24.537 7.795L24.0674 8.37973C24.0748 8.38571 24.0635 8.37834 24.0511 8.35457C24.0453 8.34351 24.0411 8.33215 24.0383 8.32163C24.0356 8.31127 24.0351 8.30437 24.035 8.30233L24.7842 8.2683ZM24.537 7.795L25.0067 7.21027L24.7725 7.02214L24.3028 7.60686L23.8331 8.19159L24.0674 8.37973L24.537 7.795ZM24.3028 7.60686L24.7725 7.02214L24.5382 6.834L24.0686 7.41873L23.5989 8.00346L23.8331 8.19159L24.3028 7.60686ZM24.0686 7.41873L24.5382 6.834C24.5421 6.83708 24.5484 6.84288 24.5552 6.85155C24.562 6.86027 24.5672 6.86911 24.5707 6.87669C24.578 6.89245 24.5726 6.89071 24.5714 6.85734L23.8219 6.88438L23.0724 6.91141C23.0872 7.32293 23.246 7.72 23.5989 8.00346L24.0686 7.41873ZM23.8219 6.88438L24.5714 6.85734L24.5589 6.51112L23.8094 6.53816L23.0599 6.56519L23.0724 6.91141L23.8219 6.88438ZM23.8094 6.53816L24.5589 6.51112L24.5464 6.1649L23.7969 6.19194L23.0474 6.21897L23.0599 6.56519L23.8094 6.53816ZM23.7969 6.19194L24.5464 6.1649C24.5311 5.74 24.3534 5.31658 23.9345 5.05555L23.5378 5.69204L23.1411 6.32854C23.1293 6.32114 23.1137 6.30931 23.0978 6.29221C23.0817 6.275 23.0691 6.25649 23.06 6.23894C23.0417 6.20369 23.0463 6.18944 23.0474 6.21897L23.7969 6.19194ZM23.5378 5.69204L23.9345 5.05555L23.688 4.90187L23.2913 5.53837L22.8946 6.17487L23.1411 6.32854L23.5378 5.69204ZM23.2913 5.53837L23.688 4.90187L23.4414 4.7482L23.0447 5.3847L22.648 6.0212L22.8946 6.17487L23.2913 5.53837ZM23.0447 5.3847L23.4414 4.7482C23.3204 4.67278 23.2127 4.58866 23.1169 4.49609L22.5957 5.03539L22.0745 5.5747C22.2486 5.74297 22.4402 5.89172 22.648 6.0212L23.0447 5.3847ZM22.5957 5.03539L23.1169 4.49609L22.9145 4.30046L22.3933 4.83977L21.8721 5.37907L22.0745 5.5747L22.5957 5.03539ZM22.3933 4.83977L22.9145 4.30046L22.7121 4.10484L22.1909 4.64414L21.6697 5.18344L21.8721 5.37907L22.3933 4.83977ZM22.1909 4.64414L22.7121 4.10484C22.5694 3.96693 22.4236 3.832 22.2748 3.70005L21.7772 4.26124L21.2797 4.82244C21.4125 4.94017 21.5425 5.06051 21.6697 5.18344L22.1909 4.64414ZM21.7772 4.26124L22.2748 3.70005L22.0636 3.51278L21.566 4.07398L21.0684 4.63517L21.2797 4.82244L21.7772 4.26124ZM21.566 4.07398L22.0636 3.51278L21.8523 3.32551L21.3548 3.88671L20.8572 4.4479L21.0684 4.63517L21.566 4.07398ZM21.3548 3.88671L21.8523 3.32551C21.7071 3.19678 21.5603 3.06963 21.4118 2.94407L20.9275 3.51675L20.4432 4.08944C20.5828 4.20746 20.7208 4.32695 20.8572 4.4479L21.3548 3.88671ZM20.9275 3.51675L21.4118 2.94407L21.1958 2.76138L20.7115 3.33406L20.2272 3.90675L20.4432 4.08944L20.9275 3.51675ZM20.7115 3.33406L21.1958 2.76138L20.9797 2.57869L20.4954 3.15137L20.0112 3.72406L20.2272 3.90675L20.7115 3.33406ZM20.4954 3.15137L20.9797 2.57869C20.923 2.53068 20.8881 2.49673 20.869 2.47605C20.8598 2.46613 20.8574 2.4626 20.8593 2.46521C20.8609 2.46733 20.8709 2.48077 20.8834 2.50488L20.2183 2.85151L19.5533 3.19814C19.6665 3.41537 19.8583 3.59479 20.0112 3.72406L20.4954 3.15137ZM20.2183 2.85151L20.8834 2.50488L20.8224 2.38771L20.1573 2.73434L19.4922 3.08097L19.5533 3.19814L20.2183 2.85151ZM20.1573 2.73434L20.8224 2.38771L20.7613 2.27054L20.0962 2.61717L19.4311 2.9638L19.4922 3.08097L20.1573 2.73434ZM20.0962 2.61717L20.7613 2.27054C20.6829 2.12015 20.5539 1.98156 20.373 1.89641C20.2021 1.81599 20.0377 1.808 19.9186 1.81893C19.7018 1.83881 19.519 1.93176 19.4073 1.9961L19.7816 2.64601L20.156 3.29592C20.2133 3.26292 20.1674 3.3024 20.0555 3.31266C19.9887 3.31878 19.8688 3.31696 19.7343 3.25366C19.5898 3.18564 19.4891 3.07514 19.4311 2.9638L20.0962 2.61717ZM19.7816 2.64601L19.4073 1.9961L19.1538 2.14212L19.5281 2.79203L19.9024 3.44194L20.156 3.29592L19.7816 2.64601Z" fill="#6CBDFF"/>
<path d="M5.1372 16.7627C4.72998 16.6869 4.33843 16.9556 4.26266 17.3628C4.18688 17.77 4.45557 18.1616 4.8628 18.2373L5.1372 16.7627ZM5.09831 17.5183L5.31116 16.7991L5.27381 16.7881L5.23552 16.781L5.09831 17.5183ZM7.53794 17.5458L7.37187 16.8144L7.53794 17.5458ZM8.67923 17.4464L8.43228 18.1546L8.67923 17.4464ZM9.23414 17.6399L8.98719 18.3481L9.23414 17.6399ZM9.7119 17.9685L9.14445 18.4589L9.7119 17.9685ZM10.1125 18.432L10.68 17.9416L10.1125 18.432ZM10.6071 18.7013L10.5121 19.4453L10.6071 18.7013ZM11.7493 18.8776L11.928 18.1492L11.7493 18.8776ZM12.2682 19.0049L12.0896 19.7333L12.2682 19.0049ZM13.0858 19.0844L13.0644 19.8341L13.0858 19.0844ZM14.2529 19.0743L14.2849 19.8237L14.2529 19.0743ZM14.5574 19.0613L14.5255 18.312L14.5574 19.0613ZM15.0713 19.2746L14.5208 19.784L15.0713 19.2746ZM15.49 19.727L16.0405 19.2176L15.49 19.727ZM15.8194 20.2047L16.4962 19.8815L15.8194 20.2047ZM16.0596 20.7076L15.3828 21.0308L16.0596 20.7076ZM16.0419 21.0884L15.5284 20.5417L16.0419 21.0884ZM15.7663 21.3472L15.2529 20.8005L15.7663 21.3472ZM15.3684 21.5913L15.671 22.2775L15.3684 21.5913ZM15.1083 21.706L14.8057 21.0197L15.1083 21.706ZM14.8482 21.8207L15.1508 22.5069L14.8482 21.8207ZM14.3429 22.1039L13.9181 21.4858L14.3429 22.1039ZM14.0977 22.2724L14.5225 22.8905L14.0977 22.2724ZM13.8525 22.4409L14.2773 23.059L13.8525 22.4409ZM13.3114 22.6523L13.419 23.3946L13.3114 22.6523ZM13.0156 22.6952L12.9079 21.953L13.0156 22.6952ZM12.7197 22.7381L12.6121 21.9959L12.7197 22.7381ZM11.5177 22.5771L11.6824 21.8454L11.5177 22.5771ZM10.9719 22.3645L11.3547 21.7195L10.9719 22.3645ZM10.4844 22.0751L10.1015 22.72L10.4844 22.0751ZM9.97744 21.8285L10.2482 21.1291L9.97744 21.8285ZM9.45113 21.6247L9.18037 22.3241L9.45113 21.6247ZM9.0686 21.2951L9.7329 20.9469L9.0686 21.2951ZM8.94921 21.0673L8.28491 21.4154L8.94921 21.0673ZM8.63154 20.7747L7.95641 20.4481L7.86349 20.6401L7.88556 20.8523L8.63154 20.7747ZM8.65059 20.9579L8.49991 21.6926L9.50246 21.8982L9.39657 20.8803L8.65059 20.9579ZM8.70331 20.2031C8.29754 20.1199 7.90114 20.3814 7.81792 20.7871C7.73471 21.1929 7.99618 21.5893 8.40195 21.6725L8.70331 20.2031ZM16.0297 19.9081C15.6338 20.0297 15.4114 20.4493 15.5331 20.8453C15.6547 21.2412 16.0743 21.4636 16.4703 21.3419L16.0297 19.9081ZM16.3456 20.5956L16.3767 19.8463L16.2482 19.8409L16.1253 19.8787L16.3456 20.5956ZM16.8887 20.6182L16.9198 19.8688L16.8887 20.6182ZM17.705 20.5727L17.8864 21.3004L17.705 20.5727ZM18.2517 20.4365L18.0703 19.7087L18.2517 20.4365ZM18.741 20.114L18.1693 19.6285L18.741 20.114ZM18.9571 19.8595L19.5288 20.345L18.9571 19.8595ZM19.1731 19.6051L19.7448 20.0906L19.1731 19.6051ZM19.6963 19.3928L19.5945 20.1358L19.6963 19.3928ZM20.8585 19.3449L20.4189 18.7373L20.8585 19.3449ZM21.34 18.9966L21.7796 19.6043L21.34 18.9966ZM22.9799 18.9355L22.7964 19.6627L22.9799 18.9355ZM23.4922 19.0648L23.6757 18.3376L23.4922 19.0648ZM23.8929 19.3436L23.2711 19.763L23.8929 19.3436ZM24.1818 19.7721L24.8036 19.3527L24.1818 19.7721ZM24.5113 20.1813L23.9672 20.6975L24.5113 20.1813ZM24.8814 20.5713L25.4255 20.0551L24.8814 20.5713ZM24.8912 20.9749L25.4655 21.4573L24.8912 20.9749ZM24.716 21.1835L24.1417 20.7011L24.716 21.1835ZM24.5408 21.392L23.9665 20.9097L24.5408 21.392ZM24.1184 21.7308L23.7688 21.0673L24.1184 21.7308ZM23.8712 21.8611L24.2208 22.5246L23.8712 21.8611ZM23.624 21.9913L23.2744 21.3278L23.624 21.9913ZM23.1215 22.2419L22.8016 21.5636L23.1215 22.2419ZM22.611 22.4827L22.9309 23.161L22.611 22.4827ZM22.1252 22.7662L21.692 22.1539L22.1252 22.7662ZM21.664 23.0924L22.0972 23.7047L21.664 23.0924ZM21.1943 23.4038L20.799 22.7664L21.1943 23.4038ZM20.9551 23.5521L21.3504 24.1895L20.9551 23.5521ZM20.716 23.7004L21.1112 24.3378L20.716 23.7004ZM20.194 23.9212L20.0077 23.1947L20.194 23.9212ZM19.6282 24.0663L19.8145 24.7928L19.6282 24.0663ZM19.1538 24.3695L19.7306 24.8487L19.1538 24.3695ZM18.7705 24.8308L18.1936 24.3515L18.7705 24.8308ZM18.3418 25.2134L18.7466 25.8448L18.3418 25.2134ZM17.8678 25.5173L17.463 24.8859L17.8678 25.5173ZM17.3882 25.8116L17.7679 26.4584L17.3882 25.8116ZM17.1457 25.954L16.7659 25.3073L17.1457 25.954ZM16.9031 26.0964L17.2828 26.7432L16.9031 26.0964ZM16.4262 26.3954L16.0095 25.7718L16.4262 26.3954ZM15.9575 26.7086L15.5408 26.085L15.9575 26.7086ZM15.4449 26.9351L15.2621 26.2077L15.4449 26.9351ZM14.8886 27.075L15.0714 27.8023L14.8886 27.075ZM13.8505 27.127L13.8329 27.8767L13.8505 27.127ZM13.3234 27.1382L13.3705 27.8867L13.3234 27.1382ZM12.7758 27.1726L12.7288 26.4241L12.7758 27.1726ZM12.2288 27.122L12.048 27.8498L12.2288 27.122ZM11.6823 26.9862L11.8632 26.2583L11.6823 26.9862ZM11.1659 26.7494L11.5936 26.1334L11.1659 26.7494ZM10.6794 26.4116L10.2516 27.0276L10.6794 26.4116ZM10.1253 26.3014L10.2647 27.0384L10.1253 26.3014ZM9.50367 26.419L9.36429 25.6821L9.50367 26.419ZM8.49239 25.8724L8.98281 25.3049L8.49239 25.8724ZM7.9892 25.5908L8.20201 24.8716L7.9892 25.5908ZM7.44982 25.4312L7.66263 24.712L7.44982 25.4312ZM6.88211 25.367L6.84273 24.6181L6.88211 25.367ZM6.28607 25.3984L6.32545 26.1473L6.28607 25.3984ZM5.71959 25.389L5.65004 26.1358L5.71959 25.389ZM5.45113 25.364L5.52069 24.6173L5.45113 25.364ZM5.18267 25.339L5.11312 26.0858L5.18267 25.339ZM4.93566 25.2418L5.65467 25.4551L4.93566 25.2418ZM4.95711 25.1695L4.47583 24.5943L4.30242 24.7394L4.2381 24.9561L4.95711 25.1695ZM5.09587 25.0534L5.57715 25.6286L6.64887 24.7319L5.30922 24.3344L5.09587 25.0534ZM5.21336 24.3059C4.81626 24.1881 4.39882 24.4145 4.28099 24.8116C4.16315 25.2087 4.38954 25.6261 4.78664 25.7439L5.21336 24.3059ZM5 17.5L4.8628 18.2373L4.96111 18.2556L5.09831 17.5183L5.23552 16.781L5.1372 16.7627L5 17.5ZM5.09831 17.5183L4.88547 18.2375L5.39881 18.3894L5.61166 17.6702L5.8245 16.9511L5.31116 16.7991L5.09831 17.5183ZM5.61166 17.6702L5.39881 18.3894C5.77215 18.4999 6.17761 18.5754 6.54447 18.5066L6.40625 17.7694L6.26803 17.0323C6.27416 17.0311 6.2436 17.0372 6.15988 17.0268C6.07897 17.0167 5.96858 16.9937 5.8245 16.9511L5.61166 17.6702ZM6.40625 17.7694L6.54447 18.5066L6.82572 18.4538L6.6875 17.7167L6.54928 16.9795L6.26803 17.0323L6.40625 17.7694ZM6.6875 17.7167L6.82572 18.4538L7.10697 18.4011L6.96875 17.6639L6.83053 16.9268L6.54928 16.9795L6.6875 17.7167ZM6.96875 17.6639L7.10697 18.4011C7.30408 18.3641 7.5031 18.3228 7.70402 18.2772L7.53794 17.5458L7.37187 16.8144C7.18886 16.856 7.00842 16.8934 6.83053 16.9268L6.96875 17.6639ZM7.53794 17.5458L7.70402 18.2772L7.99196 18.2118L7.82588 17.4804L7.65981 16.7491L7.37187 16.8144L7.53794 17.5458ZM7.82588 17.4804L7.99196 18.2118L8.2799 18.1464L8.11383 17.4151L7.94775 16.6837L7.65981 16.7491L7.82588 17.4804ZM8.11383 17.4151L8.2799 18.1464C8.33544 18.1338 8.38077 18.1366 8.43228 18.1546L8.67923 17.4464L8.92618 16.7383C8.60774 16.6272 8.27613 16.6091 7.94775 16.6837L8.11383 17.4151ZM8.67923 17.4464L8.43228 18.1546L8.70973 18.2514L8.95668 17.5432L9.20363 16.835L8.92618 16.7383L8.67923 17.4464ZM8.95668 17.5432L8.70973 18.2514L8.98719 18.3481L9.23414 17.6399L9.48109 16.9318L9.20363 16.835L8.95668 17.5432ZM9.23414 17.6399L8.98719 18.3481C9.04272 18.3675 9.09302 18.3994 9.14445 18.4589L9.7119 17.9685L10.2793 17.478C10.0637 17.2285 9.7955 17.0414 9.48109 16.9318L9.23414 17.6399ZM9.7119 17.9685L9.14445 18.4589L9.34475 18.6906L9.9122 18.2002L10.4796 17.7098L10.2793 17.478L9.7119 17.9685ZM9.9122 18.2002L9.34475 18.6906L9.54505 18.9224L10.1125 18.432L10.68 17.9416L10.4796 17.7098L9.9122 18.2002ZM10.1125 18.432L9.54505 18.9224C9.79513 19.2118 10.1261 19.396 10.5121 19.4453L10.6071 18.7013L10.702 17.9573C10.6959 17.9566 10.6932 17.9557 10.6931 17.9557C10.693 17.9556 10.6939 17.9559 10.695 17.9565C10.696 17.9571 10.6956 17.9571 10.6936 17.9554C10.6915 17.9537 10.6868 17.9495 10.68 17.9416L10.1125 18.432ZM10.6071 18.7013L10.5121 19.4453L10.8064 19.4828L10.9013 18.7389L10.9963 17.9949L10.702 17.9573L10.6071 18.7013ZM10.9013 18.7389L10.8064 19.4828L11.1007 19.5204L11.1956 18.7764L11.2906 18.0325L10.9963 17.9949L10.9013 18.7389ZM11.1956 18.7764L11.1007 19.5204C11.2717 19.5422 11.4281 19.5711 11.5707 19.606L11.7493 18.8776L11.928 18.1492C11.7246 18.0993 11.5119 18.0607 11.2906 18.0325L11.1956 18.7764ZM11.7493 18.8776L11.5707 19.606L11.8301 19.6696L12.0088 18.9412L12.1874 18.2128L11.928 18.1492L11.7493 18.8776ZM12.0088 18.9412L11.8301 19.6696L12.0896 19.7333L12.2682 19.0049L12.4469 18.2765L12.1874 18.2128L12.0088 18.9412ZM12.2682 19.0049L12.0896 19.7333C12.3163 19.7889 12.5487 19.8194 12.7854 19.8262L12.8067 19.0765L12.8281 18.3268C12.6927 18.3229 12.5661 18.3057 12.4469 18.2765L12.2682 19.0049ZM12.8067 19.0765L12.7854 19.8262L13.0644 19.8341L13.0858 19.0844L13.1072 18.3347L12.8281 18.3268L12.8067 19.0765ZM13.0858 19.0844L13.0644 19.8341L13.3435 19.8421L13.3648 19.0924L13.3862 18.3427L13.1072 18.3347L13.0858 19.0844ZM13.3648 19.0924L13.3435 19.8421C13.5488 19.8479 13.7612 19.846 13.9804 19.8366L13.9484 19.0873L13.9164 18.338C13.7296 18.346 13.5529 18.3474 13.3862 18.3427L13.3648 19.0924ZM13.9484 19.0873L13.9804 19.8366L14.2849 19.8237L14.2529 19.0743L14.221 18.325L13.9164 18.338L13.9484 19.0873ZM14.2529 19.0743L14.2849 19.8237L14.5894 19.8107L14.5574 19.0613L14.5255 18.312L14.221 18.325L14.2529 19.0743ZM14.5574 19.0613L14.5894 19.8107C14.5919 19.8106 14.5884 19.8109 14.5804 19.8096C14.5722 19.8082 14.5618 19.8055 14.5507 19.8009C14.5396 19.7963 14.5309 19.7911 14.5249 19.7868C14.5192 19.7827 14.518 19.7809 14.5208 19.784L15.0713 19.2746L15.6218 18.7652C15.3346 18.4549 14.9513 18.2938 14.5255 18.312L14.5574 19.0613ZM15.0713 19.2746L14.5208 19.784L14.7302 20.0102L15.2807 19.5008L15.8311 18.9914L15.6218 18.7652L15.0713 19.2746ZM15.2807 19.5008L14.7302 20.0102L14.9395 20.2364L15.49 19.727L16.0405 19.2176L15.8311 18.9914L15.2807 19.5008ZM15.49 19.727L14.9395 20.2364C15.0333 20.3377 15.0983 20.4351 15.1426 20.5279L15.8194 20.2047L16.4962 19.8815C16.3804 19.639 16.2259 19.418 16.0405 19.2176L15.49 19.727ZM15.8194 20.2047L15.1426 20.5279L15.2627 20.7793L15.9395 20.4561L16.6163 20.1329L16.4962 19.8815L15.8194 20.2047ZM15.9395 20.4561L15.2627 20.7793L15.3828 21.0308L16.0596 20.7076L16.7364 20.3843L16.6163 20.1329L15.9395 20.4561ZM16.0596 20.7076L15.3828 21.0308C15.3924 21.0509 15.3612 20.9976 15.366 20.8936C15.3686 20.8374 15.3818 20.7713 15.4129 20.7035C15.4441 20.6355 15.486 20.5815 15.5284 20.5417L16.0419 21.0884L16.5553 21.6351C16.7447 21.4572 16.8525 21.2198 16.8644 20.9633C16.8751 20.7325 16.8068 20.5319 16.7364 20.3843L16.0596 20.7076ZM16.0419 21.0884L15.5284 20.5417L15.3906 20.6711L15.9041 21.2178L16.4175 21.7645L16.5553 21.6351L16.0419 21.0884ZM15.9041 21.2178L15.3906 20.6711L15.2529 20.8005L15.7663 21.3472L16.2797 21.8939L16.4175 21.7645L15.9041 21.2178ZM15.7663 21.3472L15.2529 20.8005C15.2457 20.8072 15.1966 20.8474 15.0658 20.9051L15.3684 21.5913L15.671 22.2775C15.8869 22.1823 16.1031 22.0598 16.2797 21.8939L15.7663 21.3472ZM15.3684 21.5913L15.0658 20.9051L14.8057 21.0197L15.1083 21.706L15.4109 22.3922L15.671 22.2775L15.3684 21.5913ZM15.1083 21.706L14.8057 21.0197L14.5456 21.1344L14.8482 21.8207L15.1508 22.5069L15.4109 22.3922L15.1083 21.706ZM14.8482 21.8207L14.5456 21.1344C14.3275 21.2306 14.1183 21.3482 13.9181 21.4858L14.3429 22.1039L14.7677 22.722C14.8944 22.6349 15.0221 22.5637 15.1508 22.5069L14.8482 21.8207ZM14.3429 22.1039L13.9181 21.4858L13.6729 21.6543L14.0977 22.2724L14.5225 22.8905L14.7677 22.722L14.3429 22.1039ZM14.0977 22.2724L13.6729 21.6543L13.4277 21.8228L13.8525 22.4409L14.2773 23.059L14.5225 22.8905L14.0977 22.2724ZM13.8525 22.4409L13.4277 21.8228C13.3595 21.8697 13.2878 21.8979 13.2038 21.9101L13.3114 22.6523L13.419 23.3946C13.7296 23.3496 14.0185 23.2369 14.2773 23.059L13.8525 22.4409ZM13.3114 22.6523L13.2038 21.9101L12.9079 21.953L13.0156 22.6952L13.1232 23.4375L13.419 23.3946L13.3114 22.6523ZM13.0156 22.6952L12.9079 21.953L12.6121 21.9959L12.7197 22.7381L12.8273 23.4804L13.1232 23.4375L13.0156 22.6952ZM12.7197 22.7381L12.6121 21.9959C12.5087 22.0109 12.4017 22.0073 12.2865 21.9814L12.1218 22.7131L11.9572 23.4448C12.2446 23.5095 12.5362 23.5226 12.8273 23.4804L12.7197 22.7381ZM12.1218 22.7131L12.2865 21.9814L11.9844 21.9134L11.8198 22.6451L11.6551 23.3768L11.9572 23.4448L12.1218 22.7131ZM11.8198 22.6451L11.9844 21.9134L11.6824 21.8454L11.5177 22.5771L11.3531 23.3088L11.6551 23.3768L11.8198 22.6451ZM11.5177 22.5771L11.6824 21.8454C11.5508 21.8158 11.4436 21.7723 11.3547 21.7195L10.9719 22.3645L10.589 23.0094C10.8252 23.1496 11.0819 23.2478 11.3531 23.3088L11.5177 22.5771ZM10.9719 22.3645L11.3547 21.7195L11.111 21.5748L10.7281 22.2198L10.3453 22.8647L10.589 23.0094L10.9719 22.3645ZM10.7281 22.2198L11.111 21.5748L10.8672 21.4301L10.4844 22.0751L10.1015 22.72L10.3453 22.8647L10.7281 22.2198ZM10.4844 22.0751L10.8672 21.4301C10.6691 21.3125 10.4626 21.2121 10.2482 21.1291L9.97744 21.8285L9.70667 22.5279C9.84312 22.5807 9.97462 22.6447 10.1015 22.72L10.4844 22.0751ZM9.97744 21.8285L10.2482 21.1291L9.98505 21.0272L9.71428 21.7266L9.44352 22.426L9.70667 22.5279L9.97744 21.8285ZM9.71428 21.7266L9.98505 21.0272L9.7219 20.9253L9.45113 21.6247L9.18037 22.3241L9.44352 22.426L9.71428 21.7266ZM9.45113 21.6247L9.7219 20.9253C9.71305 20.9219 9.70887 20.9195 9.70818 20.9191C9.70759 20.9188 9.70976 20.92 9.71355 20.9232C9.71739 20.9266 9.72156 20.9308 9.72545 20.9357C9.72931 20.9406 9.73172 20.9447 9.7329 20.9469L9.0686 21.2951L8.4043 21.6432C8.57663 21.972 8.85329 22.1975 9.18037 22.3241L9.45113 21.6247ZM9.0686 21.2951L9.7329 20.9469L9.61351 20.7191L8.94921 21.0673L8.28491 21.4154L8.4043 21.6432L9.0686 21.2951ZM8.94921 21.0673L9.61351 20.7191L9.49413 20.4913L8.82983 20.8395L8.16553 21.1876L8.28491 21.4154L8.94921 21.0673ZM8.82983 20.8395L9.49413 20.4913C9.45449 20.4157 9.3704 20.2588 9.23846 20.1373C9.18658 20.0895 8.97376 19.9002 8.64277 19.9236C8.24227 19.952 8.05355 20.2473 7.99586 20.3665L8.67099 20.6932L9.34612 21.0198C9.30158 21.1119 9.12935 21.3929 8.74866 21.4199C8.43748 21.4419 8.2478 21.2641 8.22239 21.2407C8.1434 21.168 8.12558 21.1114 8.16553 21.1876L8.82983 20.8395ZM8.67099 20.6932L7.99586 20.3665L7.95641 20.4481L8.63154 20.7747L9.30667 21.1014L9.34612 21.0198L8.67099 20.6932ZM8.63154 20.7747L7.88556 20.8523L7.90462 21.0355L8.65059 20.9579L9.39657 20.8803L9.37751 20.6971L8.63154 20.7747ZM8.65059 20.9579L8.80127 20.2232L8.70331 20.2031L8.55263 20.9378L8.40195 21.6725L8.49991 21.6926L8.65059 20.9579ZM16.25 20.625L16.4703 21.3419L16.5659 21.3126L16.3456 20.5956L16.1253 19.8787L16.0297 19.9081L16.25 20.625ZM16.3456 20.5956L16.3145 21.345L16.8575 21.3675L16.8887 20.6182L16.9198 19.8688L16.3767 19.8463L16.3456 20.5956ZM16.8887 20.6182L16.8575 21.3675C17.2377 21.3833 17.5971 21.3725 17.8864 21.3004L17.705 20.5727L17.5237 19.8449C17.4486 19.8636 17.2637 19.8831 16.9198 19.8688L16.8887 20.6182ZM17.705 20.5727L17.8864 21.3004L18.1597 21.2323L17.9783 20.5046L17.797 19.7768L17.5237 19.8449L17.705 20.5727ZM17.9783 20.5046L18.1597 21.2323L18.433 21.1642L18.2517 20.4365L18.0703 19.7087L17.797 19.7768L17.9783 20.5046ZM18.2517 20.4365L18.433 21.1642C18.794 21.0743 19.0864 20.8659 19.3127 20.5994L18.741 20.114L18.1693 19.6285C18.1076 19.7012 18.0737 19.7079 18.0703 19.7087L18.2517 20.4365ZM18.741 20.114L19.3127 20.5994L19.5288 20.345L18.9571 19.8595L18.3854 19.3741L18.1693 19.6285L18.741 20.114ZM18.9571 19.8595L19.5288 20.345L19.7448 20.0906L19.1731 19.6051L18.6014 19.1196L18.3854 19.3741L18.9571 19.8595ZM19.1731 19.6051L19.7448 20.0906C19.7528 20.0812 19.7375 20.1021 19.694 20.1198C19.6479 20.1384 19.609 20.1378 19.5945 20.1358L19.6963 19.3928L19.7982 18.6497C19.3172 18.5838 18.8961 18.7727 18.6014 19.1196L19.1731 19.6051ZM19.6963 19.3928L19.5945 20.1358L19.9017 20.1779L20.0035 19.4349L20.1053 18.6918L19.7982 18.6497L19.6963 19.3928ZM20.0035 19.4349L19.9017 20.1779L20.2088 20.22L20.3107 19.477L20.4125 18.7339L20.1053 18.6918L20.0035 19.4349ZM20.3107 19.477L20.2088 20.22C20.5956 20.273 20.9739 20.1871 21.2981 19.9526L20.8585 19.3449L20.4189 18.7373C20.4155 18.7397 20.4148 18.7398 20.4169 18.7388C20.419 18.7378 20.4221 18.7367 20.4255 18.7359C20.4288 18.7351 20.4304 18.7351 20.4292 18.7351C20.4279 18.7352 20.4226 18.7353 20.4125 18.7339L20.3107 19.477ZM20.8585 19.3449L21.2981 19.9526L21.5389 19.7784L21.0993 19.1708L20.6597 18.5631L20.4189 18.7373L20.8585 19.3449ZM21.0993 19.1708L21.5389 19.7784L21.7796 19.6043L21.34 18.9966L20.9004 18.389L20.6597 18.5631L21.0993 19.1708ZM21.34 18.9966L21.7796 19.6043C21.7985 19.5906 21.8093 19.5869 21.8126 19.5858C21.8156 19.5849 21.8215 19.5833 21.8347 19.5839L21.8665 18.8346L21.8982 18.0852C21.5322 18.0697 21.1918 18.1781 20.9004 18.389L21.34 18.9966ZM21.8665 18.8346L21.8347 19.5839L22.1205 19.596L22.1522 18.8467L22.1839 18.0973L21.8982 18.0852L21.8665 18.8346ZM22.1522 18.8467L22.1205 19.596L22.4063 19.6081L22.438 18.8588L22.4697 18.1094L22.1839 18.0973L22.1522 18.8467ZM22.438 18.8588L22.4063 19.6081C22.5497 19.6142 22.6792 19.6331 22.7964 19.6627L22.9799 18.9355L23.1634 18.2083C22.939 18.1517 22.7072 18.1195 22.4697 18.1094L22.438 18.8588ZM22.9799 18.9355L22.7964 19.6627L23.0526 19.7273L23.2361 19.0001L23.4196 18.2729L23.1634 18.2083L22.9799 18.9355ZM23.2361 19.0001L23.0526 19.7273L23.3088 19.792L23.4922 19.0648L23.6757 18.3376L23.4196 18.2729L23.2361 19.0001ZM23.4922 19.0648L23.3088 19.792C23.3137 19.7932 23.3054 19.7917 23.292 19.7824C23.286 19.7781 23.2807 19.7736 23.2767 19.7694C23.2727 19.7653 23.2709 19.7628 23.2711 19.763L23.8929 19.3436L24.5147 18.9243C24.3126 18.6246 24.0211 18.4247 23.6757 18.3376L23.4922 19.0648ZM23.8929 19.3436L23.2711 19.763L23.4156 19.9772L24.0374 19.5578L24.6592 19.1385L24.5147 18.9243L23.8929 19.3436ZM24.0374 19.5578L23.4156 19.9772L23.56 20.1914L24.1818 19.7721L24.8036 19.3527L24.6592 19.1385L24.0374 19.5578ZM24.1818 19.7721L23.56 20.1914C23.6804 20.3699 23.8165 20.5386 23.9672 20.6975L24.5113 20.1813L25.0554 19.6651C24.9595 19.564 24.8759 19.4598 24.8036 19.3527L24.1818 19.7721ZM24.5113 20.1813L23.9672 20.6975L24.1522 20.8925L24.6963 20.3763L25.2404 19.8601L25.0554 19.6651L24.5113 20.1813ZM24.6963 20.3763L24.1522 20.8925L24.3373 21.0875L24.8814 20.5713L25.4255 20.0551L25.2404 19.8601L24.6963 20.3763ZM24.8814 20.5713L24.3373 21.0875C24.3142 21.0633 24.2308 20.9609 24.2265 20.788C24.2224 20.617 24.2992 20.5136 24.3169 20.4925L24.8912 20.9749L25.4655 21.4573C25.5999 21.2972 25.7335 21.057 25.7261 20.7515C25.7186 20.4441 25.5718 20.2094 25.4255 20.0551L24.8814 20.5713ZM24.8912 20.9749L24.3169 20.4925L24.1417 20.7011L24.716 21.1835L25.2903 21.6659L25.4655 21.4573L24.8912 20.9749ZM24.716 21.1835L24.1417 20.7011L23.9665 20.9097L24.5408 21.392L25.1151 21.8744L25.2903 21.6659L24.716 21.1835ZM24.5408 21.392L23.9665 20.9097C23.9138 20.9724 23.85 21.0245 23.7688 21.0673L24.1184 21.7308L24.468 22.3944C24.7164 22.2635 24.9342 22.0898 25.1151 21.8744L24.5408 21.392ZM24.1184 21.7308L23.7688 21.0673L23.5216 21.1975L23.8712 21.8611L24.2208 22.5246L24.468 22.3944L24.1184 21.7308ZM23.8712 21.8611L23.5216 21.1975L23.2744 21.3278L23.624 21.9913L23.9736 22.6549L24.2208 22.5246L23.8712 21.8611ZM23.624 21.9913L23.2744 21.3278C23.1195 21.4094 22.9619 21.488 22.8016 21.5636L23.1215 22.2419L23.4414 22.9203C23.6215 22.8354 23.7989 22.7469 23.9736 22.6549L23.624 21.9913ZM23.1215 22.2419L22.8016 21.5636L22.5464 21.6839L22.8663 22.3623L23.1862 23.0407L23.4414 22.9203L23.1215 22.2419ZM22.8663 22.3623L22.5464 21.6839L22.2911 21.8043L22.611 22.4827L22.9309 23.161L23.1862 23.0407L22.8663 22.3623ZM22.611 22.4827L22.2911 21.8043C22.0813 21.9032 21.8815 22.0199 21.692 22.1539L22.1252 22.7662L22.5583 23.3784C22.6763 23.295 22.8004 23.2226 22.9309 23.161L22.611 22.4827ZM22.1252 22.7662L21.692 22.1539L21.4614 22.317L21.8946 22.9293L22.3277 23.5416L22.5583 23.3784L22.1252 22.7662ZM21.8946 22.9293L21.4614 22.317L21.2308 22.4801L21.664 23.0924L22.0972 23.7047L22.3277 23.5416L21.8946 22.9293ZM21.664 23.0924L21.2308 22.4801C21.0895 22.5802 20.9455 22.6756 20.799 22.7664L21.1943 23.4038L21.5895 24.0412C21.7619 23.9344 21.9311 23.8222 22.0972 23.7047L21.664 23.0924ZM21.1943 23.4038L20.799 22.7664L20.5599 22.9147L20.9551 23.5521L21.3504 24.1895L21.5895 24.0412L21.1943 23.4038ZM20.9551 23.5521L20.5599 22.9147L20.3207 23.063L20.716 23.7004L21.1112 24.3378L21.3504 24.1895L20.9551 23.5521ZM20.716 23.7004L20.3207 23.063C20.2284 23.1202 20.1253 23.1646 20.0077 23.1947L20.194 23.9212L20.3802 24.6477C20.6398 24.5812 20.8846 24.4783 21.1112 24.3378L20.716 23.7004ZM20.194 23.9212L20.0077 23.1947L19.7248 23.2673L19.9111 23.9938L20.0974 24.7203L20.3802 24.6477L20.194 23.9212ZM19.9111 23.9938L19.7248 23.2673L19.442 23.3398L19.6282 24.0663L19.8145 24.7928L20.0974 24.7203L19.9111 23.9938ZM19.6282 24.0663L19.442 23.3398C19.0961 23.4285 18.8026 23.6184 18.5769 23.8902L19.1538 24.3695L19.7306 24.8487C19.7604 24.8129 19.7833 24.8008 19.8145 24.7928L19.6282 24.0663ZM19.1538 24.3695L18.5769 23.8902L18.3852 24.1209L18.9621 24.6001L19.539 25.0794L19.7306 24.8487L19.1538 24.3695ZM18.9621 24.6001L18.3852 24.1209L18.1936 24.3515L18.7705 24.8308L19.3474 25.31L19.539 25.0794L18.9621 24.6001ZM18.7705 24.8308L18.1936 24.3515C18.1119 24.4499 18.0262 24.5249 17.9371 24.582L18.3418 25.2134L18.7466 25.8448C18.9736 25.6993 19.1736 25.5192 19.3474 25.31L18.7705 24.8308ZM18.3418 25.2134L17.9371 24.582L17.7001 24.7339L18.1048 25.3653L18.5096 25.9967L18.7466 25.8448L18.3418 25.2134ZM18.1048 25.3653L17.7001 24.7339L17.463 24.8859L17.8678 25.5173L18.2725 26.1487L18.5096 25.9967L18.1048 25.3653ZM17.8678 25.5173L17.463 24.8859C17.3132 24.9819 17.1617 25.0749 17.0085 25.1649L17.3882 25.8116L17.7679 26.4584C17.9381 26.3585 18.1063 26.2553 18.2725 26.1487L17.8678 25.5173ZM17.3882 25.8116L17.0085 25.1649L16.7659 25.3073L17.1457 25.954L17.5254 26.6008L17.7679 26.4584L17.3882 25.8116ZM17.1457 25.954L16.7659 25.3073L16.5234 25.4497L16.9031 26.0964L17.2828 26.7432L17.5254 26.6008L17.1457 25.954ZM16.9031 26.0964L16.5234 25.4497C16.3491 25.552 16.1778 25.6594 16.0095 25.7718L16.4262 26.3954L16.8429 27.019C16.9871 26.9227 17.1337 26.8308 17.2828 26.7432L16.9031 26.0964ZM16.4262 26.3954L16.0095 25.7718L15.7752 25.9284L16.1918 26.552L16.6085 27.1756L16.8429 27.019L16.4262 26.3954ZM16.1918 26.552L15.7752 25.9284L15.5408 26.085L15.9575 26.7086L16.3742 27.3322L16.6085 27.1756L16.1918 26.552ZM15.9575 26.7086L15.5408 26.085C15.4573 26.1408 15.3658 26.1817 15.2621 26.2077L15.4449 26.9351L15.6278 27.6625C15.895 27.5953 16.1452 27.4852 16.3742 27.3322L15.9575 26.7086ZM15.4449 26.9351L15.2621 26.2077L14.9839 26.2777L15.1668 27.005L15.3496 27.7324L15.6278 27.6625L15.4449 26.9351ZM15.1668 27.005L14.9839 26.2777L14.7058 26.3476L14.8886 27.075L15.0714 27.8023L15.3496 27.7324L15.1668 27.005ZM14.8886 27.075L14.7058 26.3476C14.5773 26.3799 14.4679 26.3913 14.3748 26.3891L14.3571 27.1389L14.3394 27.8887C14.584 27.8945 14.8289 27.8633 15.0714 27.8023L14.8886 27.075ZM14.3571 27.1389L14.3748 26.3891L14.1215 26.3831L14.1038 27.1329L14.0861 27.8827L14.3394 27.8887L14.3571 27.1389ZM14.1038 27.1329L14.1215 26.3831L13.8682 26.3772L13.8505 27.127L13.8329 27.8767L14.0861 27.8827L14.1038 27.1329ZM13.8505 27.127L13.8682 26.3772C13.6761 26.3726 13.4787 26.377 13.2764 26.3897L13.3234 27.1382L13.3705 27.8867C13.5332 27.8765 13.6873 27.8733 13.8329 27.8767L13.8505 27.127ZM13.3234 27.1382L13.2764 26.3897L13.0026 26.4069L13.0496 27.1554L13.0967 27.9039L13.3705 27.8867L13.3234 27.1382ZM13.0496 27.1554L13.0026 26.4069L12.7288 26.4241L12.7758 27.1726L12.8229 27.9211L13.0967 27.9039L13.0496 27.1554ZM12.7758 27.1726L12.7288 26.4241C12.6248 26.4306 12.5193 26.4213 12.4096 26.3941L12.2288 27.122L12.048 27.8498C12.3026 27.9131 12.5618 27.9376 12.8229 27.9211L12.7758 27.1726ZM12.2288 27.122L12.4096 26.3941L12.1364 26.3262L11.9556 27.0541L11.7747 27.7819L12.048 27.8498L12.2288 27.122ZM11.9556 27.0541L12.1364 26.3262L11.8632 26.2583L11.6823 26.9862L11.5015 27.7141L11.7747 27.7819L11.9556 27.0541ZM11.6823 26.9862L11.8632 26.2583C11.774 26.2362 11.6849 26.1967 11.5936 26.1334L11.1659 26.7494L10.7381 27.3654C10.9711 27.5273 11.2264 27.6457 11.5015 27.7141L11.6823 26.9862ZM11.1659 26.7494L11.5936 26.1334L11.3504 25.9644L10.9226 26.5805L10.4948 27.1965L10.7381 27.3654L11.1659 26.7494ZM10.9226 26.5805L11.3504 25.9644L11.1072 25.7955L10.6794 26.4116L10.2516 27.0276L10.4948 27.1965L10.9226 26.5805ZM10.6794 26.4116L11.1072 25.7955C10.7677 25.5598 10.3758 25.4907 9.98592 25.5645L10.1253 26.3014L10.2647 27.0384C10.2754 27.0363 10.2807 27.0362 10.2812 27.0362C10.2816 27.0362 10.2785 27.0363 10.273 27.0352C10.2674 27.0341 10.2618 27.0323 10.2569 27.0302C10.2522 27.0282 10.2503 27.0267 10.2516 27.0276L10.6794 26.4116ZM10.1253 26.3014L9.98592 25.5645L9.67511 25.6233L9.81448 26.3602L9.95386 27.0971L10.2647 27.0384L10.1253 26.3014ZM9.81448 26.3602L9.67511 25.6233L9.36429 25.6821L9.50367 26.419L9.64305 27.1559L9.95386 27.0971L9.81448 26.3602ZM9.50367 26.419L9.36429 25.6821C9.3565 25.6835 9.37304 25.6794 9.40278 25.6872C9.4164 25.6908 9.4283 25.6958 9.43757 25.7008C9.44662 25.7057 9.45059 25.7092 9.44979 25.7085L8.95937 26.276L8.46894 26.8434C8.80267 27.1318 9.21758 27.2364 9.64305 27.1559L9.50367 26.419ZM8.95937 26.276L9.44979 25.7085L9.2163 25.5067L8.72588 26.0742L8.23545 26.6416L8.46894 26.8434L8.95937 26.276ZM8.72588 26.0742L9.2163 25.5067L8.98281 25.3049L8.49239 25.8724L8.00196 26.4398L8.23545 26.6416L8.72588 26.0742ZM8.49239 25.8724L8.98281 25.3049C8.75438 25.1075 8.49367 24.9579 8.20201 24.8716L7.9892 25.5908L7.7764 26.3099C7.84433 26.33 7.91907 26.3682 8.00196 26.4398L8.49239 25.8724ZM7.9892 25.5908L8.20201 24.8716L7.93232 24.7918L7.71951 25.511L7.50671 26.2301L7.7764 26.3099L7.9892 25.5908ZM7.71951 25.511L7.93232 24.7918L7.66263 24.712L7.44982 25.4312L7.23702 26.1503L7.50671 26.2301L7.71951 25.511ZM7.44982 25.4312L7.66263 24.712C7.39619 24.6332 7.12132 24.6034 6.84273 24.6181L6.88211 25.367L6.92149 26.116C7.04026 26.1098 7.14386 26.1228 7.23702 26.1503L7.44982 25.4312ZM6.88211 25.367L6.84273 24.6181L6.54471 24.6337L6.58409 25.3827L6.62347 26.1317L6.92149 26.116L6.88211 25.367ZM6.58409 25.3827L6.54471 24.6337L6.24669 24.6494L6.28607 25.3984L6.32545 26.1473L6.62347 26.1317L6.58409 25.3827ZM6.28607 25.3984L6.24669 24.6494C6.08053 24.6581 5.92831 24.6552 5.78914 24.6423L5.71959 25.389L5.65004 26.1358C5.86881 26.1562 6.09424 26.1595 6.32545 26.1473L6.28607 25.3984ZM5.71959 25.389L5.78914 24.6423L5.52069 24.6173L5.45113 25.364L5.38158 26.1108L5.65004 26.1358L5.71959 25.389ZM5.45113 25.364L5.52069 24.6173L5.25223 24.5923L5.18267 25.339L5.11312 26.0858L5.38158 26.1108L5.45113 25.364ZM5.18267 25.339L5.25223 24.5923C5.17632 24.5852 5.19924 24.5799 5.26151 24.6044C5.28763 24.6147 5.40746 24.6624 5.51618 24.7912C5.57719 24.8635 5.63777 24.9654 5.66687 25.0959C5.69633 25.2281 5.68516 25.3524 5.65467 25.4551L4.93566 25.2418L4.21665 25.0284C4.13708 25.2966 4.20818 25.5671 4.36993 25.7587C4.49566 25.9077 4.64459 25.9736 4.71187 26C4.85648 26.057 5.01006 26.0762 5.11312 26.0858L5.18267 25.339ZM4.93566 25.2418L5.65467 25.4551L5.67612 25.3828L4.95711 25.1695L4.2381 24.9561L4.21665 25.0284L4.93566 25.2418ZM4.95711 25.1695L5.43839 25.7447L5.57715 25.6286L5.09587 25.0534L4.61459 24.4782L4.47583 24.5943L4.95711 25.1695ZM5.09587 25.0534L5.30922 24.3344L5.21336 24.3059L5 25.0249L4.78664 25.7439L4.88251 25.7724L5.09587 25.0534Z" fill="#6CBDFF"/>
</svg>
