<svg width="32" height="33" viewBox="0 0 32 33" fill="none" xmlns="http://www.w3.org/2000/svg">
<path d="M7.61387 5.76875C7.85323 5.75921 8.081 5.81228 8.28887 5.9125L8.58887 6.1L8.88887 6.33125L9.17637 6.55625L9.39512 6.49375L9.69512 6.41875C10.0253 6.33314 10.3644 6.33479 10.6951 6.41875L10.9951 6.49375L11.2514 6.5625L11.2576 6.55625L11.8576 6.15625L12.1889 5.9875C12.3114 5.94572 12.4475 5.92083 12.5889 5.91875C12.7281 5.91703 12.8603 5.93728 12.9826 5.975L13.3264 6.1375L13.6264 6.33125L13.8451 6.475L14.3451 6.225C14.6356 6.08368 14.9508 6.03363 15.2639 6.08125L15.5764 6.1625L15.8764 6.275L16.1451 6.375L16.4326 6.23125L16.7326 6.075C17.0452 5.9149 17.3836 5.86564 17.7139 5.9375L18.0389 6.05L18.3389 6.19375L18.6389 6.33125C18.7062 6.3628 18.7442 6.3605 18.7701 6.35625L19.0701 6.3125L19.3701 6.2625C19.6803 6.2119 19.991 6.2226 20.2951 6.3L20.5951 6.38125L20.8951 6.45625C20.9523 6.47075 21.0077 6.46879 21.0701 6.45L21.3701 6.3625L21.6701 6.26875C21.8861 6.20379 22.1031 6.14881 22.3201 6.1L22.9201 5.9625C23.2209 5.89495 23.5287 5.88522 23.8326 5.9375L24.1326 5.99375L24.4326 6.04375C24.7129 6.09213 24.9822 6.17946 25.2326 6.3125L25.4951 6.45625L25.7514 6.59375C25.9161 6.68143 26.0994 6.7727 26.2951 6.86875L26.6014 7.01875L26.9014 7.16875C27.1155 7.27384 27.3302 7.43838 27.4701 7.69375C27.6105 7.9504 27.6368 8.22297 27.6076 8.4625L27.5639 8.79375L27.5264 9.125C27.4936 9.39336 27.4387 9.65538 27.3576 9.90625L27.2576 10.2062L27.1701 10.4875L27.4826 11.0875C27.6917 11.4868 27.7224 11.9392 27.5451 12.3688L27.4264 12.6688L27.3014 12.9688C27.2573 13.0758 27.2383 13.1672 27.2389 13.25L27.2451 13.55V13.85C27.2462 13.9463 27.2687 14.0525 27.3139 14.1688L27.4264 14.4688L27.5451 14.7688C27.6971 15.1586 27.6988 15.581 27.5139 15.975L27.2514 16.525C27.15 16.7398 26.9688 16.9794 26.6639 17.1062C26.3646 17.2306 26.0738 17.1938 25.8576 17.125L25.5576 17.0312L25.2576 16.9313C25.1983 16.9123 25.1468 16.9118 25.0951 16.925L24.7951 17.0063L24.4951 17.0813C24.1486 17.1696 23.797 17.1574 23.4576 17.05L22.8576 16.8625L22.8514 16.8562L22.8451 16.8625C22.8413 16.8635 22.8311 16.8639 22.8201 16.8688L22.2201 17.1313C21.9528 17.2492 21.6758 17.3308 21.3889 17.3625L20.7889 17.425C20.3932 17.4684 20.0197 17.3712 19.6951 17.1813L19.3951 17.0063L19.1326 16.8438L18.8951 16.9438L18.5951 17.0625C18.1964 17.22 17.7739 17.2113 17.3826 17.0437L17.0826 16.9125L16.8264 16.8063L16.5639 16.9438L16.2639 17.0938C15.8825 17.2902 15.4536 17.3405 15.0326 17.1938L14.4326 16.9812C14.3432 16.9505 14.2669 16.9413 14.1951 16.95L13.5951 17.025C13.3786 17.0512 13.1619 17.069 12.9451 17.0813L12.3451 17.1188C12.0864 17.1334 11.8268 17.1168 11.5701 17.075L10.9701 16.975C10.8807 16.9606 10.7905 16.9695 10.6951 16.9938L10.0951 17.1438C9.86883 17.2011 9.64187 17.2483 9.41387 17.2812L8.81387 17.3688C8.45067 17.4213 8.09644 17.3592 7.77012 17.2125L7.47012 17.075L7.17012 16.9438C7.05761 16.8932 6.96155 16.8719 6.87637 16.8688L6.57637 16.8562L6.27637 16.85C6.02836 16.8421 5.76886 16.8066 5.53262 16.7188L5.33887 16.65L5.15137 16.575C4.86557 16.4676 4.63728 16.2403 4.54512 15.925C4.46839 15.6612 4.5073 15.4134 4.55137 15.25L4.71387 14.65V14.6375C4.7121 14.632 4.70716 14.6242 4.70137 14.6125L4.55762 14.3125L4.40762 14.0125C4.24357 13.6798 4.1723 13.3112 4.23262 12.9313L4.28262 12.6312L4.32637 12.3313C4.37048 12.054 4.45729 11.785 4.57637 11.525L4.71387 11.225L4.83887 10.9625L4.70762 10.7L4.57012 10.4C4.45826 10.163 4.35874 9.89317 4.33887 9.61875L4.32637 9.41875L4.30762 9.225C4.3015 9.13965 4.29537 8.98734 4.33262 8.83125C4.35123 8.75339 4.39613 8.60033 4.52012 8.45625C4.57301 8.39481 4.64348 8.35099 4.71387 8.30625L4.76387 8.1625L4.85137 7.88125C4.94776 7.58665 5.10564 7.32118 5.30762 7.0875L5.51387 6.85L5.72012 6.60625C5.95947 6.32988 6.26319 6.13925 6.60762 6.03125L7.24512 5.83125L7.61387 5.76875ZM7.40137 7.45625L7.08887 7.55625C7.01338 7.57981 6.96824 7.61513 6.93262 7.65625L6.72637 7.89375L6.51387 8.13125C6.44003 8.21669 6.4019 8.30322 6.37637 8.38125L6.28262 8.65625L6.18887 8.9375C6.15382 9.04453 6.11181 9.17031 6.05137 9.28125C6.02906 9.32204 5.98076 9.37782 5.92637 9.44375L5.93262 9.50625C5.93411 9.51322 5.93934 9.52521 5.94512 9.54375C5.95763 9.58371 5.97834 9.64348 6.01387 9.71875L6.15762 10.0187L6.29512 10.3188C6.48931 10.7306 6.49795 11.1782 6.30762 11.5938L6.03262 12.1937C5.96948 12.332 5.92707 12.46 5.90762 12.5813L5.86387 12.8812L5.81387 13.1813C5.81068 13.2013 5.80566 13.2389 5.83887 13.3063L6.13887 13.9062C6.31561 14.2658 6.36624 14.6666 6.25762 15.0688L6.20762 15.2312C6.23953 15.2347 6.27928 15.2485 6.32637 15.25L6.62637 15.2563L6.92637 15.2688C7.23929 15.279 7.54118 15.3532 7.82637 15.4812L8.12637 15.6188L8.42637 15.75C8.49888 15.7826 8.54609 15.7863 8.58262 15.7812L9.18262 15.6938C9.35397 15.669 9.5283 15.6376 9.70137 15.5938L10.0014 15.5188L10.3014 15.4375C10.6054 15.3604 10.9164 15.3497 11.2264 15.4L11.5264 15.45L11.8264 15.4938C11.9688 15.5169 12.1109 15.5265 12.2514 15.5188L12.5514 15.5L12.8514 15.4875C13.0337 15.4772 13.2188 15.4596 13.4014 15.4375L14.0014 15.3625C14.3288 15.3229 14.6547 15.361 14.9639 15.4688L15.2639 15.575L15.5326 15.6687L15.8326 15.5188L16.1326 15.3625C16.4349 15.2071 16.7636 15.1587 17.0889 15.2188L17.4139 15.3125L17.7139 15.4438L18.0139 15.5688L18.3076 15.4563L18.6076 15.3375L18.9389 15.2438C19.1628 15.2116 19.3849 15.2366 19.5951 15.3063L19.9014 15.45L20.5014 15.8C20.5765 15.8441 20.6101 15.8379 20.6139 15.8375L20.9139 15.8063L21.2139 15.7688C21.325 15.7563 21.4458 15.7264 21.5764 15.6687L22.1764 15.4062C22.546 15.243 22.945 15.2131 23.3389 15.3375L23.9389 15.525C23.9987 15.5439 24.0487 15.5448 24.1014 15.5312L24.4014 15.4563L24.7014 15.375C25.0493 15.2862 25.4049 15.3036 25.7451 15.4125L25.9701 15.4812L26.0451 15.325L25.9389 15.05L25.8201 14.75C25.7102 14.4674 25.6484 14.1713 25.6451 13.8688V13.5687L25.6389 13.2688C25.6356 12.9531 25.7001 12.647 25.8201 12.3563L25.9451 12.0563L26.0451 11.8L25.9076 11.5312L25.7514 11.2313C25.5556 10.8567 25.5028 10.4328 25.6389 10.0125L25.7389 9.7125L25.8326 9.4125C25.8804 9.26464 25.9178 9.10412 25.9389 8.93125L25.9764 8.6L25.9889 8.5L25.8951 8.45625L25.5889 8.30625C25.3796 8.20358 25.1836 8.10328 25.0014 8.00625L24.7451 7.86875L24.4826 7.725C24.3873 7.67434 24.2817 7.63931 24.1639 7.61875L23.5639 7.51875C23.4682 7.50224 23.3689 7.50282 23.2701 7.525L22.9701 7.59375L22.6701 7.65625C22.4898 7.6968 22.3077 7.74541 22.1264 7.8L21.8264 7.89375L21.5264 7.98125C21.1898 8.08227 20.8431 8.09302 20.5014 8.00625L20.2014 7.93125L19.9014 7.85C19.8061 7.82574 19.7156 7.82288 19.6264 7.8375L19.0264 7.9375C18.6528 7.99857 18.2898 7.93723 17.9576 7.78125L17.6576 7.6375L17.4076 7.525L17.1639 7.65L16.8639 7.80625C16.4766 8.00462 16.0421 8.04406 15.6201 7.8875L15.3201 7.775L15.0389 7.66875L14.7451 7.8125L14.4451 7.95625C13.977 8.18346 13.4855 8.13229 13.0701 7.86875L12.7701 7.68125L12.6014 7.575L12.4389 7.6875L12.1389 7.8875C11.7849 8.12234 11.3562 8.2341 10.9014 8.11875L10.3014 7.96875C10.2329 7.95136 10.1702 7.95128 10.1014 7.96875L9.80137 8.04375L9.50137 8.125C9.0077 8.253 8.55468 8.09368 8.20762 7.825L7.90762 7.59375L7.63262 7.38125L7.40137 7.45625Z" fill="#FFB84C"/>
<path d="M4.00586 23.4939C4.42853 23.4939 4.76413 23.8225 4.79336 24.2377L4.91836 24.6502C5.01897 24.9891 5.0885 25.3153 5.09961 25.5939L5.12461 26.1314C5.13117 26.2977 5.13798 26.3844 5.14336 26.4127L5.19336 26.6752C5.21403 26.7839 5.25307 27.0644 5.08086 27.3439C4.87071 27.6848 4.52943 27.7558 4.33086 27.7564H4.04336L4.03086 27.7502C4.02247 27.7505 4.01432 27.7564 4.00586 27.7564C3.56403 27.7564 3.20586 27.3983 3.20586 26.9564V25.6064L3.51211 25.7439L3.50586 25.6564C3.50263 25.5799 3.47044 25.4081 3.38086 25.1064L3.23711 24.6189L3.20586 24.5127V24.2939C3.20586 23.8521 3.56403 23.4939 4.00586 23.4939Z" fill="#FFB84C"/>
<path d="M27.9951 23.4939C28.4069 23.4939 28.7321 23.8065 28.7764 24.2064L28.9264 24.6002C29.0544 24.9461 29.1539 25.3204 29.1389 25.6627L29.1264 25.9314L29.1201 26.1939C29.1125 26.3664 29.1115 26.4732 29.1139 26.5252L29.1264 26.7877C29.1308 26.887 29.13 27.111 29.0014 27.3314C28.8307 27.6236 28.5279 27.7564 28.2451 27.7564H27.9389L27.9139 27.7377C27.5111 27.6961 27.1951 27.3702 27.1951 26.9564V25.4502L27.5451 25.6564V25.5939C27.545 25.5941 27.5435 25.5588 27.5264 25.4814C27.5086 25.4017 27.4769 25.2932 27.4264 25.1564L27.2451 24.6689L27.1951 24.5377V24.2939C27.1951 23.8521 27.5533 23.4939 27.9951 23.4939Z" fill="#FFB84C"/>
<path d="M18.3824 11.7971L18.7137 11.8783L19.3137 12.1033C19.4425 12.1516 19.5991 12.2229 19.7387 12.3283C19.7869 12.3648 19.8452 12.4372 19.9137 12.5221L19.9637 12.5096L20.3012 12.5033C20.4171 12.5161 20.5368 12.5467 20.6512 12.5971C20.7606 12.6456 20.8552 12.7085 20.9387 12.7783L21.1574 13.0096L21.3324 13.2346L21.5012 13.4658C21.7328 13.7736 21.8421 14.1402 21.8074 14.5283L21.7824 14.8096L21.7574 15.0846C21.7546 15.1161 21.7518 15.1448 21.7512 15.1658V15.1846L21.7824 15.2721L21.8324 15.4033C21.8944 15.567 21.9193 15.7809 21.8449 16.0033C21.7743 16.2144 21.6398 16.3521 21.5324 16.4346C21.3416 16.5808 21.1225 16.6397 20.9949 16.6658L20.6949 16.7283L20.3949 16.7846C20.1851 16.8274 19.9737 16.8686 19.7637 16.9033L19.1637 17.0033C18.8617 17.0532 18.5562 17.0447 18.2574 16.9783L17.6574 16.8408C17.6283 16.8347 17.5942 16.8365 17.5387 16.8596L16.9387 17.1096C16.6183 17.2424 16.2761 17.2949 15.9262 17.2471L15.3262 17.1596C15.1845 17.14 15.0417 17.1421 14.9012 17.1533L14.6012 17.1721L14.3012 17.1971C13.9551 17.2253 13.6183 17.1614 13.3074 17.0221L13.0074 16.8846L12.7324 16.7596L12.4637 16.8846L12.1637 17.0221C11.8226 17.1756 11.3671 17.2484 10.9324 17.0096L10.7199 16.8971L10.5074 16.7783C10.2749 16.6498 10.0642 16.4226 9.98867 16.0971C9.92144 15.8056 9.99078 15.5427 10.0637 15.3658L10.3012 14.7908C10.3413 14.6928 10.3523 14.6111 10.3512 14.5408L10.3387 13.9658C10.3348 13.7426 10.387 13.4731 10.5699 13.2346C10.7544 12.9944 11.0067 12.8749 11.2262 12.8221L11.5012 12.7596L11.7762 12.6908C11.9939 12.6385 12.2133 12.6006 12.4324 12.5783L12.7074 12.5533L12.9762 12.5221C13.1355 12.5058 13.3074 12.4796 13.4887 12.4471L13.7887 12.3971L14.0887 12.3408C14.2541 12.3111 14.4264 12.269 14.5949 12.2158L15.1949 12.0283C15.5852 11.9059 15.9829 11.9316 16.3512 12.0908L16.6512 12.2221L16.8762 12.3221L17.1324 12.1721L17.4324 11.9971L17.7324 11.8596C17.9403 11.7898 18.1601 11.7681 18.3824 11.7971ZM17.9324 13.5596L17.6324 13.7346C17.2296 13.9679 16.7621 14.016 16.3137 13.8221L15.7137 13.5596C15.7054 13.5561 15.6991 13.5545 15.6949 13.5533H15.6762L15.0762 13.7408C14.8453 13.8136 14.6101 13.8737 14.3762 13.9158L14.0762 13.9721L13.7762 14.0221C13.5582 14.0612 13.3433 14.095 13.1387 14.1158L12.8699 14.1408L12.5949 14.1721C12.4497 14.1869 12.3011 14.211 12.1512 14.2471L11.9449 14.2908L11.9512 14.5096C11.957 14.8189 11.8931 15.1195 11.7762 15.4033L11.7512 15.4471L11.8074 15.4283L12.1074 15.2908L12.4137 15.1908C12.625 15.1441 12.8398 15.1444 13.0512 15.1908L13.3637 15.2908L13.6637 15.4283L13.9637 15.5596C14.0515 15.5988 14.1169 15.6076 14.1699 15.6033L14.7699 15.5533C15.0278 15.5324 15.2881 15.5429 15.5449 15.5783L15.8449 15.6221L16.1449 15.6596C16.193 15.6659 16.249 15.6604 16.3262 15.6283L16.6262 15.5033L16.9262 15.3846C17.269 15.2421 17.6372 15.1961 18.0074 15.2783L18.6074 15.4158C18.7079 15.438 18.8039 15.438 18.9012 15.4221L19.5012 15.3221C19.69 15.2909 19.8809 15.2606 20.0699 15.2221L20.1574 15.2033C20.1567 15.1106 20.1569 15.0235 20.1637 14.9471L20.1887 14.6658L20.2074 14.4033L20.0512 14.1971L19.9949 14.1221L19.9699 14.1283L19.7137 14.1721C19.6025 14.1902 19.3946 14.216 19.1762 14.1533C19.0526 14.1176 18.8743 14.0415 18.7324 13.8721C18.6421 13.764 18.5929 13.6433 18.5637 13.5283L18.4512 13.4908L18.2012 13.3971L17.9324 13.5596Z" fill="#FFB84C"/>
<path d="M24.8426 15.1541L25.4426 15.3166C25.6229 15.3661 25.8071 15.4071 25.9863 15.4416L26.2863 15.4979L26.5863 15.5604C26.6381 15.5699 26.711 15.5692 26.8176 15.5354L27.4801 15.3229L27.8863 15.2604C28.0378 15.2628 28.1999 15.2968 28.3613 15.3791C28.5181 15.4595 28.6398 15.5691 28.7301 15.6854L28.9238 16.0416L29.1738 16.7166C29.2517 16.9274 29.3208 17.0846 29.3738 17.1916L29.4738 17.4041L29.5801 17.6166C29.7263 17.9115 29.7683 18.2263 29.7488 18.5291L29.7113 19.1166C29.7091 19.1516 29.7164 19.2079 29.7613 19.2979L30.0613 19.8979C30.2206 20.2147 30.2995 20.5647 30.2676 20.9291L30.2176 21.5291C30.2072 21.6479 30.2107 21.7686 30.2363 21.8916L30.3051 22.1916L30.3676 22.4916C30.4271 22.7736 30.437 23.0618 30.4051 23.3479L30.3426 23.9479C30.316 24.1852 30.2234 24.4336 30.0363 24.6416C29.8533 24.8447 29.626 24.9581 29.4113 25.0166L29.0988 25.1041L28.7863 25.1854C28.3736 25.2973 27.9621 25.2415 27.5926 25.0479L27.2926 24.8916L27.0676 24.7729L26.8488 24.9041L26.5488 25.0666C26.2457 25.2343 25.9118 25.3334 25.5551 25.3291L25.2551 25.3229H24.9551C24.6636 25.3188 24.3752 25.2642 24.0988 25.1666L23.4988 24.9541C23.3274 24.8933 23.1547 24.8424 22.9863 24.8041L22.3863 24.6666C22.3183 24.6512 22.2531 24.6526 22.1801 24.6729L21.8801 24.7604L21.5801 24.8416C21.3661 24.9016 21.1509 24.9568 20.9363 25.0041L20.6363 25.0729L20.3363 25.1354C20.0731 25.1934 19.8042 25.2188 19.5363 25.2104L19.2363 25.2041L18.9363 25.1916C18.8142 25.1879 18.69 25.2032 18.5613 25.2354L17.9613 25.3854C17.5523 25.4884 17.1489 25.4216 16.7926 25.2354L16.4926 25.0791L16.2488 24.9479L16.0113 25.0729L15.7113 25.2166C15.2799 25.4262 14.8127 25.4175 14.3926 25.1979L14.0926 25.0354L13.8238 24.8916L13.5676 24.9979L13.2676 25.1229C12.9607 25.2481 12.6331 25.3065 12.2988 25.2791L11.6988 25.2291C11.441 25.2077 11.1814 25.1546 10.9301 25.0791L10.6301 24.9916L10.3301 24.8979C10.204 24.8602 10.0837 24.8472 9.96758 24.8479H9.36758C9.29625 24.8482 9.2108 24.8666 9.10508 24.9166L8.80508 25.0541L8.50508 25.1979C8.08043 25.3986 7.6216 25.3935 7.20508 25.1854L6.90508 25.0291L6.60508 24.8791C6.51361 24.8334 6.44598 24.8268 6.39883 24.8291L6.09883 24.8416L5.79883 24.8604C5.55469 24.8719 5.31087 24.8588 5.06758 24.8291L4.46758 24.7541V24.7604C4.46115 24.762 4.43735 24.7669 4.39883 24.7916L3.79883 25.1791C3.71413 25.2338 3.59657 25.3005 3.46133 25.3416C3.32873 25.3815 3.10994 25.415 2.86758 25.3291C2.30451 25.1289 2.25435 24.5675 2.24883 24.4291L2.24258 24.1229L2.23008 23.8229C2.22696 23.7446 2.20334 23.6503 2.14883 23.5416L1.84883 22.9416C1.64214 22.5293 1.62949 22.0726 1.82383 21.6479L1.96133 21.3479L2.07383 21.1104L1.93008 20.8666L1.76758 20.5666C1.51789 20.1106 1.53679 19.6092 1.79883 19.1729L1.98008 18.8729L2.06133 18.7354C1.96202 18.5524 1.91735 18.3779 1.91758 18.2479C1.91811 18.0723 1.95711 17.9054 1.99883 17.7729L2.17383 17.2104L2.30508 16.9229C2.46092 16.6511 2.70085 16.4386 3.01758 16.3229L3.28008 16.2291L3.54883 16.1291C3.70581 16.0718 3.86129 16.0057 4.01758 15.9354L4.28008 15.8229L4.54258 15.7041C4.82373 15.5776 5.12338 15.5118 5.43008 15.5104H6.03008C6.33548 15.5091 6.63228 15.5696 6.91758 15.6791L7.21758 15.7916L7.48008 15.9041L7.77383 15.7541L8.07383 15.6041C8.33075 15.4744 8.59832 15.3732 8.87383 15.3166L9.17383 15.2604L9.47383 15.1979L9.79258 15.1666C10.1045 15.1689 10.3968 15.2682 10.6551 15.4291L10.9551 15.6104L11.3051 15.8291L11.5988 15.7791L11.8988 15.7291C12.0749 15.6996 12.2527 15.6566 12.4301 15.6104L12.7301 15.5354L13.0301 15.4541C13.291 15.3861 13.5565 15.3502 13.8238 15.3479H15.3426L15.6426 15.3541C15.811 15.3563 15.9799 15.3469 16.1488 15.3291L16.7488 15.2666C17.0705 15.2328 17.3883 15.2749 17.6926 15.3791L17.9926 15.4791L18.2926 15.5854C18.4413 15.6362 18.5893 15.6686 18.7301 15.6854L19.0301 15.7166L19.3301 15.7541C19.3484 15.7559 19.3843 15.7544 19.4551 15.7166L19.7551 15.5604L20.0551 15.3979C20.4019 15.2125 20.7941 15.1369 21.1988 15.2229L21.4988 15.2916L21.7988 15.3541C21.9556 15.3875 22.1137 15.4041 22.2676 15.4104L22.8676 15.4354C22.9626 15.4389 23.0636 15.4287 23.1738 15.3916L23.4738 15.2854L23.7738 15.1854C24.1218 15.0673 24.4859 15.0564 24.8426 15.1541ZM23.9926 16.8041L23.6926 16.9041C23.4047 17.0018 23.1024 17.0477 22.7988 17.0354L22.1988 17.0104C21.9536 17.0003 21.7099 16.9682 21.4676 16.9166L20.8676 16.7916H20.8613C20.8586 16.792 20.8418 16.7942 20.8113 16.8104L20.5113 16.9729L20.2113 17.1291C19.8858 17.3031 19.5191 17.3872 19.1363 17.3416L18.8363 17.3104L18.5363 17.2729C18.2784 17.242 18.0238 17.1834 17.7738 17.0979L17.4738 16.9916L17.1738 16.8916C17.0786 16.859 16.9956 16.8523 16.9176 16.8604L16.3176 16.9229C16.087 16.9471 15.8549 16.957 15.6238 16.9541L15.3238 16.9479H13.8363C13.7059 16.9492 13.573 16.9687 13.4363 17.0041L13.1363 17.0854L12.8363 17.1604C12.6147 17.2181 12.3905 17.2667 12.1676 17.3041L11.5676 17.4041C11.1456 17.4747 10.7478 17.3694 10.4113 17.1604L9.81133 16.7854C9.79426 16.7747 9.78035 16.7692 9.77383 16.7666L9.49258 16.8229L9.19258 16.8854C9.06849 16.9109 8.93522 16.9571 8.79258 17.0291L8.49258 17.1791L8.19258 17.3354C7.80169 17.5323 7.36359 17.566 6.94258 17.4041L6.64258 17.2854L6.34258 17.1729C6.2295 17.1296 6.12945 17.1099 6.03633 17.1104H5.43633C5.34313 17.1108 5.26643 17.13 5.19883 17.1604L4.67383 17.3979C4.48334 17.4835 4.29242 17.5647 4.09883 17.6354L3.83008 17.7291L3.66758 17.7854L3.61133 17.9729L3.56758 18.1041C3.80849 18.4097 3.77478 18.7518 3.73633 18.9166C3.69304 19.1017 3.60695 19.2701 3.53008 19.3979L3.34883 19.6979L3.22383 19.8979L3.33633 20.0979L3.49883 20.3979C3.72458 20.8095 3.75572 21.2772 3.55508 21.7166L3.41758 22.0166L3.29883 22.2666L3.43008 22.5229L3.58008 22.8229C3.66295 22.9881 3.719 23.1639 3.76133 23.3416C4.03587 23.2111 4.33457 23.1266 4.66133 23.1666L5.26133 23.2416C5.41604 23.2605 5.56997 23.2676 5.72383 23.2604L6.02383 23.2479L6.32383 23.2291C6.67654 23.2122 7.01572 23.2997 7.32383 23.4541L7.87383 23.7291L8.12383 23.6104L8.42383 23.4666C8.71728 23.3283 9.03373 23.2496 9.36133 23.2479H9.96133C10.243 23.2466 10.521 23.2851 10.7926 23.3666L11.0926 23.4604L11.3926 23.5479C11.5413 23.5926 11.6879 23.6173 11.8301 23.6291L12.4301 23.6791C12.4949 23.6844 12.5691 23.6792 12.6613 23.6416L12.9613 23.5166L13.2613 23.3979L13.5863 23.3041C13.8037 23.2677 14.0207 23.2816 14.2301 23.3416L14.5363 23.4604L14.8363 23.6229L15.0738 23.7416L15.3113 23.6291L15.6113 23.4854C15.9357 23.3272 16.2816 23.2927 16.6113 23.3791L16.9363 23.5041L17.2363 23.6604L17.5363 23.8229C17.5525 23.8311 17.563 23.8342 17.5676 23.8354L18.1676 23.6854C18.4367 23.6176 18.7105 23.5831 18.9863 23.5916L19.2863 23.6041L19.5863 23.6104C19.7185 23.6145 19.8558 23.603 19.9926 23.5729L20.2926 23.5104L20.5926 23.4416C20.7772 23.4008 20.9636 23.356 21.1488 23.3041L21.4488 23.2166L21.7488 23.1354C22.0749 23.0441 22.4114 23.0352 22.7426 23.1104L23.0426 23.1791L23.3426 23.2416C23.5732 23.294 23.8025 23.361 24.0301 23.4416L24.3301 23.5541L24.6301 23.6604C24.7524 23.7036 24.8666 23.7213 24.9738 23.7229L25.2738 23.7291H25.5738C25.6155 23.7297 25.6784 23.7193 25.7738 23.6666L26.0738 23.5041L26.3738 23.3354C26.6986 23.1555 27.0549 23.107 27.3988 23.1916L27.7363 23.3166L28.0363 23.4729L28.3363 23.6354C28.3446 23.6395 28.3513 23.6403 28.3551 23.6416H28.3676L28.6801 23.5541L28.7738 23.5229L28.7863 23.4729L28.8176 23.1729C28.8303 23.059 28.8237 22.9407 28.7988 22.8229L28.6738 22.2229C28.6161 21.9482 28.5995 21.6704 28.6238 21.3916L28.6738 20.7916C28.6769 20.7561 28.6718 20.6996 28.6301 20.6166L28.3301 20.0166C28.1759 19.7089 28.0951 19.3717 28.1176 19.0166L28.1551 18.4291C28.1587 18.3726 28.1517 18.3403 28.1488 18.3291L27.9363 17.9041C27.8488 17.7276 27.7624 17.5125 27.6738 17.2729L27.5613 16.9729L27.3051 17.0604C26.9752 17.1656 26.6278 17.196 26.2801 17.1291L25.6801 17.0166C25.4606 16.9743 25.2422 16.9202 25.0238 16.8604L24.4238 16.6979C24.3819 16.6863 24.3423 16.6816 24.2926 16.6979L23.9926 16.8041Z" fill="#FFB84C"/>
</svg>
