<svg width="17" height="26" viewBox="0 0 17 26" fill="none" xmlns="http://www.w3.org/2000/svg">
<g clip-path="url(#clip0_279_2079)">
<path d="M15.5559 11.1119L15.3712 11.7957V12.4752L15.6357 13.1841L15.367 13.8511V14.5474L15.1277 15.206V15.9107L14.708 16.5063L14.582 17.1859L14.5317 17.9158L14.0153 18.4359L13.7844 19.0945L13.2975 19.5978L12.8777 20.1348L12.4579 20.6759L12.0381 21.1793L11.6393 21.7078L11.1818 22.1734L10.5437 22.4251L10.0483 22.8446L9.5488 23.264L8.91913 23.478L8.41118 23.8974L7.7899 24.103L7.15603 24.2708L6.66488 24.7574L6.13595 25.1768L5.39713 25.0426L4.97734 25.181L4.55756 24.6902L4.0748 24.1869L3.46611 23.7674L3.04633 23.2179L2.7231 22.5761L2.22355 22.0853L1.66943 21.6155L2.35369 21.4561L3.01275 21.3051L3.51229 20.8185L4.04962 20.441L4.54076 20.0215L5.09908 19.6985L5.62801 19.3252L6.14435 18.9057L6.72785 18.5408L7.08886 17.9787L7.2064 17.274L7.67656 16.7958L8.09634 16.2589L8.26426 15.6129L8.54971 15.013L8.60009 14.3461L8.7764 13.7085L9.00728 13.0751V12.4123L8.92752 11.7453L9.00308 10.8644L8.28525 11.0029L7.63878 11.2839L6.99651 11.2H6.35004L5.70357 10.9567L5.0571 11.0616L4.41063 10.8644L3.76416 11.049L3.11769 11.1161L2.35788 11.2L2.47542 10.4198L2.34109 9.74864L2.47542 9.0733L2.3201 8.39795L2.5258 7.7226L2.30331 7.05144L2.53839 6.38028V5.70494L2.47122 5.02958L2.3243 4.35424L2.47962 3.6789L2.27393 3.00354L2.3243 2.3282L2.65593 1.65284L2.34109 0.843261L3.12609 0.876813L3.78095 1.21658L4.43582 0.797112L5.09069 0.826478L5.74555 0.956514L6.40041 0.885211L7.05528 0.956514L7.71014 1.18303L8.36501 1.09495L9.01988 0.780343L9.67474 1.19981L10.3296 0.750977H10.9845L11.6393 1.07816L12.2942 1.1243L12.9784 0.998463H13.6333L14.2924 0.784529L14.9472 0.956514L15.6735 0.927148L15.7406 1.66542L15.6987 2.34078L15.409 3.01192L15.5769 3.68728V4.35424L15.8246 5.0254L15.6189 5.70074L15.5056 6.3761L15.728 7.04725L15.4258 7.7226V8.39795L15.8456 9.0733L15.8162 9.74864L15.5769 10.424L15.5559 11.1119Z" stroke="#80A281" stroke-width="1.41079" stroke-miterlimit="10"/>
</g>
<defs>
<clipPath id="clip0_279_2079">
<rect width="16.1515" height="25.8617" fill="white" transform="translate(0.330078 0.0693359)"/>
</clipPath>
</defs>
</svg>
