<svg width="17" height="26" viewBox="0 0 17 26" fill="none" xmlns="http://www.w3.org/2000/svg">
<g clip-path="url(#clip0_892_4001)">
<path d="M15.7312 11.1119L15.5465 11.7957V12.4752L15.811 13.1841L15.5423 13.8511V14.5474L15.303 15.206V15.9107L14.8833 16.5063L14.7573 17.1859L14.7069 17.9158L14.1906 18.4359L13.9597 19.0945L13.4728 19.5978L13.053 20.1348L12.6332 20.6759L12.2134 21.1793L11.8146 21.7078L11.3571 22.1734L10.719 22.4251L10.2236 22.8446L9.7241 23.264L9.09442 23.478L8.58648 23.8974L7.9652 24.103L7.33132 24.2708L6.84017 24.7574L6.31124 25.1768L5.57242 25.0426L5.15264 25.181L4.73285 24.6902L4.25009 24.1869L3.64141 23.7674L3.22162 23.2179L2.89839 22.5761L2.39885 22.0853L1.84473 21.6155L2.52898 21.4561L3.18804 21.3051L3.68758 20.8185L4.22491 20.441L4.71606 20.0215L5.27437 19.6985L5.8033 19.3252L6.31964 18.9057L6.90314 18.5408L7.26416 17.9787L7.38169 17.274L7.85185 16.7958L8.27164 16.2589L8.43956 15.6129L8.72501 15.013L8.77538 14.3461L8.95169 13.7085L9.18257 13.0751V12.4123L9.10282 11.7453L9.17838 10.8644L8.46055 11.0029L7.81407 11.2839L7.1718 11.2H6.52534L5.87886 10.9567L5.2324 11.0616L4.58592 10.8644L3.93946 11.049L3.29298 11.1161L2.53317 11.2L2.65071 10.4198L2.51639 9.74864L2.65071 9.0733L2.49539 8.39795L2.70109 7.7226L2.47861 7.05144L2.71369 6.38028V5.70494L2.64652 5.02958L2.49959 4.35424L2.65492 3.6789L2.44922 3.00354L2.49959 2.3282L2.83122 1.65284L2.51639 0.843261L3.30138 0.876813L3.95625 1.21658L4.61111 0.797112L5.26598 0.826478L5.92084 0.956514L6.57571 0.885211L7.23057 0.956514L7.88544 1.18303L8.5403 1.09495L9.19517 0.780343L9.85003 1.19981L10.5049 0.750977H11.1598L11.8146 1.07816L12.4695 1.1243L13.1537 0.998463H13.8086L14.4677 0.784529L15.1225 0.956514L15.8488 0.927148L15.9159 1.66542L15.8739 2.34078L15.5843 3.01192L15.7522 3.68728V4.35424L15.9999 5.0254L15.7942 5.70074L15.6809 6.3761L15.9033 7.04725L15.6011 7.7226V8.39795L16.0209 9.0733L15.9915 9.74864L15.7522 10.424L15.7312 11.1119Z" fill="#80A281" stroke="#80A281" stroke-width="1.41079" stroke-miterlimit="10"/>
</g>
<defs>
<clipPath id="clip0_892_4001">
<rect width="16.1515" height="25.8617" fill="white" transform="translate(0.505859 0.0693359)"/>
</clipPath>
</defs>
</svg>
