<svg width="2" height="86" viewBox="0 0 2 86" fill="none" xmlns="http://www.w3.org/2000/svg">
<g clip-path="url(#clip0_279_2060)">
<path d="M1.11773 0.113281L1.19987 0.3544L0.712331 0.595519L0.937552 0.839288L0.866011 1.08041L1.07003 1.32153L0.961399 1.56265L0.79182 1.80376L1.00644 2.04753L1.04089 2.28865L0.881909 2.52977L1.09653 2.77089L0.892507 3.01201L0.725579 3.25578L0.995844 3.4969L1.18132 3.73802L0.995844 3.97913L0.709681 4.22025L0.866011 4.46137L0.834215 4.70249L1.18927 4.94361L0.889858 5.18473L1.11773 5.42585L0.958749 5.66697L1.09388 5.90809L0.807718 6.14921L0.858062 6.39297L0.836865 6.63409V6.87521L0.913705 7.11633L0.884558 7.35745L1.15482 7.59857L0.956099 7.83969L0.728229 8.08081L1.21312 8.32193L0.815667 8.5604L0.834215 8.80152L1.01969 9.04264L1.19987 9.28375L0.866011 9.52487L1.04619 9.76599L0.900456 10.0071L1.06209 10.2482L0.937552 10.4893L0.805069 10.7305L0.985245 10.9716L0.786521 11.2127L1.03294 11.4538L1.03559 11.6949L1.00114 11.9361L0.836865 12.1772L0.752075 12.4183L1.15217 12.6594L0.945501 12.9005L1.18132 13.1417L1.07268 13.3828L1.10713 13.6239L0.789171 13.865L1.01174 14.1061L0.754725 14.3473L0.921654 14.5884L0.728229 14.8295L0.767973 15.0706L0.744126 15.3117L0.993194 15.5528L1.00379 15.794L1.17867 16.0351L0.919004 16.2789L1.11243 16.52L0.778572 16.7611L0.921654 17.0022L1.01439 17.2433L0.892507 17.4845L0.733528 17.7282L0.95345 17.9693L0.850113 18.2105L1.13628 18.4516L1.11243 18.6927L1.19457 18.9365L0.916354 19.1776L1.14952 19.4187L1.01439 19.6598L0.72028 19.9036L1.01969 20.1447L0.709681 20.3858L0.826266 20.6269L0.982596 20.8707L1.11773 21.1118L0.733528 21.353L0.79712 21.5941L1.14687 21.8352L0.995844 22.0763L1.05414 22.3174L0.765324 22.5612L0.990545 22.8023L0.897807 23.0434L1.16012 23.2846L1.16807 23.5257L0.9508 23.7668L0.789171 24.0079L0.770623 24.249L1.12568 24.4902L0.913705 24.7313L0.823616 24.9724L0.977297 25.2162L0.934902 25.4573L1.17602 25.6984L0.760024 25.9395L0.752075 26.1806L1.15747 26.4218L1.04089 26.6629L0.87396 26.904L0.855412 27.1451L0.990545 27.3862L1.03294 27.6273L1.05679 27.8685L1.21842 28.1096L1.00114 28.3534L1.09388 28.5945L1.20252 28.8356L0.760024 29.0767L1.04354 29.3178L0.765324 29.559L1.10978 29.8027L1.10713 30.0438L1.02234 30.285L0.921654 30.5261L0.900456 30.7698L1.07003 31.011L1.01969 31.2521L1.21047 31.4932L0.752075 31.737L0.881909 31.9781L1.18662 32.2192L1.01439 32.463L0.926953 32.7041L0.905756 32.9452L1.02234 33.1863L1.14423 33.4275L0.87396 33.6712L1.03294 33.9123L1.04884 34.1535L0.757375 34.3946L0.969348 34.6357L0.897807 34.8768L0.802419 35.1206L1.07798 35.3617L1.06474 35.6028L0.900456 35.8439L0.799769 36.0851L1.13363 36.3262L0.942851 36.5673L1.15482 36.8111L0.855412 37.0522L0.733528 37.2933L0.921654 37.5344L0.892507 37.7755L0.858062 38.0167L1.03559 38.2604L1.07268 38.5016L1.07003 38.7427L1.01969 38.9811L0.921654 39.2223L0.892507 39.4607L0.929603 39.7018L1.00644 39.943L1.14158 40.1814L0.9508 40.4226L1.00644 40.6637L1.16807 40.9021L1.12568 41.1433L1.14687 41.3844L0.746776 41.6229L1.12303 41.864L0.866011 42.1051L0.760024 42.3462L1.21312 42.5847L0.977297 42.8258L1.01704 43.0669L1.01174 43.308L1.01439 43.5465L0.974647 43.7876L0.805069 44.0287L0.995844 44.2699L1.06738 44.511L0.738827 44.7521L0.72028 44.9932L1.04354 45.2343L1.20782 45.4755L1.06738 45.7166L0.866011 45.9577L0.728229 46.1988L1.19192 46.4399L0.736177 46.6837L0.921654 46.9248L1.05679 47.1659L0.86866 47.4071L1.02499 47.6508L0.783871 47.8919L1.04089 48.1357L0.79182 48.3768L1.17602 48.618L1.21312 48.8617L0.789171 49.1028L1.18132 49.344L1.09388 49.5877L0.932252 49.8288L0.850113 50.07L0.916354 50.3111L1.16542 50.5522L0.828916 50.7933L1.13363 51.0344L0.71763 51.2756L1.14687 51.5167L0.919004 51.7578L1.00644 51.9989L0.881909 52.24L0.826266 52.4812L0.725579 52.7223L0.815667 52.9634L0.752075 53.2045L0.79182 53.4456L1.05149 53.6894L0.738827 53.9279L1.17072 54.169L0.921654 54.4128L0.847463 54.6539V54.895L1.10978 55.1361L1.06474 55.3772L1.04884 55.6184L0.855412 55.8595L1.00909 56.1032L0.993194 56.3444L0.802419 56.5855L0.823616 56.8266L1.00379 57.0704L1.06738 57.3115L1.12303 57.5553L0.839514 57.7964L0.86866 58.0401L1.15482 58.2813L0.831565 58.525L0.916354 58.7662L1.17337 59.0099L0.818317 59.251L0.826266 59.4922L1.15217 59.7333L1.19457 59.977L0.876609 60.2182L1.08593 60.4593L0.884558 60.7004L0.733528 60.9442L1.10978 61.1853L0.765324 61.4264L0.961399 61.6675L0.94815 61.9113L0.924303 62.1524L1.18927 62.3935L1.17072 62.6347L0.998494 62.8784L0.828916 63.1195L1.06474 63.3607L1.08858 63.6044L1.07268 63.8482L0.712331 64.0893L1.17072 64.3331L0.995844 64.5742L0.892507 64.818L1.04089 65.0591L1.16807 65.3029L0.847463 65.544L1.11243 65.7851L0.881909 66.0289L1.16807 66.27L1.14158 66.5138L0.926953 66.7549L0.924303 66.996L0.982596 67.2398L1.10713 67.4809L0.752075 67.7247L0.805069 67.9658L0.937552 68.2095L1.13628 68.4507L0.783871 68.6944L0.937552 68.9382L0.805069 69.1793L0.757375 69.4231L1.18132 69.6642L0.752075 69.908L0.712331 70.1491L1.14687 70.3929L0.850113 70.634L0.934902 70.8751L1.07798 71.1189L0.916354 71.36L1.12038 71.6038L1.08328 71.8475L0.855412 72.0886L0.823616 72.3324L0.964048 72.5762L0.903106 72.8173L0.879259 73.0584L1.01439 73.3022L0.879259 73.5433L0.942851 73.7844L0.778572 74.0255L0.810368 74.2667L1.04089 74.5078L0.741477 74.7489L0.897807 74.9927L1.08328 75.2338V75.4749L1.16807 75.7187L0.781222 75.9624L0.707031 76.2062L0.990545 76.4473L1.13098 76.6911L1.02764 76.9322L1.04354 77.176L1.20517 77.4171L1.07268 77.6609L1.09653 77.902L1.19722 78.1458L0.937552 78.3895L0.866011 78.6307L0.889858 78.8744L1.06474 79.1182L0.982596 79.3593L0.94815 79.6031L0.778572 79.8468L1.11243 80.0906L0.767973 80.3344L0.940201 80.5781L1.17602 80.8193L0.979946 81.063L1.14158 81.3068L1.04884 81.5506L0.993194 81.7943L0.741477 82.0381L0.998494 82.2819L0.979946 82.523L1.18927 82.7668L0.789171 83.0105L0.839514 83.2543L1.14423 83.4981L0.937552 83.7418L1.05944 83.9856L0.881909 84.2294L0.892507 84.4732L0.844814 84.7169L1.21577 84.9607L1.07003 85.2045L1.15217 85.4509L0.754725 85.6973" stroke="#BBCCBB" stroke-width="1.3" stroke-miterlimit="10"/>
</g>
<defs>
<clipPath id="clip0_279_2060">
<rect width="1.96075" height="86" fill="white"/>
</clipPath>
</defs>
</svg>
