<svg width="48" height="30" viewBox="0 0 48 30" fill="none" xmlns="http://www.w3.org/2000/svg">
<g clip-path="url(#clip0_1110_3422)">
<path d="M42.9226 28.5085L42.3991 28.4807L41.8756 28.5362L41.3521 28.4044L40.8285 28.2102L40.3113 28.7652L39.7878 28.3142L39.2643 28.7166L38.7408 28.3975L38.2172 28.335L37.6937 28.2934L37.1765 28.5154L36.653 28.4252L36.1295 28.5501L35.6059 28.5779L35.0824 28.4044L34.5589 28.5085L34.0354 28.2102L33.5118 28.7583L32.9883 28.5362L32.4711 28.4877L31.9476 28.4391L31.4304 28.5987L30.9069 28.564L30.3896 28.335L29.8661 28.4807L29.3489 28.3489L28.8254 28.2657L28.3019 28.7444L27.7846 28.564L27.2611 28.4252L26.7376 28.5224L26.2141 28.4946L25.6906 28.6611L25.167 28.6958L24.6435 28.6264L24.12 28.7721L23.5965 28.5571L23.073 28.3836L22.5557 28.5987L22.0322 28.5432L21.5087 28.6958L20.9852 28.6264L20.4553 28.4183L19.9318 28.5362L19.4083 28.4114L18.8848 28.4669L18.3613 28.5016L17.8377 28.3767L17.3142 28.7236L16.7907 28.3836L16.2609 28.6958L15.7373 28.3767L15.2138 28.4669L14.6903 28.4183L14.1668 28.5848L13.6433 28.564L13.1134 28.7444L12.5899 28.5501L12.0664 28.446L11.5429 28.4252L11.0193 28.5987L10.4958 28.4738L9.96599 28.4599L9.44247 28.3697L8.91894 28.5362L8.38911 28.446L7.86559 28.4946L7.34207 28.1755L6.81224 28.4114L6.28241 28.4044L5.75258 28.3628L5.22275 28.5848L4.69923 28.6056L4.29555 28.0506L3.70896 28.2587L3.29266 27.9118L2.95206 27.4886L2.53576 27.1833L2.13208 26.8364L1.85456 26.3716L1.48241 25.9345L1.56441 25.3101L1.43826 24.7758L1.57703 24.2277L1.11027 23.6519L1.53918 23.0691L1.5581 22.4932L1.48241 21.9104L1.38149 21.3346L1.54549 20.7518L1.36257 20.1759L1.47611 19.5931L1.52657 19.0173L1.33734 18.4345L1.28688 17.8586L1.16704 17.2758L1.62118 16.7L1.38149 16.1172L1.09766 15.5344L1.2995 14.9585L1.33734 14.3757L1.51395 13.7999L1.5581 13.2171L1.4698 12.6412L1.2175 12.0584L1.28057 11.4826L1.18596 10.8998L1.33734 10.317L1.22381 9.73421L1.12289 9.15835L1.26165 8.57556L1.11027 7.99277L1.38149 7.40997L1.34996 6.82718L1.59595 6.24438L1.41303 5.65465L1.18596 5.07186L1.4698 4.55151L1.75994 4.07972L2.0627 3.64263L2.05009 2.97658L2.50423 2.66437L2.77545 2.14401L3.28636 1.95669L3.67111 1.52653L4.25771 1.69998L4.71185 1.37389L5.22275 1.33227L5.74628 1.62366L6.2698 1.23513L6.79332 1.39471L7.31684 1.44327L7.84036 1.23513L8.36388 1.71386L8.88741 1.54041L9.41093 1.29758L9.92814 1.42246L10.4517 1.61672L10.9752 1.47796L11.4987 1.60285L12.0222 1.22126L12.5457 1.11719L13.0693 1.24207H13.5928L14.1163 1.54734L14.6335 1.63754L15.1571 1.22126L15.6806 1.20738L16.1978 1.30451L16.7213 1.54041L17.2385 1.67917L17.762 1.29758L18.2793 1.4294L18.8028 1.16575L19.32 1.11719L19.8435 1.63754L20.367 1.20738L20.8906 1.35308L21.4141 1.33227H21.9376L22.4611 1.15882L22.9846 1.63754L23.5082 1.29064L24.0317 1.66529L24.5489 1.56122L25.0724 1.62366L25.5959 1.4294L26.1195 1.3392L26.643 1.42246L27.1665 1.26289L27.69 1.65835L28.2136 1.16575L28.7371 1.24901L29.2606 1.32533L29.7841 1.49878L30.3076 1.23513L30.8375 1.30451L31.361 1.5751L31.8845 1.23513L32.408 1.69998L32.9316 1.6306L33.4614 1.4294L33.9849 1.138L34.5084 1.71386L35.032 1.65835L35.5555 1.34614L36.079 1.19351L36.6025 1.67917L37.126 1.32533L37.6559 1.19351L38.1794 1.40858L38.7029 1.45715L39.2327 1.56816L39.7563 1.17269L40.2861 1.56816L40.8096 1.62366L41.3331 1.44327L41.863 1.47796L42.3928 1.65835L42.9226 1.47103L43.4083 1.58897L43.9192 1.5751L44.468 1.55428L44.7833 2.11626L45.2249 2.35909L45.5907 2.72681L46.0259 3.03902L46.1773 3.59406L46.253 4.13523L46.745 4.53069L46.6377 5.12043L46.8333 5.65465L46.7702 6.23745L46.7513 6.8133L46.644 7.3961L46.8522 7.97195L46.5368 8.55475L46.7828 9.1306L46.7323 9.70646L46.7071 10.2893L46.644 10.872L46.8333 11.4479L46.9279 12.0307L46.5431 12.6065L46.9846 13.1893L46.7071 13.7652L46.5116 14.348L46.6882 14.9308L46.663 15.5066L46.89 16.0894L46.6251 16.6653L46.972 17.2481L46.6125 17.8239L46.581 18.4067L46.8585 18.9826L46.909 19.5654V20.1482V20.731L46.7071 21.3138L46.5999 21.8896L46.8143 22.4724L46.5684 23.0552L46.9342 23.6449L46.644 24.2277L46.6567 24.7689L46.8333 25.3794L46.6377 25.9206L46.3413 26.3993L46.0701 26.885L45.5592 27.1278L45.3447 27.7037L44.7518 27.7106L44.4995 28.4183L43.9381 28.3836L43.4335 28.4807L42.9226 28.5085Z" fill="white" stroke="#BBCCBB" stroke-width="1.51997" stroke-miterlimit="10"/>
</g>
<defs>
<clipPath id="clip0_1110_3422">
<rect width="48" height="30" fill="white"/>
</clipPath>
</defs>
</svg>
