<svg width="100" height="150" viewBox="0 0 100 150" fill="none" xmlns="http://www.w3.org/2000/svg">
<path d="M41.3402 135C45.1892 141.667 54.8117 141.667 58.6607 135L93.3018 75H6.69922L41.3402 135Z" fill="#E7CF85"/>
<rect width="100" height="100" rx="50" fill="#E7CF85"/>
<path d="M65.8386 50.3815V52.0017L65.4339 53.6021L65.8682 55.2519V56.8918L64.7429 58.3638L65.4141 60.1322L64.5159 61.5943L64.2493 63.2046L63.7558 64.7556L63.3313 66.3461L62.7489 67.8872L61.1596 68.8751L60.2218 70.1594L59.5999 71.6907L58.7115 73.054L57.6256 74.1407L56.2831 74.9409L55.5526 76.4227L53.9831 76.9266L52.996 78.1417L51.2981 78.3591L50.5182 79.9595L49.1363 80.6411L47.6457 81.0956L46.3328 81.8661L44.7534 82.0538L43.3319 82.5577L42.2065 83.9407L40.5876 84L39.176 83.0121L38.9293 81.0857L37.6361 80.0187L36.8168 78.5665L34.9313 78.0034L34.2798 76.403L33.5 75.0199L34.8129 74.9112L36.0271 73.7949H37.7743L38.7614 72.3723L40.1632 71.7203L41.1503 70.4558L42.2658 69.4679L43.4898 68.5492L45.0692 67.8971L45.5135 66.2868L46.3032 64.9828L47.2903 63.7677L47.8234 62.3154L48.6229 60.9818L49.4028 59.5987L49.156 57.939L50.2122 56.5757L49.4817 54.8963L50.6663 53.4737L50.5479 51.9029L50.311 50.2432L48.771 50.5989L47.2508 49.9469H45.7405L44.2203 49.8777L42.7001 50.5297L41.1799 50.0358L39.6597 50.8063L38.1395 49.8184L36.6193 50.4013L34.7537 50.6483V48.7317L35.5434 47.1412L35.1485 45.5605L34.8524 43.97L34.6451 42.3795L35.5631 40.7988L35.0202 39.2676L34.9116 37.6771L35.4841 36.0964L34.6846 34.5059L35.3262 32.9153L34.6944 31.3248L35.3459 29.7343V28.1339L35.4841 26.9089L36.6391 26.5236L38.179 26.6026H39.719L41.2589 26.2075L42.7988 26.2964L44.3388 26.6026L45.8787 26L47.4186 26.2371L48.9586 26.7212L50.4985 27.1163L52.0384 26.079L53.5784 26.2075L55.1183 26.4742L56.6582 26.9681L58.1982 26.6915L59.748 27.0274L61.2879 26.4643L62.8377 26.5928L64.3777 26.2964L65.967 26.5236L65.8485 28.1536L66.5 29.7343L66.3815 31.3248L65.9867 32.9153L66.5 34.5059L65.6906 36.0865L66.0064 37.6672L65.9077 39.2577L66.3421 40.8482V42.4388L66.4408 44.0293L66.115 45.6198L65.5622 47.2104L65.7893 48.8009L65.8386 50.3815Z" fill="white"/>
</svg>
