<svg width="32" height="32" viewBox="0 0 32 32" fill="none" xmlns="http://www.w3.org/2000/svg">
<path d="M17.9028 20.1006C17.3255 22.3434 15.2896 24.0006 12.8666 24.0006C9.99465 24.0006 7.6665 21.6725 7.6665 18.8006C7.6665 16.7019 8.90972 14.8936 10.6999 14.072" stroke="#919191" stroke-width="1.24444" stroke-linecap="round" stroke-linejoin="round"/>
<path d="M12.8667 10.1336L13.7334 17.9337L20.2334 17.5004L21.5335 22.2671H22.8335" stroke="#919191" stroke-width="1.24444" stroke-linecap="round" stroke-linejoin="round"/>
<path d="M14.6 8.4004C14.6 9.35769 13.8239 10.1338 12.8667 10.1338C11.9094 10.1338 11.1333 9.35769 11.1333 8.4004C11.1333 7.4431 11.9094 6.66705 12.8667 6.66705C13.8239 6.66705 14.6 7.4431 14.6 8.4004Z" stroke="#919191" stroke-width="1.24444" stroke-linecap="round" stroke-linejoin="round"/>
<path d="M15.8999 13.6006H19.3666" stroke="#919191" stroke-width="1.24444" stroke-linecap="round" stroke-linejoin="round"/>
</svg>
