<svg width="32" height="32" viewBox="0 0 32 32" fill="none" xmlns="http://www.w3.org/2000/svg">
<g clip-path="url(#clip0_824_2905)">
<path fill-rule="evenodd" clip-rule="evenodd" d="M15.6044 24.4447C19.2005 24.4447 22.2408 21.5954 23.2357 18.3244C23.4594 17.5891 24.9871 17.5891 24.9871 16.0002C24.9871 14.4113 23.4449 14.3199 23.1953 13.5471C22.1605 10.3427 19.1532 7.55577 15.6044 7.55577C12.0537 7.55577 9.04491 10.3453 8.01175 13.5524C7.76329 14.3237 6.22168 14.3834 6.22168 16.0002C6.22168 17.617 7.75373 17.617 7.98516 18.3639C8.99244 21.6144 12.0227 24.4447 15.6044 24.4447Z" stroke="#3C3C3C" stroke-width="1.24444"/>
<path d="M18.9005 8.49403C19.0149 9.31864 18.7634 9.92119 18.1461 10.3017C17.5288 10.6822 16.5258 10.8605 15.1372 10.8366" stroke="#3C3C3C" stroke-width="1.24444" stroke-linecap="round"/>
</g>
<defs>
<clipPath id="clip0_824_2905">
<rect width="21.3333" height="21.3333" fill="white" transform="translate(5.33301 4.88889)"/>
</clipPath>
</defs>
</svg>
