<svg width="32" height="32" viewBox="0 0 32 32" fill="none" xmlns="http://www.w3.org/2000/svg">
<path d="M6.6665 19.1113V15.8712C6.6665 14.8608 7.23755 13.9371 8.14144 13.4856L8.44452 13.3342L9.47117 9.81883C9.65877 9.01408 10.3761 8.44466 11.2025 8.44466H19.9529C20.7854 8.44466 21.5065 9.02243 21.6879 9.83497L22.6679 13.3342L22.9702 13.4854C23.8736 13.9371 24.4443 14.8604 24.4443 15.8705V19.1113C24.4443 19.8477 23.8473 20.4447 23.1109 20.4447H22.2234V20.8891C22.2234 21.8709 21.4275 22.6669 20.4457 22.6669C19.4625 22.6669 18.6665 21.8709 18.6665 20.8891V20.4447H12.4443V20.8892C12.4443 21.871 11.6484 22.6669 10.6666 22.6669C9.68486 22.6669 8.88896 21.871 8.88896 20.8892V20.4447H7.99984C7.26346 20.4447 6.6665 19.8477 6.6665 19.1113Z" stroke="#D8D8D8" stroke-width="1.15556" stroke-linejoin="round"/>
<path d="M10.8885 18.2225C11.5021 18.2225 11.9996 17.7251 11.9996 17.1114C11.9996 16.4978 11.5021 16.0003 10.8885 16.0003C10.2748 16.0003 9.77734 16.4978 9.77734 17.1114C9.77734 17.7251 10.2748 18.2225 10.8885 18.2225Z" fill="#D8D8D8"/>
<path d="M20.222 18.2225C20.8356 18.2225 21.3331 17.7251 21.3331 17.1114C21.3331 16.4978 20.8356 16.0003 20.222 16.0003C19.6083 16.0003 19.1108 16.4978 19.1108 17.1114C19.1108 17.7251 19.6083 18.2225 20.222 18.2225Z" fill="#D8D8D8"/>
<path d="M11.5552 13.7781H19.5552" stroke="#D8D8D8" stroke-width="1.15556" stroke-linecap="round" stroke-linejoin="round"/>
</svg>
