<svg width="32" height="32" viewBox="0 0 32 32" fill="none" xmlns="http://www.w3.org/2000/svg">
<path d="M16.0936 17.778C16.83 17.778 17.4269 17.181 17.4269 16.4447C17.4269 15.7083 16.83 15.1113 16.0936 15.1113C15.3572 15.1113 14.7603 15.7083 14.7603 16.4447C14.7603 17.181 15.3572 17.778 16.0936 17.778Z" fill="#D8D8D8"/>
<path d="M7.88916 11.044C7.88916 12.1166 8.44815 12.9744 9.18741 13.6143C8.72195 14.5431 8.32191 15.5502 8.32191 16.6435C8.32191 20.6341 11.8375 24.0002 16.1114 24.0002C20.3853 24.0002 23.9009 20.6341 23.9009 16.6435C23.9009 15.5502 23.5008 14.5431 23.0354 13.6143C23.7746 12.9744 24.3336 12.0904 24.3336 11.0178C24.3336 9.09127 22.7414 7.55577 20.8716 7.55577C19.4551 7.55577 18.3474 8.44732 17.8424 9.71951C17.2948 9.6048 16.696 9.54904 16.1114 9.54904C15.5267 9.54904 14.9279 9.6048 14.3804 9.71951C13.8754 8.44732 12.7677 7.55577 11.3511 7.55577C9.48132 7.55577 7.88916 9.1175 7.88916 11.044Z" stroke="#D8D8D8" stroke-width="1.15556" stroke-linejoin="round"/>
<path d="M16.1113 16.6433V20.1053" stroke="#D8D8D8" stroke-width="1.15556" stroke-linecap="round" stroke-linejoin="round"/>
<path d="M17.8424 19.6724C16.8573 20.6574 15.3654 20.6574 14.3804 19.6724" stroke="#D8D8D8" stroke-width="1.15556" stroke-linecap="round"/>
</svg>
