<svg width="24" height="24" viewBox="0 0 24 24" fill="none" xmlns="http://www.w3.org/2000/svg">
<path d="M7.375 22.5C7.375 23.0523 7.82271 23.5 8.37499 23.5C8.92728 23.5 9.375 23.0523 9.375 22.5L7.375 22.5ZM8.375 22.4L9.375 22.4L9.375 22.205L9.30174 22.0243L8.375 22.4ZM8.09122 21.7L9.01797 21.3243L8.09122 21.7ZM7.85876 20.625L6.86799 20.4894L7.85876 20.625ZM7.96138 19.875L8.95215 20.0106L7.96138 19.875ZM8.09658 19.125L9.07246 19.3433L8.09658 19.125ZM8.26434 18.375L7.28846 18.1567L8.26434 18.375ZM8.474 17.625L7.52591 17.307L8.474 17.625ZM8.72555 16.875L9.67364 17.193L8.72555 16.875ZM8.61755 16.125L9.46615 15.596L8.61755 16.125ZM8.04312 14.569L9.0024 14.8515L8.04312 14.569ZM8.17005 14.138L7.21077 13.8555L8.17005 14.138ZM8.29697 13.7069L7.33769 13.4245L8.29697 13.7069ZM8.85316 13.2555L8.80565 12.2566L8.85316 13.2555ZM9.71171 13.2147L9.75922 14.2135L9.71171 13.2147ZM10.516 13.1087L10.2936 12.1338L10.516 13.1087ZM12.016 12.9815L11.6899 13.9269L12.016 12.9815ZM12.766 13.2402L13.092 12.2948L12.766 13.2402ZM13.4985 13.3832L13.4601 14.3825L13.4985 13.3832ZM14.2136 13.4107L14.252 12.4115L14.2136 13.4107ZM14.7714 13.7013L13.9612 14.2874L14.7714 13.7013ZM15.1719 14.2551L15.9822 13.669L15.1719 14.2551ZM15.4846 14.907L16.4425 14.6198L15.4846 14.907ZM15.7095 15.657L14.7516 15.9441L15.7095 15.657ZM15.8063 17.157L14.8064 17.1431L15.8063 17.157ZM15.5818 17.907L16.445 18.4118L15.5818 17.907ZM15.1432 18.657L16.0064 19.1618L15.1432 18.657ZM15.1245 19.407L16.0063 18.9353L15.1245 19.407ZM15.5256 20.157L16.4074 19.6853L15.5256 20.157ZM15.584 20.907L14.6489 20.5526L15.584 20.907ZM15.2998 21.657L16.2349 22.0114L15.2998 21.657ZM15.212 22.149L16.119 21.7278L15.212 22.149ZM15.2663 22.266L14.3593 22.6871L14.4115 22.7995L14.4896 22.8958L15.2663 22.266ZM15.375 22.4L16.375 22.4L16.375 22.0455L16.1518 21.7702L15.375 22.4ZM14.375 22.5C14.375 23.0523 14.8227 23.5 15.375 23.5C15.9273 23.5 16.375 23.0523 16.375 22.5L14.375 22.5ZM22.1066 9.73539L21.1651 9.39844L22.1066 9.73539ZM21.9724 10.1104L22.9139 10.4473L21.9724 10.1104ZM21.9926 10.8604L21.0679 11.2411L21.9926 10.8604ZM22.3014 11.6104L23.2261 11.2297L22.3014 11.6104ZM22.3109 12.3604L23.2438 12.7207L22.3109 12.3604ZM22.0212 13.1104L21.0884 12.75L22.0212 13.1104ZM22.0162 13.8604L21.0792 14.2098L22.0162 13.8604ZM22.1561 14.2354L23.093 13.886L22.1561 14.2354ZM22.2959 14.6104L23.2329 14.261L22.2959 14.6104ZM22.28 15.3604L23.2035 15.7439L22.28 15.3604ZM22.1243 15.7354L23.0478 16.1189L22.1243 15.7354ZM21.9685 16.1104L21.045 15.7268L21.9685 16.1104ZM22.0441 16.8604L22.8952 16.3354L22.0441 16.8604ZM22.5068 17.6104L21.6557 18.1354L22.5068 17.6104ZM22.7883 18.3604L21.7971 18.493L22.7883 18.3604ZM22.8385 18.7354L23.8296 18.6028L22.8385 18.7354ZM22.8887 19.1104L23.8798 18.9778L22.8887 19.1104ZM22.6579 19.8269L21.8856 19.1917L22.6579 19.8269ZM22.0961 20.51L22.8684 21.1453L22.0961 20.51ZM21.6456 21.0581L22.4186 21.6926L21.6456 21.0581ZM21.4761 21.2646L22.2491 21.8991L21.4761 21.2646ZM21.3066 21.4712L20.5336 20.8367L21.3066 21.4712ZM20.8555 21.748L20.6134 20.7777L20.8555 21.748ZM20.574 21.8182L20.3319 20.848L20.574 21.8182ZM20.2925 21.8885L20.5346 22.8587L20.2925 21.8885ZM19.636 22.1457L20.0823 23.0406L19.636 22.1457ZM18.886 22.5197L18.4397 21.6248L18.886 22.5197ZM18.136 22.6037L18.4009 21.6395L18.136 22.6037ZM17.386 22.3977L17.1211 23.3619L17.386 22.3977ZM16.261 22.5618L16.5966 23.5038L16.261 22.5618ZM15.886 22.6954L15.5504 21.7535L15.886 22.6954ZM15.136 22.7362L15.3763 21.7655L15.136 22.7362ZM14.386 22.5505L14.1457 23.5212L14.386 22.5505ZM13.636 22.4625L13.6489 23.4624L13.636 22.4625ZM13.261 22.4674L13.2481 21.4674L13.261 22.4674ZM12.886 22.4722L12.8731 21.4723L12.886 22.4722ZM12.136 22.4372L12.2418 21.4428L12.136 22.4372ZM11.761 22.3973L11.6552 23.3916L11.761 22.3973ZM11.386 22.3574L11.2802 23.3517L11.386 22.3574ZM10.636 22.3416L10.5718 21.3436L10.636 22.3416ZM9.886 22.3898L9.95019 23.3878L9.886 22.3898ZM9.136 22.451L9.23423 23.4461L9.136 22.451ZM8.386 22.525L8.28776 21.5298L8.386 22.525ZM7.636 22.5454L7.59171 23.5444L7.636 22.5454ZM6.886 22.5121L6.93029 21.5131L6.886 22.5121ZM6.136 22.6413L5.77361 21.7093L6.136 22.6413ZM5.386 22.9329L5.74838 23.8649L5.386 22.9329ZM4.636 22.9043L5.05783 21.9976L4.636 22.9043ZM3.886 22.5553L3.46416 23.462L3.886 22.5553ZM3.18718 22.2624L2.84367 23.2015L3.18718 22.2624ZM2.86337 22.144L3.20689 21.2048L2.86337 22.144ZM2.53956 22.0255L2.88307 21.0864L2.53956 22.0255ZM2.07381 21.611L1.17205 22.0432L2.07381 21.611ZM1.93187 21.3148L1.03011 21.7471L1.93187 21.3148ZM1.78993 21.0187L2.69169 20.5865L1.78993 21.0187ZM1.62164 20.3563L2.61906 20.2845L1.62164 20.3563ZM1.59528 19.99L0.597858 20.0618L1.59528 19.99ZM1.56892 19.6237L0.571498 19.6955L1.56892 19.6237ZM1.58867 18.1324L0.589512 18.0914L1.58867 18.1324ZM1.48081 17.3824L0.530793 17.6946L1.48081 17.3824ZM1.23434 16.6324L0.284324 16.9446L1.23434 16.6324ZM1.1378 15.8824L0.140329 15.8114L1.1378 15.8824ZM1.04715 13.6324L0.058476 13.7824L1.04715 13.6324ZM1.14915 12.8824L2.06989 13.2726L1.14915 12.8824ZM1.46696 12.1324L2.3877 12.5226L1.46696 12.1324ZM1.46983 11.3824L2.3931 10.9982L1.46983 11.3824ZM1.15776 10.6324L0.234496 11.0165L1.15776 10.6324ZM1.12361 9.88695L0.173694 9.57443L1.12361 9.88695ZM1.36735 9.14608L0.41744 8.83356L1.36735 9.14608ZM1.68735 8.47672L0.853816 7.92425L1.68735 8.47672ZM2.0836 7.87887L1.25007 7.3264L2.0836 7.87887ZM2.54795 7.30419L3.26739 7.99874L2.54795 7.30419ZM3.08038 6.75267L2.36093 6.05812L3.08038 6.75267ZM3.66338 6.27593L3.12765 5.43154L3.66338 6.27593ZM4.29694 5.87397L3.76122 5.02957L4.29694 5.87397ZM4.92074 5.45755L4.34634 4.63897L4.92074 5.45755ZM5.22775 5.24212L5.80214 6.0607L5.22775 5.24212ZM5.53476 5.02669L4.96037 4.20812L5.53476 5.02669ZM8.34202 3.82251L7.70861 3.0487L8.34202 3.82251ZM8.96906 3.4109L8.51074 2.52212L8.96906 3.4109ZM9.30471 3.23782L9.76304 4.1266L9.30471 3.23782ZM9.64036 3.06473L9.18203 2.17595L9.64036 3.06473ZM10.2817 2.67425L10.8613 3.48918L10.2817 2.67425ZM10.8931 2.23945L10.3135 1.42453L10.8931 2.23945ZM11.5699 1.79025L12.0996 2.6384L11.5699 1.79025ZM12.3122 1.32663L11.7824 0.478476L12.3122 1.32663ZM12.8936 1.49969L12.0062 1.96063L12.8936 1.49969ZM13.3142 2.30941L14.2016 1.84846L13.3142 2.30941ZM14.1201 3.17234L13.5105 3.96504L14.1201 3.17234ZM15.1229 3.69769L15.286 2.71108L15.1229 3.69769ZM16.6392 4.13327L16.0178 4.91679L16.6392 4.13327ZM16.9338 4.36696L16.3125 5.15047L16.9338 4.36696ZM17.2285 4.60064L17.8499 3.81713L17.2285 4.60064ZM17.8193 5.06584L17.2034 5.85367L17.8193 5.06584ZM18.4116 5.52885L19.0275 4.74101L18.4116 5.52885ZM19.031 5.95178L19.5405 5.09134L19.031 5.95178ZM19.6775 6.33463L20.187 5.47419L19.6775 6.33463ZM20.3283 6.71099L20.8199 5.84013L20.3283 6.71099ZM20.656 6.89592L20.1644 7.76677L20.656 6.89592ZM20.9836 7.08085L20.4921 7.9517L20.9836 7.08085ZM21.5331 7.57339L20.7219 8.15825L21.5331 7.57339ZM21.9767 8.18861L21.1655 8.77347L21.9767 8.18861ZM22.2426 8.61851L23.1832 8.27906L22.2426 8.61851ZM22.3309 8.8631L21.3902 9.20256L22.3309 8.8631ZM22.2408 9.36039L21.2993 9.02344L22.2408 9.36039ZM8.375 22.5L9.375 22.5L9.375 22.4L8.375 22.4L7.375 22.4L7.375 22.5L8.375 22.5ZM8.375 22.4L9.30174 22.0243L9.01797 21.3243L8.09122 21.7L7.16448 22.0757L7.44826 22.7757L8.375 22.4ZM8.09122 21.7L9.01797 21.3243C8.93758 21.126 8.89169 20.9766 8.86863 20.8699C8.84436 20.7577 8.85365 20.7304 8.84953 20.7606L7.85876 20.625L6.86799 20.4894C6.79632 21.0132 6.96301 21.5787 7.16448 22.0757L8.09122 21.7ZM7.85876 20.625L8.84953 20.7606L8.90084 20.3856L7.91007 20.25L6.9193 20.1144L6.86799 20.4894L7.85876 20.625ZM7.91007 20.25L8.90084 20.3856L8.95215 20.0106L7.96138 19.875L6.97062 19.7394L6.9193 20.1144L7.91007 20.25ZM7.96138 19.875L8.95215 20.0106C8.9825 19.7888 9.02257 19.5664 9.07246 19.3433L8.09658 19.125L7.12069 18.9067C7.05875 19.1836 7.00868 19.4612 6.97062 19.7394L7.96138 19.875ZM8.09658 19.125L9.07246 19.3433L9.15634 18.9683L8.18046 18.75L7.20458 18.5317L7.12069 18.9067L8.09658 19.125ZM8.18046 18.75L9.15634 18.9683L9.24022 18.5933L8.26434 18.375L7.28846 18.1567L7.20458 18.5317L8.18046 18.75ZM8.26434 18.375L9.24022 18.5933C9.28839 18.3779 9.3489 18.1612 9.42209 17.943L8.474 17.625L7.52591 17.307C7.4314 17.5888 7.35213 17.872 7.28846 18.1567L8.26434 18.375ZM8.474 17.625L9.42209 17.943L9.54787 17.568L8.59977 17.25L7.65168 16.932L7.52591 17.307L8.474 17.625ZM8.59977 17.25L9.54787 17.568L9.67364 17.193L8.72555 16.875L7.77746 16.557L7.65168 16.932L8.59977 17.25ZM8.72555 16.875L9.67364 17.193C9.86432 16.6245 9.75902 16.0658 9.46615 15.596L8.61755 16.125L7.76895 16.654C7.78561 16.6808 7.77642 16.6757 7.77165 16.6425C7.76937 16.6267 7.76887 16.6094 7.77052 16.5922C7.77214 16.5752 7.77541 16.5631 7.77746 16.557L8.72555 16.875ZM8.61755 16.125L9.46615 15.596L9.23237 15.221L8.38377 15.75L7.53516 16.279L7.76895 16.654L8.61755 16.125ZM8.38377 15.75L9.23237 15.221L8.99858 14.846L8.14998 15.375L7.30138 15.904L7.53516 16.279L8.38377 15.75ZM8.14998 15.375L8.99858 14.846C8.99325 14.8374 8.99265 14.8347 8.99375 14.8377C8.99494 14.8409 8.99669 14.8469 8.9977 14.8546C8.99872 14.8622 8.99847 14.8674 8.99835 14.8688C8.99825 14.8698 8.99859 14.8644 9.0024 14.8515L8.04312 14.569L7.08385 14.2865C6.92013 14.8425 6.9916 15.4071 7.30138 15.904L8.14998 15.375ZM8.04312 14.569L9.0024 14.8515L9.12932 14.4204L8.17005 14.138L7.21077 13.8555L7.08385 14.2865L8.04312 14.569ZM8.17005 14.138L9.12932 14.4204L9.25624 13.9894L8.29697 13.7069L7.33769 13.4245L7.21077 13.8555L8.17005 14.138ZM8.29697 13.7069L9.25624 13.9894C9.25598 13.9903 9.22999 14.0736 9.12967 14.155C9.02582 14.2393 8.92688 14.2531 8.90067 14.2544L8.85316 13.2555L8.80565 12.2566C8.49326 12.2715 8.15853 12.3674 7.86928 12.6021C7.58357 12.834 7.42257 13.1362 7.33769 13.4245L8.29697 13.7069ZM8.85316 13.2555L8.90067 14.2544L9.32994 14.234L9.28243 13.2351L9.23492 12.2362L8.80565 12.2566L8.85316 13.2555ZM9.28243 13.2351L9.32994 14.234L9.75922 14.2135L9.71171 13.2147L9.6642 12.2158L9.23492 12.2362L9.28243 13.2351ZM9.71171 13.2147L9.75922 14.2135C10.0975 14.1974 10.4246 14.1552 10.7383 14.0837L10.516 13.1087L10.2936 12.1338C10.1073 12.1763 9.89826 12.2047 9.6642 12.2158L9.71171 13.2147ZM10.516 13.1087L10.7383 14.0837L11.1133 13.9982L10.891 13.0232L10.6686 12.0482L10.2936 12.1338L10.516 13.1087ZM10.891 13.0232L11.1133 13.9982L11.4883 13.9127L11.266 12.9377L11.0436 11.9627L10.6686 12.0482L10.891 13.0232ZM11.266 12.9377L11.4883 13.9127C11.5504 13.8985 11.6106 13.8995 11.6899 13.9269L12.016 12.9815L12.342 12.0362C11.9214 11.8911 11.4815 11.8629 11.0436 11.9627L11.266 12.9377ZM12.016 12.9815L11.6899 13.9269L12.0649 14.0562L12.391 13.1108L12.717 12.1655L12.342 12.0362L12.016 12.9815ZM12.391 13.1108L12.0649 14.0562L12.4399 14.1855L12.766 13.2402L13.092 12.2948L12.717 12.1655L12.391 13.1108ZM12.766 13.2402L12.4399 14.1855C12.7727 14.3003 13.1138 14.3692 13.4601 14.3825L13.4985 13.3832L13.5369 12.384C13.4066 12.379 13.2593 12.3525 13.092 12.2948L12.766 13.2402ZM13.4985 13.3832L13.4601 14.3825L13.8177 14.3963L13.8561 13.397L13.8945 12.3977L13.5369 12.384L13.4985 13.3832ZM13.8561 13.397L13.8177 14.3963L14.1752 14.41L14.2136 13.4107L14.252 12.4115L13.8945 12.3977L13.8561 13.397ZM14.2136 13.4107L14.1752 14.41C14.167 14.4097 14.125 14.4059 14.0698 14.3771C14.0132 14.3476 13.9775 14.31 13.9612 14.2874L14.7714 13.7013L15.5817 13.1153C15.2585 12.6684 14.7807 12.4318 14.252 12.4115L14.2136 13.4107ZM14.7714 13.7013L13.9612 14.2874L14.1614 14.5643L14.9717 13.9782L15.782 13.3922L15.5817 13.1153L14.7714 13.7013ZM14.9717 13.9782L14.1614 14.5643L14.3617 14.8411L15.1719 14.2551L15.9822 13.669L15.782 13.3922L14.9717 13.9782ZM15.1719 14.2551L14.3617 14.8411C14.4208 14.9229 14.4793 15.0359 14.5267 15.1941L15.4846 14.907L16.4425 14.6198C16.34 14.278 16.1901 13.9564 15.9822 13.669L15.1719 14.2551ZM15.4846 14.907L14.5267 15.1941L14.6392 15.5691L15.597 15.282L16.5549 14.9948L16.4425 14.6198L15.4846 14.907ZM15.597 15.282L14.6392 15.5691L14.7516 15.9441L15.7095 15.657L16.6673 15.3698L16.5549 14.9948L15.597 15.282ZM15.7095 15.657L14.7516 15.9441C14.7986 16.1008 14.8188 16.2494 14.8168 16.3931L15.8167 16.407L16.8166 16.4208C16.8215 16.0645 16.7703 15.7131 16.6673 15.3698L15.7095 15.657ZM15.8167 16.407L14.8168 16.3931L14.8116 16.7681L15.8115 16.782L16.8114 16.7958L16.8166 16.4208L15.8167 16.407ZM15.8115 16.782L14.8116 16.7681L14.8064 17.1431L15.8063 17.157L16.8062 17.1708L16.8114 16.7958L15.8115 16.782ZM15.8063 17.157L14.8064 17.1431C14.8057 17.1947 14.7915 17.2774 14.7185 17.4022L15.5818 17.907L16.445 18.4118C16.6645 18.0365 16.8 17.6192 16.8062 17.1708L15.8063 17.157ZM15.5818 17.907L14.7185 17.4022L14.4993 17.7772L15.3625 18.282L16.2257 18.7868L16.445 18.4118L15.5818 17.907ZM15.3625 18.282L14.4993 17.7772L14.28 18.1522L15.1432 18.657L16.0064 19.1618L16.2257 18.7868L15.3625 18.282ZM15.1432 18.657L14.28 18.1522C13.9629 18.6944 13.9407 19.314 14.2427 19.8786L15.1245 19.407L16.0063 18.9353C16.0099 18.9421 16.0303 18.9869 16.0286 19.0569C16.0268 19.1258 16.005 19.1642 16.0064 19.1618L15.1432 18.657ZM15.1245 19.407L14.2427 19.8786L14.4432 20.2536L15.325 19.782L16.2068 19.3103L16.0063 18.9353L15.1245 19.407ZM15.325 19.782L14.4432 20.2536L14.6438 20.6286L15.5256 20.157L16.4074 19.6853L16.2068 19.3103L15.325 19.782ZM15.5256 20.157L14.6438 20.6286C14.6539 20.6476 14.6458 20.6394 14.6435 20.6096C14.6424 20.5959 14.643 20.5824 14.6448 20.5706C14.6457 20.565 14.6467 20.5605 14.6475 20.5573C14.6484 20.5541 14.649 20.5525 14.6489 20.5526L15.584 20.907L16.5191 21.2614C16.7231 20.7232 16.668 20.1726 16.4074 19.6853L15.5256 20.157ZM15.584 20.907L14.6489 20.5526L14.5068 20.9276L15.4419 21.282L16.377 21.6364L16.5191 21.2614L15.584 20.907ZM15.4419 21.282L14.5068 20.9276L14.3647 21.3026L15.2998 21.657L16.2349 22.0114L16.377 21.6364L15.4419 21.282ZM15.2998 21.657L14.3647 21.3026C14.3068 21.4553 14.2523 21.6236 14.2223 21.7918C14.2001 21.9162 14.1508 22.2381 14.305 22.5701L15.212 22.149L16.119 21.7278C16.1854 21.8708 16.1951 21.9915 16.1967 22.0456C16.1984 22.1039 16.1918 22.1399 16.1912 22.1431C16.1905 22.1473 16.198 22.1086 16.2349 22.0114L15.2998 21.657ZM15.212 22.149L14.305 22.5701L14.3593 22.6871L15.2663 22.266L16.1733 21.8448L16.119 21.7278L15.212 22.149ZM15.2663 22.266L14.4896 22.8958L14.5982 23.0298L15.375 22.4L16.1518 21.7702L16.0431 21.6362L15.2663 22.266ZM15.375 22.4L14.375 22.4L14.375 22.5L15.375 22.5L16.375 22.5L16.375 22.4L15.375 22.4ZM22.1066 9.73539L21.1651 9.39844L21.0309 9.77344L21.9724 10.1104L22.9139 10.4473L23.0481 10.0723L22.1066 9.73539ZM21.9724 10.1104L21.0309 9.77344C20.8563 10.2612 20.8726 10.7668 21.0679 11.2411L21.9926 10.8604L22.9173 10.4797C22.9125 10.468 22.9107 10.4611 22.9102 10.4586C22.9097 10.4563 22.9099 10.4565 22.91 10.4585C22.91 10.4605 22.9098 10.4616 22.9099 10.4611C22.91 10.4605 22.9108 10.4561 22.9139 10.4473L21.9724 10.1104ZM21.9926 10.8604L21.0679 11.2411L21.2223 11.6161L22.147 11.2354L23.0717 10.8547L22.9173 10.4797L21.9926 10.8604ZM22.147 11.2354L21.2223 11.6161L21.3767 11.9911L22.3014 11.6104L23.2261 11.2297L23.0717 10.8547L22.147 11.2354ZM22.3014 11.6104L21.3767 11.9911C21.3787 11.9961 21.38 11.9997 21.3807 12.002C21.3814 12.0043 21.3817 12.0054 21.3817 12.0055C21.3817 12.0056 21.3815 12.0049 21.3814 12.0034C21.3812 12.002 21.3811 12.0002 21.3811 11.9981C21.381 11.9937 21.3815 11.9904 21.3817 11.9893C21.3818 11.9883 21.3813 11.9917 21.3781 12L22.3109 12.3604L23.2438 12.7207C23.4335 12.2295 23.4256 11.7142 23.2261 11.2297L22.3014 11.6104ZM22.3109 12.3604L21.3781 12L21.2333 12.375L22.1661 12.7354L23.0989 13.0957L23.2438 12.7207L22.3109 12.3604ZM22.1661 12.7354L21.2333 12.375L21.0884 12.75L22.0212 13.1104L22.954 13.4707L23.0989 13.0957L22.1661 12.7354ZM22.0212 13.1104L21.0884 12.75C20.9041 13.2271 20.9001 13.7296 21.0792 14.2098L22.0162 13.8604L22.9532 13.511C22.9493 13.5007 22.9481 13.4948 22.9477 13.4928C22.9474 13.4909 22.9475 13.4909 22.9475 13.4921C22.9475 13.4932 22.9474 13.493 22.9478 13.4907C22.9483 13.4882 22.9498 13.4817 22.954 13.4707L22.0212 13.1104ZM22.0162 13.8604L21.0792 14.2098L21.2191 14.5848L22.1561 14.2354L23.093 13.886L22.9532 13.511L22.0162 13.8604ZM22.1561 14.2354L21.2191 14.5848L21.359 14.9598L22.2959 14.6104L23.2329 14.261L23.093 13.886L22.1561 14.2354ZM22.2959 14.6104L21.359 14.9598C21.362 14.9681 21.3626 14.9717 21.3625 14.9711C21.3624 14.9704 21.362 14.9678 21.3621 14.9642C21.3622 14.9606 21.3626 14.9588 21.3624 14.9597C21.3622 14.9607 21.3609 14.9662 21.3565 14.9768L22.28 15.3604L23.2035 15.7439C23.4029 15.2639 23.416 14.752 23.2329 14.261L22.2959 14.6104ZM22.28 15.3604L21.3565 14.9768L21.2008 15.3518L22.1243 15.7354L23.0478 16.1189L23.2035 15.7439L22.28 15.3604ZM22.1243 15.7354L21.2008 15.3518L21.045 15.7268L21.9685 16.1104L22.8921 16.4939L23.0478 16.1189L22.1243 15.7354ZM21.9685 16.1104L21.045 15.7268C20.8061 16.302 20.8868 16.889 21.193 17.3854L22.0441 16.8604L22.8952 16.3354C22.8842 16.3175 22.8996 16.336 22.9045 16.3851C22.9069 16.4084 22.9061 16.4318 22.9027 16.4533C22.8994 16.4743 22.8944 16.4883 22.8921 16.4939L21.9685 16.1104ZM22.0441 16.8604L21.193 17.3854L21.4244 17.7604L22.2755 17.2354L23.1265 16.7104L22.8952 16.3354L22.0441 16.8604ZM22.2755 17.2354L21.4244 17.7604L21.6557 18.1354L22.5068 17.6104L23.3579 17.0854L23.1265 16.7104L22.2755 17.2354ZM22.5068 17.6104L21.6557 18.1354C21.7482 18.2854 21.7851 18.4033 21.7971 18.493L22.7883 18.3604L23.7795 18.2278C23.7246 17.8175 23.5738 17.4354 23.3579 17.0854L22.5068 17.6104ZM22.7883 18.3604L21.7971 18.493L21.8473 18.868L22.8385 18.7354L23.8296 18.6028L23.7795 18.2278L22.7883 18.3604ZM22.8385 18.7354L21.8473 18.868L21.8975 19.243L22.8887 19.1104L23.8798 18.9778L23.8296 18.6028L22.8385 18.7354ZM22.8887 19.1104L21.8975 19.243C21.8963 19.2343 21.8957 19.2219 21.897 19.2073C21.8983 19.1926 21.9012 19.18 21.9042 19.1705C21.9105 19.151 21.913 19.1584 21.8856 19.1917L22.6579 19.8269L23.4303 20.4622C23.7614 20.0595 23.9564 19.5499 23.8798 18.9778L22.8887 19.1104ZM22.6579 19.8269L21.8856 19.1917L21.6047 19.5333L22.377 20.1685L23.1493 20.8037L23.4303 20.4622L22.6579 19.8269ZM22.377 20.1685L21.6047 19.5333L21.3238 19.8748L22.0961 20.51L22.8684 21.1453L23.1493 20.8037L22.377 20.1685ZM22.0961 20.51L21.3238 19.8748C21.1364 20.1026 20.986 20.2856 20.8727 20.4236L21.6456 21.0581L22.4186 21.6926C22.5313 21.5552 22.6812 21.3728 22.8684 21.1453L22.0961 20.51ZM21.6456 21.0581L20.8727 20.4236L20.7032 20.6302L21.4761 21.2646L22.2491 21.8991L22.4186 21.6926L21.6456 21.0581ZM21.4761 21.2646L20.7032 20.6302L20.5336 20.8367L21.3066 21.4712L22.0795 22.1056L22.2491 21.8991L21.4761 21.2646ZM21.3066 21.4712L20.5336 20.8367C20.547 20.8204 20.5654 20.804 20.586 20.7913C20.6059 20.7791 20.6176 20.7767 20.6134 20.7777L20.8555 21.748L21.0977 22.7182C21.4748 22.6241 21.8183 22.4238 22.0795 22.1056L21.3066 21.4712ZM20.8555 21.748L20.6134 20.7777L20.3319 20.848L20.574 21.8182L20.8162 22.7885L21.0977 22.7182L20.8555 21.748ZM20.574 21.8182L20.3319 20.848L20.0504 20.9182L20.2925 21.8885L20.5346 22.8587L20.8162 22.7885L20.574 21.8182ZM20.2925 21.8885L20.0504 20.9182C19.7686 20.9886 19.4788 21.1067 19.1897 21.2508L19.636 22.1457L20.0823 23.0406C20.2932 22.9354 20.4411 22.8821 20.5346 22.8587L20.2925 21.8885ZM19.636 22.1457L19.1897 21.2508L18.8147 21.4378L19.261 22.3327L19.7073 23.2276L20.0823 23.0406L19.636 22.1457ZM19.261 22.3327L18.8147 21.4378L18.4397 21.6248L18.886 22.5197L19.3323 23.4146L19.7073 23.2276L19.261 22.3327ZM18.886 22.5197L18.4397 21.6248C18.4235 21.6329 18.4125 21.6369 18.4065 21.6387C18.4007 21.6405 18.3986 21.6406 18.3997 21.6404C18.4009 21.6403 18.4028 21.6403 18.4046 21.6404C18.4063 21.6405 18.4053 21.6407 18.4009 21.6395L18.136 22.6037L17.8711 23.568C18.3779 23.7072 18.8804 23.64 19.3323 23.4146L18.886 22.5197ZM18.136 22.6037L18.4009 21.6395L18.0259 21.5364L17.761 22.5007L17.4961 23.465L17.8711 23.568L18.136 22.6037ZM17.761 22.5007L18.0259 21.5364L17.6509 21.4334L17.386 22.3977L17.1211 23.3619L17.4961 23.465L17.761 22.5007ZM17.386 22.3977L17.6509 21.4334C17.1983 21.309 16.7387 21.3301 16.3004 21.4862L16.636 22.4282L16.9716 23.3702C17.0333 23.3483 17.0737 23.3489 17.1211 23.3619L17.386 22.3977ZM16.636 22.4282L16.3004 21.4862L15.9254 21.6198L16.261 22.5618L16.5966 23.5038L16.9716 23.3702L16.636 22.4282ZM16.261 22.5618L15.9254 21.6198L15.5504 21.7535L15.886 22.6954L16.2216 23.6375L16.5966 23.5038L16.261 22.5618ZM15.886 22.6954L15.5504 21.7535C15.4794 21.7787 15.4296 21.7787 15.3763 21.7655L15.136 22.7362L14.8957 23.7069C15.3424 23.8175 15.7926 23.7903 16.2216 23.6375L15.886 22.6954ZM15.136 22.7362L15.3763 21.7655L15.0013 21.6727L14.761 22.6434L14.5207 23.614L14.8957 23.7069L15.136 22.7362ZM14.761 22.6434L15.0013 21.6727L14.6263 21.5798L14.386 22.5505L14.1457 23.5212L14.5207 23.614L14.761 22.6434ZM14.386 22.5505L14.6263 21.5798C14.296 21.498 13.9609 21.4582 13.6231 21.4626L13.636 22.4625L13.6489 23.4624C13.8111 23.4603 13.976 23.4792 14.1457 23.5212L14.386 22.5505ZM13.636 22.4625L13.6231 21.4626L13.2481 21.4674L13.261 22.4674L13.2739 23.4673L13.6489 23.4624L13.636 22.4625ZM13.261 22.4674L13.2481 21.4674L12.8731 21.4723L12.886 22.4722L12.8989 23.4721L13.2739 23.4673L13.261 22.4674ZM12.886 22.4722L12.8731 21.4723C12.6629 21.475 12.4526 21.4652 12.2418 21.4428L12.136 22.4372L12.0302 23.4315C12.3194 23.4623 12.6091 23.4759 12.8989 23.4721L12.886 22.4722ZM12.136 22.4372L12.2418 21.4428L11.8668 21.4029L11.761 22.3973L11.6552 23.3916L12.0302 23.4315L12.136 22.4372ZM11.761 22.3973L11.8668 21.4029L11.4918 21.363L11.386 22.3574L11.2802 23.3517L11.6552 23.3916L11.761 22.3973ZM11.386 22.3574L11.4918 21.363C11.1855 21.3304 10.8787 21.3239 10.5718 21.3436L10.636 22.3416L10.7002 23.3395C10.8933 23.3271 11.0864 23.3311 11.2802 23.3517L11.386 22.3574ZM10.636 22.3416L10.5718 21.3436L10.1968 21.3678L10.261 22.3657L10.3252 23.3636L10.7002 23.3395L10.636 22.3416ZM10.261 22.3657L10.1968 21.3678L9.82181 21.3919L9.886 22.3898L9.95019 23.3878L10.3252 23.3636L10.261 22.3657ZM9.886 22.3898L9.82181 21.3919C9.56041 21.4087 9.29906 21.43 9.03777 21.4558L9.136 22.451L9.23423 23.4461C9.47293 23.4226 9.71158 23.4031 9.95019 23.3878L9.886 22.3898ZM9.136 22.451L9.03777 21.4558L8.66276 21.4928L8.761 22.488L8.85923 23.4831L9.23423 23.4461L9.136 22.451ZM8.761 22.488L8.66276 21.4928L8.28776 21.5298L8.386 22.525L8.48423 23.5201L8.85923 23.4831L8.761 22.488ZM8.386 22.525L8.28776 21.5298C8.08494 21.5498 7.88256 21.5553 7.68029 21.5464L7.636 22.5454L7.59171 23.5444C7.88943 23.5576 8.18706 23.5495 8.48423 23.5201L8.386 22.525ZM7.636 22.5454L7.68029 21.5464L7.30529 21.5297L7.261 22.5287L7.21671 23.5278L7.59171 23.5444L7.636 22.5454ZM7.261 22.5287L7.30529 21.5297L6.93029 21.5131L6.886 22.5121L6.84171 23.5111L7.21671 23.5278L7.261 22.5287ZM6.886 22.5121L6.93029 21.5131C6.53177 21.4954 6.14361 21.5654 5.77361 21.7093L6.136 22.6413L6.49838 23.5733C6.62839 23.5228 6.74022 23.5066 6.84171 23.5111L6.886 22.5121ZM6.136 22.6413L5.77361 21.7093L5.39861 21.8551L5.761 22.7871L6.12338 23.7191L6.49838 23.5733L6.136 22.6413ZM5.761 22.7871L5.39861 21.8551L5.02361 22.0009L5.386 22.9329L5.74838 23.8649L6.12338 23.7191L5.761 22.7871ZM5.386 22.9329L5.02361 22.0009C5.01899 22.0027 5.01994 22.0019 5.02583 22.0008C5.0319 21.9998 5.04007 21.999 5.04919 21.9994C5.05826 21.9997 5.06474 22.001 5.06762 22.0017C5.07027 22.0024 5.06714 22.0019 5.05783 21.9976L4.636 22.9043L4.21416 23.8109C4.70342 24.0386 5.23655 24.064 5.74838 23.8649L5.386 22.9329ZM4.636 22.9043L5.05783 21.9976L4.68283 21.8231L4.261 22.7298L3.83916 23.6365L4.21416 23.8109L4.636 22.9043ZM4.261 22.7298L4.68283 21.8231L4.30783 21.6486L3.886 22.5553L3.46416 23.462L3.83916 23.6365L4.261 22.7298ZM3.886 22.5553L4.30783 21.6486C4.03706 21.5227 3.77773 21.4136 3.5307 21.3233L3.18718 22.2624L2.84367 23.2015C3.02839 23.2691 3.23493 23.3553 3.46416 23.462L3.886 22.5553ZM3.18718 22.2624L3.5307 21.3233L3.20689 21.2048L2.86337 22.144L2.51986 23.0831L2.84367 23.2015L3.18718 22.2624ZM2.86337 22.144L3.20689 21.2048L2.88307 21.0864L2.53956 22.0255L2.19605 22.9647L2.51986 23.0831L2.86337 22.144ZM2.53956 22.0255L2.88307 21.0864C2.88087 21.0856 2.90017 21.0926 2.92608 21.1157C2.95274 21.1394 2.96867 21.1643 2.97557 21.1787L2.07381 21.611L1.17205 22.0432C1.38558 22.4887 1.74866 22.801 2.19605 22.9647L2.53956 22.0255ZM2.07381 21.611L2.97557 21.1787L2.83363 20.8826L1.93187 21.3148L1.03011 21.7471L1.17205 22.0432L2.07381 21.611ZM1.93187 21.3148L2.83363 20.8826L2.69169 20.5865L1.78993 21.0187L0.888176 21.451L1.03011 21.7471L1.93187 21.3148ZM1.78993 21.0187L2.69169 20.5865C2.65733 20.5148 2.62869 20.4184 2.61906 20.2845L1.62164 20.3563L0.624217 20.4281C0.649729 20.7826 0.733294 21.1278 0.888176 21.451L1.78993 21.0187ZM1.62164 20.3563L2.61906 20.2845L2.5927 19.9182L1.59528 19.99L0.597858 20.0618L0.624217 20.4281L1.62164 20.3563ZM1.59528 19.99L2.5927 19.9182L2.56634 19.5519L1.56892 19.6237L0.571498 19.6955L0.597858 20.0618L1.59528 19.99ZM1.56892 19.6237L2.56634 19.5519C2.55153 19.346 2.54835 19.1366 2.55709 18.9233L1.55793 18.8824L0.55877 18.8414C0.547016 19.1282 0.551168 19.4129 0.571498 19.6955L1.56892 19.6237ZM1.55793 18.8824L2.55709 18.9233L2.57246 18.5483L1.5733 18.5074L0.574141 18.4664L0.55877 18.8414L1.55793 18.8824ZM1.5733 18.5074L2.57246 18.5483L2.58783 18.1733L1.58867 18.1324L0.589512 18.0914L0.574141 18.4664L1.5733 18.5074ZM1.58867 18.1324L2.58783 18.1733C2.60324 17.7975 2.54843 17.4281 2.43083 17.0702L1.48081 17.3824L0.530793 17.6946C0.577501 17.8367 0.594602 17.9673 0.589512 18.0914L1.58867 18.1324ZM1.48081 17.3824L2.43083 17.0702L2.30759 16.6952L1.35758 17.0074L0.407559 17.3196L0.530793 17.6946L1.48081 17.3824ZM1.35758 17.0074L2.30759 16.6952L2.18436 16.3202L1.23434 16.6324L0.284324 16.9446L0.407559 17.3196L1.35758 17.0074ZM1.23434 16.6324L2.18436 16.3202C2.14071 16.1874 2.12717 16.0674 2.13528 15.9534L1.1378 15.8824L0.140329 15.8114C0.112847 16.1974 0.163662 16.5774 0.284324 16.9446L1.23434 16.6324ZM1.1378 15.8824L2.13528 15.9534L2.16198 15.5784L1.1645 15.5074L0.167025 15.4364L0.140329 15.8114L1.1378 15.8824ZM1.1645 15.5074L2.16198 15.5784L2.18867 15.2034L1.1912 15.1324L0.193722 15.0614L0.167025 15.4364L1.1645 15.5074ZM1.1912 15.1324L2.18867 15.2034C2.21177 14.879 2.1986 14.5548 2.14966 14.2323L1.16098 14.3824L0.172303 14.5324C0.199245 14.71 0.20622 14.8858 0.193722 15.0614L1.1912 15.1324ZM1.16098 14.3824L2.14966 14.2323L2.09275 13.8573L1.10407 14.0074L0.115389 14.1574L0.172303 14.5324L1.16098 14.3824ZM1.10407 14.0074L2.09275 13.8573L2.03583 13.4823L1.04715 13.6324L0.058476 13.7824L0.115389 14.1574L1.10407 14.0074ZM1.04715 13.6324L2.03583 13.4823C2.0277 13.4288 2.03059 13.3653 2.06989 13.2726L1.14915 12.8824L0.2284 12.4922C0.0558281 12.8995 -0.00927866 13.336 0.058476 13.7824L1.04715 13.6324ZM1.14915 12.8824L2.06989 13.2726L2.2288 12.8976L1.30805 12.5074L0.387304 12.1172L0.2284 12.4922L1.14915 12.8824ZM1.30805 12.5074L2.2288 12.8976L2.3877 12.5226L1.46696 12.1324L0.546209 11.7422L0.387304 12.1172L1.30805 12.5074ZM1.46696 12.1324L2.3877 12.5226C2.5981 12.026 2.60061 11.497 2.3931 10.9982L1.46983 11.3824L0.54656 11.7665C0.549563 11.7738 0.549485 11.7753 0.548751 11.7718C0.547978 11.768 0.547102 11.7616 0.547133 11.7536C0.547164 11.7455 0.548087 11.7393 0.548822 11.7358C0.549516 11.7326 0.549463 11.7345 0.546209 11.7422L1.46696 12.1324ZM1.46983 11.3824L2.3931 10.9982L2.23706 10.6232L1.3138 11.0074L0.390529 11.3915L0.54656 11.7665L1.46983 11.3824ZM1.3138 11.0074L2.23706 10.6232L2.08103 10.2482L1.15776 10.6324L0.234496 11.0165L0.390529 11.3915L1.3138 11.0074ZM1.15776 10.6324L2.08103 10.2482C2.07516 10.2341 2.07252 10.2247 2.07135 10.2196C2.07075 10.217 2.07046 10.2153 2.07032 10.2143C2.07019 10.2133 2.07016 10.2128 2.07016 10.2128C2.07016 10.2127 2.07016 10.2127 2.07016 10.2128C2.07015 10.2129 2.07016 10.2127 2.07024 10.2121C2.07038 10.2111 2.07101 10.2071 2.07352 10.1995L1.12361 9.88695L0.173694 9.57443C0.0141356 10.0594 0.0424848 10.5551 0.234496 11.0165L1.15776 10.6324ZM1.12361 9.88695L2.07352 10.1995L2.19539 9.82904L1.24548 9.51652L0.295567 9.204L0.173694 9.57443L1.12361 9.88695ZM1.24548 9.51652L2.19539 9.82904L2.31726 9.4586L1.36735 9.14608L0.41744 8.83356L0.295567 9.204L1.24548 9.51652ZM1.36735 9.14608L2.31726 9.4586C2.37302 9.28911 2.44223 9.14785 2.52089 9.02918L1.68735 8.47672L0.853816 7.92425C0.668301 8.20415 0.524176 8.50913 0.41744 8.83356L1.36735 9.14608ZM1.68735 8.47672L2.52089 9.02918L2.71901 8.73026L1.88548 8.17779L1.05194 7.62533L0.853816 7.92425L1.68735 8.47672ZM1.88548 8.17779L2.71901 8.73026L2.91714 8.43133L2.0836 7.87887L1.25007 7.3264L1.05194 7.62533L1.88548 8.17779ZM2.0836 7.87887L2.91714 8.43133C3.01338 8.28613 3.12931 8.14176 3.26739 7.99874L2.54795 7.30419L1.8285 6.60964C1.61163 6.83429 1.41799 7.07305 1.25007 7.3264L2.0836 7.87887ZM2.54795 7.30419L3.26739 7.99874L3.53361 7.72298L2.81416 7.02843L2.09472 6.33388L1.8285 6.60964L2.54795 7.30419ZM2.81416 7.02843L3.53361 7.72298L3.79982 7.44722L3.08038 6.75267L2.36093 6.05812L2.09472 6.33388L2.81416 7.02843ZM3.08038 6.75267L3.79982 7.44722C3.92342 7.3192 4.05632 7.21091 4.1991 7.12032L3.66338 6.27593L3.12765 5.43154C2.84805 5.60893 2.59229 5.81847 2.36093 6.05812L3.08038 6.75267ZM3.66338 6.27593L4.1991 7.12032L4.51588 6.91934L3.98016 6.07495L3.44443 5.23056L3.12765 5.43154L3.66338 6.27593ZM3.98016 6.07495L4.51588 6.91934L4.83267 6.71836L4.29694 5.87397L3.76122 5.02957L3.44443 5.23056L3.98016 6.07495ZM4.29694 5.87397L4.83267 6.71836C5.05694 6.57607 5.27776 6.42866 5.49513 6.27613L4.92074 5.45755L4.34634 4.63897C4.15436 4.77369 3.95932 4.90389 3.76122 5.02957L4.29694 5.87397ZM4.92074 5.45755L5.49513 6.27613L5.80214 6.0607L5.22775 5.24212L4.65336 4.42354L4.34634 4.63897L4.92074 5.45755ZM5.22775 5.24212L5.80214 6.0607L6.10916 5.84527L5.53476 5.02669L4.96037 4.20812L4.65336 4.42354L5.22775 5.24212ZM5.53476 5.02669L6.10916 5.84527C6.18011 5.79548 6.27524 5.75246 6.41397 5.72915L6.24829 4.74297L6.08261 3.75679C5.67932 3.82454 5.29876 3.97067 4.96037 4.20812L5.53476 5.02669ZM6.24829 4.74297L6.41397 5.72915L6.82049 5.66085L6.6548 4.67467L6.48912 3.68849L6.08261 3.75679L6.24829 4.74297ZM6.6548 4.67467L6.82049 5.66085L7.227 5.59256L7.06132 4.60638L6.89564 3.6202L6.48912 3.68849L6.6548 4.67467ZM7.06132 4.60638L7.227 5.59256C7.65304 5.52098 8.05109 5.35295 8.39264 5.07338L7.75923 4.29956L7.12582 3.52574C7.07884 3.56419 7.01161 3.60071 6.89564 3.6202L7.06132 4.60638ZM7.75923 4.29956L8.39264 5.07338L8.68403 4.83485L8.05062 4.06104L7.41721 3.28722L7.12582 3.52574L7.75923 4.29956ZM8.05062 4.06104L8.68403 4.83485L8.97543 4.59633L8.34202 3.82251L7.70861 3.0487L7.41721 3.28722L8.05062 4.06104ZM8.34202 3.82251L8.97543 4.59633C9.11536 4.48179 9.26567 4.38308 9.42739 4.29969L8.96906 3.4109L8.51074 2.52212C8.22493 2.66951 7.95721 2.84521 7.70861 3.0487L8.34202 3.82251ZM8.96906 3.4109L9.42739 4.29969L9.76304 4.1266L9.30471 3.23782L8.84638 2.34903L8.51074 2.52212L8.96906 3.4109ZM9.30471 3.23782L9.76304 4.1266L10.0987 3.95351L9.64036 3.06473L9.18203 2.17595L8.84638 2.34903L9.30471 3.23782ZM9.64036 3.06473L10.0987 3.95351C10.3643 3.81655 10.6186 3.66175 10.8613 3.48918L10.2817 2.67425L9.70213 1.85932C9.53721 1.9766 9.36397 2.08212 9.18203 2.17595L9.64036 3.06473ZM10.2817 2.67425L10.8613 3.48918L11.1669 3.27178L10.5874 2.45685L10.0078 1.64192L9.70213 1.85932L10.2817 2.67425ZM10.5874 2.45685L11.1669 3.27178L11.4726 3.05438L10.8931 2.23945L10.3135 1.42453L10.0078 1.64192L10.5874 2.45685ZM10.8931 2.23945L11.4726 3.05438C11.6577 2.92273 11.8664 2.78406 12.0996 2.6384L11.5699 1.79025L11.0401 0.942095C10.7785 1.10552 10.536 1.26631 10.3135 1.42453L10.8931 2.23945ZM11.5699 1.79025L12.0996 2.6384L12.4708 2.40659L11.941 1.55844L11.4113 0.710286L11.0401 0.942095L11.5699 1.79025ZM11.941 1.55844L12.4708 2.40659L12.8419 2.17478L12.3122 1.32663L11.7824 0.478476L11.4113 0.710286L11.941 1.55844ZM12.3122 1.32663L12.8419 2.17478C12.8326 2.18062 12.6397 2.29634 12.3578 2.21244C12.2272 2.17356 12.1344 2.10614 12.0782 2.05097C12.0512 2.0245 12.0332 2.00155 12.0225 1.98642C12.0118 1.97131 12.0068 1.96183 12.0062 1.96063L12.8936 1.49969L13.781 1.03874C13.6485 0.783533 13.3914 0.433353 12.9283 0.295541C12.4526 0.153949 12.0392 0.318103 11.7824 0.478476L12.3122 1.32663ZM12.8936 1.49969L12.0062 1.96063L12.2165 2.3655L13.1039 1.90455L13.9913 1.4436L13.781 1.03874L12.8936 1.49969ZM13.1039 1.90455L12.2165 2.3655L12.4268 2.77036L13.3142 2.30941L14.2016 1.84846L13.9913 1.4436L13.1039 1.90455ZM13.3142 2.30941L12.4268 2.77036C12.6201 3.14256 12.8763 3.47735 13.2127 3.73601L13.8223 2.94331L14.4319 2.15061C14.3712 2.10389 14.2887 2.01609 14.2016 1.84846L13.3142 2.30941ZM13.8223 2.94331L13.2127 3.73601L13.5105 3.96504L14.1201 3.17234L14.7297 2.37964L14.4319 2.15061L13.8223 2.94331ZM14.1201 3.17234L13.5105 3.96504L13.8083 4.19407L14.4179 3.40137L15.0275 2.60867L14.7297 2.37964L14.1201 3.17234ZM14.4179 3.40137L13.8083 4.19407C14.15 4.45683 14.5422 4.61528 14.9599 4.68431L15.1229 3.69769L15.286 2.71108C15.1607 2.69038 15.0829 2.65127 15.0275 2.60867L14.4179 3.40137ZM15.1229 3.69769L14.9599 4.68431L15.3671 4.75161L15.5301 3.76499L15.6932 2.77837L15.286 2.71108L15.1229 3.69769ZM15.5301 3.76499L15.3671 4.75161L15.7742 4.8189L15.9373 3.83229L16.1004 2.84567L15.6932 2.77837L15.5301 3.76499ZM15.9373 3.83229L15.7742 4.8189C15.8949 4.83884 15.9671 4.87656 16.0178 4.91679L16.6392 4.13327L17.2605 3.34975C16.9184 3.0784 16.5226 2.91546 16.1004 2.84567L15.9373 3.83229ZM16.6392 4.13327L16.0178 4.91679L16.3125 5.15047L16.9338 4.36696L17.5552 3.58344L17.2605 3.34975L16.6392 4.13327ZM16.9338 4.36696L16.3125 5.15047L16.6071 5.38416L17.2285 4.60064L17.8499 3.81713L17.5552 3.58344L16.9338 4.36696ZM17.2285 4.60064L16.6071 5.38416C16.8054 5.5414 17.0042 5.6979 17.2034 5.85367L17.8193 5.06584L18.4352 4.278C18.2396 4.1251 18.0445 3.97147 17.8499 3.81713L17.2285 4.60064ZM17.8193 5.06584L17.2034 5.85367L17.4996 6.08518L18.1154 5.29734L18.7313 4.50951L18.4352 4.278L17.8193 5.06584ZM18.1154 5.29734L17.4996 6.08518L17.7957 6.31668L18.4116 5.52885L19.0275 4.74101L18.7313 4.50951L18.1154 5.29734ZM18.4116 5.52885L17.7957 6.31668C18.027 6.49747 18.2689 6.6627 18.5214 6.81222L19.031 5.95178L19.5405 5.09134C19.362 4.98563 19.1911 4.8689 19.0275 4.74101L18.4116 5.52885ZM19.031 5.95178L18.5214 6.81222L18.8447 7.00364L19.3542 6.14321L19.8638 5.28277L19.5405 5.09134L19.031 5.95178ZM19.3542 6.14321L18.8447 7.00364L19.1679 7.19507L19.6775 6.33463L20.187 5.47419L19.8638 5.28277L19.3542 6.14321ZM19.6775 6.33463L19.1679 7.19507C19.3894 7.32623 19.6124 7.45515 19.8368 7.58184L20.3283 6.71099L20.8199 5.84013C20.6075 5.72025 20.3965 5.59827 20.187 5.47419L19.6775 6.33463ZM20.3283 6.71099L19.8368 7.58184L20.1644 7.76677L20.656 6.89592L21.1475 6.02506L20.8199 5.84013L20.3283 6.71099ZM20.656 6.89592L20.1644 7.76677L20.4921 7.9517L20.9836 7.08085L21.4752 6.20999L21.1475 6.02506L20.656 6.89592ZM20.9836 7.08085L20.4921 7.9517C20.5835 8.00331 20.658 8.06953 20.7219 8.15825L21.5331 7.57339L22.3442 6.98853C22.1124 6.6671 21.8206 6.40496 21.4752 6.20999L20.9836 7.08085ZM21.5331 7.57339L20.7219 8.15825L20.9437 8.46586L21.7549 7.881L22.566 7.29614L22.3442 6.98853L21.5331 7.57339ZM21.7549 7.881L20.9437 8.46586L21.1655 8.77347L21.9767 8.18861L22.7878 7.60375L22.566 7.29614L21.7549 7.881ZM21.9767 8.18861L21.1655 8.77347C21.2318 8.86531 21.2762 8.93159 21.3036 8.97596C21.3171 8.99783 21.3231 9.00883 21.3241 9.01071C21.3264 9.01509 21.3155 8.99538 21.302 8.95797L22.2426 8.61851L23.1832 8.27906C23.0986 8.04466 22.923 7.79126 22.7878 7.60375L21.9767 8.18861ZM22.2426 8.61851L21.302 8.95797L21.3461 9.08026L22.2867 8.74081L23.2274 8.40135L23.1832 8.27906L22.2426 8.61851ZM22.2867 8.74081L21.3461 9.08026L21.3902 9.20256L22.3309 8.8631L23.2715 8.52364L23.2274 8.40135L22.2867 8.74081ZM22.3309 8.8631L21.3902 9.20256C21.3667 9.13726 21.355 9.08044 21.349 9.03815C21.343 8.99561 21.3417 8.96115 21.3418 8.93761C21.3418 8.91376 21.3433 8.89615 21.3443 8.88615C21.3454 8.87594 21.3464 8.87043 21.3464 8.87035C21.3465 8.87014 21.3458 8.87358 21.344 8.88107C21.3423 8.8885 21.3396 8.89888 21.3357 8.91246C21.3277 8.94002 21.316 8.97666 21.2993 9.02344L22.2408 9.36039L23.1823 9.69735C23.2363 9.54651 23.2857 9.38522 23.3144 9.22679C23.3363 9.10593 23.3798 8.82385 23.2715 8.52364L22.3309 8.8631ZM22.2408 9.36039L21.2993 9.02344L21.1651 9.39844L22.1066 9.73539L23.0481 10.0723L23.1823 9.69735L22.2408 9.36039Z" fill="#80A281"/>
</svg>
