<svg width="24" height="25" viewBox="0 0 24 25" fill="none" xmlns="http://www.w3.org/2000/svg">
<path d="M7.375 23.0518C7.375 23.604 7.82271 24.0518 8.37499 24.0518C8.92728 24.0518 9.375 23.604 9.375 23.0518L7.375 23.0518ZM8.375 22.9518L9.375 22.9518L9.375 22.7568L9.30174 22.5761L8.375 22.9518ZM8.09122 22.2518L9.01797 21.8761L8.09122 22.2518ZM7.85876 21.1768L6.86799 21.0412L7.85876 21.1768ZM7.96138 20.4268L8.95215 20.5623L7.96138 20.4268ZM8.09658 19.6768L9.07246 19.895L8.09658 19.6768ZM8.26434 18.9268L7.28846 18.7085L8.26434 18.9268ZM8.474 18.1768L7.52591 17.8588L8.474 18.1768ZM8.72555 17.4268L9.67364 17.7448L8.72555 17.4268ZM8.61755 16.6768L9.46615 16.1477L8.61755 16.6768ZM8.04312 15.1207L9.0024 15.4032L8.04312 15.1207ZM8.17005 14.6897L7.21077 14.4072L8.17005 14.6897ZM8.29697 14.2587L7.33769 13.9762L8.29697 14.2587ZM8.85316 13.8073L8.80565 12.8084L8.85316 13.8073ZM9.71171 13.7664L9.75922 14.7653L9.71171 13.7664ZM10.516 13.6605L10.2936 12.6855L10.516 13.6605ZM12.016 13.5333L11.6899 14.4786L12.016 13.5333ZM12.766 13.7919L13.092 12.8466L12.766 13.7919ZM13.4985 13.935L13.4601 14.9343L13.4985 13.935ZM14.2136 13.9625L14.252 12.9632L14.2136 13.9625ZM14.7714 14.2531L13.9612 14.8391L14.7714 14.2531ZM15.1719 14.8068L15.9822 14.2208L15.1719 14.8068ZM15.4846 15.4587L16.4425 15.1715L15.4846 15.4587ZM15.7095 16.2087L14.7516 16.4959L15.7095 16.2087ZM15.8063 17.7087L14.8064 17.6948L15.8063 17.7087ZM15.5818 18.4587L16.445 18.9635L15.5818 18.4587ZM15.1432 19.2087L16.0064 19.7135L15.1432 19.2087ZM15.1245 19.9587L16.0063 19.4871L15.1245 19.9587ZM15.5256 20.7087L16.4074 20.2371L15.5256 20.7087ZM15.584 21.4587L14.6489 21.1043L15.584 21.4587ZM15.2998 22.2087L16.2349 22.5631L15.2998 22.2087ZM15.212 22.7007L16.119 22.2796L15.212 22.7007ZM15.2663 22.8177L14.3593 23.2389L14.4115 23.3513L14.4896 23.4475L15.2663 22.8177ZM15.375 22.9518L16.375 22.9517L16.375 22.5973L16.1518 22.322L15.375 22.9518ZM14.375 23.0518C14.375 23.604 14.8227 24.0518 15.375 24.0518C15.9273 24.0518 16.375 23.604 16.375 23.0518L14.375 23.0518ZM22.1066 10.2872L21.1651 9.9502L22.1066 10.2872ZM21.9724 10.6622L22.9139 10.9991L21.9724 10.6622ZM21.9926 11.4122L21.0679 11.7929L21.9926 11.4122ZM22.3014 12.1622L23.2261 11.7814L22.3014 12.1622ZM22.3109 12.9122L23.2438 13.2725L22.3109 12.9122ZM22.0212 13.6622L21.0884 13.3018L22.0212 13.6622ZM22.0162 14.4122L21.0792 14.7616L22.0162 14.4122ZM22.1561 14.7872L23.093 14.4377L22.1561 14.7872ZM22.2959 15.1622L23.2329 14.8127L22.2959 15.1622ZM22.28 15.9122L23.2035 16.2957L22.28 15.9122ZM22.1243 16.2872L23.0478 16.6707L22.1243 16.2872ZM21.9685 16.6622L21.045 16.2786L21.9685 16.6622ZM22.0441 17.4122L22.8952 16.8871L22.0441 17.4122ZM22.5068 18.1622L21.6557 18.6872L22.5068 18.1622ZM22.7883 18.9122L21.7971 19.0448L22.7883 18.9122ZM22.8385 19.2872L23.8296 19.1545L22.8385 19.2872ZM22.8887 19.6622L23.8798 19.5295L22.8887 19.6622ZM22.6579 20.3787L21.8856 19.7435L22.6579 20.3787ZM22.0961 21.0618L22.8684 21.697L22.0961 21.0618ZM21.6456 21.6099L22.4186 22.2443L21.6456 21.6099ZM21.4761 21.8164L22.2491 22.4509L21.4761 21.8164ZM21.3066 22.0229L20.5336 21.3885L21.3066 22.0229ZM20.8555 22.2997L20.6134 21.3295L20.8555 22.2997ZM20.574 22.37L20.3319 21.3997L20.574 22.37ZM20.2925 22.4402L20.5346 23.4105L20.2925 22.4402ZM19.636 22.6975L20.0823 23.5924L19.636 22.6975ZM18.886 23.0715L18.4397 22.1766L18.886 23.0715ZM18.136 23.1555L18.4009 22.1912L18.136 23.1555ZM17.386 22.9494L17.1211 23.9137L17.386 22.9494ZM16.261 23.1136L16.5966 24.0556L16.261 23.1136ZM15.886 23.2472L15.5504 22.3052L15.886 23.2472ZM15.136 23.288L15.3763 22.3173L15.136 23.288ZM14.386 23.1023L14.1457 24.073L14.386 23.1023ZM13.636 23.0143L13.6489 24.0142L13.636 23.0143ZM13.261 23.0191L13.2481 22.0192L13.261 23.0191ZM12.886 23.024L12.8731 22.0241L12.886 23.024ZM12.136 22.9889L12.2418 21.9945L12.136 22.9889ZM11.761 22.949L11.6552 23.9434L11.761 22.949ZM11.386 22.9091L11.2802 23.9035L11.386 22.9091ZM10.636 22.8933L10.5718 21.8954L10.636 22.8933ZM9.886 22.9416L9.95019 23.9395L9.886 22.9416ZM9.136 23.0027L9.23423 23.9979L9.136 23.0027ZM8.386 23.0767L8.28776 22.0816L8.386 23.0767ZM7.636 23.0971L7.59171 24.0962L7.636 23.0971ZM6.886 23.0639L6.93029 22.0649L6.886 23.0639ZM6.136 23.1931L5.77361 22.261L6.136 23.1931ZM5.386 23.4847L5.74838 24.4167L5.386 23.4847ZM4.636 23.456L5.05783 22.5493L4.636 23.456ZM3.886 23.1071L3.46416 24.0137L3.886 23.1071ZM3.18718 22.8142L2.84367 23.7533L3.18718 22.8142ZM2.86337 22.6957L3.20689 21.7566L2.86337 22.6957ZM2.53956 22.5773L2.88307 21.6381L2.53956 22.5773ZM2.07381 22.1627L1.17205 22.595L2.07381 22.1627ZM1.93187 21.8666L1.03011 22.2988L1.93187 21.8666ZM1.78993 21.5705L2.69169 21.1382L1.78993 21.5705ZM1.62164 20.9081L2.61906 20.8363L1.62164 20.9081ZM1.59528 20.5418L0.597858 20.6135L1.59528 20.5418ZM1.56892 20.1755L0.571498 20.2472L1.56892 20.1755ZM1.58867 18.6841L0.589512 18.6432L1.58867 18.6841ZM1.48081 17.9341L0.530793 18.2463L1.48081 17.9341ZM1.23434 17.1841L0.284324 17.4963L1.23434 17.1841ZM1.1378 16.4341L0.140329 16.3631L1.1378 16.4341ZM1.04715 14.1841L0.058476 14.3342L1.04715 14.1841ZM1.14915 13.4341L2.06989 13.8243L1.14915 13.4341ZM1.46696 12.6841L2.3877 13.0743L1.46696 12.6841ZM1.46983 11.9341L2.3931 11.55L1.46983 11.9341ZM1.15776 11.1841L0.234496 11.5683L1.15776 11.1841ZM1.12361 10.4387L0.173694 10.1262L1.12361 10.4387ZM1.36735 9.69784L0.41744 9.38532L1.36735 9.69784ZM1.68735 9.02848L0.853816 8.47601L1.68735 9.02848ZM2.0836 8.43063L1.25007 7.87816L2.0836 8.43063ZM2.54795 7.85595L3.26739 8.5505L2.54795 7.85595ZM3.08038 7.30443L2.36093 6.60988L3.08038 7.30443ZM3.66338 6.82769L3.12765 5.9833L3.66338 6.82769ZM4.29694 6.42572L3.76122 5.58133L4.29694 6.42572ZM4.92074 6.00931L4.34634 5.19073L4.92074 6.00931ZM5.22775 5.79388L5.80214 6.61246L5.22775 5.79388ZM5.53476 5.57845L4.96037 4.75987L5.53476 5.57845ZM8.34202 4.37427L7.70861 3.60045L8.34202 4.37427ZM8.96906 3.96266L8.51074 3.07388L8.96906 3.96266ZM9.30471 3.78957L9.76304 4.67836L9.30471 3.78957ZM9.64036 3.61649L9.18203 2.7277L9.64036 3.61649ZM10.2817 3.22601L10.8613 4.04093L10.2817 3.22601ZM10.8931 2.79121L10.3135 1.97628L10.8931 2.79121ZM11.5699 2.34201L12.0996 3.19016L11.5699 2.34201ZM12.3122 1.87839L11.7824 1.03023L12.3122 1.87839ZM12.8936 2.05144L12.0062 2.51239L12.8936 2.05144ZM13.3142 2.86117L14.2016 2.40022L13.3142 2.86117ZM14.1201 3.7241L13.5105 4.5168L14.1201 3.7241ZM15.1229 4.24945L15.286 3.26284L15.1229 4.24945ZM16.6392 4.68503L16.0178 5.46854L16.6392 4.68503ZM16.9338 4.91872L16.3125 5.70223L16.9338 4.91872ZM17.2285 5.1524L17.8499 4.36889L17.2285 5.1524ZM17.8193 5.61759L17.2034 6.40543L17.8193 5.61759ZM18.4116 6.08061L19.0275 5.29277L18.4116 6.08061ZM19.031 6.50354L19.5405 5.6431L19.031 6.50354ZM19.6775 6.88639L20.187 6.02595L19.6775 6.88639ZM20.3283 7.26274L20.8199 6.39189L20.3283 7.26274ZM20.656 7.44767L20.1644 8.31853L20.656 7.44767ZM20.9836 7.6326L20.4921 8.50346L20.9836 7.6326ZM21.5331 8.12514L20.7219 8.71L21.5331 8.12514ZM21.9767 8.74037L21.1655 9.32523L21.9767 8.74037ZM22.2426 9.17027L23.1832 8.83081L22.2426 9.17027ZM22.3309 9.41486L21.3902 9.75431L22.3309 9.41486ZM22.2408 9.91215L21.2993 9.5752L22.2408 9.91215ZM8.375 23.0518L9.375 23.0518L9.375 22.9518L8.375 22.9518L7.375 22.9517L7.375 23.0518L8.375 23.0518ZM8.375 22.9518L9.30174 22.5761L9.01797 21.8761L8.09122 22.2518L7.16448 22.6275L7.44826 23.3275L8.375 22.9518ZM8.09122 22.2518L9.01797 21.8761C8.93758 21.6778 8.89169 21.5283 8.86863 21.4216C8.84436 21.3094 8.85365 21.2822 8.84953 21.3123L7.85876 21.1768L6.86799 21.0412C6.79632 21.5649 6.96301 22.1305 7.16448 22.6275L8.09122 22.2518ZM7.85876 21.1768L8.84953 21.3123L8.90084 20.9373L7.91007 20.8018L6.9193 20.6662L6.86799 21.0412L7.85876 21.1768ZM7.91007 20.8018L8.90084 20.9373L8.95215 20.5623L7.96138 20.4268L6.97062 20.2912L6.9193 20.6662L7.91007 20.8018ZM7.96138 20.4268L8.95215 20.5623C8.9825 20.3405 9.02257 20.1181 9.07246 19.895L8.09658 19.6768L7.12069 19.4585C7.05875 19.7354 7.00868 20.013 6.97062 20.2912L7.96138 20.4268ZM8.09658 19.6768L9.07246 19.895L9.15634 19.52L8.18046 19.3018L7.20458 19.0835L7.12069 19.4585L8.09658 19.6768ZM8.18046 19.3018L9.15634 19.52L9.24022 19.145L8.26434 18.9268L7.28846 18.7085L7.20458 19.0835L8.18046 19.3018ZM8.26434 18.9268L9.24022 19.145C9.28839 18.9297 9.3489 18.713 9.42209 18.4948L8.474 18.1768L7.52591 17.8588C7.4314 18.1405 7.35213 18.4238 7.28846 18.7085L8.26434 18.9268ZM8.474 18.1768L9.42209 18.4948L9.54787 18.1198L8.59977 17.8018L7.65168 17.4838L7.52591 17.8588L8.474 18.1768ZM8.59977 17.8018L9.54787 18.1198L9.67364 17.7448L8.72555 17.4268L7.77746 17.1088L7.65168 17.4838L8.59977 17.8018ZM8.72555 17.4268L9.67364 17.7448C9.86432 17.1763 9.75902 16.6175 9.46615 16.1477L8.61755 16.6768L7.76895 17.2058C7.78561 17.2325 7.77642 17.2275 7.77165 17.1943C7.76937 17.1785 7.76887 17.1612 7.77052 17.144C7.77214 17.127 7.77541 17.1149 7.77746 17.1088L8.72555 17.4268ZM8.61755 16.6768L9.46615 16.1477L9.23237 15.7727L8.38377 16.3018L7.53516 16.8308L7.76895 17.2058L8.61755 16.6768ZM8.38377 16.3018L9.23237 15.7727L8.99858 15.3977L8.14998 15.9268L7.30138 16.4558L7.53516 16.8308L8.38377 16.3018ZM8.14998 15.9268L8.99858 15.3977C8.99325 15.3892 8.99265 15.3865 8.99375 15.3894C8.99494 15.3926 8.99669 15.3987 8.9977 15.4063C8.99872 15.414 8.99847 15.4192 8.99835 15.4205C8.99825 15.4216 8.99859 15.4161 9.0024 15.4032L8.04312 15.1207L7.08385 14.8383C6.92013 15.3942 6.9916 15.9589 7.30138 16.4558L8.14998 15.9268ZM8.04312 15.1207L9.0024 15.4032L9.12932 14.9722L8.17005 14.6897L7.21077 14.4072L7.08385 14.8383L8.04312 15.1207ZM8.17005 14.6897L9.12932 14.9722L9.25624 14.5412L8.29697 14.2587L7.33769 13.9762L7.21077 14.4072L8.17005 14.6897ZM8.29697 14.2587L9.25624 14.5412C9.25598 14.5421 9.22999 14.6253 9.12967 14.7068C9.02582 14.7911 8.92688 14.8049 8.90067 14.8061L8.85316 13.8073L8.80565 12.8084C8.49326 12.8232 8.15853 12.9191 7.86928 13.1539C7.58357 13.3858 7.42257 13.688 7.33769 13.9762L8.29697 14.2587ZM8.85316 13.8073L8.90067 14.8061L9.32994 14.7857L9.28243 13.7868L9.23492 12.788L8.80565 12.8084L8.85316 13.8073ZM9.28243 13.7868L9.32994 14.7857L9.75922 14.7653L9.71171 13.7664L9.6642 12.7676L9.23492 12.788L9.28243 13.7868ZM9.71171 13.7664L9.75922 14.7653C10.0975 14.7492 10.4246 14.707 10.7383 14.6355L10.516 13.6605L10.2936 12.6855C10.1073 12.728 9.89826 12.7564 9.6642 12.7676L9.71171 13.7664ZM10.516 13.6605L10.7383 14.6355L11.1133 14.5499L10.891 13.575L10.6686 12.6L10.2936 12.6855L10.516 13.6605ZM10.891 13.575L11.1133 14.5499L11.4883 14.4644L11.266 13.4895L11.0436 12.5145L10.6686 12.6L10.891 13.575ZM11.266 13.4895L11.4883 14.4644C11.5504 14.4503 11.6106 14.4512 11.6899 14.4786L12.016 13.5333L12.342 12.5879C11.9214 12.4428 11.4815 12.4146 11.0436 12.5145L11.266 13.4895ZM12.016 13.5333L11.6899 14.4786L12.0649 14.608L12.391 13.6626L12.717 12.7172L12.342 12.5879L12.016 13.5333ZM12.391 13.6626L12.0649 14.608L12.4399 14.7373L12.766 13.7919L13.092 12.8466L12.717 12.7172L12.391 13.6626ZM12.766 13.7919L12.4399 14.7373C12.7727 14.8521 13.1138 14.921 13.4601 14.9343L13.4985 13.935L13.5369 12.9357C13.4066 12.9307 13.2593 12.9043 13.092 12.8466L12.766 13.7919ZM13.4985 13.935L13.4601 14.9343L13.8177 14.948L13.8561 13.9487L13.8945 12.9495L13.5369 12.9357L13.4985 13.935ZM13.8561 13.9487L13.8177 14.948L14.1752 14.9617L14.2136 13.9625L14.252 12.9632L13.8945 12.9495L13.8561 13.9487ZM14.2136 13.9625L14.1752 14.9617C14.167 14.9614 14.125 14.9576 14.0698 14.9289C14.0132 14.8994 13.9775 14.8617 13.9612 14.8391L14.7714 14.2531L15.5817 13.6671C15.2585 13.2201 14.7807 12.9835 14.252 12.9632L14.2136 13.9625ZM14.7714 14.2531L13.9612 14.8391L14.1614 15.116L14.9717 14.53L15.782 13.9439L15.5817 13.6671L14.7714 14.2531ZM14.9717 14.53L14.1614 15.116L14.3617 15.3929L15.1719 14.8068L15.9822 14.2208L15.782 13.9439L14.9717 14.53ZM15.1719 14.8068L14.3617 15.3929C14.4208 15.4747 14.4793 15.5877 14.5267 15.7459L15.4846 15.4587L16.4425 15.1715C16.34 14.8297 16.1901 14.5082 15.9822 14.2208L15.1719 14.8068ZM15.4846 15.4587L14.5267 15.7459L14.6392 16.1209L15.597 15.8337L16.5549 15.5465L16.4425 15.1715L15.4846 15.4587ZM15.597 15.8337L14.6392 16.1209L14.7516 16.4959L15.7095 16.2087L16.6673 15.9215L16.5549 15.5465L15.597 15.8337ZM15.7095 16.2087L14.7516 16.4959C14.7986 16.6526 14.8188 16.8012 14.8168 16.9448L15.8167 16.9587L16.8166 16.9726C16.8215 16.6163 16.7703 16.2649 16.6673 15.9215L15.7095 16.2087ZM15.8167 16.9587L14.8168 16.9448L14.8116 17.3198L15.8115 17.3337L16.8114 17.3476L16.8166 16.9726L15.8167 16.9587ZM15.8115 17.3337L14.8116 17.3198L14.8064 17.6948L15.8063 17.7087L16.8062 17.7226L16.8114 17.3476L15.8115 17.3337ZM15.8063 17.7087L14.8064 17.6948C14.8057 17.7465 14.7915 17.8292 14.7185 17.9539L15.5818 18.4587L16.445 18.9635C16.6645 18.5883 16.8 18.171 16.8062 17.7226L15.8063 17.7087ZM15.5818 18.4587L14.7185 17.9539L14.4993 18.3289L15.3625 18.8337L16.2257 19.3385L16.445 18.9635L15.5818 18.4587ZM15.3625 18.8337L14.4993 18.3289L14.28 18.7039L15.1432 19.2087L16.0064 19.7135L16.2257 19.3385L15.3625 18.8337ZM15.1432 19.2087L14.28 18.7039C13.9629 19.2461 13.9407 19.8658 14.2427 20.4303L15.1245 19.9587L16.0063 19.4871C16.0099 19.4939 16.0303 19.5387 16.0286 19.6087C16.0268 19.6776 16.005 19.7159 16.0064 19.7135L15.1432 19.2087ZM15.1245 19.9587L14.2427 20.4303L14.4432 20.8053L15.325 20.3337L16.2068 19.8621L16.0063 19.4871L15.1245 19.9587ZM15.325 20.3337L14.4432 20.8053L14.6438 21.1803L15.5256 20.7087L16.4074 20.2371L16.2068 19.8621L15.325 20.3337ZM15.5256 20.7087L14.6438 21.1803C14.6539 21.1993 14.6458 21.1912 14.6435 21.1614C14.6424 21.1477 14.643 21.1342 14.6448 21.1224C14.6457 21.1167 14.6467 21.1122 14.6475 21.109C14.6484 21.1058 14.649 21.1042 14.6489 21.1043L15.584 21.4587L16.5191 21.8131C16.7231 21.275 16.668 20.7243 16.4074 20.2371L15.5256 20.7087ZM15.584 21.4587L14.6489 21.1043L14.5068 21.4793L15.4419 21.8337L16.377 22.1881L16.5191 21.8131L15.584 21.4587ZM15.4419 21.8337L14.5068 21.4793L14.3647 21.8543L15.2998 22.2087L16.2349 22.5631L16.377 22.1881L15.4419 21.8337ZM15.2998 22.2087L14.3647 21.8543C14.3068 22.007 14.2523 22.1754 14.2223 22.3436C14.2001 22.4679 14.1508 22.7898 14.305 23.1219L15.212 22.7007L16.119 22.2796C16.1854 22.4226 16.1951 22.5433 16.1967 22.5974C16.1984 22.6557 16.1918 22.6917 16.1912 22.6949C16.1905 22.699 16.198 22.6604 16.2349 22.5631L15.2998 22.2087ZM15.212 22.7007L14.305 23.1219L14.3593 23.2389L15.2663 22.8177L16.1733 22.3966L16.119 22.2796L15.212 22.7007ZM15.2663 22.8177L14.4896 23.4475L14.5982 23.5816L15.375 22.9518L16.1518 22.322L16.0431 22.1879L15.2663 22.8177ZM15.375 22.9518L14.375 22.9518L14.375 23.0518L15.375 23.0518L16.375 23.0518L16.375 22.9517L15.375 22.9518ZM22.1066 10.2872L21.1651 9.9502L21.0309 10.3252L21.9724 10.6622L22.9139 10.9991L23.0481 10.6241L22.1066 10.2872ZM21.9724 10.6622L21.0309 10.3252C20.8563 10.8129 20.8726 11.3186 21.0679 11.7929L21.9926 11.4122L22.9173 11.0314C22.9125 11.0198 22.9107 11.0129 22.9102 11.0104C22.9097 11.008 22.9099 11.0082 22.91 11.0102C22.91 11.0122 22.9098 11.0134 22.9099 11.0129C22.91 11.0123 22.9108 11.0079 22.9139 10.9991L21.9724 10.6622ZM21.9926 11.4122L21.0679 11.7929L21.2223 12.1679L22.147 11.7872L23.0717 11.4064L22.9173 11.0314L21.9926 11.4122ZM22.147 11.7872L21.2223 12.1679L21.3767 12.5429L22.3014 12.1622L23.2261 11.7814L23.0717 11.4064L22.147 11.7872ZM22.3014 12.1622L21.3767 12.5429C21.3787 12.5478 21.38 12.5514 21.3807 12.5537C21.3814 12.556 21.3817 12.5572 21.3817 12.5573C21.3817 12.5573 21.3815 12.5566 21.3814 12.5552C21.3812 12.5537 21.3811 12.5519 21.3811 12.5499C21.381 12.5454 21.3815 12.5422 21.3817 12.541C21.3818 12.5401 21.3813 12.5435 21.3781 12.5518L22.3109 12.9122L23.2438 13.2725C23.4335 12.7812 23.4256 12.266 23.2261 11.7814L22.3014 12.1622ZM22.3109 12.9122L21.3781 12.5518L21.2333 12.9268L22.1661 13.2872L23.0989 13.6475L23.2438 13.2725L22.3109 12.9122ZM22.1661 13.2872L21.2333 12.9268L21.0884 13.3018L22.0212 13.6622L22.954 14.0225L23.0989 13.6475L22.1661 13.2872ZM22.0212 13.6622L21.0884 13.3018C20.9041 13.7788 20.9001 14.2813 21.0792 14.7616L22.0162 14.4122L22.9532 14.0627C22.9493 14.0525 22.9481 14.0465 22.9477 14.0445C22.9474 14.0426 22.9475 14.0427 22.9475 14.0438C22.9475 14.045 22.9474 14.0448 22.9478 14.0425C22.9483 14.04 22.9498 14.0335 22.954 14.0225L22.0212 13.6622ZM22.0162 14.4122L21.0792 14.7616L21.2191 15.1366L22.1561 14.7872L23.093 14.4377L22.9532 14.0627L22.0162 14.4122ZM22.1561 14.7872L21.2191 15.1366L21.359 15.5116L22.2959 15.1622L23.2329 14.8127L23.093 14.4377L22.1561 14.7872ZM22.2959 15.1622L21.359 15.5116C21.362 15.5198 21.3626 15.5234 21.3625 15.5229C21.3624 15.5222 21.362 15.5196 21.3621 15.516C21.3622 15.5124 21.3626 15.5106 21.3624 15.5114C21.3622 15.5124 21.3609 15.518 21.3565 15.5286L22.28 15.9122L23.2035 16.2957C23.4029 15.8157 23.416 15.3038 23.2329 14.8127L22.2959 15.1622ZM22.28 15.9122L21.3565 15.5286L21.2008 15.9036L22.1243 16.2872L23.0478 16.6707L23.2035 16.2957L22.28 15.9122ZM22.1243 16.2872L21.2008 15.9036L21.045 16.2786L21.9685 16.6622L22.8921 17.0457L23.0478 16.6707L22.1243 16.2872ZM21.9685 16.6622L21.045 16.2786C20.8061 16.8538 20.8868 17.4407 21.193 17.9372L22.0441 17.4122L22.8952 16.8871C22.8842 16.8693 22.8996 16.8878 22.9045 16.9369C22.9069 16.9602 22.9061 16.9836 22.9027 17.005C22.8994 17.0261 22.8944 17.04 22.8921 17.0457L21.9685 16.6622ZM22.0441 17.4122L21.193 17.9372L21.4244 18.3122L22.2755 17.7872L23.1265 17.2621L22.8952 16.8871L22.0441 17.4122ZM22.2755 17.7872L21.4244 18.3122L21.6557 18.6872L22.5068 18.1622L23.3579 17.6371L23.1265 17.2621L22.2755 17.7872ZM22.5068 18.1622L21.6557 18.6872C21.7482 18.8372 21.7851 18.955 21.7971 19.0448L22.7883 18.9122L23.7795 18.7795C23.7246 18.3693 23.5738 17.9871 23.3579 17.6371L22.5068 18.1622ZM22.7883 18.9122L21.7971 19.0448L21.8473 19.4198L22.8385 19.2872L23.8296 19.1545L23.7795 18.7795L22.7883 18.9122ZM22.8385 19.2872L21.8473 19.4198L21.8975 19.7948L22.8887 19.6622L23.8798 19.5295L23.8296 19.1545L22.8385 19.2872ZM22.8887 19.6622L21.8975 19.7948C21.8963 19.786 21.8957 19.7736 21.897 19.759C21.8983 19.7444 21.9012 19.7317 21.9042 19.7223C21.9105 19.7028 21.913 19.7102 21.8856 19.7435L22.6579 20.3787L23.4303 21.0139C23.7614 20.6113 23.9564 20.1017 23.8798 19.5295L22.8887 19.6622ZM22.6579 20.3787L21.8856 19.7435L21.6047 20.085L22.377 20.7202L23.1493 21.3555L23.4303 21.0139L22.6579 20.3787ZM22.377 20.7202L21.6047 20.085L21.3238 20.4266L22.0961 21.0618L22.8684 21.697L23.1493 21.3555L22.377 20.7202ZM22.0961 21.0618L21.3238 20.4266C21.1364 20.6544 20.986 20.8373 20.8727 20.9754L21.6456 21.6099L22.4186 22.2443C22.5313 22.107 22.6812 21.9246 22.8684 21.697L22.0961 21.0618ZM21.6456 21.6099L20.8727 20.9754L20.7032 21.1819L21.4761 21.8164L22.2491 22.4509L22.4186 22.2443L21.6456 21.6099ZM21.4761 21.8164L20.7032 21.1819L20.5336 21.3885L21.3066 22.0229L22.0795 22.6574L22.2491 22.4509L21.4761 21.8164ZM21.3066 22.0229L20.5336 21.3885C20.547 21.3722 20.5654 21.3557 20.586 21.3431C20.6059 21.3309 20.6176 21.3284 20.6134 21.3295L20.8555 22.2997L21.0977 23.27C21.4748 23.1758 21.8183 22.9756 22.0795 22.6574L21.3066 22.0229ZM20.8555 22.2997L20.6134 21.3295L20.3319 21.3997L20.574 22.37L20.8162 23.3402L21.0977 23.27L20.8555 22.2997ZM20.574 22.37L20.3319 21.3997L20.0504 21.47L20.2925 22.4402L20.5346 23.4105L20.8162 23.3402L20.574 22.37ZM20.2925 22.4402L20.0504 21.47C19.7686 21.5403 19.4788 21.6584 19.1897 21.8026L19.636 22.6975L20.0823 23.5924C20.2932 23.4872 20.4411 23.4338 20.5346 23.4105L20.2925 22.4402ZM19.636 22.6975L19.1897 21.8026L18.8147 21.9896L19.261 22.8845L19.7073 23.7794L20.0823 23.5924L19.636 22.6975ZM19.261 22.8845L18.8147 21.9896L18.4397 22.1766L18.886 23.0715L19.3323 23.9664L19.7073 23.7794L19.261 22.8845ZM18.886 23.0715L18.4397 22.1766C18.4235 22.1847 18.4125 22.1886 18.4065 22.1905C18.4007 22.1922 18.3986 22.1923 18.3997 22.1922C18.4009 22.1921 18.4028 22.192 18.4046 22.1922C18.4063 22.1923 18.4053 22.1924 18.4009 22.1912L18.136 23.1555L17.8711 24.1197C18.3779 24.259 18.8804 24.1917 19.3323 23.9664L18.886 23.0715ZM18.136 23.1555L18.4009 22.1912L18.0259 22.0882L17.761 23.0525L17.4961 24.0167L17.8711 24.1197L18.136 23.1555ZM17.761 23.0525L18.0259 22.0882L17.6509 21.9852L17.386 22.9494L17.1211 23.9137L17.4961 24.0167L17.761 23.0525ZM17.386 22.9494L17.6509 21.9852C17.1983 21.8608 16.7387 21.8819 16.3004 22.038L16.636 22.98L16.9716 23.922C17.0333 23.9 17.0737 23.9007 17.1211 23.9137L17.386 22.9494ZM16.636 22.98L16.3004 22.038L15.9254 22.1716L16.261 23.1136L16.5966 24.0556L16.9716 23.922L16.636 22.98ZM16.261 23.1136L15.9254 22.1716L15.5504 22.3052L15.886 23.2472L16.2216 24.1892L16.5966 24.0556L16.261 23.1136ZM15.886 23.2472L15.5504 22.3052C15.4794 22.3305 15.4296 22.3305 15.3763 22.3173L15.136 23.288L14.8957 24.2587C15.3424 24.3693 15.7926 24.3421 16.2216 24.1892L15.886 23.2472ZM15.136 23.288L15.3763 22.3173L15.0013 22.2244L14.761 23.1951L14.5207 24.1658L14.8957 24.2587L15.136 23.288ZM14.761 23.1951L15.0013 22.2244L14.6263 22.1316L14.386 23.1023L14.1457 24.073L14.5207 24.1658L14.761 23.1951ZM14.386 23.1023L14.6263 22.1316C14.296 22.0498 13.9609 22.01 13.6231 22.0144L13.636 23.0143L13.6489 24.0142C13.8111 24.0121 13.976 24.0309 14.1457 24.073L14.386 23.1023ZM13.636 23.0143L13.6231 22.0144L13.2481 22.0192L13.261 23.0191L13.2739 24.019L13.6489 24.0142L13.636 23.0143ZM13.261 23.0191L13.2481 22.0192L12.8731 22.0241L12.886 23.024L12.8989 24.0239L13.2739 24.019L13.261 23.0191ZM12.886 23.024L12.8731 22.0241C12.6629 22.0268 12.4526 22.017 12.2418 21.9945L12.136 22.9889L12.0302 23.9833C12.3194 24.0141 12.6091 24.0276 12.8989 24.0239L12.886 23.024ZM12.136 22.9889L12.2418 21.9945L11.8668 21.9546L11.761 22.949L11.6552 23.9434L12.0302 23.9833L12.136 22.9889ZM11.761 22.949L11.8668 21.9546L11.4918 21.9147L11.386 22.9091L11.2802 23.9035L11.6552 23.9434L11.761 22.949ZM11.386 22.9091L11.4918 21.9147C11.1855 21.8821 10.8787 21.8757 10.5718 21.8954L10.636 22.8933L10.7002 23.8913C10.8933 23.8788 11.0864 23.8829 11.2802 23.9035L11.386 22.9091ZM10.636 22.8933L10.5718 21.8954L10.1968 21.9195L10.261 22.9174L10.3252 23.9154L10.7002 23.8913L10.636 22.8933ZM10.261 22.9174L10.1968 21.9195L9.82181 21.9436L9.886 22.9416L9.95019 23.9395L10.3252 23.9154L10.261 22.9174ZM9.886 22.9416L9.82181 21.9436C9.56041 21.9604 9.29906 21.9818 9.03777 22.0075L9.136 23.0027L9.23423 23.9979C9.47293 23.9743 9.71158 23.9549 9.95019 23.9395L9.886 22.9416ZM9.136 23.0027L9.03777 22.0075L8.66276 22.0446L8.761 23.0397L8.85923 24.0349L9.23423 23.9979L9.136 23.0027ZM8.761 23.0397L8.66276 22.0446L8.28776 22.0816L8.386 23.0767L8.48423 24.0719L8.85923 24.0349L8.761 23.0397ZM8.386 23.0767L8.28776 22.0816C8.08494 22.1016 7.88256 22.1071 7.68029 22.0981L7.636 23.0971L7.59171 24.0962C7.88943 24.1094 8.18706 24.1012 8.48423 24.0719L8.386 23.0767ZM7.636 23.0971L7.68029 22.0981L7.30529 22.0815L7.261 23.0805L7.21671 24.0795L7.59171 24.0962L7.636 23.0971ZM7.261 23.0805L7.30529 22.0815L6.93029 22.0649L6.886 23.0639L6.84171 24.0629L7.21671 24.0795L7.261 23.0805ZM6.886 23.0639L6.93029 22.0649C6.53177 22.0472 6.14361 22.1172 5.77361 22.261L6.136 23.1931L6.49838 24.1251C6.62839 24.0745 6.74022 24.0584 6.84171 24.0629L6.886 23.0639ZM6.136 23.1931L5.77361 22.261L5.39861 22.4068L5.761 23.3389L6.12338 24.2709L6.49838 24.1251L6.136 23.1931ZM5.761 23.3389L5.39861 22.4068L5.02361 22.5526L5.386 23.4847L5.74838 24.4167L6.12338 24.2709L5.761 23.3389ZM5.386 23.4847L5.02361 22.5526C5.01899 22.5544 5.01994 22.5536 5.02583 22.5526C5.0319 22.5515 5.04007 22.5508 5.04919 22.5511C5.05826 22.5515 5.06474 22.5528 5.06762 22.5535C5.07027 22.5542 5.06714 22.5537 5.05783 22.5493L4.636 23.456L4.21416 24.3627C4.70342 24.5903 5.23655 24.6157 5.74838 24.4167L5.386 23.4847ZM4.636 23.456L5.05783 22.5493L4.68283 22.3749L4.261 23.2815L3.83916 24.1882L4.21416 24.3627L4.636 23.456ZM4.261 23.2815L4.68283 22.3749L4.30783 22.2004L3.886 23.1071L3.46416 24.0137L3.83916 24.1882L4.261 23.2815ZM3.886 23.1071L4.30783 22.2004C4.03706 22.0744 3.77773 21.9654 3.5307 21.875L3.18718 22.8142L2.84367 23.7533C3.02839 23.8209 3.23493 23.9071 3.46416 24.0137L3.886 23.1071ZM3.18718 22.8142L3.5307 21.875L3.20689 21.7566L2.86337 22.6957L2.51986 23.6349L2.84367 23.7533L3.18718 22.8142ZM2.86337 22.6957L3.20689 21.7566L2.88307 21.6381L2.53956 22.5773L2.19605 23.5164L2.51986 23.6349L2.86337 22.6957ZM2.53956 22.5773L2.88307 21.6381C2.88087 21.6373 2.90017 21.6444 2.92608 21.6675C2.95274 21.6912 2.96867 21.7161 2.97557 21.7305L2.07381 22.1627L1.17205 22.595C1.38558 23.0404 1.74866 23.3528 2.19605 23.5164L2.53956 22.5773ZM2.07381 22.1627L2.97557 21.7305L2.83363 21.4344L1.93187 21.8666L1.03011 22.2988L1.17205 22.595L2.07381 22.1627ZM1.93187 21.8666L2.83363 21.4344L2.69169 21.1382L1.78993 21.5705L0.888176 22.0027L1.03011 22.2988L1.93187 21.8666ZM1.78993 21.5705L2.69169 21.1382C2.65733 21.0665 2.62869 20.9702 2.61906 20.8363L1.62164 20.9081L0.624217 20.9798C0.649729 21.3344 0.733294 21.6796 0.888176 22.0027L1.78993 21.5705ZM1.62164 20.9081L2.61906 20.8363L2.5927 20.47L1.59528 20.5418L0.597858 20.6135L0.624217 20.9798L1.62164 20.9081ZM1.59528 20.5418L2.5927 20.47L2.56634 20.1037L1.56892 20.1755L0.571498 20.2472L0.597858 20.6135L1.59528 20.5418ZM1.56892 20.1755L2.56634 20.1037C2.55153 19.8978 2.54835 19.6883 2.55709 19.4751L1.55793 19.4341L0.55877 19.3932C0.547016 19.6799 0.551168 19.9647 0.571498 20.2472L1.56892 20.1755ZM1.55793 19.4341L2.55709 19.4751L2.57246 19.1001L1.5733 19.0591L0.574141 19.0182L0.55877 19.3932L1.55793 19.4341ZM1.5733 19.0591L2.57246 19.1001L2.58783 18.7251L1.58867 18.6841L0.589512 18.6432L0.574141 19.0182L1.5733 19.0591ZM1.58867 18.6841L2.58783 18.7251C2.60324 18.3493 2.54843 17.9798 2.43083 17.6219L1.48081 17.9341L0.530793 18.2463C0.577501 18.3885 0.594602 18.519 0.589512 18.6432L1.58867 18.6841ZM1.48081 17.9341L2.43083 17.6219L2.30759 17.2469L1.35758 17.5591L0.407559 17.8713L0.530793 18.2463L1.48081 17.9341ZM1.35758 17.5591L2.30759 17.2469L2.18436 16.8719L1.23434 17.1841L0.284324 17.4963L0.407559 17.8713L1.35758 17.5591ZM1.23434 17.1841L2.18436 16.8719C2.14071 16.7391 2.12717 16.6191 2.13528 16.5052L1.1378 16.4341L0.140329 16.3631C0.112847 16.7492 0.163662 17.1292 0.284324 17.4963L1.23434 17.1841ZM1.1378 16.4341L2.13528 16.5052L2.16198 16.1302L1.1645 16.0591L0.167025 15.9881L0.140329 16.3631L1.1378 16.4341ZM1.1645 16.0591L2.16198 16.1302L2.18867 15.7552L1.1912 15.6841L0.193722 15.6131L0.167025 15.9881L1.1645 16.0591ZM1.1912 15.6841L2.18867 15.7552C2.21177 15.4307 2.1986 15.1066 2.14966 14.7841L1.16098 14.9341L0.172303 15.0842C0.199245 15.2617 0.20622 15.4376 0.193722 15.6131L1.1912 15.6841ZM1.16098 14.9341L2.14966 14.7841L2.09275 14.4091L1.10407 14.5591L0.115389 14.7092L0.172303 15.0842L1.16098 14.9341ZM1.10407 14.5591L2.09275 14.4091L2.03583 14.0341L1.04715 14.1841L0.058476 14.3342L0.115389 14.7092L1.10407 14.5591ZM1.04715 14.1841L2.03583 14.0341C2.0277 13.9805 2.03059 13.9171 2.06989 13.8243L1.14915 13.4341L0.2284 13.044C0.0558281 13.4512 -0.00927866 13.8878 0.058476 14.3342L1.04715 14.1841ZM1.14915 13.4341L2.06989 13.8243L2.2288 13.4493L1.30805 13.0591L0.387304 12.669L0.2284 13.044L1.14915 13.4341ZM1.30805 13.0591L2.2288 13.4493L2.3877 13.0743L1.46696 12.6841L0.546209 12.294L0.387304 12.669L1.30805 13.0591ZM1.46696 12.6841L2.3877 13.0743C2.5981 12.5778 2.60061 12.0487 2.3931 11.55L1.46983 11.9341L0.54656 12.3183C0.549563 12.3255 0.549485 12.3271 0.548751 12.3235C0.547978 12.3198 0.547102 12.3134 0.547133 12.3053C0.547164 12.2973 0.548087 12.291 0.548822 12.2876C0.549516 12.2843 0.549463 12.2863 0.546209 12.294L1.46696 12.6841ZM1.46983 11.9341L2.3931 11.55L2.23706 11.175L1.3138 11.5591L0.390529 11.9433L0.54656 12.3183L1.46983 11.9341ZM1.3138 11.5591L2.23706 11.175L2.08103 10.8L1.15776 11.1841L0.234496 11.5683L0.390529 11.9433L1.3138 11.5591ZM1.15776 11.1841L2.08103 10.8C2.07516 10.7859 2.07252 10.7764 2.07135 10.7714C2.07075 10.7688 2.07046 10.767 2.07032 10.766C2.07019 10.7651 2.07016 10.7646 2.07016 10.7645C2.07016 10.7644 2.07016 10.7645 2.07016 10.7646C2.07015 10.7646 2.07016 10.7644 2.07024 10.7638C2.07038 10.7629 2.07101 10.7588 2.07352 10.7512L1.12361 10.4387L0.173694 10.1262C0.0141356 10.6112 0.0424848 11.1068 0.234496 11.5683L1.15776 11.1841ZM1.12361 10.4387L2.07352 10.7512L2.19539 10.3808L1.24548 10.0683L0.295567 9.75575L0.173694 10.1262L1.12361 10.4387ZM1.24548 10.0683L2.19539 10.3808L2.31726 10.0104L1.36735 9.69784L0.41744 9.38532L0.295567 9.75575L1.24548 10.0683ZM1.36735 9.69784L2.31726 10.0104C2.37302 9.84087 2.44223 9.69961 2.52089 9.58094L1.68735 9.02848L0.853816 8.47601C0.668301 8.75591 0.524176 9.06089 0.41744 9.38532L1.36735 9.69784ZM1.68735 9.02848L2.52089 9.58094L2.71901 9.28202L1.88548 8.72955L1.05194 8.17709L0.853816 8.47601L1.68735 9.02848ZM1.88548 8.72955L2.71901 9.28202L2.91714 8.98309L2.0836 8.43063L1.25007 7.87816L1.05194 8.17709L1.88548 8.72955ZM2.0836 8.43063L2.91714 8.98309C3.01338 8.83788 3.12931 8.69352 3.26739 8.5505L2.54795 7.85595L1.8285 7.16139C1.61163 7.38604 1.41799 7.6248 1.25007 7.87816L2.0836 8.43063ZM2.54795 7.85595L3.26739 8.5505L3.53361 8.27474L2.81416 7.58019L2.09472 6.88564L1.8285 7.16139L2.54795 7.85595ZM2.81416 7.58019L3.53361 8.27474L3.79982 7.99898L3.08038 7.30443L2.36093 6.60988L2.09472 6.88564L2.81416 7.58019ZM3.08038 7.30443L3.79982 7.99898C3.92342 7.87096 4.05632 7.76267 4.1991 7.67208L3.66338 6.82769L3.12765 5.9833C2.84805 6.16069 2.59229 6.37023 2.36093 6.60988L3.08038 7.30443ZM3.66338 6.82769L4.1991 7.67208L4.51588 7.4711L3.98016 6.62671L3.44443 5.78232L3.12765 5.9833L3.66338 6.82769ZM3.98016 6.62671L4.51588 7.4711L4.83267 7.27012L4.29694 6.42572L3.76122 5.58133L3.44443 5.78232L3.98016 6.62671ZM4.29694 6.42572L4.83267 7.27012C5.05694 7.12783 5.27776 6.98042 5.49513 6.82789L4.92074 6.00931L4.34634 5.19073C4.15436 5.32545 3.95932 5.45564 3.76122 5.58133L4.29694 6.42572ZM4.92074 6.00931L5.49513 6.82789L5.80214 6.61246L5.22775 5.79388L4.65336 4.9753L4.34634 5.19073L4.92074 6.00931ZM5.22775 5.79388L5.80214 6.61246L6.10916 6.39703L5.53476 5.57845L4.96037 4.75987L4.65336 4.9753L5.22775 5.79388ZM5.53476 5.57845L6.10916 6.39703C6.18011 6.34724 6.27524 6.30421 6.41397 6.28091L6.24829 5.29473L6.08261 4.30855C5.67932 4.3763 5.29876 4.52242 4.96037 4.75987L5.53476 5.57845ZM6.24829 5.29473L6.41397 6.28091L6.82049 6.21261L6.6548 5.22643L6.48912 4.24025L6.08261 4.30855L6.24829 5.29473ZM6.6548 5.22643L6.82049 6.21261L7.227 6.14431L7.06132 5.15813L6.89564 4.17196L6.48912 4.24025L6.6548 5.22643ZM7.06132 5.15813L7.227 6.14431C7.65304 6.07274 8.05109 5.90471 8.39264 5.62513L7.75923 4.85132L7.12582 4.0775C7.07884 4.11595 7.01161 4.15247 6.89564 4.17196L7.06132 5.15813ZM7.75923 4.85132L8.39264 5.62513L8.68403 5.38661L8.05062 4.61279L7.41721 3.83898L7.12582 4.0775L7.75923 4.85132ZM8.05062 4.61279L8.68403 5.38661L8.97543 5.14809L8.34202 4.37427L7.70861 3.60045L7.41721 3.83898L8.05062 4.61279ZM8.34202 4.37427L8.97543 5.14809C9.11536 5.03355 9.26567 4.93484 9.42739 4.85144L8.96906 3.96266L8.51074 3.07388C8.22493 3.22126 7.95721 3.39697 7.70861 3.60045L8.34202 4.37427ZM8.96906 3.96266L9.42739 4.85144L9.76304 4.67836L9.30471 3.78957L8.84638 2.90079L8.51074 3.07388L8.96906 3.96266ZM9.30471 3.78957L9.76304 4.67836L10.0987 4.50527L9.64036 3.61649L9.18203 2.7277L8.84638 2.90079L9.30471 3.78957ZM9.64036 3.61649L10.0987 4.50527C10.3643 4.36831 10.6186 4.21351 10.8613 4.04093L10.2817 3.22601L9.70213 2.41108C9.53721 2.52836 9.36397 2.63388 9.18203 2.7277L9.64036 3.61649ZM10.2817 3.22601L10.8613 4.04093L11.1669 3.82354L10.5874 3.00861L10.0078 2.19368L9.70213 2.41108L10.2817 3.22601ZM10.5874 3.00861L11.1669 3.82354L11.4726 3.60614L10.8931 2.79121L10.3135 1.97628L10.0078 2.19368L10.5874 3.00861ZM10.8931 2.79121L11.4726 3.60614C11.6577 3.47449 11.8664 3.33581 12.0996 3.19016L11.5699 2.34201L11.0401 1.49385C10.7785 1.65728 10.536 1.81807 10.3135 1.97628L10.8931 2.79121ZM11.5699 2.34201L12.0996 3.19016L12.4708 2.95835L11.941 2.1102L11.4113 1.26204L11.0401 1.49385L11.5699 2.34201ZM11.941 2.1102L12.4708 2.95835L12.8419 2.72654L12.3122 1.87839L11.7824 1.03023L11.4113 1.26204L11.941 2.1102ZM12.3122 1.87839L12.8419 2.72654C12.8326 2.73237 12.6397 2.8481 12.3578 2.76419C12.2272 2.72532 12.1344 2.6579 12.0782 2.60273C12.0512 2.57626 12.0332 2.55331 12.0225 2.53818C12.0118 2.52307 12.0068 2.51358 12.0062 2.51239L12.8936 2.05144L13.781 1.59049C13.6485 1.33529 13.3914 0.985111 12.9283 0.847299C12.4526 0.705707 12.0392 0.869861 11.7824 1.03023L12.3122 1.87839ZM12.8936 2.05144L12.0062 2.51239L12.2165 2.91726L13.1039 2.45631L13.9913 1.99536L13.781 1.59049L12.8936 2.05144ZM13.1039 2.45631L12.2165 2.91726L12.4268 3.32212L13.3142 2.86117L14.2016 2.40022L13.9913 1.99536L13.1039 2.45631ZM13.3142 2.86117L12.4268 3.32212C12.6201 3.69432 12.8763 4.02911 13.2127 4.28777L13.8223 3.49507L14.4319 2.70237C14.3712 2.65565 14.2887 2.56785 14.2016 2.40022L13.3142 2.86117ZM13.8223 3.49507L13.2127 4.28777L13.5105 4.5168L14.1201 3.7241L14.7297 2.9314L14.4319 2.70237L13.8223 3.49507ZM14.1201 3.7241L13.5105 4.5168L13.8083 4.74583L14.4179 3.95313L15.0275 3.16042L14.7297 2.9314L14.1201 3.7241ZM14.4179 3.95313L13.8083 4.74583C14.15 5.00859 14.5422 5.16704 14.9599 5.23607L15.1229 4.24945L15.286 3.26284C15.1607 3.24213 15.0829 3.20303 15.0275 3.16042L14.4179 3.95313ZM15.1229 4.24945L14.9599 5.23607L15.3671 5.30336L15.5301 4.31675L15.6932 3.33013L15.286 3.26284L15.1229 4.24945ZM15.5301 4.31675L15.3671 5.30336L15.7742 5.37066L15.9373 4.38405L16.1004 3.39743L15.6932 3.33013L15.5301 4.31675ZM15.9373 4.38405L15.7742 5.37066C15.8949 5.3906 15.9671 5.42832 16.0178 5.46854L16.6392 4.68503L17.2605 3.90151C16.9184 3.63016 16.5226 3.46722 16.1004 3.39743L15.9373 4.38405ZM16.6392 4.68503L16.0178 5.46854L16.3125 5.70223L16.9338 4.91872L17.5552 4.1352L17.2605 3.90151L16.6392 4.68503ZM16.9338 4.91872L16.3125 5.70223L16.6071 5.93592L17.2285 5.1524L17.8499 4.36889L17.5552 4.1352L16.9338 4.91872ZM17.2285 5.1524L16.6071 5.93592C16.8054 6.09315 17.0042 6.24966 17.2034 6.40543L17.8193 5.61759L18.4352 4.82976C18.2396 4.67685 18.0445 4.52323 17.8499 4.36889L17.2285 5.1524ZM17.8193 5.61759L17.2034 6.40543L17.4996 6.63694L18.1154 5.8491L18.7313 5.06126L18.4352 4.82976L17.8193 5.61759ZM18.1154 5.8491L17.4996 6.63694L17.7957 6.86844L18.4116 6.08061L19.0275 5.29277L18.7313 5.06126L18.1154 5.8491ZM18.4116 6.08061L17.7957 6.86844C18.027 7.04922 18.2689 7.21446 18.5214 7.36398L19.031 6.50354L19.5405 5.6431C19.362 5.53738 19.1911 5.42066 19.0275 5.29277L18.4116 6.08061ZM19.031 6.50354L18.5214 7.36398L18.8447 7.5554L19.3542 6.69496L19.8638 5.83452L19.5405 5.6431L19.031 6.50354ZM19.3542 6.69496L18.8447 7.5554L19.1679 7.74683L19.6775 6.88639L20.187 6.02595L19.8638 5.83452L19.3542 6.69496ZM19.6775 6.88639L19.1679 7.74683C19.3894 7.87799 19.6124 8.00691 19.8368 8.1336L20.3283 7.26274L20.8199 6.39189C20.6075 6.27201 20.3965 6.15003 20.187 6.02595L19.6775 6.88639ZM20.3283 7.26274L19.8368 8.1336L20.1644 8.31853L20.656 7.44767L21.1475 6.57682L20.8199 6.39189L20.3283 7.26274ZM20.656 7.44767L20.1644 8.31853L20.4921 8.50346L20.9836 7.6326L21.4752 6.76175L21.1475 6.57682L20.656 7.44767ZM20.9836 7.6326L20.4921 8.50346C20.5835 8.55506 20.658 8.62128 20.7219 8.71L21.5331 8.12514L22.3442 7.54028C22.1124 7.21886 21.8206 6.95672 21.4752 6.76175L20.9836 7.6326ZM21.5331 8.12514L20.7219 8.71L20.9437 9.01762L21.7549 8.43275L22.566 7.84789L22.3442 7.54028L21.5331 8.12514ZM21.7549 8.43275L20.9437 9.01762L21.1655 9.32523L21.9767 8.74037L22.7878 8.15551L22.566 7.84789L21.7549 8.43275ZM21.9767 8.74037L21.1655 9.32523C21.2318 9.41707 21.2762 9.48335 21.3036 9.52772C21.3171 9.54959 21.3231 9.56059 21.3241 9.56247C21.3264 9.56684 21.3155 9.54714 21.302 9.50973L22.2426 9.17027L23.1832 8.83081C23.0986 8.59641 22.923 8.34301 22.7878 8.15551L21.9767 8.74037ZM22.2426 9.17027L21.302 9.50973L21.3461 9.63202L22.2867 9.29256L23.2274 8.95311L23.1832 8.83081L22.2426 9.17027ZM22.2867 9.29256L21.3461 9.63202L21.3902 9.75431L22.3309 9.41486L23.2715 9.0754L23.2274 8.95311L22.2867 9.29256ZM22.3309 9.41486L21.3902 9.75431C21.3667 9.68902 21.355 9.6322 21.349 9.58991C21.343 9.54737 21.3417 9.5129 21.3418 9.48937C21.3418 9.46552 21.3433 9.44791 21.3443 9.43791C21.3454 9.4277 21.3464 9.42219 21.3464 9.4221C21.3465 9.4219 21.3458 9.42533 21.344 9.43283C21.3423 9.44026 21.3396 9.45064 21.3357 9.46422C21.3277 9.49178 21.316 9.52842 21.2993 9.5752L22.2408 9.91215L23.1823 10.2491C23.2363 10.0983 23.2857 9.93697 23.3144 9.77855C23.3363 9.65769 23.3798 9.37561 23.2715 9.0754L22.3309 9.41486ZM22.2408 9.91215L21.2993 9.5752L21.1651 9.9502L22.1066 10.2872L23.0481 10.6241L23.1823 10.2491L22.2408 9.91215Z" fill="#80A281"/>
</svg>
