<svg width="29" height="28" viewBox="0 0 29 28" fill="none" xmlns="http://www.w3.org/2000/svg">
<path d="M10.375 24.5C10.375 25.0523 10.8227 25.5 11.375 25.5C11.9273 25.5 12.375 25.0523 12.375 24.5L10.375 24.5ZM11.375 24.4L12.375 24.4L12.375 24.205L12.3017 24.0243L11.375 24.4ZM11.0912 23.7L12.018 23.3243L11.0912 23.7ZM10.8588 22.625L9.86799 22.4894L10.8588 22.625ZM10.9614 21.875L11.9522 22.0106L10.9614 21.875ZM11.0966 21.125L12.0725 21.3433L11.0966 21.125ZM11.2643 20.375L10.2885 20.1567L11.2643 20.375ZM11.474 19.625L10.5259 19.307L11.474 19.625ZM11.7256 18.875L12.6736 19.193L11.7256 18.875ZM11.6175 18.125L12.4661 17.596L11.6175 18.125ZM11.0431 16.569L12.0024 16.8515L11.0431 16.569ZM11.17 16.138L10.2108 15.8555L11.17 16.138ZM11.297 15.7069L10.3377 15.4245L11.297 15.7069ZM11.8532 15.2555L11.8057 14.2566L11.8532 15.2555ZM12.7117 15.2147L12.7592 16.2135L12.7117 15.2147ZM13.516 15.1087L13.2936 14.1338L13.516 15.1087ZM15.016 14.9815L14.6899 15.9269L15.016 14.9815ZM15.766 15.2402L16.092 14.2948L15.766 15.2402ZM16.4985 15.3832L16.4601 16.3825L16.4985 15.3832ZM17.2136 15.4107L17.252 14.4115L17.2136 15.4107ZM17.7714 15.7013L16.9612 16.2874L17.7714 15.7013ZM18.1719 16.2551L18.9822 15.669L18.1719 16.2551ZM18.4846 16.907L19.4425 16.6198L18.4846 16.907ZM18.7095 17.657L17.7516 17.9441L18.7095 17.657ZM18.8063 19.157L17.8064 19.1431L18.8063 19.157ZM18.5818 19.907L19.445 20.4118L18.5818 19.907ZM18.1432 20.657L19.0064 21.1618L18.1432 20.657ZM18.1245 21.407L19.0063 20.9353L18.1245 21.407ZM18.5256 22.157L19.4074 21.6853L18.5256 22.157ZM18.584 22.907L17.6489 22.5526L18.584 22.907ZM18.2998 23.657L19.2349 24.0114L18.2998 23.657ZM18.212 24.149L19.119 23.7278L18.212 24.149ZM18.2663 24.266L17.3593 24.6871L17.4115 24.7995L17.4896 24.8958L18.2663 24.266ZM18.375 24.4L19.375 24.4L19.375 24.0455L19.1518 23.7702L18.375 24.4ZM17.375 24.5C17.375 25.0523 17.8227 25.5 18.375 25.5C18.9273 25.5 19.375 25.0523 19.375 24.5L17.375 24.5ZM25.1066 11.7354L24.1651 11.3984L25.1066 11.7354ZM24.9724 12.1104L25.9139 12.4473L24.9724 12.1104ZM24.9926 12.8604L24.0679 13.2411L24.9926 12.8604ZM25.3014 13.6104L26.2261 13.2297L25.3014 13.6104ZM25.3109 14.3604L26.2438 14.7207L25.3109 14.3604ZM25.0212 15.1104L24.0884 14.75L25.0212 15.1104ZM25.0162 15.8604L24.0792 16.2098L25.0162 15.8604ZM25.1561 16.2354L26.093 15.886L25.1561 16.2354ZM25.2959 16.6104L26.2329 16.261L25.2959 16.6104ZM25.28 17.3604L26.2035 17.7439L25.28 17.3604ZM25.1243 17.7354L26.0478 18.1189L25.1243 17.7354ZM24.9685 18.1104L24.045 17.7268L24.9685 18.1104ZM25.0441 18.8604L25.8952 18.3354L25.0441 18.8604ZM25.5068 19.6104L24.6557 20.1354L25.5068 19.6104ZM25.7883 20.3604L24.7971 20.493L25.7883 20.3604ZM25.8385 20.7354L26.8296 20.6028L25.8385 20.7354ZM25.8887 21.1104L26.8798 20.9778L25.8887 21.1104ZM25.6579 21.8269L24.8856 21.1917L25.6579 21.8269ZM25.0961 22.51L25.8684 23.1453L25.0961 22.51ZM24.6456 23.0581L25.4186 23.6926L24.6456 23.0581ZM24.4761 23.2646L25.2491 23.8991L24.4761 23.2646ZM24.3066 23.4712L23.5336 22.8367L24.3066 23.4712ZM23.8555 23.748L23.6134 22.7777L23.8555 23.748ZM23.574 23.8182L23.3319 22.848L23.574 23.8182ZM23.2925 23.8885L23.5346 24.8587L23.2925 23.8885ZM22.636 24.1457L23.0823 25.0406L22.636 24.1457ZM21.886 24.5197L21.4397 23.6248L21.886 24.5197ZM21.136 24.6037L21.4009 23.6395L21.136 24.6037ZM20.386 24.3977L20.1211 25.3619L20.386 24.3977ZM19.261 24.5618L19.5966 25.5038L19.261 24.5618ZM18.886 24.6954L18.5504 23.7535L18.886 24.6954ZM18.136 24.7362L18.3763 23.7655L18.136 24.7362ZM17.386 24.5505L17.1457 25.5212L17.386 24.5505ZM16.636 24.4625L16.6489 25.4624L16.636 24.4625ZM16.261 24.4674L16.2481 23.4674L16.261 24.4674ZM15.886 24.4722L15.8731 23.4723L15.886 24.4722ZM15.136 24.4372L15.2418 23.4428L15.136 24.4372ZM14.761 24.3973L14.6552 25.3916L14.761 24.3973ZM14.386 24.3574L14.2802 25.3517L14.386 24.3574ZM13.636 24.3416L13.5718 23.3436L13.636 24.3416ZM12.886 24.3898L12.9502 25.3878L12.886 24.3898ZM12.136 24.451L12.2342 25.4461L12.136 24.451ZM11.386 24.525L11.2878 23.5298L11.386 24.525ZM10.636 24.5454L10.5917 25.5444L10.636 24.5454ZM9.886 24.5121L9.93029 23.5131L9.886 24.5121ZM9.136 24.6413L8.77361 23.7093L9.136 24.6413ZM8.386 24.9329L8.74838 25.8649L8.386 24.9329ZM7.636 24.9043L8.05783 23.9976L7.636 24.9043ZM6.886 24.5553L6.46416 25.462L6.886 24.5553ZM6.18718 24.2624L5.84367 25.2015L6.18718 24.2624ZM5.86337 24.144L6.20689 23.2048L5.86337 24.144ZM5.53956 24.0255L5.88307 23.0864L5.53956 24.0255ZM5.07381 23.611L4.17205 24.0432L5.07381 23.611ZM4.93187 23.3148L4.03011 23.7471L4.93187 23.3148ZM4.78993 23.0187L5.69169 22.5865L4.78993 23.0187ZM4.62164 22.3563L5.61906 22.2845L4.62164 22.3563ZM4.59528 21.99L3.59786 22.0618L4.59528 21.99ZM4.56892 21.6237L3.5715 21.6955L4.56892 21.6237ZM4.58867 20.1324L3.58951 20.0914L4.58867 20.1324ZM4.48081 19.3824L3.53079 19.6946L4.48081 19.3824ZM4.23434 18.6324L3.28432 18.9446L4.23434 18.6324ZM4.1378 17.8824L3.14033 17.8114L4.1378 17.8824ZM4.04715 15.6324L3.05848 15.7824L4.04715 15.6324ZM4.14915 14.8824L5.06989 15.2726L4.14915 14.8824ZM4.46696 14.1324L5.3877 14.5226L4.46696 14.1324ZM4.46983 13.3824L5.3931 12.9982L4.46983 13.3824ZM4.15776 12.6324L3.2345 13.0165L4.15776 12.6324ZM4.12361 11.887L3.17369 11.5744L4.12361 11.887ZM4.36735 11.1461L3.41744 10.8336L4.36735 11.1461ZM4.68735 10.4767L3.85382 9.92425L4.68735 10.4767ZM5.0836 9.87887L4.25007 9.3264L5.0836 9.87887ZM5.54795 9.30419L6.26739 9.99874L5.54795 9.30419ZM6.08038 8.75267L5.36093 8.05812L6.08038 8.75267ZM6.66338 8.27593L6.12765 7.43154L6.66338 8.27593ZM7.29694 7.87397L6.76122 7.02957L7.29694 7.87397ZM7.92074 7.45755L7.34634 6.63897L7.92074 7.45755ZM8.22775 7.24212L8.80214 8.0607L8.22775 7.24212ZM8.53476 7.02669L7.96037 6.20812L8.53476 7.02669ZM11.342 5.82251L10.7086 5.0487L11.342 5.82251ZM11.9691 5.4109L11.5107 4.52212L11.9691 5.4109ZM12.3047 5.23782L12.763 6.1266L12.3047 5.23782ZM12.6404 5.06473L12.182 4.17595L12.6404 5.06473ZM13.2817 4.67425L13.8613 5.48918L13.2817 4.67425ZM13.8931 4.23945L13.3135 3.42453L13.8931 4.23945ZM14.5699 3.79025L15.0996 4.6384L14.5699 3.79025ZM15.3122 3.32663L14.7824 2.47848L15.3122 3.32663ZM15.8936 3.49969L15.0062 3.96063L15.8936 3.49969ZM16.3142 4.30941L17.2016 3.84846L16.3142 4.30941ZM17.1201 5.17234L16.5105 5.96504L17.1201 5.17234ZM18.1229 5.69769L18.286 4.71108L18.1229 5.69769ZM19.6392 6.13327L19.0178 6.91679L19.6392 6.13327ZM19.9338 6.36696L19.3125 7.15047L19.9338 6.36696ZM20.2285 6.60064L20.8499 5.81713L20.2285 6.60064ZM20.8193 7.06584L20.2034 7.85367L20.8193 7.06584ZM21.4116 7.52885L22.0275 6.74101L21.4116 7.52885ZM22.031 7.95178L22.5405 7.09134L22.031 7.95178ZM22.6775 8.33463L23.187 7.47419L22.6775 8.33463ZM23.3283 8.71099L23.8199 7.84013L23.3283 8.71099ZM23.656 8.89592L23.1644 9.76677L23.656 8.89592ZM23.9836 9.08085L23.4921 9.9517L23.9836 9.08085ZM24.5331 9.57339L23.7219 10.1582L24.5331 9.57339ZM24.9767 10.1886L24.1655 10.7735L24.9767 10.1886ZM25.2426 10.6185L26.1832 10.2791L25.2426 10.6185ZM25.3309 10.8631L24.3902 11.2026L25.3309 10.8631ZM25.2408 11.3604L24.2993 11.0234L25.2408 11.3604ZM11.375 24.5L12.375 24.5L12.375 24.4L11.375 24.4L10.375 24.4L10.375 24.5L11.375 24.5ZM11.375 24.4L12.3017 24.0243L12.018 23.3243L11.0912 23.7L10.1645 24.0757L10.4483 24.7757L11.375 24.4ZM11.0912 23.7L12.018 23.3243C11.9376 23.126 11.8917 22.9766 11.8686 22.8699C11.8444 22.7577 11.8537 22.7304 11.8495 22.7606L10.8588 22.625L9.86799 22.4894C9.79632 23.0132 9.96301 23.5787 10.1645 24.0757L11.0912 23.7ZM10.8588 22.625L11.8495 22.7606L11.9008 22.3856L10.9101 22.25L9.9193 22.1144L9.86799 22.4894L10.8588 22.625ZM10.9101 22.25L11.9008 22.3856L11.9522 22.0106L10.9614 21.875L9.97062 21.7394L9.9193 22.1144L10.9101 22.25ZM10.9614 21.875L11.9522 22.0106C11.9825 21.7888 12.0226 21.5664 12.0725 21.3433L11.0966 21.125L10.1207 20.9067C10.0587 21.1836 10.0087 21.4612 9.97062 21.7394L10.9614 21.875ZM11.0966 21.125L12.0725 21.3433L12.1563 20.9683L11.1805 20.75L10.2046 20.5317L10.1207 20.9067L11.0966 21.125ZM11.1805 20.75L12.1563 20.9683L12.2402 20.5933L11.2643 20.375L10.2885 20.1567L10.2046 20.5317L11.1805 20.75ZM11.2643 20.375L12.2402 20.5933C12.2884 20.3779 12.3489 20.1612 12.4221 19.943L11.474 19.625L10.5259 19.307C10.4314 19.5888 10.3521 19.872 10.2885 20.1567L11.2643 20.375ZM11.474 19.625L12.4221 19.943L12.5479 19.568L11.5998 19.25L10.6517 18.932L10.5259 19.307L11.474 19.625ZM11.5998 19.25L12.5479 19.568L12.6736 19.193L11.7256 18.875L10.7775 18.557L10.6517 18.932L11.5998 19.25ZM11.7256 18.875L12.6736 19.193C12.8643 18.6245 12.759 18.0658 12.4661 17.596L11.6175 18.125L10.7689 18.654C10.7856 18.6808 10.7764 18.6757 10.7716 18.6425C10.7694 18.6267 10.7689 18.6094 10.7705 18.5922C10.7721 18.5752 10.7754 18.5631 10.7775 18.557L11.7256 18.875ZM11.6175 18.125L12.4661 17.596L12.2324 17.221L11.3838 17.75L10.5352 18.279L10.7689 18.654L11.6175 18.125ZM11.3838 17.75L12.2324 17.221L11.9986 16.846L11.15 17.375L10.3014 17.904L10.5352 18.279L11.3838 17.75ZM11.15 17.375L11.9986 16.846C11.9933 16.8374 11.9927 16.8347 11.9938 16.8377C11.9949 16.8409 11.9967 16.8469 11.9977 16.8546C11.9987 16.8622 11.9985 16.8674 11.9983 16.8688C11.9983 16.8698 11.9986 16.8644 12.0024 16.8515L11.0431 16.569L10.0838 16.2865C9.92013 16.8425 9.9916 17.4071 10.3014 17.904L11.15 17.375ZM11.0431 16.569L12.0024 16.8515L12.1293 16.4204L11.17 16.138L10.2108 15.8555L10.0838 16.2865L11.0431 16.569ZM11.17 16.138L12.1293 16.4204L12.2562 15.9894L11.297 15.7069L10.3377 15.4245L10.2108 15.8555L11.17 16.138ZM11.297 15.7069L12.2562 15.9894C12.256 15.9903 12.23 16.0736 12.1297 16.155C12.0258 16.2393 11.9269 16.2531 11.9007 16.2544L11.8532 15.2555L11.8057 14.2566C11.4933 14.2715 11.1585 14.3674 10.8693 14.6021C10.5836 14.834 10.4226 15.1362 10.3377 15.4245L11.297 15.7069ZM11.8532 15.2555L11.9007 16.2544L12.3299 16.234L12.2824 15.2351L12.2349 14.2362L11.8057 14.2566L11.8532 15.2555ZM12.2824 15.2351L12.3299 16.234L12.7592 16.2135L12.7117 15.2147L12.6642 14.2158L12.2349 14.2362L12.2824 15.2351ZM12.7117 15.2147L12.7592 16.2135C13.0975 16.1974 13.4246 16.1552 13.7383 16.0837L13.516 15.1087L13.2936 14.1338C13.1073 14.1763 12.8983 14.2047 12.6642 14.2158L12.7117 15.2147ZM13.516 15.1087L13.7383 16.0837L14.1133 15.9982L13.891 15.0232L13.6686 14.0482L13.2936 14.1338L13.516 15.1087ZM13.891 15.0232L14.1133 15.9982L14.4883 15.9127L14.266 14.9377L14.0436 13.9627L13.6686 14.0482L13.891 15.0232ZM14.266 14.9377L14.4883 15.9127C14.5504 15.8985 14.6106 15.8995 14.6899 15.9269L15.016 14.9815L15.342 14.0362C14.9214 13.8911 14.4815 13.8629 14.0436 13.9627L14.266 14.9377ZM15.016 14.9815L14.6899 15.9269L15.0649 16.0562L15.391 15.1108L15.717 14.1655L15.342 14.0362L15.016 14.9815ZM15.391 15.1108L15.0649 16.0562L15.4399 16.1855L15.766 15.2402L16.092 14.2948L15.717 14.1655L15.391 15.1108ZM15.766 15.2402L15.4399 16.1855C15.7727 16.3003 16.1138 16.3692 16.4601 16.3825L16.4985 15.3832L16.5369 14.384C16.4066 14.379 16.2593 14.3525 16.092 14.2948L15.766 15.2402ZM16.4985 15.3832L16.4601 16.3825L16.8177 16.3963L16.8561 15.397L16.8945 14.3977L16.5369 14.384L16.4985 15.3832ZM16.8561 15.397L16.8177 16.3963L17.1752 16.41L17.2136 15.4107L17.252 14.4115L16.8945 14.3977L16.8561 15.397ZM17.2136 15.4107L17.1752 16.41C17.167 16.4097 17.125 16.4059 17.0698 16.3771C17.0132 16.3476 16.9775 16.31 16.9612 16.2874L17.7714 15.7013L18.5817 15.1153C18.2585 14.6684 17.7807 14.4318 17.252 14.4115L17.2136 15.4107ZM17.7714 15.7013L16.9612 16.2874L17.1614 16.5643L17.9717 15.9782L18.782 15.3922L18.5817 15.1153L17.7714 15.7013ZM17.9717 15.9782L17.1614 16.5643L17.3617 16.8411L18.1719 16.2551L18.9822 15.669L18.782 15.3922L17.9717 15.9782ZM18.1719 16.2551L17.3617 16.8411C17.4208 16.9229 17.4793 17.0359 17.5267 17.1941L18.4846 16.907L19.4425 16.6198C19.34 16.278 19.1901 15.9564 18.9822 15.669L18.1719 16.2551ZM18.4846 16.907L17.5267 17.1941L17.6392 17.5691L18.597 17.282L19.5549 16.9948L19.4425 16.6198L18.4846 16.907ZM18.597 17.282L17.6392 17.5691L17.7516 17.9441L18.7095 17.657L19.6673 17.3698L19.5549 16.9948L18.597 17.282ZM18.7095 17.657L17.7516 17.9441C17.7986 18.1008 17.8188 18.2494 17.8168 18.3931L18.8167 18.407L19.8166 18.4208C19.8215 18.0645 19.7703 17.7131 19.6673 17.3698L18.7095 17.657ZM18.8167 18.407L17.8168 18.3931L17.8116 18.7681L18.8115 18.782L19.8114 18.7958L19.8166 18.4208L18.8167 18.407ZM18.8115 18.782L17.8116 18.7681L17.8064 19.1431L18.8063 19.157L19.8062 19.1708L19.8114 18.7958L18.8115 18.782ZM18.8063 19.157L17.8064 19.1431C17.8057 19.1947 17.7915 19.2774 17.7185 19.4022L18.5818 19.907L19.445 20.4118C19.6645 20.0365 19.8 19.6192 19.8062 19.1708L18.8063 19.157ZM18.5818 19.907L17.7185 19.4022L17.4993 19.7772L18.3625 20.282L19.2257 20.7868L19.445 20.4118L18.5818 19.907ZM18.3625 20.282L17.4993 19.7772L17.28 20.1522L18.1432 20.657L19.0064 21.1618L19.2257 20.7868L18.3625 20.282ZM18.1432 20.657L17.28 20.1522C16.9629 20.6944 16.9407 21.314 17.2427 21.8786L18.1245 21.407L19.0063 20.9353C19.0099 20.9421 19.0303 20.9869 19.0286 21.0569C19.0268 21.1258 19.005 21.1642 19.0064 21.1618L18.1432 20.657ZM18.1245 21.407L17.2427 21.8786L17.4432 22.2536L18.325 21.782L19.2068 21.3103L19.0063 20.9353L18.1245 21.407ZM18.325 21.782L17.4432 22.2536L17.6438 22.6286L18.5256 22.157L19.4074 21.6853L19.2068 21.3103L18.325 21.782ZM18.5256 22.157L17.6438 22.6286C17.6539 22.6476 17.6458 22.6394 17.6435 22.6096C17.6424 22.5959 17.643 22.5824 17.6448 22.5706C17.6457 22.565 17.6467 22.5605 17.6475 22.5573C17.6484 22.5541 17.649 22.5525 17.6489 22.5526L18.584 22.907L19.5191 23.2614C19.7231 22.7232 19.668 22.1726 19.4074 21.6853L18.5256 22.157ZM18.584 22.907L17.6489 22.5526L17.5068 22.9276L18.4419 23.282L19.377 23.6364L19.5191 23.2614L18.584 22.907ZM18.4419 23.282L17.5068 22.9276L17.3647 23.3026L18.2998 23.657L19.2349 24.0114L19.377 23.6364L18.4419 23.282ZM18.2998 23.657L17.3647 23.3026C17.3068 23.4553 17.2523 23.6236 17.2223 23.7918C17.2001 23.9162 17.1508 24.2381 17.305 24.5701L18.212 24.149L19.119 23.7278C19.1854 23.8708 19.1951 23.9915 19.1967 24.0456C19.1984 24.1039 19.1918 24.1399 19.1912 24.1431C19.1905 24.1473 19.198 24.1086 19.2349 24.0114L18.2998 23.657ZM18.212 24.149L17.305 24.5701L17.3593 24.6871L18.2663 24.266L19.1733 23.8448L19.119 23.7278L18.212 24.149ZM18.2663 24.266L17.4896 24.8958L17.5982 25.0298L18.375 24.4L19.1518 23.7702L19.0431 23.6362L18.2663 24.266ZM18.375 24.4L17.375 24.4L17.375 24.5L18.375 24.5L19.375 24.5L19.375 24.4L18.375 24.4ZM25.1066 11.7354L24.1651 11.3984L24.0309 11.7734L24.9724 12.1104L25.9139 12.4473L26.0481 12.0723L25.1066 11.7354ZM24.9724 12.1104L24.0309 11.7734C23.8563 12.2612 23.8726 12.7668 24.0679 13.2411L24.9926 12.8604L25.9173 12.4797C25.9125 12.468 25.9107 12.4611 25.9102 12.4586C25.9097 12.4563 25.9099 12.4565 25.91 12.4585C25.91 12.4605 25.9098 12.4616 25.9099 12.4611C25.91 12.4605 25.9108 12.4561 25.9139 12.4473L24.9724 12.1104ZM24.9926 12.8604L24.0679 13.2411L24.2223 13.6161L25.147 13.2354L26.0717 12.8547L25.9173 12.4797L24.9926 12.8604ZM25.147 13.2354L24.2223 13.6161L24.3767 13.9911L25.3014 13.6104L26.2261 13.2297L26.0717 12.8547L25.147 13.2354ZM25.3014 13.6104L24.3767 13.9911C24.3787 13.9961 24.38 13.9997 24.3807 14.002C24.3814 14.0043 24.3817 14.0054 24.3817 14.0055C24.3817 14.0056 24.3815 14.0049 24.3814 14.0034C24.3812 14.002 24.3811 14.0002 24.3811 13.9981C24.381 13.9937 24.3815 13.9904 24.3817 13.9893C24.3818 13.9883 24.3813 13.9917 24.3781 14L25.3109 14.3604L26.2438 14.7207C26.4335 14.2295 26.4256 13.7142 26.2261 13.2297L25.3014 13.6104ZM25.3109 14.3604L24.3781 14L24.2333 14.375L25.1661 14.7354L26.0989 15.0957L26.2438 14.7207L25.3109 14.3604ZM25.1661 14.7354L24.2333 14.375L24.0884 14.75L25.0212 15.1104L25.954 15.4707L26.0989 15.0957L25.1661 14.7354ZM25.0212 15.1104L24.0884 14.75C23.9041 15.2271 23.9001 15.7296 24.0792 16.2098L25.0162 15.8604L25.9532 15.511C25.9493 15.5007 25.9481 15.4948 25.9477 15.4928C25.9474 15.4909 25.9475 15.4909 25.9475 15.4921C25.9475 15.4932 25.9474 15.493 25.9478 15.4907C25.9483 15.4882 25.9498 15.4817 25.954 15.4707L25.0212 15.1104ZM25.0162 15.8604L24.0792 16.2098L24.2191 16.5848L25.1561 16.2354L26.093 15.886L25.9532 15.511L25.0162 15.8604ZM25.1561 16.2354L24.2191 16.5848L24.359 16.9598L25.2959 16.6104L26.2329 16.261L26.093 15.886L25.1561 16.2354ZM25.2959 16.6104L24.359 16.9598C24.362 16.9681 24.3626 16.9717 24.3625 16.9711C24.3624 16.9704 24.362 16.9678 24.3621 16.9642C24.3622 16.9606 24.3626 16.9588 24.3624 16.9597C24.3622 16.9607 24.3609 16.9662 24.3565 16.9768L25.28 17.3604L26.2035 17.7439C26.4029 17.2639 26.416 16.752 26.2329 16.261L25.2959 16.6104ZM25.28 17.3604L24.3565 16.9768L24.2008 17.3518L25.1243 17.7354L26.0478 18.1189L26.2035 17.7439L25.28 17.3604ZM25.1243 17.7354L24.2008 17.3518L24.045 17.7268L24.9685 18.1104L25.8921 18.4939L26.0478 18.1189L25.1243 17.7354ZM24.9685 18.1104L24.045 17.7268C23.8061 18.302 23.8868 18.889 24.193 19.3854L25.0441 18.8604L25.8952 18.3354C25.8842 18.3175 25.8996 18.336 25.9045 18.3851C25.9069 18.4084 25.9061 18.4318 25.9027 18.4533C25.8994 18.4743 25.8944 18.4883 25.8921 18.4939L24.9685 18.1104ZM25.0441 18.8604L24.193 19.3854L24.4244 19.7604L25.2755 19.2354L26.1265 18.7104L25.8952 18.3354L25.0441 18.8604ZM25.2755 19.2354L24.4244 19.7604L24.6557 20.1354L25.5068 19.6104L26.3579 19.0854L26.1265 18.7104L25.2755 19.2354ZM25.5068 19.6104L24.6557 20.1354C24.7482 20.2854 24.7851 20.4033 24.7971 20.493L25.7883 20.3604L26.7795 20.2278C26.7246 19.8175 26.5738 19.4354 26.3579 19.0854L25.5068 19.6104ZM25.7883 20.3604L24.7971 20.493L24.8473 20.868L25.8385 20.7354L26.8296 20.6028L26.7795 20.2278L25.7883 20.3604ZM25.8385 20.7354L24.8473 20.868L24.8975 21.243L25.8887 21.1104L26.8798 20.9778L26.8296 20.6028L25.8385 20.7354ZM25.8887 21.1104L24.8975 21.243C24.8963 21.2343 24.8957 21.2219 24.897 21.2073C24.8983 21.1926 24.9012 21.18 24.9042 21.1705C24.9105 21.151 24.913 21.1584 24.8856 21.1917L25.6579 21.8269L26.4303 22.4622C26.7614 22.0595 26.9564 21.5499 26.8798 20.9778L25.8887 21.1104ZM25.6579 21.8269L24.8856 21.1917L24.6047 21.5333L25.377 22.1685L26.1493 22.8037L26.4303 22.4622L25.6579 21.8269ZM25.377 22.1685L24.6047 21.5333L24.3238 21.8748L25.0961 22.51L25.8684 23.1453L26.1493 22.8037L25.377 22.1685ZM25.0961 22.51L24.3238 21.8748C24.1364 22.1026 23.986 22.2856 23.8727 22.4236L24.6456 23.0581L25.4186 23.6926C25.5313 23.5552 25.6812 23.3728 25.8684 23.1453L25.0961 22.51ZM24.6456 23.0581L23.8727 22.4236L23.7032 22.6302L24.4761 23.2646L25.2491 23.8991L25.4186 23.6926L24.6456 23.0581ZM24.4761 23.2646L23.7032 22.6302L23.5336 22.8367L24.3066 23.4712L25.0795 24.1056L25.2491 23.8991L24.4761 23.2646ZM24.3066 23.4712L23.5336 22.8367C23.547 22.8204 23.5654 22.804 23.586 22.7913C23.6059 22.7791 23.6176 22.7767 23.6134 22.7777L23.8555 23.748L24.0977 24.7182C24.4748 24.6241 24.8183 24.4238 25.0795 24.1056L24.3066 23.4712ZM23.8555 23.748L23.6134 22.7777L23.3319 22.848L23.574 23.8182L23.8162 24.7885L24.0977 24.7182L23.8555 23.748ZM23.574 23.8182L23.3319 22.848L23.0504 22.9182L23.2925 23.8885L23.5346 24.8587L23.8162 24.7885L23.574 23.8182ZM23.2925 23.8885L23.0504 22.9182C22.7686 22.9886 22.4788 23.1067 22.1897 23.2508L22.636 24.1457L23.0823 25.0406C23.2932 24.9354 23.4411 24.8821 23.5346 24.8587L23.2925 23.8885ZM22.636 24.1457L22.1897 23.2508L21.8147 23.4378L22.261 24.3327L22.7073 25.2276L23.0823 25.0406L22.636 24.1457ZM22.261 24.3327L21.8147 23.4378L21.4397 23.6248L21.886 24.5197L22.3323 25.4146L22.7073 25.2276L22.261 24.3327ZM21.886 24.5197L21.4397 23.6248C21.4235 23.6329 21.4125 23.6369 21.4065 23.6387C21.4007 23.6405 21.3986 23.6406 21.3997 23.6404C21.4009 23.6403 21.4028 23.6403 21.4046 23.6404C21.4063 23.6405 21.4053 23.6407 21.4009 23.6395L21.136 24.6037L20.8711 25.568C21.3779 25.7072 21.8804 25.64 22.3323 25.4146L21.886 24.5197ZM21.136 24.6037L21.4009 23.6395L21.0259 23.5364L20.761 24.5007L20.4961 25.465L20.8711 25.568L21.136 24.6037ZM20.761 24.5007L21.0259 23.5364L20.6509 23.4334L20.386 24.3977L20.1211 25.3619L20.4961 25.465L20.761 24.5007ZM20.386 24.3977L20.6509 23.4334C20.1983 23.309 19.7387 23.3301 19.3004 23.4862L19.636 24.4282L19.9716 25.3702C20.0333 25.3483 20.0737 25.3489 20.1211 25.3619L20.386 24.3977ZM19.636 24.4282L19.3004 23.4862L18.9254 23.6198L19.261 24.5618L19.5966 25.5038L19.9716 25.3702L19.636 24.4282ZM19.261 24.5618L18.9254 23.6198L18.5504 23.7535L18.886 24.6954L19.2216 25.6375L19.5966 25.5038L19.261 24.5618ZM18.886 24.6954L18.5504 23.7535C18.4794 23.7787 18.4296 23.7787 18.3763 23.7655L18.136 24.7362L17.8957 25.7069C18.3424 25.8175 18.7926 25.7903 19.2216 25.6375L18.886 24.6954ZM18.136 24.7362L18.3763 23.7655L18.0013 23.6727L17.761 24.6434L17.5207 25.614L17.8957 25.7069L18.136 24.7362ZM17.761 24.6434L18.0013 23.6727L17.6263 23.5798L17.386 24.5505L17.1457 25.5212L17.5207 25.614L17.761 24.6434ZM17.386 24.5505L17.6263 23.5798C17.296 23.498 16.9609 23.4582 16.6231 23.4626L16.636 24.4625L16.6489 25.4624C16.8111 25.4603 16.976 25.4792 17.1457 25.5212L17.386 24.5505ZM16.636 24.4625L16.6231 23.4626L16.2481 23.4674L16.261 24.4674L16.2739 25.4673L16.6489 25.4624L16.636 24.4625ZM16.261 24.4674L16.2481 23.4674L15.8731 23.4723L15.886 24.4722L15.8989 25.4721L16.2739 25.4673L16.261 24.4674ZM15.886 24.4722L15.8731 23.4723C15.6629 23.475 15.4526 23.4652 15.2418 23.4428L15.136 24.4372L15.0302 25.4315C15.3194 25.4623 15.6091 25.4759 15.8989 25.4721L15.886 24.4722ZM15.136 24.4372L15.2418 23.4428L14.8668 23.4029L14.761 24.3973L14.6552 25.3916L15.0302 25.4315L15.136 24.4372ZM14.761 24.3973L14.8668 23.4029L14.4918 23.363L14.386 24.3574L14.2802 25.3517L14.6552 25.3916L14.761 24.3973ZM14.386 24.3574L14.4918 23.363C14.1855 23.3304 13.8787 23.3239 13.5718 23.3436L13.636 24.3416L13.7002 25.3395C13.8933 25.3271 14.0864 25.3311 14.2802 25.3517L14.386 24.3574ZM13.636 24.3416L13.5718 23.3436L13.1968 23.3678L13.261 24.3657L13.3252 25.3636L13.7002 25.3395L13.636 24.3416ZM13.261 24.3657L13.1968 23.3678L12.8218 23.3919L12.886 24.3898L12.9502 25.3878L13.3252 25.3636L13.261 24.3657ZM12.886 24.3898L12.8218 23.3919C12.5604 23.4087 12.2991 23.43 12.0378 23.4558L12.136 24.451L12.2342 25.4461C12.4729 25.4226 12.7116 25.4031 12.9502 25.3878L12.886 24.3898ZM12.136 24.451L12.0378 23.4558L11.6628 23.4928L11.761 24.488L11.8592 25.4831L12.2342 25.4461L12.136 24.451ZM11.761 24.488L11.6628 23.4928L11.2878 23.5298L11.386 24.525L11.4842 25.5201L11.8592 25.4831L11.761 24.488ZM11.386 24.525L11.2878 23.5298C11.0849 23.5498 10.8826 23.5553 10.6803 23.5464L10.636 24.5454L10.5917 25.5444C10.8894 25.5576 11.1871 25.5495 11.4842 25.5201L11.386 24.525ZM10.636 24.5454L10.6803 23.5464L10.3053 23.5297L10.261 24.5287L10.2167 25.5278L10.5917 25.5444L10.636 24.5454ZM10.261 24.5287L10.3053 23.5297L9.93029 23.5131L9.886 24.5121L9.84171 25.5111L10.2167 25.5278L10.261 24.5287ZM9.886 24.5121L9.93029 23.5131C9.53177 23.4954 9.14361 23.5654 8.77361 23.7093L9.136 24.6413L9.49838 25.5733C9.62839 25.5228 9.74022 25.5066 9.84171 25.5111L9.886 24.5121ZM9.136 24.6413L8.77361 23.7093L8.39861 23.8551L8.761 24.7871L9.12338 25.7191L9.49838 25.5733L9.136 24.6413ZM8.761 24.7871L8.39861 23.8551L8.02361 24.0009L8.386 24.9329L8.74838 25.8649L9.12338 25.7191L8.761 24.7871ZM8.386 24.9329L8.02361 24.0009C8.01899 24.0027 8.01994 24.0019 8.02583 24.0008C8.0319 23.9998 8.04007 23.999 8.04919 23.9994C8.05826 23.9997 8.06474 24.001 8.06762 24.0017C8.07027 24.0024 8.06714 24.0019 8.05783 23.9976L7.636 24.9043L7.21416 25.8109C7.70342 26.0386 8.23655 26.064 8.74838 25.8649L8.386 24.9329ZM7.636 24.9043L8.05783 23.9976L7.68283 23.8231L7.261 24.7298L6.83916 25.6365L7.21416 25.8109L7.636 24.9043ZM7.261 24.7298L7.68283 23.8231L7.30783 23.6486L6.886 24.5553L6.46416 25.462L6.83916 25.6365L7.261 24.7298ZM6.886 24.5553L7.30783 23.6486C7.03706 23.5227 6.77773 23.4136 6.5307 23.3233L6.18718 24.2624L5.84367 25.2015C6.02839 25.2691 6.23493 25.3553 6.46416 25.462L6.886 24.5553ZM6.18718 24.2624L6.5307 23.3233L6.20689 23.2048L5.86337 24.144L5.51986 25.0831L5.84367 25.2015L6.18718 24.2624ZM5.86337 24.144L6.20689 23.2048L5.88307 23.0864L5.53956 24.0255L5.19605 24.9647L5.51986 25.0831L5.86337 24.144ZM5.53956 24.0255L5.88307 23.0864C5.88087 23.0856 5.90017 23.0926 5.92608 23.1157C5.95274 23.1394 5.96867 23.1643 5.97557 23.1787L5.07381 23.611L4.17205 24.0432C4.38558 24.4887 4.74866 24.801 5.19605 24.9647L5.53956 24.0255ZM5.07381 23.611L5.97557 23.1787L5.83363 22.8826L4.93187 23.3148L4.03011 23.7471L4.17205 24.0432L5.07381 23.611ZM4.93187 23.3148L5.83363 22.8826L5.69169 22.5865L4.78993 23.0187L3.88818 23.451L4.03011 23.7471L4.93187 23.3148ZM4.78993 23.0187L5.69169 22.5865C5.65733 22.5148 5.62869 22.4184 5.61906 22.2845L4.62164 22.3563L3.62422 22.4281C3.64973 22.7826 3.73329 23.1278 3.88818 23.451L4.78993 23.0187ZM4.62164 22.3563L5.61906 22.2845L5.5927 21.9182L4.59528 21.99L3.59786 22.0618L3.62422 22.4281L4.62164 22.3563ZM4.59528 21.99L5.5927 21.9182L5.56634 21.5519L4.56892 21.6237L3.5715 21.6955L3.59786 22.0618L4.59528 21.99ZM4.56892 21.6237L5.56634 21.5519C5.55153 21.346 5.54835 21.1366 5.55709 20.9233L4.55793 20.8824L3.55877 20.8414C3.54702 21.1282 3.55117 21.4129 3.5715 21.6955L4.56892 21.6237ZM4.55793 20.8824L5.55709 20.9233L5.57246 20.5483L4.5733 20.5074L3.57414 20.4664L3.55877 20.8414L4.55793 20.8824ZM4.5733 20.5074L5.57246 20.5483L5.58783 20.1733L4.58867 20.1324L3.58951 20.0914L3.57414 20.4664L4.5733 20.5074ZM4.58867 20.1324L5.58783 20.1733C5.60324 19.7975 5.54843 19.4281 5.43083 19.0702L4.48081 19.3824L3.53079 19.6946C3.5775 19.8367 3.5946 19.9673 3.58951 20.0914L4.58867 20.1324ZM4.48081 19.3824L5.43083 19.0702L5.30759 18.6952L4.35758 19.0074L3.40756 19.3196L3.53079 19.6946L4.48081 19.3824ZM4.35758 19.0074L5.30759 18.6952L5.18436 18.3202L4.23434 18.6324L3.28432 18.9446L3.40756 19.3196L4.35758 19.0074ZM4.23434 18.6324L5.18436 18.3202C5.14071 18.1874 5.12717 18.0674 5.13528 17.9534L4.1378 17.8824L3.14033 17.8114C3.11285 18.1974 3.16366 18.5774 3.28432 18.9446L4.23434 18.6324ZM4.1378 17.8824L5.13528 17.9534L5.16198 17.5784L4.1645 17.5074L3.16703 17.4364L3.14033 17.8114L4.1378 17.8824ZM4.1645 17.5074L5.16198 17.5784L5.18867 17.2034L4.1912 17.1324L3.19372 17.0614L3.16703 17.4364L4.1645 17.5074ZM4.1912 17.1324L5.18867 17.2034C5.21177 16.879 5.1986 16.5548 5.14966 16.2323L4.16098 16.3824L3.1723 16.5324C3.19924 16.71 3.20622 16.8858 3.19372 17.0614L4.1912 17.1324ZM4.16098 16.3824L5.14966 16.2323L5.09275 15.8573L4.10407 16.0074L3.11539 16.1574L3.1723 16.5324L4.16098 16.3824ZM4.10407 16.0074L5.09275 15.8573L5.03583 15.4823L4.04715 15.6324L3.05848 15.7824L3.11539 16.1574L4.10407 16.0074ZM4.04715 15.6324L5.03583 15.4823C5.0277 15.4288 5.03059 15.3653 5.06989 15.2726L4.14915 14.8824L3.2284 14.4922C3.05583 14.8995 2.99072 15.336 3.05848 15.7824L4.04715 15.6324ZM4.14915 14.8824L5.06989 15.2726L5.2288 14.8976L4.30805 14.5074L3.3873 14.1172L3.2284 14.4922L4.14915 14.8824ZM4.30805 14.5074L5.2288 14.8976L5.3877 14.5226L4.46696 14.1324L3.54621 13.7422L3.3873 14.1172L4.30805 14.5074ZM4.46696 14.1324L5.3877 14.5226C5.5981 14.026 5.60061 13.497 5.3931 12.9982L4.46983 13.3824L3.54656 13.7665C3.54956 13.7738 3.54948 13.7753 3.54875 13.7718C3.54798 13.768 3.5471 13.7616 3.54713 13.7536C3.54716 13.7455 3.54809 13.7393 3.54882 13.7358C3.54952 13.7326 3.54946 13.7345 3.54621 13.7422L4.46696 14.1324ZM4.46983 13.3824L5.3931 12.9982L5.23706 12.6232L4.3138 13.0074L3.39053 13.3915L3.54656 13.7665L4.46983 13.3824ZM4.3138 13.0074L5.23706 12.6232L5.08103 12.2482L4.15776 12.6324L3.2345 13.0165L3.39053 13.3915L4.3138 13.0074ZM4.15776 12.6324L5.08103 12.2482C5.07516 12.2341 5.07252 12.2247 5.07135 12.2196C5.07075 12.217 5.07046 12.2153 5.07032 12.2143C5.07019 12.2133 5.07016 12.2128 5.07016 12.2128C5.07016 12.2127 5.07016 12.2127 5.07016 12.2128C5.07015 12.2129 5.07016 12.2127 5.07024 12.2121C5.07038 12.2111 5.07101 12.2071 5.07352 12.1995L4.12361 11.887L3.17369 11.5744C3.01414 12.0594 3.04248 12.5551 3.2345 13.0165L4.15776 12.6324ZM4.12361 11.887L5.07352 12.1995L5.19539 11.829L4.24548 11.5165L3.29557 11.204L3.17369 11.5744L4.12361 11.887ZM4.24548 11.5165L5.19539 11.829L5.31726 11.4586L4.36735 11.1461L3.41744 10.8336L3.29557 11.204L4.24548 11.5165ZM4.36735 11.1461L5.31726 11.4586C5.37302 11.2891 5.44223 11.1479 5.52089 11.0292L4.68735 10.4767L3.85382 9.92425C3.6683 10.2041 3.52418 10.5091 3.41744 10.8336L4.36735 11.1461ZM4.68735 10.4767L5.52089 11.0292L5.71901 10.7303L4.88548 10.1778L4.05194 9.62533L3.85382 9.92425L4.68735 10.4767ZM4.88548 10.1778L5.71901 10.7303L5.91714 10.4313L5.0836 9.87887L4.25007 9.3264L4.05194 9.62533L4.88548 10.1778ZM5.0836 9.87887L5.91714 10.4313C6.01338 10.2861 6.12931 10.1418 6.26739 9.99874L5.54795 9.30419L4.8285 8.60964C4.61163 8.83429 4.41799 9.07305 4.25007 9.3264L5.0836 9.87887ZM5.54795 9.30419L6.26739 9.99874L6.53361 9.72298L5.81416 9.02843L5.09472 8.33388L4.8285 8.60964L5.54795 9.30419ZM5.81416 9.02843L6.53361 9.72298L6.79982 9.44722L6.08038 8.75267L5.36093 8.05812L5.09472 8.33388L5.81416 9.02843ZM6.08038 8.75267L6.79982 9.44722C6.92342 9.3192 7.05632 9.21091 7.1991 9.12032L6.66338 8.27593L6.12765 7.43154C5.84805 7.60893 5.59229 7.81847 5.36093 8.05812L6.08038 8.75267ZM6.66338 8.27593L7.1991 9.12032L7.51588 8.91934L6.98016 8.07495L6.44443 7.23056L6.12765 7.43154L6.66338 8.27593ZM6.98016 8.07495L7.51588 8.91934L7.83267 8.71836L7.29694 7.87397L6.76122 7.02957L6.44443 7.23056L6.98016 8.07495ZM7.29694 7.87397L7.83267 8.71836C8.05694 8.57607 8.27776 8.42866 8.49513 8.27613L7.92074 7.45755L7.34634 6.63897C7.15436 6.77369 6.95932 6.90389 6.76122 7.02957L7.29694 7.87397ZM7.92074 7.45755L8.49513 8.27613L8.80214 8.0607L8.22775 7.24212L7.65336 6.42354L7.34634 6.63897L7.92074 7.45755ZM8.22775 7.24212L8.80214 8.0607L9.10916 7.84527L8.53476 7.02669L7.96037 6.20812L7.65336 6.42354L8.22775 7.24212ZM8.53476 7.02669L9.10916 7.84527C9.18011 7.79548 9.27524 7.75246 9.41397 7.72915L9.24829 6.74297L9.08261 5.75679C8.67932 5.82454 8.29876 5.97067 7.96037 6.20812L8.53476 7.02669ZM9.24829 6.74297L9.41397 7.72915L9.82049 7.66085L9.6548 6.67467L9.48912 5.68849L9.08261 5.75679L9.24829 6.74297ZM9.6548 6.67467L9.82049 7.66085L10.227 7.59256L10.0613 6.60638L9.89564 5.6202L9.48912 5.68849L9.6548 6.67467ZM10.0613 6.60638L10.227 7.59256C10.653 7.52098 11.0511 7.35295 11.3926 7.07338L10.7592 6.29956L10.1258 5.52574C10.0788 5.56419 10.0116 5.60071 9.89564 5.6202L10.0613 6.60638ZM10.7592 6.29956L11.3926 7.07338L11.684 6.83485L11.0506 6.06104L10.4172 5.28722L10.1258 5.52574L10.7592 6.29956ZM11.0506 6.06104L11.684 6.83485L11.9754 6.59633L11.342 5.82251L10.7086 5.0487L10.4172 5.28722L11.0506 6.06104ZM11.342 5.82251L11.9754 6.59633C12.1154 6.48179 12.2657 6.38308 12.4274 6.29969L11.9691 5.4109L11.5107 4.52212C11.2249 4.66951 10.9572 4.84521 10.7086 5.0487L11.342 5.82251ZM11.9691 5.4109L12.4274 6.29969L12.763 6.1266L12.3047 5.23782L11.8464 4.34903L11.5107 4.52212L11.9691 5.4109ZM12.3047 5.23782L12.763 6.1266L13.0987 5.95351L12.6404 5.06473L12.182 4.17595L11.8464 4.34903L12.3047 5.23782ZM12.6404 5.06473L13.0987 5.95351C13.3643 5.81655 13.6186 5.66175 13.8613 5.48918L13.2817 4.67425L12.7021 3.85932C12.5372 3.9766 12.364 4.08212 12.182 4.17595L12.6404 5.06473ZM13.2817 4.67425L13.8613 5.48918L14.1669 5.27178L13.5874 4.45685L13.0078 3.64192L12.7021 3.85932L13.2817 4.67425ZM13.5874 4.45685L14.1669 5.27178L14.4726 5.05438L13.8931 4.23945L13.3135 3.42453L13.0078 3.64192L13.5874 4.45685ZM13.8931 4.23945L14.4726 5.05438C14.6577 4.92273 14.8664 4.78406 15.0996 4.6384L14.5699 3.79025L14.0401 2.9421C13.7785 3.10552 13.536 3.26631 13.3135 3.42453L13.8931 4.23945ZM14.5699 3.79025L15.0996 4.6384L15.4708 4.40659L14.941 3.55844L14.4113 2.71029L14.0401 2.9421L14.5699 3.79025ZM14.941 3.55844L15.4708 4.40659L15.8419 4.17478L15.3122 3.32663L14.7824 2.47848L14.4113 2.71029L14.941 3.55844ZM15.3122 3.32663L15.8419 4.17478C15.8326 4.18062 15.6397 4.29634 15.3578 4.21244C15.2272 4.17356 15.1344 4.10614 15.0782 4.05097C15.0512 4.0245 15.0332 4.00155 15.0225 3.98642C15.0118 3.97131 15.0068 3.96183 15.0062 3.96063L15.8936 3.49969L16.781 3.03874C16.6485 2.78353 16.3914 2.43335 15.9283 2.29554C15.4526 2.15395 15.0392 2.3181 14.7824 2.47848L15.3122 3.32663ZM15.8936 3.49969L15.0062 3.96063L15.2165 4.3655L16.1039 3.90455L16.9913 3.4436L16.781 3.03874L15.8936 3.49969ZM16.1039 3.90455L15.2165 4.3655L15.4268 4.77036L16.3142 4.30941L17.2016 3.84846L16.9913 3.4436L16.1039 3.90455ZM16.3142 4.30941L15.4268 4.77036C15.6201 5.14256 15.8763 5.47735 16.2127 5.73601L16.8223 4.94331L17.4319 4.15061C17.3712 4.10389 17.2887 4.01609 17.2016 3.84846L16.3142 4.30941ZM16.8223 4.94331L16.2127 5.73601L16.5105 5.96504L17.1201 5.17234L17.7297 4.37964L17.4319 4.15061L16.8223 4.94331ZM17.1201 5.17234L16.5105 5.96504L16.8083 6.19407L17.4179 5.40137L18.0275 4.60867L17.7297 4.37964L17.1201 5.17234ZM17.4179 5.40137L16.8083 6.19407C17.15 6.45683 17.5422 6.61528 17.9599 6.68431L18.1229 5.69769L18.286 4.71108C18.1607 4.69038 18.0829 4.65127 18.0275 4.60867L17.4179 5.40137ZM18.1229 5.69769L17.9599 6.68431L18.3671 6.75161L18.5301 5.76499L18.6932 4.77837L18.286 4.71108L18.1229 5.69769ZM18.5301 5.76499L18.3671 6.75161L18.7742 6.8189L18.9373 5.83229L19.1004 4.84567L18.6932 4.77837L18.5301 5.76499ZM18.9373 5.83229L18.7742 6.8189C18.8949 6.83884 18.9671 6.87656 19.0178 6.91679L19.6392 6.13327L20.2605 5.34975C19.9184 5.0784 19.5226 4.91546 19.1004 4.84567L18.9373 5.83229ZM19.6392 6.13327L19.0178 6.91679L19.3125 7.15047L19.9338 6.36696L20.5552 5.58344L20.2605 5.34975L19.6392 6.13327ZM19.9338 6.36696L19.3125 7.15047L19.6071 7.38416L20.2285 6.60064L20.8499 5.81713L20.5552 5.58344L19.9338 6.36696ZM20.2285 6.60064L19.6071 7.38416C19.8054 7.5414 20.0042 7.6979 20.2034 7.85367L20.8193 7.06584L21.4352 6.278C21.2396 6.1251 21.0445 5.97147 20.8499 5.81713L20.2285 6.60064ZM20.8193 7.06584L20.2034 7.85367L20.4996 8.08518L21.1154 7.29734L21.7313 6.50951L21.4352 6.278L20.8193 7.06584ZM21.1154 7.29734L20.4996 8.08518L20.7957 8.31668L21.4116 7.52885L22.0275 6.74101L21.7313 6.50951L21.1154 7.29734ZM21.4116 7.52885L20.7957 8.31668C21.027 8.49747 21.2689 8.6627 21.5214 8.81222L22.031 7.95178L22.5405 7.09134C22.362 6.98563 22.1911 6.8689 22.0275 6.74101L21.4116 7.52885ZM22.031 7.95178L21.5214 8.81222L21.8447 9.00364L22.3542 8.14321L22.8638 7.28277L22.5405 7.09134L22.031 7.95178ZM22.3542 8.14321L21.8447 9.00364L22.1679 9.19507L22.6775 8.33463L23.187 7.47419L22.8638 7.28277L22.3542 8.14321ZM22.6775 8.33463L22.1679 9.19507C22.3894 9.32623 22.6124 9.45515 22.8368 9.58184L23.3283 8.71099L23.8199 7.84013C23.6075 7.72025 23.3965 7.59827 23.187 7.47419L22.6775 8.33463ZM23.3283 8.71099L22.8368 9.58184L23.1644 9.76677L23.656 8.89592L24.1475 8.02506L23.8199 7.84013L23.3283 8.71099ZM23.656 8.89592L23.1644 9.76677L23.4921 9.9517L23.9836 9.08085L24.4752 8.20999L24.1475 8.02506L23.656 8.89592ZM23.9836 9.08085L23.4921 9.9517C23.5835 10.0033 23.658 10.0695 23.7219 10.1582L24.5331 9.57339L25.3442 8.98853C25.1124 8.6671 24.8206 8.40496 24.4752 8.20999L23.9836 9.08085ZM24.5331 9.57339L23.7219 10.1582L23.9437 10.4659L24.7549 9.881L25.566 9.29614L25.3442 8.98853L24.5331 9.57339ZM24.7549 9.881L23.9437 10.4659L24.1655 10.7735L24.9767 10.1886L25.7878 9.60375L25.566 9.29614L24.7549 9.881ZM24.9767 10.1886L24.1655 10.7735C24.2318 10.8653 24.2762 10.9316 24.3036 10.976C24.3171 10.9978 24.3231 11.0088 24.3241 11.0107C24.3264 11.0151 24.3155 10.9954 24.302 10.958L25.2426 10.6185L26.1832 10.2791C26.0986 10.0447 25.923 9.79126 25.7878 9.60375L24.9767 10.1886ZM25.2426 10.6185L24.302 10.958L24.3461 11.0803L25.2867 10.7408L26.2274 10.4014L26.1832 10.2791L25.2426 10.6185ZM25.2867 10.7408L24.3461 11.0803L24.3902 11.2026L25.3309 10.8631L26.2715 10.5236L26.2274 10.4014L25.2867 10.7408ZM25.3309 10.8631L24.3902 11.2026C24.3667 11.1373 24.355 11.0804 24.349 11.0382C24.343 10.9956 24.3417 10.9611 24.3418 10.9376C24.3418 10.9138 24.3433 10.8961 24.3443 10.8861C24.3454 10.8759 24.3464 10.8704 24.3464 10.8703C24.3465 10.8701 24.3458 10.8736 24.344 10.8811C24.3423 10.8885 24.3396 10.8989 24.3357 10.9125C24.3277 10.94 24.316 10.9767 24.2993 11.0234L25.2408 11.3604L26.1823 11.6973C26.2363 11.5465 26.2857 11.3852 26.3144 11.2268C26.3363 11.1059 26.3798 10.8239 26.2715 10.5236L25.3309 10.8631ZM25.2408 11.3604L24.2993 11.0234L24.1651 11.3984L25.1066 11.7354L26.0481 12.0723L26.1823 11.6973L25.2408 11.3604Z" fill="#5A5A62"/>
</svg>
