<svg width="29" height="28" viewBox="0 0 29 28" fill="none" xmlns="http://www.w3.org/2000/svg">
<path d="M23.0581 25.3263L23.1698 26.32L23.0581 25.3263ZM22.3081 25.423L22.4523 26.4126L22.3081 25.423ZM21.5581 25.5323L21.4139 24.5428L21.5581 25.5323ZM20.8081 25.405L21.2446 24.5053L20.8081 25.405ZM20.0581 25.0412L19.6216 25.9409L20.0581 25.0412ZM19.3081 25.0302L19.7229 25.9401L19.3081 25.0302ZM18.9331 25.2011L18.5183 24.2912L18.9331 25.2011ZM18.5581 25.3721L18.1433 24.4621L18.5581 25.3721ZM17.8081 25.368L17.3853 26.2742L17.8081 25.368ZM17.4331 25.193L17.8559 24.2868L17.4331 25.193ZM17.0581 25.0181L16.6353 25.9243L17.0581 25.0181ZM16.3081 25.0137L16.7222 25.9239L16.3081 25.0137ZM15.9331 25.1843L15.519 24.2741L15.9331 25.1843ZM15.5581 25.3549L15.144 24.4447L15.5581 25.3549ZM14.8081 25.3583L14.4008 26.2716L14.8081 25.3583ZM14.4331 25.1911L14.8404 24.2778L14.4331 25.1911ZM14.0581 25.0239L14.4654 24.1106L14.0581 25.0239ZM13.3081 25.0569L13.7791 25.939L13.3081 25.0569ZM12.9331 25.2571L12.4621 24.3749L12.9331 25.2571ZM12.5581 25.4573L12.0871 24.5751L12.5581 25.4573ZM11.8081 25.6657L11.83 26.6654L11.8081 25.6657ZM11.4331 25.6739L11.4112 24.6741L11.4331 25.6739ZM11.0581 25.6821L11.08 26.6819L11.0581 25.6821ZM8.80809 25.4303L8.28211 26.2808L8.80809 25.4303ZM8.43309 25.1984L8.95907 24.3479L8.43309 25.1984ZM8.05809 24.9664L7.53211 25.8169L8.05809 24.9664ZM5.80809 25.381L5.9235 24.3877L5.80809 25.381ZM5.05809 25.2938L4.94268 26.2872L5.05809 25.2938ZM4.27336 25.2068L4.37893 24.2124L4.27336 25.2068ZM3.86363 25.1633L3.75806 26.1577L3.86363 25.1633ZM3.45391 25.1198L3.55947 24.1254L3.45391 25.1198ZM2.93947 24.6627L3.90888 24.4173L2.93947 24.6627ZM2.73004 23.8355L1.76063 24.0809L2.73004 23.8355ZM2.76106 23.0563L3.69852 23.4044L2.76106 23.0563ZM2.89678 22.6908L3.83424 23.0389L2.89678 22.6908ZM3.0325 22.3253L2.09503 21.9772L3.0325 22.3253ZM3.69886 20.1115L2.8844 19.5313L3.69886 20.1115ZM3.92535 19.7935L4.73981 20.3738L3.92535 19.7935ZM4.15183 19.4756L4.9663 20.0558L4.15183 19.4756ZM4.77306 19.0347L4.4755 18.08L4.77306 19.0347ZM5.56253 18.7886L5.26498 17.8339L5.56253 18.7886ZM6.22246 18.4111L6.9149 19.1325L6.22246 18.4111ZM6.48765 18.1565L7.1801 18.878L6.48765 18.1565ZM6.75285 17.902L6.0604 17.1805L6.75285 17.902ZM7.31072 17.3795L7.9861 18.1169L7.31072 17.3795ZM7.60341 17.1114L6.92804 16.3739L7.60341 17.1114ZM7.89609 16.8434L8.57147 17.5809L7.89609 16.8434ZM8.59584 16.6238L8.71397 15.6308L8.59584 16.6238ZM9.0029 16.6722L8.88477 17.6652L9.0029 16.6722ZM9.40997 16.7206L9.5281 15.7276L9.40997 16.7206ZM10.1559 16.5579L10.6847 17.4067L10.1559 16.5579ZM10.4948 16.3468L9.96604 15.498L10.4948 16.3468ZM10.8337 16.1357L11.3625 16.9844L10.8337 16.1357ZM11.555 15.9533L11.48 16.9505L11.555 15.9533ZM12.3197 16.0108L12.3947 15.0136L12.3197 16.0108ZM14.5692 16.2125L14.4606 17.2066L14.5692 16.2125ZM15.3078 16.2932L15.4163 15.2991L15.3078 16.2932ZM16.0442 16.3674L16.1362 15.3716L16.0442 16.3674ZM16.4113 16.4013L16.3193 17.3971L16.4113 16.4013ZM16.7784 16.4352L16.6864 17.431L16.7784 16.4352ZM17.498 16.5725L17.7792 15.6128L17.498 16.5725ZM18.2031 16.7791L18.4843 15.8194L18.2031 16.7791ZM18.9825 16.7805L18.7504 15.8078L18.9825 16.7805ZM19.4094 16.6786L19.6415 17.6513L19.4094 16.6786ZM20.5552 16.7536L21.2455 16.0301L20.5552 16.7536ZM20.8473 17.0323L21.5376 16.3088L20.8473 17.0323ZM21.1394 17.311L20.4491 18.0345L21.1394 17.311ZM21.77 17.7631L22.2259 16.873L21.77 17.7631ZM22.447 18.1098L21.9912 18.9999L22.447 18.1098ZM23.7184 18.9915L23.1136 19.7879L23.7184 18.9915ZM24.2354 19.5621L25.0868 19.0375L24.2354 19.5621ZM24.6476 20.231L23.7962 20.7556L24.6476 20.231ZM24.7032 21.8088L25.6959 21.9289L24.7032 21.8088ZM24.7557 22.5678L25.714 22.2823L24.7557 22.5678ZM24.9883 23.9096L25.9598 24.147L24.9883 23.9096ZM24.8378 24.5257L23.8664 24.2884L24.8378 24.5257ZM24.6177 24.9253L24.0836 24.0798L24.6177 24.9253ZM24.4728 25.0168L25.0069 25.8622L24.4728 25.0168ZM24.328 25.1083L24.862 25.9537L24.328 25.1083ZM23.8081 25.242L23.6964 24.2482L23.8081 25.242ZM18.2236 7.74553L17.2327 7.6107L18.2236 7.74553ZM18.1728 8.1184L19.1637 8.25323L18.1728 8.1184ZM17.4259 9.36796L16.6428 8.74607L17.4259 9.36796ZM16.9254 9.9095L16.2448 9.17685L16.9254 9.9095ZM16.3887 10.4081L17.0693 11.1408L16.3887 10.4081ZM15.7709 10.7853L15.4271 9.84626L15.7709 10.7853ZM14.3308 11.2375L14.1585 10.2525L14.3308 11.2375ZM13.9391 11.306L14.1113 12.2911L13.9391 11.306ZM13.5473 11.3745L13.7196 12.3596L13.5473 11.3745ZM12.7949 11.2689L12.3602 12.1695L12.7949 11.2689ZM12.4342 11.0948L11.9995 11.9953L12.4342 11.0948ZM12.0735 10.9207L12.5082 10.0201L12.0735 10.9207ZM11.476 10.4374L10.6821 11.0455L11.476 10.4374ZM11.0023 9.81904L10.2085 10.4271L11.0023 9.81904ZM10.5848 9.18093L11.4612 8.69934L10.5848 9.18093ZM10.2232 8.52305L9.34685 9.00464L10.2232 8.52305ZM9.92772 7.813L8.9702 8.10137L9.92772 7.813ZM9.84918 6.35377L10.6144 6.99752L9.84918 6.35377ZM10.3807 5.72191L11.146 6.36567L10.3807 5.72191ZM10.6979 4.98385L11.6906 5.10467L10.6979 4.98385ZM10.8007 4.13959L9.80798 4.01876L10.8007 4.13959ZM11.2168 3.541L10.7813 2.64081L11.2168 3.541ZM11.9463 3.18808L12.3818 4.08828L11.9463 3.18808ZM13.0688 2.87026L12.8854 1.88722L13.0688 2.87026ZM13.4477 2.79958L13.2643 1.81654L13.4477 2.79958ZM14.1732 2.87675L14.5656 1.95694L14.1732 2.87675ZM14.8664 3.17244L14.474 4.09226L14.8664 3.17244ZM15.5024 3.49312L14.9896 4.35166L15.5024 3.49312ZM16.0812 3.83878L16.5939 2.98024L16.0812 3.83878ZM16.6129 4.24462L17.306 3.52381L16.6129 4.24462ZM17.0975 4.71065L16.4044 5.43146L17.0975 4.71065ZM17.5941 5.22998L16.8464 5.89403L17.5941 5.22998ZM17.8484 5.51629L18.5961 4.85224L17.8484 5.51629ZM18.3831 6.31664L17.3896 6.4307L18.3831 6.31664ZM18.4354 6.77208L17.4419 6.88614L18.4354 6.77208ZM18.2743 7.37267L17.2834 7.23784L18.2743 7.37267ZM23.4331 25.2841L23.3214 24.2904L22.9464 24.3325L23.0581 25.3263L23.1698 26.32L23.5448 26.2778L23.4331 25.2841ZM23.0581 25.3263L22.9464 24.3325C22.6855 24.3618 22.4247 24.3955 22.1639 24.4335L22.3081 25.423L22.4523 26.4126C22.6915 26.3777 22.9307 26.3469 23.1698 26.32L23.0581 25.3263ZM22.3081 25.423L22.1639 24.4335L21.7889 24.4881L21.9331 25.4777L22.0773 26.4672L22.4523 26.4126L22.3081 25.423ZM21.9331 25.4777L21.7889 24.4881L21.4139 24.5428L21.5581 25.5323L21.7023 26.5219L22.0773 26.4672L21.9331 25.4777ZM21.5581 25.5323L21.4139 24.5428C21.3818 24.5474 21.3332 24.5483 21.2446 24.5053L20.8081 25.405L20.3716 26.3047C20.783 26.5043 21.2344 26.59 21.7023 26.5219L21.5581 25.5323ZM20.8081 25.405L21.2446 24.5053L20.8696 24.3234L20.4331 25.2231L19.9966 26.1228L20.3716 26.3047L20.8081 25.405ZM20.4331 25.2231L20.8696 24.3234L20.4946 24.1415L20.0581 25.0412L19.6216 25.9409L19.9966 26.1228L20.4331 25.2231ZM20.0581 25.0412L20.4946 24.1415C19.98 23.8918 19.418 23.8811 18.8933 24.1203L19.3081 25.0302L19.7229 25.9401C19.7261 25.9387 19.7219 25.9409 19.711 25.9433C19.6998 25.9458 19.6851 25.9476 19.6684 25.9474C19.6518 25.9471 19.6379 25.9449 19.6281 25.9424C19.6187 25.9401 19.6164 25.9384 19.6216 25.9409L20.0581 25.0412ZM19.3081 25.0302L18.8933 24.1203L18.5183 24.2912L18.9331 25.2011L19.3479 26.111L19.7229 25.9401L19.3081 25.0302ZM18.9331 25.2011L18.5183 24.2912L18.1433 24.4621L18.5581 25.3721L18.9729 26.282L19.3479 26.111L18.9331 25.2011ZM18.5581 25.3721L18.1433 24.4621C18.1389 24.4641 18.1416 24.4624 18.1509 24.4603C18.1604 24.4582 18.1734 24.4564 18.1885 24.4565C18.2036 24.4566 18.2163 24.4585 18.2253 24.4606C18.234 24.4627 18.236 24.4642 18.2309 24.4618L17.8081 25.368L17.3853 26.2742C17.8992 26.514 18.4553 26.5179 18.9729 26.282L18.5581 25.3721ZM17.8081 25.368L18.2309 24.4618L17.8559 24.2868L17.4331 25.193L17.0103 26.0992L17.3853 26.2742L17.8081 25.368ZM17.4331 25.193L17.8559 24.2868L17.4809 24.1119L17.0581 25.0181L16.6353 25.9243L17.0103 26.0992L17.4331 25.193ZM17.0581 25.0181L17.4809 24.1119C16.9673 23.8722 16.4115 23.868 15.894 24.1035L16.3081 25.0137L16.7222 25.9239C16.7266 25.9219 16.7239 25.9236 16.7147 25.9257C16.7052 25.9278 16.6923 25.9296 16.6773 25.9295C16.6623 25.9294 16.6496 25.9275 16.6407 25.9254C16.6321 25.9234 16.6301 25.9219 16.6353 25.9243L17.0581 25.0181ZM16.3081 25.0137L15.894 24.1035L15.519 24.2741L15.9331 25.1843L16.3472 26.0945L16.7222 25.9239L16.3081 25.0137ZM15.9331 25.1843L15.519 24.2741L15.144 24.4447L15.5581 25.3549L15.9722 26.2652L16.3472 26.0945L15.9331 25.1843ZM15.5581 25.3549L15.144 24.4447C15.1383 24.4473 15.1393 24.4462 15.1467 24.4445C15.1543 24.4428 15.1653 24.4412 15.1786 24.4411C15.1918 24.441 15.2031 24.4426 15.2111 24.4443C15.2189 24.446 15.2205 24.4473 15.2154 24.445L14.8081 25.3583L14.4008 26.2716C14.9134 26.5002 15.4625 26.4971 15.9722 26.2652L15.5581 25.3549ZM14.8081 25.3583L15.2154 24.445L14.8404 24.2778L14.4331 25.1911L14.0258 26.1044L14.4008 26.2716L14.8081 25.3583ZM14.4331 25.1911L14.8404 24.2778L14.4654 24.1106L14.0581 25.0239L13.6508 25.9372L14.0258 26.1044L14.4331 25.1911ZM14.0581 25.0239L14.4654 24.1106C13.9221 23.8683 13.3482 23.9019 12.8371 24.1747L13.3081 25.0569L13.7791 25.939C13.7898 25.9333 13.77 25.9456 13.727 25.9475C13.7072 25.9484 13.6888 25.9467 13.6735 25.9436C13.6586 25.9406 13.6508 25.9372 13.6508 25.9372L14.0581 25.0239ZM13.3081 25.0569L12.8371 24.1747L12.4621 24.3749L12.9331 25.2571L13.4041 26.1392L13.7791 25.939L13.3081 25.0569ZM12.9331 25.2571L12.4621 24.3749L12.0871 24.5751L12.5581 25.4573L13.0291 26.3394L13.4041 26.1392L12.9331 25.2571ZM12.5581 25.4573L12.0871 24.5751C11.9569 24.6446 11.8596 24.6643 11.7862 24.6659L11.8081 25.6657L11.83 26.6654C12.2566 26.6561 12.6593 26.5368 13.0291 26.3394L12.5581 25.4573ZM11.8081 25.6657L11.7862 24.6659L11.4112 24.6741L11.4331 25.6739L11.455 26.6737L11.83 26.6654L11.8081 25.6657ZM11.4331 25.6739L11.4112 24.6741L11.0362 24.6823L11.0581 25.6821L11.08 26.6819L11.455 26.6737L11.4331 25.6739ZM11.0581 25.6821L11.0362 24.6823C10.7997 24.6875 10.5633 24.6879 10.3268 24.6835L10.3081 25.6833L10.2893 26.6831C10.5529 26.688 10.8164 26.6876 11.08 26.6819L11.0581 25.6821ZM10.3081 25.6833L10.3268 24.6835L9.95184 24.6764L9.93309 25.6762L9.91434 26.6761L10.2893 26.6831L10.3081 25.6833ZM9.93309 25.6762L9.95184 24.6764L9.57684 24.6694L9.55809 25.6692L9.53934 26.669L9.91434 26.6761L9.93309 25.6762ZM9.55809 25.6692L9.57684 24.6694C9.53559 24.6686 9.45851 24.6567 9.33407 24.5798L8.80809 25.4303L8.28211 26.2808C8.65767 26.513 9.08058 26.6604 9.53934 26.669L9.55809 25.6692ZM8.80809 25.4303L9.33407 24.5798L8.95907 24.3479L8.43309 25.1984L7.90711 26.0488L8.28211 26.2808L8.80809 25.4303ZM8.43309 25.1984L8.95907 24.3479L8.58407 24.1159L8.05809 24.9664L7.53211 25.8169L7.90711 26.0488L8.43309 25.1984ZM8.05809 24.9664L8.58407 24.1159C8.07217 23.7994 7.46855 23.7325 6.89016 23.9985L7.30809 24.907L7.72601 25.8155C7.71116 25.8223 7.66582 25.8374 7.60413 25.8325C7.54542 25.8279 7.5191 25.8089 7.53211 25.8169L8.05809 24.9664ZM7.30809 24.907L6.89016 23.9985L6.51516 24.1711L6.93309 25.0795L7.35101 25.988L7.72601 25.8155L7.30809 24.907ZM6.93309 25.0795L6.51516 24.1711L6.14016 24.3436L6.55809 25.252L6.97601 26.1605L7.35101 25.988L6.93309 25.0795ZM6.55809 25.252L6.14016 24.3436C6.04071 24.3893 5.97448 24.3936 5.9235 24.3877L5.80809 25.381L5.69268 26.3743C6.14169 26.4265 6.57546 26.3448 6.97601 26.1605L6.55809 25.252ZM5.80809 25.381L5.9235 24.3877L5.5485 24.3441L5.43309 25.3374L5.31768 26.3307L5.69268 26.3743L5.80809 25.381ZM5.43309 25.3374L5.5485 24.3441L5.1735 24.3005L5.05809 25.2938L4.94268 26.2872L5.31768 26.3307L5.43309 25.3374ZM5.05809 25.2938L5.1735 24.3005C4.91994 24.2711 4.65507 24.2417 4.37893 24.2124L4.27336 25.2068L4.16779 26.2012C4.43795 26.2299 4.69624 26.2585 4.94268 26.2872L5.05809 25.2938ZM4.27336 25.2068L4.37893 24.2124L3.9692 24.1689L3.86363 25.1633L3.75806 26.1577L4.16779 26.2012L4.27336 25.2068ZM3.86363 25.1633L3.9692 24.1689L3.55947 24.1254L3.45391 25.1198L3.34834 26.1142L3.75806 26.1577L3.86363 25.1633ZM3.45391 25.1198L3.55947 24.1254C3.58839 24.1284 3.68568 24.1483 3.78465 24.2362C3.88111 24.3219 3.9065 24.4079 3.90888 24.4173L2.93947 24.6627L1.97005 24.9081C2.04224 25.1933 2.18828 25.4932 2.45621 25.7313C2.72666 25.9716 3.04626 26.0821 3.34834 26.1142L3.45391 25.1198ZM2.93947 24.6627L3.90888 24.4173L3.80417 24.0037L2.83476 24.2491L1.86534 24.4945L1.97005 24.9081L2.93947 24.6627ZM2.83476 24.2491L3.80417 24.0037L3.69946 23.5901L2.73004 23.8355L1.76063 24.0809L1.86534 24.4945L2.83476 24.2491ZM2.73004 23.8355L3.69946 23.5901C3.67449 23.4914 3.68525 23.4402 3.69852 23.4044L2.76106 23.0563L1.82359 22.7083C1.6559 23.1599 1.64598 23.628 1.76063 24.0809L2.73004 23.8355ZM2.76106 23.0563L3.69852 23.4044L3.83424 23.0389L2.89678 22.6908L1.95931 22.3427L1.82359 22.7083L2.76106 23.0563ZM2.89678 22.6908L3.83424 23.0389L3.96996 22.6734L3.0325 22.3253L2.09503 21.9772L1.95931 22.3427L2.89678 22.6908ZM3.0325 22.3253L3.96996 22.6734C4.07895 22.3799 4.16403 22.0793 4.22508 21.7721L3.24426 21.5772L2.26344 21.3822C2.2231 21.5852 2.16701 21.7834 2.09503 21.9772L3.0325 22.3253ZM3.24426 21.5772L4.22508 21.7721L4.30112 21.3895L3.3203 21.1946L2.33948 20.9996L2.26344 21.3822L3.24426 21.5772ZM3.3203 21.1946L4.30112 21.3895L4.37715 21.0069L3.39634 20.812L2.41552 20.617L2.33948 20.9996L3.3203 21.1946ZM3.39634 20.812L4.37715 21.0069C4.40025 20.8907 4.44436 20.7885 4.51333 20.6917L3.69886 20.1115L2.8844 19.5313C2.65139 19.8583 2.49381 20.2231 2.41552 20.617L3.39634 20.812ZM3.69886 20.1115L4.51333 20.6917L4.73981 20.3738L3.92535 19.7935L3.11089 19.2133L2.8844 19.5313L3.69886 20.1115ZM3.92535 19.7935L4.73981 20.3738L4.9663 20.0558L4.15183 19.4756L3.33737 18.8954L3.11089 19.2133L3.92535 19.7935ZM4.15183 19.4756L4.9663 20.0558C4.98273 20.0328 5.00284 20.0105 5.07061 19.9894L4.77306 19.0347L4.4755 18.08C4.01695 18.2229 3.62292 18.4946 3.33737 18.8954L4.15183 19.4756ZM4.77306 19.0347L5.07061 19.9894L5.46534 19.8663L5.16779 18.9116L4.87024 17.9569L4.4755 18.08L4.77306 19.0347ZM5.16779 18.9116L5.46534 19.8663L5.86008 19.7433L5.56253 18.7886L5.26498 17.8339L4.87024 17.9569L5.16779 18.9116ZM5.56253 18.7886L5.86008 19.7433C6.25253 19.621 6.61305 19.4222 6.9149 19.1325L6.22246 18.4111L5.53002 17.6896C5.47828 17.7392 5.39885 17.7922 5.26498 17.8339L5.56253 18.7886ZM6.22246 18.4111L6.9149 19.1325L7.1801 18.878L6.48765 18.1565L5.79521 17.4351L5.53002 17.6896L6.22246 18.4111ZM6.48765 18.1565L7.1801 18.878L7.44529 18.6235L6.75285 17.902L6.0604 17.1805L5.79521 17.4351L6.48765 18.1565ZM6.75285 17.902L7.44529 18.6235C7.61604 18.4596 7.79628 18.2908 7.9861 18.1169L7.31072 17.3795L6.63535 16.642C6.43493 16.8255 6.24325 17.0051 6.0604 17.1805L6.75285 17.902ZM7.31072 17.3795L7.9861 18.1169L8.27878 17.8489L7.60341 17.1114L6.92804 16.3739L6.63535 16.642L7.31072 17.3795ZM7.60341 17.1114L8.27878 17.8489L8.57147 17.5809L7.89609 16.8434L7.22072 16.1059L6.92804 16.3739L7.60341 17.1114ZM7.89609 16.8434L8.57147 17.5809C8.57192 17.5804 8.56706 17.5849 8.55647 17.5912C8.54567 17.5975 8.5321 17.6038 8.51681 17.6086C8.48346 17.619 8.46578 17.6154 8.47771 17.6168L8.59584 16.6238L8.71397 15.6308C8.16441 15.5654 7.63851 15.7233 7.22072 16.1059L7.89609 16.8434ZM8.59584 16.6238L8.47771 17.6168L8.88477 17.6652L9.0029 16.6722L9.12104 15.6792L8.71397 15.6308L8.59584 16.6238ZM9.0029 16.6722L8.88477 17.6652L9.29184 17.7136L9.40997 16.7206L9.5281 15.7276L9.12104 15.6792L9.0029 16.6722ZM9.40997 16.7206L9.29184 17.7136C9.78245 17.772 10.2603 17.6711 10.6847 17.4067L10.1559 16.5579L9.62715 15.7092C9.5997 15.7263 9.58024 15.7338 9.5281 15.7276L9.40997 16.7206ZM10.1559 16.5579L10.6847 17.4067L11.0236 17.1955L10.4948 16.3468L9.96604 15.498L9.62715 15.7092L10.1559 16.5579ZM10.4948 16.3468L11.0236 17.1955L11.3625 16.9844L10.8337 16.1357L10.3049 15.2869L9.96604 15.498L10.4948 16.3468ZM10.8337 16.1357L11.3625 16.9844C11.416 16.9511 11.4461 16.9479 11.48 16.9505L11.555 15.9533L11.63 14.9561C11.154 14.9203 10.7033 15.0387 10.3049 15.2869L10.8337 16.1357ZM11.555 15.9533L11.48 16.9505L11.8623 16.9792L11.9373 15.982L12.0123 14.9849L11.63 14.9561L11.555 15.9533ZM11.9373 15.982L11.8623 16.9792L12.2447 17.008L12.3197 16.0108L12.3947 15.0136L12.0123 14.9849L11.9373 15.982ZM12.3197 16.0108L12.2447 17.008C12.4952 17.0268 12.7431 17.0471 12.9883 17.0688L13.0765 16.0727L13.1647 15.0766C12.9106 15.0541 12.6539 15.0331 12.3947 15.0136L12.3197 16.0108ZM13.0765 16.0727L12.9883 17.0688L13.3627 17.102L13.4509 16.1059L13.5392 15.1098L13.1647 15.0766L13.0765 16.0727ZM13.4509 16.1059L13.3627 17.102L13.7372 17.1352L13.8254 16.1391L13.9136 15.143L13.5392 15.1098L13.4509 16.1059ZM13.8254 16.1391L13.7372 17.1352C13.9801 17.1567 14.2213 17.1805 14.4606 17.2066L14.5692 16.2125L14.6777 15.2184C14.4246 15.1908 14.1699 15.1657 13.9136 15.143L13.8254 16.1391ZM14.5692 16.2125L14.4606 17.2066L14.83 17.247L14.9385 16.2529L15.047 15.2588L14.6777 15.2184L14.5692 16.2125ZM14.9385 16.2529L14.83 17.247L15.1993 17.2873L15.3078 16.2932L15.4163 15.2991L15.047 15.2588L14.9385 16.2529ZM15.3078 16.2932L15.1993 17.2873C15.451 17.3147 15.7019 17.34 15.9522 17.3632L16.0442 16.3674L16.1362 15.3716C15.8971 15.3495 15.6571 15.3254 15.4163 15.2991L15.3078 16.2932ZM16.0442 16.3674L15.9522 17.3632L16.3193 17.3971L16.4113 16.4013L16.5033 15.4056L16.1362 15.3716L16.0442 16.3674ZM16.4113 16.4013L16.3193 17.3971L16.6864 17.431L16.7784 16.4352L16.8704 15.4395L16.5033 15.4056L16.4113 16.4013ZM16.7784 16.4352L16.6864 17.431C16.8672 17.4477 17.0437 17.4814 17.2168 17.5321L17.498 16.5725L17.7792 15.6128C17.4822 15.5258 17.179 15.468 16.8704 15.4395L16.7784 16.4352ZM17.498 16.5725L17.2168 17.5321L17.5694 17.6354L17.8506 16.6758L18.1318 15.7161L17.7792 15.6128L17.498 16.5725ZM17.8506 16.6758L17.5694 17.6354L17.9219 17.7387L18.2031 16.7791L18.4843 15.8194L18.1318 15.7161L17.8506 16.6758ZM18.2031 16.7791L17.9219 17.7387C18.3538 17.8653 18.7937 17.8536 19.2146 17.7532L18.9825 16.7805L18.7504 15.8078C18.6022 15.8432 18.5225 15.8306 18.4843 15.8194L18.2031 16.7791ZM18.9825 16.7805L19.2146 17.7532L19.6415 17.6513L19.4094 16.6786L19.1772 15.706L18.7504 15.8078L18.9825 16.7805ZM19.4094 16.6786L19.6415 17.6513L20.0683 17.5495L19.8362 16.5768L19.6041 15.6041L19.1772 15.706L19.4094 16.6786ZM19.8362 16.5768L20.0683 17.5495C20.0843 17.5456 20.0516 17.5561 19.9905 17.5411C19.9257 17.5252 19.882 17.4935 19.8649 17.4771L20.5552 16.7536L21.2455 16.0301C20.781 15.587 20.1843 15.4656 19.6041 15.6041L19.8362 16.5768ZM20.5552 16.7536L19.8649 17.4771L20.157 17.7558L20.8473 17.0323L21.5376 16.3088L21.2455 16.0301L20.5552 16.7536ZM20.8473 17.0323L20.157 17.7558L20.4491 18.0345L21.1394 17.311L21.8297 16.5875L21.5376 16.3088L20.8473 17.0323ZM21.1394 17.311L20.4491 18.0345C20.7093 18.2827 20.9976 18.491 21.3142 18.6531L21.77 17.7631L22.2259 16.873C22.0911 16.804 21.959 16.7108 21.8297 16.5875L21.1394 17.311ZM21.77 17.7631L21.3142 18.6531L21.6527 18.8265L22.1085 17.9364L22.5644 17.0464L22.2259 16.873L21.77 17.7631ZM22.1085 17.9364L21.6527 18.8265L21.9912 18.9999L22.447 18.1098L22.9029 17.2198L22.5644 17.0464L22.1085 17.9364ZM22.447 18.1098L21.9912 18.9999C22.1632 19.088 22.33 19.1929 22.4917 19.3157L23.0965 18.5193L23.7012 17.7229C23.4484 17.5309 23.1822 17.3628 22.9029 17.2198L22.447 18.1098ZM23.0965 18.5193L22.4917 19.3157L22.8027 19.5518L23.4074 18.7554L24.0122 17.959L23.7012 17.7229L23.0965 18.5193ZM23.4074 18.7554L22.8027 19.5518L23.1136 19.7879L23.7184 18.9915L24.3231 18.1951L24.0122 17.959L23.4074 18.7554ZM23.7184 18.9915L23.1136 19.7879C23.222 19.8702 23.311 19.9681 23.384 20.0867L24.2354 19.5621L25.0868 19.0375C24.885 18.7101 24.6293 18.4276 24.3231 18.1951L23.7184 18.9915ZM24.2354 19.5621L23.384 20.0867L23.5901 20.4211L24.4415 19.8965L25.2928 19.3719L25.0868 19.0375L24.2354 19.5621ZM24.4415 19.8965L23.5901 20.4211L23.7962 20.7556L24.6476 20.231L25.4989 19.7064L25.2928 19.3719L24.4415 19.8965ZM24.6476 20.231L23.7962 20.7556C23.8071 20.7732 23.8188 20.793 23.8107 20.8597L24.8035 20.9799L25.7963 21.1C25.8551 20.6141 25.7628 20.1346 25.4989 19.7064L24.6476 20.231ZM24.8035 20.9799L23.8107 20.8597L23.7606 21.2742L24.7533 21.3943L25.7461 21.5145L25.7963 21.1L24.8035 20.9799ZM24.7533 21.3943L23.7606 21.2742L23.7104 21.6886L24.7032 21.8088L25.6959 21.9289L25.7461 21.5145L24.7533 21.3943ZM24.7032 21.8088L23.7104 21.6886C23.6631 22.0794 23.6839 22.4727 23.7973 22.8533L24.7557 22.5678L25.714 22.2823C25.6906 22.2035 25.6763 22.0908 25.6959 21.9289L24.7032 21.8088ZM24.7557 22.5678L23.7973 22.8533L23.8999 23.1979L24.8583 22.9124L25.8167 22.6269L25.714 22.2823L24.7557 22.5678ZM24.8583 22.9124L23.8999 23.1979L24.0026 23.5425L24.961 23.257L25.9193 22.9715L25.8167 22.6269L24.8583 22.9124ZM24.961 23.257L24.0026 23.5425C24.0273 23.6253 24.0196 23.6613 24.0169 23.6723L24.9883 23.9096L25.9598 24.147C26.0575 23.7472 26.0315 23.348 25.9193 22.9715L24.961 23.257ZM24.9883 23.9096L24.0169 23.6723L23.9417 23.9803L24.9131 24.2177L25.8845 24.455L25.9598 24.147L24.9883 23.9096ZM24.9131 24.2177L23.9417 23.9803L23.8664 24.2884L24.8378 24.5257L25.8092 24.7631L25.8845 24.455L24.9131 24.2177ZM24.8378 24.5257L23.8664 24.2884C23.8547 24.3361 23.8505 24.3311 23.8693 24.2971C23.8881 24.263 23.9497 24.1645 24.0836 24.0798L24.6177 24.9253L25.1517 25.7707C25.5912 25.4931 25.7445 25.0281 25.8092 24.7631L24.8378 24.5257ZM24.6177 24.9253L24.0836 24.0798L23.9388 24.1713L24.4728 25.0168L25.0069 25.8622L25.1517 25.7707L24.6177 24.9253ZM24.4728 25.0168L23.9388 24.1713L23.7939 24.2628L24.328 25.1083L24.862 25.9537L25.0069 25.8622L24.4728 25.0168ZM24.328 25.1083L23.7939 24.2628C23.8355 24.2365 23.8663 24.2238 23.8769 24.2197C23.8883 24.2152 23.8894 24.2157 23.8766 24.219C23.849 24.226 23.7921 24.2375 23.6964 24.2482L23.8081 25.242L23.9198 26.2357C24.1813 26.2063 24.5569 26.1465 24.862 25.9537L24.328 25.1083ZM23.8081 25.242L23.6964 24.2482L23.3214 24.2904L23.4331 25.2841L23.5448 26.2778L23.9198 26.2357L23.8081 25.242ZM18.2236 7.74553L17.2327 7.6107L17.182 7.98357L18.1728 8.1184L19.1637 8.25323L19.2144 7.88036L18.2236 7.74553ZM18.1728 8.1184L17.182 7.98357C17.1722 8.05565 17.1489 8.10876 17.1069 8.16161L17.89 8.7835L18.6731 9.40539C18.9406 9.06859 19.1059 8.6783 19.1637 8.25323L18.1728 8.1184ZM17.89 8.7835L17.1069 8.16161L16.8749 8.45384L17.658 9.07573L18.4411 9.69762L18.6731 9.40539L17.89 8.7835ZM17.658 9.07573L16.8749 8.45384L16.6428 8.74607L17.4259 9.36796L18.209 9.98985L18.4411 9.69762L17.658 9.07573ZM17.4259 9.36796L16.6428 8.74607C16.5188 8.90218 16.3862 9.04557 16.2448 9.17685L16.9254 9.9095L17.606 10.6422C17.8226 10.441 18.0235 10.2234 18.209 9.98985L17.4259 9.36796ZM16.9254 9.9095L16.2448 9.17685L15.9765 9.42616L16.6571 10.1588L17.3377 10.8915L17.606 10.6422L16.9254 9.9095ZM16.6571 10.1588L15.9765 9.42616L15.7081 9.67548L16.3887 10.4081L17.0693 11.1408L17.3377 10.8915L16.6571 10.1588ZM16.3887 10.4081L15.7081 9.67548C15.6282 9.74969 15.5372 9.80597 15.4271 9.84626L15.7709 10.7853L16.1146 11.7244C16.4704 11.5942 16.7913 11.399 17.0693 11.1408L16.3887 10.4081ZM15.7709 10.7853L15.4271 9.84626L15.0777 9.97417L15.4214 10.9132L15.7651 11.8523L16.1146 11.7244L15.7709 10.7853ZM15.4214 10.9132L15.0777 9.97417L14.7282 10.1021L15.0719 11.0411L15.4157 11.9802L15.7651 11.8523L15.4214 10.9132ZM15.0719 11.0411L14.7282 10.1021C14.5546 10.1656 14.3652 10.2163 14.1585 10.2525L14.3308 11.2375L14.503 12.2226C14.8186 12.1674 15.1233 12.0872 15.4157 11.9802L15.0719 11.0411ZM14.3308 11.2375L14.1585 10.2525L13.7668 10.321L13.9391 11.306L14.1113 12.2911L14.503 12.2226L14.3308 11.2375ZM13.9391 11.306L13.7668 10.321L13.3751 10.3895L13.5473 11.3745L13.7196 12.3596L14.1113 12.2911L13.9391 11.306ZM13.5473 11.3745L13.3751 10.3895C13.3217 10.3988 13.2831 10.3941 13.2296 10.3683L12.7949 11.2689L12.3602 12.1695C12.7877 12.3758 13.2507 12.4416 13.7196 12.3596L13.5473 11.3745ZM12.7949 11.2689L13.2296 10.3683L12.8689 10.1942L12.4342 11.0948L11.9995 11.9953L12.3602 12.1695L12.7949 11.2689ZM12.4342 11.0948L12.8689 10.1942L12.5082 10.0201L12.0735 10.9207L11.6388 11.8212L11.9995 11.9953L12.4342 11.0948ZM12.0735 10.9207L12.5082 10.0201C12.4046 9.97006 12.3298 9.90753 12.2698 9.82928L11.476 10.4374L10.6821 11.0455C10.9379 11.3794 11.2615 11.6391 11.6388 11.8212L12.0735 10.9207ZM11.476 10.4374L12.2698 9.82928L12.033 9.52011L11.2392 10.1282L10.4453 10.7363L10.6821 11.0455L11.476 10.4374ZM11.2392 10.1282L12.033 9.52011L11.7962 9.21095L11.0023 9.81904L10.2085 10.4271L10.4453 10.7363L11.2392 10.1282ZM11.0023 9.81904L11.7962 9.21095C11.6678 9.04336 11.5565 8.87282 11.4612 8.69934L10.5848 9.18093L9.70837 9.66252C9.85405 9.92762 10.0211 10.1825 10.2085 10.4271L11.0023 9.81904ZM10.5848 9.18093L11.4612 8.69934L11.2804 8.3704L10.404 8.85199L9.52761 9.33358L9.70837 9.66252L10.5848 9.18093ZM10.404 8.85199L11.2804 8.3704L11.0996 8.04145L10.2232 8.52305L9.34685 9.00464L9.52761 9.33358L10.404 8.85199ZM10.2232 8.52305L11.0996 8.04145C11.0148 7.88713 10.9428 7.71566 10.8852 7.52464L9.92772 7.813L8.9702 8.10137C9.0657 8.41848 9.19065 8.72038 9.34685 9.00464L10.2232 8.52305ZM9.92772 7.813L10.8852 7.52464L10.7705 7.14353L9.81295 7.4319L8.85543 7.72027L8.9702 8.10137L9.92772 7.813ZM9.81295 7.4319L10.7705 7.14353L10.6557 6.76243L9.69817 7.0508L8.74065 7.33916L8.85543 7.72027L9.81295 7.4319ZM9.69817 7.0508L10.6557 6.76243C10.6605 6.77851 10.6706 6.82964 10.6559 6.89772C10.6415 6.96412 10.614 6.99799 10.6144 6.99752L9.84918 6.35377L9.08395 5.71001C8.6992 6.16737 8.5625 6.7476 8.74065 7.33916L9.69817 7.0508ZM9.84918 6.35377L10.6144 6.99752L10.8802 6.68159L10.115 6.03784L9.34973 5.39408L9.08395 5.71001L9.84918 6.35377ZM10.115 6.03784L10.8802 6.68159L11.146 6.36567L10.3807 5.72191L9.6155 5.07815L9.34973 5.39408L10.115 6.03784ZM10.3807 5.72191L11.146 6.36567C11.452 6.00186 11.6336 5.57267 11.6906 5.10467L10.6979 4.98385L9.70522 4.86302C9.69367 4.95787 9.66382 5.02072 9.6155 5.07815L10.3807 5.72191ZM10.6979 4.98385L11.6906 5.10467L11.7419 4.68254L10.7493 4.56172L9.7566 4.44089L9.70522 4.86302L10.6979 4.98385ZM10.7493 4.56172L11.7419 4.68254L11.7933 4.26041L10.8007 4.13959L9.80798 4.01876L9.7566 4.44089L10.7493 4.56172ZM10.8007 4.13959L11.7933 4.26041C11.7941 4.25442 11.7895 4.29498 11.7515 4.34968C11.7121 4.40628 11.6677 4.4337 11.6523 4.44119L11.2168 3.541L10.7813 2.64081C10.2141 2.91518 9.88088 3.41981 9.80798 4.01876L10.8007 4.13959ZM11.2168 3.541L11.6523 4.44119L12.017 4.26473L11.5815 3.36454L11.146 2.46435L10.7813 2.64081L11.2168 3.541ZM11.5815 3.36454L12.017 4.26473L12.3818 4.08828L11.9463 3.18808L11.5108 2.28789L11.146 2.46435L11.5815 3.36454ZM11.9463 3.18808L12.3818 4.08828C12.5491 4.00735 12.7124 3.954 12.8733 3.92399L12.6899 2.94095L12.5065 1.9579C12.1622 2.02213 11.8298 2.13354 11.5108 2.28789L11.9463 3.18808ZM12.6899 2.94095L12.8733 3.92399L13.2522 3.85331L13.0688 2.87026L12.8854 1.88722L12.5065 1.9579L12.6899 2.94095ZM13.0688 2.87026L13.2522 3.85331L13.6311 3.78263L13.4477 2.79958L13.2643 1.81654L12.8854 1.88722L13.0688 2.87026ZM13.4477 2.79958L13.6311 3.78263C13.6944 3.77081 13.7356 3.77727 13.7808 3.79656L14.1732 2.87675L14.5656 1.95694C14.1487 1.7791 13.7062 1.73412 13.2643 1.81654L13.4477 2.79958ZM14.1732 2.87675L13.7808 3.79656L14.1274 3.94441L14.5198 3.0246L14.9122 2.10478L14.5656 1.95694L14.1732 2.87675ZM14.5198 3.0246L14.1274 3.94441L14.474 4.09226L14.8664 3.17244L15.2588 2.25263L14.9122 2.10478L14.5198 3.0246ZM14.8664 3.17244L14.474 4.09226C14.6684 4.17516 14.8396 4.26207 14.9896 4.35166L15.5024 3.49312L16.0151 2.63458C15.7793 2.49373 15.5265 2.36685 15.2588 2.25263L14.8664 3.17244ZM15.5024 3.49312L14.9896 4.35166L15.279 4.52449L15.7918 3.66595L16.3045 2.80741L16.0151 2.63458L15.5024 3.49312ZM15.7918 3.66595L15.279 4.52449L15.5684 4.69732L16.0812 3.83878L16.5939 2.98024L16.3045 2.80741L15.7918 3.66595ZM16.0812 3.83878L15.5684 4.69732C15.6964 4.77373 15.813 4.86284 15.9197 4.96543L16.6129 4.24462L17.306 3.52381C17.0896 3.31572 16.8518 3.13427 16.5939 2.98024L16.0812 3.83878ZM16.6129 4.24462L15.9197 4.96543L16.162 5.19844L16.8552 4.47763L17.5483 3.75682L17.306 3.52381L16.6129 4.24462ZM16.8552 4.47763L16.162 5.19844L16.4044 5.43146L17.0975 4.71065L17.7906 3.98984L17.5483 3.75682L16.8552 4.47763ZM17.0975 4.71065L16.4044 5.43146C16.5446 5.56631 16.692 5.72014 16.8464 5.89403L17.5941 5.22998L18.3418 4.56592C18.1572 4.35806 17.9735 4.16567 17.7906 3.98984L17.0975 4.71065ZM17.5941 5.22998L16.8464 5.89403L17.1007 6.18034L17.8484 5.51629L18.5961 4.85224L18.3418 4.56592L17.5941 5.22998ZM17.8484 5.51629L17.1007 6.18034L17.355 6.46666L18.1027 5.80261L18.8504 5.13855L18.5961 4.85224L17.8484 5.51629ZM18.1027 5.80261L17.355 6.46666C17.3786 6.49322 17.3952 6.51423 17.4064 6.52964C17.4119 6.53724 17.4158 6.54308 17.4184 6.54715C17.421 6.55122 17.4221 6.55323 17.4221 6.55319C17.4221 6.55314 17.4207 6.55072 17.4186 6.54595C17.4165 6.54118 17.4134 6.53375 17.4099 6.52373C17.4031 6.50374 17.3944 6.47227 17.3896 6.4307L18.3831 6.31664L19.3766 6.20259C19.3247 5.75046 19.0738 5.39011 18.8504 5.13855L18.1027 5.80261ZM18.3831 6.31664L17.3896 6.4307L17.4158 6.65842L18.4093 6.54436L19.4027 6.43031L19.3766 6.20259L18.3831 6.31664ZM18.4093 6.54436L17.4158 6.65842L17.4419 6.88614L18.4354 6.77208L19.4289 6.65803L19.4027 6.43031L18.4093 6.54436ZM18.4354 6.77208L17.4419 6.88614C17.4494 6.95155 17.4457 6.9476 17.4471 6.90785C17.4473 6.9005 17.4489 6.79829 17.4924 6.66813C17.5142 6.60321 17.5701 6.4572 17.7043 6.3136C17.8617 6.14501 18.1129 5.9998 18.4274 5.9998V6.9998V7.9998C19.1388 7.9998 19.3645 7.3763 19.389 7.30301C19.4389 7.15388 19.4443 7.0232 19.4459 6.9779C19.4499 6.86224 19.4388 6.74443 19.4289 6.65803L18.4354 6.77208ZM18.4274 6.9998V5.9998H18.3933V6.9998V7.9998H18.4274V6.9998ZM18.3933 6.9998V5.9998H18.3592V6.9998V7.9998H18.3933V6.9998ZM18.3592 6.9998V5.9998C17.8806 5.9998 17.6192 6.31674 17.5606 6.39221C17.4766 6.50034 17.433 6.60193 17.416 6.64325C17.3776 6.73688 17.3564 6.82487 17.3458 6.8711C17.3216 6.97776 17.3013 7.10652 17.2834 7.23784L18.2743 7.37267L19.2652 7.5075C19.2811 7.39024 19.2919 7.33257 19.296 7.31494C19.2996 7.29903 19.2918 7.34041 19.2661 7.40296C19.2555 7.42875 19.2181 7.51868 19.1401 7.61905C19.0875 7.68676 18.8321 7.9998 18.3592 7.9998V6.9998ZM18.2743 7.37267L17.2834 7.23784L17.2327 7.6107L18.2236 7.74553L19.2144 7.88036L19.2652 7.5075L18.2743 7.37267Z" fill="#5A5A62"/>
</svg>
