<svg width="29" height="28" viewBox="0 0 29 28" fill="none" xmlns="http://www.w3.org/2000/svg">
<path d="M21.0683 19.1615C20.6713 18.7775 20.0382 18.788 19.6542 19.1849C19.2702 19.5818 19.2807 20.2149 19.6777 20.5989L21.0683 19.1615ZM20.4448 19.9497L19.7495 20.6684L19.8149 20.7317L19.8907 20.7822L20.4448 19.9497ZM21.0373 20.3441L20.4832 21.1765L21.0373 20.3441ZM21.8958 21.0027L22.6005 20.2933L21.8958 21.0027ZM22.4279 21.5313L21.7232 22.2408L22.4279 21.5313ZM22.9047 22.1172L23.7412 21.5693L22.9047 22.1172ZM23.1153 22.4388L22.2788 22.9868L23.1153 22.4388ZM23.326 22.7604L22.4895 23.3083L23.326 22.7604ZM23.8119 23.2065L24.2242 22.2955L23.8119 23.2065ZM24.3625 23.4557L23.9502 24.3667L24.3625 23.4557ZM24.5845 23.6352L23.8658 22.9399L24.5845 23.6352ZM24.5313 23.6902L24.7526 24.6654L25.043 24.5996L25.2501 24.3855L24.5313 23.6902ZM24.3531 23.7307L24.1318 22.7554L22.3295 23.1643L23.6578 24.4494L24.3531 23.7307ZM23.7296 24.5189C24.1266 24.9029 24.7597 24.8924 25.1437 24.4955C25.5277 24.0986 25.5172 23.4655 25.1203 23.0815L23.7296 24.5189ZM23.2512 14.1256L22.2654 14.2938L23.2512 14.1256ZM23.3176 14.515L24.3034 14.3468L23.3176 14.515ZM23.2349 15.265L22.3108 14.8828L23.2349 15.265ZM23.0858 15.6256L24.0099 16.0078L23.0858 15.6256ZM22.9366 15.9863L22.0125 15.6041L22.9366 15.9863ZM22.6347 16.6961L23.5508 17.097L22.6347 16.6961ZM22.3291 17.3946L21.4129 16.9937L22.3291 17.3946ZM21.9663 18.0617L22.8006 18.6129L21.9663 18.0617ZM21.7563 18.3795L20.922 17.8283L21.7563 18.3795ZM21.5464 18.6973L22.3807 19.2485L21.5464 18.6973ZM21.0854 19.3021L21.8381 19.9604L21.0854 19.3021ZM20.8344 19.589L20.0817 18.9307L20.8344 19.589ZM20.0169 20.3757L20.576 21.2049L20.0169 20.3757ZM19.3859 20.8012L19.9449 21.6303L19.3859 20.8012ZM18.7728 21.2682L18.1231 20.508L18.7728 21.2682ZM18.1777 21.7768L18.8274 22.537L18.1777 21.7768ZM17.5041 22.1296L17.7573 23.097L17.5041 22.1296ZM17.128 22.228L16.8748 21.2606L17.128 22.228ZM16.752 22.3264L16.4988 21.359L16.752 22.3264ZM15.5941 22.2982L15.4342 23.2853L15.5941 22.2982ZM15.2033 22.2349L15.3632 21.2477L15.2033 22.2349ZM14.4389 22.3247L14.0594 21.3995L14.4389 22.3247ZM14.0653 22.4779L14.4448 23.4031L14.0653 22.4779ZM13.6918 22.6311L13.3124 21.7059L13.6918 22.6311ZM12.2218 22.3878L12.5619 21.4474L12.2218 22.3878ZM11.5003 22.1388L11.1885 23.0889L11.5003 22.1388ZM10.7881 21.9051L11.0999 20.9549L10.7881 21.9051ZM10.0684 21.6645L9.7462 22.6111L10.0684 21.6645ZM9.34142 21.417L9.01917 22.3636L9.34142 21.417ZM8.6822 21.0494L8.04605 21.821L8.6822 21.0494ZM8.3865 20.8056L9.02266 20.0341L8.3865 20.8056ZM8.0908 20.5618L7.45464 21.3334L8.0908 20.5618ZM7.57173 20.0097L8.38153 19.423L7.57173 20.0097ZM7.12499 19.3931L6.31519 19.9798L7.12499 19.3931ZM6.76648 18.734L7.69962 18.3745L6.76648 18.734ZM6.49619 18.0324L5.56304 18.3919L6.49619 18.0324ZM6.10231 17.3962L6.84318 16.7246L6.10231 17.3962ZM5.58485 16.8254L4.84398 17.4971L5.58485 16.8254ZM5.15743 16.1895L6.05855 15.7559L5.15743 16.1895ZM4.82005 15.4882L3.91893 15.9218L4.82005 15.4882ZM4.81036 13.2248L5.73385 13.6084L4.81036 13.2248ZM5.11216 12.4982L4.18867 12.1146L5.11216 12.4982ZM5.39874 11.426L4.41656 11.238L5.39874 11.426ZM5.55456 10.3233L4.55587 10.2722L5.55456 10.3233ZM5.87861 8.86214L6.60687 9.54744L5.87861 8.86214ZM6.14225 8.58198L5.41399 7.89668L6.14225 8.58198ZM6.40589 8.30181L5.67762 7.61651L6.40589 8.30181ZM6.82408 7.65261L5.9017 7.26632L6.82408 7.65261ZM6.97863 7.28357L6.05625 6.89728L6.97863 7.28357ZM7.13318 6.91453L8.05556 7.30082L7.13318 6.91453ZM8.19158 5.8013L7.55596 5.02931L8.19158 5.8013ZM9.55933 5.07901L9.15302 4.16528L9.55933 5.07901ZM11.8436 4.75649L11.4528 3.83604L11.8436 4.75649ZM12.5316 4.46436L12.9225 5.38481L12.5316 4.46436ZM13.9857 4.44434L13.8729 5.43795L13.9857 4.44434ZM16.6083 4.52939L16.5094 5.52449L16.6083 4.52939ZM16.9915 4.56748L16.8926 5.56258L16.9915 4.56748ZM18.4711 5.00846L18.1261 5.9471L18.4711 5.00846ZM19.1311 5.39724L19.7848 4.64052L19.1311 5.39724ZM19.7202 5.90619L19.0665 6.66291L19.7202 5.90619ZM20.2999 6.42096L19.6258 7.15957L20.2999 6.42096ZM20.8703 6.94156L20.1962 7.68016L20.8703 6.94156ZM21.3023 7.56406L22.2291 7.18851L21.3023 7.56406ZM21.5958 8.28848L20.669 8.66403L21.5958 8.28848ZM21.9709 8.95845L22.774 8.36262L21.9709 8.95845ZM22.4276 9.57397L21.6244 10.1698L22.4276 9.57397ZM22.6591 10.2716L21.6592 10.2799L22.6591 10.2716ZM22.6657 11.0512L23.6656 11.0429L22.6657 11.0512ZM22.7922 11.7987L23.7376 11.4728L22.7922 11.7987ZM23.0388 12.514L22.0934 12.84L23.0388 12.514ZM23.1512 12.9905L24.1469 13.0824L23.1512 12.9905ZM23.1402 13.1093L24.136 13.2011L23.1402 13.1093ZM23.1292 13.2281L22.1335 13.1362L23.1292 13.2281ZM23.1847 13.7362L22.199 13.9044L23.1847 13.7362ZM20.373 19.8802L19.6777 20.5989L19.7495 20.6684L20.4448 19.9497L21.1401 19.231L21.0683 19.1615L20.373 19.8802ZM20.4448 19.9497L19.8907 20.7822L20.4832 21.1765L21.0373 20.3441L21.5914 19.5116L20.9989 19.1173L20.4448 19.9497ZM21.0373 20.3441L20.4832 21.1765C20.863 21.4294 21.0841 21.6059 21.1911 21.7122L21.8958 21.0027L22.6005 20.2933C22.3528 20.0471 22.0015 19.7846 21.5914 19.5116L21.0373 20.3441ZM21.8958 21.0027L21.1911 21.7122L21.4571 21.9765L22.1619 21.267L22.8666 20.5576L22.6005 20.2933L21.8958 21.0027ZM22.1619 21.267L21.4571 21.9765L21.7232 22.2408L22.4279 21.5313L23.1327 20.8219L22.8666 20.5576L22.1619 21.267ZM22.4279 21.5313L21.7232 22.2408C21.8499 22.3667 21.9649 22.5076 22.0682 22.6652L22.9047 22.1172L23.7412 21.5693C23.5635 21.2981 23.3607 21.0484 23.1327 20.8219L22.4279 21.5313ZM22.9047 22.1172L22.0682 22.6652L22.2788 22.9868L23.1153 22.4388L23.9518 21.8908L23.7412 21.5693L22.9047 22.1172ZM23.1153 22.4388L22.2788 22.9868L22.4895 23.3083L23.326 22.7604L24.1625 22.2124L23.9518 21.8908L23.1153 22.4388ZM23.326 22.7604L22.4895 23.3083C22.7059 23.6387 23.0017 23.9375 23.3996 24.1176L23.8119 23.2065L24.2242 22.2955C24.2551 22.3095 24.227 22.3108 24.1625 22.2124L23.326 22.7604ZM23.8119 23.2065L23.3996 24.1176L23.6749 24.2422L24.0872 23.3311L24.4995 22.4201L24.2242 22.2955L23.8119 23.2065ZM24.0872 23.3311L23.6749 24.2422L23.9502 24.3667L24.3625 23.4557L24.7747 22.5446L24.4995 22.4201L24.0872 23.3311ZM24.3625 23.4557L23.9502 24.3667C24.0306 24.4031 23.9954 24.3959 23.9269 24.3405C23.9062 24.3238 23.754 24.2048 23.662 23.9744C23.6081 23.8395 23.569 23.6502 23.6104 23.4332C23.652 23.2147 23.7596 23.0497 23.8658 22.9399L24.5845 23.6352L25.3033 24.3305C25.4183 24.2116 25.5314 24.0367 25.575 23.8076C25.6184 23.58 25.5779 23.3793 25.5192 23.2323C25.4175 22.9778 25.242 22.8319 25.1843 22.7852C25.0418 22.67 24.8778 22.5913 24.7747 22.5446L24.3625 23.4557ZM24.5845 23.6352L23.8658 22.9399L23.8126 22.9949L24.5313 23.6902L25.2501 24.3855L25.3033 24.3305L24.5845 23.6352ZM24.5313 23.6902L24.3101 22.715L24.1318 22.7554L24.3531 23.7307L24.5743 24.7059L24.7526 24.6654L24.5313 23.6902ZM24.3531 23.7307L23.6578 24.4494L23.7296 24.5189L24.4249 23.8002L25.1203 23.0815L25.0484 23.0119L24.3531 23.7307ZM23.2512 14.1256L22.2654 14.2938L22.3319 14.6832L23.3176 14.515L24.3034 14.3468L24.2369 13.9574L23.2512 14.1256ZM23.3176 14.515L22.3319 14.6832C22.3449 14.7596 22.3374 14.8186 22.3108 14.8828L23.2349 15.265L24.159 15.6471C24.3313 15.2305 24.3789 14.7896 24.3034 14.3468L23.3176 14.515ZM23.2349 15.265L22.3108 14.8828L22.1617 15.2435L23.0858 15.6256L24.0099 16.0078L24.159 15.6471L23.2349 15.265ZM23.0858 15.6256L22.1617 15.2435L22.0125 15.6041L22.9366 15.9863L23.8607 16.3684L24.0099 16.0078L23.0858 15.6256ZM22.9366 15.9863L22.0125 15.6041C21.9156 15.8384 21.8176 16.0688 21.7186 16.2953L22.6347 16.6961L23.5508 17.097C23.6555 16.8578 23.7588 16.615 23.8607 16.3684L22.9366 15.9863ZM22.6347 16.6961L21.7186 16.2953L21.5657 16.6445L22.4819 17.0454L23.398 17.4462L23.5508 17.097L22.6347 16.6961ZM22.4819 17.0454L21.5657 16.6445L21.4129 16.9937L22.3291 17.3946L23.2452 17.7955L23.398 17.4462L22.4819 17.0454ZM22.3291 17.3946L21.4129 16.9937C21.3339 17.1743 21.2404 17.3463 21.1319 17.5104L21.9663 18.0617L22.8006 18.6129C22.9721 18.3533 23.1204 18.0806 23.2452 17.7955L22.3291 17.3946ZM21.9663 18.0617L21.1319 17.5104L20.922 17.8283L21.7563 18.3795L22.5907 18.9307L22.8006 18.6129L21.9663 18.0617ZM21.7563 18.3795L20.922 17.8283L20.712 18.1461L21.5464 18.6973L22.3807 19.2485L22.5907 18.9307L21.7563 18.3795ZM21.5464 18.6973L20.712 18.1461C20.5968 18.3204 20.4704 18.4862 20.3327 18.6437L21.0854 19.3021L21.8381 19.9604C22.035 19.7353 22.216 19.4979 22.3807 19.2485L21.5464 18.6973ZM21.0854 19.3021L20.3327 18.6437L20.0817 18.9307L20.8344 19.589L21.5872 20.2474L21.8381 19.9604L21.0854 19.3021ZM20.8344 19.589L20.0817 18.9307L19.8307 19.2177L20.5834 19.876L21.3362 20.5344L21.5872 20.2474L20.8344 19.589ZM20.5834 19.876L19.8307 19.2177C19.7202 19.3441 19.5964 19.4532 19.4579 19.5466L20.0169 20.3757L20.576 21.2049C20.8581 21.0146 21.112 20.7906 21.3362 20.5344L20.5834 19.876ZM20.0169 20.3757L19.4579 19.5466L19.1424 19.7593L19.7014 20.5885L20.2604 21.4176L20.576 21.2049L20.0169 20.3757ZM19.7014 20.5885L19.1424 19.7593L18.8269 19.972L19.3859 20.8012L19.9449 21.6303L20.2604 21.4176L19.7014 20.5885ZM19.3859 20.8012L18.8269 19.972C18.5841 20.1357 18.3496 20.3145 18.1231 20.508L18.7728 21.2682L19.4225 22.0284C19.5928 21.8829 19.767 21.7503 19.9449 21.6303L19.3859 20.8012ZM18.7728 21.2682L18.1231 20.508L17.8256 20.7623L18.4753 21.5225L19.125 22.2827L19.4225 22.0284L18.7728 21.2682ZM18.4753 21.5225L17.8256 20.7623L17.528 21.0166L18.1777 21.7768L18.8274 22.537L19.125 22.2827L18.4753 21.5225ZM18.1777 21.7768L17.528 21.0166C17.4437 21.0887 17.3545 21.135 17.2509 21.1621L17.5041 22.1296L17.7573 23.097C18.1552 22.9928 18.5151 22.804 18.8274 22.537L18.1777 21.7768ZM17.5041 22.1296L17.2509 21.1621L16.8748 21.2606L17.128 22.228L17.3813 23.1954L17.7573 23.097L17.5041 22.1296ZM17.128 22.228L16.8748 21.2606L16.4988 21.359L16.752 22.3264L17.0052 23.2938L17.3813 23.1954L17.128 22.228ZM16.752 22.3264L16.4988 21.359C16.3854 21.3887 16.2706 21.3948 16.145 21.3744L15.985 22.3615L15.8251 23.3487C16.2206 23.4128 16.6171 23.3954 17.0052 23.2938L16.752 22.3264ZM15.985 22.3615L16.145 21.3744L15.7541 21.3111L15.5941 22.2982L15.4342 23.2853L15.8251 23.3487L15.985 22.3615ZM15.5941 22.2982L15.7541 21.3111L15.3632 21.2477L15.2033 22.2349L15.0433 23.222L15.4342 23.2853L15.5941 22.2982ZM15.2033 22.2349L15.3632 21.2477C14.9168 21.1754 14.4756 21.2289 14.0594 21.3995L14.4389 22.3247L14.8183 23.2499C14.9002 23.2164 14.9685 23.2099 15.0433 23.222L15.2033 22.2349ZM14.4389 22.3247L14.0594 21.3995L13.6859 21.5527L14.0653 22.4779L14.4448 23.4031L14.8183 23.2499L14.4389 22.3247ZM14.0653 22.4779L13.6859 21.5527L13.3124 21.7059L13.6918 22.6311L14.0713 23.5563L14.4448 23.4031L14.0653 22.4779ZM13.6918 22.6311L13.3124 21.7059C13.3001 21.711 13.2929 21.7128 13.2904 21.7133C13.2881 21.7138 13.2888 21.7135 13.2919 21.7134C13.295 21.7133 13.2978 21.7136 13.2994 21.7138C13.3009 21.7141 13.2989 21.7139 13.2929 21.7118L12.9528 22.6522L12.6128 23.5926C13.0996 23.7686 13.6024 23.7486 14.0713 23.5563L13.6918 22.6311ZM12.9528 22.6522L13.2929 21.7118L12.9274 21.5796L12.5873 22.52L12.2473 23.4604L12.6128 23.5926L12.9528 22.6522ZM12.5873 22.52L12.9274 21.5796L12.5619 21.4474L12.2218 22.3878L11.8818 23.3282L12.2473 23.4604L12.5873 22.52ZM12.2218 22.3878L12.5619 21.4474C12.3092 21.356 12.0593 21.2698 11.8121 21.1886L11.5003 22.1388L11.1885 23.0889C11.416 23.1636 11.6471 23.2434 11.8818 23.3282L12.2218 22.3878ZM11.5003 22.1388L11.8121 21.1886L11.456 21.0718L11.1442 22.0219L10.8324 22.9721L11.1885 23.0889L11.5003 22.1388ZM11.1442 22.0219L11.456 21.0718L11.0999 20.9549L10.7881 21.9051L10.4763 22.8552L10.8324 22.9721L11.1442 22.0219ZM10.7881 21.9051L11.0999 20.9549C10.866 20.8782 10.6296 20.7992 10.3907 20.7178L10.0684 21.6645L9.7462 22.6111C9.99193 22.6948 10.2353 22.7761 10.4763 22.8552L10.7881 21.9051ZM10.0684 21.6645L10.3907 20.7178L10.0272 20.5941L9.70493 21.5407L9.38269 22.4874L9.7462 22.6111L10.0684 21.6645ZM9.70493 21.5407L10.0272 20.5941L9.66367 20.4703L9.34142 21.417L9.01917 22.3636L9.38269 22.4874L9.70493 21.5407ZM9.34142 21.417L9.66367 20.4703C9.53545 20.4267 9.42211 20.3634 9.31836 20.2779L8.6822 21.0494L8.04605 21.821C8.33657 22.0605 8.6627 22.2423 9.01917 22.3636L9.34142 21.417ZM8.6822 21.0494L9.31836 20.2779L9.02266 20.0341L8.3865 20.8056L7.75034 21.5772L8.04605 21.821L8.6822 21.0494ZM8.3865 20.8056L9.02266 20.0341L8.72696 19.7903L8.0908 20.5618L7.45464 21.3334L7.75034 21.5772L8.3865 20.8056ZM8.0908 20.5618L8.72696 19.7903C8.59488 19.6814 8.48031 19.5593 8.38153 19.423L7.57173 20.0097L6.76193 20.5964C6.96098 20.8711 7.19246 21.1172 7.45464 21.3334L8.0908 20.5618ZM7.57173 20.0097L8.38153 19.423L8.15816 19.1147L7.34836 19.7014L6.53856 20.2881L6.76193 20.5964L7.57173 20.0097ZM7.34836 19.7014L8.15816 19.1147L7.93479 18.8064L7.12499 19.3931L6.31519 19.9798L6.53856 20.2881L7.34836 19.7014ZM7.12499 19.3931L7.93479 18.8064C7.836 18.67 7.75821 18.5265 7.69962 18.3745L6.76648 18.734L5.83333 19.0935C5.95494 19.4091 6.11616 19.7051 6.31519 19.9798L7.12499 19.3931ZM6.76648 18.734L7.69962 18.3745L7.56447 18.0237L6.63133 18.3832L5.69819 18.7427L5.83333 19.0935L6.76648 18.734ZM6.63133 18.3832L7.56447 18.0237L7.42933 17.6729L6.49619 18.0324L5.56304 18.3919L5.69819 18.7427L6.63133 18.3832ZM6.49619 18.0324L7.42933 17.6729C7.29382 17.3212 7.09636 17.0039 6.84318 16.7246L6.10231 17.3962L5.36145 18.0679C5.45324 18.1691 5.51836 18.2759 5.56304 18.3919L6.49619 18.0324ZM6.10231 17.3962L6.84318 16.7246L6.58445 16.4392L5.84358 17.1108L5.10271 17.7825L5.36145 18.0679L6.10231 17.3962ZM5.84358 17.1108L6.58445 16.4392L6.32572 16.1538L5.58485 16.8254L4.84398 17.4971L5.10271 17.7825L5.84358 17.1108ZM5.58485 16.8254L6.32572 16.1538C6.21847 16.0355 6.12974 15.9038 6.05855 15.7559L5.15743 16.1895L4.25631 16.623C4.41004 16.9425 4.60626 17.2349 4.84398 17.4971L5.58485 16.8254ZM5.15743 16.1895L6.05855 15.7559L5.88986 15.4053L4.98874 15.8389L4.08762 16.2724L4.25631 16.623L5.15743 16.1895ZM4.98874 15.8389L5.88986 15.4053L5.72117 15.0547L4.82005 15.4882L3.91893 15.9218L4.08762 16.2724L4.98874 15.8389ZM4.82005 15.4882L5.72117 15.0547C5.67426 14.9572 5.65282 14.8612 5.65337 14.7555L4.65338 14.7502L3.6534 14.745C3.65125 15.1558 3.74091 15.5518 3.91893 15.9218L4.82005 15.4882ZM4.65338 14.7502L5.65337 14.7555L5.6554 14.3681L4.65541 14.3628L3.65542 14.3576L3.6534 14.745L4.65338 14.7502ZM4.65541 14.3628L5.6554 14.3681L5.65742 13.9807L4.65743 13.9754L3.65745 13.9702L3.65542 14.3576L4.65541 14.3628ZM4.65743 13.9754L5.65742 13.9807C5.65808 13.8543 5.6823 13.7325 5.73385 13.6084L4.81036 13.2248L3.88687 12.8412C3.73722 13.2014 3.65949 13.58 3.65745 13.9702L4.65743 13.9754ZM4.81036 13.2248L5.73385 13.6084L5.88475 13.2451L4.96126 12.8615L4.03777 12.4779L3.88687 12.8412L4.81036 13.2248ZM4.96126 12.8615L5.88475 13.2451L6.03565 12.8819L5.11216 12.4982L4.18867 12.1146L4.03777 12.4779L4.96126 12.8615ZM5.11216 12.4982L6.03565 12.8819C6.16013 12.5822 6.25394 12.2775 6.31308 11.9684L5.3309 11.7805L4.34872 11.5925C4.31742 11.7561 4.2654 11.9299 4.18867 12.1146L5.11216 12.4982ZM5.3309 11.7805L6.31308 11.9684L6.38092 11.6139L5.39874 11.426L4.41656 11.238L4.34872 11.5925L5.3309 11.7805ZM5.39874 11.426L6.38092 11.6139L6.44876 11.2594L5.46658 11.0714L4.4844 10.8835L4.41656 11.238L5.39874 11.426ZM5.46658 11.0714L6.44876 11.2594C6.50338 10.974 6.53769 10.6786 6.55325 10.3744L5.55456 10.3233L4.55587 10.2722C4.54458 10.4928 4.52024 10.6962 4.4844 10.8835L5.46658 11.0714ZM5.55456 10.3233L6.55325 10.3744L6.57339 9.98071L5.5747 9.92962L4.576 9.87853L4.55587 10.2722L5.55456 10.3233ZM5.5747 9.92962L6.57339 9.98071L6.59353 9.58705L5.59484 9.53596L4.59614 9.48487L4.576 9.87853L5.5747 9.92962ZM5.59484 9.53596L6.59353 9.58705C6.59419 9.57416 6.59559 9.5664 6.5964 9.56275C6.59718 9.55922 6.5977 9.55823 6.59745 9.55881C6.5972 9.55941 6.59706 9.55949 6.5977 9.55852C6.59839 9.55747 6.60096 9.55373 6.60687 9.54744L5.87861 8.86214L5.15035 8.17685C4.8078 8.54087 4.62135 8.99203 4.59614 9.48487L5.59484 9.53596ZM5.87861 8.86214L6.60687 9.54744L6.87051 9.26727L6.14225 8.58198L5.41399 7.89668L5.15035 8.17685L5.87861 8.86214ZM6.14225 8.58198L6.87051 9.26727L7.13415 8.98711L6.40589 8.30181L5.67762 7.61651L5.41399 7.89668L6.14225 8.58198ZM6.40589 8.30181L7.13415 8.98711C7.39527 8.70962 7.59902 8.39093 7.74645 8.03889L6.82408 7.65261L5.9017 7.26632C5.84306 7.40633 5.76802 7.52044 5.67762 7.61651L6.40589 8.30181ZM6.82408 7.65261L7.74645 8.03889L7.90101 7.66986L6.97863 7.28357L6.05625 6.89728L5.9017 7.26632L6.82408 7.65261ZM6.97863 7.28357L7.90101 7.66986L8.05556 7.30082L7.13318 6.91453L6.2108 6.52824L6.05625 6.89728L6.97863 7.28357ZM7.13318 6.91453L8.05556 7.30082C8.09743 7.20084 8.15255 7.12879 8.22464 7.06943L7.58902 6.29743L6.95339 5.52543C6.62377 5.79683 6.375 6.13617 6.2108 6.52824L7.13318 6.91453ZM7.58902 6.29743L8.22464 7.06943L8.52593 6.82136L7.8903 6.04937L7.25467 5.27737L6.95339 5.52543L7.58902 6.29743ZM7.8903 6.04937L8.52593 6.82136L8.82721 6.5733L8.19158 5.8013L7.55596 5.02931L7.25467 5.27737L7.8903 6.04937ZM8.19158 5.8013L8.82721 6.5733C8.9586 6.46512 9.10042 6.37749 9.25467 6.3089L8.84836 5.39516L8.44204 4.48143C8.1223 4.62361 7.82628 4.80673 7.55596 5.02931L8.19158 5.8013ZM8.84836 5.39516L9.25467 6.3089L9.61016 6.15082L9.20384 5.23709L8.79753 4.32335L8.44204 4.48143L8.84836 5.39516ZM9.20384 5.23709L9.61016 6.15082L9.96564 5.99274L9.55933 5.07901L9.15302 4.16528L8.79753 4.32335L9.20384 5.23709ZM9.55933 5.07901L9.96564 5.99274C10.076 5.94369 10.192 5.91779 10.3226 5.91627L10.311 4.91634L10.2994 3.91641C9.90181 3.92102 9.51668 4.00356 9.15302 4.16528L9.55933 5.07901ZM10.311 4.91634L10.3226 5.91627L10.7188 5.91168L10.7072 4.91175L10.6957 3.91181L10.2994 3.91641L10.311 4.91634ZM10.7072 4.91175L10.7188 5.91168L11.1151 5.90709L11.1035 4.90715L11.0919 3.90722L10.6957 3.91181L10.7072 4.91175ZM11.1035 4.90715L11.1151 5.90709C11.5016 5.9026 11.878 5.82831 12.2345 5.67694L11.8436 4.75649L11.4528 3.83604C11.3506 3.87942 11.2336 3.90558 11.0919 3.90722L11.1035 4.90715ZM11.8436 4.75649L12.2345 5.67694L12.5785 5.53087L12.1876 4.61042L11.7968 3.68998L11.4528 3.83604L11.8436 4.75649ZM12.1876 4.61042L12.5785 5.53087L12.9225 5.38481L12.5316 4.46436L12.1407 3.54391L11.7968 3.68998L12.1876 4.61042ZM12.5316 4.46436L12.9225 5.38481C12.9936 5.35461 13.0581 5.34544 13.1328 5.35392L13.2456 4.36031L13.3584 3.36669C12.9397 3.31915 12.5282 3.37935 12.1407 3.54391L12.5316 4.46436ZM13.2456 4.36031L13.1328 5.35392L13.5028 5.39594L13.6156 4.40232L13.7285 3.40871L13.3584 3.36669L13.2456 4.36031ZM13.6156 4.40232L13.5028 5.39594L13.8729 5.43795L13.9857 4.44434L14.0985 3.45072L13.7285 3.40871L13.6156 4.40232ZM13.9857 4.44434L13.8729 5.43795C14.1643 5.47104 14.4566 5.48435 14.7495 5.47782L14.7273 4.47807L14.705 3.47832C14.5025 3.48283 14.3004 3.47365 14.0985 3.45072L13.9857 4.44434ZM14.7273 4.47807L14.7495 5.47782L15.1211 5.46954L15.0988 4.46978L15.0765 3.47003L14.705 3.47832L14.7273 4.47807ZM15.0988 4.46978L15.1211 5.46954L15.4926 5.46125L15.4704 4.4615L15.4481 3.46175L15.0765 3.47003L15.0988 4.46978ZM15.4704 4.4615L15.4926 5.46125C15.6985 5.45666 15.9095 5.46487 16.1262 5.4864L16.2251 4.4913L16.324 3.49621C16.0297 3.46696 15.7376 3.45529 15.4481 3.46175L15.4704 4.4615ZM16.2251 4.4913L16.1262 5.4864L16.5094 5.52449L16.6083 4.52939L16.7072 3.5343L16.324 3.49621L16.2251 4.4913ZM16.6083 4.52939L16.5094 5.52449L16.8926 5.56258L16.9915 4.56748L17.0904 3.57239L16.7072 3.5343L16.6083 4.52939ZM16.9915 4.56748L16.8926 5.56258C17.063 5.57952 17.23 5.61778 17.3952 5.6785L17.7401 4.73987L18.0851 3.80124C17.763 3.68289 17.4309 3.60623 17.0904 3.57239L16.9915 4.56748ZM17.7401 4.73987L17.3952 5.6785L17.7607 5.8128L18.1056 4.87417L18.4505 3.93554L18.0851 3.80124L17.7401 4.73987ZM18.1056 4.87417L17.7607 5.8128L18.1261 5.9471L18.4711 5.00846L18.816 4.06983L18.4505 3.93554L18.1056 4.87417ZM18.4711 5.00846L18.1261 5.9471C18.2568 5.99509 18.3721 6.06307 18.4773 6.15395L19.1311 5.39724L19.7848 4.64052C19.4973 4.39211 19.1727 4.2009 18.816 4.06983L18.4711 5.00846ZM19.1311 5.39724L18.4773 6.15395L18.7719 6.40843L19.4256 5.65172L20.0794 4.895L19.7848 4.64052L19.1311 5.39724ZM19.4256 5.65172L18.7719 6.40843L19.0665 6.66291L19.7202 5.90619L20.3739 5.14948L20.0794 4.895L19.4256 5.65172ZM19.7202 5.90619L19.0665 6.66291C19.256 6.82666 19.4425 6.99222 19.6258 7.15957L20.2999 6.42096L20.9741 5.68236C20.7772 5.50265 20.5771 5.32502 20.3739 5.14948L19.7202 5.90619ZM20.2999 6.42096L19.6258 7.15957L19.911 7.41987L20.5851 6.68126L21.2593 5.94265L20.9741 5.68236L20.2999 6.42096ZM20.5851 6.68126L19.911 7.41987L20.1962 7.68016L20.8703 6.94156L21.5445 6.20295L21.2593 5.94265L20.5851 6.68126ZM20.8703 6.94156L20.1962 7.68016C20.2747 7.75179 20.333 7.83476 20.3755 7.93961L21.3023 7.56406L22.2291 7.18851C22.0759 6.81042 21.8462 6.47838 21.5445 6.20295L20.8703 6.94156ZM21.3023 7.56406L20.3755 7.93961L20.5223 8.30182L21.4491 7.92627L22.3759 7.55072L22.2291 7.18851L21.3023 7.56406ZM21.4491 7.92627L20.5223 8.30182L20.669 8.66403L21.5958 8.28848L22.5226 7.91293L22.3759 7.55072L21.4491 7.92627ZM21.5958 8.28848L20.669 8.66403C20.798 8.98229 20.9642 9.27985 21.1678 9.55427L21.9709 8.95845L22.774 8.36262C22.6732 8.22669 22.5894 8.07761 22.5226 7.91293L21.5958 8.28848ZM21.9709 8.95845L21.1678 9.55427L21.3961 9.86203L22.1992 9.26621L23.0024 8.67038L22.774 8.36262L21.9709 8.95845ZM22.1992 9.26621L21.3961 9.86203L21.6244 10.1698L22.4276 9.57397L23.2307 8.97814L23.0024 8.67038L22.1992 9.26621ZM22.4276 9.57397L21.6244 10.1698C21.6482 10.2018 21.6587 10.2278 21.6592 10.2799L22.6591 10.2716L23.6591 10.2632C23.6552 9.79554 23.5114 9.3565 23.2307 8.97814L22.4276 9.57397ZM22.6591 10.2716L21.6592 10.2799L21.6624 10.6698L22.6624 10.6614L23.6624 10.6531L23.6591 10.2632L22.6591 10.2716ZM22.6624 10.6614L21.6624 10.6698L21.6657 11.0596L22.6657 11.0512L23.6656 11.0429L23.6624 10.6531L22.6624 10.6614ZM22.6657 11.0512L21.6657 11.0596C21.6687 11.4243 21.7283 11.7809 21.8468 12.1247L22.7922 11.7987L23.7376 11.4728C23.6917 11.3397 23.6669 11.198 23.6656 11.0429L22.6657 11.0512ZM22.7922 11.7987L21.8468 12.1247L21.9701 12.4823L22.9155 12.1564L23.8609 11.8305L23.7376 11.4728L22.7922 11.7987ZM22.9155 12.1564L21.9701 12.4823L22.0934 12.84L23.0388 12.514L23.9842 12.1881L23.8609 11.8305L22.9155 12.1564ZM23.0388 12.514L22.0934 12.84C22.1106 12.8897 22.1241 12.9316 22.1346 12.9663C22.1451 13.0015 22.1516 13.026 22.1553 13.0415C22.1592 13.0582 22.1581 13.0568 22.1562 13.0418C22.1551 13.0337 22.1534 13.018 22.1526 12.9962C22.1517 12.975 22.1515 12.9413 22.1554 12.8986L23.1512 12.9905L24.1469 13.0824C24.1663 12.8726 24.125 12.6805 24.1019 12.5825C24.0725 12.458 24.031 12.3239 23.9842 12.1881L23.0388 12.514ZM23.1512 12.9905L22.1554 12.8986L22.1444 13.0174L23.1402 13.1093L24.136 13.2011L24.1469 13.0824L23.1512 12.9905ZM23.1402 13.1093L22.1444 13.0174L22.1335 13.1362L23.1292 13.2281L24.125 13.3199L24.136 13.2011L23.1402 13.1093ZM23.1292 13.2281L22.1335 13.1362C22.12 13.2824 22.1333 13.4294 22.1435 13.523C22.1558 13.6354 22.1751 13.7643 22.199 13.9044L23.1847 13.7362L24.1705 13.568C24.1501 13.4486 24.138 13.3631 24.1317 13.306C24.1286 13.2776 24.1278 13.2631 24.1276 13.2594C24.1272 13.2516 24.129 13.2764 24.125 13.3199L23.1292 13.2281ZM23.1847 13.7362L22.199 13.9044L22.2654 14.2938L23.2512 14.1256L24.2369 13.9574L24.1705 13.568L23.1847 13.7362Z" fill="#5A5A62"/>
</svg>
