<svg width="29" height="28" viewBox="0 0 29 28" fill="none" xmlns="http://www.w3.org/2000/svg">
<path d="M19.7838 13.8946L18.8741 13.7084L19.7838 13.8946ZM19.6725 14.5207L20.5918 14.6516L19.6725 14.5207ZM19.6339 14.7917L20.5532 14.9226L19.6339 14.7917ZM19.5953 15.0628L20.5146 15.1937L19.5953 15.0628ZM19.5812 15.6875L18.6549 15.7517L19.5812 15.6875ZM19.6302 16.3948L18.7039 16.459L19.6302 16.3948ZM19.6572 17.1038L20.5857 17.0974L19.6572 17.1038ZM19.6621 17.8143L20.5906 17.8079L19.6621 17.8143ZM19.2213 18.7896L19.9767 19.3296L19.2213 18.7896ZM18.9997 19.0996L18.2443 18.5595L18.9997 19.0996ZM18.5551 19.6458L17.8797 19.0086L18.5551 19.6458ZM17.6622 20.6056L18.3549 21.224L17.6622 20.6056ZM17.2142 21.1075L16.5215 20.4891L17.2142 21.1075ZM16.7862 21.6777L16.0037 21.1778L16.7862 21.6777ZM16.5822 21.997L17.3647 22.497L16.5822 21.997ZM16.3781 22.3163L17.1606 22.8163L16.3781 22.3163ZM15.244 22.9668L14.9325 22.0921L15.244 22.9668ZM14.6584 23.1646L14.939 24.0497L14.6584 23.1646ZM14.1074 23.3393L13.8267 22.4541L14.1074 23.3393ZM13.5423 23.6686L14.1378 24.3811L13.5423 23.6686ZM12.9631 24.1527L12.3676 23.4402L12.9631 24.1527ZM12.3896 24.5332L11.9826 23.6986L12.3896 24.5332ZM11.2693 24.8093L11.6963 23.9847L11.2693 24.8093ZM11.0005 24.6701L11.4275 23.8456L11.0005 24.6701ZM10.7318 24.5309L10.3047 25.3555L10.7318 24.5309ZM10.2929 24.1117L11.0864 23.6295L10.2929 24.1117ZM9.95251 23.5516L9.15896 24.0338L9.95251 23.5516ZM8.83213 21.8554L9.75825 21.788L8.83213 21.8554ZM8.81178 21.5759L7.88566 21.6433L8.81178 21.5759ZM9.19186 21.2648L9.11912 20.3391L9.19186 21.2648ZM9.99269 21.2019L10.0654 22.1276L9.99269 21.2019ZM10.8847 20.3012L10.0765 19.8441L10.8847 20.3012ZM11.3279 19.7508L11.9615 20.4295L11.3279 19.7508ZM11.8864 19.2293L12.5201 19.9081L11.8864 19.2293ZM12.4003 18.7911L12.9606 19.5316L12.4003 18.7911ZM12.6348 18.6136L12.0745 17.8731L12.6348 18.6136ZM12.8694 18.4361L12.3091 17.6956L12.8694 18.4361ZM13.3148 17.983L12.5772 17.4189L13.3148 17.983ZM13.5256 17.7073L14.2632 18.2714L13.5256 17.7073ZM13.7364 17.4317L12.9988 16.8676L13.7364 17.4317ZM14.1802 16.0756L13.2726 15.8798L14.1802 16.0756ZM14.2305 15.4241L13.306 15.5111L14.2305 15.4241ZM14.1757 14.8414L15.1002 14.7544L14.1757 14.8414ZM14.2906 14.2291L13.4418 13.8526L14.2906 14.2291ZM14.5753 13.587L15.4242 13.9634L14.5753 13.587ZM14.4333 13.1782L14.1595 14.0655L14.4333 13.1782ZM13.8647 13.0027L14.1385 12.1154L13.8647 13.0027ZM13.2806 12.9199L13.2961 13.8484L13.2806 12.9199ZM12.9808 12.925L12.9653 11.9965L12.9808 12.925ZM12.6811 12.93L12.6655 12.0015L12.6811 12.93ZM12.0688 12.9875L11.915 12.0717L12.0688 12.9875ZM11.7563 13.04L11.9101 13.9557L11.7563 13.04ZM11.4438 13.0925L11.29 12.1767L11.4438 13.0925ZM10.7639 12.9952L11.1144 12.1353L10.7639 12.9952ZM10.3965 12.8455L10.046 13.7054L10.3965 12.8455ZM8.94453 12.423L9.10141 11.5078L8.94453 12.423ZM8.7501 12.0634L9.66968 12.1923L8.7501 12.0634ZM8.79476 11.7448L7.87518 11.6159L8.79476 11.7448ZM8.83943 11.4261L9.75901 11.555L8.83943 11.4261ZM9.06631 10.114L8.15298 9.94647L9.06631 10.114ZM9.04353 8.75895L9.96902 8.68345L9.04353 8.75895ZM8.81739 5.08227L7.9053 4.90811L8.81739 5.08227ZM10.0583 4.3451L10.1417 5.26991L10.0583 4.3451ZM12.1528 3.82449L11.9353 4.72723L12.1528 3.82449ZM13.4652 4.17128L13.1712 5.05209L13.4652 4.17128ZM14.1249 4.39146L13.8309 5.27227L14.1249 4.39146ZM14.7902 4.36021L14.4296 3.5045L14.7902 4.36021ZM15.461 4.07754L15.8216 4.93325L15.461 4.07754ZM16.116 3.97167L16.0135 4.89458L16.116 3.97167ZM16.755 4.04261L16.6526 4.96551L16.755 4.04261ZM17.4106 4.21488L17.7607 3.35482L17.4106 4.21488ZM18.0829 4.48849L17.7328 5.34855L18.0829 4.48849ZM19.8423 4.78893L18.962 5.08437L19.8423 4.78893ZM19.9789 5.19611L19.0986 5.49155L19.9789 5.19611ZM20.1234 5.70328L21.0241 5.47734L20.1234 5.70328ZM20.2757 6.31043L19.3751 6.53637L20.2757 6.31043ZM20.3708 6.93704L21.2978 6.8828L20.3708 6.93704ZM20.3897 7.26007L19.4627 7.31431L20.3897 7.26007ZM20.4172 8.25419L19.489 8.22669L20.4172 8.25419ZM20.3965 8.95033L21.3247 8.97783L20.3965 8.95033ZM20.2876 9.64817L21.1814 9.90007L20.2876 9.64817ZM20.1891 9.99795L19.2953 9.74604L20.1891 9.99795ZM20.0905 10.3477L20.9842 10.5996L20.0905 10.3477ZM20.0832 11.0315L19.1875 11.2763L20.0832 11.0315ZM20.2657 11.6994L21.1615 11.4546L20.2657 11.6994ZM20.189 12.2324L19.4795 11.6334L20.189 12.2324ZM19.8529 12.6305L20.5625 13.2295L19.8529 12.6305ZM19.9292 13.1845L19.0195 12.9983L19.9292 13.1845ZM19.8565 13.5396L18.9468 13.3533L18.8741 13.7084L19.7838 13.8946L20.6935 14.0808L20.7662 13.7258L19.8565 13.5396ZM19.7838 13.8946L18.8741 13.7084C18.823 13.9579 18.7823 14.1857 18.7532 14.3898L19.6725 14.5207L20.5918 14.6516C20.6142 14.4942 20.6477 14.3047 20.6935 14.0808L19.7838 13.8946ZM19.6725 14.5207L18.7532 14.3898L18.7146 14.6608L19.6339 14.7917L20.5532 14.9226L20.5918 14.6516L19.6725 14.5207ZM19.6339 14.7917L18.7146 14.6608L18.676 14.9319L19.5953 15.0628L20.5146 15.1937L20.5532 14.9226L19.6339 14.7917ZM19.5953 15.0628L18.676 14.9319C18.6389 15.1928 18.6353 15.4687 18.6549 15.7517L19.5812 15.6875L20.5076 15.6233C20.4945 15.4347 20.5003 15.2941 20.5146 15.1937L19.5953 15.0628ZM19.5812 15.6875L18.6549 15.7517L18.6794 16.1053L19.6057 16.0411L20.5321 15.977L20.5076 15.6233L19.5812 15.6875ZM19.6057 16.0411L18.6794 16.1053L18.7039 16.459L19.6302 16.3948L20.5566 16.3306L20.5321 15.977L19.6057 16.0411ZM19.6302 16.3948L18.7039 16.459C18.7189 16.6755 18.7271 16.8925 18.7286 17.1101L19.6572 17.1038L20.5857 17.0974C20.584 16.8413 20.5742 16.5857 20.5566 16.3306L19.6302 16.3948ZM19.6572 17.1038L18.7286 17.1101L18.7311 17.4654L19.6596 17.459L20.5882 17.4527L20.5857 17.0974L19.6572 17.1038ZM19.6596 17.459L18.7311 17.4654L18.7335 17.8207L19.6621 17.8143L20.5906 17.8079L20.5882 17.4527L19.6596 17.459ZM19.6621 17.8143L18.7335 17.8207C18.7337 17.8472 18.7301 17.88 18.6875 17.9396L19.4429 18.4796L20.1983 19.0197C20.4512 18.6659 20.5937 18.2552 20.5906 17.8079L19.6621 17.8143ZM19.4429 18.4796L18.6875 17.9396L18.4659 18.2496L19.2213 18.7896L19.9767 19.3296L20.1983 19.0197L19.4429 18.4796ZM19.2213 18.7896L18.4659 18.2496L18.2443 18.5595L18.9997 19.0996L19.755 19.6396L19.9767 19.3296L19.2213 18.7896ZM18.9997 19.0996L18.2443 18.5595C18.1169 18.7377 17.9951 18.8863 17.8797 19.0086L18.5551 19.6458L19.2305 20.2831C19.4124 20.0903 19.5869 19.8748 19.755 19.6396L18.9997 19.0996ZM18.5551 19.6458L17.8797 19.0086L17.6568 19.2449L18.3322 19.8821L19.0075 20.5194L19.2305 20.2831L18.5551 19.6458ZM18.3322 19.8821L17.6568 19.2449L17.4338 19.4811L18.1092 20.1184L18.7846 20.7557L19.0075 20.5194L18.3322 19.8821ZM18.1092 20.1184L17.4338 19.4811C17.2791 19.6451 17.1244 19.8138 16.9696 19.9872L17.6622 20.6056L18.3549 21.224C18.4988 21.0629 18.642 20.9068 18.7846 20.7557L18.1092 20.1184ZM17.6622 20.6056L16.9696 19.9872L16.7455 20.2381L17.4382 20.8566L18.1309 21.475L18.3549 21.224L17.6622 20.6056ZM17.4382 20.8566L16.7455 20.2381L16.5215 20.4891L17.2142 21.1075L17.9069 21.7259L18.1309 21.475L17.4382 20.8566ZM17.2142 21.1075L16.5215 20.4891C16.3353 20.6977 16.1631 20.9282 16.0037 21.1778L16.7862 21.6777L17.5687 22.1777C17.6812 22.0015 17.7944 21.8519 17.9069 21.7259L17.2142 21.1075ZM16.7862 21.6777L16.0037 21.1778L15.7997 21.4971L16.5822 21.997L17.3647 22.497L17.5687 22.1777L16.7862 21.6777ZM16.5822 21.997L15.7997 21.4971L15.5957 21.8164L16.3781 22.3163L17.1606 22.8163L17.3647 22.497L16.5822 21.997ZM16.3781 22.3163L15.5957 21.8164C15.5722 21.8532 15.5561 21.8676 15.5521 21.871C15.5499 21.8728 15.5494 21.8729 15.5505 21.8723C15.5509 21.872 15.5514 21.8718 15.5519 21.8716C15.5524 21.8713 15.5527 21.8712 15.5526 21.8713L15.8641 22.746L16.1755 23.6208C16.6052 23.4678 16.9312 23.1754 17.1606 22.8163L16.3781 22.3163ZM15.8641 22.746L15.5526 21.8713L15.2426 21.9817L15.554 22.8564L15.8655 23.7312L16.1755 23.6208L15.8641 22.746ZM15.554 22.8564L15.2426 21.9817L14.9325 22.0921L15.244 22.9668L15.5554 23.8416L15.8655 23.7312L15.554 22.8564ZM15.244 22.9668L14.9325 22.0921C14.7346 22.1625 14.5498 22.2249 14.3778 22.2794L14.6584 23.1646L14.939 24.0497C15.1343 23.9878 15.3399 23.9184 15.5554 23.8416L15.244 22.9668ZM14.6584 23.1646L14.3778 22.2794L14.1023 22.3668L14.3829 23.2519L14.6635 24.1371L14.939 24.0497L14.6584 23.1646ZM14.3829 23.2519L14.1023 22.3668L13.8267 22.4541L14.1074 23.3393L14.388 24.2244L14.6635 24.1371L14.3829 23.2519ZM14.1074 23.3393L13.8267 22.4541C13.4985 22.5582 13.2056 22.7399 12.9468 22.9562L13.5423 23.6686L14.1378 24.3811C14.2651 24.2747 14.3488 24.2368 14.388 24.2244L14.1074 23.3393ZM13.5423 23.6686L12.9468 22.9562L12.6572 23.1982L13.2527 23.9107L13.8482 24.6232L14.1378 24.3811L13.5423 23.6686ZM13.2527 23.9107L12.6572 23.1982L12.3676 23.4402L12.9631 24.1527L13.5586 24.8652L13.8482 24.6232L13.2527 23.9107ZM12.9631 24.1527L12.3676 23.4402C12.2214 23.5624 12.0928 23.6449 11.9826 23.6986L12.3896 24.5332L12.7966 25.3678C13.065 25.2369 13.3187 25.0657 13.5586 24.8652L12.9631 24.1527ZM12.3896 24.5332L11.9826 23.6986L11.6988 23.837L12.1058 24.6716L12.5128 25.5062L12.7966 25.3678L12.3896 24.5332ZM12.1058 24.6716L11.6988 23.837L11.4149 23.9754L11.8219 24.81L12.2289 25.6447L12.5128 25.5062L12.1058 24.6716ZM11.8219 24.81L11.4149 23.9754C11.4292 23.9685 11.4747 23.9504 11.543 23.9505C11.6129 23.9506 11.6671 23.9696 11.6963 23.9847L11.2693 24.8093L10.8422 25.6338C11.2952 25.8684 11.7892 25.8591 12.2289 25.6447L11.8219 24.81ZM11.2693 24.8093L11.6963 23.9847L11.4275 23.8456L11.0005 24.6701L10.5735 25.4947L10.8422 25.6338L11.2693 24.8093ZM11.0005 24.6701L11.4275 23.8456L11.1588 23.7064L10.7318 24.5309L10.3047 25.3555L10.5735 25.4947L11.0005 24.6701ZM10.7318 24.5309L11.1588 23.7064C11.1434 23.6984 11.119 23.6831 11.0864 23.6295L10.2929 24.1117L9.49931 24.5939C9.69362 24.9137 9.96184 25.1779 10.3047 25.3555L10.7318 24.5309ZM10.2929 24.1117L11.0864 23.6295L10.9162 23.3494L10.1227 23.8317L9.32914 24.3139L9.49931 24.5939L10.2929 24.1117ZM10.1227 23.8317L10.9162 23.3494L10.7461 23.0694L9.95251 23.5516L9.15896 24.0338L9.32914 24.3139L10.1227 23.8317ZM9.95251 23.5516L10.7461 23.0694C10.5914 22.8149 10.407 22.5843 10.1918 22.3815L9.55496 23.0573L8.91818 23.7332C9.00614 23.816 9.08671 23.9149 9.15896 24.0338L9.95251 23.5516ZM9.55496 23.0573L10.1918 22.3815L9.96437 22.1672L9.32759 22.8431L8.6908 23.5189L8.91818 23.7332L9.55496 23.0573ZM9.32759 22.8431L9.96437 22.1672L9.73699 21.953L9.10021 22.6288L8.46342 23.3047L8.6908 23.5189L9.32759 22.8431ZM9.10021 22.6288L9.73699 21.953C9.73003 21.9464 9.7412 21.9552 9.75458 21.9819C9.76873 22.0101 9.77668 22.0411 9.7786 22.0676L8.85248 22.135L7.92636 22.2024C7.95878 22.6479 8.16355 23.0221 8.46342 23.3047L9.10021 22.6288ZM8.85248 22.135L9.7786 22.0676L9.75825 21.788L8.83213 21.8554L7.90601 21.9228L7.92636 22.2024L8.85248 22.135ZM8.83213 21.8554L9.75825 21.788L9.73791 21.5085L8.81178 21.5759L7.88566 21.6433L7.90601 21.9228L8.83213 21.8554ZM8.81178 21.5759L9.73791 21.5085C9.74256 21.5724 9.73813 21.6733 9.69302 21.789C9.6461 21.9093 9.57001 22.0071 9.48471 22.0769C9.33486 22.1996 9.21077 22.1948 9.26459 22.1905L9.19186 21.2648L9.11912 20.3391C8.90599 20.3559 8.58509 20.4134 8.30854 20.6397C7.97554 20.9122 7.86053 21.298 7.88566 21.6433L8.81178 21.5759ZM9.19186 21.2648L9.26459 22.1905L9.66501 22.1591L9.59227 21.2334L9.51954 20.3076L9.11912 20.3391L9.19186 21.2648ZM9.59227 21.2334L9.66501 22.1591L10.0654 22.1276L9.99269 21.2019L9.91996 20.2762L9.51954 20.3076L9.59227 21.2334ZM9.99269 21.2019L10.0654 22.1276C10.5674 22.0882 11.0712 21.8576 11.3652 21.3378L10.557 20.8807L9.74872 20.4236C9.75994 20.4037 9.77683 20.3799 9.8005 20.356C9.82428 20.332 9.84997 20.3129 9.87462 20.2989C9.92385 20.2709 9.94889 20.2739 9.91996 20.2762L9.99269 21.2019ZM10.557 20.8807L11.3652 21.3378L11.5291 21.0481L10.7209 20.591L9.91259 20.1338L9.74872 20.4236L10.557 20.8807ZM10.7209 20.591L11.5291 21.0481L11.693 20.7583L10.8847 20.3012L10.0765 19.8441L9.91259 20.1338L10.7209 20.591ZM10.8847 20.3012L11.693 20.7583C11.7494 20.6586 11.8345 20.5481 11.9615 20.4295L11.3279 19.7508L10.6942 19.072C10.4489 19.301 10.2386 19.5574 10.0765 19.8441L10.8847 20.3012ZM11.3279 19.7508L11.9615 20.4295L12.2408 20.1688L11.6071 19.49L10.9735 18.8113L10.6942 19.072L11.3279 19.7508ZM11.6071 19.49L12.2408 20.1688L12.5201 19.9081L11.8864 19.2293L11.2527 18.5506L10.9735 18.8113L11.6071 19.49ZM11.8864 19.2293L12.5201 19.9081C12.6893 19.7501 12.8359 19.6259 12.9606 19.5316L12.4003 18.7911L11.8399 18.0506C11.6518 18.193 11.4558 18.361 11.2527 18.5506L11.8864 19.2293ZM12.4003 18.7911L12.9606 19.5316L13.1951 19.3541L12.6348 18.6136L12.0745 17.8731L11.8399 18.0506L12.4003 18.7911ZM12.6348 18.6136L13.1951 19.3541L13.4297 19.1766L12.8694 18.4361L12.3091 17.6956L12.0745 17.8731L12.6348 18.6136ZM12.8694 18.4361L13.4297 19.1766C13.6636 18.9996 13.8698 18.7858 14.0524 18.547L13.3148 17.983L12.5772 17.4189C12.4787 17.5477 12.388 17.6359 12.3091 17.6956L12.8694 18.4361ZM13.3148 17.983L14.0524 18.547L14.2632 18.2714L13.5256 17.7073L12.788 17.1433L12.5772 17.4189L13.3148 17.983ZM13.5256 17.7073L14.2632 18.2714L14.474 17.9958L13.7364 17.4317L12.9988 16.8676L12.788 17.1433L13.5256 17.7073ZM13.7364 17.4317L14.474 17.9958C14.7027 17.6967 14.8537 17.3572 14.9325 16.9917L14.0248 16.7959L13.1172 16.6001C13.0924 16.7149 13.051 16.7993 12.9988 16.8676L13.7364 17.4317ZM14.0248 16.7959L14.9325 16.9917L15.0102 16.6316L14.1025 16.4358L13.1949 16.2399L13.1172 16.6001L14.0248 16.7959ZM14.1025 16.4358L15.0102 16.6316L15.0879 16.2714L14.1802 16.0756L13.2726 15.8798L13.1949 16.2399L14.1025 16.4358ZM14.1802 16.0756L15.0879 16.2714C15.1548 15.9614 15.1842 15.6467 15.155 15.3371L14.2305 15.4241L13.306 15.5111C13.3135 15.59 13.3093 15.7096 13.2726 15.8798L14.1802 16.0756ZM14.2305 15.4241L15.155 15.3371L15.1276 15.0457L14.2031 15.1328L13.2786 15.2198L13.306 15.5111L14.2305 15.4241ZM14.2031 15.1328L15.1276 15.0457L15.1002 14.7544L14.1757 14.8414L13.2512 14.9284L13.2786 15.2198L14.2031 15.1328ZM14.1757 14.8414L15.1002 14.7544C15.0995 14.7475 15.0962 14.7031 15.1395 14.6055L14.2906 14.2291L13.4418 13.8526C13.2952 14.1831 13.2153 14.5469 13.2512 14.9284L14.1757 14.8414ZM14.2906 14.2291L15.1395 14.6055L15.2818 14.2844L14.433 13.908L13.5841 13.5316L13.4418 13.8526L14.2906 14.2291ZM14.433 13.908L15.2818 14.2844L15.4242 13.9634L14.5753 13.587L13.7265 13.2106L13.5841 13.5316L14.433 13.908ZM14.5753 13.587L15.4242 13.9634C15.5108 13.7682 15.625 13.4136 15.4882 13.0196C15.3341 12.5761 14.9703 12.3722 14.7072 12.2909L14.4333 13.1782L14.1595 14.0655C14.0859 14.0428 13.8406 13.9362 13.7338 13.629C13.6882 13.4975 13.6904 13.3848 13.6997 13.3161C13.7087 13.2503 13.7255 13.2129 13.7265 13.2106L14.5753 13.587ZM14.4333 13.1782L14.7072 12.2909L14.4229 12.2032L14.149 13.0904L13.8751 13.9777L14.1595 14.0655L14.4333 13.1782ZM14.149 13.0904L14.4229 12.2032L14.1385 12.1154L13.8647 13.0027L13.5908 13.89L13.8751 13.9777L14.149 13.0904ZM13.8647 13.0027L14.1385 12.1154C13.8546 12.0278 13.5622 11.9865 13.265 11.9915L13.2806 12.9199L13.2961 13.8484C13.3987 13.8467 13.4956 13.8606 13.5908 13.89L13.8647 13.0027ZM13.2806 12.9199L13.265 11.9915L12.9653 11.9965L12.9808 12.925L12.9964 13.8534L13.2961 13.8484L13.2806 12.9199ZM12.9808 12.925L12.9653 11.9965L12.6655 12.0015L12.6811 12.93L12.6966 13.8584L12.9964 13.8534L12.9808 12.925ZM12.6811 12.93L12.6655 12.0015C12.4168 12.0057 12.1665 12.0295 11.915 12.0717L12.0688 12.9875L12.2226 13.9032C12.3878 13.8755 12.5457 13.8609 12.6966 13.8584L12.6811 12.93ZM12.0688 12.9875L11.915 12.0717L11.6025 12.1242L11.7563 13.04L11.9101 13.9557L12.2226 13.9032L12.0688 12.9875ZM11.7563 13.04L11.6025 12.1242L11.29 12.1767L11.4438 13.0925L11.5976 14.0082L11.9101 13.9557L11.7563 13.04ZM11.4438 13.0925L11.29 12.1767C11.2897 12.1768 11.2396 12.1864 11.1144 12.1353L10.7639 12.9952L10.4134 13.8551C10.778 14.0037 11.1812 14.0782 11.5976 14.0082L11.4438 13.0925ZM10.7639 12.9952L11.1144 12.1353L10.747 11.9856L10.3965 12.8455L10.046 13.7054L10.4134 13.8551L10.7639 12.9952ZM10.3965 12.8455L10.747 11.9856L10.3797 11.8359L10.0292 12.6957L9.67866 13.5556L10.046 13.7054L10.3965 12.8455ZM10.0292 12.6957L10.3797 11.8359C10.1064 11.7245 9.83371 11.6333 9.57958 11.5898L9.4227 12.505L9.26581 13.4202C9.33047 13.4313 9.46211 13.4674 9.67866 13.5556L10.0292 12.6957ZM9.4227 12.505L9.57958 11.5898L9.3405 11.5488L9.18361 12.464L9.02673 13.3792L9.26581 13.4202L9.4227 12.505ZM9.18361 12.464L9.3405 11.5488L9.10141 11.5078L8.94453 12.423L8.78764 13.3383L9.02673 13.3792L9.18361 12.464ZM8.94453 12.423L9.10141 11.5078C9.16206 11.5182 9.25399 11.5444 9.35235 11.609C9.45501 11.6764 9.53754 11.768 9.59322 11.871C9.64614 11.9689 9.66341 12.0554 9.66896 12.108C9.67439 12.1595 9.66994 12.1905 9.66968 12.1923L8.7501 12.0634L7.83052 11.9345C7.80282 12.1322 7.79264 12.4455 7.95953 12.7542C8.15355 13.1131 8.48562 13.2865 8.78764 13.3383L8.94453 12.423ZM8.7501 12.0634L9.66968 12.1923L9.71435 11.8737L8.79476 11.7448L7.87518 11.6159L7.83052 11.9345L8.7501 12.0634ZM8.79476 11.7448L9.71435 11.8737L9.75901 11.555L8.83943 11.4261L7.91984 11.2972L7.87518 11.6159L8.79476 11.7448ZM8.83943 11.4261L9.75901 11.555C9.78689 11.3561 9.81992 11.1524 9.85816 10.9438L8.94483 10.7763L8.03149 10.6088C7.98875 10.8418 7.95151 11.0713 7.91984 11.2972L8.83943 11.4261ZM8.94483 10.7763L9.85816 10.9438L9.9189 10.6127L9.00557 10.4451L8.09224 10.2776L8.03149 10.6088L8.94483 10.7763ZM9.00557 10.4451L9.9189 10.6127L9.97965 10.2815L9.06631 10.114L8.15298 9.94647L8.09224 10.2776L9.00557 10.4451ZM9.06631 10.114L9.97965 10.2815C10.0351 9.97925 10.0498 9.67336 10.0247 9.36604L9.09921 9.44154L8.17371 9.51704C8.18577 9.66478 8.17852 9.80719 8.15298 9.94647L9.06631 10.114ZM9.09921 9.44154L10.0247 9.36604L9.99687 9.02474L9.07137 9.10024L8.14587 9.17574L8.17371 9.51704L9.09921 9.44154ZM9.07137 9.10024L9.99687 9.02474L9.96902 8.68345L9.04353 8.75895L8.11803 8.83445L8.14587 9.17574L9.07137 9.10024ZM9.04353 8.75895L9.96902 8.68345C9.95373 8.49601 9.95069 8.30902 9.95985 8.12221L9.03239 8.07676L8.10493 8.03131C8.09181 8.29902 8.0962 8.56682 8.11803 8.83445L9.04353 8.75895ZM9.03239 8.07676L9.95985 8.12221L9.97655 7.78133L9.0491 7.73588L8.12164 7.69043L8.10493 8.03131L9.03239 8.07676ZM9.0491 7.73588L9.97655 7.78133L9.99326 7.44044L9.0658 7.39499L8.13834 7.34954L8.12164 7.69043L9.0491 7.73588ZM9.0658 7.39499L9.99326 7.44044C10.0095 7.10879 9.97024 6.78132 9.87782 6.46201L8.98586 6.72018L8.0939 6.97835C8.13034 7.10427 8.14436 7.22666 8.13834 7.34954L9.0658 7.39499ZM8.98586 6.72018L9.87782 6.46201L9.78117 6.12809L8.88921 6.38626L7.99725 6.64443L8.0939 6.97835L8.98586 6.72018ZM8.88921 6.38626L9.78117 6.12809L9.68452 5.79418L8.79256 6.05234L7.9006 6.31051L7.99725 6.64443L8.88921 6.38626ZM8.79256 6.05234L9.68452 5.79418C9.6577 5.70151 9.65768 5.63245 9.66874 5.57452L8.75665 5.40035L7.84456 5.22618C7.77463 5.59235 7.79855 5.95796 7.9006 6.31051L8.79256 6.05234ZM8.75665 5.40035L9.66874 5.57452L9.72948 5.25644L8.81739 5.08227L7.9053 4.90811L7.84456 5.22618L8.75665 5.40035ZM8.81739 5.08227L9.72948 5.25644L9.79022 4.93837L8.87812 4.7642L7.96603 4.59003L7.9053 4.90811L8.81739 5.08227ZM8.87812 4.7642L9.79022 4.93837C9.77627 5.0114 9.7263 5.13754 9.60174 5.23853C9.54666 5.28318 9.49401 5.30849 9.4557 5.32209C9.4188 5.3352 9.39614 5.3372 9.39546 5.33726L9.312 4.41245L9.22854 3.48764C8.98193 3.50989 8.68906 3.58767 8.43219 3.79592C8.163 4.01416 8.02047 4.30495 7.96603 4.59003L8.87812 4.7642ZM9.312 4.41245L9.39546 5.33726L9.76859 5.30359L9.68513 4.37878L9.60167 3.45396L9.22854 3.48764L9.312 4.41245ZM9.68513 4.37878L9.76859 5.30359L10.1417 5.26991L10.0583 4.3451L9.97481 3.42029L9.60167 3.45396L9.68513 4.37878ZM10.0583 4.3451L10.1417 5.26991C10.4821 5.23919 10.8122 5.159 11.1291 5.03035L10.7799 4.16997L10.4306 3.30959C10.2829 3.36955 10.1319 3.40611 9.97481 3.42029L10.0583 4.3451ZM10.7799 4.16997L11.1291 5.03035L11.4776 4.88889L11.1283 4.02851L10.7791 3.16813L10.4306 3.30959L10.7799 4.16997ZM11.1283 4.02851L11.4776 4.88889L11.8261 4.74743L11.4768 3.88705L11.1275 3.02667L10.7791 3.16813L11.1283 4.02851ZM11.4768 3.88705L11.8261 4.74743C11.9004 4.71725 11.9274 4.72532 11.9353 4.72723L12.1528 3.82449L12.3703 2.92174C11.9415 2.81845 11.5178 2.86823 11.1275 3.02667L11.4768 3.88705ZM12.1528 3.82449L11.9353 4.72723L12.2628 4.80613L12.4803 3.90339L12.6978 3.00064L12.3703 2.92174L12.1528 3.82449ZM12.4803 3.90339L12.2628 4.80613L12.5903 4.88503L12.8078 3.98229L13.0253 3.07954L12.6978 3.00064L12.4803 3.90339ZM12.8078 3.98229L12.5903 4.88503C12.7821 4.93122 12.9757 4.98683 13.1712 5.05209L13.4652 4.17128L13.7592 3.29047C13.5149 3.20894 13.2703 3.13855 13.0253 3.07954L12.8078 3.98229ZM13.4652 4.17128L13.1712 5.05209L13.5011 5.16218L13.7951 4.28137L14.089 3.40056L13.7592 3.29047L13.4652 4.17128ZM13.7951 4.28137L13.5011 5.16218L13.8309 5.27227L14.1249 4.39146L14.4189 3.51065L14.089 3.40056L13.7951 4.28137ZM14.1249 4.39146L13.8309 5.27227C14.2755 5.42064 14.7299 5.39327 15.1508 5.21592L14.7902 4.36021L14.4296 3.5045C14.4188 3.50907 14.4125 3.51072 14.4105 3.51121C14.4085 3.51166 14.4095 3.51129 14.4126 3.51114C14.4158 3.51099 14.4189 3.51118 14.4213 3.51151C14.4235 3.51184 14.4229 3.51199 14.4189 3.51065L14.1249 4.39146ZM14.7902 4.36021L15.1508 5.21592L15.4862 5.07458L15.1256 4.21888L14.765 3.36317L14.4296 3.5045L14.7902 4.36021ZM15.1256 4.21888L15.4862 5.07458L15.8216 4.93325L15.461 4.07754L15.1005 3.22183L14.765 3.36317L15.1256 4.21888ZM15.461 4.07754L15.8216 4.93325C15.9188 4.89231 15.9779 4.89063 16.0135 4.89458L16.116 3.97167L16.2184 3.04877C15.828 3.00543 15.4505 3.07433 15.1005 3.22183L15.461 4.07754ZM16.116 3.97167L16.0135 4.89458L16.333 4.93004L16.4355 4.00714L16.5379 3.08424L16.2184 3.04877L16.116 3.97167ZM16.4355 4.00714L16.333 4.93004L16.6526 4.96551L16.755 4.04261L16.8574 3.1197L16.5379 3.08424L16.4355 4.00714ZM16.755 4.04261L16.6526 4.96551C16.7704 4.97859 16.9057 5.01191 17.0606 5.07494L17.4106 4.21488L17.7607 3.35482C17.4674 3.23544 17.1656 3.15391 16.8574 3.1197L16.755 4.04261ZM17.4106 4.21488L17.0606 5.07494L17.3967 5.21174L17.7467 4.35169L18.0968 3.49163L17.7607 3.35482L17.4106 4.21488ZM17.7467 4.35169L17.3967 5.21174L17.7328 5.34855L18.0829 4.48849L18.4329 3.62843L18.0968 3.49163L17.7467 4.35169ZM18.0829 4.48849L17.7328 5.34855C18.068 5.48497 18.4211 5.55421 18.7851 5.54348L18.7577 4.61531L18.7303 3.68714C18.6427 3.68973 18.5459 3.67442 18.4329 3.62843L18.0829 4.48849ZM18.7577 4.61531L18.7851 5.54348L19.1238 5.53349L19.0965 4.60532L19.0691 3.67715L18.7303 3.68714L18.7577 4.61531ZM19.0965 4.60532L19.1238 5.53349L19.4626 5.5235L19.4352 4.59533L19.4078 3.66716L19.0691 3.67715L19.0965 4.60532ZM19.4352 4.59533L19.4626 5.5235C19.4963 5.52251 19.4228 5.53211 19.3075 5.4773C19.2441 5.44713 19.1703 5.39825 19.1027 5.32358C19.0345 5.24814 18.9888 5.16429 18.962 5.08437L19.8423 4.78893L20.7226 4.49349C20.6153 4.17383 20.3879 3.93466 20.1052 3.80017C19.8542 3.68083 19.6 3.6615 19.4078 3.66716L19.4352 4.59533ZM19.8423 4.78893L18.962 5.08437L19.0303 5.28796L19.9106 4.99252L20.7909 4.69708L20.7226 4.49349L19.8423 4.78893ZM19.9106 4.99252L19.0303 5.28796L19.0986 5.49155L19.9789 5.19611L20.8593 4.90067L20.7909 4.69708L19.9106 4.99252ZM19.9789 5.19611L19.0986 5.49155C19.1339 5.59664 19.1755 5.74071 19.2228 5.92921L20.1234 5.70328L21.0241 5.47734C20.9698 5.26108 20.9151 5.06703 20.8593 4.90067L19.9789 5.19611ZM20.1234 5.70328L19.2228 5.92921L19.2989 6.23279L20.1996 6.00686L21.1002 5.78092L21.0241 5.47734L20.1234 5.70328ZM20.1996 6.00686L19.2989 6.23279L19.3751 6.53637L20.2757 6.31043L21.1764 6.0845L21.1002 5.78092L20.1996 6.00686ZM20.2757 6.31043L19.3751 6.53637C19.4112 6.6806 19.4345 6.8319 19.4438 6.99128L20.3708 6.93704L21.2978 6.8828C21.2819 6.61148 21.2417 6.34504 21.1764 6.0845L20.2757 6.31043ZM20.3708 6.93704L19.4438 6.99128L19.4627 7.31431L20.3897 7.26007L21.3167 7.20583L21.2978 6.8828L20.3708 6.93704ZM20.3897 7.26007L19.4627 7.31431L19.4816 7.63734L20.4086 7.5831L21.3356 7.52886L21.3167 7.20583L20.3897 7.26007ZM20.4086 7.5831L19.4816 7.63734C19.4925 7.82351 19.4951 8.01986 19.489 8.22669L20.4172 8.25419L21.3453 8.2817C21.353 8.02444 21.3499 7.77339 21.3356 7.52886L20.4086 7.5831ZM20.4172 8.25419L19.489 8.22669L19.4787 8.57476L20.4069 8.60226L21.335 8.62976L21.3453 8.2817L20.4172 8.25419ZM20.4069 8.60226L19.4787 8.57476L19.4684 8.92282L20.3965 8.95033L21.3247 8.97783L21.335 8.62976L20.4069 8.60226ZM20.3965 8.95033L19.4684 8.92282C19.4638 9.0757 19.4399 9.233 19.3939 9.39626L20.2876 9.64817L21.1814 9.90007C21.2668 9.59697 21.3155 9.28904 21.3247 8.97783L20.3965 8.95033ZM20.2876 9.64817L19.3939 9.39626L19.2953 9.74604L20.1891 9.99795L21.0828 10.2499L21.1814 9.90007L20.2876 9.64817ZM20.1891 9.99795L19.2953 9.74604L19.1967 10.0958L20.0905 10.3477L20.9842 10.5996L21.0828 10.2499L20.1891 9.99795ZM20.0905 10.3477L19.1967 10.0958C19.0876 10.4829 19.0799 10.8827 19.1875 11.2763L20.0832 11.0315L20.9789 10.7866C20.9647 10.7349 20.9619 10.6789 20.9842 10.5996L20.0905 10.3477ZM20.0832 11.0315L19.1875 11.2763L19.2787 11.6103L20.1745 11.3654L21.0702 11.1206L20.9789 10.7866L20.0832 11.0315ZM20.1745 11.3654L19.2787 11.6103L19.37 11.9442L20.2657 11.6994L21.1615 11.4546L21.0702 11.1206L20.1745 11.3654ZM20.2657 11.6994L19.37 11.9442C19.3761 11.9664 19.3634 11.9349 19.3731 11.8673C19.3842 11.7901 19.4194 11.7045 19.4795 11.6334L20.189 12.2324L20.8985 12.8314C21.2698 12.3916 21.2736 11.865 21.1615 11.4546L20.2657 11.6994ZM20.189 12.2324L19.4795 11.6334L19.3114 11.8324L20.021 12.4314L20.7305 13.0304L20.8985 12.8314L20.189 12.2324ZM20.021 12.4314L19.3114 11.8324L19.1434 12.0315L19.8529 12.6305L20.5625 13.2295L20.7305 13.0304L20.021 12.4314ZM19.8529 12.6305L19.1434 12.0315C19.0875 12.0977 18.9726 12.2359 18.8987 12.4014C18.8766 12.451 18.8445 12.5325 18.8257 12.6364C18.8078 12.7355 18.7909 12.9162 18.8636 13.1239C18.9462 13.36 19.1151 13.5449 19.3232 13.652C19.505 13.7456 19.6725 13.7581 19.7641 13.7581V12.8295V11.9009C19.8426 11.9009 19.9995 11.9114 20.1732 12.0008C20.3732 12.1037 20.5366 12.2824 20.6164 12.5102C20.6862 12.7096 20.6689 12.88 20.6533 12.9666C20.6367 13.0581 20.6094 13.1251 20.5947 13.158C20.5505 13.2573 20.5064 13.2959 20.5625 13.2295L19.8529 12.6305ZM19.7641 12.8295V13.7581H19.8434V12.8295V11.9009H19.7641V12.8295ZM19.8434 12.8295V13.7581H19.9226V12.8295V11.9009H19.8434V12.8295ZM19.9226 12.8295V13.7581C19.7435 13.7581 19.5536 13.7037 19.3894 13.5827C19.2362 13.4698 19.1534 13.3348 19.1107 13.2431C19.0352 13.0806 19.0357 12.9468 19.0355 12.9354C19.0346 12.8872 19.0411 12.8927 19.0195 12.9983L19.9292 13.1845L20.8389 13.3708C20.8657 13.2396 20.8954 13.0676 20.8923 12.9011C20.891 12.8305 20.8841 12.6524 20.7948 12.4603C20.7453 12.3537 20.654 12.2076 20.4908 12.0874C20.3165 11.959 20.115 11.9009 19.9226 11.9009V12.8295ZM19.9292 13.1845L19.0195 12.9983L18.9468 13.3533L19.8565 13.5396L20.7662 13.7258L20.8389 13.3708L19.9292 13.1845Z" fill="#80A281"/>
</svg>
