<svg width="15" height="24" viewBox="0 0 15 24" fill="none" xmlns="http://www.w3.org/2000/svg">
<path d="M12.7838 11.8946L11.8741 11.7084L12.7838 11.8946ZM12.6725 12.5207L13.5918 12.6516L12.6725 12.5207ZM12.6339 12.7917L13.5532 12.9226L12.6339 12.7917ZM12.5953 13.0628L13.5146 13.1937L12.5953 13.0628ZM12.5812 13.6875L11.6549 13.7517L12.5812 13.6875ZM12.6302 14.3948L11.7039 14.459L12.6302 14.3948ZM12.6572 15.1038L13.5857 15.0974L12.6572 15.1038ZM12.6621 15.8143L13.5906 15.8079L12.6621 15.8143ZM12.2213 16.7896L12.9767 17.3296L12.2213 16.7896ZM11.9997 17.0996L11.2443 16.5595L11.9997 17.0996ZM11.5551 17.6458L10.8797 17.0086L11.5551 17.6458ZM10.6622 18.6056L11.3549 19.224L10.6622 18.6056ZM10.2142 19.1075L9.52151 18.4891L10.2142 19.1075ZM9.78617 19.6777L9.00367 19.1778L9.78617 19.6777ZM9.58216 19.997L10.3647 20.497L9.58216 19.997ZM9.37815 20.3163L10.1606 20.8163L9.37815 20.3163ZM8.24396 20.9668L7.93249 20.0921L8.24396 20.9668ZM7.65838 21.1646L7.939 22.0497L7.65838 21.1646ZM7.10736 21.3393L6.82674 20.4541L7.10736 21.3393ZM6.54227 21.6686L7.13776 22.3811L6.54227 21.6686ZM5.96311 22.1527L5.36761 21.4402L5.96311 22.1527ZM5.38965 22.5332L4.98265 21.6986L5.38965 22.5332ZM4.26926 22.8093L4.69629 21.9847L4.26926 22.8093ZM4.00052 22.6701L4.42755 21.8456L4.00052 22.6701ZM3.73177 22.5309L3.30474 23.3555L3.73177 22.5309ZM3.29286 22.1117L4.08641 21.6295L3.29286 22.1117ZM2.95251 21.5516L2.15896 22.0338L2.95251 21.5516ZM1.83213 19.8554L2.75825 19.788L1.83213 19.8554ZM1.81178 19.5759L0.885663 19.6433L1.81178 19.5759ZM2.19186 19.2648L2.11912 18.3391L2.19186 19.2648ZM2.99269 19.2019L3.06543 20.1276L2.99269 19.2019ZM3.88472 18.3012L3.07646 17.8441L3.88472 18.3012ZM4.32786 17.7508L4.96152 18.4295L4.32786 17.7508ZM4.8864 17.2293L5.52006 17.9081L4.8864 17.2293ZM5.40025 16.7911L5.96056 17.5316L5.40025 16.7911ZM5.63483 16.6136L5.07452 15.8731L5.63483 16.6136ZM5.86941 16.4361L5.3091 15.6956L5.86941 16.4361ZM6.31478 15.983L5.57718 15.4189L6.31478 15.983ZM6.52557 15.7073L7.26317 16.2714L6.52557 15.7073ZM6.73636 15.4317L5.99876 14.8676L6.73636 15.4317ZM7.18024 14.0756L6.27256 13.8798L7.18024 14.0756ZM7.23052 13.4241L6.30604 13.5111L7.23052 13.4241ZM7.17568 12.8414L8.10016 12.7544L7.17568 12.8414ZM7.29061 12.2291L6.44176 11.8526L7.29061 12.2291ZM7.57533 11.587L8.42418 11.9634L7.57533 11.587ZM7.43334 11.1782L7.15948 12.0655L7.43334 11.1782ZM6.86466 11.0027L7.13853 10.1154L6.86466 11.0027ZM6.28057 10.9199L6.29612 11.8484L6.28057 10.9199ZM5.98082 10.925L5.96528 9.99652L5.98082 10.925ZM5.68107 10.93L5.66553 10.0015L5.68107 10.93ZM5.06881 10.9875L4.91499 10.0717L5.06881 10.9875ZM4.7563 11.04L4.91012 11.9557L4.7563 11.04ZM4.44379 11.0925L4.28997 10.1767L4.44379 11.0925ZM3.7639 10.9952L4.1144 10.1353L3.7639 10.9952ZM3.39653 10.8455L3.04604 11.7054L3.39653 10.8455ZM1.94453 10.423L2.10141 9.50782L1.94453 10.423ZM1.7501 10.0634L2.66968 10.1923L1.7501 10.0634ZM1.79476 9.74476L0.875181 9.61587L1.79476 9.74476ZM1.83943 9.42611L2.75901 9.555L1.83943 9.42611ZM2.06631 8.11399L1.15298 7.94647L2.06631 8.11399ZM2.04353 6.75895L2.96902 6.68345L2.04353 6.75895ZM1.81739 3.08227L0.905295 2.90811L1.81739 3.08227ZM3.05827 2.3451L3.14173 3.26991L3.05827 2.3451ZM5.1528 1.82449L4.93532 2.72723L5.1528 1.82449ZM6.4652 2.17128L6.17123 3.05209L6.4652 2.17128ZM7.12492 2.39146L6.83095 3.27227L7.12492 2.39146ZM7.79019 2.36021L7.42963 1.5045L7.79019 2.36021ZM8.46103 2.07754L8.8216 2.93325L8.46103 2.07754ZM9.11597 1.97167L9.01353 2.89458L9.11597 1.97167ZM9.755 2.04261L9.65256 2.96551L9.755 2.04261ZM10.4106 2.21488L10.7607 1.35482L10.4106 2.21488ZM11.0829 2.48849L10.7328 3.34855L11.0829 2.48849ZM12.8423 2.78893L11.962 3.08437L12.8423 2.78893ZM12.9789 3.19611L12.0986 3.49155L12.9789 3.19611ZM13.1234 3.70328L14.0241 3.47734L13.1234 3.70328ZM13.2757 4.31043L12.3751 4.53637L13.2757 4.31043ZM13.3708 4.93704L14.2978 4.8828L13.3708 4.93704ZM13.3897 5.26007L12.4627 5.31431L13.3897 5.26007ZM13.4172 6.25419L12.489 6.22669L13.4172 6.25419ZM13.3965 6.95033L14.3247 6.97783L13.3965 6.95033ZM13.2876 7.64817L14.1814 7.90007L13.2876 7.64817ZM13.1891 7.99795L12.2953 7.74604L13.1891 7.99795ZM13.0905 8.34772L13.9842 8.59963L13.0905 8.34772ZM13.0832 9.03146L12.1875 9.27629L13.0832 9.03146ZM13.2657 9.69939L14.1615 9.45456L13.2657 9.69939ZM13.189 10.2324L12.4795 9.63339L13.189 10.2324ZM12.8529 10.6305L13.5625 11.2295L12.8529 10.6305ZM12.9292 11.1845L12.0195 10.9983L12.9292 11.1845ZM12.8565 11.5396L11.9468 11.3533L11.8741 11.7084L12.7838 11.8946L13.6935 12.0808L13.7662 11.7258L12.8565 11.5396ZM12.7838 11.8946L11.8741 11.7084C11.823 11.9579 11.7823 12.1857 11.7532 12.3898L12.6725 12.5207L13.5918 12.6516C13.6142 12.4942 13.6477 12.3047 13.6935 12.0808L12.7838 11.8946ZM12.6725 12.5207L11.7532 12.3898L11.7146 12.6608L12.6339 12.7917L13.5532 12.9226L13.5918 12.6516L12.6725 12.5207ZM12.6339 12.7917L11.7146 12.6608L11.676 12.9319L12.5953 13.0628L13.5146 13.1937L13.5532 12.9226L12.6339 12.7917ZM12.5953 13.0628L11.676 12.9319C11.6389 13.1928 11.6353 13.4687 11.6549 13.7517L12.5812 13.6875L13.5076 13.6233C13.4945 13.4347 13.5003 13.2941 13.5146 13.1937L12.5953 13.0628ZM12.5812 13.6875L11.6549 13.7517L11.6794 14.1053L12.6057 14.0411L13.5321 13.977L13.5076 13.6233L12.5812 13.6875ZM12.6057 14.0411L11.6794 14.1053L11.7039 14.459L12.6302 14.3948L13.5566 14.3306L13.5321 13.977L12.6057 14.0411ZM12.6302 14.3948L11.7039 14.459C11.7189 14.6755 11.7271 14.8925 11.7286 15.1101L12.6572 15.1038L13.5857 15.0974C13.584 14.8413 13.5742 14.5857 13.5566 14.3306L12.6302 14.3948ZM12.6572 15.1038L11.7286 15.1101L11.7311 15.4654L12.6596 15.459L13.5882 15.4527L13.5857 15.0974L12.6572 15.1038ZM12.6596 15.459L11.7311 15.4654L11.7335 15.8207L12.6621 15.8143L13.5906 15.8079L13.5882 15.4527L12.6596 15.459ZM12.6621 15.8143L11.7335 15.8207C11.7337 15.8472 11.7301 15.88 11.6875 15.9396L12.4429 16.4796L13.1983 17.0197C13.4512 16.6659 13.5937 16.2552 13.5906 15.8079L12.6621 15.8143ZM12.4429 16.4796L11.6875 15.9396L11.4659 16.2496L12.2213 16.7896L12.9767 17.3296L13.1983 17.0197L12.4429 16.4796ZM12.2213 16.7896L11.4659 16.2496L11.2443 16.5595L11.9997 17.0996L12.755 17.6396L12.9767 17.3296L12.2213 16.7896ZM11.9997 17.0996L11.2443 16.5595C11.1169 16.7377 10.9951 16.8863 10.8797 17.0086L11.5551 17.6458L12.2305 18.2831C12.4124 18.0903 12.5869 17.8748 12.755 17.6396L11.9997 17.0996ZM11.5551 17.6458L10.8797 17.0086L10.6568 17.2449L11.3322 17.8821L12.0075 18.5194L12.2305 18.2831L11.5551 17.6458ZM11.3322 17.8821L10.6568 17.2449L10.4338 17.4811L11.1092 18.1184L11.7846 18.7557L12.0075 18.5194L11.3322 17.8821ZM11.1092 18.1184L10.4338 17.4811C10.2791 17.6451 10.1244 17.8138 9.96955 17.9872L10.6622 18.6056L11.3549 19.224C11.4988 19.0629 11.642 18.9068 11.7846 18.7557L11.1092 18.1184ZM10.6622 18.6056L9.96955 17.9872L9.74553 18.2381L10.4382 18.8566L11.1309 19.475L11.3549 19.224L10.6622 18.6056ZM10.4382 18.8566L9.74553 18.2381L9.52151 18.4891L10.2142 19.1075L10.9069 19.7259L11.1309 19.475L10.4382 18.8566ZM10.2142 19.1075L9.52151 18.4891C9.33527 18.6977 9.16311 18.9282 9.00367 19.1778L9.78617 19.6777L10.5687 20.1777C10.6812 20.0015 10.7944 19.8519 10.9069 19.7259L10.2142 19.1075ZM9.78617 19.6777L9.00367 19.1778L8.79966 19.4971L9.58216 19.997L10.3647 20.497L10.5687 20.1777L9.78617 19.6777ZM9.58216 19.997L8.79966 19.4971L8.59565 19.8164L9.37815 20.3163L10.1606 20.8163L10.3647 20.497L9.58216 19.997ZM9.37815 20.3163L8.59565 19.8164C8.57215 19.8532 8.55613 19.8676 8.5521 19.871C8.54993 19.8728 8.54945 19.8729 8.5505 19.8723C8.55093 19.872 8.55143 19.8718 8.55193 19.8716C8.55242 19.8713 8.55268 19.8712 8.55261 19.8713L8.86408 20.746L9.17555 21.6208C9.60518 21.4678 9.93118 21.1754 10.1606 20.8163L9.37815 20.3163ZM8.86408 20.746L8.55261 19.8713L8.24255 19.9817L8.55402 20.8564L8.86549 21.7312L9.17555 21.6208L8.86408 20.746ZM8.55402 20.8564L8.24255 19.9817L7.93249 20.0921L8.24396 20.9668L8.55543 21.8416L8.86549 21.7312L8.55402 20.8564ZM8.24396 20.9668L7.93249 20.0921C7.73464 20.1625 7.5498 20.2249 7.37777 20.2794L7.65838 21.1646L7.939 22.0497C8.13432 21.9878 8.33987 21.9184 8.55543 21.8416L8.24396 20.9668ZM7.65838 21.1646L7.37777 20.2794L7.10225 20.3668L7.38287 21.2519L7.66349 22.1371L7.939 22.0497L7.65838 21.1646ZM7.38287 21.2519L7.10225 20.3668L6.82674 20.4541L7.10736 21.3393L7.38798 22.2244L7.66349 22.1371L7.38287 21.2519ZM7.10736 21.3393L6.82674 20.4541C6.49852 20.5582 6.20557 20.7399 5.94677 20.9562L6.54227 21.6686L7.13776 22.3811C7.26507 22.2747 7.34884 22.2368 7.38798 22.2244L7.10736 21.3393ZM6.54227 21.6686L5.94677 20.9562L5.65719 21.1982L6.25269 21.9107L6.84818 22.6232L7.13776 22.3811L6.54227 21.6686ZM6.25269 21.9107L5.65719 21.1982L5.36761 21.4402L5.96311 22.1527L6.5586 22.8652L6.84818 22.6232L6.25269 21.9107ZM5.96311 22.1527L5.36761 21.4402C5.2214 21.5624 5.09277 21.6449 4.98265 21.6986L5.38965 22.5332L5.79665 23.3678C6.06504 23.2369 6.31871 23.0657 6.5586 22.8652L5.96311 22.1527ZM5.38965 22.5332L4.98265 21.6986L4.69877 21.837L5.10577 22.6716L5.51276 23.5062L5.79665 23.3678L5.38965 22.5332ZM5.10577 22.6716L4.69877 21.837L4.41489 21.9754L4.82188 22.81L5.22888 23.6447L5.51276 23.5062L5.10577 22.6716ZM4.82188 22.81L4.41489 21.9754C4.42917 21.9685 4.4747 21.9504 4.54304 21.9505C4.61289 21.9506 4.66706 21.9696 4.69629 21.9847L4.26926 22.8093L3.84223 23.6338C4.29522 23.8684 4.78916 23.8591 5.22888 23.6447L4.82188 22.81ZM4.26926 22.8093L4.69629 21.9847L4.42755 21.8456L4.00052 22.6701L3.57348 23.4947L3.84223 23.6338L4.26926 22.8093ZM4.00052 22.6701L4.42755 21.8456L4.15881 21.7064L3.73177 22.5309L3.30474 23.3555L3.57348 23.4947L4.00052 22.6701ZM3.73177 22.5309L4.15881 21.7064C4.14338 21.6984 4.11899 21.6831 4.08641 21.6295L3.29286 22.1117L2.49931 22.5939C2.69362 22.9137 2.96184 23.1779 3.30474 23.3555L3.73177 22.5309ZM3.29286 22.1117L4.08641 21.6295L3.91624 21.3494L3.12269 21.8317L2.32914 22.3139L2.49931 22.5939L3.29286 22.1117ZM3.12269 21.8317L3.91624 21.3494L3.74606 21.0694L2.95251 21.5516L2.15896 22.0338L2.32914 22.3139L3.12269 21.8317ZM2.95251 21.5516L3.74606 21.0694C3.59142 20.8149 3.40696 20.5843 3.19175 20.3815L2.55496 21.0573L1.91818 21.7332C2.00614 21.816 2.08671 21.9149 2.15896 22.0338L2.95251 21.5516ZM2.55496 21.0573L3.19175 20.3815L2.96437 20.1672L2.32759 20.8431L1.6908 21.5189L1.91818 21.7332L2.55496 21.0573ZM2.32759 20.8431L2.96437 20.1672L2.73699 19.953L2.10021 20.6288L1.46342 21.3047L1.6908 21.5189L2.32759 20.8431ZM2.10021 20.6288L2.73699 19.953C2.73003 19.9464 2.7412 19.9552 2.75458 19.9819C2.76873 20.0101 2.77668 20.0411 2.7786 20.0676L1.85248 20.135L0.926359 20.2024C0.958779 20.6479 1.16355 21.0221 1.46342 21.3047L2.10021 20.6288ZM1.85248 20.135L2.7786 20.0676L2.75825 19.788L1.83213 19.8554L0.906011 19.9228L0.926359 20.2024L1.85248 20.135ZM1.83213 19.8554L2.75825 19.788L2.73791 19.5085L1.81178 19.5759L0.885663 19.6433L0.906011 19.9228L1.83213 19.8554ZM1.81178 19.5759L2.73791 19.5085C2.74256 19.5724 2.73813 19.6733 2.69302 19.789C2.6461 19.9093 2.57001 20.0071 2.48471 20.0769C2.33486 20.1996 2.21077 20.1948 2.26459 20.1905L2.19186 19.2648L2.11912 18.3391C1.90599 18.3559 1.58509 18.4134 1.30854 18.6397C0.975537 18.9122 0.86053 19.298 0.885663 19.6433L1.81178 19.5759ZM2.19186 19.2648L2.26459 20.1905L2.66501 20.1591L2.59227 19.2334L2.51954 18.3076L2.11912 18.3391L2.19186 19.2648ZM2.59227 19.2334L2.66501 20.1591L3.06543 20.1276L2.99269 19.2019L2.91996 18.2762L2.51954 18.3076L2.59227 19.2334ZM2.99269 19.2019L3.06543 20.1276C3.56741 20.0882 4.07125 19.8576 4.36524 19.3378L3.55698 18.8807L2.74872 18.4236C2.75994 18.4037 2.77683 18.3799 2.8005 18.356C2.82428 18.332 2.84997 18.3129 2.87462 18.2989C2.92385 18.2709 2.94889 18.2739 2.91996 18.2762L2.99269 19.2019ZM3.55698 18.8807L4.36524 19.3378L4.52911 19.0481L3.72085 18.591L2.91259 18.1338L2.74872 18.4236L3.55698 18.8807ZM3.72085 18.591L4.52911 19.0481L4.69298 18.7583L3.88472 18.3012L3.07646 17.8441L2.91259 18.1338L3.72085 18.591ZM3.88472 18.3012L4.69298 18.7583C4.74936 18.6586 4.83448 18.5481 4.96152 18.4295L4.32786 17.7508L3.6942 17.072C3.44889 17.301 3.23858 17.5574 3.07646 17.8441L3.88472 18.3012ZM4.32786 17.7508L4.96152 18.4295L5.24079 18.1688L4.60713 17.49L3.97347 16.8113L3.6942 17.072L4.32786 17.7508ZM4.60713 17.49L5.24079 18.1688L5.52006 17.9081L4.8864 17.2293L4.25274 16.5506L3.97347 16.8113L4.60713 17.49ZM4.8864 17.2293L5.52006 17.9081C5.68935 17.7501 5.83588 17.6259 5.96056 17.5316L5.40025 16.7911L4.83994 16.0506C4.65185 16.193 4.45581 16.361 4.25274 16.5506L4.8864 17.2293ZM5.40025 16.7911L5.96056 17.5316L6.19514 17.3541L5.63483 16.6136L5.07452 15.8731L4.83994 16.0506L5.40025 16.7911ZM5.63483 16.6136L6.19514 17.3541L6.42973 17.1766L5.86941 16.4361L5.3091 15.6956L5.07452 15.8731L5.63483 16.6136ZM5.86941 16.4361L6.42973 17.1766C6.66359 16.9996 6.86984 16.7858 7.05239 16.547L6.31478 15.983L5.57718 15.4189C5.47868 15.5477 5.38802 15.6359 5.3091 15.6956L5.86941 16.4361ZM6.31478 15.983L7.05239 16.547L7.26317 16.2714L6.52557 15.7073L5.78797 15.1433L5.57718 15.4189L6.31478 15.983ZM6.52557 15.7073L7.26317 16.2714L7.47396 15.9958L6.73636 15.4317L5.99876 14.8676L5.78797 15.1433L6.52557 15.7073ZM6.73636 15.4317L7.47396 15.9958C7.70272 15.6967 7.85369 15.3572 7.93254 14.9917L7.02485 14.7959L6.11716 14.6001C6.0924 14.7149 6.05104 14.7993 5.99876 14.8676L6.73636 15.4317ZM7.02485 14.7959L7.93254 14.9917L8.01023 14.6316L7.10255 14.4358L6.19486 14.2399L6.11716 14.6001L7.02485 14.7959ZM7.10255 14.4358L8.01023 14.6316L8.08793 14.2714L7.18024 14.0756L6.27256 13.8798L6.19486 14.2399L7.10255 14.4358ZM7.18024 14.0756L8.08793 14.2714C8.15482 13.9614 8.18415 13.6467 8.15501 13.3371L7.23052 13.4241L6.30604 13.5111C6.31346 13.59 6.30927 13.7096 6.27256 13.8798L7.18024 14.0756ZM7.23052 13.4241L8.15501 13.3371L8.12758 13.0457L7.2031 13.1328L6.27861 13.2198L6.30604 13.5111L7.23052 13.4241ZM7.2031 13.1328L8.12758 13.0457L8.10016 12.7544L7.17568 12.8414L6.25119 12.9284L6.27861 13.2198L7.2031 13.1328ZM7.17568 12.8414L8.10016 12.7544C8.09951 12.7475 8.09617 12.7031 8.13947 12.6055L7.29061 12.2291L6.44176 11.8526C6.29524 12.1831 6.21528 12.5469 6.25119 12.9284L7.17568 12.8414ZM7.29061 12.2291L8.13947 12.6055L8.28182 12.2844L7.43297 11.908L6.58411 11.5316L6.44176 11.8526L7.29061 12.2291ZM7.43297 11.908L8.28182 12.2844L8.42418 11.9634L7.57533 11.587L6.72647 11.2106L6.58411 11.5316L7.43297 11.908ZM7.57533 11.587L8.42418 11.9634C8.51076 11.7682 8.62501 11.4136 8.48818 11.0196C8.33413 10.5761 7.9703 10.3722 7.70721 10.2909L7.43334 11.1782L7.15948 12.0655C7.08595 12.0428 6.84055 11.9362 6.73384 11.629C6.6882 11.4975 6.69037 11.3848 6.69971 11.3161C6.70866 11.2503 6.72547 11.2129 6.72647 11.2106L7.57533 11.587ZM7.43334 11.1782L7.70721 10.2909L7.42287 10.2032L7.149 11.0904L6.87514 11.9777L7.15948 12.0655L7.43334 11.1782ZM7.149 11.0904L7.42287 10.2032L7.13853 10.1154L6.86466 11.0027L6.5908 11.89L6.87514 11.9777L7.149 11.0904ZM6.86466 11.0027L7.13853 10.1154C6.85457 10.0278 6.56216 9.98652 6.26503 9.9915L6.28057 10.9199L6.29612 11.8484C6.39866 11.8467 6.49564 11.8606 6.5908 11.89L6.86466 11.0027ZM6.28057 10.9199L6.26503 9.9915L5.96528 9.99652L5.98082 10.925L5.99637 11.8534L6.29612 11.8484L6.28057 10.9199ZM5.98082 10.925L5.96528 9.99652L5.66553 10.0015L5.68107 10.93L5.69662 11.8584L5.99637 11.8534L5.98082 10.925ZM5.68107 10.93L5.66553 10.0015C5.41681 10.0057 5.16646 10.0295 4.91499 10.0717L5.06881 10.9875L5.22263 11.9032C5.38784 11.8755 5.54567 11.8609 5.69662 11.8584L5.68107 10.93ZM5.06881 10.9875L4.91499 10.0717L4.60248 10.1242L4.7563 11.04L4.91012 11.9557L5.22263 11.9032L5.06881 10.9875ZM4.7563 11.04L4.60248 10.1242L4.28997 10.1767L4.44379 11.0925L4.5976 12.0082L4.91012 11.9557L4.7563 11.04ZM4.44379 11.0925L4.28997 10.1767C4.28971 10.1768 4.23962 10.1864 4.1144 10.1353L3.7639 10.9952L3.41341 11.8551C3.77802 12.0037 4.18118 12.0782 4.5976 12.0082L4.44379 11.0925ZM3.7639 10.9952L4.1144 10.1353L3.74702 9.98559L3.39653 10.8455L3.04604 11.7054L3.41341 11.8551L3.7639 10.9952ZM3.39653 10.8455L3.74702 9.98559L3.37965 9.83585L3.02916 10.6957L2.67866 11.5556L3.04604 11.7054L3.39653 10.8455ZM3.02916 10.6957L3.37965 9.83585C3.10637 9.72446 2.83371 9.63335 2.57958 9.58979L2.4227 10.505L2.26581 11.4202C2.33047 11.4313 2.46211 11.4674 2.67866 11.5556L3.02916 10.6957ZM2.4227 10.505L2.57958 9.58979L2.3405 9.5488L2.18361 10.464L2.02673 11.3792L2.26581 11.4202L2.4227 10.505ZM2.18361 10.464L2.3405 9.5488L2.10141 9.50782L1.94453 10.423L1.78764 11.3383L2.02673 11.3792L2.18361 10.464ZM1.94453 10.423L2.10141 9.50782C2.16206 9.51821 2.25399 9.54439 2.35235 9.60897C2.45501 9.67637 2.53754 9.76804 2.59322 9.87104C2.64614 9.96892 2.66341 10.0554 2.66896 10.108C2.67439 10.1595 2.66994 10.1905 2.66968 10.1923L1.7501 10.0634L0.830519 9.93452C0.802816 10.1322 0.792637 10.4455 0.959534 10.7542C1.15355 11.1131 1.48562 11.2865 1.78764 11.3383L1.94453 10.423ZM1.7501 10.0634L2.66968 10.1923L2.71435 9.87365L1.79476 9.74476L0.875181 9.61587L0.830519 9.93452L1.7501 10.0634ZM1.79476 9.74476L2.71435 9.87365L2.75901 9.555L1.83943 9.42611L0.919843 9.29722L0.875181 9.61587L1.79476 9.74476ZM1.83943 9.42611L2.75901 9.555C2.78689 9.35607 2.81992 9.15236 2.85816 8.94383L1.94483 8.77631L1.03149 8.60878C0.988754 8.8418 0.95151 9.07129 0.919843 9.29722L1.83943 9.42611ZM1.94483 8.77631L2.85816 8.94383L2.9189 8.61267L2.00557 8.44515L1.09224 8.27763L1.03149 8.60878L1.94483 8.77631ZM2.00557 8.44515L2.9189 8.61267L2.97965 8.28152L2.06631 8.11399L1.15298 7.94647L1.09224 8.27763L2.00557 8.44515ZM2.06631 8.11399L2.97965 8.28152C3.03509 7.97925 3.04978 7.67336 3.02471 7.36604L2.09921 7.44154L1.17371 7.51704C1.18577 7.66478 1.17852 7.80719 1.15298 7.94647L2.06631 8.11399ZM2.09921 7.44154L3.02471 7.36604L2.99687 7.02474L2.07137 7.10024L1.14587 7.17574L1.17371 7.51704L2.09921 7.44154ZM2.07137 7.10024L2.99687 7.02474L2.96902 6.68345L2.04353 6.75895L1.11803 6.83445L1.14587 7.17574L2.07137 7.10024ZM2.04353 6.75895L2.96902 6.68345C2.95373 6.49601 2.95069 6.30902 2.95985 6.12221L2.03239 6.07676L1.10493 6.03131C1.09181 6.29902 1.0962 6.56682 1.11803 6.83445L2.04353 6.75895ZM2.03239 6.07676L2.95985 6.12221L2.97655 5.78133L2.0491 5.73588L1.12164 5.69043L1.10493 6.03131L2.03239 6.07676ZM2.0491 5.73588L2.97655 5.78133L2.99326 5.44044L2.0658 5.39499L1.13834 5.34954L1.12164 5.69043L2.0491 5.73588ZM2.0658 5.39499L2.99326 5.44044C3.00951 5.10879 2.97024 4.78132 2.87782 4.46201L1.98586 4.72018L1.0939 4.97835C1.13034 5.10427 1.14436 5.22666 1.13834 5.34954L2.0658 5.39499ZM1.98586 4.72018L2.87782 4.46201L2.78117 4.12809L1.88921 4.38626L0.997247 4.64443L1.0939 4.97835L1.98586 4.72018ZM1.88921 4.38626L2.78117 4.12809L2.68452 3.79418L1.79256 4.05234L0.900598 4.31051L0.997247 4.64443L1.88921 4.38626ZM1.79256 4.05234L2.68452 3.79418C2.6577 3.70151 2.65768 3.63245 2.66874 3.57452L1.75665 3.40035L0.844557 3.22618C0.774634 3.59235 0.798554 3.95796 0.900598 4.31051L1.79256 4.05234ZM1.75665 3.40035L2.66874 3.57452L2.72948 3.25644L1.81739 3.08227L0.905295 2.90811L0.844557 3.22618L1.75665 3.40035ZM1.81739 3.08227L2.72948 3.25644L2.79022 2.93837L1.87812 2.7642L0.966034 2.59003L0.905295 2.90811L1.81739 3.08227ZM1.87812 2.7642L2.79022 2.93837C2.77627 3.0114 2.7263 3.13754 2.60174 3.23853C2.54666 3.28318 2.49401 3.30849 2.4557 3.32209C2.4188 3.3352 2.39614 3.3372 2.39546 3.33726L2.312 2.41245L2.22854 1.48764C1.98193 1.50989 1.68906 1.58767 1.43219 1.79592C1.163 2.01416 1.02047 2.30495 0.966034 2.59003L1.87812 2.7642ZM2.312 2.41245L2.39546 3.33726L2.76859 3.30359L2.68513 2.37878L2.60167 1.45396L2.22854 1.48764L2.312 2.41245ZM2.68513 2.37878L2.76859 3.30359L3.14173 3.26991L3.05827 2.3451L2.97481 1.42029L2.60167 1.45396L2.68513 2.37878ZM3.05827 2.3451L3.14173 3.26991C3.48214 3.23919 3.81222 3.159 4.12914 3.03035L3.77987 2.16997L3.4306 1.30959C3.28289 1.36955 3.13191 1.40611 2.97481 1.42029L3.05827 2.3451ZM3.77987 2.16997L4.12914 3.03035L4.47761 2.88889L4.12834 2.02851L3.77907 1.16813L3.4306 1.30959L3.77987 2.16997ZM4.12834 2.02851L4.47761 2.88889L4.82608 2.74743L4.47681 1.88705L4.12754 1.02667L3.77907 1.16813L4.12834 2.02851ZM4.47681 1.88705L4.82608 2.74743C4.90043 2.71725 4.9274 2.72532 4.93532 2.72723L5.1528 1.82449L5.37027 0.921741C4.9415 0.818448 4.51782 0.868233 4.12754 1.02667L4.47681 1.88705ZM5.1528 1.82449L4.93532 2.72723L5.26283 2.80613L5.48031 1.90339L5.69779 1.00064L5.37027 0.921741L5.1528 1.82449ZM5.48031 1.90339L5.26283 2.80613L5.59035 2.88503L5.80783 1.98229L6.0253 1.07954L5.69779 1.00064L5.48031 1.90339ZM5.80783 1.98229L5.59035 2.88503C5.78208 2.93122 5.97569 2.98683 6.17123 3.05209L6.4652 2.17128L6.75917 1.29047C6.5149 1.20894 6.27026 1.13855 6.0253 1.07954L5.80783 1.98229ZM6.4652 2.17128L6.17123 3.05209L6.50109 3.16218L6.79506 2.28137L7.08903 1.40056L6.75917 1.29047L6.4652 2.17128ZM6.79506 2.28137L6.50109 3.16218L6.83095 3.27227L7.12492 2.39146L7.41888 1.51065L7.08903 1.40056L6.79506 2.28137ZM7.12492 2.39146L6.83095 3.27227C7.27551 3.42064 7.72986 3.39327 8.15076 3.21592L7.79019 2.36021L7.42963 1.5045C7.4188 1.50907 7.4125 1.51072 7.41045 1.51121C7.40853 1.51166 7.40946 1.51129 7.4126 1.51114C7.41579 1.51099 7.41894 1.51118 7.42127 1.51151C7.42353 1.51184 7.42291 1.51199 7.41888 1.51065L7.12492 2.39146ZM7.79019 2.36021L8.15076 3.21592L8.48618 3.07458L8.12561 2.21888L7.76505 1.36317L7.42963 1.5045L7.79019 2.36021ZM8.12561 2.21888L8.48618 3.07458L8.8216 2.93325L8.46103 2.07754L8.10047 1.22183L7.76505 1.36317L8.12561 2.21888ZM8.46103 2.07754L8.8216 2.93325C8.91876 2.89231 8.97794 2.89063 9.01353 2.89458L9.11597 1.97167L9.21841 1.04877C8.82797 1.00543 8.45053 1.07433 8.10047 1.22183L8.46103 2.07754ZM9.11597 1.97167L9.01353 2.89458L9.33304 2.93004L9.43549 2.00714L9.53793 1.08424L9.21841 1.04877L9.11597 1.97167ZM9.43549 2.00714L9.33304 2.93004L9.65256 2.96551L9.755 2.04261L9.85744 1.1197L9.53793 1.08424L9.43549 2.00714ZM9.755 2.04261L9.65256 2.96551C9.7704 2.97859 9.90572 3.01191 10.0606 3.07494L10.4106 2.21488L10.7607 1.35482C10.4674 1.23544 10.1656 1.15391 9.85744 1.1197L9.755 2.04261ZM10.4106 2.21488L10.0606 3.07494L10.3967 3.21174L10.7467 2.35169L11.0968 1.49163L10.7607 1.35482L10.4106 2.21488ZM10.7467 2.35169L10.3967 3.21174L10.7328 3.34855L11.0829 2.48849L11.4329 1.62843L11.0968 1.49163L10.7467 2.35169ZM11.0829 2.48849L10.7328 3.34855C11.068 3.48497 11.4211 3.55421 11.7851 3.54348L11.7577 2.61531L11.7303 1.68714C11.6427 1.68973 11.5459 1.67442 11.4329 1.62843L11.0829 2.48849ZM11.7577 2.61531L11.7851 3.54348L12.1238 3.53349L12.0965 2.60532L12.0691 1.67715L11.7303 1.68714L11.7577 2.61531ZM12.0965 2.60532L12.1238 3.53349L12.4626 3.5235L12.4352 2.59533L12.4078 1.66716L12.0691 1.67715L12.0965 2.60532ZM12.4352 2.59533L12.4626 3.5235C12.4963 3.52251 12.4228 3.53211 12.3075 3.4773C12.2441 3.44713 12.1703 3.39825 12.1027 3.32358C12.0345 3.24814 11.9888 3.16429 11.962 3.08437L12.8423 2.78893L13.7226 2.49349C13.6153 2.17383 13.3879 1.93466 13.1052 1.80017C12.8542 1.68083 12.6 1.6615 12.4078 1.66716L12.4352 2.59533ZM12.8423 2.78893L11.962 3.08437L12.0303 3.28796L12.9106 2.99252L13.7909 2.69708L13.7226 2.49349L12.8423 2.78893ZM12.9106 2.99252L12.0303 3.28796L12.0986 3.49155L12.9789 3.19611L13.8593 2.90067L13.7909 2.69708L12.9106 2.99252ZM12.9789 3.19611L12.0986 3.49155C12.1339 3.59664 12.1755 3.74071 12.2228 3.92921L13.1234 3.70328L14.0241 3.47734C13.9698 3.26108 13.9151 3.06703 13.8593 2.90067L12.9789 3.19611ZM13.1234 3.70328L12.2228 3.92921L12.2989 4.23279L13.1996 4.00686L14.1002 3.78092L14.0241 3.47734L13.1234 3.70328ZM13.1996 4.00686L12.2989 4.23279L12.3751 4.53637L13.2757 4.31043L14.1764 4.0845L14.1002 3.78092L13.1996 4.00686ZM13.2757 4.31043L12.3751 4.53637C12.4112 4.6806 12.4345 4.8319 12.4438 4.99128L13.3708 4.93704L14.2978 4.8828C14.2819 4.61148 14.2417 4.34504 14.1764 4.0845L13.2757 4.31043ZM13.3708 4.93704L12.4438 4.99128L12.4627 5.31431L13.3897 5.26007L14.3167 5.20583L14.2978 4.8828L13.3708 4.93704ZM13.3897 5.26007L12.4627 5.31431L12.4816 5.63734L13.4086 5.5831L14.3356 5.52886L14.3167 5.20583L13.3897 5.26007ZM13.4086 5.5831L12.4816 5.63734C12.4925 5.82351 12.4951 6.01986 12.489 6.22669L13.4172 6.25419L14.3453 6.2817C14.353 6.02444 14.3499 5.77339 14.3356 5.52886L13.4086 5.5831ZM13.4172 6.25419L12.489 6.22669L12.4787 6.57476L13.4069 6.60226L14.335 6.62976L14.3453 6.2817L13.4172 6.25419ZM13.4069 6.60226L12.4787 6.57476L12.4684 6.92282L13.3965 6.95033L14.3247 6.97783L14.335 6.62976L13.4069 6.60226ZM13.3965 6.95033L12.4684 6.92282C12.4638 7.0757 12.4399 7.233 12.3939 7.39626L13.2876 7.64817L14.1814 7.90007C14.2668 7.59697 14.3155 7.28904 14.3247 6.97783L13.3965 6.95033ZM13.2876 7.64817L12.3939 7.39626L12.2953 7.74604L13.1891 7.99795L14.0828 8.24985L14.1814 7.90007L13.2876 7.64817ZM13.1891 7.99795L12.2953 7.74604L12.1967 8.09582L13.0905 8.34772L13.9842 8.59963L14.0828 8.24985L13.1891 7.99795ZM13.0905 8.34772L12.1967 8.09582C12.0876 8.48291 12.0799 8.88273 12.1875 9.27629L13.0832 9.03146L13.9789 8.78663C13.9647 8.73491 13.9619 8.6789 13.9842 8.59963L13.0905 8.34772ZM13.0832 9.03146L12.1875 9.27629L12.2787 9.61026L13.1745 9.36543L14.0702 9.1206L13.9789 8.78663L13.0832 9.03146ZM13.1745 9.36543L12.2787 9.61026L12.37 9.94422L13.2657 9.69939L14.1615 9.45456L14.0702 9.1206L13.1745 9.36543ZM13.2657 9.69939L12.37 9.94422C12.3761 9.96643 12.3634 9.93494 12.3731 9.86729C12.3842 9.79011 12.4194 9.70454 12.4795 9.63339L13.189 10.2324L13.8985 10.8314C14.2698 10.3916 14.2736 9.86497 14.1615 9.45456L13.2657 9.69939ZM13.189 10.2324L12.4795 9.63339L12.3114 9.83242L13.021 10.4314L13.7305 11.0304L13.8985 10.8314L13.189 10.2324ZM13.021 10.4314L12.3114 9.83242L12.1434 10.0315L12.8529 10.6305L13.5625 11.2295L13.7305 11.0304L13.021 10.4314ZM12.8529 10.6305L12.1434 10.0315C12.0875 10.0977 11.9726 10.2359 11.8987 10.4014C11.8766 10.451 11.8445 10.5325 11.8257 10.6364C11.8078 10.7355 11.7909 10.9162 11.8636 11.1239C11.9462 11.36 12.1151 11.5449 12.3232 11.652C12.505 11.7456 12.6725 11.7581 12.7641 11.7581V10.8295V9.90093C12.8426 9.90093 12.9995 9.91136 13.1732 10.0008C13.3732 10.1037 13.5366 10.2824 13.6164 10.5102C13.6862 10.7096 13.6689 10.88 13.6533 10.9666C13.6367 11.0581 13.6094 11.1251 13.5947 11.158C13.5505 11.2573 13.5064 11.2959 13.5625 11.2295L12.8529 10.6305ZM12.7641 10.8295V11.7581H12.8434V10.8295V9.90093H12.7641V10.8295ZM12.8434 10.8295V11.7581H12.9226V10.8295V9.90093H12.8434V10.8295ZM12.9226 10.8295V11.7581C12.7435 11.7581 12.5536 11.7037 12.3894 11.5827C12.2362 11.4698 12.1534 11.3348 12.1107 11.2431C12.0352 11.0806 12.0357 10.9468 12.0355 10.9354C12.0346 10.8872 12.0411 10.8927 12.0195 10.9983L12.9292 11.1845L13.8389 11.3708C13.8657 11.2396 13.8954 11.0676 13.8923 10.9011C13.891 10.8305 13.8841 10.6524 13.7948 10.4603C13.7453 10.3537 13.654 10.2076 13.4908 10.0874C13.3165 9.95901 13.115 9.90093 12.9226 9.90093V10.8295ZM12.9292 11.1845L12.0195 10.9983L11.9468 11.3533L12.8565 11.5396L13.7662 11.7258L13.8389 11.3708L12.9292 11.1845Z" fill="#80A281"/>
</svg>
