<svg width="25" height="25" viewBox="0 0 25 25" fill="none" xmlns="http://www.w3.org/2000/svg">
<path d="M13.5142 1.88037C15.0855 1.88055 16.4639 2.92807 16.8853 4.44189L17.1235 5.29834C17.1837 5.51431 17.3812 5.66453 17.606 5.66455C20.367 5.66455 22.6089 7.90271 22.6089 10.6646V17.8804C22.6089 20.6418 20.3703 22.8804 17.6089 22.8804H6.60889C3.84746 22.8804 1.60889 20.6418 1.60889 17.8804V10.6646C1.60889 7.90271 3.85081 5.66455 6.61182 5.66455C6.83659 5.66453 7.03411 5.51431 7.09424 5.29834L7.33252 4.44189C7.7539 2.92807 9.13223 1.88055 10.7036 1.88037H13.5142ZM10.7036 2.88037C9.58112 2.88055 8.59627 3.62899 8.29541 4.71045L8.05713 5.56592C7.87652 6.21514 7.28511 6.66453 6.61182 6.66455C4.40226 6.66455 2.60889 8.45583 2.60889 10.6646V17.8804C2.60889 20.0895 4.39975 21.8804 6.60889 21.8804H17.6089C19.818 21.8804 21.6089 20.0895 21.6089 17.8804V10.6646C21.6089 8.45583 19.8155 6.66455 17.606 6.66455C16.9327 6.66453 16.3413 6.21514 16.1606 5.56592L15.9224 4.71045C15.6215 3.62899 14.6367 2.88055 13.5142 2.88037H10.7036ZM12.1089 9.38037C14.5942 9.38037 16.6089 11.3951 16.6089 13.8804C16.6089 16.3657 14.5942 18.3804 12.1089 18.3804C9.62361 18.3804 7.60889 16.3657 7.60889 13.8804C7.60889 11.3951 9.62361 9.38037 12.1089 9.38037ZM12.1089 10.3804C10.1759 10.3804 8.60889 11.9474 8.60889 13.8804C8.60889 15.8134 10.1759 17.3804 12.1089 17.3804C14.0419 17.3804 15.6089 15.8134 15.6089 13.8804C15.6089 11.9474 14.0419 10.3804 12.1089 10.3804Z" fill="#919191"/>
</svg>
