<svg width="24" height="24" viewBox="0 0 24 24" fill="none" xmlns="http://www.w3.org/2000/svg">
<path d="M17.8494 4.17604C18.2399 3.78594 18.873 3.78578 19.2635 4.17604C19.654 4.56656 19.654 5.20055 19.2635 5.59108L13.1336 11.72L19.2635 17.8499C19.6538 18.2404 19.6539 18.8735 19.2635 19.2639C18.873 19.6544 18.2399 19.6542 17.8494 19.2639L11.7195 13.134L5.58963 19.2639L5.51444 19.3323C5.12166 19.6528 4.54174 19.6301 4.17557 19.2639C3.80953 18.8977 3.78673 18.3178 4.10721 17.9251L4.17557 17.8499L10.3055 11.72L4.17557 5.5901L4.10721 5.51491C3.78685 5.12213 3.80945 4.54216 4.17557 4.17604C4.54169 3.80992 5.12166 3.78732 5.51444 4.10768L5.58963 4.17604L11.7195 10.3059L17.8494 4.17604Z" fill="#919191"/>
</svg>
