<svg width="24" height="25" viewBox="0 0 24 25" fill="none" xmlns="http://www.w3.org/2000/svg">
<path d="M16.9151 6.49019C17.169 6.23634 17.5812 6.23634 17.8351 6.49019C18.0889 6.74403 18.0889 7.15627 17.8351 7.41011L12.6075 12.6376L17.8351 17.8652C18.0889 18.119 18.0889 18.5313 17.8351 18.7851C17.5812 19.0389 17.169 19.0389 16.9151 18.7851L11.6876 13.5576L6.46006 18.7851C6.20621 19.0388 5.79489 19.0379 5.54111 18.7841C5.28734 18.5304 5.28649 18.119 5.54014 17.8652L10.7677 12.6376L5.54014 7.41011C5.2865 7.15626 5.28736 6.74494 5.54111 6.49116C5.79489 6.23739 6.2062 6.23654 6.46006 6.49019L11.6876 11.7177L16.9151 6.49019Z" fill="#C7C7C7"/>
</svg>
