<svg width="24" height="24" viewBox="0 0 24 24" fill="none" xmlns="http://www.w3.org/2000/svg">
<path d="M17.8486 4.17578C18.2392 3.78526 18.8731 3.78526 19.2637 4.17578C19.654 4.56619 19.6538 5.19932 19.2637 5.58984L13.1338 11.7188L19.2637 17.8486C19.6542 18.2392 19.6542 18.8731 19.2637 19.2637C18.8731 19.6542 18.2392 19.6542 17.8486 19.2637L11.7188 13.1338L5.58984 19.2637L5.51465 19.332C5.1219 19.6525 4.54196 19.6298 4.17578 19.2637C3.80962 18.8975 3.78693 18.3176 4.10742 17.9248L4.17578 17.8496L10.3047 11.7197L4.17578 5.58984L4.10742 5.51465C3.78686 5.12187 3.80959 4.54198 4.17578 4.17578C4.54198 3.80959 5.12187 3.78686 5.51465 4.10742L5.58984 4.17578L11.7188 10.3047L17.8486 4.17578Z" fill="#919191"/>
</svg>
