<svg width="16" height="17" viewBox="0 0 16 17" fill="none" xmlns="http://www.w3.org/2000/svg">
<path d="M8.00024 1.39844C11.5909 1.39858 14.5002 4.27107 14.5002 7.56543C14.4999 9.93348 13.0508 11.9726 11.5989 13.3818C10.8649 14.0942 10.1085 14.6674 9.48853 15.0645C9.17909 15.2626 8.89739 15.4205 8.66431 15.5312C8.54819 15.5864 8.43733 15.6333 8.33716 15.667C8.24835 15.6969 8.12539 15.7314 8.00024 15.7314C7.87518 15.7314 7.75217 15.6969 7.66333 15.667C7.56324 15.6333 7.4522 15.5864 7.33618 15.5312C7.10318 15.4205 6.82127 15.2625 6.51196 15.0645C5.89203 14.6675 5.13548 14.0941 4.40161 13.3818C2.94973 11.9726 1.50055 9.93348 1.50024 7.56543C1.50024 4.27099 4.40943 1.39844 8.00024 1.39844ZM8.00024 2.39844C4.92439 2.39844 2.50024 4.85987 2.50024 7.56543C2.50055 9.5299 3.71788 11.3247 5.09888 12.665C5.78122 13.3272 6.48382 13.8585 7.05103 14.2217C7.33493 14.4035 7.57989 14.5396 7.76587 14.6279C7.85907 14.6722 7.93162 14.7025 7.98267 14.7197C7.989 14.7218 7.99525 14.7231 8.00024 14.7246C8.00531 14.7231 8.0114 14.7219 8.01782 14.7197C8.06893 14.7025 8.1413 14.6723 8.23462 14.6279C8.42067 14.5395 8.66542 14.4036 8.94946 14.2217C9.51675 13.8584 10.2192 13.3273 10.9016 12.665C12.2826 11.3247 13.4999 9.5299 13.5002 7.56543C13.5002 4.85995 11.076 2.39858 8.00024 2.39844ZM7.99927 5.06445C9.56392 5.06445 10.833 6.33286 10.8333 7.89746C10.8333 9.46227 9.56407 10.7314 7.99927 10.7314C6.43482 10.731 5.16626 9.46201 5.16626 7.89746C5.1665 6.33312 6.43497 5.06488 7.99927 5.06445ZM7.99927 6.06445C6.98726 6.06488 6.1665 6.88541 6.16626 7.89746C6.16626 8.90972 6.98711 9.73102 7.99927 9.73145C9.01179 9.73145 9.83325 8.90998 9.83325 7.89746C9.83301 6.88515 9.01164 6.06445 7.99927 6.06445Z" fill="#919191"/>
</svg>
