<svg width="25" height="25" viewBox="0 0 25 25" fill="none" xmlns="http://www.w3.org/2000/svg">
<g clip-path="url(#clip0_260_1497)">
<path d="M15.8984 11.5687V11.9317L15.8077 12.2903L15.9051 12.66V13.0274L15.6527 13.3573L15.8032 13.7557L15.6018 14.0811L15.542 14.4419L15.4314 14.7894L15.3362 15.1458L15.2056 15.4911L14.8492 15.7124L14.6389 15.998L14.4995 16.3433L14.3069 16.6554L14.0634 16.8967L13.7624 17.076L13.5986 17.408L13.2466 17.5209L13.0253 17.7931L12.6445 17.8418L12.4697 18.2004L12.1598 18.3532L11.8255 18.455L11.5311 18.6276L11.177 18.6697L10.8582 18.7826L10.6059 19.0925L10.2429 19.108L9.92634 18.8866L9.871 18.4439L9.58103 18.2071L9.39731 17.8817L8.97452 17.7533L8.82843 17.3947L8.65356 17.0848L8.94796 17.0605L9.22022 16.8103L9.61202 16.8214L9.83337 16.5005L10.1477 16.3544L10.369 16.0732L10.6192 15.8519L10.8936 15.6482L11.2478 15.4999L11.3474 15.1391L11.5245 14.847L11.7459 14.5747L11.8654 14.2493L12.0447 13.9505L12.2195 13.6406L12.1642 13.2687L12.4011 12.9632L12.2372 12.5869L12.5029 12.2682L12.4763 11.9163L12.4232 11.5444L12.0779 11.6241L11.737 11.478H11.3983L11.0574 11.4625L10.7166 11.6086L10.3757 11.5001L10.0348 11.6706L9.69392 11.4492L9.35303 11.582L8.93468 11.6374V11.2057L9.11176 10.8515L9.02322 10.4952L8.95682 10.1388L8.91033 9.78242L9.11619 9.42826L8.99887 9.07409L8.97452 8.71772L9.10291 8.36134L8.92361 8.00496L9.06749 7.64858L8.92583 7.29221L9.07192 6.93583V6.57946L9.10291 6.30277L9.36189 6.21644L9.7072 6.23636H10.0525L10.3978 6.1456L10.7431 6.16553L11.0884 6.23636L11.4337 6.09912L11.7791 6.15225L12.1244 6.26071L12.4697 6.34925L12.815 6.1279L13.1603 6.15446L13.5056 6.21423L13.8509 6.32711L14.1962 6.26293L14.5437 6.33818L14.889 6.21201L15.2366 6.24079L15.5819 6.1766L15.9383 6.22751L15.9117 6.59052L16.0578 6.9469L16.0312 7.30106L15.9427 7.65744L16.0578 8.01381L15.8763 8.36798L15.9471 8.72436L15.925 9.08073L16.0224 9.4349V9.79127L16.0445 10.1477L15.9715 10.504L15.8475 10.8604L15.8984 11.2168V11.5687Z" fill="#627262"/>
</g>
<defs>
<clipPath id="clip0_260_1497">
<rect width="7.38651" height="13" fill="white" transform="translate(8.64697 6.10107)"/>
</clipPath>
</defs>
</svg>
