<svg width="25" height="25" viewBox="0 0 25 25" fill="none" xmlns="http://www.w3.org/2000/svg">
<g clip-path="url(#clip0_260_1478)">
<path d="M16.222 11.7557V12.1188L16.1313 12.4773L16.2287 12.847V13.2145L15.9763 13.5443L16.1268 13.9427L15.9254 14.2681L15.8656 14.6289L15.755 14.9764L15.6598 15.3328L15.5292 15.6781L15.1728 15.8994L14.9625 16.185L14.8231 16.5303L14.6305 16.8424L14.387 17.0837L14.086 17.263L13.9222 17.595L13.5702 17.7079L13.3489 17.9802L12.9681 18.0289L12.7933 18.3874L12.4834 18.5402L12.1491 18.642L11.8547 18.8147L11.5006 18.8567L11.1818 18.9696L10.9295 19.2795L10.5665 19.295L10.2499 19.0736L10.1946 18.6309L9.90463 18.3941L9.72092 18.0687L9.29813 17.9403L9.15204 17.5817L8.97717 17.2718L9.27157 17.2475L9.54383 16.9974L9.93563 17.0084L10.157 16.6875L10.4713 16.5414L10.6927 16.2603L10.9428 16.0389L11.2173 15.8353L11.5714 15.687L11.671 15.3261L11.8481 15.034L12.0695 14.7617L12.189 14.4363L12.3683 14.1375L12.5432 13.8276L12.4878 13.4557L12.7247 13.1503L12.5609 12.774L12.8265 12.4552L12.7999 12.1033L12.7468 11.7314L12.4015 11.8111L12.0606 11.665H11.7219L11.3811 11.6495L11.0402 11.7956L10.6993 11.6871L10.3584 11.8576L10.0175 11.6362L9.67664 11.769L9.25829 11.8244V11.3927L9.43537 11.0386L9.34683 10.6822L9.28042 10.3258L9.23394 9.96943L9.4398 9.61527L9.32248 9.2611L9.29813 8.90473L9.42652 8.54835L9.24722 8.19198L9.3911 7.8356L9.24943 7.47922L9.39553 7.12284V6.76647L9.42652 6.48978L9.6855 6.40345L10.0308 6.42337H10.3761L10.7214 6.33261L11.0667 6.35254L11.412 6.42337L11.7574 6.28613L12.1027 6.33926L12.448 6.44772L12.7933 6.53626L13.1386 6.31491L13.4839 6.34147L13.8292 6.40124L14.1745 6.51413L14.5198 6.44994L14.8673 6.5252L15.2127 6.39902L15.5602 6.4278L15.9055 6.36361L16.2619 6.41452L16.2353 6.77753L16.3814 7.13391L16.3548 7.48807L16.2663 7.84445L16.3814 8.20083L16.1999 8.55499L16.2707 8.91137L16.2486 9.26774L16.346 9.62191V9.97828L16.3681 10.3347L16.2951 10.691L16.1711 11.0474L16.222 11.4038V11.7557Z" fill="#627262"/>
</g>
<defs>
<clipPath id="clip0_260_1478">
<rect width="7.38651" height="13" fill="white" transform="translate(8.97058 6.28809)"/>
</clipPath>
</defs>
</svg>
