<svg width="9" height="14" viewBox="0 0 9 14" fill="none" xmlns="http://www.w3.org/2000/svg">
<g clip-path="url(#clip0_349_4099)">
<path d="M7.89841 5.87781V6.24083L7.80766 6.59942L7.90505 6.96908V7.33652L7.65271 7.66634L7.80323 8.06477L7.6018 8.39015L7.54204 8.75096L7.43136 9.09848L7.33618 9.45486L7.20558 9.80017L6.8492 10.0215L6.63892 10.3071L6.49947 10.6524L6.30689 10.9645L6.0634 11.2058L5.76237 11.385L5.59857 11.7171L5.24662 11.83L5.02527 12.1022L4.64454 12.1509L4.46967 12.5095L4.15978 12.6623L3.82554 12.7641L3.53114 12.9367L3.17698 12.9788L2.85823 13.0917L2.60589 13.4016L2.24287 13.4171L1.92634 13.1957L1.871 12.753L1.58103 12.5162L1.39731 12.1908L0.974524 12.0624L0.828431 11.7038L0.653564 11.3939L0.947963 11.3696L1.22022 11.1194L1.61202 11.1305L1.83337 10.8095L2.14769 10.6634L2.36904 10.3823L2.61917 10.161L2.89365 9.95733L3.24781 9.80902L3.34742 9.44822L3.5245 9.15604L3.74585 8.88377L3.86538 8.55838L4.04467 8.25956L4.21954 7.94967L4.16421 7.5778L4.40105 7.27233L4.23725 6.89603L4.50287 6.57728L4.47631 6.22533L4.42319 5.85346L4.07788 5.93315L3.737 5.78706H3.39833L3.05745 5.77156L2.71656 5.91766L2.37568 5.80919L2.0348 5.97963L1.69392 5.75828L1.35303 5.8911L0.934679 5.94643V5.51479L1.11176 5.16063L1.02322 4.80426L0.956816 4.44788L0.91033 4.0915L1.11619 3.73734L0.998873 3.38317L0.974524 3.0268L1.10291 2.67042L0.923614 2.31405L1.06749 1.95767L0.925826 1.60129L1.07192 1.24491V0.88854L1.10291 0.61185L1.36189 0.525519L1.7072 0.54544H2.05251L2.39782 0.454685L2.74312 0.474613L3.08844 0.54544L3.43374 0.408203L3.77905 0.461332L4.12436 0.569792L4.46967 0.658332L4.81498 0.43698L5.16029 0.463541L5.5056 0.52331L5.85091 0.636195L6.19622 0.572008L6.54374 0.647267L6.88905 0.521095L7.23657 0.549872L7.58188 0.485678L7.93825 0.536591L7.91169 0.899605L8.05779 1.25598L8.03123 1.61014L7.94268 1.96652L8.05779 2.3229L7.87628 2.67706L7.94711 3.03344L7.92497 3.38981L8.02237 3.74398V4.10035L8.04451 4.45673L7.97146 4.81311L7.8475 5.16949L7.89841 5.52586V5.87781Z" fill="#627262"/>
</g>
<defs>
<clipPath id="clip0_349_4099">
<rect width="7.38651" height="13" fill="white" transform="translate(0.646973 0.410156)"/>
</clipPath>
</defs>
</svg>
