<svg width="33" height="33" viewBox="0 0 33 33" fill="none" xmlns="http://www.w3.org/2000/svg">
<g clip-path="url(#clip0_260_1554)">
<path d="M15.3022 12.9626V13.6997L15.1179 14.4279L15.3157 15.1785V15.9246L14.8033 16.5943L15.1089 17.3989L14.6999 18.0641L14.5785 18.7967L14.3538 19.5024L14.1605 20.226L13.8953 20.9272L13.1717 21.3767L12.7447 21.961L12.4615 22.6577L12.057 23.278L11.5626 23.7724L10.9513 24.1364L10.6187 24.8106L9.90405 25.0399L9.45457 25.5927L8.68148 25.6916L8.3264 26.4198L7.69714 26.7299L7.01843 26.9366L6.42064 27.2872L5.70149 27.3726L5.05425 27.6019L4.54185 28.2311L3.80472 28.2581L3.16198 27.8086L3.04961 26.9321L2.46079 26.4467L2.08774 25.786L1.22925 25.5298L0.932594 24.8017L0.577515 24.1724L1.17531 24.123L1.72816 23.6151H2.52372L2.97319 22.9678L3.61145 22.6712L4.06092 22.0958L4.56882 21.6464L5.12616 21.2284L5.84531 20.9317L6.04758 20.1991L6.40715 19.6058L6.85662 19.0529L7.09934 18.3922L7.46341 17.7854L7.8185 17.1561L7.70613 16.401L8.18706 15.7808L7.85445 15.0167L8.39382 14.3694L8.33988 13.6548L8.23201 12.8996L7.53083 13.0615L6.83865 12.7648H6.15096L5.45877 12.7333L4.76658 13.03L4.0744 12.8053L3.38221 13.1559L2.69003 12.7064L1.99784 12.9716L1.14834 13.0839V12.212L1.50792 11.4883L1.32813 10.7692L1.19329 10.0455L1.0989 9.32186L1.51691 8.6027L1.2697 7.90603L1.22026 7.18238L1.48095 6.46323L1.11688 5.73957L1.40903 5.01593L1.12137 4.29227L1.41802 3.56863V2.84049L1.48095 2.28313L2.00683 2.10785L2.708 2.1438H3.40918L4.11036 1.96401L4.81153 2.00446L5.51271 2.1438L6.21388 1.86963L6.91506 1.9775L7.61623 2.19773L8.31741 2.37753L9.01859 1.90558L9.71976 1.96401L10.4209 2.08537L11.1221 2.3101L11.8233 2.18425L12.529 2.33707L13.2301 2.08088L13.9358 2.13931L14.637 2.00446L15.3606 2.10785L15.3067 2.84947L15.6033 3.56863L15.5494 4.29227L15.3696 5.01593L15.6033 5.73957L15.2348 6.45873L15.3786 7.17789L15.3337 7.90153L15.5314 8.62518V9.34883L15.5764 10.0725L15.428 10.7961L15.1763 11.5198L15.2797 12.2434L15.3022 12.9626Z" fill="#627262"/>
<path d="M31.4831 12.9626V13.6997L31.2988 14.4279L31.4966 15.1785V15.9246L30.9842 16.5943L31.2898 17.3989L30.8808 18.0641L30.7595 18.7967L30.5347 19.5024L30.3414 20.226L30.0763 20.9272L29.3526 21.3767L28.9256 21.961L28.6424 22.6577L28.2379 23.278L27.7435 23.7724L27.1322 24.1364L26.7996 24.8106L26.085 25.0399L25.6355 25.5927L24.8624 25.6916L24.5073 26.4198L23.878 26.7299L23.1993 26.9366L22.6016 27.2872L21.8824 27.3726L21.2352 27.6019L20.7228 28.2311L19.9856 28.2581L19.3429 27.8086L19.2305 26.9321L18.6417 26.4467L18.2686 25.786L17.4102 25.5298L17.1135 24.8017L16.7584 24.1724L17.3562 24.123L17.9091 23.6151H18.7046L19.1541 22.9678L19.7924 22.6712L20.2418 22.0958L20.7497 21.6464L21.3071 21.2284L22.0262 20.9317L22.2285 20.1991L22.5881 19.6058L23.0375 19.0529L23.2803 18.3922L23.6443 17.7854L23.9994 17.1561L23.887 16.401L24.368 15.7808L24.0354 15.0167L24.5747 14.3694L24.5208 13.6548L24.4129 12.8996L23.7117 13.0615L23.0196 12.7648H22.3319L21.6397 12.7333L20.9475 13.03L20.2553 12.8053L19.5631 13.1559L18.8709 12.7064L18.1787 12.9716L17.3292 13.0839V12.212L17.6888 11.4883L17.509 10.7692L17.3742 10.0455L17.2798 9.32186L17.6978 8.6027L17.4506 7.90603L17.4012 7.18238L17.6619 6.46323L17.2978 5.73957L17.5899 5.01593L17.3023 4.29227L17.5989 3.56863V2.84049L17.6619 2.28313L18.1877 2.10785L18.8889 2.1438H19.5901L20.2913 1.96401L20.9924 2.00446L21.6936 2.1438L22.3948 1.86963L23.096 1.9775L23.7971 2.19773L24.4983 2.37753L25.1995 1.90558L25.9007 1.96401L26.6018 2.08537L27.303 2.3101L28.0042 2.18425L28.7099 2.33707L29.411 2.08088L30.1167 2.13931L30.8179 2.00446L31.5415 2.10785L31.4876 2.84947L31.7842 3.56863L31.7303 4.29227L31.5505 5.01593L31.7842 5.73957L31.4157 6.45873L31.5595 7.17789L31.5146 7.90153L31.7123 8.62518V9.34883L31.7573 10.0725L31.609 10.7961L31.3573 11.5198L31.4606 12.2434L31.4831 12.9626Z" fill="#627262"/>
</g>
<defs>
<clipPath id="clip0_260_1554">
<rect width="32.3125" height="27.7009" fill="white" transform="translate(0.577515 1.86963)"/>
</clipPath>
</defs>
</svg>
