<svg width="25" height="25" viewBox="0 0 25 25" fill="none" xmlns="http://www.w3.org/2000/svg">
<g clip-path="url(#clip0_260_1503)">
<path d="M15.3856 11.2278L15.2999 11.5452V11.8606L15.4226 12.1897L15.298 12.4993V12.8225L15.187 13.1282V13.4553L14.9923 13.7318L14.9339 14.0472L14.9105 14.386L14.671 14.6274L14.5639 14.9331L14.3381 15.1668L14.1433 15.416L13.9486 15.6672L13.7539 15.9008L13.569 16.1462L13.3567 16.3623L13.0608 16.4791L12.831 16.6738L12.5993 16.8686L12.3072 16.9679L12.0716 17.1626L11.7835 17.258L11.4894 17.3359L11.2616 17.5617L11.0163 17.7564L10.6736 17.6941L10.4789 17.7584L10.2842 17.5306L10.0603 17.2969L9.77794 17.1022L9.58323 16.8471L9.4333 16.5492L9.2016 16.3214L8.94458 16.1033L9.26196 16.0294L9.56765 15.9593L9.79936 15.7334L10.0486 15.5582L10.2764 15.3635L10.5354 15.2135L10.7807 15.0402L11.0202 14.8455L11.2908 14.6761L11.4583 14.4152L11.5128 14.0881L11.7309 13.8661L11.9256 13.6169L12.0035 13.317L12.1359 13.0386L12.1593 12.729L12.241 12.4331L12.3481 12.139V11.8314L12.3111 11.5218L12.3462 11.1129L12.0132 11.1772L11.7134 11.3076L11.4155 11.2687H11.1156L10.8157 11.1558L10.5159 11.2044L10.216 11.1129L9.91619 11.1986L9.61633 11.2297L9.2639 11.2687L9.31842 10.9065L9.25612 10.595L9.31842 10.2815L9.24638 9.96803L9.34179 9.65454L9.23859 9.343L9.34763 9.03147V8.71799L9.31648 8.4045L9.24833 8.09102L9.32037 7.77754L9.22496 7.46405L9.24833 7.15057L9.40215 6.83708L9.25612 6.46129L9.62023 6.47687L9.92397 6.63458L10.2277 6.43987L10.5315 6.4535L10.8352 6.51386L11.139 6.48077L11.4427 6.51386L11.7465 6.61901L12.0502 6.57812L12.354 6.43209L12.6577 6.6268L12.9615 6.41846H13.2652L13.569 6.57033L13.8727 6.59175L14.1901 6.53334H14.4938L14.7995 6.43403L15.1033 6.51386L15.4401 6.50023L15.4713 6.84292L15.4518 7.15641L15.3174 7.46794L15.3953 7.78143V8.09102L15.5102 8.40256L15.4148 8.71604L15.3622 9.02952L15.4654 9.34106L15.3252 9.65454V9.96803L15.5199 10.2815L15.5063 10.595L15.3953 10.9085L15.3856 11.2278Z" stroke="#AFC6AF" stroke-width="0.584131" stroke-miterlimit="10"/>
</g>
<defs>
<clipPath id="clip0_260_1503">
<rect width="7.4944" height="12" fill="white" transform="translate(8.32349 6.10107)"/>
</clipPath>
</defs>
</svg>
