<svg width="25" height="25" viewBox="0 0 25 25" fill="none" xmlns="http://www.w3.org/2000/svg">
<g clip-path="url(#clip0_260_1424)">
<path d="M15.7091 11.4148L15.6234 11.7322V12.0476L15.7461 12.3767L15.6215 12.6863V13.0095L15.5105 13.3152V13.6423L15.3158 13.9188L15.2574 14.2342L15.234 14.573L14.9945 14.8145L14.8874 15.1202L14.6615 15.3538L14.4668 15.603L14.2721 15.8542L14.0774 16.0879L13.8924 16.3332L13.6802 16.5493L13.3842 16.6662L13.1545 16.8609L12.9228 17.0556L12.6307 17.1549L12.3951 17.3496L12.1069 17.445L11.8129 17.5229L11.5851 17.7487L11.3398 17.9435L10.9971 17.8811L10.8024 17.9454L10.6077 17.7176L10.3838 17.4839L10.1014 17.2892L9.90672 17.0342L9.75679 16.7362L9.52509 16.5084L9.26807 16.2904L9.58545 16.2164L9.89114 16.1463L10.1228 15.9204L10.3721 15.7452L10.5999 15.5505L10.8588 15.4005L11.1042 15.2272L11.3437 15.0325L11.6143 14.8631L11.7818 14.6022L11.8363 14.2751L12.0544 14.0531L12.2491 13.8039L12.327 13.5041L12.4594 13.2256L12.4827 12.916L12.5645 12.6201L12.6716 12.3261V12.0184L12.6346 11.7088L12.6697 11.2999L12.3367 11.3642L12.0368 11.4946L11.7389 11.4557H11.4391L11.1392 11.3428L10.8394 11.3914L10.5395 11.2999L10.2397 11.3856L9.93982 11.4168L9.58739 11.4557L9.64191 11.0935L9.5796 10.782L9.64191 10.4685L9.56987 10.155L9.66528 9.84155L9.56208 9.53002L9.67112 9.21848V8.905L9.63996 8.59151L9.57181 8.27803L9.64386 7.96455L9.54845 7.65106L9.57181 7.33758L9.72564 7.02409L9.5796 6.64831L9.94371 6.66388L10.2475 6.82159L10.5512 6.62688L10.855 6.64052L11.1587 6.70087L11.4625 6.66778L11.7662 6.70087L12.0699 6.80602L12.3737 6.76513L12.6774 6.6191L12.9812 6.81381L13.2849 6.60547H13.5887L13.8924 6.75734L14.1962 6.77876L14.5136 6.72035H14.8173L15.123 6.62104L15.4268 6.70087L15.7636 6.68724L15.7948 7.02994L15.7753 7.34342L15.6409 7.65495L15.7188 7.96844V8.27803L15.8337 8.58957L15.7383 8.90305L15.6857 9.21654L15.7889 9.52807L15.6487 9.84155V10.155L15.8434 10.4685L15.8298 10.782L15.7188 11.0955L15.7091 11.4148Z" stroke="#AFC6AF" stroke-width="0.584131" stroke-miterlimit="10"/>
</g>
<defs>
<clipPath id="clip0_260_1424">
<rect width="7.4944" height="12" fill="white" transform="translate(8.64697 6.28809)"/>
</clipPath>
</defs>
</svg>
