<svg width="24" height="25" viewBox="0 0 24 25" fill="none" xmlns="http://www.w3.org/2000/svg">
<path d="M8.6365 10.6692C8.14807 9.69429 7.1397 9.025 5.975 9.025C4.33195 9.025 3 10.357 3 12C3 13.643 4.33195 14.975 5.975 14.975C7.1397 14.975 8.14807 14.3057 8.6365 13.3308M8.6365 10.6692C8.8371 11.0697 8.95 11.5217 8.95 12C8.95 12.4783 8.8371 12.9303 8.6365 13.3308M8.6365 10.6692L14.3635 7.80575M8.6365 13.3308L14.3635 16.1942M14.3635 7.80575C14.8519 8.78071 15.8603 9.45 17.025 9.45C18.668 9.45 20 8.11805 20 6.475C20 4.83195 18.668 3.5 17.025 3.5C15.382 3.5 14.05 4.83195 14.05 6.475C14.05 6.95335 14.1629 7.40533 14.3635 7.80575ZM14.3635 16.1942C14.1629 16.5947 14.05 17.0467 14.05 17.525C14.05 19.168 15.382 20.5 17.025 20.5C18.668 20.5 20 19.168 20 17.525C20 15.882 18.668 14.55 17.025 14.55C15.8603 14.55 14.8519 15.2193 14.3635 16.1942Z" stroke="#919191" stroke-linecap="round"/>
</svg>
