<svg width="20" height="19" viewBox="0 0 20 19" fill="none" xmlns="http://www.w3.org/2000/svg">
<path d="M10.1583 17.0997C7.01534 17.0997 4.45825 14.6914 4.45825 11.7312C4.45825 7.59972 10.1583 1.89972 10.1583 1.89972C10.1583 1.89972 15.8583 7.59972 15.8583 11.7312C15.8583 14.6914 13.3013 17.0997 10.1583 17.0997Z" fill="#FFCF8C"/>
<path d="M10.1583 17.0997C8.58682 17.0997 7.30825 15.8956 7.30825 14.4155C7.30825 12.3497 10.1583 9.49972 10.1583 9.49972C10.1583 9.49972 13.0083 12.3497 13.0083 14.4155C13.0083 15.8956 11.7298 17.0997 10.1583 17.0997Z" fill="#FFCF8C"/>
<path d="M9.0675 17.3175L9.24545 18.209L9.0675 17.3175ZM8.3997 17.1839L7.88978 17.9365L8.3997 17.1839ZM7.7913 16.7717L8.30123 16.0191L7.7913 16.7717ZM7.17741 16.402L7.60201 15.5982L7.17741 16.402ZM6.86772 16.2384L7.29232 15.4346L6.86772 16.2384ZM6.55804 16.0749L6.13344 16.8787L6.55804 16.0749ZM6.02668 15.6394L5.32209 16.2139L6.02668 15.6394ZM5.58335 15.0957L6.28794 14.5212L5.58335 15.0957ZM5.21881 14.5099L6.04621 14.1333L5.21881 14.5099ZM5.07593 14.196L4.24853 14.5727L5.07593 14.196ZM4.80501 12.549L3.89601 12.5358L4.80501 12.549ZM4.62255 11.8585L5.42441 11.4301L4.62255 11.8585ZM4.24774 11.1568L3.44588 11.5851L4.24774 11.1568ZM4.48926 9.81092L3.65442 9.45105L4.48926 9.81092ZM4.8668 8.43101L3.97965 8.23249L4.8668 8.43101ZM5.28691 7.87671L4.81963 7.0969L5.28691 7.87671ZM5.97077 7.46692L6.43805 8.24672L5.97077 7.46692ZM6.51231 6.99094L5.78028 6.45189L6.51231 6.99094ZM6.71193 6.71985L7.44397 7.2589L6.71193 6.71985ZM7.31849 5.91278L6.60257 5.3525L7.31849 5.91278ZM7.5258 5.64788L8.24171 6.20816L7.5258 5.64788ZM7.73312 5.38297L7.0172 4.82269L7.73312 5.38297ZM8.09513 4.80876L7.28205 4.40212L8.09513 4.80876ZM8.80592 3.64569L9.43312 4.30377L8.80592 3.64569ZM9.05263 3.41056L8.42543 2.75248L9.05263 3.41056ZM9.29933 3.17543L9.92653 3.83351L9.29933 3.17543ZM9.75102 2.6901L10.4542 3.26623L9.75102 2.6901ZM10.5391 2.24332L11.3289 1.79317L10.5391 2.24332ZM10.7123 2.54715L9.92248 2.9973L10.7123 2.54715ZM10.8855 2.85097L11.6753 2.40082L10.8855 2.85097ZM11.3925 3.32041L10.9885 4.1348L11.3925 3.32041ZM12.0602 3.65164L11.6562 4.46603L12.0602 3.65164ZM12.5023 4.16707L11.6338 4.43576L12.5023 4.16707ZM12.7187 4.86669L11.8502 5.13538L12.7187 4.86669ZM13.5684 5.94636L14.2062 5.29847L13.5684 5.94636ZM14.0816 6.43249L13.4687 7.10389L14.0816 6.43249ZM14.3476 6.67535L14.9606 6.00396L14.3476 6.67535ZM14.6136 6.9182L14.0007 7.58959L14.6136 6.9182ZM14.8712 7.55276L13.9624 7.53324L14.8712 7.55276ZM14.8544 8.33617L15.7633 8.35569L14.8544 8.33617ZM15.1346 8.98623L14.5281 9.66351L15.1346 8.98623ZM15.4231 9.24459L16.0295 8.56731L15.4231 9.24459ZM15.7117 9.50295L15.1053 10.1802L15.7117 9.50295ZM15.9278 10.1326L15.0355 9.95848L15.9278 10.1326ZM15.7828 10.8752L16.6751 11.0494L15.7828 10.8752ZM15.6266 11.5653L16.5058 11.7964L15.6266 11.5653ZM15.5428 11.8841L14.6636 11.653L15.5428 11.8841ZM15.459 12.2028L16.3382 12.4339L15.459 12.2028ZM15.3945 12.8722L14.4867 12.922L15.3945 12.8722ZM15.433 13.5735L16.3407 13.5236L15.433 13.5735ZM15.2612 14.2107L14.5047 13.7064L15.2612 14.2107ZM14.8791 14.7838L15.6356 15.2881L14.8791 14.7838ZM14.3697 15.2126L13.9989 14.3826L14.3697 15.2126ZM13.733 15.4971L14.1038 16.3271L13.733 15.4971ZM13.2105 15.9644L13.9805 16.4478L13.2105 15.9644ZM13.0064 16.2895L12.2365 15.8061L13.0064 16.2895ZM12.8023 16.6146L12.0324 16.1312L12.8023 16.6146ZM11.5533 17.1775L11.7551 18.0639L11.5533 17.1775ZM10.9434 17.1153L11.3756 16.3156L10.9434 17.1153ZM10.42 16.8324L9.98772 17.6322L10.42 16.8324ZM9.7947 17.1723L9.61674 16.2808L9.7947 17.1723ZM9.25829 16.6931L8.88402 17.5216L9.25829 16.6931ZM8.67632 16.3958L9.12871 15.6073L8.67632 16.3958ZM8.39435 16.2341L7.94196 17.0226L8.39435 16.2341ZM8.11238 16.0723L8.56477 15.2838L8.11238 16.0723ZM7.58089 15.6129L8.27753 15.0289L7.58089 15.6129ZM7.33138 15.3153L8.02801 14.7313L7.33138 15.3153ZM7.08187 15.0177L6.38523 15.6018L7.08187 15.0177ZM6.96171 13.9507L6.06521 13.8L6.96171 13.9507ZM7.44648 12.9727L6.98627 12.1887L7.44648 12.9727ZM7.80188 12.7641L8.26208 13.5481L7.80188 12.7641ZM8.15728 12.5555L7.69707 11.7714L8.15728 12.5555ZM9.77842 10.4029L9.06978 9.83345L9.77842 10.4029ZM10.0947 10.181L9.78362 11.0352L10.0947 10.181ZM10.3082 10.2587L10.6192 9.40451L10.3082 10.2587ZM10.6333 10.5506L11.3214 9.95652L10.6333 10.5506ZM11.0701 11.0566L10.3819 11.6506L11.0701 11.0566ZM11.4717 11.5861L12.2295 11.0838L11.4717 11.5861ZM11.8383 12.1391L11.0805 12.6413L11.8383 12.1391ZM12.1416 12.7145L11.298 13.0533L12.1416 12.7145ZM12.2616 13.0134L13.1052 12.6745L12.2616 13.0134ZM12.721 13.9373L13.4754 13.4301L12.721 13.9373ZM12.9403 14.2635L13.6947 13.7563L12.9403 14.2635ZM13.1595 14.5896L12.4051 15.0969L13.1595 14.5896ZM13.223 15.2772L12.3882 14.9173L13.223 15.2772ZM12.9114 16.0001L12.0765 15.6402L12.9114 16.0001ZM12.36 16.404L12.2629 15.5001L12.36 16.404ZM11.5688 16.489L11.6659 17.3929L11.5688 16.489ZM10.9195 16.7894L11.5677 17.4269L10.9195 16.7894ZM10.412 17.3054L9.76392 16.6679L10.412 17.3054ZM9.4311 17.2449L9.25314 16.3534L8.88955 16.426L9.0675 17.3175L9.24545 18.209L9.60905 18.1364L9.4311 17.2449ZM9.0675 17.3175L8.88955 16.426C8.88155 16.4275 8.87927 16.4273 8.88184 16.4273C8.88458 16.4272 8.89001 16.4275 8.897 16.4289C8.904 16.4303 8.90958 16.4322 8.91296 16.4337C8.91618 16.4351 8.91508 16.435 8.90963 16.4313L8.3997 17.1839L7.88978 17.9365C8.29608 18.2118 8.76685 18.3045 9.24545 18.209L9.0675 17.3175ZM8.3997 17.1839L8.90963 16.4313L8.60543 16.2252L8.0955 16.9778L7.58558 17.7304L7.88978 17.9365L8.3997 17.1839ZM8.0955 16.9778L8.60543 16.2252L8.30123 16.0191L7.7913 16.7717L7.28138 17.5243L7.58558 17.7304L8.0955 16.9778ZM7.7913 16.7717L8.30123 16.0191C8.07228 15.864 7.83922 15.7235 7.60201 15.5982L7.17741 16.402L6.75282 17.2059C6.92853 17.2987 7.10473 17.4046 7.28138 17.5243L7.7913 16.7717ZM7.17741 16.402L7.60201 15.5982L7.29232 15.4346L6.86772 16.2384L6.44313 17.0423L6.75282 17.2059L7.17741 16.402ZM6.86772 16.2384L7.29232 15.4346L6.98263 15.271L6.55804 16.0749L6.13344 16.8787L6.44313 17.0423L6.86772 16.2384ZM6.55804 16.0749L6.98263 15.271C6.88411 15.219 6.80216 15.1519 6.73127 15.065L6.02668 15.6394L5.32209 16.2139C5.54676 16.4894 5.81904 16.7126 6.13344 16.8787L6.55804 16.0749ZM6.02668 15.6394L6.73127 15.065L6.5096 14.7931L5.80502 15.3675L5.10043 15.942L5.32209 16.2139L6.02668 15.6394ZM5.80502 15.3675L6.5096 14.7931L6.28794 14.5212L5.58335 15.0957L4.87876 15.6701L5.10043 15.942L5.80502 15.3675ZM5.58335 15.0957L6.28794 14.5212C6.18856 14.3993 6.10862 14.2704 6.04621 14.1333L5.21881 14.5099L4.39141 14.8865C4.5195 15.1679 4.68259 15.4295 4.87876 15.6701L5.58335 15.0957ZM5.21881 14.5099L6.04621 14.1333L5.90333 13.8194L5.07593 14.196L4.24853 14.5727L4.39141 14.8865L5.21881 14.5099ZM5.07593 14.196L5.90333 13.8194L5.76045 13.5055L4.93305 13.8822L4.10565 14.2588L4.24853 14.5727L5.07593 14.196ZM4.93305 13.8822L5.76045 13.5055C5.72003 13.4167 5.70281 13.3318 5.70412 13.2418L4.79512 13.2285L3.88613 13.2153C3.88085 13.5783 3.95558 13.9291 4.10565 14.2588L4.93305 13.8822ZM4.79512 13.2285L5.70412 13.2418L5.70906 12.902L4.80007 12.8888L3.89107 12.8756L3.88613 13.2153L4.79512 13.2285ZM4.80007 12.8888L5.70906 12.902L5.714 12.5623L4.80501 12.549L3.89601 12.5358L3.89107 12.8756L4.80007 12.8888ZM4.80501 12.549L5.714 12.5623C5.71989 12.1575 5.60942 11.7765 5.42441 11.4301L4.62255 11.8585L3.82069 12.2868C3.88554 12.4082 3.89672 12.4876 3.89601 12.5358L4.80501 12.549ZM4.62255 11.8585L5.42441 11.4301L5.23701 11.0793L4.43515 11.5076L3.63328 11.9359L3.82069 12.2868L4.62255 11.8585ZM4.43515 11.5076L5.23701 11.0793L5.0496 10.7285L4.24774 11.1568L3.44588 11.5851L3.63328 11.9359L4.43515 11.5076ZM4.24774 11.1568L5.0496 10.7285C5.03826 10.7072 5.04784 10.7168 5.0501 10.7517C5.05118 10.7682 5.05021 10.7855 5.04727 10.8019C5.04437 10.8181 5.04031 10.8291 5.03814 10.8341L4.20331 10.4743L3.36848 10.1144C3.15159 10.6175 3.20565 11.1354 3.44588 11.5851L4.24774 11.1568ZM4.20331 10.4743L5.03814 10.8341L5.18111 10.5025L4.34628 10.1426L3.51145 9.78273L3.36848 10.1144L4.20331 10.4743ZM4.34628 10.1426L5.18111 10.5025L5.32409 10.1708L4.48926 9.81092L3.65442 9.45105L3.51145 9.78273L4.34628 10.1426ZM4.48926 9.81092L5.32409 10.1708C5.44163 9.89809 5.53296 9.61707 5.59757 9.32835L4.71042 9.12983L3.82327 8.93131C3.78362 9.10847 3.72751 9.28151 3.65442 9.45105L4.48926 9.81092ZM4.71042 9.12983L5.59757 9.32835L5.67576 8.97894L4.78861 8.78042L3.90146 8.5819L3.82327 8.93131L4.71042 9.12983ZM4.78861 8.78042L5.67576 8.97894L5.75395 8.62953L4.8668 8.43101L3.97965 8.23249L3.90146 8.5819L4.78861 8.78042ZM4.8668 8.43101L5.75395 8.62953C5.75354 8.63137 5.752 8.63716 5.74826 8.64528C5.74449 8.65348 5.73991 8.66094 5.73543 8.66685C5.73105 8.67263 5.72861 8.6745 5.73041 8.67292C5.73239 8.6712 5.73951 8.66531 5.7542 8.65651L5.28691 7.87671L4.81963 7.0969C4.40472 7.34553 4.09262 7.72763 3.97965 8.23249L4.8668 8.43101ZM5.28691 7.87671L5.7542 8.65651L6.09612 8.45162L5.62884 7.67181L5.16156 6.89201L4.81963 7.0969L5.28691 7.87671ZM5.62884 7.67181L6.09612 8.45162L6.43805 8.24672L5.97077 7.46692L5.50348 6.68712L5.16156 6.89201L5.62884 7.67181ZM5.97077 7.46692L6.43805 8.24672C6.75064 8.05941 7.02796 7.82384 7.24435 7.52999L6.51231 6.99094L5.78028 6.45189C5.7305 6.51949 5.6468 6.60124 5.50348 6.68712L5.97077 7.46692ZM6.51231 6.99094L7.24435 7.52999L7.44397 7.2589L6.71193 6.71985L5.9799 6.18081L5.78028 6.45189L6.51231 6.99094ZM6.71193 6.71985L7.44397 7.2589L7.64359 6.98781L6.91155 6.44877L6.17952 5.90972L5.9799 6.18081L6.71193 6.71985ZM6.91155 6.44877L7.64359 6.98781C7.7714 6.81424 7.90167 6.64266 8.0344 6.47306L7.31849 5.91278L6.60257 5.3525C6.45888 5.5361 6.31786 5.72184 6.17952 5.90972L6.91155 6.44877ZM7.31849 5.91278L8.0344 6.47306L8.24171 6.20816L7.5258 5.64788L6.80989 5.08759L6.60257 5.3525L7.31849 5.91278ZM7.5258 5.64788L8.24171 6.20816L8.44903 5.94326L7.73312 5.38297L7.0172 4.82269L6.80989 5.08759L7.5258 5.64788ZM7.73312 5.38297L8.44903 5.94326C8.62572 5.71749 8.77866 5.47441 8.9082 5.2154L8.09513 4.80876L7.28205 4.40212C7.20533 4.55553 7.11694 4.69526 7.0172 4.82269L7.73312 5.38297ZM8.09513 4.80876L8.9082 5.2154L9.0629 4.90609L8.24982 4.49945L7.43675 4.09281L7.28205 4.40212L8.09513 4.80876ZM8.24982 4.49945L9.0629 4.90609L9.21759 4.59678L8.40452 4.19014L7.59144 3.7835L7.43675 4.09281L8.24982 4.49945ZM8.40452 4.19014L9.21759 4.59678C9.27446 4.48308 9.3458 4.387 9.43312 4.30377L8.80592 3.64569L8.17872 2.98762C7.9371 3.2179 7.74084 3.48478 7.59144 3.7835L8.40452 4.19014ZM8.80592 3.64569L9.43312 4.30377L9.67983 4.06864L9.05263 3.41056L8.42543 2.75248L8.17872 2.98762L8.80592 3.64569ZM9.05263 3.41056L9.67983 4.06864L9.92653 3.83351L9.29933 3.17543L8.67213 2.51735L8.42543 2.75248L9.05263 3.41056ZM9.29933 3.17543L9.92653 3.83351C10.1166 3.65239 10.2927 3.46337 10.4542 3.26623L9.75102 2.6901L9.0478 2.11397C8.93601 2.25043 8.81104 2.38496 8.67213 2.51735L9.29933 3.17543ZM9.75102 2.6901L10.4542 3.26623L10.6592 3.01603L9.95601 2.4399L9.25279 1.86377L9.0478 2.11397L9.75102 2.6901ZM9.95601 2.4399L10.6592 3.01603L10.8642 2.76583L10.161 2.1897L9.45777 1.61357L9.25279 1.86377L9.95601 2.4399ZM10.161 2.1897L10.8642 2.76583C10.8553 2.7767 10.8066 2.83522 10.7098 2.89008C10.6016 2.9514 10.4328 3.0068 10.2304 2.97809C10.0356 2.95047 9.90438 2.85835 9.8377 2.79748C9.80438 2.76707 9.78238 2.74043 9.76988 2.72388C9.7572 2.70709 9.75071 2.69592 9.74932 2.69348L10.5391 2.24332L11.3289 1.79317C11.2412 1.63914 10.9898 1.24941 10.4857 1.17792C9.93585 1.09995 9.58477 1.45855 9.45777 1.61357L10.161 2.1897ZM10.5391 2.24332L9.74932 2.69348L9.92248 2.9973L10.7123 2.54715L11.5021 2.09699L11.3289 1.79317L10.5391 2.24332ZM10.7123 2.54715L9.92248 2.9973L10.0956 3.30112L10.8855 2.85097L11.6753 2.40082L11.5021 2.09699L10.7123 2.54715ZM10.8855 2.85097L10.0956 3.30112C10.3066 3.67126 10.6151 3.94959 10.9885 4.1348L11.3925 3.32041L11.7965 2.50602C11.7247 2.4704 11.6952 2.43578 11.6753 2.40082L10.8855 2.85097ZM11.3925 3.32041L10.9885 4.1348L11.3223 4.30042L11.7263 3.48603L12.1303 2.67164L11.7965 2.50602L11.3925 3.32041ZM11.7263 3.48603L11.3223 4.30042L11.6562 4.46603L12.0602 3.65164L12.4642 2.83725L12.1303 2.67164L11.7263 3.48603ZM12.0602 3.65164L11.6562 4.46603C11.6634 4.4696 11.6645 4.47091 11.6616 4.46873C11.6586 4.46643 11.6534 4.46191 11.6476 4.45515C11.6418 4.44838 11.6375 4.44183 11.6348 4.43685C11.6322 4.43203 11.6323 4.43105 11.6338 4.43576L12.5023 4.16707L13.3707 3.89837C13.2235 3.42261 12.9053 3.05607 12.4642 2.83725L12.0602 3.65164ZM12.5023 4.16707L11.6338 4.43576L11.742 4.78557L12.6105 4.51688L13.479 4.24818L13.3707 3.89837L12.5023 4.16707ZM12.6105 4.51688L11.742 4.78557L11.8502 5.13538L12.7187 4.86669L13.5872 4.59799L13.479 4.24818L12.6105 4.51688ZM12.7187 4.86669L11.8502 5.13538C11.9642 5.50384 12.1585 5.83418 12.4364 6.10767L13.0741 5.45978L13.7118 4.8119C13.6601 4.76101 13.6175 4.69595 13.5872 4.59799L12.7187 4.86669ZM13.0741 5.45978L12.4364 6.10767L12.6835 6.35096L13.3213 5.70307L13.959 5.05518L13.7118 4.8119L13.0741 5.45978ZM13.3213 5.70307L12.6835 6.35096L12.9307 6.59424L13.5684 5.94636L14.2062 5.29847L13.959 5.05518L13.3213 5.70307ZM13.5684 5.94636L12.9307 6.59424C13.1039 6.76472 13.2832 6.9346 13.4687 7.10389L14.0816 6.43249L14.6945 5.7611C14.5253 5.60659 14.3625 5.45237 14.2062 5.29847L13.5684 5.94636ZM14.0816 6.43249L13.4687 7.10389L13.7347 7.34674L14.3476 6.67535L14.9606 6.00396L14.6945 5.7611L14.0816 6.43249ZM14.3476 6.67535L13.7347 7.34674L14.0007 7.58959L14.6136 6.9182L15.2266 6.24681L14.9606 6.00396L14.3476 6.67535ZM14.6136 6.9182L14.0007 7.58959C13.9989 7.58797 13.9933 7.58246 13.9865 7.57269C13.9795 7.56278 13.9733 7.55157 13.9687 7.54022C13.9589 7.5159 13.9629 7.50869 13.9624 7.53324L14.8712 7.55276L15.7801 7.57228C15.7908 7.07485 15.616 6.6023 15.2266 6.24681L14.6136 6.9182ZM14.8712 7.55276L13.9624 7.53324L13.954 7.92494L14.8628 7.94446L15.7717 7.96399L15.7801 7.57228L14.8712 7.55276ZM14.8628 7.94446L13.954 7.92494L13.9455 8.31665L14.8544 8.33617L15.7633 8.35569L15.7717 7.96399L14.8628 7.94446ZM14.8544 8.33617L13.9455 8.31665C13.9343 8.83952 14.1355 9.31193 14.5281 9.66351L15.1346 8.98623L15.741 8.30895C15.7364 8.30485 15.7375 8.30511 15.7415 8.31046C15.7455 8.31601 15.7506 8.32434 15.7551 8.33476C15.7596 8.34516 15.7619 8.35396 15.7629 8.35944C15.7639 8.36466 15.7631 8.36396 15.7633 8.35569L14.8544 8.33617ZM15.1346 8.98623L14.5281 9.66351L14.8167 9.92187L15.4231 9.24459L16.0295 8.56731L15.741 8.30895L15.1346 8.98623ZM15.4231 9.24459L14.8167 9.92187L15.1053 10.1802L15.7117 9.50295L16.3181 8.82567L16.0295 8.56731L15.4231 9.24459ZM15.7117 9.50295L15.1053 10.1802C15.106 10.1809 15.0976 10.1735 15.0858 10.1565C15.0736 10.1389 15.0604 10.1147 15.0501 10.0846C15.0276 10.0191 15.0333 9.9695 15.0355 9.95848L15.9278 10.1326L16.82 10.3067C16.9314 9.73578 16.7421 9.2053 16.3181 8.82567L15.7117 9.50295ZM15.9278 10.1326L15.0355 9.95848L14.963 10.3298L15.8553 10.5039L16.7475 10.6781L16.82 10.3067L15.9278 10.1326ZM15.8553 10.5039L14.963 10.3298L14.8906 10.7011L15.7828 10.8752L16.6751 11.0494L16.7475 10.6781L15.8553 10.5039ZM15.7828 10.8752L14.8906 10.7011C14.8455 10.9322 14.7976 11.143 14.7473 11.3342L15.6266 11.5653L16.5058 11.7964C16.5673 11.5625 16.6236 11.3133 16.6751 11.0494L15.7828 10.8752ZM15.6266 11.5653L14.7473 11.3342L14.6636 11.653L15.5428 11.8841L16.422 12.1151L16.5058 11.7964L15.6266 11.5653ZM15.5428 11.8841L14.6636 11.653L14.5798 11.9717L15.459 12.2028L16.3382 12.4339L16.422 12.1151L15.5428 11.8841ZM15.459 12.2028L14.5798 11.9717C14.4983 12.2816 14.4691 12.5999 14.4867 12.922L15.3945 12.8722L16.3022 12.8224C16.2942 12.677 16.308 12.549 16.3382 12.4339L15.459 12.2028ZM15.3945 12.8722L14.4867 12.922L14.506 13.2727L15.4137 13.2228L16.3214 13.173L16.3022 12.8224L15.3945 12.8722ZM15.4137 13.2228L14.506 13.2727L14.5252 13.6233L15.433 13.5735L16.3407 13.5236L16.3214 13.173L15.4137 13.2228ZM15.433 13.5735L14.5252 13.6233C14.5275 13.665 14.5208 13.6823 14.5047 13.7064L15.2612 14.2107L16.0176 14.7149C16.2562 14.3569 16.364 13.9494 16.3407 13.5236L15.433 13.5735ZM15.2612 14.2107L14.5047 13.7064L14.3137 13.993L15.0701 14.4973L15.8266 15.0015L16.0176 14.7149L15.2612 14.2107ZM15.0701 14.4973L14.3137 13.993L14.1227 14.2796L14.8791 14.7838L15.6356 15.2881L15.8266 15.0015L15.0701 14.4973ZM14.8791 14.7838L14.1227 14.2796C14.0918 14.326 14.0565 14.3569 13.9989 14.3826L14.3697 15.2126L14.7405 16.0427C15.1074 15.8788 15.4118 15.6238 15.6356 15.2881L14.8791 14.7838ZM14.3697 15.2126L13.9989 14.3826L13.6805 14.5248L14.0514 15.3549L14.4222 16.1849L14.7405 16.0427L14.3697 15.2126ZM14.0514 15.3549L13.6805 14.5248L13.3622 14.6671L13.733 15.4971L14.1038 16.3271L14.4222 16.1849L14.0514 15.3549ZM13.733 15.4971L13.3622 14.6671C12.969 14.8427 12.6624 15.1278 12.4406 15.481L13.2105 15.9644L13.9805 16.4478C14.0308 16.3676 14.0725 16.3411 14.1038 16.3271L13.733 15.4971ZM13.2105 15.9644L12.4406 15.481L12.2365 15.8061L13.0064 16.2895L13.7764 16.7729L13.9805 16.4478L13.2105 15.9644ZM13.0064 16.2895L12.2365 15.8061L12.0324 16.1312L12.8023 16.6146L13.5723 17.098L13.7764 16.7729L13.0064 16.2895ZM12.8023 16.6146L12.0324 16.1312C12.025 16.1431 12.0202 16.1485 12.0192 16.1496C12.0184 16.1505 12.0203 16.1483 12.0252 16.1447C12.0303 16.141 12.036 16.1376 12.0416 16.1351C12.047 16.1327 12.0497 16.1322 12.0482 16.1325L12.25 17.0189L12.4517 17.9054C12.938 17.7947 13.3184 17.5023 13.5723 17.098L12.8023 16.6146ZM12.25 17.0189L12.0482 16.1325L11.6999 16.2118L11.9017 17.0982L12.1034 17.9846L12.4517 17.9054L12.25 17.0189ZM11.9017 17.0982L11.6999 16.2118L11.3516 16.2911L11.5533 17.1775L11.7551 18.0639L12.1034 17.9846L11.9017 17.0982ZM11.5533 17.1775L11.3516 16.2911C11.3163 16.2991 11.3075 16.296 11.3189 16.2972C11.3245 16.2978 11.3334 16.2992 11.3444 16.3026C11.3554 16.3059 11.3661 16.3104 11.3756 16.3156L10.9434 17.1153L10.5111 17.9151C10.9167 18.1343 11.3533 18.1554 11.7551 18.0639L11.5533 17.1775ZM10.9434 17.1153L11.3756 16.3156L11.1139 16.1741L10.6817 16.9739L10.2494 17.7736L10.5111 17.9151L10.9434 17.1153ZM10.6817 16.9739L11.1139 16.1741L10.8522 16.0327L10.42 16.8324L9.98772 17.6322L10.2494 17.7736L10.6817 16.9739ZM10.42 16.8324L10.8522 16.0327C10.759 15.9823 10.5723 15.8849 10.3586 15.8529C10.2614 15.8383 9.97702 15.8071 9.68957 15.9885C9.33186 16.2141 9.2492 16.5766 9.2492 16.7932H10.1583H11.0674C11.0674 16.9757 10.9956 17.3142 10.6597 17.5262C10.3941 17.6938 10.1424 17.659 10.0888 17.6509C9.96231 17.6319 9.90651 17.5883 9.98772 17.6322L10.42 16.8324ZM10.1583 16.7932H9.2492V16.8954H10.1583H11.0674V16.7932H10.1583ZM10.1583 16.8954H9.2492V16.9975H10.1583H11.0674V16.8954H10.1583ZM10.1583 16.9975H9.2492C9.2492 16.7187 9.38041 16.5208 9.47945 16.4175C9.56881 16.3244 9.65271 16.283 9.67358 16.273C9.71658 16.2523 9.71445 16.2613 9.61674 16.2808L9.7947 17.1723L9.97265 18.0638C10.1173 18.0349 10.297 17.9906 10.4612 17.9117C10.5427 17.8725 10.672 17.8008 10.7917 17.676C10.921 17.5412 11.0674 17.3105 11.0674 16.9975H10.1583ZM9.7947 17.1723L9.61674 16.2808L9.25314 16.3534L9.4311 17.2449L9.60905 18.1364L9.97265 18.0638L9.7947 17.1723ZM9.55829 16.8287L9.93256 16.0002L9.63256 15.8647L9.25829 16.6931L8.88402 17.5216L9.18402 17.6571L9.55829 16.8287ZM9.25829 16.6931L9.63256 15.8647C9.45889 15.7862 9.29099 15.7004 9.12871 15.6073L8.67632 16.3958L8.22393 17.1844C8.43761 17.307 8.65769 17.4194 8.88402 17.5216L9.25829 16.6931ZM8.67632 16.3958L9.12871 15.6073L8.84674 15.4455L8.39435 16.2341L7.94196 17.0226L8.22393 17.1844L8.67632 16.3958ZM8.39435 16.2341L8.84674 15.4455L8.56477 15.2838L8.11238 16.0723L7.65999 16.8608L7.94196 17.0226L8.39435 16.2341ZM8.11238 16.0723L8.56477 15.2838C8.4857 15.2384 8.38816 15.1608 8.27753 15.0289L7.58089 15.6129L6.88426 16.197C7.10632 16.4619 7.36309 16.6905 7.65999 16.8608L8.11238 16.0723ZM7.58089 15.6129L8.27753 15.0289L8.02801 14.7313L7.33138 15.3153L6.63475 15.8994L6.88426 16.197L7.58089 15.6129ZM7.33138 15.3153L8.02801 14.7313L7.7785 14.4337L7.08187 15.0177L6.38523 15.6018L6.63475 15.8994L7.33138 15.3153ZM7.08187 15.0177L7.7785 14.4337C7.77423 14.4286 7.77516 14.4287 7.77822 14.4345C7.78141 14.4404 7.78532 14.4494 7.78837 14.4607C7.79141 14.4719 7.79252 14.4814 7.79276 14.4876C7.79298 14.4936 7.7923 14.4935 7.79354 14.4862L6.89703 14.3354L6.00052 14.1847C5.91352 14.7022 6.04705 15.1985 6.38523 15.6018L7.08187 15.0177ZM6.89703 14.3354L7.79354 14.4862L7.85822 14.1015L6.96171 13.9507L6.06521 13.8L6.00052 14.1847L6.89703 14.3354ZM6.96171 13.9507L7.85822 14.1015L7.9229 13.7167L7.0264 13.566L6.12989 13.4153L6.06521 13.8L6.96171 13.9507ZM7.0264 13.566L7.9229 13.7167C7.92346 13.7135 7.9232 13.7168 7.92005 13.7246C7.91681 13.7326 7.91195 13.7418 7.90571 13.7506C7.89954 13.7594 7.89438 13.7644 7.8927 13.7659C7.89125 13.7672 7.89491 13.7636 7.90668 13.7567L7.44648 12.9727L6.98627 12.1887C6.53235 12.4551 6.2204 12.8769 6.12989 13.4153L7.0264 13.566ZM7.44648 12.9727L7.90668 13.7567L8.26208 13.5481L7.80188 12.7641L7.34167 11.9801L6.98627 12.1887L7.44648 12.9727ZM7.80188 12.7641L8.26208 13.5481L8.61748 13.3395L8.15728 12.5555L7.69707 11.7714L7.34167 11.9801L7.80188 12.7641ZM8.15728 12.5555L8.61748 13.3395C8.96165 13.1374 9.26677 12.8624 9.46903 12.4936L8.67194 12.0564L7.87485 11.6193C7.86476 11.6377 7.82678 11.6953 7.69707 11.7714L8.15728 12.5555ZM8.67194 12.0564L9.46903 12.4936L9.62829 12.2032L8.8312 11.766L8.03411 11.3289L7.87485 11.6193L8.67194 12.0564ZM8.8312 11.766L9.62829 12.2032L9.78755 11.9128L8.99046 11.4756L8.19337 11.0385L8.03411 11.3289L8.8312 11.766ZM8.99046 11.4756L9.78755 11.9128C9.8679 11.7663 9.96117 11.6268 10.0679 11.4939L9.35928 10.9245L8.65065 10.355C8.47798 10.5699 8.32536 10.7978 8.19337 11.0385L8.99046 11.4756ZM9.35928 10.9245L10.0679 11.4939L10.2775 11.2331L9.56885 10.6637L8.86022 10.0942L8.65065 10.355L9.35928 10.9245ZM9.56885 10.6637L10.2775 11.2331L10.4871 10.9724L9.77842 10.4029L9.06978 9.83345L8.86022 10.0942L9.56885 10.6637ZM9.77842 10.4029L10.4871 10.9724C10.5363 10.9111 10.5348 10.9259 10.4844 10.9612C10.457 10.9804 10.3852 11.0271 10.2737 11.0575C10.153 11.0903 9.97645 11.1054 9.78362 11.0352L10.0947 10.181L10.4058 9.32678C9.94123 9.1576 9.56656 9.38414 9.44013 9.47285C9.28435 9.58215 9.16022 9.7209 9.06978 9.83345L9.77842 10.4029ZM10.0947 10.181L9.78362 11.0352L9.89034 11.0741L10.2014 10.2199L10.5125 9.36565L10.4058 9.32678L10.0947 10.181ZM10.2014 10.2199L9.89034 11.0741L9.99706 11.1129L10.3082 10.2587L10.6192 9.40451L10.5125 9.36565L10.2014 10.2199ZM10.3082 10.2587L9.99706 11.1129C9.95586 11.0979 9.92393 11.0822 9.90225 11.0704C9.88024 11.0584 9.86405 11.0479 9.8541 11.0411C9.83528 11.0282 9.82864 11.0215 9.83551 11.0276C9.84146 11.033 9.85399 11.0448 9.87359 11.0653C9.89291 11.0855 9.91667 11.1117 9.94512 11.1446L10.6333 10.5506L11.3214 9.95652C11.2351 9.85657 11.1437 9.75869 11.0501 9.67462C10.9743 9.60661 10.8236 9.47894 10.6192 9.40451L10.3082 10.2587ZM10.6333 10.5506L9.94512 11.1446L10.1635 11.3976L10.8517 10.8036L11.5398 10.2095L11.3214 9.95652L10.6333 10.5506ZM10.8517 10.8036L10.1635 11.3976L10.3819 11.6506L11.0701 11.0566L11.7582 10.4625L11.5398 10.2095L10.8517 10.8036ZM11.0701 11.0566L10.3819 11.6506C10.5026 11.7904 10.6132 11.9362 10.714 12.0883L11.4717 11.5861L12.2295 11.0838C12.0859 10.8672 11.9287 10.6601 11.7582 10.4625L11.0701 11.0566ZM11.4717 11.5861L10.714 12.0883L10.8972 12.3648L11.655 11.8626L12.4128 11.3603L12.2295 11.0838L11.4717 11.5861ZM11.655 11.8626L10.8972 12.3648L11.0805 12.6413L11.8383 12.1391L12.596 11.6368L12.4128 11.3603L11.655 11.8626ZM11.8383 12.1391L11.0805 12.6413C11.1696 12.7758 11.2416 12.913 11.298 13.0533L12.1416 12.7145L12.9852 12.3757C12.8815 12.1175 12.7513 11.8711 12.596 11.6368L11.8383 12.1391ZM12.1416 12.7145L11.298 13.0533L11.418 13.3522L12.2616 13.0134L13.1052 12.6745L12.9852 12.3757L12.1416 12.7145ZM12.2616 13.0134L11.418 13.3522L11.538 13.6511L12.3816 13.3122L13.2252 12.9734L13.1052 12.6745L12.2616 13.0134ZM12.3816 13.3122L11.538 13.6511C11.6463 13.9207 11.7923 14.1853 11.9665 14.4445L12.721 13.9373L13.4754 13.4301C13.3573 13.2544 13.277 13.1023 13.2252 12.9734L12.3816 13.3122ZM12.721 13.9373L11.9665 14.4445L12.1858 14.7707L12.9403 14.2635L13.6947 13.7563L13.4754 13.4301L12.721 13.9373ZM12.9403 14.2635L12.1858 14.7707L12.4051 15.0969L13.1595 14.5896L13.914 14.0824L13.6947 13.7563L12.9403 14.2635ZM13.1595 14.5896L12.4051 15.0969C12.4051 15.0969 12.3851 15.0651 12.3798 15.0082C12.3746 14.9513 12.3885 14.9167 12.3882 14.9173L13.223 15.2772L14.0578 15.6372C14.2839 15.1128 14.233 14.5569 13.914 14.0824L13.1595 14.5896ZM13.223 15.2772L12.3882 14.9173L12.2324 15.2787L13.0672 15.6387L13.902 15.9986L14.0578 15.6372L13.223 15.2772ZM13.0672 15.6387L12.2324 15.2787L12.0765 15.6402L12.9114 16.0001L13.7462 16.36L13.902 15.9986L13.0672 15.6387ZM12.9114 16.0001L12.0765 15.6402C12.0789 15.6348 12.1008 15.5906 12.1584 15.5484C12.1848 15.5291 12.2106 15.5163 12.2317 15.5086C12.2521 15.5012 12.2639 15.5 12.2629 15.5001L12.36 16.404L12.4571 17.3079C13.0424 17.245 13.5107 16.9061 13.7462 16.36L12.9114 16.0001ZM12.36 16.404L12.2629 15.5001L11.8673 15.5426L11.9644 16.4465L12.0615 17.3504L12.4571 17.3079L12.36 16.404ZM11.9644 16.4465L11.8673 15.5426L11.4718 15.5851L11.5688 16.489L11.6659 17.3929L12.0615 17.3504L11.9644 16.4465ZM11.5688 16.489L11.4718 15.5851C11.0213 15.6335 10.6029 15.815 10.2714 16.152L10.9195 16.7894L11.5677 17.4269C11.5745 17.4199 11.589 17.4011 11.6659 17.3929L11.5688 16.489ZM10.9195 16.7894L10.2714 16.152L10.0177 16.4099L10.6658 17.0474L11.3139 17.6849L11.5677 17.4269L10.9195 16.7894ZM10.6658 17.0474L10.0177 16.4099L9.76392 16.6679L10.412 17.3054L11.0602 17.9429L11.3139 17.6849L10.6658 17.0474ZM10.412 17.3054L9.76392 16.6679C9.67637 16.7569 9.69383 16.7236 9.77762 16.6767C9.80633 16.6606 9.87332 16.6255 9.96908 16.601C10.0596 16.5779 10.2515 16.5451 10.4774 16.625C10.7353 16.7163 10.9035 16.906 10.9886 17.0917C11.0615 17.2506 11.0674 17.3883 11.0674 17.4475H10.1583H9.2492C9.2492 17.5422 9.2731 18.1276 9.87094 18.3391C10.1074 18.4228 10.3125 18.3898 10.4189 18.3627C10.5305 18.3342 10.616 18.2911 10.6658 18.2632C10.8342 18.1689 10.9786 18.0259 11.0602 17.9429L10.412 17.3054ZM10.1583 17.4475H11.0674V17.3316H10.1583H9.2492V17.4475H10.1583ZM10.1583 17.3316H11.0674V17.2156H10.1583H9.2492V17.3316H10.1583ZM10.1583 17.2156H11.0674C11.0674 16.7696 10.7862 16.4978 10.6673 16.3981C10.5251 16.2789 10.3642 16.1952 10.2326 16.1357L9.85829 16.9642L9.48402 17.7927C9.55235 17.8235 9.54149 17.8269 9.49933 17.7915C9.47614 17.7721 9.42066 17.7221 9.36717 17.6359C9.31058 17.5448 9.2492 17.4005 9.2492 17.2156H10.1583ZM9.85829 16.9642L10.2326 16.1357L9.93256 16.0002L9.55829 16.8287L9.18402 17.6571L9.48402 17.7927L9.85829 16.9642Z" fill="#FFCF8C"/>
<path d="M10.3958 17.6805C8.43143 17.6805 6.83325 16.1753 6.83325 14.3252C6.83325 11.743 10.3958 8.18048 10.3958 8.18048C10.3958 8.18048 13.9583 11.743 13.9583 14.3252C13.9583 16.1753 12.3601 17.6805 10.3958 17.6805Z" fill="#FFA01B"/>
<path d="M10.3958 17.6805C9.4136 17.6805 8.6145 16.9279 8.6145 16.0028C8.6145 14.7117 10.3958 12.9305 10.3958 12.9305C10.3958 12.9305 12.177 14.7117 12.177 16.0028C12.177 16.9279 11.378 17.6805 10.3958 17.6805Z" fill="#FFA01B"/>
<path d="M9.95326 17.7191L10.0027 18.2852L9.95326 17.7191ZM9.732 17.7385L9.68255 17.1724L9.732 17.7385ZM9.35135 17.5805L9.77388 17.2006L9.35135 17.5805ZM9.19196 17.4032L8.76943 17.7831L9.19196 17.4032ZM9.03257 17.2259L8.61005 17.6058L9.03257 17.2259ZM8.33478 16.7827L8.08317 17.2922L8.33478 16.7827ZM7.96202 16.5879L7.68849 17.0859L7.96202 16.5879ZM7.57546 16.3756L7.84899 15.8776L7.57546 16.3756ZM7.33612 15.5911L6.76925 15.6296L7.33612 15.5911ZM7.02077 15.0112L6.58743 15.3787L7.02077 15.0112ZM6.87077 14.8343L7.30412 14.4668L6.87077 14.8343ZM6.83983 13.3447L6.28667 13.2149L6.83983 13.3447ZM7.27111 12.3525L6.78094 12.0652L7.27111 12.3525ZM7.53987 12.0097L7.93677 12.4163L7.53987 12.0097ZM7.85676 11.7003L7.45986 11.2938L7.85676 11.7003ZM8.09357 11.3449L7.5643 11.1383L8.09357 11.3449ZM8.25031 10.9435L8.77959 11.1501L8.25031 10.9435ZM8.38983 10.5221L8.93738 10.6738L8.38983 10.5221ZM8.45098 10.3014L7.90343 10.1497L8.45098 10.3014ZM8.92779 9.59209L8.58515 9.13885L8.92779 9.59209ZM9.10505 9.45809L9.44769 9.91133L9.10505 9.45809ZM9.47509 9.20983L9.76477 9.69862L9.47509 9.20983ZM9.66787 9.09558L9.37819 8.60679L9.66787 9.09558ZM9.86065 8.98133L9.57097 8.49254L9.86065 8.98133ZM10.2211 8.55098L9.71922 8.28469L10.2211 8.55098ZM10.758 8.86164L10.3862 9.29135L10.758 8.86164ZM11.0715 9.14816L10.6769 9.557L11.0715 9.14816ZM11.3779 9.44385L11.7724 9.03501L11.3779 9.44385ZM11.7143 9.72L11.3884 10.1854L11.7143 9.72ZM12.3941 10.277L11.941 10.6198L12.3941 10.277ZM12.6544 10.6212L13.1076 10.2784L12.6544 10.6212ZM12.7929 11.038L12.225 11.0571L12.7929 11.038ZM12.8011 11.2827L13.369 11.2635L12.8011 11.2827ZM12.8094 11.5274L13.3772 11.5083L12.8094 11.5274ZM12.9529 11.9373L13.3924 11.5772L12.9529 11.9373ZM13.0883 12.1024L13.5277 11.7423L13.0883 12.1024ZM13.2236 12.2676L12.7841 12.6277L13.2236 12.2676ZM13.3889 12.6425L12.8264 12.7229L13.3889 12.6425ZM13.4188 12.8522L13.9813 12.7718L13.4188 12.8522ZM13.4488 13.0619L12.8863 13.1423L13.4488 13.0619ZM13.5229 13.4647L12.9691 13.5914L13.5229 13.4647ZM13.5671 13.6577L14.121 13.531L13.5671 13.6577ZM13.6113 13.8507L14.1651 13.724L13.6113 13.8507ZM13.7239 14.2493L13.1849 14.429L13.7239 14.2493ZM13.7925 14.4549L13.2534 14.6346L13.7925 14.4549ZM13.861 14.6605L14.4 14.4808L13.861 14.6605ZM13.7471 15.2482L14.2599 15.4929L13.7471 15.2482ZM13.6559 15.4393L13.1432 15.1945L13.6559 15.4393ZM13.5005 15.8426L12.9567 15.678L13.5005 15.8426ZM13.4362 16.0549L13.98 16.2195L13.4362 16.0549ZM13.372 16.2671L12.8282 16.1025L13.372 16.2671ZM13.0852 16.547L12.9201 16.0033L13.0852 16.547ZM12.6402 16.6821L12.8054 17.2258L12.6402 16.6821ZM12.2908 16.9509L11.8103 16.6476L12.2908 16.9509ZM12.1638 17.152L12.6442 17.4553L12.1638 17.152ZM12.0368 17.3532L12.5172 17.6565L12.0368 17.3532ZM11.698 17.6291L11.8871 18.1649L11.698 17.6291ZM11.4862 17.7038L11.6753 18.2396L11.4862 17.7038ZM11.2744 17.7786L11.0853 17.2428L11.2744 17.7786ZM10.8959 17.7849L11.1117 17.2593L10.8959 17.7849ZM10.7292 17.7164L10.5133 18.242L10.7292 17.7164ZM10.1745 17.6998L10.224 18.2658L10.1745 17.6998ZM10.0376 17.4769L9.75686 17.9709L10.0376 17.4769ZM9.85853 17.3751L10.1393 16.8812L9.85853 17.3751ZM9.44302 17.227L9.55238 16.6694L9.44302 17.227ZM9.2066 17.1806L9.09724 17.7382L9.2066 17.1806ZM8.97018 17.1342L8.86082 17.6918L8.97018 17.1342ZM8.79049 16.848L8.23757 16.7172L8.79049 16.848ZM8.90397 16.3683L9.45689 16.4991L8.90397 16.3683ZM8.98716 15.9565L9.54874 16.0429L8.98716 15.9565ZM9.04008 15.6125L8.47851 15.5261L9.04008 15.6125ZM9.09186 15.0004L9.6591 15.033L9.09186 15.0004ZM9.10452 14.7803L8.53728 14.7477L9.10452 14.7803ZM9.25018 14.394L8.80658 14.039L9.25018 14.394ZM9.51617 14.0617L9.07257 13.7067L9.51617 14.0617ZM9.7379 13.6905L9.21647 13.4648L9.7379 13.6905ZM9.91536 13.2806L10.4368 13.5063L9.91536 13.2806ZM10.1609 13.1474L9.92443 13.664L10.1609 13.1474ZM10.4746 13.291L10.2381 13.8076L10.4746 13.291ZM10.8222 13.4834L10.5185 13.9636L10.8222 13.4834ZM11.2035 13.7245L11.5071 13.2442L11.2035 13.7245ZM11.4422 14.0682L10.8868 14.1879L11.4422 14.0682ZM11.5385 14.5146L12.0939 14.3949L11.5385 14.5146ZM11.6875 14.9182L11.1917 15.1957L11.6875 14.9182ZM11.8894 15.2791L11.3936 15.5565L11.8894 15.2791ZM11.9693 15.6519L11.4045 15.5901L11.9693 15.6519ZM11.9483 15.8443L11.3834 15.7825L11.9483 15.8443ZM11.9272 16.0368L12.492 16.0986L11.9272 16.0368ZM11.8975 16.446L12.4652 16.4686L11.8975 16.446ZM11.8889 16.6628L11.3211 16.6402L11.8889 16.6628ZM11.8802 16.8796L11.3125 16.857L11.8802 16.8796ZM11.4682 17.2521L11.2636 16.722L11.4682 17.2521ZM11.2665 17.33L11.471 17.86L11.2665 17.33ZM10.8975 17.4966L10.631 16.9949L10.8975 17.4966ZM10.563 17.6743L10.8296 18.1761L10.563 17.6743ZM10.2167 17.5787L9.93595 18.0727L10.2167 17.5787ZM9.95326 17.7191L9.90381 17.1531L9.68255 17.1724L9.732 17.7385L9.78145 18.3045L10.0027 18.2852L9.95326 17.7191ZM9.732 17.7385L9.68255 17.1724C9.69262 17.1716 9.71647 17.1724 9.74398 17.1839C9.77012 17.1947 9.77927 17.2066 9.77388 17.2006L9.35135 17.5805L8.92882 17.9604C9.14425 18.2 9.44148 18.3342 9.78145 18.3045L9.732 17.7385ZM9.35135 17.5805L9.77388 17.2006L9.61449 17.0234L9.19196 17.4032L8.76943 17.7831L8.92882 17.9604L9.35135 17.5805ZM9.19196 17.4032L9.61449 17.0234L9.4551 16.8461L9.03257 17.2259L8.61005 17.6058L8.76943 17.7831L9.19196 17.4032ZM9.03257 17.2259L9.4551 16.8461C9.30963 16.6843 9.14074 16.5471 8.94532 16.4506L8.69372 16.96L8.44211 17.4695C8.48599 17.4911 8.543 17.5312 8.61005 17.6058L9.03257 17.2259ZM8.69372 16.96L8.94532 16.4506L8.76585 16.3619L8.51425 16.8714L8.26264 17.3808L8.44211 17.4695L8.69372 16.96ZM8.51425 16.8714L8.76585 16.3619L8.58638 16.2733L8.33478 16.7827L8.08317 17.2922L8.26264 17.3808L8.51425 16.8714ZM8.33478 16.7827L8.58638 16.2733C8.47482 16.2182 8.3579 16.1571 8.23556 16.0899L7.96202 16.5879L7.68849 17.0859C7.82385 17.1603 7.95543 17.2291 8.08317 17.2922L8.33478 16.7827ZM7.96202 16.5879L8.23556 16.0899L8.04227 15.9838L7.76874 16.4818L7.49521 16.9798L7.68849 17.0859L7.96202 16.5879ZM7.76874 16.4818L8.04227 15.9838L7.84899 15.8776L7.57546 16.3756L7.30192 16.8736L7.49521 16.9798L7.76874 16.4818ZM7.57546 16.3756L7.84899 15.8776C7.85862 15.8829 7.88508 15.9011 7.90785 15.9373C7.93023 15.973 7.93346 16.0012 7.9337 16.0048L7.36683 16.0433L6.79995 16.0818C6.82285 16.4192 6.99776 16.7066 7.30192 16.8736L7.57546 16.3756ZM7.36683 16.0433L7.9337 16.0048L7.91835 15.7787L7.35147 15.8172L6.7846 15.8557L6.79995 16.0818L7.36683 16.0433ZM7.35147 15.8172L7.91835 15.7787L7.903 15.5526L7.33612 15.5911L6.76925 15.6296L6.7846 15.8557L7.35147 15.8172ZM7.33612 15.5911L7.903 15.5526C7.88434 15.2778 7.78067 15.0288 7.60412 14.8206L7.17077 15.1881L6.73743 15.5556C6.76088 15.5832 6.76744 15.6029 6.76925 15.6296L7.33612 15.5911ZM7.17077 15.1881L7.60412 14.8206L7.45412 14.6437L7.02077 15.0112L6.58743 15.3787L6.73743 15.5556L7.17077 15.1881ZM7.02077 15.0112L7.45412 14.6437L7.30412 14.4668L6.87077 14.8343L6.43742 15.2018L6.58743 15.3787L7.02077 15.0112ZM6.87077 14.8343L7.30412 14.4668C7.29852 14.4602 7.29562 14.4558 7.29431 14.4536C7.29304 14.4514 7.29292 14.4508 7.29318 14.4515C7.29345 14.4523 7.29362 14.453 7.29367 14.4533C7.29371 14.4535 7.29342 14.452 7.2935 14.4482L6.72545 14.4362L6.15739 14.4242C6.15119 14.7175 6.25241 14.9836 6.43742 15.2018L6.87077 14.8343ZM6.72545 14.4362L7.2935 14.4482L7.29818 14.2269L6.73012 14.2149L6.16207 14.2029L6.15739 14.4242L6.72545 14.4362ZM6.73012 14.2149L7.29818 14.2269L7.30285 14.0057L6.7348 13.9937L6.16674 13.9817L6.16207 14.2029L6.73012 14.2149ZM6.7348 13.9937L7.30285 14.0057C7.30513 13.8976 7.31849 13.792 7.34281 13.6884L6.78965 13.5586L6.23649 13.4288C6.19391 13.6103 6.17069 13.7948 6.16674 13.9817L6.7348 13.9937ZM6.78965 13.5586L7.34281 13.6884L7.39299 13.4745L6.83983 13.3447L6.28667 13.2149L6.23649 13.4288L6.78965 13.5586ZM6.83983 13.3447L7.39299 13.4745L7.44317 13.2607L6.89001 13.1309L6.33685 13.0011L6.28667 13.2149L6.83983 13.3447ZM6.89001 13.1309L7.44317 13.2607C7.46372 13.1731 7.4961 13.0922 7.54067 13.0162L7.0505 12.7289L6.56033 12.4415C6.45782 12.6164 6.38321 12.8036 6.33685 13.0011L6.89001 13.1309ZM7.0505 12.7289L7.54067 13.0162L7.65098 12.828L7.16081 12.5407L6.67064 12.2534L6.56033 12.4415L7.0505 12.7289ZM7.16081 12.5407L7.65098 12.828L7.76128 12.6399L7.27111 12.3525L6.78094 12.0652L6.67064 12.2534L7.16081 12.5407ZM7.27111 12.3525L7.76128 12.6399C7.8088 12.5588 7.86685 12.4845 7.93677 12.4163L7.53987 12.0097L7.14297 11.6031C7.00162 11.7411 6.8805 11.8953 6.78094 12.0652L7.27111 12.3525ZM7.53987 12.0097L7.93677 12.4163L8.09521 12.2616L7.69831 11.855L7.30141 11.4484L7.14297 11.6031L7.53987 12.0097ZM7.69831 11.855L8.09521 12.2616L8.25366 12.1069L7.85676 11.7003L7.45986 11.2938L7.30141 11.4484L7.69831 11.855ZM7.85676 11.7003L8.25366 12.1069C8.41549 11.9489 8.54038 11.7628 8.62285 11.5516L8.09357 11.3449L7.5643 11.1383C7.54227 11.1947 7.50928 11.2455 7.45986 11.2938L7.85676 11.7003ZM8.09357 11.3449L8.62285 11.5516L8.70122 11.3508L8.17194 11.1442L7.64267 10.9375L7.5643 11.1383L8.09357 11.3449ZM8.17194 11.1442L8.70122 11.3508L8.77959 11.1501L8.25031 10.9435L7.72104 10.7368L7.64267 10.9375L8.17194 11.1442ZM8.25031 10.9435L8.77959 11.1501C8.83927 10.9972 8.89177 10.8384 8.93738 10.6738L8.38983 10.5221L7.84229 10.3703C7.80636 10.5 7.76585 10.622 7.72104 10.7368L8.25031 10.9435ZM8.38983 10.5221L8.93738 10.6738L8.99853 10.4531L8.45098 10.3014L7.90343 10.1497L7.84229 10.3703L8.38983 10.5221ZM8.45098 10.3014L8.99853 10.4531L9.05967 10.2325L8.51213 10.0808L7.96458 9.92902L7.90343 10.1497L8.45098 10.3014ZM8.51213 10.0808L9.05967 10.2325C9.0682 10.2017 9.07778 10.191 9.09318 10.1793L8.75054 9.7261L8.4079 9.27285C8.18695 9.43989 8.03759 9.66557 7.96458 9.92902L8.51213 10.0808ZM8.75054 9.7261L9.09318 10.1793L9.27043 10.0453L8.92779 9.59209L8.58515 9.13885L8.4079 9.27285L8.75054 9.7261ZM8.92779 9.59209L9.27043 10.0453L9.44769 9.91133L9.10505 9.45809L8.76241 9.00485L8.58515 9.13885L8.92779 9.59209ZM9.10505 9.45809L9.44769 9.91133C9.54875 9.83494 9.6544 9.76403 9.76477 9.69862L9.47509 9.20983L9.18541 8.72105C9.03874 8.80797 8.8977 8.90257 8.76241 9.00485L9.10505 9.45809ZM9.47509 9.20983L9.76477 9.69862L9.95756 9.58437L9.66787 9.09558L9.37819 8.60679L9.18541 8.72105L9.47509 9.20983ZM9.66787 9.09558L9.95756 9.58437L10.1503 9.47012L9.86065 8.98133L9.57097 8.49254L9.37819 8.60679L9.66787 9.09558ZM9.86065 8.98133L10.1503 9.47012C10.302 9.38022 10.4983 9.24088 10.6112 9.02801L10.1093 8.76171L9.60742 8.49542C9.61964 8.47239 9.63113 8.45742 9.63727 8.4501C9.64344 8.44273 9.64623 8.44066 9.64311 8.44342C9.64009 8.44608 9.63303 8.45195 9.62062 8.46072C9.6083 8.46942 9.59198 8.48009 9.57097 8.49254L9.86065 8.98133ZM10.1093 8.76171L10.6112 9.02801L10.6672 8.92264L10.1652 8.65635L9.66332 8.39005L9.60742 8.49542L10.1093 8.76171ZM10.1652 8.65635L10.6672 8.92264L10.7231 8.81728L10.2211 8.55098L9.71922 8.28469L9.66332 8.39005L10.1652 8.65635ZM10.2211 8.55098L10.7231 8.81728C10.6944 8.87119 10.635 8.95432 10.5259 9.01331C10.4125 9.07467 10.2991 9.08089 10.2166 9.06819C10.1423 9.05673 10.0943 9.03079 10.0791 9.02198C10.0617 9.01187 10.0568 9.00641 10.0656 9.014L10.4373 8.58429L10.8091 8.15458C10.7381 8.09316 10.5912 7.97612 10.3897 7.94507C10.2711 7.92681 10.1261 7.93765 9.98529 8.0138C9.84891 8.08757 9.76646 8.19565 9.71922 8.28469L10.2211 8.55098ZM10.4373 8.58429L10.0656 9.014L10.2259 9.15267L10.5976 8.72296L10.9694 8.29325L10.8091 8.15458L10.4373 8.58429ZM10.5976 8.72296L10.2259 9.15267L10.3862 9.29135L10.758 8.86164L11.1297 8.43192L10.9694 8.29325L10.5976 8.72296ZM10.758 8.86164L10.3862 9.29135C10.4853 9.37702 10.5821 9.46556 10.6769 9.557L11.0715 9.14816L11.466 8.73932C11.3565 8.63362 11.2444 8.53115 11.1297 8.43192L10.758 8.86164ZM11.0715 9.14816L10.6769 9.557L10.8301 9.70485L11.2247 9.29601L11.6192 8.88716L11.466 8.73932L11.0715 9.14816ZM11.2247 9.29601L10.8301 9.70485L10.9833 9.85269L11.3779 9.44385L11.7724 9.03501L11.6192 8.88716L11.2247 9.29601ZM11.3779 9.44385L10.9833 9.85269C11.1078 9.97289 11.2431 10.0837 11.3884 10.1854L11.7143 9.72L12.0402 9.25458C11.9411 9.18523 11.8521 9.11194 11.7724 9.03501L11.3779 9.44385ZM11.7143 9.72L11.3884 10.1854L11.5716 10.3137L11.8975 9.8483L12.2234 9.38288L12.0402 9.25458L11.7143 9.72ZM11.8975 9.8483L11.5716 10.3137L11.7548 10.442L12.0807 9.9766L12.4066 9.51118L12.2234 9.38288L11.8975 9.8483ZM12.0807 9.9766L11.7548 10.442C11.8302 10.4948 11.8912 10.554 11.941 10.6198L12.3941 10.277L12.8472 9.93422C12.7234 9.77051 12.5755 9.62946 12.4066 9.51118L12.0807 9.9766ZM12.3941 10.277L11.941 10.6198L12.0711 10.7918L12.5243 10.4491L12.9774 10.1063L12.8472 9.93422L12.3941 10.277ZM12.5243 10.4491L12.0711 10.7918L12.2013 10.9639L12.6544 10.6212L13.1076 10.2784L12.9774 10.1063L12.5243 10.4491ZM12.6544 10.6212L12.2013 10.9639C12.2081 10.9729 12.2229 10.9947 12.225 11.0571L12.7929 11.038L13.3607 11.0188C13.3518 10.7549 13.2744 10.4989 13.1076 10.2784L12.6544 10.6212ZM12.7929 11.038L12.225 11.0571L12.2333 11.3018L12.8011 11.2827L13.369 11.2635L13.3607 11.0188L12.7929 11.038ZM12.8011 11.2827L12.2333 11.3018L12.2415 11.5466L12.8094 11.5274L13.3772 11.5083L13.369 11.2635L12.8011 11.2827ZM12.8094 11.5274L12.2415 11.5466C12.2506 11.8152 12.3328 12.077 12.5134 12.2974L12.9529 11.9373L13.3924 11.5772C13.3901 11.5744 13.388 11.5712 13.3856 11.5644C13.383 11.5568 13.3783 11.5396 13.3772 11.5083L12.8094 11.5274ZM12.9529 11.9373L12.5134 12.2974L12.6488 12.4625L13.0883 12.1024L13.5277 11.7423L13.3924 11.5772L12.9529 11.9373ZM13.0883 12.1024L12.6488 12.4625L12.7841 12.6277L13.2236 12.2676L13.6631 11.9075L13.5277 11.7423L13.0883 12.1024ZM13.2236 12.2676L12.7841 12.6277C12.8091 12.6582 12.8212 12.6866 12.8264 12.7229L13.3889 12.6425L13.9513 12.5621C13.9165 12.3187 13.8185 12.0972 13.6631 11.9075L13.2236 12.2676ZM13.3889 12.6425L12.8264 12.7229L12.8564 12.9326L13.4188 12.8522L13.9813 12.7718L13.9513 12.5621L13.3889 12.6425ZM13.4188 12.8522L12.8564 12.9326L12.8863 13.1423L13.4488 13.0619L14.0113 12.9816L13.9813 12.7718L13.4188 12.8522ZM13.4488 13.0619L12.8863 13.1423C12.9084 13.2966 12.9359 13.4464 12.9691 13.5914L13.5229 13.4647L14.0768 13.338C14.0511 13.2256 14.0292 13.1069 14.0113 12.9816L13.4488 13.0619ZM13.5229 13.4647L12.9691 13.5914L13.0132 13.7844L13.5671 13.6577L14.121 13.531L14.0768 13.338L13.5229 13.4647ZM13.5671 13.6577L13.0132 13.7844L13.0574 13.9774L13.6113 13.8507L14.1651 13.724L14.121 13.531L13.5671 13.6577ZM13.6113 13.8507L13.0574 13.9774C13.0913 14.1255 13.134 14.2761 13.1849 14.429L13.7239 14.2493L14.263 14.0696C14.2225 13.9484 14.1901 13.8332 14.1651 13.724L13.6113 13.8507ZM13.7239 14.2493L13.1849 14.429L13.2534 14.6346L13.7925 14.4549L14.3315 14.2752L14.263 14.0696L13.7239 14.2493ZM13.7925 14.4549L13.2534 14.6346L13.322 14.8401L13.861 14.6605L14.4 14.4808L14.3315 14.2752L13.7925 14.4549ZM13.861 14.6605L13.322 14.8401C13.3232 14.8439 13.323 14.8444 13.3227 14.842C13.3224 14.8396 13.322 14.8354 13.3223 14.83C13.3226 14.8247 13.3235 14.8198 13.3245 14.816C13.3255 14.8123 13.3262 14.811 13.3256 14.8124L13.8383 15.0571L14.3511 15.3019C14.4769 15.0383 14.491 14.7538 14.4 14.4808L13.861 14.6605ZM13.8383 15.0571L13.3256 14.8124L13.2344 15.0035L13.7471 15.2482L14.2599 15.4929L14.3511 15.3019L13.8383 15.0571ZM13.7471 15.2482L13.2344 15.0035L13.1432 15.1945L13.6559 15.4393L14.1687 15.684L14.2599 15.4929L13.7471 15.2482ZM13.6559 15.4393L13.1432 15.1945C13.0694 15.349 13.0074 15.5103 12.9567 15.678L13.5005 15.8426L14.0443 16.0072C14.0792 15.8919 14.1208 15.7843 14.1687 15.684L13.6559 15.4393ZM13.5005 15.8426L12.9567 15.678L12.8924 15.8903L13.4362 16.0549L13.98 16.2195L14.0443 16.0072L13.5005 15.8426ZM13.4362 16.0549L12.8924 15.8903L12.8282 16.1025L13.372 16.2671L13.9158 16.4317L13.98 16.2195L13.4362 16.0549ZM13.372 16.2671L12.8282 16.1025C12.8315 16.0915 12.8434 16.0639 12.8713 16.0366C12.8984 16.0102 12.9212 16.003 12.9201 16.0033L13.0852 16.547L13.2504 17.0906C13.5698 16.9936 13.8149 16.7652 13.9158 16.4317L13.372 16.2671ZM13.0852 16.547L12.9201 16.0033L12.6976 16.0709L12.8627 16.6146L13.0279 17.1582L13.2504 17.0906L13.0852 16.547ZM12.8627 16.6146L12.6976 16.0709L12.4751 16.1385L12.6402 16.6821L12.8054 17.2258L13.0279 17.1582L12.8627 16.6146ZM12.6402 16.6821L12.4751 16.1385C12.193 16.2242 11.966 16.401 11.8103 16.6476L12.2908 16.9509L12.7712 17.2542C12.7807 17.2392 12.7868 17.2344 12.788 17.2335C12.789 17.2327 12.7931 17.2295 12.8054 17.2258L12.6402 16.6821ZM12.2908 16.9509L11.8103 16.6476L11.6833 16.8487L12.1638 17.152L12.6442 17.4553L12.7712 17.2542L12.2908 16.9509ZM12.1638 17.152L11.6833 16.8487L11.5563 17.0499L12.0368 17.3532L12.5172 17.6565L12.6442 17.4553L12.1638 17.152ZM12.0368 17.3532L11.5563 17.0499C11.5356 17.0828 11.5222 17.0886 11.5089 17.0933L11.698 17.6291L11.8871 18.1649C12.1562 18.0699 12.3687 17.8918 12.5172 17.6565L12.0368 17.3532ZM11.698 17.6291L11.5089 17.0933L11.2971 17.168L11.4862 17.7038L11.6753 18.2396L11.8871 18.1649L11.698 17.6291ZM11.4862 17.7038L11.2971 17.168L11.0853 17.2428L11.2744 17.7786L11.4635 18.3144L11.6753 18.2396L11.4862 17.7038ZM11.2744 17.7786L11.0853 17.2428C11.062 17.251 11.0561 17.2496 11.0644 17.2494C11.0687 17.2494 11.0757 17.2497 11.0846 17.2513C11.0936 17.253 11.1029 17.2556 11.1117 17.2593L10.8959 17.7849L10.68 18.3104C10.9499 18.4213 11.2243 18.3988 11.4635 18.3144L11.2744 17.7786ZM10.8959 17.7849L11.1117 17.2593L10.945 17.1908L10.7292 17.7164L10.5133 18.242L10.68 18.3104L10.8959 17.7849ZM10.7292 17.7164L10.945 17.1908L10.7783 17.1224L10.5625 17.6479L10.3466 18.1735L10.5133 18.242L10.7292 17.7164ZM10.5625 17.6479L10.7783 17.1224C10.7188 17.0979 10.6473 17.0703 10.58 17.0529C10.5567 17.0469 10.4775 17.0261 10.3814 17.0303C10.3375 17.0322 10.2153 17.0413 10.0888 17.1234C9.92264 17.2314 9.8276 17.414 9.8276 17.6047H10.3958H10.964C10.964 17.6836 10.9471 17.7775 10.897 17.8708C10.8466 17.9645 10.7767 18.0317 10.7079 18.0763C10.585 18.1562 10.468 18.164 10.431 18.1656C10.3824 18.1677 10.3456 18.1626 10.3304 18.1602C10.3124 18.1573 10.2998 18.1542 10.2949 18.1529C10.2831 18.1499 10.295 18.1523 10.3466 18.1735L10.5625 17.6479ZM10.3958 17.6047H9.8276V17.63H10.3958H10.964V17.6047H10.3958ZM10.3958 17.63H9.8276V17.6552H10.3958H10.964V17.63H10.3958ZM10.3958 17.6552H9.8276C9.8276 17.4313 9.95346 17.2912 10.0155 17.2362C10.078 17.1808 10.1369 17.1544 10.1576 17.1455C10.1841 17.1341 10.2045 17.1281 10.2127 17.1259C10.2222 17.1232 10.2279 17.1221 10.2282 17.122C10.2284 17.122 10.2203 17.1235 10.2006 17.126C10.1819 17.1284 10.157 17.131 10.1251 17.1338L10.1745 17.6998L10.224 18.2658C10.3028 18.259 10.3837 18.2499 10.4527 18.236C10.4824 18.23 10.5423 18.217 10.6063 18.1895C10.6362 18.1767 10.7021 18.1462 10.7692 18.0867C10.8358 18.0276 10.964 17.8834 10.964 17.6552H10.3958ZM10.1745 17.6998L10.1251 17.1338L9.90381 17.1531L9.95326 17.7191L10.0027 18.2852L10.224 18.2658L10.1745 17.6998ZM10.0376 17.4769L10.3184 16.9829L10.1393 16.8812L9.85853 17.3751L9.57778 17.8691L9.75686 17.9709L10.0376 17.4769ZM9.85853 17.3751L10.1393 16.8812C9.95839 16.7784 9.76021 16.7102 9.55238 16.6694L9.44302 17.227L9.33366 17.7845C9.44106 17.8056 9.51989 17.8362 9.57778 17.8691L9.85853 17.3751ZM9.44302 17.227L9.55238 16.6694L9.31596 16.6231L9.2066 17.1806L9.09724 17.7382L9.33366 17.7845L9.44302 17.227ZM9.2066 17.1806L9.31596 16.6231L9.07954 16.5767L8.97018 17.1342L8.86082 17.6918L9.09724 17.7382L9.2066 17.1806ZM8.97018 17.1342L9.07954 16.5767C9.08793 16.5783 9.20451 16.604 9.28826 16.7374C9.37004 16.8677 9.34344 16.9787 9.34342 16.9788L8.79049 16.848L8.23757 16.7172C8.19972 16.8772 8.18415 17.1159 8.32583 17.3416C8.46947 17.5704 8.69481 17.6592 8.86082 17.6918L8.97018 17.1342ZM8.79049 16.848L9.34342 16.9788L9.40015 16.7389L8.84723 16.6082L8.29431 16.4774L8.23757 16.7172L8.79049 16.848ZM8.84723 16.6082L9.40015 16.7389L9.45689 16.4991L8.90397 16.3683L8.35105 16.2375L8.29431 16.4774L8.84723 16.6082ZM8.90397 16.3683L9.45689 16.4991C9.49689 16.33 9.52808 16.1771 9.54874 16.0429L8.98716 15.9565L8.42559 15.8701C8.41097 15.9651 8.3867 16.0868 8.35105 16.2375L8.90397 16.3683ZM8.98716 15.9565L9.54874 16.0429L9.5752 15.8709L9.01362 15.7845L8.45205 15.6981L8.42559 15.8701L8.98716 15.9565ZM9.01362 15.7845L9.5752 15.8709L9.60165 15.6989L9.04008 15.6125L8.47851 15.5261L8.45205 15.6981L9.01362 15.7845ZM9.04008 15.6125L9.60165 15.6989C9.62264 15.5625 9.63723 15.4133 9.64644 15.2531L9.0792 15.2205L8.51195 15.1878C8.50429 15.321 8.49279 15.4332 8.47851 15.5261L9.04008 15.6125ZM9.0792 15.2205L9.64644 15.2531L9.6591 15.033L9.09186 15.0004L8.52462 14.9678L8.51195 15.1878L9.0792 15.2205ZM9.09186 15.0004L9.6591 15.033L9.67176 14.8129L9.10452 14.7803L8.53728 14.7477L8.52462 14.9678L9.09186 15.0004ZM9.10452 14.7803L9.67176 14.8129C9.67369 14.7794 9.68153 14.7644 9.69378 14.7491L9.25018 14.394L8.80658 14.039C8.6415 14.2453 8.55223 14.4877 8.53728 14.7477L9.10452 14.7803ZM9.25018 14.394L9.69378 14.7491L9.82677 14.5829L9.38318 14.2279L8.93958 13.8728L8.80658 14.039L9.25018 14.394ZM9.38318 14.2279L9.82677 14.5829L9.95977 14.4167L9.51617 14.0617L9.07257 13.7067L8.93958 13.8728L9.38318 14.2279ZM9.51617 14.0617L9.95977 14.4167C10.0815 14.2646 10.1811 14.097 10.2593 13.9163L9.7379 13.6905L9.21647 13.4648C9.1764 13.5574 9.12814 13.6372 9.07257 13.7067L9.51617 14.0617ZM9.7379 13.6905L10.2593 13.9163L10.3481 13.7113L9.82663 13.4856L9.3052 13.2599L9.21647 13.4648L9.7379 13.6905ZM9.82663 13.4856L10.3481 13.7113L10.4368 13.5063L9.91536 13.2806L9.39393 13.0549L9.3052 13.2599L9.82663 13.4856ZM9.91536 13.2806L10.4368 13.5063C10.444 13.4896 10.4124 13.579 10.292 13.6443C10.226 13.68 10.1509 13.6983 10.0762 13.6969C10.0055 13.6956 9.95314 13.6772 9.92443 13.664L10.1609 13.1474L10.3975 12.6308C10.2252 12.5519 9.9852 12.5179 9.75027 12.6453C9.54802 12.755 9.44585 12.9349 9.39393 13.0549L9.91536 13.2806ZM10.1609 13.1474L9.92443 13.664L10.0813 13.7358L10.3178 13.2192L10.5543 12.7026L10.3975 12.6308L10.1609 13.1474ZM10.3178 13.2192L10.0813 13.7358L10.2381 13.8076L10.4746 13.291L10.7112 12.7744L10.5543 12.7026L10.3178 13.2192ZM10.4746 13.291L10.2381 13.8076C10.3138 13.8423 10.4068 13.893 10.5185 13.9636L10.8222 13.4834L11.1258 13.0031C10.9833 12.913 10.8447 12.8355 10.7112 12.7744L10.4746 13.291ZM10.8222 13.4834L10.5185 13.9636L10.7092 14.0842L11.0128 13.6039L11.3164 13.1237L11.1258 13.0031L10.8222 13.4834ZM11.0128 13.6039L10.7092 14.0842L10.8998 14.2047L11.2035 13.7245L11.5071 13.2442L11.3164 13.1237L11.0128 13.6039ZM11.2035 13.7245L10.8998 14.2047C10.9026 14.2064 10.9022 14.2065 10.9 14.2045C10.8978 14.2024 10.8948 14.1991 10.8918 14.1948C10.8889 14.1906 10.8871 14.1869 10.8862 14.1848C10.8853 14.1828 10.8859 14.1835 10.8868 14.1879L11.4422 14.0682L11.9977 13.9485C11.9339 13.6526 11.7649 13.4072 11.5071 13.2442L11.2035 13.7245ZM11.4422 14.0682L10.8868 14.1879L10.9349 14.4111L11.4904 14.2914L12.0458 14.1717L11.9977 13.9485L11.4422 14.0682ZM11.4904 14.2914L10.9349 14.4111L10.9831 14.6344L11.5385 14.5146L12.0939 14.3949L12.0458 14.1717L11.4904 14.2914ZM11.5385 14.5146L10.9831 14.6344C11.0258 14.8327 11.0941 15.0212 11.1917 15.1957L11.6875 14.9182L12.1834 14.6408C12.1464 14.5747 12.1153 14.4942 12.0939 14.3949L11.5385 14.5146ZM11.6875 14.9182L11.1917 15.1957L11.2926 15.3761L11.7885 15.0986L12.2843 14.8212L12.1834 14.6408L11.6875 14.9182ZM11.7885 15.0986L11.2926 15.3761L11.3936 15.5565L11.8894 15.2791L12.3853 15.0016L12.2843 14.8212L11.7885 15.0986ZM11.8894 15.2791L11.3936 15.5565C11.4018 15.5713 11.4038 15.5793 11.4043 15.5815C11.4047 15.5833 11.405 15.5854 11.4045 15.5901L11.9693 15.6519L12.5341 15.7137C12.5619 15.4597 12.5061 15.2176 12.3853 15.0016L11.8894 15.2791ZM11.9693 15.6519L11.4045 15.5901L11.3834 15.7825L11.9483 15.8443L12.5131 15.9061L12.5341 15.7137L11.9693 15.6519ZM11.9483 15.8443L11.3834 15.7825L11.3624 15.975L11.9272 16.0368L12.492 16.0986L12.5131 15.9061L11.9483 15.8443ZM11.9272 16.0368L11.3624 15.975C11.3468 16.1177 11.336 16.2673 11.3298 16.4234L11.8975 16.446L12.4652 16.4686C12.4705 16.3356 12.4796 16.2124 12.492 16.0986L11.9272 16.0368ZM11.8975 16.446L11.3298 16.4234L11.3211 16.6402L11.8889 16.6628L12.4566 16.6854L12.4652 16.4686L11.8975 16.446ZM11.8889 16.6628L11.3211 16.6402L11.3125 16.857L11.8802 16.8796L12.448 16.9023L12.4566 16.6854L11.8889 16.6628ZM11.8802 16.8796L11.3125 16.857C11.3131 16.841 11.3198 16.7891 11.3609 16.7316C11.4021 16.6739 11.4494 16.6504 11.4653 16.6442L11.6699 17.1743L11.8745 17.7044C12.0249 17.6463 12.1745 17.5477 12.2858 17.3918C12.397 17.2361 12.4416 17.0628 12.448 16.9023L11.8802 16.8796ZM11.6699 17.1743L11.4653 16.6442L11.2636 16.722L11.4682 17.2521L11.6728 17.7822L11.8745 17.7044L11.6699 17.1743ZM11.4682 17.2521L11.2636 16.722L11.0619 16.7999L11.2665 17.33L11.471 17.86L11.6728 17.7822L11.4682 17.2521ZM11.2665 17.33L11.0619 16.7999C10.9092 16.8588 10.7651 16.9236 10.631 16.9949L10.8975 17.4966L11.1641 17.9984C11.2529 17.9512 11.3549 17.9049 11.471 17.86L11.2665 17.33ZM10.8975 17.4966L10.631 16.9949L10.4637 17.0837L10.7303 17.5855L10.9968 18.0873L11.1641 17.9984L10.8975 17.4966ZM10.7303 17.5855L10.4637 17.0837L10.2965 17.1725L10.563 17.6743L10.8296 18.1761L10.9968 18.0873L10.7303 17.5855ZM10.563 17.6743L10.2965 17.1725C10.2435 17.2007 10.2229 17.2097 10.2231 17.2096C10.2246 17.209 10.232 17.206 10.2436 17.2023C10.2528 17.1993 10.2793 17.1909 10.3162 17.185C10.3344 17.1821 10.4451 17.1625 10.5784 17.207C10.6568 17.2332 10.7643 17.289 10.8497 17.402C10.9374 17.518 10.964 17.6442 10.964 17.7425H10.3958H9.8276C9.8276 17.8425 9.8546 17.9701 9.9432 18.0873C10.0295 18.2014 10.1383 18.2581 10.2184 18.2849C10.3552 18.3305 10.4711 18.311 10.4962 18.307C10.5714 18.2949 10.6326 18.2699 10.652 18.2619C10.7081 18.2391 10.771 18.2072 10.8296 18.1761L10.563 17.6743ZM10.3958 17.7425H10.964V17.7218H10.3958H9.8276V17.7425H10.3958ZM10.3958 17.7218H10.964V17.7012H10.3958H9.8276V17.7218H10.3958ZM10.3958 17.7012H10.964C10.964 17.5144 10.8735 17.3895 10.8526 17.3607C10.8191 17.3146 10.7855 17.2824 10.7681 17.2665C10.7313 17.2328 10.6944 17.2067 10.6717 17.1912C10.6221 17.1573 10.561 17.1208 10.4974 17.0847L10.2167 17.5787L9.93595 18.0727C9.99178 18.1044 10.0202 18.1223 10.0303 18.1292C10.0374 18.1341 10.023 18.125 10.0011 18.105C9.99113 18.0959 9.96309 18.0697 9.93332 18.0287C9.91793 18.0075 9.89471 17.9724 9.87403 17.9248C9.85388 17.8785 9.8276 17.8008 9.8276 17.7012H10.3958ZM10.2167 17.5787L10.4974 17.0847L10.3184 16.9829L10.0376 17.4769L9.75686 17.9709L9.93595 18.0727L10.2167 17.5787Z" fill="#FFA01B"/>
</svg>
