<svg width="20" height="20" viewBox="0 0 20 20" fill="none" xmlns="http://www.w3.org/2000/svg">
<path d="M10.3587 17.7112C7.21578 17.7112 4.65869 15.3029 4.65869 12.3427C4.65869 8.21123 10.3588 2.51123 10.3588 2.51123C10.3588 2.51123 16.0587 8.21123 16.0587 12.3427C16.0587 15.303 13.5017 17.7112 10.3587 17.7112Z" fill="#EFEFEF"/>
<path d="M10.3587 17.7112C8.78726 17.7112 7.50869 16.5071 7.50869 15.027C7.50869 12.9612 10.3587 10.1112 10.3587 10.1112C10.3587 10.1112 13.2087 12.9612 13.2087 15.027C13.2087 16.5071 11.9302 17.7112 10.3587 17.7112Z" fill="#EFEFEF"/>
<path d="M9.30906 17.7502L9.27531 16.8418L9.30906 17.7502ZM8.64922 17.6006L8.22675 18.4055L8.64922 17.6006ZM8.33927 17.4379L7.9168 18.2429L8.33927 17.4379ZM8.02932 17.2752L7.60685 18.0802L8.02932 17.2752ZM7.35891 17.0164L7.12466 17.8948L7.35891 17.0164ZM6.638 16.8242L6.40375 17.7026L6.638 16.8242ZM6.01523 16.4656L6.65825 15.8229L6.01523 16.4656ZM5.49058 15.9406L4.84756 16.5832L5.49058 15.9406ZM5.257 15.2694L4.35014 15.2057L5.257 15.2694ZM5.21131 13.7426L6.04386 13.3775L5.21131 13.7426ZM5.07942 13.4419L4.24687 13.807L5.07942 13.4419ZM4.94753 13.1412L5.78008 12.776L4.94753 13.1412ZM4.66345 11.8168L3.76424 11.9504L4.66345 11.8168ZM4.63552 11.1179L3.72827 11.0601L4.63552 11.1179ZM5.10098 9.4559L4.34718 8.94774L5.10098 9.4559ZM5.74016 8.61154L5.08048 7.98603L5.74016 8.61154ZM5.98225 8.35622L6.64194 8.98173L5.98225 8.35622ZM6.22435 8.1009L5.56466 7.4754L6.22435 8.1009ZM6.62731 7.54693L7.42768 7.97804L6.62731 7.54693ZM6.78818 7.24826L7.58855 7.67937L6.78818 7.24826ZM6.94905 6.9496L6.14868 6.51849L6.94905 6.9496ZM7.2681 6.34488L6.4605 5.92748L7.2681 6.34488ZM7.58447 5.73277L6.77686 5.31537L7.58447 5.73277ZM8.04988 5.23706L8.52741 6.01063L8.04988 5.23706ZM8.66433 4.85775L8.18679 4.08418L8.66433 4.85775ZM9.2691 3.57593L8.39198 3.33697L9.2691 3.57593ZM9.596 3.11609L9.24351 2.27812L9.596 3.11609ZM10.0514 2.92452L10.4039 3.76249L10.0514 2.92452ZM11.4117 3.18199L11.141 4.04984L11.4117 3.18199ZM11.8447 3.7004L10.9442 3.82508L11.8447 3.7004ZM11.9556 4.50172L12.8561 4.37704L11.9556 4.50172ZM12.2476 5.14681L12.9009 4.51463L12.2476 5.14681ZM12.7207 5.63566L12.0674 6.26783L12.7207 5.63566ZM13.2589 6.08578L12.7468 6.8369L13.2589 6.08578ZM13.5606 6.29148L14.0727 5.54036L13.5606 6.29148ZM13.8623 6.49717L13.3502 7.24829L13.8623 6.49717ZM14.3419 6.99957L13.5623 7.46721L14.3419 6.99957ZM14.5199 7.29627L13.7403 7.76391L14.5199 7.29627ZM14.6979 7.59297L15.4775 7.12534L14.6979 7.59297ZM15.0032 8.21309L15.8491 7.88014L15.0032 8.21309ZM15.2578 8.85992L14.4118 9.19288L15.2578 8.85992ZM15.4882 9.51222L14.6208 9.78429L15.4882 9.51222ZM15.5914 9.8411L14.7239 10.1132L15.5914 9.8411ZM15.6945 10.17L16.5619 9.89791L15.6945 10.17ZM15.7556 10.8458L16.658 10.9553L15.7556 10.8458ZM15.6714 11.5398L14.7689 11.4303L15.6714 11.5398ZM15.606 12.5105L14.6976 12.4766L15.606 12.5105ZM15.5944 12.8224L14.6859 12.7885L15.5944 12.8224ZM15.6391 13.5028L14.7405 13.6403L15.6391 13.5028ZM15.6955 13.8714L14.7969 14.0088L15.6955 13.8714ZM15.7519 14.2399L16.6505 14.1024L15.7519 14.2399ZM15.5655 14.8661L14.9037 14.2428L15.5655 14.8661ZM15.08 15.3815L14.4182 14.7582L15.08 15.3815ZM14.5491 15.8159L14.0739 15.0408L14.5491 15.8159ZM14.261 15.9925L14.7361 16.7675L14.261 15.9925ZM13.9729 16.1692L13.4977 15.3941L13.9729 16.1692ZM13.379 16.4464L13.6631 17.31L13.379 16.4464ZM13.0732 16.5471L13.3574 17.4106L13.0732 16.5471ZM12.7674 16.6477L12.4832 15.7842L12.7674 16.6477ZM12.1802 16.9251L12.6637 17.6949L12.1802 16.9251ZM11.6174 17.2786L11.1338 16.5088L11.6174 17.2786ZM11.0916 17.6222L11.6043 18.3729L11.0916 17.6222ZM10.603 17.9559L10.0903 17.2052L10.603 17.9559ZM10.0088 17.7242L10.0426 18.6327L10.0088 17.7242ZM9.54053 17.1387L10.0617 16.3939L9.54053 17.1387ZM9.04341 16.7797L9.58862 16.0522L9.04341 16.7797ZM8.81903 16.6115L8.27383 17.339L8.81903 16.6115ZM8.59464 16.4433L9.13984 15.7159L8.59464 16.4433ZM8.19004 16.0238L7.45117 16.5534L8.19004 16.0238ZM7.82962 15.521L8.56849 14.9913L7.82962 15.521ZM7.59394 14.9125L6.69562 15.052L7.59394 14.9125ZM7.54804 13.5002L6.6909 13.1973L7.54804 13.5002ZM7.66854 13.1593L8.52568 13.4622L7.66854 13.1593ZM7.78904 12.8183L6.9319 12.5154L7.78904 12.8183ZM8.15211 12.2177L7.4879 11.597L8.15211 12.2177ZM8.63724 11.6986L9.30144 12.3193L8.63724 11.6986ZM9.18919 11.2517L9.66007 12.0294L9.18919 11.2517ZM9.49856 11.0644L9.02768 10.2867L9.49856 11.0644ZM9.80793 10.877L10.2788 11.6547L9.80793 10.877ZM10.2996 10.6937L10.3196 9.78486L10.2996 10.6937ZM10.6641 10.7018L10.644 11.6106L10.6641 10.7018ZM11.1028 10.9385L10.492 11.6118L11.1028 10.9385ZM11.3593 11.1712L10.7485 11.8445L11.3593 11.1712ZM11.6158 11.4039L11.005 12.0772L11.6158 11.4039ZM12.2444 12.2187L13.0104 11.7292L12.2444 12.2187ZM12.4304 12.5098L11.6644 12.9994L12.4304 12.5098ZM12.6587 13.1498L11.7562 13.2591L12.6587 13.1498ZM12.7432 13.8477L13.6457 13.7384L12.7432 13.8477ZM12.8721 14.5101L13.7483 14.2678L12.8721 14.5101ZM13.0454 15.137L12.1692 15.3793L13.0454 15.137ZM13.0949 15.8368L13.9999 15.9239L13.0949 15.8368ZM13.0206 16.6095L12.1157 16.5225L13.0206 16.6095ZM12.6656 17.234L12.1205 16.5064L12.6656 17.234ZM12.3477 17.4721L11.8026 16.7445L12.3477 17.4721ZM12.0298 17.7103L12.5748 18.4378L12.0298 17.7103ZM11.3736 17.9126L11.4693 17.0085L11.3736 17.9126ZM10.697 17.841L10.6014 18.745L10.697 17.841ZM9.65895 17.7372L9.6252 16.8288L9.27531 16.8418L9.30906 17.7502L9.34281 18.6587L9.6927 18.6457L9.65895 17.7372ZM9.30906 17.7502L9.27531 16.8418C9.2005 16.8445 9.13783 16.8303 9.07168 16.7956L8.64922 17.6006L8.22675 18.4055C8.57386 18.5877 8.95109 18.6732 9.34281 18.6587L9.30906 17.7502ZM8.64922 17.6006L9.07168 16.7956L8.76173 16.6329L8.33927 17.4379L7.9168 18.2429L8.22675 18.4055L8.64922 17.6006ZM8.33927 17.4379L8.76173 16.6329L8.45178 16.4703L8.02932 17.2752L7.60685 18.0802L7.9168 18.2429L8.33927 17.4379ZM8.02932 17.2752L8.45178 16.4703C8.18155 16.3284 7.89448 16.2184 7.59316 16.138L7.35891 17.0164L7.12466 17.8948C7.30395 17.9426 7.46382 18.0051 7.60685 18.0802L8.02932 17.2752ZM7.35891 17.0164L7.59316 16.138L7.23271 16.0419L6.99846 16.9203L6.76421 17.7987L7.12466 17.8948L7.35891 17.0164ZM6.99846 16.9203L7.23271 16.0419L6.87225 15.9458L6.638 16.8242L6.40375 17.7026L6.76421 17.7987L6.99846 16.9203ZM6.638 16.8242L6.87225 15.9458C6.78573 15.9227 6.71938 15.8841 6.65825 15.8229L6.01523 16.4656L5.3722 17.1082C5.66084 17.397 6.00967 17.5975 6.40375 17.7026L6.638 16.8242ZM6.01523 16.4656L6.65825 15.8229L6.39593 15.5605L5.75291 16.2031L5.10988 16.8457L5.3722 17.1082L6.01523 16.4656ZM5.75291 16.2031L6.39593 15.5605L6.13361 15.298L5.49058 15.9406L4.84756 16.5832L5.10988 16.8457L5.75291 16.2031ZM5.49058 15.9406L6.13361 15.298C6.13482 15.2992 6.1396 15.3043 6.14543 15.3135C6.15134 15.3228 6.15621 15.333 6.1596 15.3427C6.16293 15.3523 6.16363 15.358 6.16361 15.3578C6.16356 15.3574 6.16269 15.3497 6.16385 15.3332L5.257 15.2694L4.35014 15.2057C4.31468 15.71 4.46594 16.2014 4.84756 16.5832L5.49058 15.9406ZM5.257 15.2694L6.16385 15.3332L6.19258 14.9245L5.28573 14.8607L4.37888 14.797L4.35014 15.2057L5.257 15.2694ZM5.28573 14.8607L6.19258 14.9245L6.22132 14.5158L5.31446 14.4521L4.40761 14.3883L4.37888 14.797L5.28573 14.8607ZM5.31446 14.4521L6.22132 14.5158C6.24829 14.1322 6.20378 13.7422 6.04386 13.3775L5.21131 13.7426L4.37876 14.1077C4.39469 14.1441 4.41895 14.227 4.40761 14.3883L5.31446 14.4521ZM5.21131 13.7426L6.04386 13.3775L5.91197 13.0768L5.07942 13.4419L4.24687 13.807L4.37876 14.1077L5.21131 13.7426ZM5.07942 13.4419L5.91197 13.0768L5.78008 12.776L4.94753 13.1412L4.11498 13.5063L4.24687 13.807L5.07942 13.4419ZM4.94753 13.1412L5.78008 12.776C5.72613 12.653 5.68668 12.5173 5.66412 12.3655L4.76491 12.4992L3.8657 12.6329C3.91078 12.9361 3.99307 13.2283 4.11498 13.5063L4.94753 13.1412ZM4.76491 12.4992L5.66412 12.3655L5.61339 12.0243L4.71418 12.158L3.81497 12.2917L3.8657 12.6329L4.76491 12.4992ZM4.71418 12.158L5.61339 12.0243L5.56266 11.6831L4.66345 11.8168L3.76424 11.9504L3.81497 12.2917L4.71418 12.158ZM4.66345 11.8168L5.56266 11.6831C5.53862 11.5214 5.53149 11.3527 5.54277 11.1757L4.63552 11.1179L3.72827 11.0601C3.70915 11.36 3.72064 11.6572 3.76424 11.9504L4.66345 11.8168ZM4.63552 11.1179L5.54277 11.1757L5.56556 10.8181L4.65831 10.7602L3.75106 10.7024L3.72827 11.0601L4.63552 11.1179ZM4.65831 10.7602L5.56556 10.8181L5.58835 10.4604L4.6811 10.4026L3.77385 10.3448L3.75106 10.7024L4.65831 10.7602ZM4.6811 10.4026L5.58835 10.4604C5.59338 10.3815 5.61494 10.3198 5.65624 10.2586L4.90244 9.75042L4.14863 9.24226C3.92521 9.5737 3.79921 9.94679 3.77385 10.3448L4.6811 10.4026ZM4.90244 9.75042L5.65624 10.2586L5.85479 9.96406L5.10098 9.4559L4.34718 8.94774L4.14863 9.24226L4.90244 9.75042ZM5.10098 9.4559L5.85479 9.96406L6.05333 9.66954L5.29953 9.16138L4.54572 8.65322L4.34718 8.94774L5.10098 9.4559ZM5.29953 9.16138L6.05333 9.66954C6.15789 9.51445 6.27334 9.37047 6.39985 9.23705L5.74016 8.61154L5.08048 7.98603C4.8842 8.19304 4.7059 8.41562 4.54572 8.65322L5.29953 9.16138ZM5.74016 8.61154L6.39985 9.23705L6.64194 8.98173L5.98225 8.35622L5.32257 7.73071L5.08048 7.98603L5.74016 8.61154ZM5.98225 8.35622L6.64194 8.98173L6.88403 8.72641L6.22435 8.1009L5.56466 7.4754L5.32257 7.73071L5.98225 8.35622ZM6.22435 8.1009L6.88403 8.72641C7.09864 8.50008 7.28093 8.25047 7.42768 7.97804L6.62731 7.54693L5.82694 7.11581C5.75919 7.2416 5.67284 7.36131 5.56466 7.4754L6.22435 8.1009ZM6.62731 7.54693L7.42768 7.97804L7.58855 7.67937L6.78818 7.24826L5.98781 6.81715L5.82694 7.11581L6.62731 7.54693ZM6.78818 7.24826L7.58855 7.67937L7.74942 7.38071L6.94905 6.9496L6.14868 6.51849L5.98781 6.81715L6.78818 7.24826ZM6.94905 6.9496L7.74942 7.38071C7.85915 7.17699 7.96792 6.97084 8.07571 6.76229L7.2681 6.34488L6.4605 5.92748C6.35738 6.127 6.25344 6.324 6.14868 6.51849L6.94905 6.9496ZM7.2681 6.34488L8.07571 6.76229L8.23389 6.45623L7.42629 6.03883L6.61868 5.62143L6.4605 5.92748L7.2681 6.34488ZM7.42629 6.03883L8.23389 6.45623L8.39207 6.15017L7.58447 5.73277L6.77686 5.31537L6.61868 5.62143L7.42629 6.03883ZM7.58447 5.73277L8.39207 6.15017C8.41812 6.09976 8.45584 6.05481 8.52741 6.01063L8.04988 5.23706L7.57234 4.46349C7.23427 4.67219 6.96172 4.95771 6.77686 5.31537L7.58447 5.73277ZM8.04988 5.23706L8.52741 6.01063L8.83464 5.82097L8.3571 5.0474L7.87957 4.27384L7.57234 4.46349L8.04988 5.23706ZM8.3571 5.0474L8.83464 5.82097L9.14187 5.63131L8.66433 4.85775L8.18679 4.08418L7.87957 4.27384L8.3571 5.0474ZM8.66433 4.85775L9.14187 5.63131C9.55238 5.3779 9.82415 4.99707 9.94786 4.543L9.07074 4.30404L8.19362 4.06508C8.19013 4.07788 8.18714 4.08478 8.18597 4.08725C8.18487 4.08959 8.18495 4.08893 8.18667 4.08658C8.18843 4.0842 8.19033 4.08216 8.19163 4.08097C8.19286 4.07985 8.19177 4.08111 8.18679 4.08418L8.66433 4.85775ZM9.07074 4.30404L9.94786 4.543L10.047 4.17895L9.16992 3.93998L8.2928 3.70102L8.19362 4.06508L9.07074 4.30404ZM9.16992 3.93998L10.047 4.17895L10.1462 3.81489L9.2691 3.57593L8.39198 3.33697L8.2928 3.70102L9.16992 3.93998ZM9.2691 3.57593L10.1462 3.81489C10.1601 3.76403 10.1658 3.77125 10.1414 3.80568C10.1121 3.84689 10.0497 3.9115 9.94849 3.95406L9.596 3.11609L9.24351 2.27812C8.72142 2.49773 8.49201 2.96981 8.39198 3.33697L9.2691 3.57593ZM9.596 3.11609L9.94849 3.95406L10.1762 3.85828L9.82371 3.0203L9.47122 2.18233L9.24351 2.27812L9.596 3.11609ZM9.82371 3.0203L10.1762 3.85828L10.4039 3.76249L10.0514 2.92452L9.69894 2.08655L9.47122 2.18233L9.82371 3.0203ZM10.0514 2.92452L10.4039 3.76249C10.3337 3.79204 10.2857 3.79068 10.2836 3.79061C10.2825 3.79057 10.2902 3.79078 10.3082 3.79418C10.3261 3.79758 10.3518 3.80368 10.386 3.81434L10.6567 2.94648L10.9274 2.07863C10.5865 1.9723 10.1369 1.9023 9.69894 2.08655L10.0514 2.92452ZM10.6567 2.94648L10.386 3.81434L10.7635 3.93209L11.0342 3.06424L11.3049 2.19638L10.9274 2.07863L10.6567 2.94648ZM11.0342 3.06424L10.7635 3.93209L11.141 4.04984L11.4117 3.18199L11.6824 2.31414L11.3049 2.19638L11.0342 3.06424ZM11.4117 3.18199L11.141 4.04984C11.1291 4.04614 11.0688 4.02251 11.011 3.95323C10.9844 3.92145 10.9669 3.88991 10.9563 3.86417C10.9461 3.83937 10.9441 3.82452 10.9442 3.82508L11.8447 3.7004L12.7452 3.57572C12.708 3.30713 12.6076 3.02862 12.4064 2.78771C12.2042 2.54563 11.946 2.39635 11.6824 2.31414L11.4117 3.18199ZM11.8447 3.7004L10.9442 3.82508L10.9997 4.22574L11.9002 4.10106L12.8007 3.97638L12.7452 3.57572L11.8447 3.7004ZM11.9002 4.10106L10.9997 4.22574L11.0551 4.6264L11.9556 4.50172L12.8561 4.37704L12.8007 3.97638L11.9002 4.10106ZM11.9556 4.50172L11.0551 4.6264C11.1134 5.04744 11.2785 5.45265 11.5943 5.77898L12.2476 5.14681L12.9009 4.51463C12.8977 4.51128 12.8919 4.50472 12.8846 4.48844C12.8766 4.47081 12.8643 4.43622 12.8561 4.37704L11.9556 4.50172ZM12.2476 5.14681L11.5943 5.77898L11.8308 6.02341L12.4841 5.39123L13.1374 4.75906L12.9009 4.51463L12.2476 5.14681ZM12.4841 5.39123L11.8308 6.02341L12.0674 6.26783L12.7207 5.63566L13.374 5.00348L13.1374 4.75906L12.4841 5.39123ZM12.7207 5.63566L12.0674 6.26783C12.271 6.47823 12.4984 6.66754 12.7468 6.8369L13.2589 6.08578L13.771 5.33466C13.6171 5.22976 13.4857 5.11898 13.374 5.00348L12.7207 5.63566ZM13.2589 6.08578L12.7468 6.8369L13.0485 7.0426L13.5606 6.29148L14.0727 5.54036L13.771 5.33466L13.2589 6.08578ZM13.5606 6.29148L13.0485 7.0426L13.3502 7.24829L13.8623 6.49717L14.3744 5.74606L14.0727 5.54036L13.5606 6.29148ZM13.8623 6.49717L13.3502 7.24829C13.4488 7.31557 13.515 7.38833 13.5623 7.46721L14.3419 6.99957L15.1215 6.53194C14.9315 6.21521 14.678 5.95304 14.3744 5.74606L13.8623 6.49717ZM14.3419 6.99957L13.5623 7.46721L13.7403 7.76391L14.5199 7.29627L15.2995 6.82864L15.1215 6.53194L14.3419 6.99957ZM14.5199 7.29627L13.7403 7.76391L13.9183 8.06061L14.6979 7.59297L15.4775 7.12534L15.2995 6.82864L14.5199 7.29627ZM14.6979 7.59297L13.9183 8.06061C14.011 8.21522 14.0906 8.37686 14.1572 8.54604L15.0032 8.21309L15.8491 7.88014C15.7459 7.61809 15.622 7.36632 15.4775 7.12534L14.6979 7.59297ZM15.0032 8.21309L14.1572 8.54604L14.2845 8.86946L15.1305 8.53651L15.9764 8.20355L15.8491 7.88014L15.0032 8.21309ZM15.1305 8.53651L14.2845 8.86946L14.4118 9.19288L15.2578 8.85992L16.1037 8.52697L15.9764 8.20355L15.1305 8.53651ZM15.2578 8.85992L14.4118 9.19288C14.4889 9.38863 14.5585 9.58575 14.6208 9.78429L15.4882 9.51222L16.3556 9.24015C16.2804 9.00018 16.1964 8.76245 16.1037 8.52697L15.2578 8.85992ZM15.4882 9.51222L14.6208 9.78429L14.7239 10.1132L15.5914 9.8411L16.4588 9.56903L16.3556 9.24015L15.4882 9.51222ZM15.5914 9.8411L14.7239 10.1132L14.8271 10.442L15.6945 10.17L16.5619 9.89791L16.4588 9.56903L15.5914 9.8411ZM15.6945 10.17L14.8271 10.442C14.8566 10.5363 14.8658 10.6314 14.8531 10.7364L15.7556 10.8458L16.658 10.9553C16.7014 10.5976 16.6699 10.2422 16.5619 9.89791L15.6945 10.17ZM15.7556 10.8458L14.8531 10.7364L14.811 11.0833L15.7135 11.1928L16.616 11.3023L16.658 10.9553L15.7556 10.8458ZM15.7135 11.1928L14.811 11.0833L14.7689 11.4303L15.6714 11.5398L16.5739 11.6493L16.616 11.3023L15.7135 11.1928ZM15.6714 11.5398L14.7689 11.4303C14.7382 11.6838 14.718 11.9288 14.7092 12.1647L15.6177 12.1986L16.5261 12.2325C16.5328 12.0527 16.5485 11.8584 16.5739 11.6493L15.6714 11.5398ZM15.6177 12.1986L14.7092 12.1647L14.6976 12.4766L15.606 12.5105L16.5145 12.5444L16.5261 12.2325L15.6177 12.1986ZM15.606 12.5105L14.6976 12.4766L14.6859 12.7885L15.5944 12.8224L16.5028 12.8563L16.5145 12.5444L15.606 12.5105ZM15.5944 12.8224L14.6859 12.7885C14.6757 13.0635 14.6958 13.3485 14.7405 13.6403L15.6391 13.5028L16.5378 13.3654C16.5072 13.1658 16.4976 12.9972 16.5028 12.8563L15.5944 12.8224ZM15.6391 13.5028L14.7405 13.6403L14.7969 14.0088L15.6955 13.8714L16.5941 13.7339L16.5378 13.3654L15.6391 13.5028ZM15.6955 13.8714L14.7969 14.0088L14.8532 14.3773L15.7519 14.2399L16.6505 14.1024L16.5941 13.7339L15.6955 13.8714ZM15.7519 14.2399L14.8532 14.3773C14.8546 14.3863 14.8498 14.3626 14.8621 14.3214C14.8749 14.2785 14.8956 14.2514 14.9037 14.2428L15.5655 14.8661L16.2272 15.4894C16.5924 15.1018 16.7278 14.6076 16.6505 14.1024L15.7519 14.2399ZM15.5655 14.8661L14.9037 14.2428L14.661 14.5005L15.3227 15.1238L15.9845 15.7472L16.2272 15.4894L15.5655 14.8661ZM15.3227 15.1238L14.661 14.5005L14.4182 14.7582L15.08 15.3815L15.7417 16.0049L15.9845 15.7472L15.3227 15.1238ZM15.08 15.3815L14.4182 14.7582C14.309 14.8742 14.1942 14.9671 14.0739 15.0408L14.5491 15.8159L15.0242 16.5909C15.2882 16.4291 15.5273 16.2325 15.7417 16.0049L15.08 15.3815ZM14.5491 15.8159L14.0739 15.0408L13.7858 15.2175L14.261 15.9925L14.7361 16.7675L15.0242 16.5909L14.5491 15.8159ZM14.261 15.9925L13.7858 15.2175L13.4977 15.3941L13.9729 16.1692L14.448 16.9442L14.7361 16.7675L14.261 15.9925ZM13.9729 16.1692L13.4977 15.3941C13.3627 15.4769 13.2285 15.5389 13.0948 15.5829L13.379 16.4464L13.6631 17.31C13.9371 17.2198 14.1989 17.0969 14.448 16.9442L13.9729 16.1692ZM13.379 16.4464L13.0948 15.5829L12.789 15.6835L13.0732 16.5471L13.3574 17.4106L13.6631 17.31L13.379 16.4464ZM13.0732 16.5471L12.789 15.6835L12.4832 15.7842L12.7674 16.6477L13.0516 17.5112L13.3574 17.4106L13.0732 16.5471ZM12.7674 16.6477L12.4832 15.7842C12.2071 15.875 11.9447 15.9995 11.6967 16.1552L12.1802 16.9251L12.6637 17.6949C12.791 17.615 12.92 17.5545 13.0516 17.5112L12.7674 16.6477ZM12.1802 16.9251L11.6967 16.1552L11.4152 16.332L11.8988 17.1018L12.3823 17.8717L12.6637 17.6949L12.1802 16.9251ZM11.8988 17.1018L11.4152 16.332L11.1338 16.5088L11.6174 17.2786L12.1009 18.0484L12.3823 17.8717L11.8988 17.1018ZM11.6174 17.2786L11.1338 16.5088C10.9375 16.632 10.7525 16.753 10.5789 16.8715L11.0916 17.6222L11.6043 18.3729C11.7565 18.269 11.9219 18.1608 12.1009 18.0484L11.6174 17.2786ZM11.0916 17.6222L10.5789 16.8715L10.3346 17.0383L10.8473 17.789L11.36 18.5398L11.6043 18.3729L11.0916 17.6222ZM10.8473 17.789L10.3346 17.0383L10.0903 17.2052L10.603 17.9559L11.1157 18.7066L11.36 18.5398L10.8473 17.789ZM10.603 17.9559L10.0903 17.2052C10.0103 17.2598 10.0634 17.2089 10.1895 17.1759C10.2339 17.1642 10.5202 17.0882 10.8303 17.2682C11.2173 17.4927 11.2678 17.8757 11.2678 18.0199H10.3587H9.44964C9.44964 18.1983 9.51037 18.6043 9.91768 18.8407C10.2482 19.0325 10.565 18.957 10.6501 18.9347C10.8577 18.8804 11.0329 18.7632 11.1157 18.7066L10.603 17.9559ZM10.3587 18.0199H11.2678V17.917H10.3587H9.44964V18.0199H10.3587ZM10.3587 17.917H11.2678V17.8141H10.3587H9.44964V17.917H10.3587ZM10.3587 17.8141H11.2678C11.2678 17.497 11.1166 17.2385 10.9236 17.0755C10.7612 16.9383 10.5907 16.8836 10.4974 16.8597C10.3081 16.811 10.1135 16.8106 9.97509 16.8158L10.0088 17.7242L10.0426 18.6327C10.1375 18.6292 10.1178 18.6394 10.0451 18.6207C10.0102 18.6117 9.8834 18.5769 9.75015 18.4643C9.58633 18.3259 9.44964 18.0969 9.44964 17.8141H10.3587ZM10.0088 17.7242L9.97509 16.8158L9.6252 16.8288L9.65895 17.7372L9.6927 18.6457L10.0426 18.6327L10.0088 17.7242ZM9.81327 17.3295L10.3345 16.5847L10.0617 16.3939L9.54053 17.1387L9.01933 17.8835L9.29206 18.0744L9.81327 17.3295ZM9.54053 17.1387L10.0617 16.3939C9.88656 16.2713 9.72901 16.1574 9.58862 16.0522L9.04341 16.7797L8.49821 17.5071C8.657 17.6262 8.83086 17.7517 9.01933 17.8835L9.54053 17.1387ZM9.04341 16.7797L9.58862 16.0522L9.36423 15.8841L8.81903 16.6115L8.27383 17.339L8.49821 17.5071L9.04341 16.7797ZM8.81903 16.6115L9.36423 15.8841L9.13984 15.7159L8.59464 16.4433L8.04944 17.1708L8.27383 17.339L8.81903 16.6115ZM8.59464 16.4433L9.13984 15.7159C9.07176 15.6649 9.0005 15.594 8.92891 15.4941L8.19004 16.0238L7.45117 16.5534C7.61987 16.7887 7.81834 16.9976 8.04944 17.1708L8.59464 16.4433ZM8.19004 16.0238L8.92891 15.4941L8.7487 15.2427L8.00983 15.7724L7.27096 16.302L7.45117 16.5534L8.19004 16.0238ZM8.00983 15.7724L8.7487 15.2427L8.56849 14.9913L7.82962 15.521L7.09075 16.0506L7.27096 16.302L8.00983 15.7724ZM7.82962 15.521L8.56849 14.9913C8.54422 14.9575 8.51105 14.8939 8.49226 14.7729L7.59394 14.9125L6.69562 15.052C6.75078 15.4072 6.87473 15.7493 7.09075 16.0506L7.82962 15.521ZM7.59394 14.9125L8.49226 14.7729L8.43679 14.4158L7.53847 14.5554L6.64015 14.6949L6.69562 15.052L7.59394 14.9125ZM7.53847 14.5554L8.43679 14.4158L8.38132 14.0588L7.48301 14.1983L6.58469 14.3378L6.64015 14.6949L7.53847 14.5554ZM7.48301 14.1983L8.38132 14.0588C8.36745 13.9694 8.37492 13.8888 8.40518 13.8031L7.54804 13.5002L6.6909 13.1973C6.56049 13.5663 6.52461 13.951 6.58469 14.3378L7.48301 14.1983ZM7.54804 13.5002L8.40518 13.8031L8.52568 13.4622L7.66854 13.1593L6.8114 12.8563L6.6909 13.1973L7.54804 13.5002ZM7.66854 13.1593L8.52568 13.4622L8.64618 13.1212L7.78904 12.8183L6.9319 12.5154L6.8114 12.8563L7.66854 13.1593ZM7.78904 12.8183L8.64618 13.1212C8.68555 13.0098 8.74168 12.9183 8.81631 12.8385L8.15211 12.2177L7.4879 11.597C7.23911 11.8633 7.05319 12.1721 6.9319 12.5154L7.78904 12.8183ZM8.15211 12.2177L8.81631 12.8385L9.05888 12.5789L8.39467 11.9582L7.73047 11.3375L7.4879 11.597L8.15211 12.2177ZM8.39467 11.9582L9.05888 12.5789L9.30144 12.3193L8.63724 11.6986L7.97304 11.0779L7.73047 11.3375L8.39467 11.9582ZM8.63724 11.6986L9.30144 12.3193C9.40519 12.2083 9.52385 12.1118 9.66007 12.0294L9.18919 11.2517L8.71831 10.4741C8.44202 10.6414 8.19272 10.8428 7.97304 11.0779L8.63724 11.6986ZM9.18919 11.2517L9.66007 12.0294L9.96944 11.842L9.49856 11.0644L9.02768 10.2867L8.71831 10.4741L9.18919 11.2517ZM9.49856 11.0644L9.96944 11.842L10.2788 11.6547L9.80793 10.877L9.33705 10.0994L9.02768 10.2867L9.49856 11.0644ZM9.80793 10.877L10.2788 11.6547C10.3132 11.6339 10.3411 11.6186 10.3629 11.6076C10.3849 11.5966 10.3981 11.5912 10.4031 11.5894C10.4085 11.5873 10.4012 11.5905 10.3828 11.5943C10.3646 11.598 10.3289 11.6037 10.2795 11.6026L10.2996 10.6937L10.3196 9.78486C9.92456 9.77615 9.57099 9.95775 9.33705 10.0994L9.80793 10.877ZM10.2996 10.6937L10.2795 11.6026L10.4618 11.6066L10.4818 10.6978L10.5019 9.78888L10.3196 9.78486L10.2996 10.6937ZM10.4818 10.6978L10.4618 11.6066L10.644 11.6106L10.6641 10.7018L10.6841 9.7929L10.5019 9.78888L10.4818 10.6978ZM10.6641 10.7018L10.644 11.6106C10.5179 11.6079 10.4426 11.5681 10.4332 11.563C10.4222 11.5571 10.4415 11.566 10.492 11.6118L11.1028 10.9385L11.7136 10.2652C11.5078 10.0785 11.1503 9.80319 10.6841 9.7929L10.6641 10.7018ZM11.1028 10.9385L10.492 11.6118L10.7485 11.8445L11.3593 11.1712L11.9701 10.4979L11.7136 10.2652L11.1028 10.9385ZM11.3593 11.1712L10.7485 11.8445L11.005 12.0772L11.6158 11.4039L12.2266 10.7306L11.9701 10.4979L11.3593 11.1712ZM11.6158 11.4039L11.005 12.0772C11.1165 12.1784 11.2118 12.2912 11.2924 12.4172L12.0584 11.9277L12.8244 11.4381C12.6569 11.176 12.4571 10.9397 12.2266 10.7306L11.6158 11.4039ZM12.0584 11.9277L11.2924 12.4172L11.4784 12.7083L12.2444 12.2187L13.0104 11.7292L12.8244 11.4381L12.0584 11.9277ZM12.2444 12.2187L11.4784 12.7083L11.6644 12.9994L12.4304 12.5098L13.1964 12.0202L13.0104 11.7292L12.2444 12.2187ZM12.4304 12.5098L11.6644 12.9994C11.7137 13.0765 11.7442 13.1594 11.7562 13.2591L12.6587 13.1498L13.5612 13.0406C13.517 12.675 13.3952 12.3313 13.1964 12.0202L12.4304 12.5098ZM12.6587 13.1498L11.7562 13.2591L11.7985 13.608L12.701 13.4987L13.6035 13.3895L13.5612 13.0406L12.6587 13.1498ZM12.701 13.4987L11.7985 13.608L11.8407 13.9569L12.7432 13.8477L13.6457 13.7384L13.6035 13.3895L12.701 13.4987ZM12.7432 13.8477L11.8407 13.9569C11.8739 14.2309 11.9251 14.4964 11.9959 14.7523L12.8721 14.5101L13.7483 14.2678C13.7035 14.1058 13.6689 13.9297 13.6457 13.7384L12.7432 13.8477ZM12.8721 14.5101L11.9959 14.7523L12.0826 15.0658L12.9588 14.8235L13.835 14.5813L13.7483 14.2678L12.8721 14.5101ZM12.9588 14.8235L12.0826 15.0658L12.1692 15.3793L13.0454 15.137L13.9217 14.8948L13.835 14.5813L12.9588 14.8235ZM13.0454 15.137L12.1692 15.3793C12.1923 15.4626 12.2062 15.5819 12.19 15.7498L13.0949 15.8368L13.9999 15.9239C14.0333 15.5766 14.0142 15.2293 13.9217 14.8948L13.0454 15.137ZM13.0949 15.8368L12.19 15.7498L12.1529 16.1361L13.0578 16.2232L13.9627 16.3102L13.9999 15.9239L13.0949 15.8368ZM13.0578 16.2232L12.1529 16.1361L12.1157 16.5225L13.0206 16.6095L13.9255 16.6966L13.9627 16.3102L13.0578 16.2232ZM13.0206 16.6095L12.1157 16.5225C12.115 16.5296 12.1143 16.5303 12.1155 16.5264C12.1168 16.5223 12.1192 16.5162 12.123 16.5095C12.1267 16.5029 12.1301 16.4988 12.1313 16.4975C12.1323 16.4963 12.1296 16.4996 12.1205 16.5064L12.6656 17.234L13.2106 17.9616C13.6218 17.6535 13.8756 17.2155 13.9255 16.6966L13.0206 16.6095ZM12.6656 17.234L12.1205 16.5064L11.8026 16.7445L12.3477 17.4721L12.8927 18.1997L13.2106 17.9616L12.6656 17.234ZM12.3477 17.4721L11.8026 16.7445L11.4847 16.9827L12.0298 17.7103L12.5748 18.4378L12.8927 18.1997L12.3477 17.4721ZM12.0298 17.7103L11.4847 16.9827C11.4495 17.0091 11.4342 17.0126 11.4389 17.0112C11.4411 17.0105 11.4459 17.0093 11.4527 17.0086C11.4595 17.008 11.4653 17.0081 11.4693 17.0085L11.3736 17.9126L11.2779 18.8166C11.7694 18.8686 12.2121 18.7096 12.5748 18.4378L12.0298 17.7103ZM11.3736 17.9126L11.4693 17.0085L11.131 16.9727L11.0353 17.8768L10.9397 18.7808L11.2779 18.8166L11.3736 17.9126ZM11.0353 17.8768L11.131 16.9727L10.7927 16.937L10.697 17.841L10.6014 18.745L10.9397 18.7808L11.0353 17.8768ZM10.697 17.841L10.7927 16.937C10.6847 16.9255 10.6251 16.9172 10.6002 16.9128C10.5821 16.9097 10.6082 16.9131 10.6523 16.9269C10.6678 16.9318 10.7408 16.9544 10.8271 17.0055C10.8697 17.0307 10.9583 17.0875 11.0454 17.1874C11.1353 17.2906 11.2678 17.4935 11.2678 17.7817H10.3587H9.44964C9.44964 18.0719 9.58304 18.2768 9.67468 18.3819C9.76357 18.484 9.85485 18.5428 9.90093 18.5701C9.99431 18.6254 10.0778 18.6522 10.1074 18.6615C10.1797 18.6842 10.2481 18.697 10.2864 18.7037C10.3743 18.7191 10.4838 18.7326 10.6014 18.745L10.697 17.841ZM10.3587 17.7817H11.2678V17.7582H10.3587H9.44964V17.7817H10.3587ZM10.3587 17.7582H11.2678V17.7347H10.3587H9.44964V17.7582H10.3587ZM10.3587 17.7347H11.2678C11.2678 17.5308 11.1995 17.3818 11.1701 17.3233C11.1347 17.2526 11.0972 17.2009 11.0756 17.1727C11.0321 17.116 10.9903 17.075 10.9706 17.0561C10.927 17.0143 10.8825 16.9784 10.8523 16.9546C10.7866 16.903 10.7018 16.8418 10.6072 16.7755L10.086 17.5204L9.5648 18.2652C9.65198 18.3262 9.70361 18.3644 9.72882 18.3842C9.74403 18.3961 9.73361 18.3889 9.71274 18.3689C9.7044 18.3609 9.67114 18.329 9.63334 18.2798C9.61456 18.2553 9.57926 18.2068 9.54522 18.139C9.51723 18.0833 9.44964 17.9367 9.44964 17.7347H10.3587ZM10.086 17.5204L10.6072 16.7755L10.3345 16.5847L9.81327 17.3295L9.29206 18.0744L9.5648 18.2652L10.086 17.5204Z" fill="#EFEFEF"/>
<path d="M10.5962 18.292C8.63187 18.292 7.03369 16.7868 7.03369 14.9367C7.03369 12.3545 10.5962 8.79199 10.5962 8.79199C10.5962 8.79199 14.1587 12.3545 14.1587 14.9367C14.1587 16.7868 12.5606 18.292 10.5962 18.292Z" fill="#E2E2E2"/>
<path d="M10.5962 18.292C9.61404 18.292 8.81494 17.5394 8.81494 16.6143C8.81494 15.3232 10.5962 13.542 10.5962 13.542C10.5962 13.542 12.3774 15.3232 12.3774 16.6143C12.3774 17.5394 11.5784 18.292 10.5962 18.292Z" fill="#E2E2E2"/>
<path d="M10.1944 18.1536L10.0094 18.6909L10.1944 18.1536ZM9.99352 18.0845L9.80854 18.6217L9.99352 18.0845ZM9.61431 17.9236L9.35443 18.4289L9.61431 17.9236ZM9.436 17.8319L9.69588 17.3266L9.436 17.8319ZM9.2577 17.7402L8.99782 18.2454L9.2577 17.7402ZM8.84606 17.6256L8.90151 17.0601L8.84606 17.6256ZM8.37939 17.5798L8.43485 17.0144L8.37939 17.5798ZM8.01195 17.383L7.56202 17.73L8.01195 17.383ZM7.87784 17.2091L7.42791 17.5561L7.87784 17.2091ZM7.74372 17.0352L8.19365 16.6883L7.74372 17.0352ZM7.52661 16.6637L7.00275 16.8837L7.52661 16.6637ZM7.44361 16.466L7.96747 16.246L7.44361 16.466ZM7.36061 16.2684L6.83674 16.4884L7.36061 16.2684ZM7.2043 15.8687L7.73841 15.6749L7.2043 15.8687ZM7.07478 15.0597L6.5558 14.8284L7.07478 15.0597ZM7.25562 14.6539L7.7746 14.8852L7.25562 14.6539ZM7.37149 13.823L6.80378 13.8L7.37149 13.823ZM7.61854 12.559L7.24322 12.1324L7.61854 12.559ZM8.2841 11.9551L8.68593 12.3568L8.2841 11.9551ZM8.43612 11.803L8.0343 11.4013L8.43612 11.803ZM8.58814 11.651L8.18632 11.2492L8.58814 11.651ZM8.91206 11.1032L8.39093 10.8768L8.91206 11.1032ZM8.998 10.9054L9.51913 11.1318L8.998 10.9054ZM9.24957 10.5692L8.88537 10.1331L9.24957 10.5692ZM9.41519 10.4309L9.7794 10.867L9.41519 10.4309ZM9.79004 9.91054L10.3493 10.0106L9.79004 9.91054ZM9.87724 9.42302L10.4365 9.52306L9.87724 9.42302ZM10.1174 9.09327L9.88961 8.57273L10.1174 9.09327ZM10.5104 8.92129L10.2827 8.40076L10.5104 8.92129ZM10.9063 8.94459L10.6331 9.4428L10.9063 8.94459ZM11.3049 9.16318L11.5781 8.66497L11.3049 9.16318ZM11.5422 9.52049L10.9806 9.60637L11.5422 9.52049ZM11.5801 9.7685L12.1418 9.68262L11.5801 9.7685ZM11.6181 10.0165L11.0564 10.1024L11.6181 10.0165ZM11.9823 10.8111L12.4702 10.5199L11.9823 10.8111ZM12.2142 11.1629L12.674 10.8292L12.2142 11.1629ZM12.3372 11.3325L11.8773 11.6662L12.3372 11.3325ZM12.8013 11.787L13.067 11.2847L12.8013 11.787ZM13.0193 11.9023L13.285 11.4L13.0193 11.9023ZM13.2373 12.0176L12.9717 12.5199L13.2373 12.0176ZM13.4923 12.3557L14.0528 12.2625L13.4923 12.3557ZM13.7738 13.1914L14.1721 12.7862L13.7738 13.1914ZM14.1145 13.5263L13.7162 13.9315L14.1145 13.5263ZM14.2387 13.9279L13.6813 13.8182L14.2387 13.9279ZM14.1466 14.3961L13.5891 14.2864L14.1466 14.3961ZM14.1815 14.8547L14.716 14.6618L14.1815 14.8547ZM14.2626 15.0792L13.7282 15.2722L14.2626 15.0792ZM14.3436 15.3037L13.8092 15.4967L14.3436 15.3037ZM14.2655 15.7093L14.6922 16.0845L14.2655 15.7093ZM13.9471 16.0714L14.3739 16.4466L13.9471 16.0714ZM13.7351 16.4763L13.1821 16.3457L13.7351 16.4763ZM13.6822 16.7001L14.2352 16.8308L13.6822 16.7001ZM13.6293 16.9239L13.0764 16.7933L13.6293 16.9239ZM13.3391 17.2041L13.2077 16.6513L13.3391 17.2041ZM12.8644 17.3169L12.9958 17.8697L12.8644 17.3169ZM12.476 17.5194L12.8709 17.9279L12.476 17.5194ZM12.3249 17.6655L11.93 17.257L12.3249 17.6655ZM12.1739 17.8115L12.5688 18.22L12.1739 17.8115ZM11.8231 18.0267L11.6372 17.4898L11.8231 18.0267ZM11.4238 18.165L11.6097 18.7019L11.4238 18.165ZM11.0672 18.2498L11.1236 18.8152L11.0672 18.2498ZM10.7532 18.2812L10.6967 17.7158L10.7532 18.2812ZM10.3953 18.2228L10.5803 17.6856L10.3953 18.2228ZM10.1512 18.2646L10.1862 17.6975L10.1512 18.2646ZM9.92872 18.2509L9.89378 18.818L9.92872 18.2509ZM9.62929 18.0183L9.09325 18.2067L9.62929 18.0183ZM9.47544 17.5805L10.0115 17.3921L9.47544 17.5805ZM9.28679 17.2115L8.83096 17.5507L9.28679 17.2115ZM9.06332 16.9112L9.51915 16.572L9.06332 16.9112ZM9.01913 16.5798L8.48671 16.3814L9.01913 16.5798ZM9.08668 16.3985L9.6191 16.5969L9.08668 16.3985ZM9.15422 16.2172L9.68664 16.4156L9.15422 16.2172ZM9.21071 15.799L8.64315 15.8254L9.21071 15.799ZM9.19966 15.5619L8.63209 15.5884L9.19966 15.5619ZM9.1886 15.3249L9.75617 15.2984L9.1886 15.3249ZM9.31034 14.9159L8.86059 14.5687L9.31034 14.9159ZM9.44313 14.7439L9.89287 15.0911L9.44313 14.7439ZM9.57592 14.5719L10.0257 14.9191L9.57592 14.5719ZM9.89493 14.2777L9.58317 13.8026L9.89493 14.2777ZM10.2674 14.0332L10.5791 14.5082L10.2674 14.0332ZM10.6011 13.8802L10.4852 13.324L10.6011 13.8802ZM10.8962 13.8187L11.0122 14.3749L10.8962 13.8187ZM11.1022 14.0139L11.6523 13.8716L11.1022 14.0139ZM11.1606 14.2398L10.6105 14.3821L11.1606 14.2398ZM11.2191 14.4658L10.669 14.6081L11.2191 14.4658ZM11.4718 14.8178L11.781 14.3411L11.4718 14.8178ZM11.8604 15.0698L11.5513 15.5465L11.8604 15.0698ZM12.1684 15.3897L11.6782 15.677L12.1684 15.3897ZM12.2821 15.5836L11.7919 15.8709L12.2821 15.5836ZM12.3957 15.7775L12.8859 15.4901L12.3957 15.7775ZM12.5043 16.2051L13.0723 16.2174L12.5043 16.2051ZM12.4942 16.6727L11.9262 16.6604L12.4942 16.6727ZM12.371 17.0953L12.8528 17.3966L12.371 17.0953ZM12.2529 17.2842L11.7712 16.9829L12.2529 17.2842ZM12.1348 17.4731L11.6531 17.1718L12.1348 17.4731ZM11.8446 17.7889L11.5073 17.3317L11.8446 17.7889ZM11.6725 17.9159L11.3352 17.4587L11.6725 17.9159ZM11.5005 18.0428L11.8378 18.5L11.5005 18.0428ZM11.1454 18.1778L11.1207 17.6101L11.1454 18.1778ZM10.7793 18.1937L10.804 18.7614L10.7793 18.1937ZM10.3737 18.2783L10.3388 18.8454L10.3737 18.2783ZM10.1944 18.1536L10.3794 17.6164L10.1785 17.5472L9.99352 18.0845L9.80854 18.6217L10.0094 18.6909L10.1944 18.1536ZM9.99352 18.0845L10.1785 17.5472C10.0687 17.5095 9.9675 17.4663 9.87419 17.4183L9.61431 17.9236L9.35443 18.4289C9.49886 18.5031 9.65043 18.5673 9.80854 18.6217L9.99352 18.0845ZM9.61431 17.9236L9.87419 17.4183L9.69588 17.3266L9.436 17.8319L9.17613 18.3372L9.35443 18.4289L9.61431 17.9236ZM9.436 17.8319L9.69588 17.3266L9.51757 17.2349L9.2577 17.7402L8.99782 18.2454L9.17613 18.3372L9.436 17.8319ZM9.2577 17.7402L9.51757 17.2349C9.32515 17.1359 9.11651 17.0812 8.90151 17.0601L8.84606 17.6256L8.79061 18.1911C8.88671 18.2005 8.9525 18.2221 8.99782 18.2454L9.2577 17.7402ZM8.84606 17.6256L8.90151 17.0601L8.66818 17.0372L8.61273 17.6027L8.55727 18.1682L8.79061 18.1911L8.84606 17.6256ZM8.61273 17.6027L8.66818 17.0372L8.43485 17.0144L8.37939 17.5798L8.32394 18.1453L8.55727 18.1682L8.61273 17.6027ZM8.37939 17.5798L8.43485 17.0144C8.42815 17.0137 8.42608 17.0129 8.42758 17.0134C8.42922 17.0138 8.43342 17.0153 8.43911 17.0183C8.44486 17.0214 8.45029 17.0251 8.45487 17.0291C8.45939 17.0329 8.46161 17.0357 8.46188 17.0361L8.01195 17.383L7.56202 17.73C7.75416 17.9792 8.02418 18.1159 8.32394 18.1453L8.37939 17.5798ZM8.01195 17.383L8.46188 17.0361L8.32777 16.8622L7.87784 17.2091L7.42791 17.5561L7.56202 17.73L8.01195 17.383ZM7.87784 17.2091L8.32777 16.8622L8.19365 16.6883L7.74372 17.0352L7.2938 17.3822L7.42791 17.5561L7.87784 17.2091ZM7.74372 17.0352L8.19365 16.6883C8.13354 16.6103 8.0863 16.529 8.05047 16.4437L7.52661 16.6637L7.00275 16.8837C7.07759 17.0619 7.17509 17.2283 7.2938 17.3822L7.74372 17.0352ZM7.52661 16.6637L8.05047 16.4437L7.96747 16.246L7.44361 16.466L6.91975 16.686L7.00275 16.8837L7.52661 16.6637ZM7.44361 16.466L7.96747 16.246L7.88447 16.0484L7.36061 16.2684L6.83674 16.4884L6.91975 16.686L7.44361 16.466ZM7.36061 16.2684L7.88447 16.0484C7.83278 15.9253 7.78409 15.8008 7.73841 15.6749L7.2043 15.8687L6.67019 16.0625C6.72225 16.206 6.77777 16.3479 6.83674 16.4884L7.36061 16.2684ZM7.2043 15.8687L7.73841 15.6749L7.6651 15.4729L7.13099 15.6667L6.59688 15.8605L6.67019 16.0625L7.2043 15.8687ZM7.13099 15.6667L7.6651 15.4729L7.59179 15.2708L7.05768 15.4646L6.52357 15.6584L6.59688 15.8605L7.13099 15.6667ZM7.05768 15.4646L7.59179 15.2708C7.59121 15.2692 7.59175 15.2703 7.59229 15.2737C7.59285 15.2772 7.59317 15.2816 7.59297 15.2863C7.59278 15.291 7.59214 15.2944 7.59178 15.2958C7.59144 15.2972 7.59168 15.2956 7.59377 15.291L7.07478 15.0597L6.5558 14.8284C6.43787 15.0931 6.42267 15.3804 6.52357 15.6584L7.05768 15.4646ZM7.07478 15.0597L7.59377 15.291L7.68418 15.0881L7.1652 14.8568L6.64622 14.6255L6.5558 14.8284L7.07478 15.0597ZM7.1652 14.8568L7.68418 15.0881L7.7746 14.8852L7.25562 14.6539L6.73664 14.4226L6.64622 14.6255L7.1652 14.8568ZM7.25562 14.6539L7.7746 14.8852C7.86237 14.6882 7.91349 14.4804 7.92224 14.2647L7.35452 14.2417L6.78681 14.2187C6.78424 14.2821 6.76942 14.349 6.73664 14.4226L7.25562 14.6539ZM7.35452 14.2417L7.92224 14.2647L7.93072 14.0554L7.36301 14.0323L6.79529 14.0093L6.78681 14.2187L7.35452 14.2417ZM7.36301 14.0323L7.93072 14.0554L7.93921 13.846L7.37149 13.823L6.80378 13.8L6.79529 14.0093L7.36301 14.0323ZM7.37149 13.823L7.93921 13.846C7.94459 13.7134 7.95264 13.5747 7.96343 13.4299L7.39682 13.3877L6.83021 13.3454C6.81854 13.502 6.80971 13.6535 6.80378 13.8L7.37149 13.823ZM7.39682 13.3877L7.96343 13.4299L7.98028 13.2039L7.41367 13.1616L6.84706 13.1194L6.83021 13.3454L7.39682 13.3877ZM7.41367 13.1616L7.98028 13.2039L7.99713 12.9779L7.43051 12.9356L6.8639 12.8934L6.84706 13.1194L7.41367 13.1616ZM7.43051 12.9356L7.99713 12.9779C7.99745 12.9735 7.99789 12.9726 7.99746 12.9742C7.99701 12.9759 7.99602 12.9788 7.9943 12.9822C7.99258 12.9857 7.99092 12.9881 7.99008 12.9891C7.9893 12.9901 7.99014 12.9888 7.99386 12.9856L7.61854 12.559L7.24322 12.1324C7.01828 12.3303 6.88625 12.5935 6.8639 12.8934L7.43051 12.9356ZM7.61854 12.559L7.99386 12.9856L8.16504 12.8349L7.78972 12.4084L7.4144 11.9818L7.24322 12.1324L7.61854 12.559ZM7.78972 12.4084L8.16504 12.8349L8.33623 12.6843L7.9609 12.2578L7.58558 11.8312L7.4144 11.9818L7.78972 12.4084ZM7.9609 12.2578L8.33623 12.6843C8.4589 12.5764 8.57552 12.4672 8.68593 12.3568L8.2841 11.9551L7.88228 11.5534C7.79 11.6457 7.69115 11.7383 7.58558 11.8312L7.9609 12.2578ZM8.2841 11.9551L8.68593 12.3568L8.83795 12.2047L8.43612 11.803L8.0343 11.4013L7.88228 11.5534L8.2841 11.9551ZM8.43612 11.803L8.83795 12.2047L8.98996 12.0527L8.58814 11.651L8.18632 11.2492L8.0343 11.4013L8.43612 11.803ZM8.58814 11.651L8.98996 12.0527C9.14189 11.9007 9.26161 11.7245 9.34723 11.5275L8.82611 11.3011L8.30498 11.0747C8.276 11.1414 8.23708 11.1985 8.18632 11.2492L8.58814 11.651ZM8.82611 11.3011L9.34723 11.5275L9.43318 11.3296L8.91206 11.1032L8.39093 10.8768L8.30498 11.0747L8.82611 11.3011ZM8.91206 11.1032L9.43318 11.3296L9.51913 11.1318L8.998 10.9054L8.47688 10.679L8.39093 10.8768L8.91206 11.1032ZM8.998 10.9054L9.51913 11.1318C9.54115 11.0811 9.57126 11.0409 9.61378 11.0053L9.24957 10.5692L8.88537 10.1331C8.70706 10.2821 8.56945 10.4659 8.47688 10.679L8.998 10.9054ZM9.24957 10.5692L9.61378 11.0053L9.7794 10.867L9.41519 10.4309L9.05099 9.99482L8.88537 10.1331L9.24957 10.5692ZM9.41519 10.4309L9.7794 10.867L9.94502 10.7287L9.58082 10.2926L9.21661 9.85651L9.05099 9.99482L9.41519 10.4309ZM9.58082 10.2926L9.94502 10.7287C10.1729 10.5384 10.3004 10.284 10.3493 10.0106L9.79004 9.91054L9.23073 9.81049C9.22557 9.83938 9.21917 9.85212 9.21758 9.85504C9.2165 9.85701 9.21677 9.85638 9.21661 9.85651L9.58082 10.2926ZM9.79004 9.91054L10.3493 10.0106L10.3929 9.76682L9.83364 9.66678L9.27434 9.56673L9.23073 9.81049L9.79004 9.91054ZM9.83364 9.66678L10.3929 9.76682L10.4365 9.52306L9.87724 9.42302L9.31794 9.32297L9.27434 9.56673L9.83364 9.66678ZM9.87724 9.42302L10.4365 9.52306C10.4391 9.50867 10.4387 9.52526 10.4184 9.55317C10.4084 9.56687 10.3959 9.58007 10.3815 9.59144C10.3673 9.60271 10.3544 9.60976 10.3451 9.6138L10.1174 9.09327L9.88961 8.57273C9.55579 8.7188 9.37441 9.00725 9.31794 9.32297L9.87724 9.42302ZM10.1174 9.09327L10.3451 9.6138L10.5417 9.52781L10.3139 9.00728L10.0861 8.48675L9.88961 8.57273L10.1174 9.09327ZM10.3139 9.00728L10.5417 9.52781L10.7382 9.44182L10.5104 8.92129L10.2827 8.40076L10.0861 8.48675L10.3139 9.00728ZM10.5104 8.92129L10.7382 9.44182C10.7284 9.4461 10.705 9.45313 10.6742 9.45132C10.6447 9.44958 10.6297 9.44092 10.6331 9.4428L10.9063 8.94459L11.1794 8.44638C10.9028 8.2947 10.5859 8.26805 10.2827 8.40076L10.5104 8.92129ZM10.9063 8.94459L10.6331 9.4428L10.8324 9.5521L11.1056 9.05389L11.3788 8.55568L11.1794 8.44638L10.9063 8.94459ZM11.1056 9.05389L10.8324 9.5521L11.0318 9.66139L11.3049 9.16318L11.5781 8.66497L11.3788 8.55568L11.1056 9.05389ZM11.3049 9.16318L11.0318 9.66139C11.0284 9.65952 11.0215 9.65521 11.0131 9.64765C11.0047 9.63999 10.9969 9.63098 10.9906 9.62146C10.9773 9.60146 10.9783 9.59158 10.9806 9.60637L11.5422 9.52049L12.1039 9.43461C12.055 9.11523 11.8837 8.83252 11.5781 8.66497L11.3049 9.16318ZM11.5422 9.52049L10.9806 9.60637L11.0185 9.85438L11.5801 9.7685L12.1418 9.68262L12.1039 9.43461L11.5422 9.52049ZM11.5801 9.7685L11.0185 9.85438L11.0564 10.1024L11.6181 10.0165L12.1797 9.93063L12.1418 9.68262L11.5801 9.7685ZM11.6181 10.0165L11.0564 10.1024C11.0908 10.3273 11.1605 10.5431 11.2769 10.738L11.7648 10.4467L12.2526 10.1555C12.2239 10.1074 12.1959 10.0364 12.1797 9.93063L11.6181 10.0165ZM11.7648 10.4467L11.2769 10.738L11.3857 10.9202L11.8735 10.6289L12.3614 10.3377L12.2526 10.1555L11.7648 10.4467ZM11.8735 10.6289L11.3857 10.9202L11.4945 11.1024L11.9823 10.8111L12.4702 10.5199L12.3614 10.3377L11.8735 10.6289ZM11.9823 10.8111L11.4945 11.1024C11.5756 11.2382 11.6622 11.3697 11.7543 11.4966L12.2142 11.1629L12.674 10.8292C12.6021 10.7301 12.5341 10.627 12.4702 10.5199L11.9823 10.8111ZM12.2142 11.1629L11.7543 11.4966L11.8773 11.6662L12.3372 11.3325L12.7971 10.9988L12.674 10.8292L12.2142 11.1629ZM12.3372 11.3325L11.8773 11.6662L12.0004 11.8358L12.4602 11.5021L12.9201 11.1684L12.7971 10.9988L12.3372 11.3325ZM12.4602 11.5021L12.0004 11.8358C12.1417 12.0305 12.327 12.1789 12.5356 12.2892L12.8013 11.787L13.067 11.2847C12.9849 11.2413 12.9429 11.1997 12.9201 11.1684L12.4602 11.5021ZM12.8013 11.787L12.5356 12.2892L12.7536 12.4045L13.0193 11.9023L13.285 11.4L13.067 11.2847L12.8013 11.787ZM13.0193 11.9023L12.7536 12.4045L12.9717 12.5199L13.2373 12.0176L13.503 11.5154L13.285 11.4L13.0193 11.9023ZM13.2373 12.0176L12.9717 12.5199C12.9828 12.5257 12.9718 12.5222 12.9565 12.502C12.9492 12.4924 12.9432 12.4817 12.9387 12.471C12.9342 12.4605 12.9325 12.4525 12.9319 12.4488L13.4923 12.3557L14.0528 12.2625C13.9961 11.9213 13.7884 11.6663 13.503 11.5154L13.2373 12.0176ZM13.4923 12.3557L12.9319 12.4488L12.9689 12.6716L13.5294 12.5784L14.0899 12.4853L14.0528 12.2625L13.4923 12.3557ZM13.5294 12.5784L12.9689 12.6716L13.0059 12.8943L13.5664 12.8012L14.1269 12.708L14.0899 12.4853L13.5294 12.5784ZM13.5664 12.8012L13.0059 12.8943C13.0515 13.1685 13.1815 13.4059 13.3754 13.5966L13.7738 13.1914L14.1721 12.7862C14.1389 12.7536 14.1307 12.7309 14.1269 12.708L13.5664 12.8012ZM13.7738 13.1914L13.3754 13.5966L13.5458 13.7641L13.9441 13.3589L14.3424 12.9537L14.1721 12.7862L13.7738 13.1914ZM13.9441 13.3589L13.5458 13.7641L13.7162 13.9315L14.1145 13.5263L14.5128 13.1211L14.3424 12.9537L13.9441 13.3589ZM14.1145 13.5263L13.7162 13.9315C13.7163 13.9317 13.7118 13.9272 13.7057 13.9175C13.6994 13.9076 13.6928 13.8943 13.6879 13.8784C13.683 13.8625 13.6809 13.8479 13.6805 13.836C13.68 13.8244 13.6813 13.8181 13.6813 13.8182L14.2387 13.9279L14.7962 14.0376C14.8639 13.6938 14.7624 13.3665 14.5128 13.1211L14.1145 13.5263ZM14.2387 13.9279L13.6813 13.8182L13.6352 14.0523L14.1927 14.162L14.7501 14.2717L14.7962 14.0376L14.2387 13.9279ZM14.1927 14.162L13.6352 14.0523L13.5891 14.2864L14.1466 14.3961L14.7041 14.5059L14.7501 14.2717L14.1927 14.162ZM14.1466 14.3961L13.5891 14.2864C13.5385 14.5436 13.5581 14.8011 13.6471 15.0477L14.1815 14.8547L14.716 14.6618C14.6969 14.609 14.6933 14.5608 14.7041 14.5059L14.1466 14.3961ZM14.1815 14.8547L13.6471 15.0477L13.7282 15.2722L14.2626 15.0792L14.797 14.8863L14.716 14.6618L14.1815 14.8547ZM14.2626 15.0792L13.7282 15.2722L13.8092 15.4967L14.3436 15.3037L14.8781 15.1108L14.797 14.8863L14.2626 15.0792ZM14.3436 15.3037L13.8092 15.4967C13.807 15.4905 13.7975 15.4575 13.8067 15.4099C13.8158 15.3626 13.8364 15.3369 13.8388 15.3342L14.2655 15.7093L14.6922 16.0845C14.8008 15.961 14.8874 15.8073 14.9225 15.6249C14.9578 15.4421 14.9343 15.2666 14.8781 15.1108L14.3436 15.3037ZM14.2655 15.7093L13.8388 15.3342L13.6796 15.5152L14.1063 15.8904L14.533 16.2655L14.6922 16.0845L14.2655 15.7093ZM14.1063 15.8904L13.6796 15.5152L13.5204 15.6963L13.9471 16.0714L14.3739 16.4466L14.533 16.2655L14.1063 15.8904ZM13.9471 16.0714L13.5204 15.6963C13.3559 15.8834 13.2398 16.1014 13.1821 16.3457L13.7351 16.4763L14.288 16.607C14.3008 16.5528 14.3261 16.5009 14.3739 16.4466L13.9471 16.0714ZM13.7351 16.4763L13.1821 16.3457L13.1292 16.5695L13.6822 16.7001L14.2352 16.8308L14.288 16.607L13.7351 16.4763ZM13.6822 16.7001L13.1292 16.5695L13.0764 16.7933L13.6293 16.9239L14.1823 17.0546L14.2352 16.8308L13.6822 16.7001ZM13.6293 16.9239L13.0764 16.7933C13.0802 16.7771 13.0952 16.7362 13.1357 16.6971C13.1745 16.6596 13.2085 16.6511 13.2077 16.6513L13.3391 17.2041L13.4705 17.7569C13.6279 17.7195 13.7894 17.6455 13.925 17.5146C14.0622 17.3821 14.1432 17.2199 14.1823 17.0546L13.6293 16.9239ZM13.3391 17.2041L13.2077 16.6513L12.9704 16.7077L13.1018 17.2605L13.2331 17.8133L13.4705 17.7569L13.3391 17.2041ZM13.1018 17.2605L12.9704 16.7077L12.733 16.7642L12.8644 17.3169L12.9958 17.8697L13.2331 17.8133L13.1018 17.2605ZM12.8644 17.3169L12.733 16.7642C12.4918 16.8215 12.2662 16.9319 12.0811 17.1109L12.476 17.5194L12.8709 17.9279C12.8873 17.9121 12.9206 17.8876 12.9958 17.8697L12.8644 17.3169ZM12.476 17.5194L12.0811 17.1109L11.93 17.257L12.3249 17.6655L12.7199 18.074L12.8709 17.9279L12.476 17.5194ZM12.3249 17.6655L11.93 17.257L11.7789 17.403L12.1739 17.8115L12.5688 18.22L12.7199 18.074L12.3249 17.6655ZM12.1739 17.8115L11.7789 17.403C11.738 17.4426 11.6926 17.4707 11.6372 17.4898L11.8231 18.0267L12.0091 18.5636C12.2199 18.4906 12.4083 18.3752 12.5688 18.22L12.1739 17.8115ZM11.8231 18.0267L11.6372 17.4898L11.4376 17.559L11.6235 18.0959L11.8094 18.6328L12.0091 18.5636L11.8231 18.0267ZM11.6235 18.0959L11.4376 17.559L11.2379 17.6281L11.4238 18.165L11.6097 18.7019L11.8094 18.6328L11.6235 18.0959ZM11.4238 18.165L11.2379 17.6281C11.1335 17.6642 11.0593 17.6796 11.0107 17.6844L11.0672 18.2498L11.1236 18.8152C11.2844 18.7991 11.4479 18.7579 11.6097 18.7019L11.4238 18.165ZM11.0672 18.2498L11.0107 17.6844L10.8537 17.7001L10.9102 18.2655L10.9666 18.8309L11.1236 18.8152L11.0672 18.2498ZM10.9102 18.2655L10.8537 17.7001L10.6967 17.7158L10.7532 18.2812L10.8097 18.8465L10.9666 18.8309L10.9102 18.2655ZM10.7532 18.2812L10.6967 17.7158C10.6447 17.721 10.6073 17.7246 10.5833 17.7268C10.5709 17.728 10.5646 17.7285 10.5626 17.7287C10.5606 17.7288 10.5652 17.7284 10.5727 17.7281C10.5744 17.728 10.5881 17.7273 10.6059 17.7276C10.6111 17.7277 10.6393 17.728 10.6749 17.733C10.6873 17.7347 10.7391 17.7417 10.8012 17.7657C10.8304 17.777 10.9003 17.8063 10.9718 17.8693C11.0495 17.9377 11.1644 18.081 11.1644 18.2956H10.5962H10.028C10.028 18.5103 10.143 18.6536 10.2206 18.722C10.2922 18.785 10.3621 18.8143 10.3913 18.8256C10.4534 18.8496 10.5054 18.8567 10.5178 18.8584C10.5537 18.8634 10.5822 18.8637 10.5878 18.8638C10.6064 18.8641 10.6213 18.8634 10.6247 18.8633C10.6354 18.8628 10.6449 18.862 10.6495 18.8617C10.6605 18.8609 10.6739 18.8597 10.6876 18.8584C10.716 18.8558 10.757 18.8518 10.8097 18.8465L10.7532 18.2812ZM10.5962 18.2956H11.1644V18.2944H10.5962H10.028V18.2956H10.5962ZM10.5962 18.2944H11.1644V18.2932H10.5962H10.028V18.2944H10.5962ZM10.5962 18.2932H11.1644C11.1644 18.0699 11.0361 17.9326 11.0185 17.913C10.9801 17.8704 10.9439 17.8434 10.9295 17.833C10.8975 17.8099 10.8702 17.7953 10.8626 17.7913C10.8424 17.7806 10.8259 17.7734 10.822 17.7717C10.8104 17.7667 10.8008 17.763 10.7979 17.7619C10.79 17.7588 10.7823 17.756 10.7773 17.7542C10.7659 17.7501 10.751 17.7448 10.7339 17.7388C10.6989 17.7265 10.6475 17.7087 10.5803 17.6856L10.3953 18.2228L10.2103 18.76C10.2771 18.783 10.3261 18.8 10.3581 18.8112C10.3744 18.8169 10.3847 18.8206 10.3901 18.8225C10.3934 18.8237 10.3919 18.8232 10.3882 18.8218C10.3875 18.8215 10.3794 18.8184 10.3689 18.8138C10.3655 18.8124 10.3493 18.8054 10.3294 18.7948C10.322 18.7909 10.2947 18.7764 10.2628 18.7533C10.2485 18.7429 10.2123 18.716 10.1739 18.6733C10.1543 18.6515 10.1229 18.6134 10.0944 18.5597C10.0665 18.5072 10.028 18.4147 10.028 18.2932H10.5962ZM10.3953 18.2228L10.5803 17.6856L10.3794 17.6164L10.1944 18.1536L10.0094 18.6909L10.2103 18.76L10.3953 18.2228ZM10.1512 18.2646L10.1862 17.6975L9.96365 17.6838L9.92872 18.2509L9.89378 18.818L10.1163 18.8317L10.1512 18.2646ZM9.92872 18.2509L9.96365 17.6838C9.983 17.685 10.0358 17.6942 10.0912 17.7372C10.145 17.779 10.1629 17.823 10.1653 17.8299L9.62929 18.0183L9.09325 18.2067C9.14694 18.3595 9.24042 18.5152 9.39406 18.6346C9.54921 18.7551 9.7261 18.8077 9.89378 18.818L9.92872 18.2509ZM9.62929 18.0183L10.1653 17.8299L10.0884 17.611L9.55237 17.7994L9.01633 17.9878L9.09325 18.2067L9.62929 18.0183ZM9.55237 17.7994L10.0884 17.611L10.0115 17.3921L9.47544 17.5805L8.9394 17.7689L9.01633 17.9878L9.55237 17.7994ZM9.47544 17.5805L10.0115 17.3921C9.94557 17.2046 9.85833 17.0278 9.74261 16.8723L9.28679 17.2115L8.83096 17.5507C8.86422 17.5954 8.90275 17.6646 8.9394 17.7689L9.47544 17.5805ZM9.28679 17.2115L9.74261 16.8723L9.63088 16.7222L9.17506 17.0614L8.71923 17.4005L8.83096 17.5507L9.28679 17.2115ZM9.17506 17.0614L9.63088 16.7222L9.51915 16.572L9.06332 16.9112L8.6075 17.2504L8.71923 17.4005L9.17506 17.0614ZM9.06332 16.9112L9.51915 16.572C9.53254 16.59 9.55274 16.6267 9.55961 16.6782C9.56636 16.7288 9.55642 16.7651 9.55156 16.7782L9.01913 16.5798L8.48671 16.3814C8.37712 16.6755 8.41338 16.9895 8.6075 17.2504L9.06332 16.9112ZM9.01913 16.5798L9.55156 16.7782L9.6191 16.5969L9.08668 16.3985L8.55426 16.2001L8.48671 16.3814L9.01913 16.5798ZM9.08668 16.3985L9.6191 16.5969L9.68664 16.4156L9.15422 16.2172L8.6218 16.0189L8.55426 16.2001L9.08668 16.3985ZM9.15422 16.2172L9.68664 16.4156C9.76376 16.2087 9.78843 15.9902 9.77828 15.7725L9.21071 15.799L8.64315 15.8254C8.64773 15.9238 8.63474 15.9841 8.6218 16.0189L9.15422 16.2172ZM9.21071 15.799L9.77828 15.7725L9.76722 15.5355L9.19966 15.5619L8.63209 15.5884L8.64315 15.8254L9.21071 15.799ZM9.19966 15.5619L9.76722 15.5355L9.75617 15.2984L9.1886 15.3249L8.62104 15.3514L8.63209 15.5884L9.19966 15.5619ZM9.1886 15.3249L9.75617 15.2984C9.75512 15.276 9.7579 15.2668 9.75808 15.2662C9.7582 15.2658 9.75826 15.2657 9.75825 15.2657C9.75824 15.2657 9.75823 15.2658 9.75822 15.2658C9.75821 15.2658 9.7582 15.2658 9.7582 15.2658C9.7582 15.2658 9.75822 15.2658 9.75827 15.2657C9.75831 15.2656 9.7584 15.2655 9.75852 15.2653C9.75877 15.2649 9.75926 15.2642 9.76009 15.2631L9.31034 14.9159L8.86059 14.5687C8.68194 14.8001 8.60801 15.0721 8.62104 15.3514L9.1886 15.3249ZM9.31034 14.9159L9.76009 15.2631L9.89287 15.0911L9.44313 14.7439L8.99338 14.3967L8.86059 14.5687L9.31034 14.9159ZM9.44313 14.7439L9.89287 15.0911L10.0257 14.9191L9.57592 14.5719L9.12617 14.2247L8.99338 14.3967L9.44313 14.7439ZM9.57592 14.5719L10.0257 14.9191C10.0746 14.8557 10.134 14.8004 10.2067 14.7527L9.89493 14.2777L9.58317 13.8026C9.40759 13.9179 9.25424 14.0588 9.12617 14.2247L9.57592 14.5719ZM9.89493 14.2777L10.2067 14.7527L10.3929 14.6304L10.0812 14.1554L9.7694 13.6804L9.58317 13.8026L9.89493 14.2777ZM10.0812 14.1554L10.3929 14.6304L10.5791 14.5082L10.2674 14.0332L9.95563 13.5582L9.7694 13.6804L10.0812 14.1554ZM10.2674 14.0332L10.5791 14.5082C10.6221 14.48 10.6559 14.4617 10.6807 14.4504C10.7057 14.4389 10.7174 14.4364 10.7171 14.4364L10.6011 13.8802L10.4852 13.324C10.2921 13.3643 10.1135 13.4546 9.95563 13.5582L10.2674 14.0332ZM10.6011 13.8802L10.7171 14.4364L10.8646 14.4057L10.7487 13.8495L10.6327 13.2932L10.4852 13.324L10.6011 13.8802ZM10.7487 13.8495L10.8646 14.4057L11.0122 14.3749L10.8962 13.8187L10.7802 13.2625L10.6327 13.2932L10.7487 13.8495ZM10.8962 13.8187L11.0122 14.3749C10.964 14.385 10.8957 14.3891 10.8179 14.3684C10.7388 14.3472 10.6756 14.3072 10.6306 14.2645C10.5525 14.1905 10.5438 14.1243 10.5521 14.1562L11.1022 14.0139L11.6523 13.8716C11.6215 13.7529 11.5591 13.5788 11.4123 13.4397C11.2332 13.27 10.9983 13.217 10.7802 13.2625L10.8962 13.8187ZM11.1022 14.0139L10.5521 14.1562L10.6105 14.3821L11.1606 14.2398L11.7107 14.0976L11.6523 13.8716L11.1022 14.0139ZM11.1606 14.2398L10.6105 14.3821L10.669 14.6081L11.2191 14.4658L11.7691 14.3235L11.7107 14.0976L11.1606 14.2398ZM11.2191 14.4658L10.669 14.6081C10.7433 14.8952 10.9128 15.1324 11.1627 15.2945L11.4718 14.8178L11.781 14.3411C11.7758 14.3377 11.7733 14.3355 11.7727 14.3349C11.7721 14.3343 11.7724 14.3345 11.773 14.3353C11.7736 14.3361 11.7735 14.3363 11.773 14.3351C11.7724 14.3339 11.7709 14.3303 11.7691 14.3235L11.2191 14.4658ZM11.4718 14.8178L11.1627 15.2945L11.357 15.4205L11.6661 14.9438L11.9753 14.4671L11.781 14.3411L11.4718 14.8178ZM11.6661 14.9438L11.357 15.4205L11.5513 15.5465L11.8604 15.0698L12.1696 14.5931L11.9753 14.4671L11.6661 14.9438ZM11.8604 15.0698L11.5513 15.5465C11.6089 15.5839 11.6486 15.6265 11.6782 15.677L12.1684 15.3897L12.6586 15.1024C12.5367 14.8944 12.3711 14.7238 12.1696 14.5931L11.8604 15.0698ZM12.1684 15.3897L11.6782 15.677L11.7919 15.8709L12.2821 15.5836L12.7722 15.2963L12.6586 15.1024L12.1684 15.3897ZM12.2821 15.5836L11.7919 15.8709L11.9055 16.0648L12.3957 15.7775L12.8859 15.4901L12.7722 15.2963L12.2821 15.5836ZM12.3957 15.7775L11.9055 16.0648C11.9259 16.0995 11.9374 16.1377 11.9363 16.1929L12.5043 16.2051L13.0723 16.2174C13.0779 15.9609 13.017 15.7139 12.8859 15.4901L12.3957 15.7775ZM12.5043 16.2051L11.9363 16.1929L11.9312 16.4266L12.4993 16.4389L13.0673 16.4512L13.0723 16.2174L12.5043 16.2051ZM12.4993 16.4389L11.9312 16.4266L11.9262 16.6604L12.4942 16.6727L13.0623 16.6849L13.0673 16.4512L12.4993 16.4389ZM12.4942 16.6727L11.9262 16.6604C11.9249 16.7192 11.911 16.7593 11.8893 16.794L12.371 17.0953L12.8528 17.3966C12.9886 17.1795 13.0568 16.9378 13.0623 16.6849L12.4942 16.6727ZM12.371 17.0953L11.8893 16.794L11.7712 16.9829L12.2529 17.2842L12.7347 17.5855L12.8528 17.3966L12.371 17.0953ZM12.2529 17.2842L11.7712 16.9829L11.6531 17.1718L12.1348 17.4731L12.6165 17.7743L12.7347 17.5855L12.2529 17.2842ZM12.1348 17.4731L11.6531 17.1718C11.6106 17.2397 11.5621 17.2912 11.5073 17.3317L11.8446 17.7889L12.182 18.2461C12.3566 18.1172 12.5015 17.9583 12.6165 17.7743L12.1348 17.4731ZM11.8446 17.7889L11.5073 17.3317L11.3352 17.4587L11.6725 17.9159L12.0099 18.373L12.182 18.2461L11.8446 17.7889ZM11.6725 17.9159L11.3352 17.4587L11.1631 17.5857L11.5005 18.0428L11.8378 18.5L12.0099 18.373L11.6725 17.9159ZM11.5005 18.0428L11.1631 17.5857C11.1422 17.6011 11.1291 17.6069 11.1238 17.6089C11.1193 17.6107 11.1189 17.6102 11.1207 17.6101L11.1454 18.1778L11.1701 18.7454C11.4229 18.7344 11.6478 18.6403 11.8378 18.5L11.5005 18.0428ZM11.1454 18.1778L11.1207 17.6101L10.9376 17.6181L10.9623 18.1857L10.987 18.7534L11.1701 18.7454L11.1454 18.1778ZM10.9623 18.1857L10.9376 17.6181L10.7546 17.6261L10.7793 18.1937L10.804 18.7614L10.987 18.7534L10.9623 18.1857ZM10.7793 18.1937L10.7546 17.6261C10.6881 17.629 10.6142 17.6339 10.5485 17.6449C10.5208 17.6495 10.4586 17.6607 10.3905 17.6888C10.3582 17.7022 10.288 17.7339 10.2174 17.798C10.1422 17.8662 10.028 18.0095 10.028 18.2243H10.5962H11.1644C11.1644 18.4352 11.0522 18.575 10.9808 18.6397C10.914 18.7003 10.8495 18.7287 10.8248 18.7389C10.7943 18.7515 10.7703 18.758 10.7593 18.7607C10.7469 18.7638 10.7383 18.7653 10.7355 18.7658C10.7307 18.7666 10.7484 18.7638 10.804 18.7614L10.7793 18.1937ZM10.5962 18.2243H10.028V18.2468H10.5962H11.1644V18.2243H10.5962ZM10.5962 18.2468H10.028V18.2694H10.5962H11.1644V18.2468H10.5962ZM10.5962 18.2694H10.028C10.028 17.9988 10.2055 17.8484 10.2835 17.7978C10.3603 17.748 10.429 17.731 10.4482 17.7263C10.476 17.7196 10.4967 17.7171 10.5042 17.7163C10.509 17.7158 10.5125 17.7155 10.5146 17.7154C10.5167 17.7152 10.5179 17.7152 10.518 17.7152C10.518 17.7152 10.5154 17.7153 10.5097 17.7153C10.5041 17.7153 10.4966 17.7152 10.4868 17.7149C10.4671 17.7144 10.4413 17.7132 10.4087 17.7112L10.3737 18.2783L10.3388 18.8454C10.4172 18.8502 10.4963 18.8533 10.5632 18.8507C10.5912 18.8495 10.6507 18.8465 10.7164 18.8306C10.7449 18.8237 10.8206 18.8039 10.902 18.7512C10.9846 18.6976 11.1644 18.5438 11.1644 18.2694H10.5962ZM10.3737 18.2783L10.4087 17.7112L10.1862 17.6975L10.1512 18.2646L10.1163 18.8317L10.3388 18.8454L10.3737 18.2783Z" fill="#E2E2E2"/>
</svg>
