<svg width="24" height="24" viewBox="0 0 24 24" fill="none" xmlns="http://www.w3.org/2000/svg">
<g clip-path="url(#clip0_379_3000)">
<circle cx="12" cy="12" r="11" fill="#80A281"/>
<path d="M22.9878 12.3751L23.4875 12.3914L22.9878 12.3751ZM22.9816 12.5626L22.4819 12.5463L22.9816 12.5626ZM23.0665 13.3298L22.5726 13.4074L23.0665 13.3298ZM23.0298 13.7039L22.561 13.5302L23.0298 13.7039ZM22.8958 14.0656L23.3647 14.2393L22.8958 14.0656ZM22.7091 15.1906L23.1325 15.4565L22.7091 15.1906ZM22.6049 15.3565L22.1815 15.0906L22.6049 15.3565ZM22.5007 15.5224L22.9242 15.7883L22.5007 15.5224ZM22.3879 15.8894L22.8875 15.9109L22.3879 15.8894ZM22.3793 16.0904L21.8797 16.0689L22.3793 16.0904ZM22.2625 16.6576L21.8341 16.3998L22.2625 16.6576ZM22.0638 16.9879L21.6354 16.7301L22.0638 16.9879ZM21.8131 17.2846L21.485 16.9072L21.8131 17.2846ZM21.5105 17.5477L21.1824 17.1703L21.5105 17.5477ZM21.2229 17.8113L20.8749 17.4523L21.2229 17.8113ZM20.9505 18.0755L21.2985 18.4344L20.9505 18.0755ZM20.7688 18.4073L20.2813 18.2964L20.7688 18.4073ZM20.678 18.8067L21.1655 18.9176L20.678 18.8067ZM20.4682 19.1121L20.7388 19.5326L20.4682 19.1121ZM20.3039 19.2178L20.0334 18.7973L20.3039 19.2178ZM20.1396 19.3235L19.8691 18.903L20.1396 19.3235ZM19.8453 19.562L20.2026 19.9118L19.8453 19.562ZM19.5853 19.8277L19.9426 20.1774L19.5853 19.8277ZM19.3462 20.1205L19.7593 20.4022L19.3462 20.1205ZM19.1279 20.4406L19.541 20.7223L19.1279 20.4406ZM18.8197 20.6469L18.7065 20.1599L18.8197 20.6469ZM18.4218 20.7395L18.535 21.2265L18.4218 20.7395ZM18.1124 20.9567L18.5324 21.2279L18.1124 20.9567ZM17.8916 21.2987L17.4715 21.0275L17.8916 21.2987ZM17.6166 21.5626L17.8623 21.998L17.6166 21.5626ZM17.2873 21.7484L17.5331 22.1838L17.2873 21.7484ZM16.9143 21.8363L16.9262 21.3364L16.9143 21.8363ZM16.7059 21.8313L16.6939 22.3312L16.7059 21.8313ZM16.4975 21.8263L16.5094 21.3265L16.4975 21.8263ZM16.1245 21.9032L15.9019 21.4555L16.1245 21.9032ZM15.7955 22.0668L16.0181 22.5145L15.7955 22.0668ZM15.487 22.3143L15.1096 21.9863L15.487 22.3143ZM15.1992 22.6455L15.5767 22.9734L15.1992 22.6455ZM14.8469 22.7498L14.7058 23.2295L14.8469 22.7498ZM14.6386 22.6885L14.4974 23.1681L14.6386 22.6885ZM14.4302 22.6272L14.5713 22.1475L14.4302 22.6272ZM14.0401 22.5937L14.116 23.0879L14.0401 22.5937ZM13.6768 22.6495L13.6009 22.1553L13.6768 22.6495ZM13.3143 22.7243L13.1888 22.2403L13.3143 22.7243ZM13.1336 22.7712L13.259 23.2552L13.1336 22.7712ZM12.5862 22.8335L12.5029 23.3265L12.5862 22.8335ZM12.4005 22.8021L12.4838 22.3091L12.4005 22.8021ZM12.2147 22.7707L12.298 22.2777L12.2147 22.7707ZM11.8395 22.8305L11.6227 22.3799L11.8395 22.8305ZM11.65 22.9216L11.8668 23.3722L11.65 22.9216ZM11.4605 23.0128L11.2438 22.5622L11.4605 23.0128ZM11.0845 23.0693L11.1758 22.5777L11.0845 23.0693ZM10.8979 23.0346L10.8065 23.5262L10.8979 23.0346ZM10.7113 22.9999L10.8027 22.5083L10.7113 22.9999ZM10.3512 22.8735L10.1174 23.3154L10.3512 22.8735ZM10.0042 22.6899L10.238 22.2479L10.0042 22.6899ZM9.64466 22.5796L9.59506 23.0771L9.64466 22.5796ZM9.45859 22.5611L9.5082 22.0635L9.45859 22.5611ZM9.27252 22.5425L9.22291 23.04L9.27252 22.5425ZM8.91418 22.4534L8.72465 22.9161L8.91418 22.4534ZM8.56965 22.3123L8.75918 21.8496L8.56965 22.3123ZM8.23285 22.1565L8.46277 21.7125L8.23285 22.1565ZM7.90376 21.9861L7.67384 22.4301L7.90376 21.9861ZM7.54273 21.8815L7.59175 21.3839L7.54273 21.8815ZM7.14976 21.8428L7.10074 22.3404L7.14976 21.8428ZM6.82535 21.6716L6.44291 21.9936L6.82535 21.6716ZM6.69744 21.5197L6.31499 21.8418L6.69744 21.5197ZM6.56953 21.3678L6.95198 21.0457L6.56953 21.3678ZM6.28436 21.1208L6.543 20.6929L6.28436 21.1208ZM5.62254 20.7786L5.76645 20.2997L5.62254 20.7786ZM5.43248 20.7215L5.57639 20.2426L5.43248 20.7215ZM5.24242 20.6643L5.09851 21.1432L5.24242 20.6643ZM4.88668 20.5088L5.14202 20.0789L4.88668 20.5088ZM4.72101 20.4104L4.46567 20.8403L4.72101 20.4104ZM4.55533 20.312L4.81067 19.8821L4.55533 20.312ZM4.27073 20.0636L4.6625 19.753L4.27073 20.0636ZM4.03288 19.7637L3.64111 20.0744L4.03288 19.7637ZM3.85114 19.4205L4.32664 19.2659L3.85114 19.4205ZM3.72551 19.0341L3.25 19.1887L3.72551 19.0341ZM3.45739 18.7617L3.27751 19.2282L3.45739 18.7617ZM3.04678 18.6034L3.22666 18.1368L3.04678 18.6034ZM2.82017 18.3124L2.32268 18.3625L2.82017 18.3124ZM2.54865 17.1601L2.08468 17.3465L2.54865 17.1601ZM2.35027 16.8448L1.97914 17.1798L2.35027 16.8448ZM2.2211 16.7017L2.59224 16.3666L2.2211 16.7017ZM2.09193 16.5586L2.46306 16.2236L2.09193 16.5586ZM1.53734 15.9734L1.89763 15.6267L1.53734 15.9734ZM1.46723 15.606L0.991829 15.4511L1.46723 15.606ZM1.61061 15.166L2.08601 15.3209L1.61061 15.166ZM1.62113 14.7722L1.14948 14.9381L1.62113 14.7722ZM1.55995 14.5983L1.08831 14.7643L1.55995 14.5983ZM1.49878 14.4245L1.97042 14.2585L1.49878 14.4245ZM1.29913 14.0846L1.68319 13.7644L1.29913 14.0846ZM1.16066 13.9185L1.54472 13.5983L1.16066 13.9185ZM1.02219 13.7524L0.638135 14.0725L1.02219 13.7524ZM0.978821 13.3877L1.42978 13.6036L0.978821 13.3877ZM1.16902 12.9905L1.61998 13.2064L1.16902 12.9905ZM1.1568 12.6089L1.58807 12.356L1.1568 12.6089ZM1.04948 12.426L0.618204 12.679L1.04948 12.426ZM0.942153 12.243L1.37343 11.99L0.942153 12.243ZM0.807778 11.8677L0.312648 11.9373L0.807778 11.8677ZM0.81556 11.1081L1.265 11.3272L0.81556 11.1081ZM0.904494 10.9256L0.455053 10.7065L0.904494 10.9256ZM0.993428 10.7432L1.44287 10.9623L0.993428 10.7432ZM1.07488 10.3681L0.575254 10.3875L1.07488 10.3681ZM1.14546 9.61818L0.705785 9.3801L1.14546 9.61818ZM1.2385 9.44636L1.67818 9.68444L1.2385 9.44636ZM1.33155 9.27454L1.77122 9.51262L1.33155 9.27454ZM1.50211 8.93201L1.95737 9.13874L1.50211 8.93201ZM1.57963 8.7613L2.03489 8.96804L1.57963 8.7613ZM1.65715 8.59059L1.20189 8.38385L1.65715 8.59059ZM1.71775 7.8088L1.21795 7.82263L1.71775 7.8088ZM1.91213 7.06528L1.44327 6.89157L1.91213 7.06528ZM2.18849 6.78783L1.97767 6.33445L2.18849 6.78783ZM2.60789 6.59282L2.81871 7.0462L2.60789 6.59282ZM2.83376 6.28426L2.33523 6.24604L2.83376 6.28426ZM2.86613 5.86216L3.36466 5.90038L2.86613 5.86216ZM2.98769 5.49305L2.57168 5.21568L2.98769 5.49305ZM3.09308 5.33499L2.67707 5.05762L3.09308 5.33499ZM3.19847 5.17692L3.61448 5.45429L3.19847 5.17692ZM3.40892 4.8574L3.828 5.1301L3.40892 4.8574ZM3.51398 4.69594L3.09489 4.42323L3.51398 4.69594ZM3.61905 4.53447L3.19996 4.26177L3.61905 4.53447ZM3.90428 4.2845L4.12474 4.73328L3.90428 4.2845ZM4.08444 4.196L3.86398 3.74722L4.08444 4.196ZM4.26461 4.10749L4.04415 3.65872L4.26461 4.10749ZM4.56959 3.87613L4.94612 4.2051L4.56959 3.87613ZM5.09432 3.33313L5.39719 3.73096L5.09432 3.33313ZM5.39493 3.10428L5.09206 2.70645L5.39493 3.10428ZM5.7072 2.89282L5.45024 2.4639L5.7072 2.89282ZM6.03113 2.69876L5.77417 2.26984L6.03113 2.69876ZM6.36327 2.52108L6.14913 2.06926L6.36327 2.52108ZM6.53344 2.44043L6.3193 1.9886L6.53344 2.44043ZM6.70361 2.35978L6.91775 2.8116L6.70361 2.35978ZM7.05096 2.21701L6.88553 1.74517L7.05096 2.21701ZM7.4053 2.09277L7.57073 2.56461L7.4053 2.09277ZM7.75101 1.9507L7.96531 2.40245L7.75101 1.9507ZM7.91956 1.87075L7.70527 1.419L7.91956 1.87075ZM8.08811 1.7908L7.87382 1.33905L8.08811 1.7908ZM8.78029 1.50889L8.60037 1.04238L8.78029 1.50889ZM9.89855 1.38918L10.0258 1.87271L9.89855 1.38918ZM10.2568 1.29489L10.1296 0.811353L10.2568 1.29489ZM10.6221 1.25586L10.6003 1.75538L10.6221 1.25586ZM10.8082 1.26397L10.7864 1.7635L10.8082 1.26397ZM11.3627 1.15524L11.6454 1.56765L11.3627 1.15524ZM11.5449 1.03029L11.2622 0.617892L11.5449 1.03029ZM11.7272 0.90534L12.0099 1.31774L11.7272 0.90534ZM12.4863 0.747068L12.4575 0.2479L12.4863 0.747068ZM12.8558 0.866059L13.1517 0.463035L12.8558 0.866059ZM13.2101 1.12625L12.9142 1.52928L13.2101 1.12625ZM14.3342 1.25529L14.4014 1.75075L14.3342 1.25529ZM14.7345 1.20097L14.6673 0.705513L14.7345 1.20097ZM15.0815 1.33378L15.4498 0.995667L15.0815 1.33378ZM15.3752 1.65373L15.0068 1.99184L15.3752 1.65373ZM15.7149 1.82877L15.7539 1.33029L15.7149 1.82877ZM16.1007 1.85891L16.0617 2.35739L16.1007 1.85891ZM16.4398 1.99974L16.1138 2.37885L16.4398 1.99974ZM16.7323 2.25126L17.0583 1.87215L16.7323 2.25126ZM17.0938 2.37492L17.0889 1.87495L17.0938 2.37492ZM17.9079 2.46083L18.148 2.02224L17.9079 2.46083ZM18.0763 2.55303L18.3164 2.11443L18.0763 2.55303ZM18.2447 2.64522L18.0047 3.08382L18.2447 2.64522ZM18.5042 2.93085L18.0518 3.14372L18.5042 2.93085ZM18.5952 3.12427L19.0476 2.91139L18.5952 3.12427ZM18.6862 3.3177L18.2338 3.53057L18.6862 3.3177ZM18.9378 3.60976L18.6761 4.03581L18.9378 3.60976ZM19.0984 3.7084L18.8367 4.13445L19.0984 3.7084ZM19.259 3.80705L19.5207 3.381L19.259 3.80705ZM19.5916 4.00016L19.3509 4.43842L19.5916 4.00016ZM19.7636 4.09464L20.0043 3.65639L19.7636 4.09464ZM19.9356 4.18911L20.1763 3.75086L19.9356 4.18911ZM20.1419 4.50292L19.6479 4.58015L20.1419 4.50292ZM20.3837 5.2857L20.7179 4.91379L20.3837 5.2857ZM20.6614 5.53529L20.3272 5.9072L20.6614 5.53529ZM20.8892 5.82238L21.3277 5.58226L20.8892 5.82238ZM20.978 5.98468L21.4166 5.74457L20.978 5.98468ZM21.0669 6.14699L20.6283 6.3871L21.0669 6.14699ZM21.2863 6.44781L21.6502 6.10491L21.2863 6.44781ZM21.4168 6.58633L21.7807 6.24343L21.4168 6.58633ZM21.5473 6.72485L21.1834 7.06775L21.5473 6.72485ZM21.7096 7.05355L22.2028 6.97134L21.7096 7.05355ZM21.773 7.43391L21.2798 7.51613L21.773 7.43391ZM21.941 7.76885L21.577 8.11166L21.941 7.76885ZM22.2137 8.05837L21.8497 8.40118L22.2137 8.05837ZM22.384 8.38869L22.8758 8.29876L22.384 8.38869ZM22.4179 8.57425L21.9261 8.66418L22.4179 8.57425ZM22.4518 8.7598L22.9437 8.66987L22.4518 8.7598ZM22.5458 9.12264L22.0721 9.28291L22.5458 9.12264ZM22.6057 9.29992L23.0794 9.13965L22.6057 9.29992ZM22.6657 9.4772L23.1394 9.31693L22.6657 9.4772ZM22.7614 9.83825L23.2522 9.74294L22.7614 9.83825ZM22.7971 10.022L23.2879 9.92671L22.7971 10.022ZM22.8328 10.2058L22.342 10.3011L22.8328 10.2058ZM22.9655 10.5696L23.4056 10.3324L22.9655 10.5696ZM23.0625 10.7496L22.6224 10.9868L23.0625 10.7496ZM23.1595 10.9296L23.5997 10.6924L23.1595 10.9296ZM23.1214 11.3034L22.7113 11.0174L23.1214 11.3034ZM22.8512 11.6909L22.4411 11.4049L22.8512 11.6909ZM22.7871 11.9135L22.9753 11.4503L22.7871 11.9135ZM22.858 11.9423L22.6698 12.4055L22.858 11.9423ZM22.929 11.9712L23.1172 11.5079L22.929 11.9712ZM22.9939 12.1875L22.4941 12.1712L22.9939 12.1875ZM22.9878 12.3751L22.488 12.3588L22.4819 12.5463L22.9816 12.5626L23.4814 12.579L23.4875 12.3914L22.9878 12.3751ZM22.9816 12.5626L22.4819 12.5463C22.4767 12.7041 22.487 12.8624 22.5119 13.021L23.0058 12.9434L23.4998 12.8658C23.4842 12.7668 23.4783 12.6713 23.4814 12.579L22.9816 12.5626ZM23.0058 12.9434L22.5119 13.021L22.5422 13.2142L23.0362 13.1366L23.5301 13.0591L23.4998 12.8658L23.0058 12.9434ZM23.0362 13.1366L22.5422 13.2142L22.5726 13.4074L23.0665 13.3298L23.5605 13.2523L23.5301 13.0591L23.0362 13.1366ZM23.0665 13.3298L22.5726 13.4074C22.5797 13.4529 22.5755 13.491 22.561 13.5302L23.0298 13.7039L23.4987 13.8776C23.5735 13.6757 23.5938 13.4644 23.5605 13.2523L23.0665 13.3298ZM23.0298 13.7039L22.561 13.5302L22.494 13.711L22.9628 13.8848L23.4317 14.0585L23.4987 13.8776L23.0298 13.7039ZM22.9628 13.8848L22.494 13.711L22.427 13.8919L22.8958 14.0656L23.3647 14.2393L23.4317 14.0585L22.9628 13.8848ZM22.8958 14.0656L22.427 13.8919C22.3627 14.0654 22.3287 14.2459 22.325 14.431L22.8249 14.441L23.3248 14.451C23.3263 14.3767 23.3396 14.307 23.3647 14.2393L22.8958 14.0656ZM22.8249 14.441L22.325 14.431L22.3211 14.6256L22.821 14.6356L23.3209 14.6456L23.3248 14.451L22.8249 14.441ZM22.821 14.6356L22.3211 14.6256L22.3172 14.8201L22.8171 14.8301L23.317 14.8401L23.3209 14.6456L22.821 14.6356ZM22.8171 14.8301L22.3172 14.8201C22.3165 14.8585 22.3072 14.8904 22.2856 14.9247L22.7091 15.1906L23.1325 15.4565C23.2499 15.2696 23.3126 15.0611 23.317 14.8401L22.8171 14.8301ZM22.7091 15.1906L22.2856 14.9247L22.1815 15.0906L22.6049 15.3565L23.0284 15.6224L23.1325 15.4565L22.7091 15.1906ZM22.6049 15.3565L22.1815 15.0906L22.0773 15.2566L22.5007 15.5224L22.9242 15.7883L23.0284 15.6224L22.6049 15.3565ZM22.5007 15.5224L22.0773 15.2566C21.9604 15.4427 21.8978 15.6496 21.8884 15.8679L22.3879 15.8894L22.8875 15.9109C22.8896 15.8611 22.9022 15.8234 22.9242 15.7883L22.5007 15.5224ZM22.3879 15.8894L21.8884 15.8679L21.8797 16.0689L22.3793 16.0904L22.8788 16.1119L22.8875 15.9109L22.3879 15.8894ZM22.3793 16.0904L21.8797 16.0689L21.8711 16.2699L22.3706 16.2914L22.8701 16.3129L22.8788 16.1119L22.3793 16.0904ZM22.3706 16.2914L21.8711 16.2699C21.8687 16.3242 21.8554 16.3644 21.8341 16.3998L22.2625 16.6576L22.6909 16.9154C22.8022 16.7305 22.8609 16.5266 22.8701 16.3129L22.3706 16.2914ZM22.2625 16.6576L21.8341 16.3998L21.7348 16.5649L22.1632 16.8227L22.5916 17.0806L22.6909 16.9154L22.2625 16.6576ZM22.1632 16.8227L21.7348 16.5649L21.6354 16.7301L22.0638 16.9879L22.4922 17.2457L22.5916 17.0806L22.1632 16.8227ZM22.0638 16.9879L21.6354 16.7301C21.5972 16.7935 21.548 16.8525 21.485 16.9072L21.8131 17.2846L22.1411 17.6619C22.2799 17.5413 22.3978 17.4024 22.4922 17.2457L22.0638 16.9879ZM21.8131 17.2846L21.485 16.9072L21.3337 17.0388L21.6618 17.4161L21.9898 17.7935L22.1411 17.6619L21.8131 17.2846ZM21.6618 17.4161L21.3337 17.0388L21.1824 17.1703L21.5105 17.5477L21.8385 17.925L21.9898 17.7935L21.6618 17.4161ZM21.5105 17.5477L21.1824 17.1703C21.0751 17.2636 20.9725 17.3576 20.8749 17.4523L21.2229 17.8113L21.571 18.1702C21.6549 18.0888 21.7441 18.0071 21.8385 17.925L21.5105 17.5477ZM21.2229 17.8113L20.8749 17.4523L20.7386 17.5844L21.0867 17.9434L21.4347 18.3023L21.571 18.1702L21.2229 17.8113ZM21.0867 17.9434L20.7386 17.5844L20.6024 17.7165L20.9505 18.0755L21.2985 18.4344L21.4347 18.3023L21.0867 17.9434ZM20.9505 18.0755L20.6024 17.7165C20.4365 17.8774 20.3312 18.0766 20.2813 18.2964L20.7688 18.4073L21.2564 18.5182C21.2669 18.4717 21.2828 18.4497 21.2985 18.4344L20.9505 18.0755ZM20.7688 18.4073L20.2813 18.2964L20.2358 18.4961L20.7234 18.607L21.2109 18.7179L21.2564 18.5182L20.7688 18.4073ZM20.7234 18.607L20.2358 18.4961L20.1904 18.6958L20.678 18.8067L21.1655 18.9176L21.2109 18.7179L20.7234 18.607ZM20.678 18.8067L20.1904 18.6958C20.189 18.7019 20.1879 18.7045 20.1879 18.7045C20.1879 18.7046 20.1881 18.7041 20.1886 18.7032C20.1891 18.7023 20.1898 18.7012 20.1907 18.6998C20.1926 18.697 20.1948 18.6945 20.1967 18.6927C20.1986 18.6908 20.1993 18.6906 20.1977 18.6916L20.4682 19.1121L20.7388 19.5326C20.9641 19.3876 21.1078 19.1715 21.1655 18.9176L20.678 18.8067ZM20.4682 19.1121L20.1977 18.6916L20.0334 18.7973L20.3039 19.2178L20.5744 19.6383L20.7388 19.5326L20.4682 19.1121ZM20.3039 19.2178L20.0334 18.7973L19.8691 18.903L20.1396 19.3235L20.4101 19.744L20.5744 19.6383L20.3039 19.2178ZM20.1396 19.3235L19.8691 18.903C19.7297 18.9927 19.6021 19.0957 19.488 19.2123L19.8453 19.562L20.2026 19.9118C20.2618 19.8513 20.3305 19.7953 20.4101 19.744L20.1396 19.3235ZM19.8453 19.562L19.488 19.2123L19.358 19.3451L19.7153 19.6948L20.0726 20.0446L20.2026 19.9118L19.8453 19.562ZM19.7153 19.6948L19.358 19.3451L19.228 19.4779L19.5853 19.8277L19.9426 20.1774L20.0726 20.0446L19.7153 19.6948ZM19.5853 19.8277L19.228 19.4779C19.1199 19.5883 19.0217 19.7089 18.9331 19.8388L19.3462 20.1205L19.7593 20.4022C19.8162 20.3188 19.8774 20.2441 19.9426 20.1774L19.5853 19.8277ZM19.3462 20.1205L18.9331 19.8388L18.8239 19.9988L19.237 20.2806L19.6501 20.5623L19.7593 20.4022L19.3462 20.1205ZM19.237 20.2806L18.8239 19.9988L18.7148 20.1589L19.1279 20.4406L19.541 20.7223L19.6501 20.5623L19.237 20.2806ZM19.1279 20.4406L18.7148 20.1589C18.7135 20.1609 18.7132 20.1609 18.7141 20.1599C18.7152 20.1589 18.7166 20.1577 18.7181 20.1567C18.7196 20.1557 18.72 20.1557 18.7187 20.1562C18.7174 20.1568 18.7135 20.1583 18.7065 20.1599L18.8197 20.6469L18.933 21.1339C19.1805 21.0764 19.3934 20.9387 19.541 20.7223L19.1279 20.4406ZM18.8197 20.6469L18.7065 20.1599L18.5075 20.2062L18.6207 20.6932L18.734 21.1802L18.933 21.1339L18.8197 20.6469ZM18.6207 20.6932L18.5075 20.2062L18.3085 20.2525L18.4218 20.7395L18.535 21.2265L18.734 21.1802L18.6207 20.6932ZM18.4218 20.7395L18.3085 20.2525C18.05 20.3126 17.8366 20.462 17.6923 20.6855L18.1124 20.9567L18.5324 21.2279C18.535 21.224 18.5363 21.2227 18.536 21.223C18.5356 21.2235 18.5343 21.2247 18.5323 21.2261C18.5302 21.2275 18.5287 21.2283 18.5284 21.2284C18.5281 21.2285 18.5301 21.2276 18.535 21.2265L18.4218 20.7395ZM18.1124 20.9567L17.6923 20.6855L17.5819 20.8565L18.002 21.1277L18.422 21.3989L18.5324 21.2279L18.1124 20.9567ZM18.002 21.1277L17.5819 20.8565L17.4715 21.0275L17.8916 21.2987L18.3116 21.5699L18.422 21.3989L18.002 21.1277ZM17.8916 21.2987L17.4715 21.0275C17.4384 21.0787 17.4047 21.108 17.3708 21.1271L17.6166 21.5626L17.8623 21.998C18.048 21.8932 18.1975 21.7466 18.3116 21.5699L17.8916 21.2987ZM17.6166 21.5626L17.3708 21.1271L17.2062 21.22L17.4519 21.6555L17.6977 22.0909L17.8623 21.998L17.6166 21.5626ZM17.4519 21.6555L17.2062 21.22L17.0416 21.3129L17.2873 21.7484L17.5331 22.1838L17.6977 22.0909L17.4519 21.6555ZM17.2873 21.7484L17.0416 21.3129C17.0183 21.3261 16.9846 21.3378 16.9262 21.3364L16.9143 21.8363L16.9023 22.3362C17.1219 22.3414 17.3369 22.2945 17.5331 22.1838L17.2873 21.7484ZM16.9143 21.8363L16.9262 21.3364L16.7178 21.3315L16.7059 21.8313L16.6939 22.3312L16.9023 22.3362L16.9143 21.8363ZM16.7059 21.8313L16.7178 21.3315L16.5094 21.3265L16.4975 21.8263L16.4855 22.3262L16.6939 22.3312L16.7059 21.8313ZM16.4975 21.8263L16.5094 21.3265C16.3003 21.3215 16.0937 21.3601 15.9019 21.4555L16.1245 21.9032L16.3472 22.3509C16.3748 22.3371 16.4168 22.3245 16.4855 22.3262L16.4975 21.8263ZM16.1245 21.9032L15.9019 21.4555L15.7374 21.5373L15.96 21.985L16.1826 22.4327L16.3472 22.3509L16.1245 21.9032ZM15.96 21.985L15.7374 21.5373L15.5728 21.6191L15.7955 22.0668L16.0181 22.5145L16.1826 22.4327L15.96 21.985ZM15.7955 22.0668L15.5728 21.6191C15.3939 21.7081 15.2405 21.8356 15.1096 21.9863L15.487 22.3143L15.8645 22.6422C15.9254 22.572 15.9777 22.5346 16.0181 22.5145L15.7955 22.0668ZM15.487 22.3143L15.1096 21.9863L14.9657 22.152L15.3431 22.4799L15.7206 22.8078L15.8645 22.6422L15.487 22.3143ZM15.3431 22.4799L14.9657 22.152L14.8218 22.3176L15.1992 22.6455L15.5767 22.9734L15.7206 22.8078L15.3431 22.4799ZM15.1992 22.6455L14.8218 22.3176C14.824 22.315 14.8482 22.2895 14.8973 22.275C14.9467 22.2603 14.9823 22.2684 14.9881 22.2702L14.8469 22.7498L14.7058 23.2295C14.8505 23.2721 15.0143 23.2832 15.1811 23.2338C15.3476 23.1845 15.4785 23.0864 15.5767 22.9734L15.1992 22.6455ZM14.8469 22.7498L14.9881 22.2702L14.7797 22.2088L14.6386 22.6885L14.4974 23.1681L14.7058 23.2295L14.8469 22.7498ZM14.6386 22.6885L14.7797 22.2088L14.5713 22.1475L14.4302 22.6272L14.289 23.1068L14.4974 23.1681L14.6386 22.6885ZM14.4302 22.6272L14.5713 22.1475C14.3747 22.0896 14.1699 22.0679 13.9642 22.0995L14.0401 22.5937L14.116 23.0879C14.1526 23.0823 14.2078 23.0829 14.289 23.1068L14.4302 22.6272ZM14.0401 22.5937L13.9642 22.0995L13.7825 22.1274L13.8584 22.6216L13.9343 23.1158L14.116 23.0879L14.0401 22.5937ZM13.8584 22.6216L13.7825 22.1274L13.6009 22.1553L13.6768 22.6495L13.7527 23.1437L13.9343 23.1158L13.8584 22.6216ZM13.6768 22.6495L13.6009 22.1553C13.4628 22.1765 13.3254 22.2049 13.1888 22.2403L13.3143 22.7243L13.4398 23.2083C13.5442 23.1812 13.6485 23.1597 13.7527 23.1437L13.6768 22.6495ZM13.3143 22.7243L13.1888 22.2403L13.0081 22.2872L13.1336 22.7712L13.259 23.2552L13.4398 23.2083L13.3143 22.7243ZM13.1336 22.7712L13.0081 22.2872L12.8273 22.334L12.9528 22.818L13.0783 23.302L13.259 23.2552L13.1336 22.7712ZM12.9528 22.818L12.8273 22.334C12.7756 22.3474 12.7246 22.3498 12.6696 22.3405L12.5862 22.8335L12.5029 23.3265C12.6956 23.3591 12.8889 23.3511 13.0783 23.302L12.9528 22.818ZM12.5862 22.8335L12.6696 22.3405L12.4838 22.3091L12.4005 22.8021L12.3172 23.2951L12.5029 23.3265L12.5862 22.8335ZM12.4005 22.8021L12.4838 22.3091L12.298 22.2777L12.2147 22.7707L12.1314 23.2637L12.3172 23.2951L12.4005 22.8021ZM12.2147 22.7707L12.298 22.2777C12.0605 22.2376 11.8309 22.2797 11.6227 22.3799L11.8395 22.8305L12.0562 23.281C12.1006 23.2597 12.1212 23.262 12.1314 23.2637L12.2147 22.7707ZM11.8395 22.8305L11.6227 22.3799L11.4332 22.4711L11.65 22.9216L11.8668 23.3722L12.0562 23.281L11.8395 22.8305ZM11.65 22.9216L11.4332 22.4711L11.2438 22.5622L11.4605 23.0128L11.6773 23.4633L11.8668 23.3722L11.65 22.9216ZM11.4605 23.0128L11.2438 22.5622C11.2024 22.5821 11.1845 22.5793 11.1758 22.5777L11.0845 23.0693L10.9931 23.5608C11.2332 23.6055 11.4661 23.565 11.6773 23.4633L11.4605 23.0128ZM11.0845 23.0693L11.1758 22.5777L10.9892 22.543L10.8979 23.0346L10.8065 23.5262L10.9931 23.5608L11.0845 23.0693ZM10.8979 23.0346L10.9892 22.543L10.8027 22.5083L10.7113 22.9999L10.6199 23.4915L10.8065 23.5262L10.8979 23.0346ZM10.7113 22.9999L10.8027 22.5083C10.7296 22.4947 10.6575 22.4698 10.585 22.4315L10.3512 22.8735L10.1174 23.3154C10.2762 23.3994 10.4441 23.4588 10.6199 23.4915L10.7113 22.9999ZM10.3512 22.8735L10.585 22.4315L10.4115 22.3397L10.1777 22.7817L9.94394 23.2237L10.1174 23.3154L10.3512 22.8735ZM10.1777 22.7817L10.4115 22.3397L10.238 22.2479L10.0042 22.6899L9.77045 23.1319L9.94394 23.2237L10.1777 22.7817ZM10.0042 22.6899L10.238 22.2479C10.068 22.158 9.88589 22.1012 9.69427 22.0821L9.64466 22.5796L9.59506 23.0771C9.65153 23.0828 9.70912 23.0995 9.77045 23.1319L10.0042 22.6899ZM9.64466 22.5796L9.69427 22.0821L9.5082 22.0635L9.45859 22.5611L9.40899 23.0586L9.59506 23.0771L9.64466 22.5796ZM9.45859 22.5611L9.5082 22.0635L9.32213 22.045L9.27252 22.5425L9.22291 23.04L9.40899 23.0586L9.45859 22.5611ZM9.27252 22.5425L9.32213 22.045C9.24594 22.0374 9.17364 22.0193 9.10371 21.9907L8.91418 22.4534L8.72465 22.9161C8.88441 22.9815 9.051 23.0229 9.22291 23.04L9.27252 22.5425ZM8.91418 22.4534L9.10371 21.9907L8.93145 21.9201L8.74192 22.3828L8.55239 22.8455L8.72465 22.9161L8.91418 22.4534ZM8.74192 22.3828L8.93145 21.9201L8.75918 21.8496L8.56965 22.3123L8.38012 22.7749L8.55239 22.8455L8.74192 22.3828ZM8.56965 22.3123L8.75918 21.8496C8.65801 21.8081 8.55922 21.7624 8.46277 21.7125L8.23285 22.1565L8.00292 22.6005C8.12586 22.6641 8.25161 22.7223 8.38012 22.7749L8.56965 22.3123ZM8.23285 22.1565L8.46277 21.7125L8.29823 21.6273L8.06831 22.0713L7.83838 22.5153L8.00292 22.6005L8.23285 22.1565ZM8.06831 22.0713L8.29823 21.6273L8.13369 21.5421L7.90376 21.9861L7.67384 22.4301L7.83838 22.5153L8.06831 22.0713ZM7.90376 21.9861L8.13369 21.5421C7.96402 21.4542 7.78171 21.4026 7.59175 21.3839L7.54273 21.8815L7.49372 22.3791C7.56574 22.3862 7.62412 22.4043 7.67384 22.4301L7.90376 21.9861ZM7.54273 21.8815L7.59175 21.3839L7.39526 21.3646L7.34624 21.8622L7.29723 22.3597L7.49372 22.3791L7.54273 21.8815ZM7.34624 21.8622L7.39526 21.3646L7.19877 21.3452L7.14976 21.8428L7.10074 22.3404L7.29723 22.3597L7.34624 21.8622ZM7.14976 21.8428L7.19877 21.3452C7.19524 21.3449 7.19464 21.3445 7.19624 21.345C7.19791 21.3455 7.20065 21.3465 7.20382 21.3481C7.20699 21.3498 7.20922 21.3514 7.21033 21.3523C7.21137 21.3532 7.21043 21.3526 7.2078 21.3495L6.82535 21.6716L6.44291 21.9936C6.61164 22.194 6.83914 22.3146 7.10074 22.3404L7.14976 21.8428ZM6.82535 21.6716L7.2078 21.3495L7.07989 21.1976L6.69744 21.5197L6.31499 21.8418L6.44291 21.9936L6.82535 21.6716ZM6.69744 21.5197L7.07989 21.1976L6.95198 21.0457L6.56953 21.3678L6.18708 21.6899L6.31499 21.8418L6.69744 21.5197ZM6.56953 21.3678L6.95198 21.0457C6.83433 20.906 6.69825 20.7868 6.543 20.6929L6.28436 21.1208L6.02573 21.5488C6.08015 21.5817 6.13417 21.627 6.18708 21.6899L6.56953 21.3678ZM6.28436 21.1208L6.543 20.6929L6.38575 20.5979L6.12711 21.0258L5.86847 21.4537L6.02573 21.5488L6.28436 21.1208ZM6.12711 21.0258L6.38575 20.5979L6.2285 20.5028L5.96986 20.9308L5.71122 21.3587L5.86847 21.4537L6.12711 21.0258ZM5.96986 20.9308L6.2285 20.5028C6.08496 20.4161 5.9302 20.349 5.76645 20.2997L5.62254 20.7786L5.47864 21.2574C5.56831 21.2844 5.64509 21.3187 5.71122 21.3587L5.96986 20.9308ZM5.62254 20.7786L5.76645 20.2997L5.57639 20.2426L5.43248 20.7215L5.28857 21.2003L5.47864 21.2574L5.62254 20.7786ZM5.43248 20.7215L5.57639 20.2426L5.38633 20.1855L5.24242 20.6643L5.09851 21.1432L5.28857 21.2003L5.43248 20.7215ZM5.24242 20.6643L5.38633 20.1855C5.29744 20.1588 5.21642 20.1231 5.14202 20.0789L4.88668 20.5088L4.63134 20.9387C4.77784 21.0257 4.93397 21.0937 5.09851 21.1432L5.24242 20.6643ZM4.88668 20.5088L5.14202 20.0789L4.97634 19.9805L4.72101 20.4104L4.46567 20.8403L4.63134 20.9387L4.88668 20.5088ZM4.72101 20.4104L4.97634 19.9805L4.81067 19.8821L4.55533 20.312L4.29999 20.7419L4.46567 20.8403L4.72101 20.4104ZM4.55533 20.312L4.81067 19.8821C4.75221 19.8474 4.70368 19.8049 4.6625 19.753L4.27073 20.0636L3.87897 20.3743C3.99635 20.5223 4.13755 20.6454 4.29999 20.7419L4.55533 20.312ZM4.27073 20.0636L4.6625 19.753L4.54357 19.603L4.15181 19.9137L3.76004 20.2243L3.87897 20.3743L4.27073 20.0636ZM4.15181 19.9137L4.54357 19.603L4.42464 19.453L4.03288 19.7637L3.64111 20.0744L3.76004 20.2243L4.15181 19.9137ZM4.03288 19.7637L4.42464 19.453C4.38457 19.4025 4.35126 19.3417 4.32664 19.2659L3.85114 19.4205L3.37563 19.5751C3.43477 19.757 3.52262 19.925 3.64111 20.0744L4.03288 19.7637ZM3.85114 19.4205L4.32664 19.2659L4.26383 19.0727L3.78832 19.2273L3.31282 19.3819L3.37563 19.5751L3.85114 19.4205ZM3.78832 19.2273L4.26383 19.0727L4.20101 18.8795L3.72551 19.0341L3.25 19.1887L3.31282 19.3819L3.78832 19.2273ZM3.72551 19.0341L4.20101 18.8795C4.10834 18.5944 3.9013 18.397 3.63727 18.2952L3.45739 18.7617L3.27751 19.2282C3.28957 19.2329 3.28297 19.2325 3.27074 19.2201C3.26501 19.2143 3.25996 19.2077 3.256 19.2011C3.25211 19.1946 3.25043 19.19 3.25 19.1887L3.72551 19.0341ZM3.45739 18.7617L3.63727 18.2952L3.43196 18.216L3.25208 18.6825L3.0722 19.149L3.27751 19.2282L3.45739 18.7617ZM3.25208 18.6825L3.43196 18.216L3.22666 18.1368L3.04678 18.6034L2.8669 19.0699L3.0722 19.149L3.25208 18.6825ZM3.04678 18.6034L3.22666 18.1368C3.22641 18.1367 3.25403 18.148 3.28195 18.1838C3.31055 18.2205 3.31682 18.254 3.31766 18.2624L2.82017 18.3124L2.32268 18.3625C2.33772 18.512 2.38886 18.6646 2.493 18.7983C2.59645 18.9311 2.73027 19.0172 2.8669 19.0699L3.04678 18.6034ZM2.82017 18.3124L3.31766 18.2624L3.29636 18.0506L2.79887 18.1006L2.30138 18.1507L2.32268 18.3625L2.82017 18.3124ZM2.79887 18.1006L3.29636 18.0506L3.27505 17.8388L2.77757 17.8888L2.28008 17.9389L2.30138 18.1507L2.79887 18.1006ZM2.77757 17.8888L3.27505 17.8388C3.25682 17.6575 3.21704 17.4827 3.15103 17.3184L2.68706 17.5047L2.22308 17.6911C2.24935 17.7565 2.26991 17.8378 2.28008 17.9389L2.77757 17.8888ZM2.68706 17.5047L3.15103 17.3184L3.08183 17.1461L2.61785 17.3324L2.15388 17.5188L2.22308 17.6911L2.68706 17.5047ZM2.61785 17.3324L3.08183 17.1461L3.01262 16.9738L2.54865 17.1601L2.08468 17.3465L2.15388 17.5188L2.61785 17.3324ZM2.54865 17.1601L3.01262 16.9738C2.94371 16.8022 2.84546 16.6471 2.72141 16.5097L2.35027 16.8448L1.97914 17.1798C2.02732 17.2332 2.06132 17.2884 2.08468 17.3465L2.54865 17.1601ZM2.35027 16.8448L2.72141 16.5097L2.59224 16.3666L2.2211 16.7017L1.84997 17.0367L1.97914 17.1798L2.35027 16.8448ZM2.2211 16.7017L2.59224 16.3666L2.46306 16.2236L2.09193 16.5586L1.7208 16.8937L1.84997 17.0367L2.2211 16.7017ZM2.09193 16.5586L2.46306 16.2236C2.37319 16.124 2.27924 16.0233 2.18125 15.9215L1.82096 16.2682L1.46067 16.6148C1.55175 16.7095 1.63845 16.8024 1.7208 16.8937L2.09193 16.5586ZM1.82096 16.2682L2.18125 15.9215L2.03944 15.7741L1.67915 16.1208L1.31886 16.4675L1.46067 16.6148L1.82096 16.2682ZM1.67915 16.1208L2.03944 15.7741L1.89763 15.6267L1.53734 15.9734L1.17705 16.3201L1.31886 16.4675L1.67915 16.1208ZM1.53734 15.9734L1.89763 15.6267C1.91103 15.6406 1.93187 15.6713 1.94005 15.7141C1.94751 15.7533 1.93874 15.7729 1.94263 15.7609L1.46723 15.606L0.991829 15.4511C0.947918 15.5859 0.926937 15.74 0.957774 15.9016C0.989326 16.0669 1.06912 16.2079 1.17705 16.3201L1.53734 15.9734ZM1.46723 15.606L1.94263 15.7609L2.01432 15.5409L1.53892 15.386L1.06352 15.2311L0.991829 15.4511L1.46723 15.606ZM1.53892 15.386L2.01432 15.5409L2.08601 15.3209L1.61061 15.166L1.13521 15.0111L1.06352 15.2311L1.53892 15.386ZM1.61061 15.166L2.08601 15.3209C2.159 15.0969 2.17849 14.8497 2.09277 14.6062L1.62113 14.7722L1.14948 14.9381C1.14826 14.9347 1.1495 14.9353 1.14926 14.9442C1.149 14.9542 1.14673 14.9757 1.13521 15.0111L1.61061 15.166ZM1.62113 14.7722L2.09277 14.6062L2.0316 14.4323L1.55995 14.5983L1.08831 14.7643L1.14948 14.9381L1.62113 14.7722ZM1.55995 14.5983L2.0316 14.4323L1.97042 14.2585L1.49878 14.4245L1.02713 14.5905L1.08831 14.7643L1.55995 14.5983ZM1.49878 14.4245L1.97042 14.2585C1.90675 14.0776 1.80716 13.9131 1.68319 13.7644L1.29913 14.0846L0.915076 14.4047C0.975728 14.4775 1.00923 14.5396 1.02713 14.5905L1.49878 14.4245ZM1.29913 14.0846L1.68319 13.7644L1.54472 13.5983L1.16066 13.9185L0.776605 14.2386L0.915076 14.4047L1.29913 14.0846ZM1.16066 13.9185L1.54472 13.5983L1.40625 13.4322L1.02219 13.7524L0.638135 14.0725L0.776605 14.2386L1.16066 13.9185ZM1.02219 13.7524L1.40625 13.4322C1.41084 13.4377 1.43251 13.4678 1.43861 13.5191C1.44464 13.5697 1.43079 13.6015 1.42978 13.6036L0.978821 13.3877L0.527865 13.1717C0.463452 13.3062 0.425134 13.465 0.445611 13.6372C0.466171 13.8101 0.541227 13.9563 0.638135 14.0725L1.02219 13.7524ZM0.978821 13.3877L1.42978 13.6036L1.52488 13.405L1.07392 13.1891L0.622967 12.9731L0.527865 13.1717L0.978821 13.3877ZM1.07392 13.1891L1.52488 13.405L1.61998 13.2064L1.16902 12.9905L0.718068 12.7745L0.622967 12.9731L1.07392 13.1891ZM1.16902 12.9905L1.61998 13.2064C1.75189 12.931 1.74746 12.6277 1.58807 12.356L1.1568 12.6089L0.725529 12.8619C0.72384 12.8591 0.7147 12.8407 0.713776 12.8118C0.712878 12.7838 0.720488 12.7695 0.718068 12.7745L1.16902 12.9905ZM1.1568 12.6089L1.58807 12.356L1.48075 12.173L1.04948 12.426L0.618204 12.679L0.725529 12.8619L1.1568 12.6089ZM1.04948 12.426L1.48075 12.173L1.37343 11.99L0.942153 12.243L0.51088 12.496L0.618204 12.679L1.04948 12.426ZM0.942153 12.243L1.37343 11.99C1.33189 11.9192 1.31104 11.8559 1.30291 11.7981L0.807778 11.8677L0.312648 11.9373C0.340583 12.136 0.409317 12.3229 0.51088 12.496L0.942153 12.243ZM0.807778 11.8677L1.30291 11.7981L1.27586 11.6057L0.780727 11.6753L0.285597 11.7449L0.312648 11.9373L0.807778 11.8677ZM0.780727 11.6753L1.27586 11.6057L1.24881 11.4133L0.753677 11.4829L0.258547 11.5525L0.285597 11.7449L0.780727 11.6753ZM0.753677 11.4829L1.24881 11.4133C1.24528 11.3882 1.2473 11.3635 1.265 11.3272L0.81556 11.1081L0.366119 10.889C0.265242 11.0959 0.226004 11.321 0.258547 11.5525L0.753677 11.4829ZM0.81556 11.1081L1.265 11.3272L1.35394 11.1447L0.904494 10.9256L0.455053 10.7065L0.366119 10.889L0.81556 11.1081ZM0.904494 10.9256L1.35394 11.1447L1.44287 10.9623L0.993428 10.7432L0.543987 10.5241L0.455053 10.7065L0.904494 10.9256ZM0.993428 10.7432L1.44287 10.9623C1.53634 10.7705 1.58286 10.5639 1.5745 10.3487L1.07488 10.3681L0.575254 10.3875C0.576872 10.4292 0.569093 10.4726 0.543987 10.5241L0.993428 10.7432ZM1.07488 10.3681L1.5745 10.3487L1.56701 10.156L1.06739 10.1754L0.567769 10.1948L0.575254 10.3875L1.07488 10.3681ZM1.06739 10.1754L1.56701 10.156L1.55953 9.96329L1.05991 9.9827L0.560284 10.0021L0.567769 10.1948L1.06739 10.1754ZM1.05991 9.9827L1.55953 9.96329C1.55807 9.92573 1.56524 9.89302 1.58514 9.85627L1.14546 9.61818L0.705785 9.3801C0.601633 9.57244 0.551762 9.78274 0.560284 10.0021L1.05991 9.9827ZM1.14546 9.61818L1.58514 9.85627L1.67818 9.68444L1.2385 9.44636L0.798827 9.20828L0.705785 9.3801L1.14546 9.61818ZM1.2385 9.44636L1.67818 9.68444L1.77122 9.51262L1.33155 9.27454L0.891869 9.03645L0.798827 9.20828L1.2385 9.44636ZM1.33155 9.27454L1.77122 9.51262C1.83858 9.38824 1.90066 9.26361 1.95737 9.13874L1.50211 8.93201L1.04685 8.72527C1.00019 8.82801 0.948571 8.93174 0.891869 9.03645L1.33155 9.27454ZM1.50211 8.93201L1.95737 9.13874L2.03489 8.96804L1.57963 8.7613L1.12437 8.55456L1.04685 8.72527L1.50211 8.93201ZM1.57963 8.7613L2.03489 8.96804L2.11241 8.79733L1.65715 8.59059L1.20189 8.38385L1.12437 8.55456L1.57963 8.7613ZM1.65715 8.59059L2.11241 8.79733C2.19817 8.60848 2.23451 8.40739 2.22884 8.20235L1.72903 8.21619L1.22922 8.23002C1.23106 8.29658 1.21949 8.3451 1.20189 8.38385L1.65715 8.59059ZM1.72903 8.21619L2.22884 8.20235L2.2232 7.99866L1.72339 8.01249L1.22358 8.02633L1.22922 8.23002L1.72903 8.21619ZM1.72339 8.01249L2.2232 7.99866L2.21756 7.79496L1.71775 7.8088L1.21795 7.82263L1.22358 8.02633L1.72339 8.01249ZM1.71775 7.8088L2.21756 7.79496C2.21546 7.71908 2.22676 7.65523 2.24764 7.59888L1.77879 7.42516L1.30993 7.25145C1.24192 7.43501 1.21253 7.62692 1.21795 7.82263L1.71775 7.8088ZM1.77879 7.42516L2.24764 7.59888L2.31431 7.41894L1.84546 7.24522L1.3766 7.07151L1.30993 7.25145L1.77879 7.42516ZM1.84546 7.24522L2.31431 7.41894L2.38098 7.239L1.91213 7.06528L1.44327 6.89157L1.3766 7.07151L1.84546 7.24522ZM1.91213 7.06528L2.38098 7.239C2.37971 7.24243 2.37771 7.24662 2.37499 7.25084C2.37229 7.25504 2.3699 7.25771 2.3688 7.25881C2.36657 7.26104 2.37332 7.2533 2.39932 7.24121L2.18849 6.78783L1.97767 6.33445C1.74453 6.44286 1.54265 6.62337 1.44327 6.89157L1.91213 7.06528ZM2.18849 6.78783L2.39932 7.24121L2.60901 7.14371L2.39819 6.69032L2.18737 6.23694L1.97767 6.33445L2.18849 6.78783ZM2.39819 6.69032L2.60901 7.14371L2.81871 7.0462L2.60789 6.59282L2.39706 6.13944L2.18737 6.23694L2.39819 6.69032ZM2.60789 6.59282L2.81871 7.0462C3.10387 6.9136 3.3062 6.66289 3.3323 6.32248L2.83376 6.28426L2.33523 6.24604C2.33617 6.23376 2.34259 6.20322 2.36575 6.17158C2.3874 6.14201 2.40639 6.1351 2.39706 6.13944L2.60789 6.59282ZM2.83376 6.28426L3.3323 6.32248L3.34848 6.11143L2.84995 6.07321L2.35141 6.03499L2.33523 6.24604L2.83376 6.28426ZM2.84995 6.07321L3.34848 6.11143L3.36466 5.90038L2.86613 5.86216L2.36759 5.82394L2.35141 6.03499L2.84995 6.07321ZM2.86613 5.86216L3.36466 5.90038C3.36966 5.83519 3.38626 5.79659 3.40371 5.77042L2.98769 5.49305L2.57168 5.21568C2.44862 5.40026 2.38417 5.60773 2.36759 5.82394L2.86613 5.86216ZM2.98769 5.49305L3.40371 5.77042L3.50909 5.61236L3.09308 5.33499L2.67707 5.05762L2.57168 5.21568L2.98769 5.49305ZM3.09308 5.33499L3.50909 5.61236L3.61448 5.45429L3.19847 5.17692L2.78245 4.89955L2.67707 5.05762L3.09308 5.33499ZM3.19847 5.17692L3.61448 5.45429C3.68578 5.34735 3.75696 5.23928 3.828 5.1301L3.40892 4.8574L2.98983 4.5847C2.92079 4.6908 2.85166 4.79575 2.78245 4.89955L3.19847 5.17692ZM3.40892 4.8574L3.828 5.1301L3.93307 4.96864L3.51398 4.69594L3.09489 4.42323L2.98983 4.5847L3.40892 4.8574ZM3.51398 4.69594L3.93307 4.96864L4.03813 4.80717L3.61905 4.53447L3.19996 4.26177L3.09489 4.42323L3.51398 4.69594ZM3.61905 4.53447L4.03813 4.80717C4.05693 4.77829 4.08194 4.7543 4.12474 4.73328L3.90428 4.2845L3.68382 3.83573C3.4864 3.93271 3.32125 4.07537 3.19996 4.26177L3.61905 4.53447ZM3.90428 4.2845L4.12474 4.73328L4.3049 4.64477L4.08444 4.196L3.86398 3.74722L3.68382 3.83573L3.90428 4.2845ZM4.08444 4.196L4.3049 4.64477L4.48507 4.55626L4.26461 4.10749L4.04415 3.65872L3.86398 3.74722L4.08444 4.196ZM4.26461 4.10749L4.48507 4.55626C4.66112 4.46978 4.81683 4.35308 4.94612 4.2051L4.56959 3.87613L4.19305 3.54716C4.15592 3.58966 4.10832 3.62719 4.04415 3.65872L4.26461 4.10749ZM4.56959 3.87613L4.94612 4.2051L5.07093 4.06224L4.6944 3.73327L4.31786 3.4043L4.19305 3.54716L4.56959 3.87613ZM4.6944 3.73327L5.07093 4.06224L5.19574 3.91938L4.81921 3.59041L4.44267 3.26144L4.31786 3.4043L4.6944 3.73327ZM4.81921 3.59041L5.19574 3.91938C5.25687 3.84941 5.32392 3.78675 5.39719 3.73096L5.09432 3.33313L4.79146 2.9353C4.66433 3.03208 4.54796 3.14093 4.44267 3.26144L4.81921 3.59041ZM5.09432 3.33313L5.39719 3.73096L5.54749 3.61654L5.24463 3.2187L4.94176 2.82087L4.79146 2.9353L5.09432 3.33313ZM5.24463 3.2187L5.54749 3.61654L5.6978 3.50211L5.39493 3.10428L5.09206 2.70645L4.94176 2.82087L5.24463 3.2187ZM5.39493 3.10428L5.6978 3.50211C5.78329 3.43703 5.87205 3.37692 5.96416 3.32174L5.7072 2.89282L5.45024 2.4639C5.32639 2.5381 5.20697 2.61897 5.09206 2.70645L5.39493 3.10428ZM5.7072 2.89282L5.96416 3.32174L6.12612 3.22471L5.86916 2.79579L5.61221 2.36687L5.45024 2.4639L5.7072 2.89282ZM5.86916 2.79579L6.12612 3.22471L6.28809 3.12768L6.03113 2.69876L5.77417 2.26984L5.61221 2.36687L5.86916 2.79579ZM6.03113 2.69876L6.28809 3.12768C6.38221 3.0713 6.47863 3.01972 6.5774 2.97291L6.36327 2.52108L6.14913 2.06926C6.02101 2.12998 5.89601 2.19685 5.77417 2.26984L6.03113 2.69876ZM6.36327 2.52108L6.5774 2.97291L6.74758 2.89225L6.53344 2.44043L6.3193 1.9886L6.14913 2.06926L6.36327 2.52108ZM6.53344 2.44043L6.74758 2.89225L6.91775 2.8116L6.70361 2.35978L6.48948 1.90795L6.3193 1.9886L6.53344 2.44043ZM6.70361 2.35978L6.91775 2.8116C7.01538 2.76533 7.1149 2.72443 7.21639 2.68885L7.05096 2.21701L6.88553 1.74517C6.75079 1.79241 6.61875 1.84669 6.48948 1.90795L6.70361 2.35978ZM7.05096 2.21701L7.21639 2.68885L7.39356 2.62673L7.22813 2.15489L7.0627 1.68305L6.88553 1.74517L7.05096 2.21701ZM7.22813 2.15489L7.39356 2.62673L7.57073 2.56461L7.4053 2.09277L7.23987 1.62094L7.0627 1.68305L7.22813 2.15489ZM7.4053 2.09277L7.57073 2.56461C7.70537 2.51741 7.83692 2.46336 7.96531 2.40245L7.75101 1.9507L7.53672 1.49895C7.44038 1.54466 7.34145 1.58532 7.23987 1.62094L7.4053 2.09277ZM7.75101 1.9507L7.96531 2.40245L8.13386 2.3225L7.91956 1.87075L7.70527 1.419L7.53672 1.49895L7.75101 1.9507ZM7.91956 1.87075L8.13386 2.3225L8.3024 2.24255L8.08811 1.7908L7.87382 1.33905L7.70527 1.419L7.91956 1.87075ZM8.08811 1.7908L8.3024 2.24255C8.40347 2.19461 8.50637 2.15044 8.61113 2.11003L8.4312 1.64353L8.25128 1.17702C8.12331 1.22638 7.99748 1.28039 7.87382 1.33905L8.08811 1.7908ZM8.4312 1.64353L8.61113 2.11003L8.78567 2.04271L8.60575 1.57621L8.42582 1.1097L8.25128 1.17702L8.4312 1.64353ZM8.60575 1.57621L8.78567 2.04271L8.96022 1.97539L8.78029 1.50889L8.60037 1.04238L8.42582 1.1097L8.60575 1.57621ZM8.78029 1.50889L8.96022 1.97539C9.01902 1.95272 9.08102 1.94072 9.14942 1.94025L9.14598 1.44026L9.14255 0.940269C8.95609 0.941549 8.7743 0.975302 8.60037 1.04238L8.78029 1.50889ZM9.14598 1.44026L9.14942 1.94025L9.34056 1.93893L9.33713 1.43895L9.33369 0.938957L9.14255 0.940269L9.14598 1.44026ZM9.33713 1.43895L9.34056 1.93893L9.5317 1.93762L9.52827 1.43763L9.52484 0.937645L9.33369 0.938957L9.33713 1.43895ZM9.52827 1.43763L9.5317 1.93762C9.69959 1.93647 9.86468 1.91512 10.0258 1.87271L9.89855 1.38918L9.77129 0.905642C9.69357 0.926097 9.61181 0.937048 9.52484 0.937645L9.52827 1.43763ZM9.89855 1.38918L10.0258 1.87271L10.2049 1.82557L10.0777 1.34203L9.95042 0.858498L9.77129 0.905642L9.89855 1.38918ZM10.0777 1.34203L10.2049 1.82557L10.3841 1.77842L10.2568 1.29489L10.1296 0.811353L9.95042 0.858498L10.0777 1.34203ZM10.2568 1.29489L10.3841 1.77842C10.4546 1.75986 10.5261 1.75215 10.6003 1.75538L10.6221 1.25586L10.6438 0.756331C10.4698 0.748746 10.2978 0.767061 10.1296 0.811353L10.2568 1.29489ZM10.6221 1.25586L10.6003 1.75538L10.7864 1.7635L10.8082 1.26397L10.8299 0.764445L10.6438 0.756331L10.6221 1.25586ZM10.8082 1.26397L10.7864 1.7635L10.9725 1.77161L10.9943 1.27208L11.0161 0.772558L10.8299 0.764445L10.8082 1.26397ZM10.9943 1.27208L10.9725 1.77161C11.2239 1.78257 11.4517 1.70043 11.6454 1.56765L11.3627 1.15524L11.08 0.742844C11.054 0.760662 11.0367 0.767639 11.0283 0.770328C11.0206 0.772755 11.0174 0.772616 11.0161 0.772558L10.9943 1.27208ZM11.3627 1.15524L11.6454 1.56765L11.8276 1.44269L11.5449 1.03029L11.2622 0.617892L11.08 0.742844L11.3627 1.15524ZM11.5449 1.03029L11.8276 1.44269L12.0099 1.31774L11.7272 0.90534L11.4445 0.492939L11.2622 0.617892L11.5449 1.03029ZM11.7272 0.90534L12.0099 1.31774C12.0676 1.27821 12.1061 1.26986 12.1306 1.26845L12.1018 0.769281L12.0729 0.270113C11.841 0.283508 11.6299 0.365864 11.4445 0.492939L11.7272 0.90534ZM12.1018 0.769281L12.1306 1.26845L12.3229 1.25734L12.294 0.758175L12.2652 0.259007L12.0729 0.270113L12.1018 0.769281ZM12.294 0.758175L12.3229 1.25734L12.5151 1.24624L12.4863 0.747068L12.4575 0.2479L12.2652 0.259007L12.294 0.758175ZM12.4863 0.747068L12.5151 1.24624C12.5171 1.24612 12.5182 1.24613 12.5215 1.24719C12.5256 1.24852 12.5384 1.25337 12.5598 1.26908L12.8558 0.866059L13.1517 0.463035C12.9538 0.317741 12.718 0.232849 12.4575 0.2479L12.4863 0.747068ZM12.8558 0.866059L12.5598 1.26908L12.737 1.39918L13.0329 0.996157L13.3289 0.593133L13.1517 0.463035L12.8558 0.866059ZM13.0329 0.996157L12.737 1.39918L12.9142 1.52928L13.2101 1.12625L13.506 0.72323L13.3289 0.593133L13.0329 0.996157ZM13.2101 1.12625L12.9142 1.52928C13.0987 1.66473 13.3149 1.75413 13.5565 1.76257L13.574 1.26288L13.5914 0.763181C13.5842 0.762927 13.5578 0.761244 13.506 0.72323L13.2101 1.12625ZM13.574 1.26288L13.5565 1.76257L13.7432 1.7691L13.7607 1.2694L13.7781 0.769706L13.5914 0.763181L13.574 1.26288ZM13.7607 1.2694L13.7432 1.7691L13.9299 1.77562L13.9474 1.27593L13.9648 0.77623L13.7781 0.769706L13.7607 1.2694ZM13.9474 1.27593L13.9299 1.77562C14.0848 1.78104 14.2422 1.77236 14.4014 1.75075L14.3342 1.25529L14.267 0.759831C14.1594 0.774435 14.0588 0.779515 13.9648 0.77623L13.9474 1.27593ZM14.3342 1.25529L14.4014 1.75075L14.6016 1.72359L14.5344 1.22813L14.4671 0.732672L14.267 0.759831L14.3342 1.25529ZM14.5344 1.22813L14.6016 1.72359L14.8017 1.69643L14.7345 1.20097L14.6673 0.705513L14.4671 0.732672L14.5344 1.22813ZM14.7345 1.20097L14.8017 1.69643C14.7928 1.69764 14.7698 1.69797 14.7426 1.68756C14.7168 1.6777 14.7078 1.66602 14.7132 1.6719L15.0815 1.33378L15.4498 0.995667C15.2511 0.779105 14.9767 0.663521 14.6673 0.705513L14.7345 1.20097ZM15.0815 1.33378L14.7132 1.6719L14.86 1.83187L15.2283 1.49376L15.5967 1.15564L15.4498 0.995667L15.0815 1.33378ZM15.2283 1.49376L14.86 1.83187L15.0068 1.99184L15.3752 1.65373L15.7435 1.31561L15.5967 1.15564L15.2283 1.49376ZM15.3752 1.65373L15.0068 1.99184C15.179 2.17937 15.4055 2.30612 15.676 2.32725L15.7149 1.82877L15.7539 1.33029C15.7537 1.33028 15.7551 1.33039 15.7574 1.33105C15.7598 1.33171 15.7616 1.33251 15.7626 1.333C15.7649 1.33421 15.758 1.3314 15.7435 1.31561L15.3752 1.65373ZM15.7149 1.82877L15.676 2.32725L15.8689 2.34232L15.9078 1.84384L15.9468 1.34536L15.7539 1.33029L15.7149 1.82877ZM15.9078 1.84384L15.8689 2.34232L16.0617 2.35739L16.1007 1.85891L16.1396 1.36043L15.9468 1.34536L15.9078 1.84384ZM16.1007 1.85891L16.0617 2.35739C16.0848 2.35919 16.0972 2.36452 16.1138 2.37885L16.4398 1.99974L16.7658 1.62063C16.5875 1.46728 16.3738 1.37873 16.1396 1.36043L16.1007 1.85891ZM16.4398 1.99974L16.1138 2.37885L16.2601 2.50461L16.5861 2.1255L16.9121 1.74639L16.7658 1.62063L16.4398 1.99974ZM16.5861 2.1255L16.2601 2.50461L16.4063 2.63037L16.7323 2.25126L17.0583 1.87215L16.9121 1.74639L16.5861 2.1255ZM16.7323 2.25126L16.4063 2.63037C16.6066 2.8026 16.849 2.87733 17.0987 2.8749L17.0938 2.37492L17.0889 1.87495C17.0668 1.87516 17.0579 1.87206 17.0577 1.87197C17.0573 1.87185 17.0578 1.872 17.0586 1.87245C17.0594 1.8729 17.0593 1.873 17.0583 1.87215L16.7323 2.25126ZM17.0938 2.37492L17.0987 2.8749L17.3139 2.8728L17.309 2.37283L17.3041 1.87285L17.0889 1.87495L17.0938 2.37492ZM17.309 2.37283L17.3139 2.8728L17.5291 2.87071L17.5242 2.37073L17.5194 1.87075L17.3041 1.87285L17.309 2.37283ZM17.5242 2.37073L17.5291 2.87071C17.5976 2.87004 17.6393 2.88382 17.6678 2.89942L17.9079 2.46083L18.148 2.02224C17.9519 1.91491 17.7379 1.86863 17.5194 1.87075L17.5242 2.37073ZM17.9079 2.46083L17.6678 2.89942L17.8362 2.99162L18.0763 2.55303L18.3164 2.11443L18.148 2.02224L17.9079 2.46083ZM18.0763 2.55303L17.8362 2.99162L18.0047 3.08382L18.2447 2.64522L18.4848 2.20663L18.3164 2.11443L18.0763 2.55303ZM18.2447 2.64522L18.0047 3.08382C18.0136 3.08871 18.0308 3.09922 18.0518 3.14372L18.5042 2.93085L18.9566 2.71797C18.8562 2.50457 18.7005 2.32467 18.4848 2.20663L18.2447 2.64522ZM18.5042 2.93085L18.0518 3.14372L18.1428 3.33715L18.5952 3.12427L19.0476 2.91139L18.9566 2.71797L18.5042 2.93085ZM18.5952 3.12427L18.1428 3.33715L18.2338 3.53057L18.6862 3.3177L19.1386 3.10482L19.0476 2.91139L18.5952 3.12427ZM18.6862 3.3177L18.2338 3.53057C18.3302 3.73544 18.4753 3.91246 18.6761 4.03581L18.9378 3.60976L19.1995 3.18372C19.1862 3.17555 19.1636 3.15785 19.1386 3.10482L18.6862 3.3177ZM18.9378 3.60976L18.6761 4.03581L18.8367 4.13445L19.0984 3.7084L19.3601 3.28236L19.1995 3.18372L18.9378 3.60976ZM19.0984 3.7084L18.8367 4.13445L18.9973 4.23309L19.259 3.80705L19.5207 3.381L19.3601 3.28236L19.0984 3.7084ZM19.259 3.80705L18.9973 4.23309C19.1115 4.30326 19.2294 4.37169 19.3509 4.43842L19.5916 4.00016L19.8323 3.56191C19.7244 3.50267 19.6206 3.44235 19.5207 3.381L19.259 3.80705ZM19.5916 4.00016L19.3509 4.43842L19.5229 4.53289L19.7636 4.09464L20.0043 3.65639L19.8323 3.56191L19.5916 4.00016ZM19.7636 4.09464L19.5229 4.53289L19.6949 4.62737L19.9356 4.18911L20.1763 3.75086L20.0043 3.65639L19.7636 4.09464ZM19.9356 4.18911L19.6949 4.62737C19.6906 4.62501 19.6837 4.62053 19.6758 4.61331C19.6678 4.60602 19.6609 4.59778 19.6554 4.58948C19.6441 4.57228 19.6455 4.56484 19.6479 4.58015L20.1419 4.50292L20.6359 4.42569C20.5927 4.14924 20.4459 3.89891 20.1763 3.75086L19.9356 4.18911ZM20.1419 4.50292L19.6479 4.58015L19.6822 4.79948L20.1762 4.72225L20.6702 4.64502L20.6359 4.42569L20.1419 4.50292ZM20.1762 4.72225L19.6822 4.79948L19.7165 5.0188L20.2105 4.94158L20.7045 4.86435L20.6702 4.64502L20.1762 4.72225ZM20.2105 4.94158L19.7165 5.0188C19.7536 5.25632 19.8559 5.48361 20.0495 5.65761L20.3837 5.2857L20.7179 4.91379C20.7194 4.91513 20.7194 4.91604 20.7176 4.91252C20.7153 4.90804 20.7091 4.89379 20.7045 4.86435L20.2105 4.94158ZM20.3837 5.2857L20.0495 5.65761L20.1884 5.7824L20.5226 5.41049L20.8568 5.03859L20.7179 4.91379L20.3837 5.2857ZM20.5226 5.41049L20.1884 5.7824L20.3272 5.9072L20.6614 5.53529L20.9956 5.16338L20.8568 5.03859L20.5226 5.41049ZM20.6614 5.53529L20.3272 5.9072C20.3782 5.95302 20.4187 6.00426 20.4506 6.0625L20.8892 5.82238L21.3277 5.58226C21.2411 5.4241 21.1298 5.28395 20.9956 5.16338L20.6614 5.53529ZM20.8892 5.82238L20.4506 6.0625L20.5395 6.2248L20.978 5.98468L21.4166 5.74457L21.3277 5.58226L20.8892 5.82238ZM20.978 5.98468L20.5395 6.2248L20.6283 6.3871L21.0669 6.14699L21.5055 5.90687L21.4166 5.74457L20.978 5.98468ZM21.0669 6.14699L20.6283 6.3871C20.7086 6.53366 20.807 6.6683 20.9224 6.7907L21.2863 6.44781L21.6502 6.10491C21.5915 6.04262 21.5437 5.97672 21.5055 5.90687L21.0669 6.14699ZM21.2863 6.44781L20.9224 6.7907L21.0529 6.92922L21.4168 6.58633L21.7807 6.24343L21.6502 6.10491L21.2863 6.44781ZM21.4168 6.58633L21.0529 6.92922L21.1834 7.06775L21.5473 6.72485L21.9112 6.38196L21.7807 6.24343L21.4168 6.58633ZM21.5473 6.72485L21.1834 7.06775C21.2015 7.08695 21.2113 7.10542 21.2164 7.13577L21.7096 7.05355L22.2028 6.97134C22.1655 6.74812 22.0672 6.54745 21.9112 6.38196L21.5473 6.72485ZM21.7096 7.05355L21.2164 7.13577L21.2481 7.32595L21.7413 7.24373L22.2345 7.16152L22.2028 6.97134L21.7096 7.05355ZM21.7413 7.24373L21.2481 7.32595L21.2798 7.51613L21.773 7.43391L22.2662 7.3517L22.2345 7.16152L21.7413 7.24373ZM21.773 7.43391L21.2798 7.51613C21.3177 7.74387 21.4205 7.94542 21.577 8.11166L21.941 7.76885L22.305 7.42604C22.2798 7.39927 22.2705 7.37752 22.2662 7.3517L21.773 7.43391ZM21.941 7.76885L21.577 8.11166L21.7134 8.25642L22.0774 7.91361L22.4413 7.5708L22.305 7.42604L21.941 7.76885ZM22.0774 7.91361L21.7134 8.25642L21.8497 8.40118L22.2137 8.05837L22.5777 7.71556L22.4413 7.5708L22.0774 7.91361ZM22.2137 8.05837L21.8497 8.40118C21.8783 8.43149 21.8878 8.45504 21.8921 8.47862L22.384 8.38869L22.8758 8.29876C22.8349 8.07493 22.7309 7.87827 22.5777 7.71556L22.2137 8.05837ZM22.384 8.38869L21.8921 8.47862L21.9261 8.66418L22.4179 8.57425L22.9097 8.48431L22.8758 8.29876L22.384 8.38869ZM22.4179 8.57425L21.9261 8.66418L21.96 8.84974L22.4518 8.7598L22.9437 8.66987L22.9097 8.48431L22.4179 8.57425ZM22.4518 8.7598L21.96 8.84974C21.9869 8.99711 22.0243 9.14157 22.0721 9.28291L22.5458 9.12264L23.0194 8.96237C22.9872 8.86733 22.962 8.7699 22.9437 8.66987L22.4518 8.7598ZM22.5458 9.12264L22.0721 9.28291L22.1321 9.46019L22.6057 9.29992L23.0794 9.13965L23.0194 8.96237L22.5458 9.12264ZM22.6057 9.29992L22.1321 9.46019L22.1921 9.63748L22.6657 9.4772L23.1394 9.31693L23.0794 9.13965L22.6057 9.29992ZM22.6657 9.4772L22.1921 9.63748C22.2249 9.73441 22.2511 9.83306 22.2706 9.93356L22.7614 9.83825L23.2522 9.74294C23.2242 9.59842 23.1865 9.45636 23.1394 9.31693L22.6657 9.4772ZM22.7614 9.83825L22.2706 9.93356L22.3063 10.1173L22.7971 10.022L23.2879 9.92671L23.2522 9.74294L22.7614 9.83825ZM22.7971 10.022L22.3063 10.1173L22.342 10.3011L22.8328 10.2058L23.3236 10.1105L23.2879 9.92671L22.7971 10.022ZM22.8328 10.2058L22.342 10.3011C22.3762 10.4776 22.4389 10.6464 22.5254 10.8068L22.9655 10.5696L23.4056 10.3324C23.3627 10.2527 23.3369 10.179 23.3236 10.1105L22.8328 10.2058ZM22.9655 10.5696L22.5254 10.8068L22.6224 10.9868L23.0625 10.7496L23.5027 10.5124L23.4056 10.3324L22.9655 10.5696ZM23.0625 10.7496L22.6224 10.9868L22.7194 11.1668L23.1595 10.9296L23.5997 10.6924L23.5027 10.5124L23.0625 10.7496ZM23.1595 10.9296L22.7194 11.1668C22.715 11.1587 22.7087 11.1444 22.7045 11.1244C22.7001 11.1041 22.699 11.0828 22.7011 11.0624C22.7053 11.021 22.72 11.0049 22.7113 11.0174L23.1214 11.3034L23.5316 11.5894C23.6129 11.4727 23.679 11.3297 23.696 11.1638C23.7133 10.9931 23.6751 10.8323 23.5997 10.6924L23.1595 10.9296ZM23.1214 11.3034L22.7113 11.0174L22.5762 11.2111L22.9863 11.4971L23.3965 11.7831L23.5316 11.5894L23.1214 11.3034ZM22.9863 11.4971L22.5762 11.2111L22.4411 11.4049L22.8512 11.6909L23.2613 11.9769L23.3965 11.7831L22.9863 11.4971ZM22.8512 11.6909L22.4411 11.4049C22.3903 11.4778 22.3218 11.5847 22.2872 11.705C22.27 11.7645 22.2441 11.8836 22.2827 12.0225C22.3299 12.1926 22.4523 12.3172 22.5989 12.3767L22.7871 11.9135L22.9753 11.4503C23.0284 11.4718 23.0884 11.5082 23.1416 11.5663C23.1953 11.6251 23.2287 11.6916 23.2462 11.755C23.2783 11.8706 23.2545 11.9594 23.2481 11.9819C23.2348 12.0279 23.2221 12.0332 23.2613 11.9769L22.8512 11.6909ZM22.7871 11.9135L22.5989 12.3767L22.6698 12.4055L22.858 11.9423L23.0463 11.4791L22.9753 11.4503L22.7871 11.9135ZM22.858 11.9423L22.6698 12.4055L22.7408 12.4344L22.929 11.9712L23.1172 11.5079L23.0463 11.4791L22.858 11.9423ZM22.929 11.9712L22.7408 12.4344C22.5675 12.364 22.5132 12.2213 22.5018 12.1832C22.4902 12.1445 22.4954 12.132 22.4941 12.1712L22.9939 12.1875L23.4936 12.2039C23.4964 12.1181 23.4929 12.007 23.4597 11.8961C23.4267 11.7859 23.3379 11.5976 23.1172 11.5079L22.929 11.9712ZM22.9939 12.1875L22.4941 12.1712L22.488 12.3588L22.9878 12.3751L23.4875 12.3914L23.4936 12.2039L22.9939 12.1875Z" fill="#80A281"/>
<rect width="8.02083" height="7.44792" transform="translate(8.10419 8.44812)" fill="#80A281"/>
<circle cx="9.10419" cy="9.92206" r="0.5" fill="#3C3C3C" stroke="#3C3C3C"/>
<circle cx="15.125" cy="9.92206" r="0.5" fill="#3C3C3C" stroke="#3C3C3C"/>
<path d="M8.61462 12.9221C8.61462 12.9221 8.61462 15.4221 12.1146 15.4221C15.6146 15.4221 15.6146 12.9221 15.6146 12.9221" stroke="#3C3C3C" stroke-linecap="round"/>
</g>
<defs>
<clipPath id="clip0_379_3000">
<rect width="24" height="24" fill="white"/>
</clipPath>
</defs>
</svg>
