<svg width="24" height="24" viewBox="0 0 24 24" fill="none" xmlns="http://www.w3.org/2000/svg">
<path d="M12 2C18.2999 2 23 7.02117 23 13C23 13.5523 22.5523 14 22 14H11.4375V18.8164C11.4376 19.486 11.6099 20.0389 11.8984 20.4023C12.1594 20.731 12.5876 21 13.3545 21C14.1251 21 14.6093 20.728 14.9219 20.3428C15.2575 19.929 15.4795 19.2767 15.4795 18.4053C15.4795 17.853 15.9272 17.4053 16.4795 17.4053C17.0317 17.4053 17.4795 17.853 17.4795 18.4053C17.4795 19.5878 17.1804 20.7325 16.4746 21.6025C15.7456 22.5011 14.6671 23 13.3545 23C12.0382 23 11.0077 22.4988 10.3311 21.6465C9.68215 20.829 9.43757 19.79 9.4375 18.8164V14H2C1.44772 14 1 13.5523 1 13C1 7.02117 5.70013 2.00005 12 2Z" fill="#6568FF"/>
<path d="M12.5592 2.07392L12.6247 1.57823L12.5592 2.07392ZM13.1265 2.05718L13.0725 1.5601L13.1265 2.05718ZM13.317 2.03649L13.371 2.53356L13.317 2.03649ZM13.6954 2.03739L13.7525 1.54066L13.6954 2.03739ZM13.8834 2.05898L13.8263 2.55572L13.8834 2.05898ZM14.0714 2.08058L14.0143 2.57731L14.0714 2.08058ZM14.4273 2.20689L14.1627 2.63113L14.4273 2.20689ZM14.7631 2.41634L14.4984 2.84058L14.7631 2.41634ZM15.0998 2.59895L14.8904 3.05298L15.0998 2.59895ZM15.4375 2.75472L15.6469 2.30069L15.4375 2.75472ZM15.7956 2.85575L15.7349 3.35205L15.7956 2.85575ZM16.562 2.94665L16.5083 3.44376L16.562 2.94665ZM16.9592 2.9895L16.9055 3.48662L16.9592 2.9895ZM17.3336 3.08912L17.1304 3.54599L17.3336 3.08912ZM17.5094 3.16731L17.7126 2.71044L17.5094 3.16731ZM17.9629 3.51344L18.4035 3.27723L17.9629 3.51344ZM18.1663 3.89293L17.7256 4.12914L18.1663 3.89293ZM18.6771 4.16542L18.7762 3.67535L18.6771 4.16542ZM18.8817 4.2068L18.7826 4.69688L18.8817 4.2068ZM19.216 4.38946L18.8478 4.72764L19.216 4.38946ZM19.3458 4.53074L19.7141 4.19256L19.3458 4.53074ZM19.4755 4.67202L19.1072 5.0102L19.4755 4.67202ZM19.687 4.99662L19.2304 5.20028L19.687 4.99662ZM19.8505 5.36326L20.3072 5.1596L19.8505 5.36326ZM20.1211 5.63119L20.3256 5.17488L20.1211 5.63119ZM20.4989 5.80041L20.2945 6.25671L20.4989 5.80041ZM20.7435 6.07913L20.2629 6.21704L20.7435 6.07913ZM20.7992 6.27325L21.2798 6.13534L20.7992 6.27325ZM20.8549 6.46736L20.3743 6.60527L20.8549 6.46736ZM21.0333 6.80429L20.6541 7.13019L21.0333 6.80429ZM21.156 6.94711L20.7768 7.27301L21.156 6.94711ZM21.2788 7.08993L21.658 6.76403L21.2788 7.08993ZM21.5531 7.36538L21.8824 6.9891L21.5531 7.36538ZM21.8563 7.63067L21.527 8.00695L21.8563 7.63067ZM22.0434 7.95717L21.5516 8.04736L22.0434 7.95717ZM22.079 8.15103L22.5708 8.06085L22.079 8.15103ZM22.1145 8.3449L21.6227 8.43508L22.1145 8.3449ZM22.1684 8.7324L21.6706 8.77936L22.1684 8.7324ZM22.2049 9.1197L22.7027 9.07274L22.2049 9.1197ZM22.3641 9.46579L21.9971 9.80528L22.3641 9.46579ZM22.5051 9.61824L22.8722 9.27875L22.5051 9.61824ZM22.6461 9.77069L22.279 10.1102L22.6461 9.77069ZM22.8226 10.3058L23.3205 10.2596L22.8226 10.3058ZM22.8403 10.4971L22.3425 10.5432L22.8403 10.4971ZM22.8588 10.8791L23.3588 10.8773L22.8588 10.8791ZM22.8594 11.0698L22.3594 11.0715L22.8594 11.0698ZM22.8601 11.2604L22.3601 11.2622L22.8601 11.2604ZM22.8557 11.6387L22.3559 11.6251L22.8557 11.6387ZM22.8506 11.8264L23.3504 11.84L22.8506 11.8264ZM22.8454 12.014L22.3456 12.0003L22.8454 12.014ZM22.944 12.3863L22.5079 12.631L22.944 12.3863ZM23.0476 12.5711L23.4837 12.3265L23.0476 12.5711ZM23.1513 12.7559L22.7152 13.0005L23.1513 12.7559ZM23.0994 13.0866L22.7573 12.722L23.0994 13.0866ZM22.7884 13.3785L23.1305 13.7431L22.7884 13.3785ZM22.5118 13.6814L22.1159 13.3761L22.5118 13.6814ZM22.2699 13.9952L22.6659 14.3005L22.2699 13.9952ZM21.9564 14.1511L21.9535 14.6511L21.9564 14.1511ZM21.7638 14.15L21.7666 13.65L21.7638 14.15ZM21.5712 14.1489L21.5684 14.6489L21.5712 14.1489ZM21.1912 14.1508L21.1833 13.6508L21.1912 14.1508ZM21.0037 14.1537L21.0115 14.6537L21.0037 14.1537ZM20.8162 14.1567L20.824 14.6566L20.8162 14.1567ZM20.4412 14.0825L20.6314 13.6201L20.4412 14.0825ZM20.0662 13.9282L19.8759 14.3906L20.0662 13.9282ZM19.6912 13.8969L19.5724 13.4112L19.6912 13.8969ZM19.3162 13.9886L19.4349 14.4743L19.3162 13.9886ZM18.9412 14.082L19.0639 14.5667L18.9412 14.082ZM18.5662 14.1769L18.4434 13.6922L18.5662 14.1769ZM18.1912 14.2023L18.1326 14.6989L18.1912 14.2023ZM17.8162 14.1581L17.8747 13.6615L17.8162 14.1581ZM17.0662 13.9011L16.8735 14.3625L17.0662 13.9011ZM16.6912 13.8227L16.6908 14.3227L16.6912 13.8227ZM16.3162 13.8225L16.3158 14.3225L16.3162 13.8225ZM15.9412 13.8428L15.9952 14.3398L15.9412 13.8428ZM15.5662 13.8835L15.5121 13.3865L15.5662 13.8835ZM15.1912 13.8888L15.1509 14.3872L15.1912 13.8888ZM15.0037 13.8737L15.0439 13.3753L15.0037 13.8737ZM14.4412 13.8463L14.449 14.3463L14.4412 13.8463ZM14.0662 13.8522L14.0583 13.3522L14.0662 13.8522ZM13.6912 13.8347L13.7453 13.3376L13.6912 13.8347ZM13.5037 13.8142L13.4495 14.3113L13.5037 13.8142ZM13.3162 13.7938L13.3703 13.2967L13.3162 13.7938ZM12.9412 13.7825L12.9655 14.2819L12.9412 13.7825ZM12.5662 13.8008L12.5418 13.3014L12.5662 13.8008ZM12.1912 13.7982L12.16 14.2973L12.1912 13.7982ZM11.8162 13.7748L11.8473 13.2758L11.8162 13.7748ZM11.653 13.962L11.1567 14.0227L11.653 13.962ZM11.6773 14.161L11.181 14.2216L11.6773 14.161ZM11.7016 14.3599L12.1979 14.2993L11.7016 14.3599ZM11.5872 14.7463L11.9891 15.0438L11.5872 14.7463ZM11.3097 15.1213L10.9077 14.8239L11.3097 15.1213ZM11.2485 15.4963L10.7866 15.6876L11.2485 15.4963ZM11.4038 15.8713L11.8658 15.6801L11.4038 15.8713ZM11.4589 16.2463L11.9553 16.306L11.4589 16.2463ZM11.4175 16.9963L11.9127 16.9272L11.4175 16.9963ZM11.4698 17.3713L10.9746 17.4405L11.4698 17.3713ZM11.44 17.7463L10.9609 17.6033L11.44 17.7463ZM11.328 18.1213L11.8071 18.2644L11.328 18.1213ZM11.2917 18.4979L10.7944 18.5497L11.2917 18.4979ZM11.3311 18.8759L10.8338 18.9277L11.3311 18.8759ZM11.3693 19.2601L11.8671 19.2129L11.3693 19.2601ZM11.4063 19.6505L10.9085 19.6977L11.4063 19.6505ZM11.5765 19.9762L11.9025 19.5971L11.5765 19.9762ZM11.88 20.2372L11.554 20.6163L11.88 20.2372ZM12.1351 20.5621L11.6936 20.7968L12.1351 20.5621ZM12.2384 20.7564L12.6799 20.5217L12.2384 20.7564ZM12.3417 20.9508L11.9002 21.1854L12.3417 20.9508ZM12.6545 21.1073L12.7432 21.5994L12.6545 21.1073ZM13.0737 21.0319L12.985 20.5398L13.0737 21.0319ZM13.455 20.9237L13.2655 20.4611L13.455 20.9237ZM13.7987 20.783L13.9882 21.2456L13.7987 20.783ZM14.1542 20.6841L14.0776 20.19L14.1542 20.6841ZM14.5216 20.6272L14.5981 21.1213L14.5216 20.6272ZM14.8257 20.4522L14.4394 20.1348L14.8257 20.4522ZM15.0665 20.1591L14.6802 19.8417L15.0665 20.1591ZM15.3055 19.8453L15.7134 20.1344L15.3055 19.8453ZM15.5427 19.5105L15.9506 19.7996L15.5427 19.5105ZM15.6337 19.1434L16.129 19.0751L15.6337 19.1434ZM15.5786 18.7438L15.0833 18.8121L15.5786 18.7438ZM15.6014 18.3813L15.1237 18.2336L15.6014 18.3813ZM15.702 18.0561L15.2243 17.9083L15.702 18.0561ZM15.8786 17.7577L16.2446 18.0984L15.8786 17.7577ZM16.1312 17.4863L15.7652 17.1456L16.1312 17.4863ZM16.4485 17.3895L16.5485 16.8996L16.4485 17.3895ZM16.8305 17.4675L16.7305 17.9574L16.8305 17.4675ZM17.0576 17.6821L17.5473 17.5811L17.0576 17.6821ZM17.1301 18.0333L16.6404 18.1343L17.1301 18.0333ZM17.3144 18.381L17.6934 18.0549L17.3144 18.381ZM17.6107 18.7253L17.2317 19.0514L17.6107 18.7253ZM17.6722 19.0803L18.1242 19.2942L17.6722 19.0803ZM17.4991 19.4461L17.0472 19.2323L17.4991 19.4461ZM17.3949 19.8228L16.8969 19.7772L17.3949 19.8228ZM17.3772 20.0165L17.8751 20.062L17.3772 20.0165ZM17.3595 20.2102L16.8615 20.1646L17.3595 20.2102ZM17.2742 20.5885L16.8046 20.4167L17.2742 20.5885ZM17.139 20.9578L17.6086 21.1297L17.139 20.9578ZM16.9058 21.2616L17.1976 21.6676L16.9058 21.2616ZM16.7401 21.3806L17.032 21.7866L16.7401 21.3806ZM16.5745 21.4997L16.2827 21.0937L16.5745 21.4997ZM16.2396 21.7017L16.0195 21.2528L16.2396 21.7017ZM16.0703 21.7847L15.8502 21.3358L16.0703 21.7847ZM15.901 21.8677L16.1211 22.3167L15.901 21.8677ZM15.6074 22.0863L15.2389 21.7483L15.6074 22.0863ZM15.3587 22.3574L15.7272 22.6953L15.3587 22.3574ZM15.0837 22.6304L15.4205 22.9998L15.0837 22.6304ZM14.9329 22.7678L14.596 22.3984L14.9329 22.7678ZM14.7821 22.9053L14.4452 22.5358L14.7821 22.9053ZM14.4396 23.092L14.3152 22.6077L14.4396 23.092ZM14.2479 23.1413L14.1235 22.657L14.2479 23.1413ZM14.0561 23.1905L14.1805 23.6748L14.0561 23.1905ZM13.667 23.2438L13.6773 23.7437L13.667 23.2438ZM13.2724 23.2519L13.2622 22.752L13.2724 23.2519ZM12.9027 23.1221L13.2093 22.7271L12.9027 23.1221ZM12.5579 22.8544L12.2513 23.2494L12.5579 22.8544ZM12.2104 22.6772L12.09 23.1625L12.2104 22.6772ZM12.0352 22.6337L12.1555 22.1484L12.0352 22.6337ZM11.8601 22.5903L11.7398 23.0756L11.8601 22.5903ZM11.537 22.4451L11.2536 22.857L11.537 22.4451ZM11.241 22.2415L10.9576 22.6534L11.241 22.2415ZM10.9714 22.0116L11.334 21.6673L10.9714 22.0116ZM10.7282 21.7554L10.3656 22.0997L10.7282 21.7554ZM10.4552 21.5119L10.152 21.9095L10.4552 21.5119ZM10.3038 21.3965L10.607 20.9989L10.3038 21.3965ZM10.1525 21.2811L9.84933 21.6787L10.1525 21.2811ZM9.95497 20.9841L10.4396 20.8609L9.95497 20.9841ZM9.90879 20.8025L9.42421 20.9257L9.90879 20.8025ZM9.86262 20.6209L10.3472 20.4977L9.86262 20.6209ZM9.68506 20.2774L9.29685 20.5925L9.68506 20.2774ZM9.55369 20.1156L9.9419 19.8005L9.55369 20.1156ZM9.42231 19.9537L9.0341 20.2688L9.42231 19.9537ZM9.32303 19.5959L8.8296 19.5151L9.32303 19.5959ZM9.35512 19.3999L8.86169 19.3191L9.35512 19.3999ZM9.38721 19.2039L8.89378 19.1231L9.38721 19.2039ZM9.46858 18.8202L9.95219 18.9472L9.46858 18.8202ZM9.56713 18.4449L9.08352 18.3179L9.56713 18.4449ZM9.63161 18.0697L10.13 18.1101L9.63161 18.0697ZM9.66204 17.6947L9.16368 17.6543L9.66204 17.6947ZM9.66887 17.3197L10.1684 17.2974L9.66887 17.3197ZM9.65211 16.9447L9.15261 16.967L9.65211 16.9447ZM9.33208 15.8197L8.87579 15.6153L9.33208 15.8197ZM9.5001 15.4447L9.04381 15.2403L9.5001 15.4447ZM9.54233 15.0697L9.0543 15.1785L9.54233 15.0697ZM9.45875 14.6947L9.94678 14.5859L9.45875 14.6947ZM9.3614 14.4378L9.75179 14.1254L9.3614 14.4378ZM9.25027 14.2989L8.85988 14.6113L9.25027 14.2989ZM9.00721 14.1019L8.72601 14.5154L9.00721 14.1019ZM8.63221 13.8469L8.91341 13.4334L8.63221 13.8469ZM8.25721 13.7648L8.37499 14.2507L8.25721 13.7648ZM7.88221 13.8557L7.76443 13.3698L7.88221 13.8557ZM7.13221 14.0299L7.24382 14.5173L7.13221 14.0299ZM6.00721 14.0731L6.09202 13.5803L6.00721 14.0731ZM5.63221 14.0085L5.5474 14.5013L5.63221 14.0085ZM5.25721 14.0448L5.42883 14.5144L5.25721 14.0448ZM5.06971 14.1133L4.89809 13.6437L5.06971 14.1133ZM4.50721 14.1715L4.70102 13.7106L4.50721 14.1715ZM4.31971 14.0927L4.51352 13.6318L4.31971 14.0927ZM4.13221 14.0138L3.9384 14.4747L4.13221 14.0138ZM3.75721 13.9565L3.70017 13.4598L3.75721 13.9565ZM3.56971 13.978L3.62674 14.4748L3.56971 13.978ZM3.38221 13.9996L3.32517 13.5028L3.38221 13.9996ZM3.00721 14.0542L3.09403 14.5466L3.00721 14.0542ZM2.63221 14.1203L2.54539 13.6279L2.63221 14.1203ZM2.25645 14.1096L2.14329 14.5966L2.25645 14.1096ZM1.87994 14.0221L1.76678 14.5091L1.87994 14.0221ZM1.58992 13.8351L1.18226 14.1246L1.58992 13.8351ZM1.38638 13.5485L1.79404 13.259L1.38638 13.5485ZM1.21234 13.2451L0.756625 13.4508L1.21234 13.2451ZM1.0678 12.9249L1.52352 12.7192L1.0678 12.9249ZM0.964253 11.8196L0.467241 11.765L0.964253 11.8196ZM0.984904 11.6315L1.48192 11.6861L0.984904 11.6315ZM1.00555 11.4435L0.508542 11.3889L1.00555 11.4435ZM1.06972 10.6833L0.57116 10.6454L1.06972 10.6833ZM1.19378 10.1276L1.67268 10.2713L1.19378 10.1276ZM1.43202 9.60751L1.81672 9.9269L1.43202 9.60751ZM1.68942 9.29748L1.30472 8.97809L1.68942 9.29748ZM1.91 8.57416L1.41641 8.49436L1.91 8.57416ZM2.06802 8.23955L2.44384 8.56933L2.06802 8.23955ZM2.19541 8.09437L2.57123 8.42415L2.19541 8.09437ZM2.3228 7.9492L1.94698 7.61941L2.3228 7.9492ZM2.52304 7.63151L2.98366 7.82603L2.52304 7.63151ZM2.5959 7.45899L2.13529 7.26447L2.5959 7.45899ZM2.66875 7.28648L3.12936 7.481L2.66875 7.28648ZM2.88293 6.98631L2.54778 6.61527L2.88293 6.98631ZM3.02425 6.85866L3.3594 7.22971L3.02425 6.85866ZM3.16557 6.73101L3.50072 7.10206L3.16557 6.73101ZM3.45024 6.00548L2.96402 5.8889L3.45024 6.00548ZM3.66891 5.70822L3.42023 5.27445L3.66891 5.70822ZM4.01069 5.51227L4.25938 5.94604L4.01069 5.51227ZM4.30042 5.26996L3.91442 4.95215L4.30042 5.26996ZM4.5381 4.98127L4.92411 5.29908L4.5381 4.98127ZM4.75132 4.65517L4.30758 4.42475L4.75132 4.65517ZM4.8457 4.47341L5.28945 4.70382L4.8457 4.47341ZM5.23494 4.06381L5.34694 4.5511L5.23494 4.06381ZM5.43543 4.01773L5.32343 3.53044L5.43543 4.01773ZM6.01217 3.85757L6.19257 4.32389L6.01217 3.85757ZM6.36373 3.72157L6.54412 4.1879L6.36373 3.72157ZM6.6604 3.4827L7.06857 3.77149L6.6604 3.4827ZM6.9022 3.14095L6.49404 2.85216L6.9022 3.14095ZM7.21656 2.94094L7.29101 3.43537L7.21656 2.94094ZM7.60348 2.88269L7.52903 2.38826L7.60348 2.88269ZM8.31368 2.63296L8.11737 2.17311L8.31368 2.63296ZM9.07956 2.61336L9.03432 3.11131L9.07956 2.61336ZM9.43543 2.48239L9.09245 2.11857L9.43543 2.48239ZM9.59343 2.33344L9.25045 1.96962L9.59343 2.33344ZM9.75143 2.1845L10.0944 2.54832L9.75143 2.1845ZM10.8589 1.96532L11.0259 2.4366L10.8589 1.96532ZM11.2294 1.83401L11.0624 1.36272L11.2294 1.83401ZM11.561 1.89787L11.2296 2.27226L11.561 1.89787ZM11.8537 2.1569L12.1851 1.78251L11.8537 2.1569ZM12 2.21481L11.5 2.21482L12 2.21481ZM12 2.0716L12.5 2.0716L12 2.0716ZM12.1864 2.02464L12.1209 2.52033L12.1864 2.02464ZM12.3728 2.04928L12.3073 2.54497L12.4937 2.5696L12.5592 2.07392L12.6247 1.57823L12.4383 1.55359L12.3728 2.04928ZM12.5592 2.07392L12.4937 2.5696C12.6583 2.59137 12.8241 2.59297 12.99 2.57494L12.9361 2.07787L12.8821 1.58079C12.7941 1.59035 12.7086 1.58931 12.6247 1.57823L12.5592 2.07392ZM12.9361 2.07787L12.99 2.57494L13.1805 2.55425L13.1265 2.05718L13.0725 1.5601L12.8821 1.58079L12.9361 2.07787ZM13.1265 2.05718L13.1805 2.55425L13.371 2.53356L13.317 2.03649L13.263 1.53941L13.0725 1.5601L13.1265 2.05718ZM13.317 2.03649L13.371 2.53356C13.4615 2.52373 13.5504 2.52402 13.6383 2.53413L13.6954 2.03739L13.7525 1.54066C13.5898 1.52197 13.4264 1.52166 13.263 1.53941L13.317 2.03649ZM13.6954 2.03739L13.6383 2.53413L13.8263 2.55572L13.8834 2.05898L13.9404 1.56225L13.7525 1.54066L13.6954 2.03739ZM13.8834 2.05898L13.8263 2.55572L14.0143 2.57731L14.0714 2.08058L14.1284 1.58384L13.9404 1.56225L13.8834 2.05898ZM14.0714 2.08058L14.0143 2.57731C14.0626 2.58285 14.1107 2.59874 14.1627 2.63113L14.4273 2.20689L14.6919 1.78265C14.52 1.67542 14.3309 1.60709 14.1284 1.58384L14.0714 2.08058ZM14.4273 2.20689L14.1627 2.63113L14.3306 2.73586L14.5952 2.31162L14.8598 1.88738L14.6919 1.78265L14.4273 2.20689ZM14.5952 2.31162L14.3306 2.73586L14.4984 2.84058L14.7631 2.41634L15.0277 1.9921L14.8598 1.88738L14.5952 2.31162ZM14.7631 2.41634L14.4984 2.84058C14.627 2.92077 14.7576 2.99175 14.8904 3.05298L15.0998 2.59895L15.3092 2.14492C15.2168 2.1023 15.123 2.05154 15.0277 1.9921L14.7631 2.41634ZM15.0998 2.59895L14.8904 3.05298L15.0592 3.13086L15.2687 2.67683L15.4781 2.2228L15.3092 2.14492L15.0998 2.59895ZM15.2687 2.67683L15.0592 3.13086L15.2281 3.20874L15.4375 2.75472L15.6469 2.30069L15.4781 2.2228L15.2687 2.67683ZM15.4375 2.75472L15.2281 3.20874C15.3889 3.28293 15.5586 3.33048 15.7349 3.35205L15.7956 2.85575L15.8563 2.35946C15.7803 2.35015 15.7112 2.33035 15.6469 2.30069L15.4375 2.75472ZM15.7956 2.85575L15.7349 3.35205L15.9241 3.37521L15.9849 2.87891L16.0456 2.38261L15.8563 2.35946L15.7956 2.85575ZM15.9849 2.87891L15.9241 3.37521L16.1134 3.39836L16.1741 2.90207L16.2348 2.40577L16.0456 2.38261L15.9849 2.87891ZM16.1741 2.90207L16.1134 3.39836C16.242 3.4141 16.3737 3.42924 16.5083 3.44376L16.562 2.94665L16.6156 2.44953C16.4855 2.43549 16.3585 2.4209 16.2348 2.40577L16.1741 2.90207ZM16.562 2.94665L16.5083 3.44376L16.7069 3.46519L16.7606 2.96808L16.8142 2.47096L16.6156 2.44953L16.562 2.94665ZM16.7606 2.96808L16.7069 3.46519L16.9055 3.48662L16.9592 2.9895L17.0128 2.49239L16.8142 2.47096L16.7606 2.96808ZM16.9592 2.9895L16.9055 3.48662C16.9883 3.49555 17.0624 3.51575 17.1304 3.54599L17.3336 3.08912L17.5367 2.63225C17.3703 2.55823 17.1948 2.51203 17.0128 2.49239L16.9592 2.9895ZM17.3336 3.08912L17.1304 3.54599L17.3063 3.62419L17.5094 3.16731L17.7126 2.71044L17.5367 2.63225L17.3336 3.08912ZM17.5094 3.16731L17.3063 3.62419L17.4821 3.70238L17.6853 3.24551L17.8884 2.78864L17.7126 2.71044L17.5094 3.16731ZM17.6853 3.24551L17.4821 3.70238C17.4859 3.70404 17.5003 3.7088 17.5222 3.74965L17.9629 3.51344L18.4035 3.27723C18.2898 3.06509 18.1192 2.89123 17.8884 2.78864L17.6853 3.24551ZM17.9629 3.51344L17.5222 3.74965L17.6239 3.9394L18.0646 3.70319L18.5052 3.46698L18.4035 3.27723L17.9629 3.51344ZM18.0646 3.70319L17.6239 3.9394L17.7256 4.12914L18.1663 3.89293L18.6069 3.65672L18.5052 3.46698L18.0646 3.70319ZM18.1663 3.89293L17.7256 4.12914C17.8612 4.38215 18.0858 4.55597 18.3734 4.61413L18.4725 4.12405L18.5717 3.63397C18.5702 3.63367 18.5725 3.63401 18.5776 3.63621C18.5827 3.63847 18.5888 3.64188 18.5948 3.64646C18.6009 3.65102 18.605 3.65532 18.6074 3.65812C18.6096 3.66078 18.6092 3.66086 18.6069 3.65672L18.1663 3.89293ZM18.4725 4.12405L18.3734 4.61413L18.578 4.6555L18.6771 4.16542L18.7762 3.67535L18.5717 3.63397L18.4725 4.12405ZM18.6771 4.16542L18.578 4.6555L18.7826 4.69688L18.8817 4.2068L18.9808 3.71672L18.7762 3.67535L18.6771 4.16542ZM18.8817 4.2068L18.7826 4.69688C18.8251 4.70547 18.8391 4.71818 18.8478 4.72764L19.216 4.38946L19.5843 4.05128C19.42 3.87236 19.2111 3.76329 18.9808 3.71672L18.8817 4.2068ZM19.216 4.38946L18.8478 4.72764L18.9775 4.86892L19.3458 4.53074L19.7141 4.19256L19.5843 4.05128L19.216 4.38946ZM19.3458 4.53074L18.9775 4.86892L19.1072 5.0102L19.4755 4.67202L19.8438 4.33384L19.7141 4.19256L19.3458 4.53074ZM19.4755 4.67202L19.1072 5.0102C19.1555 5.06279 19.1968 5.12508 19.2304 5.20028L19.687 4.99662L20.1436 4.79296C20.0682 4.62374 19.9685 4.46962 19.8438 4.33384L19.4755 4.67202ZM19.687 4.99662L19.2304 5.20028L19.3121 5.3836L19.7688 5.17994L20.2254 4.97628L20.1436 4.79296L19.687 4.99662ZM19.7688 5.17994L19.3121 5.3836L19.3939 5.56692L19.8505 5.36326L20.3072 5.1596L20.2254 4.97628L19.7688 5.17994ZM19.8505 5.36326L19.3939 5.56692C19.5002 5.80529 19.6824 5.9825 19.9167 6.08749L20.1211 5.63119L20.3256 5.17488C20.3188 5.17183 20.3148 5.16941 20.3129 5.16814C20.3111 5.16691 20.3106 5.16637 20.3108 5.16658C20.3111 5.16681 20.3111 5.1669 20.3108 5.16642C20.3104 5.16589 20.3091 5.16387 20.3072 5.1596L19.8505 5.36326ZM20.1211 5.63119L19.9167 6.08749L20.1056 6.1721L20.31 5.7158L20.5144 5.25949L20.3256 5.17488L20.1211 5.63119ZM20.31 5.7158L20.1056 6.1721L20.2945 6.25671L20.4989 5.80041L20.7033 5.3441L20.5144 5.25949L20.31 5.7158ZM20.4989 5.80041L20.2945 6.25671C20.2995 6.25898 20.2905 6.25569 20.2786 6.24217C20.2732 6.236 20.2691 6.22975 20.2662 6.22435C20.2634 6.21907 20.2626 6.2162 20.2629 6.21704L20.7435 6.07913L21.2241 5.94123C21.1451 5.66617 20.9599 5.45904 20.7033 5.3441L20.4989 5.80041ZM20.7435 6.07913L20.2629 6.21704L20.3186 6.41116L20.7992 6.27325L21.2798 6.13534L21.2241 5.94123L20.7435 6.07913ZM20.7992 6.27325L20.3186 6.41116L20.3743 6.60527L20.8549 6.46736L21.3355 6.32946L21.2798 6.13534L20.7992 6.27325ZM20.8549 6.46736L20.3743 6.60527C20.4298 6.79882 20.522 6.97647 20.6541 7.13019L21.0333 6.80429L21.4125 6.4784C21.381 6.4417 21.3542 6.39473 21.3355 6.32946L20.8549 6.46736ZM21.0333 6.80429L20.6541 7.13019L20.7768 7.27301L21.156 6.94711L21.5352 6.62121L21.4125 6.4784L21.0333 6.80429ZM21.156 6.94711L20.7768 7.27301L20.8996 7.41582L21.2788 7.08993L21.658 6.76403L21.5352 6.62121L21.156 6.94711ZM21.2788 7.08993L20.8996 7.41582C20.9979 7.53018 21.1062 7.63872 21.2239 7.74167L21.5531 7.36538L21.8824 6.9891C21.7979 6.91519 21.7233 6.84009 21.658 6.76403L21.2788 7.08993ZM21.5531 7.36538L21.2239 7.74167L21.3754 7.87431L21.7047 7.49802L22.034 7.12174L21.8824 6.9891L21.5531 7.36538ZM21.7047 7.49802L21.3754 7.87431L21.527 8.00695L21.8563 7.63067L22.1855 7.25438L22.034 7.12174L21.7047 7.49802ZM21.8563 7.63067L21.527 8.00695C21.5452 8.02286 21.5488 8.03171 21.5516 8.04736L22.0434 7.95717L22.5352 7.86698C22.4907 7.62415 22.3695 7.41533 22.1855 7.25438L21.8563 7.63067ZM22.0434 7.95717L21.5516 8.04736L21.5872 8.24122L22.079 8.15103L22.5708 8.06085L22.5352 7.86698L22.0434 7.95717ZM22.079 8.15103L21.5872 8.24122L21.6227 8.43508L22.1145 8.3449L22.6063 8.25471L22.5708 8.06085L22.079 8.15103ZM22.1145 8.3449L21.6227 8.43508C21.6438 8.5502 21.6598 8.66494 21.6706 8.77936L22.1684 8.7324L22.6661 8.68545C22.6526 8.54167 22.6326 8.39808 22.6063 8.25471L22.1145 8.3449ZM22.1684 8.7324L21.6706 8.77936L21.6888 8.97301L22.1866 8.92605L22.6844 8.87909L22.6661 8.68545L22.1684 8.7324ZM22.1866 8.92605L21.6888 8.97301L21.7071 9.16665L22.2049 9.1197L22.7027 9.07274L22.6844 8.87909L22.1866 8.92605ZM22.2049 9.1197L21.7071 9.16665C21.7303 9.41258 21.834 9.62892 21.9971 9.80528L22.3641 9.46579L22.7312 9.1263C22.7063 9.0994 22.7038 9.08501 22.7027 9.07274L22.2049 9.1197ZM22.3641 9.46579L21.9971 9.80528L22.138 9.95773L22.5051 9.61824L22.8722 9.27875L22.7312 9.1263L22.3641 9.46579ZM22.5051 9.61824L22.138 9.95773L22.279 10.1102L22.6461 9.77069L23.0132 9.4312L22.8722 9.27875L22.5051 9.61824ZM22.6461 9.77069L22.279 10.1102C22.3048 10.138 22.3062 10.1516 22.307 10.1606L22.8048 10.1145L23.3027 10.0683C23.2799 9.8222 23.1754 9.60663 23.0132 9.4312L22.6461 9.77069ZM22.8048 10.1145L22.307 10.1606L22.3247 10.3519L22.8226 10.3058L23.3205 10.2596L23.3027 10.0683L22.8048 10.1145ZM22.8226 10.3058L22.3247 10.3519L22.3425 10.5432L22.8403 10.4971L23.3382 10.4509L23.3205 10.2596L22.8226 10.3058ZM22.8403 10.4971L22.3425 10.5432C22.3529 10.6561 22.3584 10.7687 22.3588 10.8809L22.8588 10.8791L23.3588 10.8773C23.3582 10.7352 23.3514 10.5931 23.3382 10.4509L22.8403 10.4971ZM22.8588 10.8791L22.3588 10.8809L22.3594 11.0715L22.8594 11.0698L23.3594 11.068L23.3588 10.8773L22.8588 10.8791ZM22.8594 11.0698L22.3594 11.0715L22.3601 11.2622L22.8601 11.2604L23.3601 11.2586L23.3594 11.068L22.8594 11.0698ZM22.8601 11.2604L22.3601 11.2622C22.3606 11.3843 22.3591 11.5052 22.3559 11.6251L22.8557 11.6387L23.3555 11.6524C23.3591 11.5221 23.3606 11.3908 23.3601 11.2586L22.8601 11.2604ZM22.8557 11.6387L22.3559 11.6251L22.3507 11.8127L22.8506 11.8264L23.3504 11.84L23.3555 11.6524L22.8557 11.6387ZM22.8506 11.8264L22.3507 11.8127L22.3456 12.0003L22.8454 12.014L23.3452 12.0276L23.3504 11.84L22.8506 11.8264ZM22.8454 12.014L22.3456 12.0003C22.3394 12.2269 22.4004 12.4394 22.5079 12.631L22.944 12.3863L23.38 12.1417C23.3493 12.0869 23.3446 12.0512 23.3452 12.0276L22.8454 12.014ZM22.944 12.3863L22.5079 12.631L22.6116 12.8158L23.0476 12.5711L23.4837 12.3265L23.38 12.1417L22.944 12.3863ZM23.0476 12.5711L22.6116 12.8158L22.7152 13.0005L23.1513 12.7559L23.5874 12.5112L23.4837 12.3265L23.0476 12.5711ZM23.1513 12.7559L22.7152 13.0005C22.7097 12.9907 22.6833 12.9358 22.6962 12.8535C22.709 12.7716 22.7505 12.7283 22.7573 12.722L23.0994 13.0866L23.4416 13.4512C23.552 13.3476 23.654 13.2006 23.6841 13.0084C23.7143 12.8158 23.662 12.6442 23.5874 12.5112L23.1513 12.7559ZM23.0994 13.0866L22.7573 12.722L22.6017 12.868L22.9439 13.2326L23.286 13.5972L23.4416 13.4512L23.0994 13.0866ZM22.9439 13.2326L22.6017 12.868L22.4462 13.0139L22.7884 13.3785L23.1305 13.7431L23.286 13.5972L22.9439 13.2326ZM22.7884 13.3785L22.4462 13.0139C22.3245 13.1281 22.214 13.2488 22.1159 13.3761L22.5118 13.6814L22.9078 13.9867C22.971 13.9048 23.0448 13.8235 23.1305 13.7431L22.7884 13.3785ZM22.5118 13.6814L22.1159 13.3761L21.9949 13.533L22.3909 13.8383L22.7869 14.1436L22.9078 13.9867L22.5118 13.6814ZM22.3909 13.8383L21.9949 13.533L21.8739 13.69L22.2699 13.9952L22.6659 14.3005L22.7869 14.1436L22.3909 13.8383ZM22.2699 13.9952L21.8739 13.69C21.8737 13.6902 21.8844 13.6769 21.9085 13.6649C21.933 13.6527 21.9531 13.6511 21.9592 13.6511L21.9564 14.1511L21.9535 14.6511C22.2432 14.6527 22.4932 14.5245 22.6659 14.3005L22.2699 13.9952ZM21.9564 14.1511L21.9592 13.6511L21.7666 13.65L21.7638 14.15L21.761 14.65L21.9535 14.6511L21.9564 14.1511ZM21.7638 14.15L21.7666 13.65L21.574 13.6489L21.5712 14.1489L21.5684 14.6489L21.761 14.65L21.7638 14.15ZM21.5712 14.1489L21.574 13.6489C21.4422 13.6482 21.3119 13.6488 21.1833 13.6508L21.1912 14.1508L21.199 14.6507C21.3204 14.6488 21.4435 14.6482 21.5684 14.6489L21.5712 14.1489ZM21.1912 14.1508L21.1833 13.6508L20.9958 13.6538L21.0037 14.1537L21.0115 14.6537L21.199 14.6507L21.1912 14.1508ZM21.0037 14.1537L20.9958 13.6538L20.8083 13.6567L20.8162 14.1567L20.824 14.6566L21.0115 14.6537L21.0037 14.1537ZM20.8162 14.1567L20.8083 13.6567C20.7565 13.6575 20.6987 13.6478 20.6314 13.6201L20.4412 14.0825L20.2509 14.5449C20.4336 14.62 20.6258 14.6597 20.824 14.6566L20.8162 14.1567ZM20.4412 14.0825L20.6314 13.6201L20.4439 13.5429L20.2537 14.0053L20.0634 14.4677L20.2509 14.5449L20.4412 14.0825ZM20.2537 14.0053L20.4439 13.5429L20.2564 13.4658L20.0662 13.9282L19.8759 14.3906L20.0634 14.4677L20.2537 14.0053ZM20.0662 13.9282L20.2564 13.4658C20.0387 13.3763 19.8056 13.3542 19.5724 13.4112L19.6912 13.8969L19.8099 14.3826C19.8267 14.3785 19.8436 14.3773 19.8759 14.3906L20.0662 13.9282ZM19.6912 13.8969L19.5724 13.4112L19.3849 13.4571L19.5037 13.9428L19.6224 14.4285L19.8099 14.3826L19.6912 13.8969ZM19.5037 13.9428L19.3849 13.4571L19.1974 13.503L19.3162 13.9886L19.4349 14.4743L19.6224 14.4285L19.5037 13.9428ZM19.3162 13.9886L19.1974 13.503C19.071 13.5339 18.9447 13.5653 18.8184 13.5973L18.9412 14.082L19.0639 14.5667C19.1876 14.5354 19.3113 14.5046 19.4349 14.4743L19.3162 13.9886ZM18.9412 14.082L18.8184 13.5973L18.6309 13.6448L18.7537 14.1295L18.8764 14.6142L19.0639 14.5667L18.9412 14.082ZM18.7537 14.1295L18.6309 13.6448L18.4434 13.6922L18.5662 14.1769L18.6889 14.6616L18.8764 14.6142L18.7537 14.1295ZM18.5662 14.1769L18.4434 13.6922C18.3761 13.7093 18.3126 13.7132 18.2497 13.7057L18.1912 14.2023L18.1326 14.6989C18.3197 14.7209 18.5062 14.7079 18.6889 14.6616L18.5662 14.1769ZM18.1912 14.2023L18.2497 13.7057L18.0622 13.6836L18.0037 14.1802L17.9451 14.6767L18.1326 14.6989L18.1912 14.2023ZM18.0037 14.1802L18.0622 13.6836L17.8747 13.6615L17.8162 14.1581L17.7576 14.6546L17.9451 14.6767L18.0037 14.1802ZM17.8162 14.1581L17.8747 13.6615C17.7992 13.6526 17.7192 13.6319 17.6338 13.5963L17.4412 14.0577L17.2485 14.5191C17.4131 14.5878 17.5831 14.6341 17.7576 14.6546L17.8162 14.1581ZM17.4412 14.0577L17.6338 13.5963L17.4463 13.518L17.2537 13.9794L17.061 14.4408L17.2485 14.5191L17.4412 14.0577ZM17.2537 13.9794L17.4463 13.518L17.2588 13.4397L17.0662 13.9011L16.8735 14.3625L17.061 14.4408L17.2537 13.9794ZM17.0662 13.9011L17.2588 13.4397C17.078 13.3642 16.8878 13.3229 16.6915 13.3227L16.6912 13.8227L16.6908 14.3227C16.7445 14.3228 16.8043 14.3336 16.8735 14.3625L17.0662 13.9011ZM16.6912 13.8227L16.6915 13.3227L16.504 13.3226L16.5037 13.8226L16.5033 14.3226L16.6908 14.3227L16.6912 13.8227ZM16.5037 13.8226L16.504 13.3226L16.3165 13.3225L16.3162 13.8225L16.3158 14.3225L16.5033 14.3226L16.5037 13.8226ZM16.3162 13.8225L16.3165 13.3225C16.1732 13.3224 16.0301 13.3302 15.8871 13.3457L15.9412 13.8428L15.9952 14.3398C16.1022 14.3282 16.2091 14.3224 16.3158 14.3225L16.3162 13.8225ZM15.9412 13.8428L15.8871 13.3457L15.6996 13.3661L15.7537 13.8632L15.8077 14.3602L15.9952 14.3398L15.9412 13.8428ZM15.7537 13.8632L15.6996 13.3661L15.5121 13.3865L15.5662 13.8835L15.6202 14.3806L15.8077 14.3602L15.7537 13.8632ZM15.5662 13.8835L15.5121 13.3865C15.4183 13.3967 15.3249 13.398 15.2314 13.3904L15.1912 13.8888L15.1509 14.3872C15.3074 14.3998 15.464 14.3976 15.6202 14.3806L15.5662 13.8835ZM15.1912 13.8888L15.2314 13.3904L15.0439 13.3753L15.0037 13.8737L14.9634 14.372L15.1509 14.3872L15.1912 13.8888ZM15.0037 13.8737L15.0439 13.3753L14.8564 13.3601L14.8162 13.8585L14.7759 14.3569L14.9634 14.372L15.0037 13.8737ZM14.8162 13.8585L14.8564 13.3601C14.7154 13.3488 14.5744 13.3442 14.4333 13.3464L14.4412 13.8463L14.449 14.3463C14.5579 14.3446 14.6669 14.3481 14.7759 14.3569L14.8162 13.8585ZM14.4412 13.8463L14.4333 13.3464L14.2458 13.3493L14.2537 13.8493L14.2615 14.3492L14.449 14.3463L14.4412 13.8463ZM14.2537 13.8493L14.2458 13.3493L14.0583 13.3522L14.0662 13.8522L14.074 14.3521L14.2615 14.3492L14.2537 13.8493ZM14.0662 13.8522L14.0583 13.3522C13.9542 13.3539 13.8499 13.349 13.7453 13.3376L13.6912 13.8347L13.637 14.3317C13.7824 14.3476 13.9281 14.3544 14.074 14.3521L14.0662 13.8522ZM13.6912 13.8347L13.7453 13.3376L13.5578 13.3172L13.5037 13.8142L13.4495 14.3113L13.637 14.3317L13.6912 13.8347ZM13.5037 13.8142L13.5578 13.3172L13.3703 13.2967L13.3162 13.7938L13.262 14.2909L13.4495 14.3113L13.5037 13.8142ZM13.3162 13.7938L13.3703 13.2967C13.2194 13.2803 13.0681 13.2757 12.9168 13.2831L12.9412 13.7825L12.9655 14.2819C13.0642 14.2771 13.1629 14.2801 13.262 14.2909L13.3162 13.7938ZM12.9412 13.7825L12.9168 13.2831L12.7293 13.2922L12.7537 13.7917L12.778 14.2911L12.9655 14.2819L12.9412 13.7825ZM12.7537 13.7917L12.7293 13.2922L12.5418 13.3014L12.5662 13.8008L12.5905 14.3002L12.778 14.2911L12.7537 13.7917ZM12.5662 13.8008L12.5418 13.3014C12.4353 13.3066 12.3288 13.3058 12.2223 13.2992L12.1912 13.7982L12.16 14.2973C12.3035 14.3062 12.447 14.3072 12.5905 14.3002L12.5662 13.8008ZM12.1912 13.7982L12.2223 13.2992L12.0348 13.2875L12.0037 13.7865L11.9725 14.2855L12.16 14.2973L12.1912 13.7982ZM12.0037 13.7865L12.0348 13.2875L11.8473 13.2758L11.8162 13.7748L11.785 14.2738L11.9725 14.2855L12.0037 13.7865ZM11.8162 13.7748L11.8473 13.2758C11.7115 13.2673 11.4779 13.2885 11.3047 13.4872C11.1402 13.6759 11.1416 13.8998 11.1567 14.0227L11.653 13.962L12.1493 13.9014C12.1496 13.9037 12.1529 13.9302 12.1447 13.9718C12.136 14.0163 12.1131 14.0816 12.0585 14.1443C11.9397 14.2807 11.7958 14.2745 11.785 14.2738L11.8162 13.7748ZM11.653 13.962L11.1567 14.0227L11.181 14.2216L11.6773 14.161L12.1736 14.1003L12.1493 13.9014L11.653 13.962ZM11.6773 14.161L11.181 14.2216L11.2053 14.4206L11.7016 14.3599L12.1979 14.2993L12.1736 14.1003L11.6773 14.161ZM11.7016 14.3599L11.2053 14.4206C11.2053 14.4206 11.2053 14.4205 11.2053 14.4203C11.2052 14.4201 11.2052 14.4198 11.2052 14.4194C11.2052 14.4187 11.2052 14.4178 11.2053 14.4169C11.2055 14.4148 11.2058 14.4137 11.2057 14.414C11.2056 14.4144 11.2022 14.4261 11.1852 14.4489L11.5872 14.7463L11.9891 15.0438C12.1443 14.834 12.2322 14.5796 12.1979 14.2993L11.7016 14.3599ZM11.5872 14.7463L11.1852 14.4489L11.0465 14.6364L11.4484 14.9338L11.8503 15.2313L11.9891 15.0438L11.5872 14.7463ZM11.4484 14.9338L11.0465 14.6364L10.9077 14.8239L11.3097 15.1213L11.7116 15.4188L11.8503 15.2313L11.4484 14.9338ZM11.3097 15.1213L10.9077 14.8239C10.7294 15.065 10.6566 15.3736 10.7866 15.6876L11.2485 15.4963L11.7105 15.3051C11.7134 15.3121 11.7173 15.3241 11.7194 15.3403C11.7214 15.3568 11.7211 15.3736 11.7185 15.3893C11.7133 15.4213 11.7021 15.4316 11.7116 15.4188L11.3097 15.1213ZM11.2485 15.4963L10.7866 15.6876L10.8642 15.8751L11.3262 15.6838L11.7881 15.4926L11.7105 15.3051L11.2485 15.4963ZM11.3262 15.6838L10.8642 15.8751L10.9418 16.0626L11.4038 15.8713L11.8658 15.6801L11.7881 15.4926L11.3262 15.6838ZM11.4038 15.8713L10.9418 16.0626C10.9633 16.1144 10.9665 16.1532 10.9625 16.1867L11.4589 16.2463L11.9553 16.306C11.9814 16.0895 11.9478 15.8783 11.8658 15.6801L11.4038 15.8713ZM11.4589 16.2463L10.9625 16.1867L10.9399 16.3742L11.4364 16.4338L11.9328 16.4935L11.9553 16.306L11.4589 16.2463ZM11.4364 16.4338L10.9399 16.3742L10.9174 16.5617L11.4138 16.6213L11.9103 16.681L11.9328 16.4935L11.4364 16.4338ZM11.4138 16.6213L10.9174 16.5617C10.8972 16.7296 10.8989 16.8979 10.9223 17.0655L11.4175 16.9963L11.9127 16.9272C11.9012 16.8448 11.9004 16.7631 11.9103 16.681L11.4138 16.6213ZM11.4175 16.9963L10.9223 17.0655L10.9485 17.253L11.4436 17.1838L11.9388 17.1147L11.9127 16.9272L11.4175 16.9963ZM11.4436 17.1838L10.9485 17.253L10.9746 17.4405L11.4698 17.3713L11.965 17.3022L11.9388 17.1147L11.4436 17.1838ZM11.4698 17.3713L10.9746 17.4405C10.9818 17.492 10.9784 17.5447 10.9609 17.6033L11.44 17.7463L11.9191 17.8894C11.9763 17.698 11.9927 17.5007 11.965 17.3022L11.4698 17.3713ZM11.44 17.7463L10.9609 17.6033L10.9049 17.7908L11.384 17.9338L11.8631 18.0769L11.9191 17.8894L11.44 17.7463ZM11.384 17.9338L10.9049 17.7908L10.8489 17.9783L11.328 18.1213L11.8071 18.2644L11.8631 18.0769L11.384 17.9338ZM11.328 18.1213L10.8489 17.9783C10.7933 18.1645 10.7742 18.3562 10.7944 18.5497L11.2917 18.4979L11.789 18.446C11.7829 18.3875 11.788 18.3282 11.8071 18.2644L11.328 18.1213ZM11.2917 18.4979L10.7944 18.5497L10.8141 18.7387L11.3114 18.6869L11.8087 18.635L11.789 18.446L11.2917 18.4979ZM11.3114 18.6869L10.8141 18.7387L10.8338 18.9277L11.3311 18.8759L11.8284 18.824L11.8087 18.635L11.3114 18.6869ZM11.3311 18.8759L10.8338 18.9277C10.8468 19.0521 10.8593 19.1786 10.8715 19.3072L11.3693 19.2601L11.8671 19.2129C11.8546 19.0813 11.8417 18.9516 11.8284 18.824L11.3311 18.8759ZM11.3693 19.2601L10.8715 19.3072L10.89 19.5025L11.3878 19.4553L11.8856 19.4081L11.8671 19.2129L11.3693 19.2601ZM11.3878 19.4553L10.89 19.5025L10.9085 19.6977L11.4063 19.6505L11.9041 19.6034L11.8856 19.4081L11.3878 19.4553ZM11.4063 19.6505L10.9085 19.6977C10.9333 19.9594 11.0536 20.186 11.2505 20.3553L11.5765 19.9762L11.9025 19.5971C11.8988 19.5939 11.8976 19.5924 11.898 19.5928C11.8984 19.5934 11.8997 19.5951 11.9012 19.598C11.9027 19.6008 11.9037 19.6034 11.9042 19.6051C11.9046 19.6068 11.9043 19.6064 11.9041 19.6034L11.4063 19.6505ZM11.5765 19.9762L11.2505 20.3553L11.4022 20.4858L11.7283 20.1067L12.0543 19.7276L11.9025 19.5971L11.5765 19.9762ZM11.7283 20.1067L11.4022 20.4858L11.554 20.6163L11.88 20.2372L12.206 19.8581L12.0543 19.7276L11.7283 20.1067ZM11.88 20.2372L11.554 20.6163C11.6035 20.6589 11.651 20.7166 11.6936 20.7968L12.1351 20.5621L12.5765 20.3274C12.4814 20.1484 12.3588 19.9895 12.206 19.8581L11.88 20.2372ZM12.1351 20.5621L11.6936 20.7968L11.7969 20.9911L12.2384 20.7564L12.6799 20.5217L12.5765 20.3274L12.1351 20.5621ZM12.2384 20.7564L11.7969 20.9911L11.9002 21.1854L12.3417 20.9508L12.7832 20.7161L12.6799 20.5217L12.2384 20.7564ZM12.3417 20.9508L11.9002 21.1854C11.9707 21.3181 12.0812 21.4508 12.2478 21.5342C12.4159 21.6184 12.5907 21.6269 12.7432 21.5994L12.6545 21.1073L12.5659 20.6153C12.5787 20.613 12.6315 20.608 12.6953 20.64C12.7576 20.6711 12.7815 20.713 12.7832 20.7161L12.3417 20.9508ZM12.6545 21.1073L12.7432 21.5994L12.9527 21.5617L12.8641 21.0696L12.7755 20.5775L12.5659 20.6153L12.6545 21.1073ZM12.8641 21.0696L12.9527 21.5617L13.1623 21.5239L13.0737 21.0319L12.985 20.5398L12.7755 20.5775L12.8641 21.0696ZM13.0737 21.0319L13.1623 21.5239C13.3316 21.4934 13.4932 21.4484 13.6446 21.3864L13.455 20.9237L13.2655 20.4611C13.1878 20.4929 13.0951 20.52 12.985 20.5398L13.0737 21.0319ZM13.455 20.9237L13.6446 21.3864L13.8164 21.316L13.6268 20.8533L13.4373 20.3907L13.2655 20.4611L13.455 20.9237ZM13.6268 20.8533L13.8164 21.316L13.9882 21.2456L13.7987 20.783L13.6091 20.3203L13.4373 20.3907L13.6268 20.8533ZM13.7987 20.783L13.9882 21.2456C14.0664 21.2136 14.147 21.1912 14.2307 21.1782L14.1542 20.6841L14.0776 20.19C13.9164 20.215 13.76 20.2585 13.6091 20.3203L13.7987 20.783ZM14.1542 20.6841L14.2307 21.1782L14.4144 21.1498L14.3379 20.6557L14.2613 20.1616L14.0776 20.19L14.1542 20.6841ZM14.3379 20.6557L14.4144 21.1498L14.5981 21.1213L14.5216 20.6272L14.445 20.1331L14.2613 20.1616L14.3379 20.6557ZM14.5216 20.6272L14.5981 21.1213C14.8447 21.0831 15.0554 20.9602 15.212 20.7696L14.8257 20.4522L14.4394 20.1348C14.4366 20.1381 14.4353 20.1392 14.4357 20.1388C14.4362 20.1384 14.4377 20.1372 14.4401 20.1359C14.4425 20.1345 14.4447 20.1335 14.4462 20.133C14.4477 20.1325 14.4475 20.1327 14.445 20.1331L14.5216 20.6272ZM14.8257 20.4522L15.212 20.7696L15.3324 20.6231L14.9461 20.3057L14.5598 19.9883L14.4394 20.1348L14.8257 20.4522ZM14.9461 20.3057L15.3324 20.6231L15.4528 20.4766L15.0665 20.1591L14.6802 19.8417L14.5598 19.9883L14.9461 20.3057ZM15.0665 20.1591L15.4528 20.4766C15.5412 20.369 15.628 20.2548 15.7134 20.1344L15.3055 19.8453L14.8975 19.5562C14.8248 19.6588 14.7523 19.7539 14.6802 19.8417L15.0665 20.1591ZM15.3055 19.8453L15.7134 20.1344L15.832 19.967L15.4241 19.6779L15.0161 19.3888L14.8975 19.5562L15.3055 19.8453ZM15.4241 19.6779L15.832 19.967L15.9506 19.7996L15.5427 19.5105L15.1347 19.2214L15.0161 19.3888L15.4241 19.6779ZM15.5427 19.5105L15.9506 19.7996C16.1018 19.5863 16.1651 19.3365 16.129 19.0751L15.6337 19.1434L15.1384 19.2117C15.139 19.2162 15.1389 19.2181 15.1389 19.2179C15.1389 19.2176 15.139 19.2164 15.1395 19.2147C15.1399 19.2131 15.1402 19.2124 15.1399 19.213C15.1396 19.2137 15.1383 19.2165 15.1347 19.2214L15.5427 19.5105ZM15.6337 19.1434L16.129 19.0751L16.1015 18.8753L15.6062 18.9436L15.1109 19.0119L15.1384 19.2117L15.6337 19.1434ZM15.6062 18.9436L16.1015 18.8753L16.0739 18.6755L15.5786 18.7438L15.0833 18.8121L15.1109 19.0119L15.6062 18.9436ZM15.5786 18.7438L16.0739 18.6755C16.0637 18.6015 16.0707 18.5559 16.079 18.5291L15.6014 18.3813L15.1237 18.2336C15.0649 18.4236 15.0568 18.6197 15.0833 18.8121L15.5786 18.7438ZM15.6014 18.3813L16.079 18.5291L16.1293 18.3665L15.6517 18.2187L15.174 18.071L15.1237 18.2336L15.6014 18.3813ZM15.6517 18.2187L16.1293 18.3665L16.1796 18.2038L15.702 18.0561L15.2243 17.9083L15.174 18.071L15.6517 18.2187ZM15.702 18.0561L16.1796 18.2038C16.189 18.1735 16.207 18.1388 16.2446 18.0984L15.8786 17.7577L15.5126 17.4171C15.3818 17.5576 15.282 17.7218 15.2243 17.9083L15.702 18.0561ZM15.8786 17.7577L16.2446 18.0984L16.3709 17.9626L16.0049 17.622L15.6389 17.2813L15.5126 17.4171L15.8786 17.7577ZM16.0049 17.622L16.3709 17.9626L16.4972 17.8269L16.1312 17.4863L15.7652 17.1456L15.6389 17.2813L16.0049 17.622ZM16.1312 17.4863L16.4972 17.8269C16.4866 17.8384 16.4605 17.86 16.4196 17.8725C16.3798 17.8846 16.3522 17.8802 16.3485 17.8794L16.4485 17.3895L16.5485 16.8996C16.2611 16.841 15.9754 16.9199 15.7652 17.1456L16.1312 17.4863ZM16.4485 17.3895L16.3485 17.8794L16.5395 17.9184L16.6395 17.4285L16.7395 16.9386L16.5485 16.8996L16.4485 17.3895ZM16.6395 17.4285L16.5395 17.9184L16.7305 17.9574L16.8305 17.4675L16.9305 16.9776L16.7395 16.9386L16.6395 17.4285ZM16.8305 17.4675L16.7305 17.9574C16.7253 17.9563 16.6842 17.9464 16.6394 17.9041C16.5921 17.8594 16.5734 17.8096 16.568 17.7831L17.0576 17.6821L17.5473 17.5811C17.5177 17.4374 17.4491 17.2934 17.3261 17.1771C17.2055 17.0633 17.0629 17.0046 16.9305 16.9776L16.8305 17.4675ZM17.0576 17.6821L16.568 17.7831L16.6042 17.9587L17.0939 17.8577L17.5836 17.7567L17.5473 17.5811L17.0576 17.6821ZM17.0939 17.8577L16.6042 17.9587L16.6404 18.1343L17.1301 18.0333L17.6198 17.9323L17.5836 17.7567L17.0939 17.8577ZM17.1301 18.0333L16.6404 18.1343C16.6857 18.3539 16.7957 18.5449 16.9354 18.7072L17.3144 18.381L17.6934 18.0549C17.6356 17.9877 17.6228 17.9468 17.6198 17.9323L17.1301 18.0333ZM17.3144 18.381L16.9354 18.7072L17.0836 18.8793L17.4625 18.5532L17.8415 18.227L17.6934 18.0549L17.3144 18.381ZM17.4625 18.5532L17.0836 18.8793L17.2317 19.0514L17.6107 18.7253L17.9896 18.3991L17.8415 18.227L17.4625 18.5532ZM17.6107 18.7253L17.2317 19.0514C17.2373 19.0579 17.2162 19.0358 17.2075 18.9855C17.198 18.9308 17.2107 18.8867 17.2203 18.8664L17.6722 19.0803L18.1242 19.2942C18.1915 19.152 18.2228 18.9877 18.1928 18.8147C18.1635 18.646 18.0828 18.5074 17.9896 18.3991L17.6107 18.7253ZM17.6722 19.0803L17.2203 18.8664L17.1337 19.0494L17.5857 19.2632L18.0376 19.4771L18.1242 19.2942L17.6722 19.0803ZM17.5857 19.2632L17.1337 19.0494L17.0472 19.2323L17.4991 19.4461L17.9511 19.66L18.0376 19.4771L17.5857 19.2632ZM17.4991 19.4461L17.0472 19.2323C16.9654 19.405 16.9143 19.5874 16.8969 19.7772L17.3949 19.8228L17.8928 19.8683C17.899 19.7999 17.9174 19.7311 17.9511 19.66L17.4991 19.4461ZM17.3949 19.8228L16.8969 19.7772L16.8792 19.9709L17.3772 20.0165L17.8751 20.062L17.8928 19.8683L17.3949 19.8228ZM17.3772 20.0165L16.8792 19.9709L16.8615 20.1646L17.3595 20.2102L17.8574 20.2557L17.8751 20.062L17.3772 20.0165ZM17.3595 20.2102L16.8615 20.1646C16.8537 20.2501 16.8349 20.3338 16.8046 20.4167L17.2742 20.5885L17.7437 20.7604C17.8035 20.597 17.8416 20.4284 17.8574 20.2557L17.3595 20.2102ZM17.2742 20.5885L16.8046 20.4167L16.737 20.6013L17.2066 20.7732L17.6761 20.945L17.7437 20.7604L17.2742 20.5885ZM17.2066 20.7732L16.737 20.6013L16.6695 20.786L17.139 20.9578L17.6086 21.1297L17.6761 20.945L17.2066 20.7732ZM17.139 20.9578L16.6695 20.786C16.6602 20.8113 16.6462 20.8324 16.614 20.8556L16.9058 21.2616L17.1976 21.6676C17.3862 21.532 17.5277 21.3505 17.6086 21.1297L17.139 20.9578ZM16.9058 21.2616L16.614 20.8556L16.4483 20.9746L16.7401 21.3806L17.032 21.7866L17.1976 21.6676L16.9058 21.2616ZM16.7401 21.3806L16.4483 20.9746L16.2827 21.0937L16.5745 21.4997L16.8663 21.9057L17.032 21.7866L16.7401 21.3806ZM16.5745 21.4997L16.2827 21.0937C16.1931 21.1581 16.1053 21.2107 16.0195 21.2528L16.2396 21.7017L16.4597 22.1507C16.5995 22.0821 16.7351 22 16.8663 21.9057L16.5745 21.4997ZM16.2396 21.7017L16.0195 21.2528L15.8502 21.3358L16.0703 21.7847L16.2904 22.2337L16.4597 22.1507L16.2396 21.7017ZM16.0703 21.7847L15.8502 21.3358L15.6809 21.4188L15.901 21.8677L16.1211 22.3167L16.2904 22.2337L16.0703 21.7847ZM15.901 21.8677L15.6809 21.4188C15.5135 21.5008 15.365 21.6108 15.2389 21.7483L15.6074 22.0863L15.9759 22.4242C16.0156 22.3809 16.0627 22.3453 16.1211 22.3167L15.901 21.8677ZM15.6074 22.0863L15.2389 21.7483L15.1146 21.8838L15.4831 22.2218L15.8515 22.5598L15.9759 22.4242L15.6074 22.0863ZM15.4831 22.2218L15.1146 21.8838L14.9902 22.0194L15.3587 22.3574L15.7272 22.6953L15.8515 22.5598L15.4831 22.2218ZM15.3587 22.3574L14.9902 22.0194C14.9184 22.0977 14.8374 22.1782 14.7468 22.2609L15.0837 22.6304L15.4205 22.9998C15.5309 22.8992 15.6333 22.7978 15.7272 22.6953L15.3587 22.3574ZM15.0837 22.6304L14.7468 22.2609L14.596 22.3984L14.9329 22.7678L15.2698 23.1373L15.4205 22.9998L15.0837 22.6304ZM14.9329 22.7678L14.596 22.3984L14.4452 22.5358L14.7821 22.9053L15.119 23.2748L15.2698 23.1373L14.9329 22.7678ZM14.7821 22.9053L14.4452 22.5358C14.4032 22.5742 14.3614 22.5959 14.3152 22.6077L14.4396 23.092L14.564 23.5763C14.7735 23.5225 14.96 23.4197 15.119 23.2748L14.7821 22.9053ZM14.4396 23.092L14.3152 22.6077L14.1235 22.657L14.2479 23.1413L14.3723 23.6256L14.564 23.5763L14.4396 23.092ZM14.2479 23.1413L14.1235 22.657L13.9317 22.7062L14.0561 23.1905L14.1805 23.6748L14.3723 23.6256L14.2479 23.1413ZM14.0561 23.1905L13.9317 22.7062C13.8411 22.7295 13.7497 22.742 13.6568 22.7439L13.667 23.2438L13.6773 23.7437C13.8475 23.7402 14.0155 23.7172 14.1805 23.6748L14.0561 23.1905ZM13.667 23.2438L13.6568 22.7439L13.4595 22.7479L13.4697 23.2478L13.4799 23.7477L13.6773 23.7437L13.667 23.2438ZM13.4697 23.2478L13.4595 22.7479L13.2622 22.752L13.2724 23.2519L13.2826 23.7518L13.4799 23.7477L13.4697 23.2478ZM13.2724 23.2519L13.2622 22.752C13.2574 22.7521 13.244 22.754 13.2093 22.7271L12.9027 23.1221L12.5961 23.517C12.7913 23.6686 13.0243 23.7571 13.2826 23.7518L13.2724 23.2519ZM12.9027 23.1221L13.2093 22.7271L13.0369 22.5933L12.7303 22.9882L12.4237 23.3832L12.5961 23.517L12.9027 23.1221ZM12.7303 22.9882L13.0369 22.5933L12.8645 22.4594L12.5579 22.8544L12.2513 23.2494L12.4237 23.3832L12.7303 22.9882ZM12.5579 22.8544L12.8645 22.4594C12.7058 22.3362 12.5278 22.2407 12.3307 22.1919L12.2104 22.6772L12.09 23.1625C12.1264 23.1715 12.1801 23.1941 12.2513 23.2494L12.5579 22.8544ZM12.2104 22.6772L12.3307 22.1919L12.1555 22.1484L12.0352 22.6337L11.9149 23.1191L12.09 23.1625L12.2104 22.6772ZM12.0352 22.6337L12.1555 22.1484L11.9804 22.105L11.8601 22.5903L11.7398 23.0756L11.9149 23.1191L12.0352 22.6337ZM11.8601 22.5903L11.9804 22.105C11.9217 22.0905 11.8693 22.0668 11.8204 22.0332L11.537 22.4451L11.2536 22.857C11.402 22.9591 11.565 23.0323 11.7398 23.0756L11.8601 22.5903ZM11.537 22.4451L11.8204 22.0332L11.6724 21.9314L11.389 22.3433L11.1056 22.7552L11.2536 22.857L11.537 22.4451ZM11.389 22.3433L11.6724 21.9314L11.5244 21.8296L11.241 22.2415L10.9576 22.6534L11.1056 22.7552L11.389 22.3433ZM11.241 22.2415L11.5244 21.8296C11.4539 21.7811 11.3907 21.7271 11.334 21.6673L10.9714 22.0116L10.6088 22.3559C10.7143 22.4669 10.8308 22.5662 10.9576 22.6534L11.241 22.2415ZM10.9714 22.0116L11.334 21.6673L11.2124 21.5392L10.8498 21.8835L10.4872 22.2278L10.6088 22.3559L10.9714 22.0116ZM10.8498 21.8835L11.2124 21.5392L11.0908 21.4111L10.7282 21.7554L10.3656 22.0997L10.4872 22.2278L10.8498 21.8835ZM10.7282 21.7554L11.0908 21.4111C10.99 21.305 10.8788 21.2062 10.7584 21.1143L10.4552 21.5119L10.152 21.9095C10.2333 21.9715 10.3042 22.035 10.3656 22.0997L10.7282 21.7554ZM10.4552 21.5119L10.7584 21.1143L10.607 20.9989L10.3038 21.3965L10.0007 21.7941L10.152 21.9095L10.4552 21.5119ZM10.3038 21.3965L10.607 20.9989L10.4557 20.8835L10.1525 21.2811L9.84933 21.6787L10.0007 21.7941L10.3038 21.3965ZM10.1525 21.2811L10.4557 20.8835C10.4464 20.8764 10.4439 20.8725 10.4438 20.8723C10.4435 20.8718 10.443 20.8711 10.4424 20.8697C10.4418 20.8684 10.4407 20.8656 10.4396 20.8609L9.95497 20.9841L9.47039 21.1073C9.52944 21.3395 9.66027 21.5346 9.84933 21.6787L10.1525 21.2811ZM9.95497 20.9841L10.4396 20.8609L10.3934 20.6793L9.90879 20.8025L9.42421 20.9257L9.47039 21.1073L9.95497 20.9841ZM9.90879 20.8025L10.3934 20.6793L10.3472 20.4977L9.86262 20.6209L9.37804 20.7441L9.42421 20.9257L9.90879 20.8025ZM9.86262 20.6209L10.3472 20.4977C10.2966 20.2989 10.2013 20.1201 10.0733 19.9623L9.68506 20.2774L9.29685 20.5925C9.34396 20.6506 9.36701 20.7008 9.37804 20.7441L9.86262 20.6209ZM9.68506 20.2774L10.0733 19.9623L9.9419 19.8005L9.55369 20.1156L9.16547 20.4307L9.29685 20.5925L9.68506 20.2774ZM9.55369 20.1156L9.9419 19.8005L9.81053 19.6386L9.42231 19.9537L9.0341 20.2688L9.16547 20.4307L9.55369 20.1156ZM9.42231 19.9537L9.81053 19.6386C9.80476 19.6315 9.80964 19.6353 9.8136 19.6497C9.81542 19.6562 9.81639 19.6627 9.81665 19.6683C9.81691 19.6739 9.81642 19.6769 9.81646 19.6767L9.32303 19.5959L8.8296 19.5151C8.78386 19.7944 8.86158 20.0563 9.0341 20.2688L9.42231 19.9537ZM9.32303 19.5959L9.81646 19.6767L9.84855 19.4807L9.35512 19.3999L8.86169 19.3191L8.8296 19.5151L9.32303 19.5959ZM9.35512 19.3999L9.84855 19.4807L9.88064 19.2847L9.38721 19.2039L8.89378 19.1231L8.86169 19.3191L9.35512 19.3999ZM9.38721 19.2039L9.88064 19.2847C9.89955 19.1692 9.92343 19.0567 9.95219 18.9472L9.46858 18.8202L8.98497 18.6932C8.94803 18.8339 8.91766 18.9772 8.89378 19.1231L9.38721 19.2039ZM9.46858 18.8202L9.95219 18.9472L10.0015 18.7595L9.51785 18.6325L9.03424 18.5056L8.98497 18.6932L9.46858 18.8202ZM9.51785 18.6325L10.0015 18.7595L10.0507 18.5719L9.56713 18.4449L9.08352 18.3179L9.03424 18.5056L9.51785 18.6325ZM9.56713 18.4449L10.0507 18.5719C10.0908 18.4193 10.1174 18.2653 10.13 18.1101L9.63161 18.0697L9.13325 18.0293C9.12555 18.1241 9.10915 18.2203 9.08352 18.3179L9.56713 18.4449ZM9.63161 18.0697L10.13 18.1101L10.1452 17.9226L9.64683 17.8822L9.14847 17.8418L9.13325 18.0293L9.63161 18.0697ZM9.64683 17.8822L10.1452 17.9226L10.1604 17.7351L9.66204 17.6947L9.16368 17.6543L9.14847 17.8418L9.64683 17.8822ZM9.66204 17.6947L10.1604 17.7351C10.1722 17.5893 10.1749 17.4434 10.1684 17.2974L9.66887 17.3197L9.16937 17.342C9.17402 17.4461 9.17213 17.5501 9.16368 17.6543L9.66204 17.6947ZM9.66887 17.3197L10.1684 17.2974L10.16 17.1099L9.66049 17.1322L9.16099 17.1545L9.16937 17.342L9.66887 17.3197ZM9.66049 17.1322L10.16 17.1099L10.1516 16.9224L9.65211 16.9447L9.15261 16.967L9.16099 17.1545L9.66049 17.1322ZM9.65211 16.9447L10.1516 16.9224C10.1423 16.7147 10.0829 16.5182 9.98705 16.3364L9.54481 16.5697L9.10257 16.803C9.13858 16.8712 9.15071 16.9247 9.15261 16.967L9.65211 16.9447ZM9.54481 16.5697L9.98705 16.3364L9.88813 16.1489L9.4459 16.3822L9.00366 16.6155L9.10257 16.803L9.54481 16.5697ZM9.4459 16.3822L9.88813 16.1489L9.78922 15.9614L9.34698 16.1947L8.90475 16.428L9.00366 16.6155L9.4459 16.3822ZM9.34698 16.1947L9.78922 15.9614C9.78652 15.9563 9.79257 15.9662 9.79341 15.9874C9.7938 15.9971 9.79291 16.0061 9.7914 16.0135C9.78993 16.0207 9.78828 16.0244 9.78837 16.0242L9.33208 15.8197L8.87579 15.6153C8.75462 15.8857 8.76972 16.1721 8.90475 16.428L9.34698 16.1947ZM9.33208 15.8197L9.78837 16.0242L9.87239 15.8367L9.41609 15.6322L8.9598 15.4278L8.87579 15.6153L9.33208 15.8197ZM9.41609 15.6322L9.87239 15.8367L9.9564 15.6492L9.5001 15.4447L9.04381 15.2403L8.9598 15.4278L9.41609 15.6322ZM9.5001 15.4447L9.9564 15.6492C10.0532 15.4332 10.0833 15.1986 10.0304 14.9609L9.54233 15.0697L9.0543 15.1785C9.05706 15.1909 9.05905 15.2063 9.04381 15.2403L9.5001 15.4447ZM9.54233 15.0697L10.0304 14.9609L9.98857 14.7734L9.50054 14.8822L9.01251 14.991L9.0543 15.1785L9.54233 15.0697ZM9.50054 14.8822L9.98857 14.7734L9.94678 14.5859L9.45875 14.6947L8.97072 14.8035L9.01251 14.991L9.50054 14.8822ZM9.45875 14.6947L9.94678 14.5859C9.91727 14.4535 9.8661 14.2682 9.75179 14.1254L9.3614 14.4378L8.97101 14.7502C8.95617 14.7316 8.94844 14.7176 8.94594 14.7129C8.94324 14.7078 8.94352 14.7075 8.94596 14.7139C8.95116 14.7276 8.96011 14.7558 8.97072 14.8035L9.45875 14.6947ZM9.3614 14.4378L9.75179 14.1254L9.69623 14.0559L9.30584 14.3683L8.91544 14.6807L8.97101 14.7502L9.3614 14.4378ZM9.30584 14.3683L9.69623 14.0559L9.64066 13.9865L9.25027 14.2989L8.85988 14.6113L8.91544 14.6807L9.30584 14.3683ZM9.25027 14.2989L9.64066 13.9865C9.55088 13.8743 9.41014 13.7713 9.28841 13.6885L9.00721 14.1019L8.72601 14.5154C8.7816 14.5532 8.82089 14.5823 8.84693 14.6034C8.85976 14.6138 8.86705 14.6204 8.87022 14.6234C8.87402 14.627 8.86905 14.6228 8.85988 14.6113L9.25027 14.2989ZM9.00721 14.1019L9.28841 13.6885L9.10091 13.561L8.81971 13.9744L8.53851 14.3878L8.72601 14.5154L9.00721 14.1019ZM8.81971 13.9744L9.10091 13.561L8.91341 13.4334L8.63221 13.8469L8.35101 14.2603L8.53851 14.3878L8.81971 13.9744ZM8.63221 13.8469L8.91341 13.4334C8.69405 13.2842 8.426 13.2094 8.13943 13.2789L8.25721 13.7648L8.37499 14.2507C8.37064 14.2518 8.36437 14.2528 8.35683 14.2528C8.34928 14.2529 8.3427 14.2521 8.33779 14.251C8.32773 14.2488 8.33189 14.2473 8.35101 14.2603L8.63221 13.8469ZM8.25721 13.7648L8.13943 13.2789L7.95193 13.3243L8.06971 13.8102L8.18749 14.2962L8.37499 14.2507L8.25721 13.7648ZM8.06971 13.8102L7.95193 13.3243L7.76443 13.3698L7.88221 13.8557L7.99999 14.3416L8.18749 14.2962L8.06971 13.8102ZM7.88221 13.8557L7.76443 13.3698C7.64148 13.3996 7.51853 13.4285 7.3956 13.4567L7.50721 13.9441L7.61882 14.4314C7.74588 14.4024 7.87294 14.3724 7.99999 14.3416L7.88221 13.8557ZM7.50721 13.9441L7.3956 13.4567L7.2081 13.4996L7.31971 13.987L7.43132 14.4744L7.61882 14.4314L7.50721 13.9441ZM7.31971 13.987L7.2081 13.4996L7.0206 13.5426L7.13221 14.0299L7.24382 14.5173L7.43132 14.4744L7.31971 13.987ZM7.13221 14.0299L7.0206 13.5426C6.92442 13.5646 6.82953 13.5774 6.73557 13.5815L6.75721 14.081L6.77885 14.5805C6.93489 14.5738 7.08999 14.5525 7.24382 14.5173L7.13221 14.0299ZM6.75721 14.081L6.73557 13.5815L6.54807 13.5896L6.56971 14.0891L6.59135 14.5886L6.77885 14.5805L6.75721 14.081ZM6.56971 14.0891L6.54807 13.5896L6.36057 13.5977L6.38221 14.0972L6.40385 14.5968L6.59135 14.5886L6.56971 14.0891ZM6.38221 14.0972L6.36057 13.5977C6.27168 13.6016 6.18236 13.5959 6.09202 13.5803L6.00721 14.0731L5.9224 14.5658C6.08205 14.5933 6.24273 14.6037 6.40385 14.5968L6.38221 14.0972ZM6.00721 14.0731L6.09202 13.5803L5.90452 13.5481L5.81971 14.0408L5.7349 14.5336L5.9224 14.5658L6.00721 14.0731ZM5.81971 14.0408L5.90452 13.5481L5.71702 13.5158L5.63221 14.0085L5.5474 14.5013L5.7349 14.5336L5.81971 14.0408ZM5.63221 14.0085L5.71702 13.5158C5.50168 13.4787 5.28838 13.5011 5.08559 13.5752L5.25721 14.0448L5.42883 14.5144C5.47604 14.4972 5.51273 14.4953 5.5474 14.5013L5.63221 14.0085ZM5.25721 14.0448L5.08559 13.5752L4.89809 13.6437L5.06971 14.1133L5.24133 14.5829L5.42883 14.5144L5.25721 14.0448ZM5.06971 14.1133L4.89809 13.6437L4.71059 13.7122L4.88221 14.1818L5.05383 14.6515L5.24133 14.5829L5.06971 14.1133ZM4.88221 14.1818L4.71059 13.7122C4.70658 13.7137 4.70486 13.7139 4.70516 13.7139C4.70552 13.7138 4.70677 13.7137 4.70847 13.7137C4.71015 13.7138 4.71088 13.714 4.71026 13.7138C4.70956 13.7137 4.70654 13.7129 4.70102 13.7106L4.50721 14.1715L4.3134 14.6324C4.5523 14.7329 4.80782 14.7414 5.05383 14.6515L4.88221 14.1818ZM4.50721 14.1715L4.70102 13.7106L4.51352 13.6318L4.31971 14.0927L4.1259 14.5536L4.3134 14.6324L4.50721 14.1715ZM4.31971 14.0927L4.51352 13.6318L4.32602 13.5529L4.13221 14.0138L3.9384 14.4747L4.1259 14.5536L4.31971 14.0927ZM4.13221 14.0138L4.32602 13.5529C4.12821 13.4697 3.91706 13.4349 3.70017 13.4598L3.75721 13.9565L3.81424 14.4532C3.84735 14.4494 3.88621 14.4528 3.9384 14.4747L4.13221 14.0138ZM3.75721 13.9565L3.70017 13.4598L3.51267 13.4813L3.56971 13.978L3.62674 14.4748L3.81424 14.4532L3.75721 13.9565ZM3.56971 13.978L3.51267 13.4813L3.32517 13.5028L3.38221 13.9996L3.43924 14.4963L3.62674 14.4748L3.56971 13.978ZM3.38221 13.9996L3.32517 13.5028C3.19012 13.5183 3.05519 13.538 2.92039 13.5618L3.00721 14.0542L3.09403 14.5466C3.20923 14.5263 3.3243 14.5095 3.43924 14.4963L3.38221 13.9996ZM3.00721 14.0542L2.92039 13.5618L2.73289 13.5948L2.81971 14.0872L2.90653 14.5796L3.09403 14.5466L3.00721 14.0542ZM2.81971 14.0872L2.73289 13.5948L2.54539 13.6279L2.63221 14.1203L2.71903 14.6127L2.90653 14.5796L2.81971 14.0872ZM2.63221 14.1203L2.54539 13.6279C2.48775 13.638 2.43052 13.6367 2.36961 13.6226L2.25645 14.1096L2.14329 14.5966C2.33339 14.6408 2.52666 14.6466 2.71903 14.6127L2.63221 14.1203ZM2.25645 14.1096L2.36961 13.6226L2.18136 13.5788L2.0682 14.0659L1.95503 14.5529L2.14329 14.5966L2.25645 14.1096ZM2.0682 14.0659L2.18136 13.5788L1.9931 13.5351L1.87994 14.0221L1.76678 14.5091L1.95503 14.5529L2.0682 14.0659ZM1.87994 14.0221L1.9931 13.5351C1.97973 13.532 1.97881 13.5297 1.98429 13.5333C1.98679 13.5349 1.98965 13.5371 1.9924 13.5397C1.99514 13.5424 1.99684 13.5445 1.99757 13.5456L1.58992 13.8351L1.18226 14.1246C1.3281 14.3299 1.53507 14.4553 1.76678 14.5091L1.87994 14.0221ZM1.58992 13.8351L1.99757 13.5456L1.89581 13.4023L1.48815 13.6918L1.08049 13.9813L1.18226 14.1246L1.58992 13.8351ZM1.48815 13.6918L1.89581 13.4023L1.79404 13.259L1.38638 13.5485L0.978728 13.838L1.08049 13.9813L1.48815 13.6918ZM1.38638 13.5485L1.79404 13.259C1.74487 13.1897 1.70296 13.1167 1.66806 13.0394L1.21234 13.2451L0.756625 13.4508C0.818093 13.587 0.892206 13.7162 0.978728 13.838L1.38638 13.5485ZM1.21234 13.2451L1.66806 13.0394L1.59579 12.8793L1.14007 13.085L0.684351 13.2907L0.756625 13.4508L1.21234 13.2451ZM1.14007 13.085L1.59579 12.8793L1.52352 12.7192L1.0678 12.9249L0.612077 13.1306L0.684351 13.2907L1.14007 13.085ZM1.0678 12.9249L1.52352 12.7192C1.50167 12.6708 1.48629 12.613 1.48137 12.5413L0.982543 12.5755L0.483715 12.6097C0.496106 12.7904 0.537559 12.9655 0.612077 13.1306L1.0678 12.9249ZM0.982543 12.5755L1.48137 12.5413L1.46839 12.352L0.969563 12.3862L0.470734 12.4204L0.483715 12.6097L0.982543 12.5755ZM0.969563 12.3862L1.46839 12.352L1.45541 12.1627L0.956583 12.1969L0.457754 12.2311L0.470734 12.4204L0.969563 12.3862ZM0.956583 12.1969L1.45541 12.1627C1.44878 12.066 1.45075 11.97 1.46127 11.8742L0.964253 11.8196L0.467241 11.765C0.450227 11.92 0.447078 12.0754 0.457754 12.2311L0.956583 12.1969ZM0.964253 11.8196L1.46127 11.8742L1.48192 11.6861L0.984904 11.6315L0.487891 11.577L0.467241 11.765L0.964253 11.8196ZM0.984904 11.6315L1.48192 11.6861L1.50257 11.4981L1.00555 11.4435L0.508542 11.3889L0.487891 11.577L0.984904 11.6315ZM1.00555 11.4435L1.50257 11.4981C1.51695 11.3671 1.52918 11.2353 1.53927 11.1027L1.04071 11.0647L0.54215 11.0268C0.532898 11.1485 0.521693 11.2692 0.508542 11.3889L1.00555 11.4435ZM1.04071 11.0647L1.53927 11.1027L1.55377 10.912L1.05522 10.874L0.556655 10.8361L0.54215 11.0268L1.04071 11.0647ZM1.05522 10.874L1.55377 10.912L1.56828 10.7212L1.06972 10.6833L0.57116 10.6454L0.556655 10.8361L1.05522 10.874ZM1.06972 10.6833L1.56828 10.7212C1.57523 10.6299 1.59176 10.5409 1.6179 10.4538L1.139 10.3101L0.6601 10.1664C0.613206 10.3226 0.583549 10.4825 0.57116 10.6454L1.06972 10.6833ZM1.139 10.3101L1.6179 10.4538L1.67268 10.2713L1.19378 10.1276L0.714875 9.98386L0.6601 10.1664L1.139 10.3101ZM1.19378 10.1276L1.67268 10.2713L1.72745 10.0888L1.24855 9.94505L0.76965 9.80133L0.714875 9.98386L1.19378 10.1276ZM1.24855 9.94505L1.72745 10.0888C1.74358 10.035 1.7713 9.9816 1.81672 9.9269L1.43202 9.60751L1.04733 9.28812C0.921148 9.4401 0.82655 9.61173 0.76965 9.80133L1.24855 9.94505ZM1.43202 9.60751L1.81672 9.9269L1.94542 9.77188L1.56072 9.4525L1.17602 9.13311L1.04733 9.28812L1.43202 9.60751ZM1.56072 9.4525L1.94542 9.77188L2.07412 9.61687L1.68942 9.29748L1.30472 8.97809L1.17602 9.13311L1.56072 9.4525ZM1.68942 9.29748L2.07412 9.61687C2.21399 9.4484 2.30694 9.25175 2.34234 9.03284L1.84874 8.95303L1.35515 8.87323C1.34971 8.90689 1.33645 8.93988 1.30472 8.97809L1.68942 9.29748ZM1.84874 8.95303L2.34234 9.03284L2.37296 8.8434L1.87937 8.7636L1.38578 8.68379L1.35515 8.87323L1.84874 8.95303ZM1.87937 8.7636L2.37296 8.8434L2.40359 8.65396L1.91 8.57416L1.41641 8.49436L1.38578 8.68379L1.87937 8.7636ZM1.91 8.57416L2.40359 8.65396C2.40891 8.62105 2.42045 8.59599 2.44384 8.56933L2.06802 8.23955L1.69219 7.90977C1.54574 8.07667 1.45193 8.27469 1.41641 8.49436L1.91 8.57416ZM2.06802 8.23955L2.44384 8.56933L2.57123 8.42415L2.19541 8.09437L1.81959 7.76459L1.69219 7.90977L2.06802 8.23955ZM2.19541 8.09437L2.57123 8.42415L2.69862 8.27898L2.3228 7.9492L1.94698 7.61941L1.81959 7.76459L2.19541 8.09437ZM2.3228 7.9492L2.69862 8.27898C2.81775 8.14322 2.9136 7.99191 2.98366 7.82603L2.52304 7.63151L2.06243 7.43699C2.03535 7.50112 1.9977 7.56161 1.94698 7.61941L2.3228 7.9492ZM2.52304 7.63151L2.98366 7.82603L3.05651 7.65351L2.5959 7.45899L2.13529 7.26447L2.06243 7.43699L2.52304 7.63151ZM2.5959 7.45899L3.05651 7.65351L3.12936 7.481L2.66875 7.28648L2.20814 7.09196L2.13529 7.26447L2.5959 7.45899ZM2.66875 7.28648L3.12936 7.481C3.14902 7.43446 3.17713 7.39435 3.21808 7.35736L2.88293 6.98631L2.54778 6.61527C2.4003 6.74849 2.28563 6.90848 2.20814 7.09196L2.66875 7.28648ZM2.88293 6.98631L3.21808 7.35736L3.3594 7.22971L3.02425 6.85866L2.6891 6.48762L2.54778 6.61527L2.88293 6.98631ZM3.02425 6.85866L3.3594 7.22971L3.50072 7.10206L3.16557 6.73101L2.83042 6.35997L2.6891 6.48762L3.02425 6.85866ZM3.16557 6.73101L3.50072 7.10206C3.67559 6.9441 3.7874 6.74378 3.84089 6.52065L3.35467 6.40407L2.86846 6.28749C2.85824 6.33009 2.84398 6.34772 2.83042 6.35997L3.16557 6.73101ZM3.35467 6.40407L3.84089 6.52065L3.88868 6.32135L3.40246 6.20478L2.91624 6.0882L2.86846 6.28749L3.35467 6.40407ZM3.40246 6.20478L3.88868 6.32135L3.93646 6.12206L3.45024 6.00548L2.96402 5.8889L2.91624 6.0882L3.40246 6.20478ZM3.45024 6.00548L3.93646 6.12206C3.93762 6.11725 3.9383 6.11622 3.93752 6.11795C3.93669 6.11979 3.93481 6.12339 3.93157 6.1278C3.9283 6.13224 3.92473 6.13603 3.92148 6.13889C3.9183 6.14169 3.91662 6.14255 3.9176 6.14199L3.66891 5.70822L3.42023 5.27445C3.18149 5.41132 3.02653 5.62821 2.96402 5.8889L3.45024 6.00548ZM3.66891 5.70822L3.9176 6.14199L4.08849 6.04401L3.8398 5.61024L3.59112 5.17648L3.42023 5.27445L3.66891 5.70822ZM3.8398 5.61024L4.08849 6.04401L4.25938 5.94604L4.01069 5.51227L3.76201 5.0785L3.59112 5.17648L3.8398 5.61024ZM4.01069 5.51227L4.25938 5.94604C4.42287 5.85231 4.56678 5.73308 4.68643 5.58776L4.30042 5.26996L3.91442 4.95215C3.87561 4.99929 3.82637 5.0416 3.76201 5.0785L4.01069 5.51227ZM4.30042 5.26996L4.68643 5.58776L4.80527 5.44342L4.41926 5.12561L4.03326 4.80781L3.91442 4.95215L4.30042 5.26996ZM4.41926 5.12561L4.80527 5.44342L4.92411 5.29908L4.5381 4.98127L4.1521 4.66346L4.03326 4.80781L4.41926 5.12561ZM4.5381 4.98127L4.92411 5.29908C5.02759 5.17339 5.11753 5.03491 5.19507 4.88558L4.75132 4.65517L4.30758 4.42475C4.25928 4.51777 4.20708 4.59669 4.1521 4.66346L4.5381 4.98127ZM4.75132 4.65517L5.19507 4.88558L5.28945 4.70382L4.8457 4.47341L4.40195 4.243L4.30758 4.42475L4.75132 4.65517ZM4.8457 4.47341L5.28945 4.70382L5.38382 4.52206L4.94008 4.29165L4.49633 4.06124L4.40195 4.243L4.8457 4.47341ZM4.94008 4.29165L5.38382 4.52206C5.38481 4.52016 5.38412 4.5219 5.38095 4.52578C5.37768 4.52978 5.3729 4.53467 5.3667 4.53946C5.3605 4.54425 5.35467 4.54756 5.35023 4.5496C5.34593 4.55157 5.34442 4.55168 5.34694 4.5511L5.23494 4.06381L5.12294 3.57651C4.84712 3.63991 4.62716 3.80927 4.49633 4.06124L4.94008 4.29165ZM5.23494 4.06381L5.34694 4.5511L5.54742 4.50503L5.43543 4.01773L5.32343 3.53044L5.12294 3.57651L5.23494 4.06381ZM5.43543 4.01773L5.54742 4.50503L5.74791 4.45895L5.63591 3.97165L5.52391 3.48436L5.32343 3.53044L5.43543 4.01773ZM5.63591 3.97165L5.74791 4.45895C5.90275 4.42336 6.0512 4.37858 6.19257 4.32389L6.01217 3.85757L5.83178 3.39125C5.73877 3.42723 5.63639 3.45851 5.52391 3.48436L5.63591 3.97165ZM6.01217 3.85757L6.19257 4.32389L6.36835 4.2559L6.18795 3.78957L6.00755 3.32325L5.83178 3.39125L6.01217 3.85757ZM6.18795 3.78957L6.36835 4.2559L6.54412 4.1879L6.36373 3.72157L6.18333 3.25525L6.00755 3.32325L6.18795 3.78957ZM6.36373 3.72157L6.54412 4.1879C6.76304 4.10321 6.93768 3.95648 7.06857 3.77149L6.6604 3.4827L6.25224 3.19391C6.22192 3.23675 6.19878 3.24927 6.18333 3.25525L6.36373 3.72157ZM6.6604 3.4827L7.06857 3.77149L7.18947 3.60062L6.7813 3.31182L6.37314 3.02303L6.25224 3.19391L6.6604 3.4827ZM6.7813 3.31182L7.18947 3.60062L7.31037 3.42974L6.9022 3.14095L6.49404 2.85216L6.37314 3.02303L6.7813 3.31182ZM6.9022 3.14095L7.31037 3.42974C7.31428 3.42422 7.31636 3.42225 7.31607 3.42253C7.3157 3.42289 7.31357 3.42486 7.30964 3.42737C7.30566 3.4299 7.30131 3.43203 7.29716 3.43356C7.29308 3.43507 7.29074 3.43541 7.29101 3.43537L7.21656 2.94094L7.14212 2.44652C6.86841 2.48773 6.64713 2.63579 6.49404 2.85216L6.9022 3.14095ZM7.21656 2.94094L7.29101 3.43537L7.48447 3.40624L7.41002 2.91182L7.33557 2.41739L7.14212 2.44652L7.21656 2.94094ZM7.41002 2.91182L7.48447 3.40624L7.67792 3.37711L7.60348 2.88269L7.52903 2.38826L7.33557 2.41739L7.41002 2.91182ZM7.60348 2.88269L7.67792 3.37711C7.84695 3.35166 8.00997 3.30627 8.16549 3.23987L7.96918 2.78002L7.77287 2.32017C7.69873 2.35182 7.61795 2.37487 7.52903 2.38826L7.60348 2.88269ZM7.96918 2.78002L8.16549 3.23987L8.33774 3.16634L8.14143 2.70649L7.94512 2.24664L7.77287 2.32017L7.96918 2.78002ZM8.14143 2.70649L8.33774 3.16634L8.50999 3.09281L8.31368 2.63296L8.11737 2.17311L7.94512 2.24664L8.14143 2.70649ZM8.31368 2.63296L8.50999 3.09281C8.54406 3.07826 8.5839 3.07038 8.63857 3.07535L8.68381 2.5774L8.72905 2.07945C8.51988 2.06045 8.31297 2.08961 8.11737 2.17311L8.31368 2.63296ZM8.68381 2.5774L8.63857 3.07535L8.83644 3.09333L8.88169 2.59538L8.92693 2.09743L8.72905 2.07945L8.68381 2.5774ZM8.88169 2.59538L8.83644 3.09333L9.03432 3.11131L9.07956 2.61336L9.1248 2.11541L8.92693 2.09743L8.88169 2.59538ZM9.07956 2.61336L9.03432 3.11131C9.32311 3.13755 9.57973 3.03352 9.77841 2.84621L9.43543 2.48239L9.09245 2.11857C9.08178 2.12863 9.08226 2.12498 9.09478 2.12037C9.10061 2.11823 9.10702 2.11666 9.1133 2.11586C9.1195 2.11508 9.12359 2.1153 9.1248 2.11541L9.07956 2.61336ZM9.43543 2.48239L9.77841 2.84621L9.93641 2.69726L9.59343 2.33344L9.25045 1.96962L9.09245 2.11857L9.43543 2.48239ZM9.59343 2.33344L9.93641 2.69726L10.0944 2.54832L9.75143 2.1845L9.40845 1.82068L9.25045 1.96962L9.59343 2.33344ZM9.75143 2.1845L10.0944 2.54832C10.1105 2.5331 10.1178 2.53071 10.1152 2.53183C10.1141 2.53231 10.1119 2.5331 10.109 2.5337C10.1062 2.53429 10.1041 2.53439 10.1035 2.5344L10.1005 2.03441L10.0975 1.53442C9.82619 1.53604 9.59227 1.64738 9.40845 1.82068L9.75143 2.1845ZM10.1005 2.03441L10.1035 2.5344L10.2945 2.53325L10.2915 2.03326L10.2885 1.53327L10.0975 1.53442L10.1005 2.03441ZM10.2915 2.03326L10.2945 2.53325L10.4855 2.53211L10.4825 2.03212L10.4796 1.53213L10.2885 1.53327L10.2915 2.03326ZM10.4825 2.03212L10.4855 2.53211C10.6704 2.531 10.8512 2.49849 11.0259 2.4366L10.8589 1.96532L10.6919 1.49403C10.6195 1.51968 10.5494 1.53171 10.4796 1.53213L10.4825 2.03212ZM10.8589 1.96532L11.0259 2.4366L11.2112 2.37095L11.0442 1.89966L10.8772 1.42838L10.6919 1.49403L10.8589 1.96532ZM11.0442 1.89966L11.2112 2.37095L11.3964 2.30529L11.2294 1.83401L11.0624 1.36272L10.8772 1.42838L11.0442 1.89966ZM11.2294 1.83401L11.3964 2.30529C11.3883 2.30819 11.356 2.3169 11.3104 2.30812C11.2647 2.29931 11.2373 2.27899 11.2296 2.27226L11.561 1.89787L11.8925 1.52347C11.7873 1.4304 11.6558 1.35626 11.4995 1.32617C11.3434 1.2961 11.1942 1.31605 11.0624 1.36272L11.2294 1.83401ZM11.561 1.89787L11.2296 2.27226L11.376 2.40178L11.7074 2.02738L12.0388 1.65299L11.8925 1.52347L11.561 1.89787ZM11.7074 2.02738L11.376 2.40178L11.5223 2.53129L11.8537 2.1569L12.1851 1.78251L12.0388 1.65299L11.7074 2.02738ZM11.8537 2.1569L11.5223 2.53129C11.5687 2.5724 11.6641 2.65539 11.7794 2.70104C11.8199 2.71706 12.0254 2.79667 12.2427 2.67C12.487 2.52755 12.5 2.27805 12.5 2.21481L12 2.21481L11.5 2.21482C11.5 2.17544 11.5069 1.94143 11.739 1.80608C11.9441 1.68653 12.1314 1.76487 12.1474 1.77123C12.1725 1.78114 12.1897 1.79086 12.1974 1.79541C12.2058 1.8004 12.2104 1.8037 12.2104 1.80371C12.2107 1.80391 12.2086 1.80242 12.2039 1.7986C12.1993 1.79487 12.1931 1.7896 12.1851 1.78251L11.8537 2.1569ZM12 2.21481L12.5 2.21481L12.5 2.1432L12 2.14321L11.5 2.14321L11.5 2.21482L12 2.21481ZM12 2.14321L12.5 2.1432V2.0716L12 2.0716L11.5 2.07161V2.14321L12 2.14321ZM12 2.0716L12.5 2.0716C12.5 2.17964 12.4599 2.29876 12.3687 2.39181C12.2896 2.47254 12.2051 2.49976 12.1688 2.50891C12.1044 2.52512 12.0731 2.51402 12.1209 2.52033L12.1864 2.02464L12.2519 1.52895C12.1754 1.51884 12.0509 1.50735 11.9244 1.53921C11.8571 1.55619 11.7492 1.59524 11.6546 1.69183C11.5478 1.80072 11.5 1.9397 11.5 2.07161L12 2.0716ZM12.1864 2.02464L12.1209 2.52033L12.3073 2.54497L12.3728 2.04928L12.4383 1.55359L12.2519 1.52895L12.1864 2.02464Z" fill="#6568FF"/>
</svg>
