<svg width="24" height="24" viewBox="0 0 24 24" fill="none" xmlns="http://www.w3.org/2000/svg">
<g clip-path="url(#clip0_379_3159)">
<path d="M12.2666 15.5332C12.2666 17.6665 14.3999 19.7997 16.5332 19.7998C14.4 19.7999 12.2668 21.9332 12.2666 24.0664C12.2664 21.9332 10.1332 19.7998 8 19.7998C10.1333 19.7998 12.2666 17.6665 12.2666 15.5332ZM19.7334 7C19.7334 9.13333 21.8667 11.2666 24 11.2666C21.8667 11.2666 19.7335 13.3999 19.7334 15.5332C19.7333 13.4 17.6 11.2667 15.4668 11.2666C17.6001 11.2665 19.7334 9.13329 19.7334 7Z" fill="#FFB74A"/>
<path d="M12.2807 16.1019L12.7806 16.0895L12.2807 16.1019ZM12.372 16.4606L11.9269 16.6883L12.372 16.4606ZM12.4585 16.6297L12.9036 16.402L12.4585 16.6297ZM12.545 16.7988L12.9901 16.5711L12.545 16.7988ZM12.7571 17.1065L13.1276 16.7708L12.7571 17.1065ZM13.0083 17.3837L12.6378 17.7194L13.0083 17.3837ZM14.2062 18.7316L14.6419 18.4864L14.2062 18.7316ZM14.4047 19.0843L14.8404 18.8391L14.4047 19.0843ZM14.6698 19.3563L14.9194 18.923L14.6698 19.3563ZM15.0017 19.5474L14.7521 19.9807L15.0017 19.5474ZM15.3557 19.6806L15.4536 19.1903L15.3557 19.6806ZM15.7318 19.7557L15.8297 19.2654L15.7318 19.7557ZM16.0405 19.8615L16.2865 19.4262L16.0405 19.8615ZM16.2819 19.9979L16.0359 20.4332L16.2819 19.9979ZM16.2224 20.0582L16.2007 20.5578L16.2224 20.0582ZM16.0423 20.0504L16.0641 19.5509L16.0423 20.0504ZM15.8622 20.0426L15.8404 20.5421L15.8622 20.0426ZM15.0572 19.983L15.0159 20.4812L15.0572 19.983ZM14.6898 20.0804L14.9822 20.486L14.6898 20.0804ZM14.3716 20.3097L14.0792 19.9041L14.3716 20.3097ZM14.1234 20.6108L14.5746 20.8264L14.1234 20.6108ZM13.9453 20.9837L13.4941 20.7681L13.9453 20.9837ZM13.7303 21.2992L13.3723 20.9501L13.7303 21.2992ZM13.4786 21.5573L13.8366 21.9064L13.4786 21.5573ZM13.2576 21.8389L13.682 22.1034L13.2576 21.8389ZM13.1625 21.9915L12.7382 21.7271L13.1625 21.9915ZM13.0674 22.1442L13.4918 22.4086L13.0674 22.1442ZM12.8892 22.4557L13.3324 22.6873L12.8892 22.4557ZM12.7231 22.7736L12.28 22.5419L12.7231 22.7736ZM12.5197 23.0951L12.1178 22.7977L12.5197 23.0951ZM12.2791 23.4203L11.8772 23.1229L12.2791 23.4203ZM12.2038 23.6308L11.8389 23.9727L12.2038 23.6308ZM12.2937 23.7268L12.6586 23.3849L12.2937 23.7268ZM12.2294 23.6087L11.8117 23.8834L12.2294 23.6087ZM12.011 23.2766L12.4288 23.0019L12.011 23.2766ZM11.8268 22.9503L12.2796 22.7382L11.8268 22.9503ZM11.6767 22.6298L11.2239 22.8418L11.6767 22.6298ZM11.5007 22.3244L11.0903 22.61L11.5007 22.3244ZM11.2988 22.0343L11.7092 21.7487L11.2988 22.0343ZM11.053 21.5371L10.5906 21.7273L11.053 21.5371ZM10.7491 21.0891L10.4911 21.5174L10.7491 21.0891ZM10.59 20.9933L10.332 21.4216L10.59 20.9933ZM10.431 20.8975L10.689 20.4692L10.431 20.8975ZM10.1494 20.6485L9.75894 20.9608L10.1494 20.6485ZM10.0269 20.4954L10.4174 20.1831L10.0269 20.4954ZM9.90444 20.3423L9.51399 20.6546L9.90444 20.3423ZM9.5848 20.1834L9.59951 19.6836L9.5848 20.1834ZM9.19046 20.1717L9.17576 20.6715L9.19046 20.1717ZM8.81872 20.148L8.76756 20.6454L8.81872 20.148ZM8.46958 20.1121L8.52075 19.6147L8.46958 20.1121ZM8.33253 20.0508L7.95459 19.7234L8.33253 20.0508ZM8.40758 19.9641L8.78552 20.2915L8.40758 19.9641ZM8.63687 19.8826L8.53907 19.3922L8.63687 19.8826ZM8.82864 19.8443L8.92645 20.3347L8.82864 19.8443ZM9.02042 19.8061L8.92261 19.3157L9.02042 19.8061ZM9.39176 19.6911L9.19521 19.2313L9.39176 19.6911ZM10.0348 19.2787L9.60109 19.03L10.0348 19.2787ZM10.1392 19.0966L9.70548 18.8479L10.1392 19.0966ZM10.2436 18.9146L9.80986 18.6659L10.2436 18.9146ZM10.4713 18.6015L10.1071 18.2589L10.4713 18.6015ZM10.7178 18.3395L11.0819 18.6822L10.7178 18.3395ZM10.9822 18.0906L10.6616 17.7069L10.9822 18.0906ZM11.1234 17.9726L10.8028 17.5889L11.1234 17.9726ZM11.2646 17.8546L11.5852 18.2383L11.2646 17.8546ZM11.5464 17.6021L11.8921 17.9633L11.5464 17.6021ZM11.8276 17.3329L12.1733 17.6941L11.8276 17.3329ZM12.0428 17.0206L11.5817 16.8272L12.0428 17.0206ZM12.1919 16.665L12.653 16.8584L12.1919 16.665ZM12.3176 16.2968L12.8005 16.4264L12.3176 16.2968ZM12.4198 15.6774L12.7625 15.3134L12.4198 15.6774ZM12.3177 15.5813L11.9749 15.9453L12.3177 15.5813ZM12.2713 15.7228L12.7712 15.7104L12.2713 15.7228ZM19.7906 7.55913L19.2931 7.60997L19.7906 7.55913ZM19.9061 7.9073L19.4766 8.16337L19.9061 7.9073ZM20.0026 8.06909L20.432 7.81302L20.0026 8.06909ZM20.099 8.23089L19.6696 8.48696L20.099 8.23089ZM20.277 8.55456L19.8304 8.77941L20.277 8.55456ZM20.3585 8.71644L20.8051 8.49158L20.3585 8.71644ZM20.44 8.87832L20.8866 8.65346L20.44 8.87832ZM20.6238 9.19214L21.0386 8.91293L20.6238 9.19214ZM20.8284 9.49602L20.4136 9.77523L20.8284 9.49602ZM21.048 9.79328L21.437 9.47914L21.048 9.79328ZM21.1654 9.9386L20.7764 10.2528L21.1654 9.9386ZM21.2827 10.0839L21.6717 9.76977L21.2827 10.0839ZM21.5587 10.3273L21.2958 10.7526L21.5587 10.3273ZM21.876 10.5236L22.139 10.0983L21.876 10.5236ZM22.2051 10.6916L22.0153 11.1542L22.2051 10.6916ZM22.5459 10.8314L22.7357 10.3688L22.5459 10.8314ZM22.8776 11.0254L22.5727 11.4217L22.8776 11.0254ZM23.2002 11.2737L23.5052 10.8775L23.2002 11.2737ZM23.4869 11.3959L23.4947 11.8958L23.4869 11.3959ZM23.7377 11.3919L23.7455 11.8919L23.7377 11.3919ZM23.6673 11.3523L23.7618 10.8613L23.6673 11.3523ZM23.2757 11.2769L23.1812 11.7679L23.2757 11.2769ZM22.9189 11.3511L23.2041 11.7617L22.9189 11.3511ZM22.5968 11.5748L22.3116 11.1642L22.5968 11.5748ZM22.3003 11.8155L21.9558 11.4531L22.3003 11.8155ZM22.0292 12.0732L22.3737 12.4356L22.0292 12.0732ZM21.711 12.2682L21.8813 12.7383L21.711 12.2682ZM21.5284 12.3343L21.3581 11.8642L21.5284 12.3343ZM21.3458 12.4004L21.5161 12.8706L21.3458 12.4004ZM21.0411 12.6095L21.4212 12.9343L21.0411 12.6095ZM20.9189 12.7525L20.5388 12.4277L20.9189 12.7525ZM20.7968 12.8955L21.1769 13.2203L20.7968 12.8955ZM20.6062 13.2143L20.1402 13.0329L20.6062 13.2143ZM20.4692 13.566L20.9351 13.7474L20.4692 13.566ZM20.2805 13.8896L19.8926 13.5741L20.2805 13.8896ZM20.1603 14.0374L20.5482 14.3529L20.1603 14.0374ZM20.0401 14.1852L19.6522 13.8697L20.0401 14.1852ZM19.9317 14.5242L20.4307 14.4934L19.9317 14.5242ZM19.9552 14.9064L20.4543 14.8757L19.9552 14.9064ZM19.7744 15.2119L20.0296 15.6418L19.7744 15.2119ZM19.7449 15.0454L20.2379 15.129L19.7449 15.0454ZM19.8143 14.6363L19.3213 14.5527L19.8143 14.6363ZM19.6802 14.2944L19.9958 13.9066L19.6802 14.2944ZM19.3426 14.0198L19.0271 14.4076L19.3426 14.0198ZM19.1102 13.7042L18.6393 13.8722L19.1102 13.7042ZM19.0467 13.5259L19.5176 13.3579L19.0467 13.5259ZM18.7864 13.037L19.1391 12.6826L18.7864 13.037ZM18.5203 12.7722L18.1676 13.1267L18.5203 12.7722ZM18.2124 12.5641L18.4113 12.1053L18.2124 12.5641ZM17.8628 12.4125L17.6639 12.8713L17.8628 12.4125ZM17.5845 12.1546L17.1497 12.4016L17.5845 12.1546ZM17.3774 11.7903L17.8122 11.5433L17.3774 11.7903ZM17.1025 11.5123L16.8585 11.9488L17.1025 11.5123ZM16.9311 11.4165L16.6871 11.8529L16.9311 11.4165ZM16.7597 11.3207L17.0037 10.8842L16.7597 11.3207ZM16.3896 11.2291L16.3788 10.7292L16.3896 11.2291ZM15.9921 11.2376L16.0028 11.7375L15.9921 11.2376ZM15.8119 11.1928L15.3441 11.0163L15.8119 11.1928ZM15.849 11.0946L16.3168 11.2711L15.849 11.0946ZM16.0317 10.9802L15.8469 10.5156L16.0317 10.9802ZM16.3602 10.8495L16.545 11.3141L16.3602 10.8495ZM16.7036 10.7495L16.6085 10.2586L16.7036 10.7495ZM16.8828 10.7148L16.9779 11.2057L16.8828 10.7148ZM17.062 10.6801L16.9669 10.1892L17.062 10.6801ZM17.3894 10.5401L17.679 10.9477L17.3894 10.5401ZM17.5376 10.4348L17.248 10.0272L17.5376 10.4348ZM17.6858 10.3295L17.3962 9.92187L17.6858 10.3295ZM18.0046 10.1367L17.7765 9.69174L18.0046 10.1367ZM18.3459 9.96173L18.574 10.4067L18.3459 9.96173ZM18.6525 9.73948L18.3004 9.38441L18.6525 9.73948ZM18.9243 9.46993L19.2764 9.825L18.9243 9.46993ZM19.197 9.18849L19.5627 9.52947L19.197 9.18849ZM19.4705 8.89516L19.1048 8.55418L19.4705 8.89516ZM19.5748 8.32516L20.0734 8.28697L19.5748 8.32516ZM19.5586 8.11349L19.0601 8.15168L19.5586 8.11349ZM19.6138 7.72294L20.0782 7.90818L19.6138 7.72294ZM19.7565 7.36517L20.2209 7.55041L19.7565 7.36517ZM19.757 7.04657L19.311 7.27263L19.757 7.04657ZM19.7524 7.18638L20.2499 7.13553L19.7524 7.18638ZM12.276 15.9123L11.7762 15.9248L11.7809 16.1143L12.2807 16.1019L12.7806 16.0895L12.7759 15.8999L12.276 15.9123ZM12.2807 16.1019L11.7809 16.1143C11.7859 16.3158 11.8351 16.509 11.9269 16.6883L12.372 16.4606L12.8171 16.2329C12.7935 16.1868 12.7819 16.1408 12.7806 16.0895L12.2807 16.1019ZM12.372 16.4606L11.9269 16.6883L12.0134 16.8575L12.4585 16.6297L12.9036 16.402L12.8171 16.2329L12.372 16.4606ZM12.4585 16.6297L12.0134 16.8575L12.0999 17.0266L12.545 16.7988L12.9901 16.5711L12.9036 16.402L12.4585 16.6297ZM12.545 16.7988L12.0999 17.0266C12.1773 17.1778 12.2729 17.3168 12.3866 17.4423L12.7571 17.1065L13.1276 16.7708C13.0739 16.7115 13.0281 16.6453 12.9901 16.5711L12.545 16.7988ZM12.7571 17.1065L12.3866 17.4423L12.5122 17.5808L12.8827 17.2451L13.2532 16.9093L13.1276 16.7708L12.7571 17.1065ZM12.8827 17.2451L12.5122 17.5808L12.6378 17.7194L13.0083 17.3837L13.3788 17.0479L13.2532 16.9093L12.8827 17.2451ZM13.0083 17.3837L12.6378 17.7194C12.7004 17.7886 12.7538 17.8605 12.7988 17.9352L13.2272 17.6774L13.6556 17.4196C13.5761 17.2874 13.4836 17.1636 13.3788 17.0479L13.0083 17.3837ZM13.2272 17.6774L12.7988 17.9352L12.8921 18.0903L13.3205 17.8325L13.749 17.5747L13.6556 17.4196L13.2272 17.6774ZM13.3205 17.8325L12.8921 18.0903L12.9855 18.2454L13.4139 17.9876L13.8423 17.7298L13.749 17.5747L13.3205 17.8325ZM13.4139 17.9876L12.9855 18.2454C13.0847 18.4103 13.2154 18.5488 13.3738 18.6578L13.6572 18.2458L13.9405 17.8339C13.899 17.8053 13.8675 17.7717 13.8423 17.7298L13.4139 17.9876ZM13.6572 18.2458L13.3738 18.6578L13.5237 18.7609L13.8071 18.349L14.0904 17.937L13.9405 17.8339L13.6572 18.2458ZM13.8071 18.349L13.5237 18.7609L13.6737 18.864L13.957 18.4521L14.2404 18.0401L14.0904 17.937L13.8071 18.349ZM13.957 18.4521L13.6737 18.864C13.704 18.8849 13.7374 18.9181 13.7704 18.9768L14.2062 18.7316L14.6419 18.4864C14.5426 18.3099 14.4099 18.1568 14.2404 18.0401L13.957 18.4521ZM14.2062 18.7316L13.7704 18.9768L13.8697 19.1531L14.3054 18.908L14.7412 18.6628L14.6419 18.4864L14.2062 18.7316ZM14.3054 18.908L13.8697 19.1531L13.9689 19.3295L14.4047 19.0843L14.8404 18.8391L14.7412 18.6628L14.3054 18.908ZM14.4047 19.0843L13.9689 19.3295C14.0765 19.5207 14.2273 19.6784 14.4203 19.7895L14.6698 19.3563L14.9194 18.923C14.8911 18.9067 14.8652 18.8831 14.8404 18.8391L14.4047 19.0843ZM14.6698 19.3563L14.4203 19.7895L14.5862 19.8851L14.8357 19.4518L15.0853 19.0186L14.9194 18.923L14.6698 19.3563ZM14.8357 19.4518L14.5862 19.8851L14.7521 19.9807L15.0017 19.5474L15.2512 19.1142L15.0853 19.0186L14.8357 19.4518ZM15.0017 19.5474L14.7521 19.9807C14.9099 20.0716 15.0791 20.1352 15.2577 20.1709L15.3557 19.6806L15.4536 19.1903C15.3814 19.1758 15.3147 19.1507 15.2512 19.1142L15.0017 19.5474ZM15.3557 19.6806L15.2577 20.1709L15.4458 20.2085L15.5437 19.7181L15.6417 19.2278L15.4536 19.1903L15.3557 19.6806ZM15.5437 19.7181L15.4458 20.2085L15.6338 20.246L15.7318 19.7557L15.8297 19.2654L15.6417 19.2278L15.5437 19.7181ZM15.7318 19.7557L15.6338 20.246C15.7257 20.2644 15.7741 20.2852 15.7945 20.2968L16.0405 19.8615L16.2865 19.4262C16.1461 19.3468 15.9887 19.2972 15.8297 19.2654L15.7318 19.7557ZM16.0405 19.8615L15.7945 20.2968L15.9152 20.365L16.1612 19.9297L16.4072 19.4944L16.2865 19.4262L16.0405 19.8615ZM16.1612 19.9297L15.9152 20.365L16.0359 20.4332L16.2819 19.9979L16.5279 19.5626L16.4072 19.4944L16.1612 19.9297ZM16.2819 19.9979L16.0359 20.4332C16.0356 20.4331 16.0341 20.4322 16.0314 20.4305C16.0289 20.4289 16.0245 20.4261 16.0188 20.4221C16.0103 20.4161 15.985 20.3978 15.9563 20.3667C15.9341 20.3427 15.8652 20.2643 15.8396 20.1357C15.8063 19.9677 15.8639 19.8051 15.9711 19.6962C16.0534 19.6127 16.1412 19.5838 16.1685 19.5755C16.2045 19.5644 16.2317 19.5612 16.2408 19.5602C16.2594 19.5582 16.2641 19.5596 16.2442 19.5587L16.2224 20.0582L16.2007 20.5578C16.2408 20.5595 16.293 20.5603 16.3466 20.5546C16.3731 20.5518 16.4147 20.5459 16.462 20.5314C16.5005 20.5196 16.5964 20.4865 16.6836 20.3979C16.7957 20.2841 16.8552 20.1156 16.8205 19.941C16.7937 19.8058 16.7203 19.72 16.6905 19.6878C16.6272 19.6193 16.5556 19.5783 16.5279 19.5626L16.2819 19.9979ZM16.2224 20.0582L16.2442 19.5587L16.0641 19.5509L16.0423 20.0504L16.0205 20.5499L16.2007 20.5578L16.2224 20.0582ZM16.0423 20.0504L16.0641 19.5509L15.884 19.543L15.8622 20.0426L15.8404 20.5421L16.0205 20.5499L16.0423 20.0504ZM15.8622 20.0426L15.884 19.543C15.7713 19.5381 15.6484 19.5302 15.515 19.5192L15.4738 20.0175L15.4325 20.5157C15.5769 20.5277 15.7129 20.5365 15.8404 20.5421L15.8622 20.0426ZM15.4738 20.0175L15.515 19.5192L15.3067 19.5019L15.2655 20.0002L15.2242 20.4985L15.4325 20.5157L15.4738 20.0175ZM15.2655 20.0002L15.3067 19.5019L15.0984 19.4847L15.0572 19.983L15.0159 20.4812L15.2242 20.4985L15.2655 20.0002ZM15.0572 19.983L15.0984 19.4847C14.8493 19.464 14.6068 19.5239 14.3974 19.6748L14.6898 20.0804L14.9822 20.486C14.9852 20.4838 14.9869 20.4829 14.9875 20.4826C14.9881 20.4823 14.9886 20.4822 14.9893 20.482C14.9901 20.4818 14.9977 20.4797 15.0159 20.4812L15.0572 19.983ZM14.6898 20.0804L14.3974 19.6748L14.2383 19.7895L14.5307 20.1951L14.8231 20.6007L14.9822 20.486L14.6898 20.0804ZM14.5307 20.1951L14.2383 19.7895L14.0792 19.9041L14.3716 20.3097L14.664 20.7153L14.8231 20.6007L14.5307 20.1951ZM14.3716 20.3097L14.0792 19.9041C13.9015 20.0323 13.7659 20.1995 13.6723 20.3952L14.1234 20.6108L14.5746 20.8264C14.5998 20.7736 14.6296 20.7401 14.664 20.7153L14.3716 20.3097ZM14.1234 20.6108L13.6723 20.3952L13.5832 20.5817L14.0343 20.7973L14.4855 21.0129L14.5746 20.8264L14.1234 20.6108ZM14.0343 20.7973L13.5832 20.5817L13.4941 20.7681L13.9453 20.9837L14.3964 21.1993L14.4855 21.0129L14.0343 20.7973ZM13.9453 20.9837L13.4941 20.7681C13.4549 20.8502 13.413 20.9084 13.3723 20.9501L13.7303 21.2992L14.0883 21.6483C14.2154 21.5179 14.3168 21.3658 14.3964 21.1993L13.9453 20.9837ZM13.7303 21.2992L13.3723 20.9501L13.2465 21.0791L13.6045 21.4282L13.9624 21.7773L14.0883 21.6483L13.7303 21.2992ZM13.6045 21.4282L13.2465 21.0791L13.1206 21.2082L13.4786 21.5573L13.8366 21.9064L13.9624 21.7773L13.6045 21.4282ZM13.4786 21.5573L13.1206 21.2082C13.0117 21.3199 12.9158 21.4421 12.8333 21.5745L13.2576 21.8389L13.682 22.1034C13.7263 22.0322 13.7777 21.9667 13.8366 21.9064L13.4786 21.5573ZM13.2576 21.8389L12.8333 21.5745L12.7382 21.7271L13.1625 21.9915L13.5869 22.256L13.682 22.1034L13.2576 21.8389ZM13.1625 21.9915L12.7382 21.7271L12.6431 21.8797L13.0674 22.1442L13.4918 22.4086L13.5869 22.256L13.1625 21.9915ZM13.0674 22.1442L12.6431 21.8797C12.573 21.9921 12.5074 22.1069 12.4461 22.2241L12.8892 22.4557L13.3324 22.6873C13.3819 22.5926 13.435 22.4997 13.4918 22.4086L13.0674 22.1442ZM12.8892 22.4557L12.4461 22.2241L12.363 22.383L12.8062 22.6146L13.2493 22.8462L13.3324 22.6873L12.8892 22.4557ZM12.8062 22.6146L12.363 22.383L12.28 22.5419L12.7231 22.7736L13.1662 23.0052L13.2493 22.8462L12.8062 22.6146ZM12.7231 22.7736L12.28 22.5419C12.238 22.6222 12.1845 22.7075 12.1178 22.7977L12.5197 23.0951L12.9217 23.3925C13.0154 23.2658 13.0974 23.1368 13.1662 23.0052L12.7231 22.7736ZM12.5197 23.0951L12.1178 22.7977L11.9975 22.9603L12.3994 23.2577L12.8014 23.555L12.9217 23.3925L12.5197 23.0951ZM12.3994 23.2577L11.9975 22.9603L11.8772 23.1229L12.2791 23.4203L12.6811 23.7176L12.8014 23.555L12.3994 23.2577ZM12.2791 23.4203L11.8772 23.1229C11.8275 23.1901 11.7667 23.2814 11.7294 23.3857C11.7002 23.4673 11.6229 23.7421 11.8389 23.9727L12.2038 23.6308L12.5687 23.289C12.6557 23.3818 12.6871 23.491 12.6911 23.576C12.6947 23.6512 12.6774 23.7044 12.6709 23.7227C12.6587 23.7568 12.6506 23.7588 12.6811 23.7176L12.2791 23.4203ZM12.2038 23.6308L11.8389 23.9727L11.8838 24.0206L12.2487 23.6788L12.6136 23.337L12.5687 23.289L12.2038 23.6308ZM12.2487 23.6788L11.8838 24.0206L11.9288 24.0686L12.2937 23.7268L12.6586 23.3849L12.6136 23.337L12.2487 23.6788ZM12.2937 23.7268L11.9288 24.0686C11.9359 24.0763 11.9565 24.0981 11.984 24.1208C11.9941 24.1292 12.0311 24.1598 12.0855 24.1864C12.1115 24.1991 12.172 24.2264 12.2548 24.2349C12.3444 24.2441 12.4976 24.233 12.6333 24.1158C12.7611 24.0055 12.7938 23.8688 12.8026 23.8013C12.8116 23.7322 12.8039 23.6772 12.7996 23.6517C12.7906 23.5992 12.7751 23.5598 12.7702 23.5476C12.7578 23.5165 12.7444 23.4917 12.7393 23.4822C12.717 23.4413 12.6818 23.3866 12.6472 23.334L12.2294 23.6087L11.8117 23.8834C11.8498 23.9415 11.8618 23.9618 11.8609 23.9602C11.86 23.9585 11.8578 23.9545 11.855 23.9487C11.8525 23.9437 11.8472 23.9327 11.8412 23.9177C11.8374 23.9081 11.8225 23.8709 11.8138 23.82C11.8096 23.7953 11.802 23.741 11.8109 23.6723C11.8197 23.6053 11.8522 23.4691 11.9797 23.359C12.1152 23.242 12.2679 23.231 12.3572 23.2401C12.4394 23.2486 12.4994 23.2756 12.5248 23.2881C12.5778 23.314 12.6131 23.3434 12.621 23.35C12.6347 23.3613 12.6443 23.3706 12.6486 23.3748C12.6536 23.3797 12.657 23.3833 12.6586 23.3849L12.2937 23.7268ZM12.2294 23.6087L12.6472 23.334L12.538 23.1679L12.1202 23.4426L11.7025 23.7174L11.8117 23.8834L12.2294 23.6087ZM12.1202 23.4426L12.538 23.1679L12.4288 23.0019L12.011 23.2766L11.5933 23.5513L11.7025 23.7174L12.1202 23.4426ZM12.011 23.2766L12.4288 23.0019C12.3676 22.9088 12.3183 22.8209 12.2796 22.7382L11.8268 22.9503L11.374 23.1623C11.4353 23.2933 11.5089 23.423 11.5933 23.5513L12.011 23.2766ZM11.8268 22.9503L12.2796 22.7382L12.2045 22.5779L11.7517 22.79L11.2989 23.0021L11.374 23.1623L11.8268 22.9503ZM11.7517 22.79L12.2045 22.5779L12.1295 22.4177L11.6767 22.6298L11.2239 22.8418L11.2989 23.0021L11.7517 22.79ZM11.6767 22.6298L12.1295 22.4177C12.0674 22.2852 11.9946 22.1589 11.9111 22.0389L11.5007 22.3244L11.0903 22.61C11.1413 22.6835 11.1858 22.7606 11.2239 22.8418L11.6767 22.6298ZM11.5007 22.3244L11.9111 22.0389L11.8101 21.8938L11.3997 22.1794L10.9893 22.465L11.0903 22.61L11.5007 22.3244ZM11.3997 22.1794L11.8101 21.8938L11.7092 21.7487L11.2988 22.0343L10.8884 22.3199L10.9893 22.465L11.3997 22.1794ZM11.2988 22.0343L11.7092 21.7487C11.6642 21.6841 11.6234 21.6094 11.5879 21.523L11.1254 21.7132L10.663 21.9034C10.724 22.0518 10.7988 22.1912 10.8884 22.3199L11.2988 22.0343ZM11.1254 21.7132L11.5879 21.523L11.5154 21.347L11.053 21.5371L10.5906 21.7273L10.663 21.9034L11.1254 21.7132ZM11.053 21.5371L11.5154 21.347L11.443 21.1709L10.9806 21.3611L10.5182 21.5512L10.5906 21.7273L11.053 21.5371ZM10.9806 21.3611L11.443 21.1709C11.3551 20.9569 11.2076 20.7816 11.0071 20.6609L10.7491 21.0891L10.4911 21.5174C10.5028 21.5245 10.5096 21.5304 10.5182 21.5512L10.9806 21.3611ZM10.7491 21.0891L11.0071 20.6609L10.8481 20.565L10.59 20.9933L10.332 21.4216L10.4911 21.5174L10.7491 21.0891ZM10.59 20.9933L10.8481 20.565L10.689 20.4692L10.431 20.8975L10.173 21.3258L10.332 21.4216L10.59 20.9933ZM10.431 20.8975L10.689 20.4692C10.6364 20.4375 10.5866 20.3947 10.5399 20.3362L10.1494 20.6485L9.75894 20.9608C9.87546 21.1065 10.0135 21.2297 10.173 21.3258L10.431 20.8975ZM10.1494 20.6485L10.5399 20.3362L10.4174 20.1831L10.0269 20.4954L9.63647 20.8077L9.75894 20.9608L10.1494 20.6485ZM10.0269 20.4954L10.4174 20.1831L10.2949 20.03L9.90444 20.3423L9.51399 20.6546L9.63647 20.8077L10.0269 20.4954ZM9.90444 20.3423L10.2949 20.03C10.1209 19.8125 9.87663 19.6917 9.59951 19.6836L9.5848 20.1834L9.57009 20.6831C9.57123 20.6832 9.55867 20.6826 9.5407 20.6737C9.53248 20.6696 9.52568 20.665 9.5206 20.6608C9.51564 20.6567 9.5136 20.6541 9.51399 20.6546L9.90444 20.3423ZM9.5848 20.1834L9.59951 19.6836L9.40234 19.6778L9.38763 20.1775L9.37292 20.6773L9.57009 20.6831L9.5848 20.1834ZM9.38763 20.1775L9.40234 19.6778L9.20517 19.672L9.19046 20.1717L9.17576 20.6715L9.37292 20.6773L9.38763 20.1775ZM9.19046 20.1717L9.20517 19.672C9.08444 19.6684 8.97278 19.6612 8.86989 19.6506L8.81872 20.148L8.76756 20.6454C8.89743 20.6587 9.0336 20.6673 9.17576 20.6715L9.19046 20.1717ZM8.81872 20.148L8.86989 19.6506L8.69532 19.6327L8.64415 20.13L8.59299 20.6274L8.76756 20.6454L8.81872 20.148ZM8.64415 20.13L8.69532 19.6327L8.52075 19.6147L8.46958 20.1121L8.41842 20.6094L8.59299 20.6274L8.64415 20.13ZM8.46958 20.1121L8.52075 19.6147C8.46368 19.6088 8.49487 19.6057 8.55213 19.6313C8.56686 19.6379 8.71357 19.6996 8.78816 19.8776C8.88918 20.1186 8.76771 20.3121 8.71047 20.3781L8.33253 20.0508L7.95459 19.7234C7.88485 19.804 7.75971 20.0108 7.8659 20.2641C7.94565 20.4544 8.10637 20.5274 8.14394 20.5442C8.24687 20.5902 8.3591 20.6033 8.41842 20.6094L8.46958 20.1121ZM8.33253 20.0508L8.71047 20.3781L8.748 20.3348L8.37005 20.0075L7.99211 19.6801L7.95459 19.7234L8.33253 20.0508ZM8.37005 20.0075L8.748 20.3348L8.78552 20.2915L8.40758 19.9641L8.02964 19.6368L7.99211 19.6801L8.37005 20.0075ZM8.40758 19.9641L8.78552 20.2915C8.76069 20.3202 8.73691 20.3402 8.71975 20.3531C8.70232 20.3662 8.68756 20.375 8.67785 20.3804C8.65942 20.3906 8.64848 20.3942 8.65125 20.3932C8.65289 20.3926 8.66038 20.3901 8.67551 20.3862C8.69028 20.3824 8.70977 20.3779 8.73467 20.3729L8.63687 19.8826L8.53907 19.3922C8.46382 19.4072 8.38646 19.426 8.31608 19.451C8.26877 19.4678 8.13361 19.5167 8.02964 19.6368L8.40758 19.9641ZM8.63687 19.8826L8.73467 20.3729L8.92645 20.3347L8.82864 19.8443L8.73084 19.354L8.53907 19.3922L8.63687 19.8826ZM8.82864 19.8443L8.92645 20.3347L9.11822 20.2964L9.02042 19.8061L8.92261 19.3157L8.73084 19.354L8.82864 19.8443ZM9.02042 19.8061L9.11822 20.2964C9.2799 20.2642 9.43678 20.2156 9.58831 20.1508L9.39176 19.6911L9.19521 19.2313C9.10731 19.2689 9.01662 19.297 8.92261 19.3157L9.02042 19.8061ZM9.39176 19.6911L9.58831 20.1508L9.76788 20.074L9.57133 19.6143L9.37478 19.1545L9.19521 19.2313L9.39176 19.6911ZM9.57133 19.6143L9.76788 20.074L9.94744 19.9973L9.7509 19.5375L9.55435 19.0778L9.37478 19.1545L9.57133 19.6143ZM9.7509 19.5375L9.94744 19.9973C10.1747 19.9001 10.3493 19.7355 10.4686 19.5274L10.0348 19.2787L9.60109 19.03C9.58126 19.0646 9.56652 19.0726 9.55435 19.0778L9.7509 19.5375ZM10.0348 19.2787L10.4686 19.5274L10.573 19.3453L10.1392 19.0966L9.70548 18.8479L9.60109 19.03L10.0348 19.2787ZM10.1392 19.0966L10.573 19.3453L10.6774 19.1633L10.2436 18.9146L9.80986 18.6659L9.70548 18.8479L10.1392 19.0966ZM10.2436 18.9146L10.6774 19.1633C10.7307 19.0704 10.784 18.9988 10.8354 18.9442L10.4713 18.6015L10.1071 18.2589C9.99415 18.379 9.89576 18.5161 9.80986 18.6659L10.2436 18.9146ZM10.4713 18.6015L10.8354 18.9442L10.9587 18.8132L10.5945 18.4705L10.2304 18.1279L10.1071 18.2589L10.4713 18.6015ZM10.5945 18.4705L10.9587 18.8132L11.0819 18.6822L10.7178 18.3395L10.3537 17.9969L10.2304 18.1279L10.5945 18.4705ZM10.7178 18.3395L11.0819 18.6822C11.1501 18.6097 11.2237 18.5404 11.3029 18.4742L10.9822 18.0906L10.6616 17.7069C10.5526 17.798 10.4498 17.8947 10.3537 17.9969L10.7178 18.3395ZM10.9822 18.0906L11.3029 18.4742L11.444 18.3563L11.1234 17.9726L10.8028 17.5889L10.6616 17.7069L10.9822 18.0906ZM11.1234 17.9726L11.444 18.3563L11.5852 18.2383L11.2646 17.8546L10.944 17.471L10.8028 17.5889L11.1234 17.9726ZM11.2646 17.8546L11.5852 18.2383C11.6884 18.1521 11.7907 18.0603 11.8921 17.9633L11.5464 17.6021L11.2006 17.2409C11.1145 17.3233 11.029 17.3999 10.944 17.471L11.2646 17.8546ZM11.5464 17.6021L11.8921 17.9633L12.0327 17.8287L11.687 17.4675L11.3412 17.1063L11.2006 17.2409L11.5464 17.6021ZM11.687 17.4675L12.0327 17.8287L12.1733 17.6941L11.8276 17.3329L11.4818 16.9717L11.3412 17.1063L11.687 17.4675ZM11.8276 17.3329L12.1733 17.6941C12.3161 17.5575 12.4273 17.3964 12.5038 17.214L12.0428 17.0206L11.5817 16.8272C11.5588 16.8818 11.5265 16.929 11.4818 16.9717L11.8276 17.3329ZM12.0428 17.0206L12.5038 17.214L12.5784 17.0362L12.1173 16.8428L11.6563 16.6494L11.5817 16.8272L12.0428 17.0206ZM12.1173 16.8428L12.5784 17.0362L12.653 16.8584L12.1919 16.665L11.7308 16.4716L11.6563 16.6494L12.1173 16.8428ZM12.1919 16.665L12.653 16.8584C12.7116 16.7187 12.7607 16.5746 12.8005 16.4264L12.3176 16.2968L11.8347 16.1673C11.8063 16.273 11.7716 16.3743 11.7308 16.4716L12.1919 16.665ZM12.3176 16.2968L12.8005 16.4264L12.8516 16.2359L12.3687 16.1064L11.8857 15.9768L11.8347 16.1673L12.3176 16.2968ZM12.3687 16.1064L12.8516 16.2359L12.9027 16.0455L12.4198 15.9159L11.9368 15.7864L11.8857 15.9768L12.3687 16.1064ZM12.4198 15.9159L12.9027 16.0455C12.9247 15.9634 12.9453 15.8638 12.9453 15.7612C12.9453 15.6749 12.9312 15.4722 12.7625 15.3134L12.4198 15.6774L12.077 16.0415C12.0083 15.9768 11.9756 15.9053 11.9607 15.8563C11.9464 15.8093 11.9453 15.774 11.9453 15.761C11.9453 15.7379 11.9489 15.7415 11.9368 15.7864L12.4198 15.9159ZM12.4198 15.6774L12.7625 15.3134L12.7115 15.2653L12.3687 15.6294L12.026 15.9934L12.077 16.0415L12.4198 15.6774ZM12.3687 15.6294L12.7115 15.2653L12.6604 15.2172L12.3177 15.5813L11.9749 15.9453L12.026 15.9934L12.3687 15.6294ZM12.3177 15.5813L12.6604 15.2172C12.6268 15.1856 12.4314 15.0078 12.1496 15.0939C11.89 15.1732 11.8163 15.4036 11.8054 15.437C11.7676 15.5525 11.77 15.6767 11.7715 15.7352L12.2713 15.7228L12.7712 15.7104C12.7709 15.6999 12.7709 15.6919 12.771 15.6862C12.771 15.6803 12.7712 15.6778 12.7712 15.6782C12.7712 15.6783 12.7708 15.6839 12.7692 15.6936C12.7678 15.7024 12.7642 15.7222 12.7557 15.7483C12.748 15.7717 12.7299 15.8206 12.6902 15.8746C12.6488 15.931 12.5696 16.0112 12.4417 16.0503C12.1722 16.1326 11.9915 15.9609 11.9749 15.9453L12.3177 15.5813ZM12.2713 15.7228L11.7715 15.7352L11.7762 15.9248L12.276 15.9123L12.7759 15.8999L12.7712 15.7104L12.2713 15.7228ZM19.7715 7.37275L19.2741 7.4236L19.2931 7.60997L19.7906 7.55913L20.288 7.50828L20.2689 7.32191L19.7715 7.37275ZM19.7906 7.55913L19.2931 7.60997C19.3133 7.80718 19.3752 7.99323 19.4766 8.16337L19.9061 7.9073L20.3355 7.65122C20.3083 7.60564 20.2932 7.55958 20.288 7.50828L19.7906 7.55913ZM19.9061 7.9073L19.4766 8.16337L19.5731 8.32517L20.0026 8.06909L20.432 7.81302L20.3355 7.65122L19.9061 7.9073ZM20.0026 8.06909L19.5731 8.32517L19.6696 8.48696L20.099 8.23089L20.5285 7.97481L20.432 7.81302L20.0026 8.06909ZM20.099 8.23089L19.6696 8.48696C19.7281 8.58502 19.7816 8.68251 19.8304 8.77941L20.277 8.55456L20.7236 8.3297C20.6637 8.21077 20.5986 8.09248 20.5285 7.97481L20.099 8.23089ZM20.277 8.55456L19.8304 8.77941L19.9119 8.94129L20.3585 8.71644L20.8051 8.49158L20.7236 8.3297L20.277 8.55456ZM20.3585 8.71644L19.9119 8.94129L19.9934 9.10317L20.44 8.87832L20.8866 8.65346L20.8051 8.49158L20.3585 8.71644ZM20.44 8.87832L19.9934 9.10317C20.0573 9.23006 20.1292 9.3528 20.209 9.47134L20.6238 9.19214L21.0386 8.91293C20.982 8.82888 20.9314 8.74242 20.8866 8.65346L20.44 8.87832ZM20.6238 9.19214L20.209 9.47134L20.3113 9.62329L20.7261 9.34408L21.1409 9.06487L21.0386 8.91293L20.6238 9.19214ZM20.7261 9.34408L20.3113 9.62329L20.4136 9.77523L20.8284 9.49602L21.2431 9.21682L21.1409 9.06487L20.7261 9.34408ZM20.8284 9.49602L20.4136 9.77523C20.49 9.88878 20.5719 9.99951 20.659 10.1074L21.048 9.79328L21.437 9.47914C21.3677 9.3933 21.3031 9.30586 21.2431 9.21682L20.8284 9.49602ZM21.048 9.79328L20.659 10.1074L20.7764 10.2528L21.1654 9.9386L21.5543 9.62446L21.437 9.47914L21.048 9.79328ZM21.1654 9.9386L20.7764 10.2528L20.8937 10.3981L21.2827 10.0839L21.6717 9.76977L21.5543 9.62446L21.1654 9.9386ZM21.2827 10.0839L20.8937 10.3981C21.0074 10.5388 21.142 10.6575 21.2958 10.7526L21.5587 10.3273L21.8217 9.90209C21.764 9.86639 21.7146 9.82284 21.6717 9.76977L21.2827 10.0839ZM21.5587 10.3273L21.2958 10.7526L21.4544 10.8507L21.7174 10.4254L21.9803 10.0002L21.8217 9.90209L21.5587 10.3273ZM21.7174 10.4254L21.4544 10.8507L21.6131 10.9488L21.876 10.5236L22.139 10.0983L21.9803 10.0002L21.7174 10.4254ZM21.876 10.5236L21.6131 10.9488C21.7419 11.0285 21.876 11.097 22.0153 11.1542L22.2051 10.6916L22.3949 10.229C22.307 10.1929 22.2217 10.1495 22.139 10.0983L21.876 10.5236ZM22.2051 10.6916L22.0153 11.1542L22.1857 11.2241L22.3755 10.7615L22.5653 10.2989L22.3949 10.229L22.2051 10.6916ZM22.3755 10.7615L22.1857 11.2241L22.3561 11.294L22.5459 10.8314L22.7357 10.3688L22.5653 10.2989L22.3755 10.7615ZM22.5459 10.8314L22.3561 11.294C22.4245 11.322 22.4968 11.3632 22.5727 11.4217L22.8776 11.0254L23.1826 10.6292C23.0434 10.5221 22.8945 10.434 22.7357 10.3688L22.5459 10.8314ZM22.8776 11.0254L22.5727 11.4217L22.734 11.5458L23.0389 11.1496L23.3439 10.7533L23.1826 10.6292L22.8776 11.0254ZM23.0389 11.1496L22.734 11.5458L22.8953 11.6699L23.2002 11.2737L23.5052 10.8775L23.3439 10.7533L23.0389 11.1496ZM23.2002 11.2737L22.8953 11.6699C23.0406 11.7818 23.2468 11.8997 23.4947 11.8958L23.4869 11.3959L23.4791 10.8959C23.5221 10.8953 23.5471 10.9057 23.5486 10.9063C23.5495 10.9068 23.5462 10.9054 23.5384 10.9007C23.5306 10.8959 23.5196 10.8885 23.5052 10.8775L23.2002 11.2737ZM23.4869 11.3959L23.4947 11.8958L23.6201 11.8939L23.6123 11.3939L23.6045 10.894L23.4791 10.8959L23.4869 11.3959ZM23.6123 11.3939L23.6201 11.8939L23.7455 11.8919L23.7377 11.3919L23.7299 10.892L23.6045 10.894L23.6123 11.3939ZM23.7377 11.3919L23.7455 11.8919C23.7612 11.8916 23.8287 11.8914 23.8977 11.8747C23.9176 11.87 23.9639 11.8579 24.017 11.83C24.0537 11.8107 24.2011 11.7297 24.2625 11.5386C24.3374 11.3059 24.2247 11.1268 24.165 11.0574C24.1084 10.9915 24.0485 10.9568 24.0281 10.9454C23.9538 10.9035 23.8746 10.8859 23.8659 10.8837C23.8341 10.8758 23.7982 10.8683 23.7618 10.8613L23.6673 11.3523L23.5728 11.8433C23.6016 11.8488 23.6176 11.8524 23.6243 11.8541C23.6541 11.8615 23.6001 11.852 23.5374 11.8167C23.52 11.8069 23.4622 11.7738 23.4069 11.7094C23.3484 11.6415 23.2361 11.4637 23.3106 11.2323C23.3717 11.0425 23.5177 10.9627 23.5524 10.9445C23.6034 10.9177 23.6468 10.9066 23.6629 10.9027C23.7169 10.8897 23.7559 10.8916 23.7299 10.892L23.7377 11.3919ZM23.6673 11.3523L23.7618 10.8613L23.566 10.8236L23.4715 11.3146L23.377 11.8056L23.5728 11.8433L23.6673 11.3523ZM23.4715 11.3146L23.566 10.8236L23.3702 10.7859L23.2757 11.2769L23.1812 11.7679L23.377 11.8056L23.4715 11.3146ZM23.2757 11.2769L23.3702 10.7859C23.1099 10.7358 22.8536 10.7876 22.6336 10.9405L22.9189 11.3511L23.2041 11.7617C23.206 11.7604 23.2054 11.7611 23.2025 11.7624C23.1994 11.7637 23.1952 11.7651 23.1903 11.7661C23.1854 11.7672 23.1815 11.7674 23.1791 11.7674C23.1769 11.7674 23.1774 11.7672 23.1812 11.7679L23.2757 11.2769ZM22.9189 11.3511L22.6336 10.9405L22.4726 11.0523L22.7578 11.4629L23.0431 11.8736L23.2041 11.7617L22.9189 11.3511ZM22.7578 11.4629L22.4726 11.0523L22.3116 11.1642L22.5968 11.5748L22.8821 11.9854L23.0431 11.8736L22.7578 11.4629ZM22.5968 11.5748L22.3116 11.1642C22.1843 11.2526 22.0655 11.3488 21.9558 11.4531L22.3003 11.8155L22.6447 12.1779C22.7158 12.1104 22.7947 12.0462 22.8821 11.9854L22.5968 11.5748ZM22.3003 11.8155L21.9558 11.4531L21.8202 11.5819L22.1647 11.9443L22.5092 12.3067L22.6447 12.1779L22.3003 11.8155ZM22.1647 11.9443L21.8202 11.5819L21.6847 11.7108L22.0292 12.0732L22.3737 12.4356L22.5092 12.3067L22.1647 11.9443ZM22.0292 12.0732L21.6847 11.7108C21.6463 11.7473 21.6002 11.7765 21.5408 11.7981L21.711 12.2682L21.8813 12.7383C22.0654 12.6716 22.2313 12.5709 22.3737 12.4356L22.0292 12.0732ZM21.711 12.2682L21.5408 11.7981L21.3581 11.8642L21.5284 12.3343L21.6987 12.8044L21.8813 12.7383L21.711 12.2682ZM21.5284 12.3343L21.3581 11.8642L21.1755 11.9303L21.3458 12.4004L21.5161 12.8706L21.6987 12.8044L21.5284 12.3343ZM21.3458 12.4004L21.1755 11.9303C20.9752 12.0029 20.8005 12.1214 20.6609 12.2848L21.0411 12.6095L21.4212 12.9343C21.4445 12.907 21.4729 12.8862 21.5161 12.8706L21.3458 12.4004ZM21.0411 12.6095L20.6609 12.2848L20.5388 12.4277L20.9189 12.7525L21.2991 13.0773L21.4212 12.9343L21.0411 12.6095ZM20.9189 12.7525L20.5388 12.4277L20.4166 12.5707L20.7968 12.8955L21.1769 13.2203L21.2991 13.0773L20.9189 12.7525ZM20.7968 12.8955L20.4166 12.5707C20.2986 12.7088 20.2062 12.8635 20.1402 13.0329L20.6062 13.2143L21.0721 13.3957C21.0975 13.3305 21.1321 13.2728 21.1769 13.2203L20.7968 12.8955ZM20.6062 13.2143L20.1402 13.0329L20.0718 13.2087L20.5377 13.3901L21.0036 13.5715L21.0721 13.3957L20.6062 13.2143ZM20.5377 13.3901L20.0718 13.2087L20.0033 13.3846L20.4692 13.566L20.9351 13.7474L21.0036 13.5715L20.5377 13.3901ZM20.4692 13.566L20.0033 13.3846C19.9767 13.4528 19.9403 13.5156 19.8926 13.5741L20.2805 13.8896L20.6684 14.2051C20.7811 14.0666 20.8704 13.9136 20.9351 13.7474L20.4692 13.566ZM20.2805 13.8896L19.8926 13.5741L19.7724 13.7219L20.1603 14.0374L20.5482 14.3529L20.6684 14.2051L20.2805 13.8896ZM20.1603 14.0374L19.7724 13.7219L19.6522 13.8697L20.0401 14.1852L20.428 14.5007L20.5482 14.3529L20.1603 14.0374ZM20.0401 14.1852L19.6522 13.8697C19.4924 14.0662 19.4171 14.3029 19.4326 14.5549L19.9317 14.5242L20.4307 14.4934C20.4305 14.4897 20.4307 14.4886 20.4306 14.4897C20.4305 14.4909 20.4301 14.4933 20.4291 14.4962C20.4282 14.4992 20.4271 14.5014 20.4264 14.5027C20.4257 14.5039 20.426 14.5033 20.428 14.5007L20.0401 14.1852ZM19.9317 14.5242L19.4326 14.5549L19.4444 14.7461L19.9435 14.7153L20.4425 14.6845L20.4307 14.4934L19.9317 14.5242ZM19.9435 14.7153L19.4444 14.7461L19.4562 14.9372L19.9552 14.9064L20.4543 14.8757L20.4425 14.6845L19.9435 14.7153ZM19.9552 14.9064L19.4562 14.9372C19.4588 14.9791 19.4541 14.9762 19.4606 14.9478C19.4653 14.9275 19.4984 14.7942 19.6477 14.7057L19.9028 15.1357L20.158 15.5656C20.35 15.4517 20.4133 15.2676 20.4355 15.1708C20.4594 15.066 20.4596 14.9612 20.4543 14.8757L19.9552 14.9064ZM19.9028 15.1357L19.6477 14.7057L19.5835 14.7438L19.8386 15.1738L20.0938 15.6037L20.158 15.5656L19.9028 15.1357ZM19.8386 15.1738L19.5835 14.7438L19.5192 14.7819L19.7744 15.2119L20.0296 15.6418L20.0938 15.6037L19.8386 15.1738ZM19.7744 15.2119L19.5192 14.7819C19.5591 14.7582 19.7644 14.6489 19.9966 14.7816C20.1946 14.8948 20.2244 15.0859 20.2273 15.102C20.2392 15.1691 20.2259 15.1994 20.2379 15.129L19.7449 15.0454L19.252 14.9618C19.2408 15.0278 19.2209 15.154 19.2426 15.2766C19.2504 15.3205 19.2892 15.5292 19.5004 15.6499C19.7458 15.7901 19.9683 15.6782 20.0296 15.6418L19.7744 15.2119ZM19.7449 15.0454L20.2379 15.129L20.2726 14.9245L19.7796 14.8409L19.2866 14.7573L19.252 14.9618L19.7449 15.0454ZM19.7796 14.8409L20.2726 14.9245L20.3073 14.7199L19.8143 14.6363L19.3213 14.5527L19.2866 14.7573L19.7796 14.8409ZM19.8143 14.6363L20.3073 14.7199C20.3623 14.3955 20.2396 14.105 19.9958 13.9066L19.6802 14.2944L19.3646 14.6823C19.3665 14.6838 19.3471 14.668 19.3326 14.6312C19.3177 14.593 19.3197 14.5622 19.3213 14.5527L19.8143 14.6363ZM19.6802 14.2944L19.9958 13.9066L19.827 13.7693L19.5114 14.1571L19.1958 14.5449L19.3646 14.6823L19.6802 14.2944ZM19.5114 14.1571L19.827 13.7693L19.6582 13.6319L19.3426 14.0198L19.0271 14.4076L19.1958 14.5449L19.5114 14.1571ZM19.3426 14.0198L19.6582 13.6319C19.6058 13.5893 19.5885 13.5567 19.5812 13.5362L19.1102 13.7042L18.6393 13.8722C18.7168 14.0894 18.8544 14.2671 19.0271 14.4076L19.3426 14.0198ZM19.1102 13.7042L19.5812 13.5362L19.5176 13.3579L19.0467 13.5259L18.5757 13.6939L18.6393 13.8722L19.1102 13.7042ZM19.0467 13.5259L19.5176 13.3579L19.454 13.1797L18.9831 13.3477L18.5121 13.5157L18.5757 13.6939L19.0467 13.5259ZM18.9831 13.3477L19.454 13.1797C19.3868 12.9913 19.2811 12.8239 19.1391 12.6826L18.7864 13.037L18.4337 13.3915C18.4692 13.4267 18.4946 13.4664 18.5121 13.5157L18.9831 13.3477ZM18.7864 13.037L19.1391 12.6826L19.006 12.5502L18.6534 12.9046L18.3007 13.2591L18.4337 13.3915L18.7864 13.037ZM18.6534 12.9046L19.006 12.5502L18.873 12.4178L18.5203 12.7722L18.1676 13.1267L18.3007 13.2591L18.6534 12.9046ZM18.5203 12.7722L18.873 12.4178C18.7393 12.2848 18.5843 12.1803 18.4113 12.1053L18.2124 12.5641L18.0135 13.0228C18.0736 13.0489 18.1239 13.0832 18.1676 13.1267L18.5203 12.7722ZM18.2124 12.5641L18.4113 12.1053L18.2365 12.0295L18.0376 12.4883L17.8387 12.947L18.0135 13.0228L18.2124 12.5641ZM18.0376 12.4883L18.2365 12.0295L18.0616 11.9537L17.8628 12.4125L17.6639 12.8713L17.8387 12.947L18.0376 12.4883ZM17.8628 12.4125L18.0616 11.9537C18.0546 11.9507 18.0402 11.9446 18.0192 11.9075L17.5845 12.1546L17.1497 12.4016C17.2667 12.6074 17.4379 12.7733 17.6639 12.8713L17.8628 12.4125ZM17.5845 12.1546L18.0192 11.9075L17.9157 11.7254L17.481 11.9724L17.0462 12.2195L17.1497 12.4016L17.5845 12.1546ZM17.481 11.9724L17.9157 11.7254L17.8122 11.5433L17.3774 11.7903L16.9427 12.0373L17.0462 12.2195L17.481 11.9724ZM17.3774 11.7903L17.8122 11.5433C17.7012 11.348 17.5458 11.1873 17.3465 11.0759L17.1025 11.5123L16.8585 11.9488C16.8878 11.9651 16.9157 11.9897 16.9427 12.0373L17.3774 11.7903ZM17.1025 11.5123L17.3465 11.0759L17.1751 10.9801L16.9311 11.4165L16.6871 11.8529L16.8585 11.9488L17.1025 11.5123ZM16.9311 11.4165L17.1751 10.9801L17.0037 10.8842L16.7597 11.3207L16.5157 11.7571L16.6871 11.8529L16.9311 11.4165ZM16.7597 11.3207L17.0037 10.8842C16.8107 10.7763 16.5992 10.7245 16.3788 10.7292L16.3896 11.2291L16.4003 11.729C16.4449 11.728 16.4802 11.7372 16.5157 11.7571L16.7597 11.3207ZM16.3896 11.2291L16.3788 10.7292L16.1801 10.7335L16.1908 11.2334L16.2016 11.7333L16.4003 11.729L16.3896 11.2291ZM16.1908 11.2334L16.1801 10.7335L15.9814 10.7378L15.9921 11.2376L16.0028 11.7375L16.2016 11.7333L16.1908 11.2334ZM15.9921 11.2376L15.9814 10.7378C15.9209 10.7391 15.9296 10.7337 15.9684 10.7434C15.9787 10.7459 16.0774 10.7682 16.1696 10.8603C16.2242 10.9148 16.2787 10.9966 16.3006 11.1046C16.3223 11.2113 16.3043 11.3041 16.2797 11.3693L15.8119 11.1928L15.3441 11.0163C15.3164 11.0897 15.2976 11.1902 15.3207 11.3039C15.3441 11.419 15.4023 11.5073 15.4628 11.5677C15.567 11.6718 15.6866 11.7037 15.727 11.7138C15.8258 11.7384 15.9308 11.7391 16.0028 11.7375L15.9921 11.2376ZM15.8119 11.1928L16.2797 11.3693L16.2982 11.3202L15.8304 11.1437L15.3626 10.9672L15.3441 11.0163L15.8119 11.1928ZM15.8304 11.1437L16.2982 11.3202L16.3168 11.2711L15.849 11.0946L15.3812 10.9181L15.3626 10.9672L15.8304 11.1437ZM15.849 11.0946L16.3168 11.2711C16.2847 11.3562 16.2365 11.4076 16.215 11.4284C16.1912 11.4515 16.1726 11.4631 16.1693 11.4652C16.1632 11.469 16.1745 11.4615 16.2165 11.4448L16.0317 10.9802L15.8469 10.5156C15.7795 10.5424 15.7055 10.5757 15.6386 10.6177C15.5962 10.6442 15.4497 10.7363 15.3812 10.9181L15.849 11.0946ZM16.0317 10.9802L16.2165 11.4448L16.3807 11.3794L16.1959 10.9149L16.0111 10.4503L15.8469 10.5156L16.0317 10.9802ZM16.1959 10.9149L16.3807 11.3794L16.545 11.3141L16.3602 10.8495L16.1753 10.3849L16.0111 10.4503L16.1959 10.9149ZM16.3602 10.8495L16.545 11.3141C16.6245 11.2825 16.7088 11.2578 16.7987 11.2404L16.7036 10.7495L16.6085 10.2586C16.4594 10.2875 16.3148 10.3295 16.1753 10.3849L16.3602 10.8495ZM16.7036 10.7495L16.7987 11.2404L16.9779 11.2057L16.8828 10.7148L16.7877 10.2239L16.6085 10.2586L16.7036 10.7495ZM16.8828 10.7148L16.9779 11.2057L17.1571 11.171L17.062 10.6801L16.9669 10.1892L16.7877 10.2239L16.8828 10.7148ZM17.062 10.6801L17.1571 11.171C17.3463 11.1343 17.5218 11.0594 17.679 10.9477L17.3894 10.5401L17.0998 10.1325C17.0594 10.1612 17.0166 10.1796 16.9669 10.1892L17.062 10.6801ZM17.3894 10.5401L17.679 10.9477L17.8272 10.8423L17.5376 10.4348L17.248 10.0272L17.0998 10.1325L17.3894 10.5401ZM17.5376 10.4348L17.8272 10.8423L17.9754 10.737L17.6858 10.3295L17.3962 9.92187L17.248 10.0272L17.5376 10.4348ZM17.6858 10.3295L17.9754 10.737C18.0536 10.6815 18.1392 10.6296 18.2327 10.5816L18.0046 10.1367L17.7765 9.69174C17.6426 9.76042 17.5156 9.83703 17.3962 9.92187L17.6858 10.3295ZM18.0046 10.1367L18.2327 10.5816L18.4034 10.4941L18.1753 10.0492L17.9472 9.60426L17.7765 9.69174L18.0046 10.1367ZM18.1753 10.0492L18.4034 10.4941L18.574 10.4067L18.3459 9.96173L18.1178 9.51679L17.9472 9.60426L18.1753 10.0492ZM18.3459 9.96173L18.574 10.4067C18.7333 10.325 18.8773 10.2206 19.0045 10.0945L18.6525 9.73948L18.3004 9.38441C18.2463 9.43806 18.1859 9.48185 18.1178 9.51679L18.3459 9.96173ZM18.6525 9.73948L19.0045 10.0945L19.1404 9.95977L18.7884 9.6047L18.4363 9.24964L18.3004 9.38441L18.6525 9.73948ZM18.7884 9.6047L19.1404 9.95977L19.2764 9.825L18.9243 9.46993L18.5723 9.11487L18.4363 9.24964L18.7884 9.6047ZM18.9243 9.46993L19.2764 9.825C19.3718 9.73033 19.4673 9.63181 19.5627 9.52947L19.197 9.18849L18.8313 8.84751C18.7444 8.94073 18.658 9.02983 18.5723 9.11487L18.9243 9.46993ZM19.197 9.18849L19.5627 9.52947L19.6995 9.38281L19.3338 9.04182L18.9681 8.70084L18.8313 8.84751L19.197 9.18849ZM19.3338 9.04182L19.6995 9.38281L19.8362 9.23614L19.4705 8.89516L19.1048 8.55418L18.9681 8.70084L19.3338 9.04182ZM19.4705 8.89516L19.8362 9.23614C20.0288 9.02955 20.1104 8.76995 20.0896 8.49863L19.5911 8.53683L19.0925 8.57502C19.093 8.58137 19.0926 8.58366 19.0928 8.58259C19.0929 8.58139 19.0934 8.57785 19.0951 8.57282C19.0968 8.56775 19.0991 8.56298 19.1015 8.55904C19.1038 8.55518 19.1054 8.5536 19.1048 8.55418L19.4705 8.89516ZM19.5911 8.53683L20.0896 8.49863L20.0734 8.28697L19.5748 8.32516L19.0763 8.36335L19.0925 8.57502L19.5911 8.53683ZM19.5748 8.32516L20.0734 8.28697L20.0572 8.0753L19.5586 8.11349L19.0601 8.15168L19.0763 8.36335L19.5748 8.32516ZM19.5586 8.11349L20.0572 8.0753C20.0516 8.00241 20.0617 7.94954 20.0782 7.90818L19.6138 7.72294L19.1493 7.5377C19.0707 7.73485 19.0441 7.94236 19.0601 8.15168L19.5586 8.11349ZM19.6138 7.72294L20.0782 7.90818L20.1495 7.72929L19.6851 7.54405L19.2207 7.35881L19.1493 7.5377L19.6138 7.72294ZM19.6851 7.54405L20.1495 7.72929L20.2209 7.55041L19.7565 7.36517L19.292 7.17992L19.2207 7.35881L19.6851 7.54405ZM19.7565 7.36517L20.2209 7.55041C20.2492 7.47937 20.2768 7.40071 20.2932 7.32295C20.3015 7.28395 20.31 7.23146 20.3101 7.1721C20.3102 7.11772 20.3036 7.01904 20.2502 6.91365L19.8042 7.13971L19.3582 7.36577C19.3127 7.2759 19.31 7.19825 19.3101 7.17042C19.3101 7.13762 19.3146 7.11719 19.3149 7.11577C19.3155 7.11316 19.3113 7.13171 19.292 7.17992L19.7565 7.36517ZM19.8042 7.13971L20.2502 6.91365L20.2266 6.86708L19.7806 7.09314L19.3346 7.3192L19.3582 7.36577L19.8042 7.13971ZM19.7806 7.09314L20.2266 6.86708L20.203 6.82051L19.757 7.04657L19.311 7.27263L19.3346 7.3192L19.7806 7.09314ZM19.757 7.04657L20.203 6.82051C20.1967 6.80817 20.1636 6.74052 20.0971 6.67697C20.0641 6.64544 19.9781 6.57112 19.8408 6.54567C19.6708 6.51416 19.5162 6.57354 19.4131 6.66647C19.3299 6.74142 19.2941 6.82403 19.2809 6.85781C19.2649 6.89847 19.2574 6.93308 19.2538 6.9527C19.2464 6.99213 19.2449 7.02545 19.2443 7.04196C19.2423 7.10349 19.249 7.17786 19.255 7.23722L19.7524 7.18638L20.2499 7.13553C20.2432 7.07064 20.2443 7.05959 20.2438 7.07452C20.2436 7.07937 20.2429 7.10347 20.2368 7.1361C20.2338 7.15232 20.227 7.18414 20.212 7.22261C20.1996 7.25421 20.1647 7.33524 20.0827 7.40921C19.9806 7.50117 19.8272 7.56019 19.6585 7.52893C19.5225 7.50371 19.4379 7.43024 19.4064 7.40016C19.3429 7.33952 19.3133 7.27721 19.311 7.27263L19.757 7.04657ZM19.7524 7.18638L19.255 7.23722L19.2741 7.4236L19.7715 7.37275L20.2689 7.32191L20.2499 7.13553L19.7524 7.18638Z" fill="#FFB74A"/>
<path d="M0 8.5C4 8.5 8 4.5 8 0.5C8 4.5 12 8.5 16 8.5C12 8.5 8 12.5 8 16.5C8 12.5 4 8.5 0 8.5Z" fill="#FFD85A"/>
<path d="M8.10465 0.889618L7.62176 1.01931L8.10465 0.889618ZM8.15697 1.08443L8.63986 0.954731L8.15697 1.08443ZM8.06013 1.44357L7.6899 1.10752L8.06013 1.44357ZM7.76181 1.77224L8.13205 2.10828L7.76181 1.77224ZM7.60147 2.12508L7.10235 2.09547L7.60147 2.12508ZM7.57911 2.5021L8.07823 2.5317L7.57911 2.5021ZM7.51943 2.87321L8.00267 3.00156L7.51943 2.87321ZM7.42243 3.23841L6.93918 3.11006L7.42243 3.23841ZM7.33577 3.61625L7.82649 3.71216L7.33577 3.61625ZM7.29761 3.8115L6.8069 3.71559L7.29761 3.8115ZM7.25945 4.00674L7.75017 4.10265L7.25945 4.00674ZM7.07685 4.33677L6.73574 3.9712L7.07685 4.33677ZM6.9324 4.47155L6.59129 4.10598L6.9324 4.47155ZM6.78796 4.60633L7.12907 4.9719L6.78796 4.60633ZM6.48012 4.85129L6.75966 5.26585L6.48012 4.85129ZM6.15332 5.07165L5.87379 4.65709L6.15332 5.07165ZM5.94495 5.39324L5.45589 5.28919L5.94495 5.39324ZM5.89997 5.60466L5.41092 5.50061L5.89997 5.60466ZM5.85499 5.81607L5.36594 5.71202L5.85499 5.81607ZM5.59885 6.0791L5.71757 6.5648L5.59885 6.0791ZM5.38768 6.13072L5.26896 5.64502L5.38768 6.13072ZM5.17652 6.18234L5.05779 5.69664L5.17652 6.18234ZM4.88751 6.43511L4.4212 6.25467L4.88751 6.43511ZM4.73183 6.83743L5.19813 7.01787L4.73183 6.83743ZM4.43926 7.05844L4.4853 7.55632L4.43926 7.05844ZM4.00979 7.09816L3.96375 6.60029L4.00979 7.09816ZM3.65354 7.24267L3.98403 7.61788L3.65354 7.24267ZM3.51203 7.36733L3.18154 6.99213L3.51203 7.36733ZM3.37051 7.49198L3.701 7.86718L3.37051 7.49198ZM3.08286 7.75139L2.7439 7.38382L3.08286 7.75139ZM2.44772 8.16765L2.47815 8.66673L2.44772 8.16765ZM2.05421 8.19165L2.02378 7.69257L2.05421 8.19165ZM1.66855 8.20822L1.65645 7.70836L1.66855 8.20822ZM1.29075 8.21737L1.30285 8.71722L1.29075 8.21737ZM0.925703 8.31886L1.16675 8.75692L0.925703 8.31886ZM0.573416 8.51271L0.33237 8.07465L0.573416 8.51271ZM0.385113 8.63355L-0.0605887 8.40695L0.385113 8.63355ZM0.372953 8.65747L0.818655 8.88407L0.372953 8.65747ZM0.360794 8.68139L-0.0849079 8.45478L0.360794 8.68139ZM0.536595 8.68453L0.481674 8.18755L0.536595 8.68453ZM0.912516 8.64299L0.857595 8.14601L0.912516 8.64299ZM1.28495 8.65588L1.19518 9.14776L1.28495 8.65588ZM1.46943 8.68955L1.37966 9.18143L1.46943 8.68955ZM1.6539 8.72322L1.74367 8.23134L1.6539 8.72322ZM2.00054 8.85628L1.73925 9.28257L2.00054 8.85628ZM2.1627 8.95568L1.90141 9.38197L2.1627 8.95568ZM2.32486 9.05507L2.58615 8.62878L2.32486 9.05507ZM2.67878 9.18353L2.60386 9.67788L2.67878 9.18353ZM3.06229 9.24164L3.13721 8.74729L3.06229 9.24164ZM3.44934 9.31463L3.55907 8.82682L3.44934 9.31463ZM3.83993 9.40249L3.7302 9.8903L3.83993 9.40249ZM4.13258 9.63897L4.57878 9.41336L4.13258 9.63897ZM4.22993 9.83152L4.67614 9.60591L4.22993 9.83152ZM4.32729 10.0241L3.88108 10.2497L4.32729 10.0241ZM4.58517 10.3145L4.32494 10.7414L4.58517 10.3145ZM4.90621 10.5101L5.16643 10.0832L4.90621 10.5101ZM5.33682 10.8674L4.99046 11.228L5.33682 10.8674ZM5.47187 10.9971L5.81823 10.6365L5.47187 10.9971ZM5.68792 11.3025L5.23388 11.5119L5.68792 11.3025ZM5.76893 11.4781L5.31488 11.6875L5.76893 11.4781ZM5.84993 11.6538L6.30398 11.4444L5.84993 11.6538ZM6.07338 11.9526L6.40047 11.5745L6.07338 11.9526ZM6.35826 12.199L6.68534 11.8209L6.35826 12.199ZM6.56868 12.4973L7.03475 12.3162L6.56868 12.4973ZM6.70466 12.8473L6.23858 13.0283L6.70466 12.8473ZM6.87029 13.1778L7.29373 12.9119L6.87029 13.1778ZM6.96793 13.3333L7.39137 13.0674L6.96793 13.3333ZM7.06557 13.4888L6.64213 13.7547L7.06557 13.4888ZM7.20694 13.8232L6.72125 13.9419L7.20694 13.8232ZM7.29441 14.1808L7.7801 14.0621L7.29441 14.1808ZM7.39218 14.5318L6.91513 14.6816L7.39218 14.5318ZM7.44622 14.704L6.96916 14.8537L7.44622 14.704ZM7.50025 14.8761L7.9773 14.7264L7.50025 14.8761ZM7.62136 15.2209L8.08742 15.0398L7.62136 15.2209ZM7.68842 15.3935L7.22236 15.5746L7.68842 15.3935ZM7.75549 15.5662L7.28943 15.7472L7.75549 15.5662ZM7.83884 15.9219L7.34081 15.9662L7.83884 15.9219ZM7.85512 16.105L7.35709 16.1493L7.85512 16.105ZM7.87141 16.2881L8.36944 16.2438L7.87141 16.2881ZM7.90379 16.296L8.40169 16.3417L7.90379 16.296ZM7.93598 15.9456L7.43808 15.8999L7.93598 15.9456ZM8.01208 15.5896L8.48662 15.7471L8.01208 15.5896ZM8.07207 15.4088L7.59753 15.2513L8.07207 15.4088ZM8.13207 15.2281L8.60662 15.3856L8.13207 15.2281ZM8.20963 14.8559L8.70754 14.9016L8.20963 14.8559ZM8.24475 14.4732L7.74684 14.4275L8.24475 14.4732ZM8.37979 14.1263L8.77868 14.4278L8.37979 14.1263ZM8.61475 13.8154L8.21586 13.514L8.61475 13.8154ZM8.85112 13.5142L9.23855 13.8303L8.85112 13.5142ZM8.96999 13.3685L9.35743 13.6846L8.96999 13.3685ZM9.08887 13.2228L8.70144 12.9067L9.08887 13.2228ZM9.24535 12.8818L8.75437 12.7873L9.24535 12.8818ZM9.32055 12.4912L9.81153 12.5858L9.32055 12.4912ZM9.44512 12.124L8.99891 11.8984L9.44512 12.124ZM9.53208 11.952L9.97828 12.1776L9.53208 11.952ZM9.61905 11.78L10.0652 12.0056L9.61905 11.78ZM9.91434 11.5429L10.0636 12.0201L9.91434 11.5429ZM10.331 11.4126L10.4802 11.8898L10.331 11.4126ZM10.5937 11.1352L10.1093 11.0112L10.5937 11.1352ZM10.7023 10.7109L11.1867 10.8349L10.7023 10.7109ZM10.9594 10.4495L11.0772 10.9354L10.9594 10.4495ZM11.3647 10.3512L11.4826 10.8371L11.3647 10.3512ZM11.6941 10.1592L11.32 9.82742L11.6941 10.1592ZM11.9474 9.87345L11.5733 9.54171L11.9474 9.87345ZM12.2341 9.63242L12.4956 10.0586L12.2341 9.63242ZM12.5542 9.43607L12.2927 9.00989L12.5542 9.43607ZM12.8738 9.23249L12.5982 8.81527L12.8738 9.23249ZM13.0334 9.12707L13.3089 9.54429L13.0334 9.12707ZM13.193 9.02166L12.9174 8.60445L13.193 9.02166ZM13.556 8.93151L13.5186 9.43011L13.556 8.93151ZM13.9629 8.96203L14.0003 8.46343L13.9629 8.96203ZM14.343 8.93278L14.2209 8.44793L14.343 8.93278ZM14.6964 8.84375L14.5742 8.3589L14.6964 8.84375ZM15.0481 8.69884L15.2969 9.13255L15.0481 8.69884ZM15.2232 8.59843L14.9744 8.16472L15.2232 8.59843ZM15.3982 8.49803L15.647 8.93174L15.3982 8.49803ZM15.5967 8.43084L15.1882 8.71919L15.5967 8.43084ZM15.6201 8.46406L15.2117 8.75241L15.6201 8.46406ZM15.6436 8.49728L16.0521 8.20894L15.6436 8.49728ZM15.492 8.43825L15.725 7.9959L15.492 8.43825ZM15.1418 8.25376L15.3749 7.8114L15.1418 8.25376ZM14.7903 8.12181L14.6806 8.60961L14.7903 8.12181ZM14.614 8.08212L14.7238 7.59432L14.614 8.08212ZM14.4376 8.04242L14.3278 8.53022L14.4376 8.04242ZM14.0631 8.01068L14.0832 8.51028L14.0631 8.01068ZM13.6669 8.02659L13.6468 7.527L13.6669 8.02659ZM13.2906 7.96946L13.4623 7.49984L13.2906 7.96946ZM13.1125 7.90436L13.2842 7.43474L13.1125 7.90436ZM12.9344 7.83927L12.7628 8.30889L12.9344 7.83927ZM12.5178 7.44088L12.9244 7.14989L12.5178 7.44088ZM12.3985 7.27422L11.9919 7.56522L12.3985 7.27422ZM12.1351 6.99604L11.8292 7.39152L12.1351 6.99604ZM11.9909 6.88451L12.2968 6.48902L11.9909 6.88451ZM11.8467 6.77297L12.1527 6.37749L11.8467 6.77297ZM11.4883 6.63018L11.5605 6.13542L11.4883 6.63018ZM11.0597 6.56765L10.9875 7.06241L11.0597 6.56765ZM10.7679 6.34629L10.305 6.53519L10.7679 6.34629ZM10.6903 6.15618L11.1533 5.96728L10.6903 6.15618ZM10.6128 5.96608L10.1498 6.15498L10.6128 5.96608ZM10.3909 5.65695L10.709 5.27122L10.3909 5.65695ZM10.1022 5.4189L9.7841 5.80464L10.1022 5.4189ZM9.79696 5.18571L9.5077 5.59354L9.79696 5.18571ZM9.636 5.07155L9.34674 5.47938L9.636 5.07155ZM9.47504 4.95738L9.76431 4.54955L9.47504 4.95738ZM9.28095 4.64179L8.78758 4.72292L9.28095 4.64179ZM9.21471 4.23894L9.70808 4.1578L9.21471 4.23894ZM9.06359 3.88991L9.45415 3.57771L9.06359 3.88991ZM8.82762 3.59472L8.43707 3.90692L8.82762 3.59472ZM8.56706 3.29969L8.92647 2.95211L8.56706 3.29969ZM8.2819 3.00483L7.92248 3.35242L8.2819 3.00483ZM8.16293 2.65128L8.65968 2.70817L8.16293 2.65128ZM8.18654 2.44515L7.68979 2.38825L8.18654 2.44515ZM8.21015 2.23902L8.7069 2.29591L8.21015 2.23902ZM8.25189 1.84301L8.74963 1.89055L8.25189 1.84301ZM8.28817 1.46325L7.79044 1.4157L8.28817 1.46325ZM8.20999 1.0949L7.76998 1.33237L8.20999 1.0949ZM8.01736 0.737967L8.45737 0.5005L8.01736 0.737967ZM7.94078 0.544625L7.63987 0.145309L7.94078 0.544625ZM7.98026 0.514875L8.28117 0.91419L7.98026 0.514875ZM8.05232 0.694809L8.53521 0.565113L8.05232 0.694809ZM8.10465 0.889618L7.62176 1.01931L7.67408 1.21412L8.15697 1.08443L8.63986 0.954731L8.58753 0.759922L8.10465 0.889618ZM8.15697 1.08443L7.67408 1.21412C7.67066 1.20137 7.66743 1.17382 7.67616 1.14145C7.6843 1.11127 7.69655 1.1002 7.6899 1.10752L8.06013 1.44357L8.43037 1.77962C8.63053 1.55909 8.72388 1.26756 8.63986 0.954731L8.15697 1.08443ZM8.06013 1.44357L7.6899 1.10752L7.54074 1.27186L7.91097 1.6079L8.28121 1.94395L8.43037 1.77962L8.06013 1.44357ZM7.91097 1.6079L7.54074 1.27186L7.39158 1.43619L7.76181 1.77224L8.13205 2.10828L8.28121 1.94395L7.91097 1.6079ZM7.76181 1.77224L7.39158 1.43619C7.22951 1.61475 7.1177 1.83672 7.10235 2.09547L7.60147 2.12508L8.1006 2.15469C8.10063 2.15412 8.10067 2.15394 8.10072 2.15375C8.10078 2.15354 8.10112 2.15219 8.10235 2.14947C8.10477 2.14416 8.11221 2.13014 8.13205 2.10828L7.76181 1.77224ZM7.60147 2.12508L7.10235 2.09547L7.09117 2.28398L7.59029 2.31359L8.08941 2.34319L8.1006 2.15469L7.60147 2.12508ZM7.59029 2.31359L7.09117 2.28398L7.07999 2.47249L7.57911 2.5021L8.07823 2.5317L8.08941 2.34319L7.59029 2.31359ZM7.57911 2.5021L7.07999 2.47249C7.07451 2.56478 7.05994 2.65541 7.03618 2.74485L7.51943 2.87321L8.00267 3.00156C8.04358 2.84754 8.0688 2.69075 8.07823 2.5317L7.57911 2.5021ZM7.51943 2.87321L7.03618 2.74485L6.98768 2.92746L7.47093 3.05581L7.95417 3.18416L8.00267 3.00156L7.51943 2.87321ZM7.47093 3.05581L6.98768 2.92746L6.93918 3.11006L7.42243 3.23841L7.90567 3.36676L7.95417 3.18416L7.47093 3.05581ZM7.42243 3.23841L6.93918 3.11006C6.90386 3.24307 6.87251 3.37986 6.84505 3.52035L7.33577 3.61625L7.82649 3.71216C7.84991 3.59232 7.87634 3.47722 7.90567 3.36676L7.42243 3.23841ZM7.33577 3.61625L6.84505 3.52035L6.8069 3.71559L7.29761 3.8115L7.78833 3.90741L7.82649 3.71216L7.33577 3.61625ZM7.29761 3.8115L6.8069 3.71559L6.76874 3.91084L7.25945 4.00674L7.75017 4.10265L7.78833 3.90741L7.29761 3.8115ZM7.25945 4.00674L6.76874 3.91084C6.76335 3.93837 6.75442 3.95376 6.73574 3.9712L7.07685 4.33677L7.41796 4.70234C7.59187 4.54007 7.70467 4.33544 7.75017 4.10265L7.25945 4.00674ZM7.07685 4.33677L6.73574 3.9712L6.59129 4.10598L6.9324 4.47155L7.27352 4.83712L7.41796 4.70234L7.07685 4.33677ZM6.9324 4.47155L6.59129 4.10598L6.44685 4.24076L6.78796 4.60633L7.12907 4.9719L7.27352 4.83712L6.9324 4.47155ZM6.78796 4.60633L6.44685 4.24076C6.36971 4.31274 6.28768 4.378 6.20058 4.43673L6.48012 4.85129L6.75966 5.26585C6.89042 5.17767 7.01362 5.07963 7.12907 4.9719L6.78796 4.60633ZM6.48012 4.85129L6.20058 4.43673L6.03718 4.54691L6.31672 4.96147L6.59626 5.37603L6.75966 5.26585L6.48012 4.85129ZM6.31672 4.96147L6.03718 4.54691L5.87379 4.65709L6.15332 5.07165L6.43286 5.48621L6.59626 5.37603L6.31672 4.96147ZM6.15332 5.07165L5.87379 4.65709C5.64656 4.81031 5.50999 5.03492 5.45589 5.28919L5.94495 5.39324L6.434 5.49729C6.436 5.48788 6.43796 5.48236 6.43896 5.47986C6.43992 5.47746 6.44015 5.47748 6.43915 5.47903C6.43811 5.48063 6.43658 5.48258 6.4348 5.48439C6.43304 5.48616 6.43211 5.48671 6.43286 5.48621L6.15332 5.07165ZM5.94495 5.39324L5.45589 5.28919L5.41092 5.50061L5.89997 5.60466L6.38902 5.7087L6.434 5.49729L5.94495 5.39324ZM5.89997 5.60466L5.41092 5.50061L5.36594 5.71202L5.85499 5.81607L6.34405 5.92012L6.38902 5.7087L5.89997 5.60466ZM5.85499 5.81607L5.36594 5.71202C5.36704 5.70681 5.37617 5.6737 5.41025 5.6387C5.44419 5.60385 5.47641 5.59431 5.48012 5.5934L5.59885 6.0791L5.71757 6.5648C5.86206 6.52948 6.00736 6.45889 6.12668 6.33637C6.24614 6.21369 6.31295 6.06627 6.34405 5.92012L5.85499 5.81607ZM5.59885 6.0791L5.48012 5.5934L5.26896 5.64502L5.38768 6.13072L5.50641 6.61642L5.71757 6.5648L5.59885 6.0791ZM5.38768 6.13072L5.26896 5.64502L5.05779 5.69664L5.17652 6.18234L5.29524 6.66804L5.50641 6.61642L5.38768 6.13072ZM5.17652 6.18234L5.05779 5.69664C4.75971 5.7695 4.53264 5.96669 4.4212 6.25467L4.88751 6.43511L5.35381 6.61556C5.35422 6.6145 5.34776 6.63029 5.32786 6.6477C5.30808 6.665 5.29234 6.66874 5.29524 6.66804L5.17652 6.18234ZM4.88751 6.43511L4.4212 6.25467L4.34336 6.45583L4.80967 6.63627L5.27597 6.81671L5.35381 6.61556L4.88751 6.43511ZM4.80967 6.63627L4.34336 6.45583L4.26552 6.65698L4.73183 6.83743L5.19813 7.01787L5.27597 6.81671L4.80967 6.63627ZM4.73183 6.83743L4.26552 6.65698C4.26714 6.6528 4.28066 6.62279 4.31838 6.5943C4.3561 6.56581 4.38868 6.56099 4.39321 6.56057L4.43926 7.05844L4.4853 7.55632C4.63298 7.54266 4.7859 7.49439 4.92115 7.39222C5.05639 7.29006 5.14462 7.15616 5.19813 7.01787L4.73183 6.83743ZM4.43926 7.05844L4.39321 6.56057L4.17848 6.58043L4.22452 7.0783L4.27057 7.57618L4.4853 7.55632L4.43926 7.05844ZM4.22452 7.0783L4.17848 6.58043L3.96375 6.60029L4.00979 7.09816L4.05584 7.59604L4.27057 7.57618L4.22452 7.0783ZM4.00979 7.09816L3.96375 6.60029C3.73091 6.62182 3.50792 6.70463 3.32305 6.86747L3.65354 7.24267L3.98403 7.61788C3.98785 7.61451 4.00236 7.60098 4.05584 7.59604L4.00979 7.09816ZM3.65354 7.24267L3.32305 6.86747L3.18154 6.99213L3.51203 7.36733L3.84252 7.74253L3.98403 7.61788L3.65354 7.24267ZM3.51203 7.36733L3.18154 6.99213L3.04002 7.11678L3.37051 7.49198L3.701 7.86718L3.84252 7.74253L3.51203 7.36733ZM3.37051 7.49198L3.04002 7.11678C2.94268 7.20252 2.84397 7.29154 2.7439 7.38382L3.08286 7.75139L3.42182 8.11896C3.5166 8.03156 3.60965 7.94764 3.701 7.86718L3.37051 7.49198ZM3.08286 7.75139L2.7439 7.38382L2.59777 7.51857L2.93673 7.88614L3.27569 8.25371L3.42182 8.11896L3.08286 7.75139ZM2.93673 7.88614L2.59777 7.51857L2.45164 7.65333L2.7906 8.0209L3.12956 8.38847L3.27569 8.25371L2.93673 7.88614ZM2.7906 8.0209L2.45164 7.65333C2.44198 7.66224 2.43657 7.66466 2.43508 7.6653C2.43364 7.66591 2.42888 7.66787 2.41728 7.66858L2.44772 8.16765L2.47815 8.66673C2.72528 8.65166 2.94828 8.55564 3.12956 8.38847L2.7906 8.0209ZM2.44772 8.16765L2.41728 7.66858L2.22053 7.68058L2.25096 8.17965L2.28139 8.67872L2.47815 8.66673L2.44772 8.16765ZM2.25096 8.17965L2.22053 7.68058L2.02378 7.69257L2.05421 8.19165L2.08464 8.69072L2.28139 8.67872L2.25096 8.17965ZM2.05421 8.19165L2.02378 7.69257C1.89845 7.70022 1.77601 7.70547 1.65645 7.70836L1.66855 8.20822L1.68065 8.70807C1.81296 8.70487 1.94763 8.69908 2.08464 8.69072L2.05421 8.19165ZM1.66855 8.20822L1.65645 7.70836L1.46755 7.71294L1.47965 8.21279L1.49175 8.71265L1.68065 8.70807L1.66855 8.20822ZM1.47965 8.21279L1.46755 7.71294L1.27865 7.71751L1.29075 8.21737L1.30285 8.71722L1.49175 8.71265L1.47965 8.21279ZM1.29075 8.21737L1.27865 7.71751C1.06743 7.72263 0.867721 7.78007 0.684657 7.8808L0.925703 8.31886L1.16675 8.75692C1.21854 8.72842 1.26219 8.7182 1.30285 8.71722L1.29075 8.21737ZM0.925703 8.31886L0.684657 7.8808L0.508513 7.97773L0.749559 8.41579L0.990605 8.85385L1.16675 8.75692L0.925703 8.31886ZM0.749559 8.41579L0.508513 7.97773L0.33237 8.07465L0.573416 8.51271L0.814462 8.95077L0.990605 8.85385L0.749559 8.41579ZM0.573416 8.51271L0.33237 8.07465C0.270222 8.10885 0.213709 8.14139 0.168224 8.17058C0.146225 8.1847 0.118259 8.20345 0.0906974 8.22532C0.0769801 8.2362 0.0567628 8.25304 0.0350978 8.27496C0.0185055 8.29174 -0.0251307 8.33721 -0.0605887 8.40695L0.385113 8.63355L0.830814 8.86016C0.812355 8.89647 0.792993 8.92323 0.780218 8.93946C0.76681 8.9565 0.75472 8.96942 0.746332 8.97791C0.73011 8.99432 0.717044 9.00489 0.712186 9.00874C0.702343 9.01655 0.698928 9.01821 0.708313 9.01219C0.725595 9.0011 0.759181 8.98119 0.814462 8.95077L0.573416 8.51271ZM0.385113 8.63355L-0.0605887 8.40695L-0.0727483 8.43086L0.372953 8.65747L0.818655 8.88407L0.830814 8.86016L0.385113 8.63355ZM0.372953 8.65747L-0.0727483 8.43086L-0.0849079 8.45478L0.360794 8.68139L0.806495 8.90799L0.818655 8.88407L0.372953 8.65747ZM0.360794 8.68139L-0.0849079 8.45478C-0.149763 8.58234 -0.178779 8.78797 -0.0484806 8.97376C0.0457356 9.1081 0.173397 9.15288 0.207747 9.16444C0.292677 9.19302 0.370207 9.1937 0.389721 9.19405C0.453122 9.19518 0.526029 9.18874 0.591515 9.1815L0.536595 8.68453L0.481674 8.18755C0.421854 8.19417 0.402806 8.19412 0.407607 8.19421C0.410579 8.19426 0.421059 8.1945 0.436367 8.19625C0.448385 8.19761 0.482945 8.20194 0.526695 8.21666C0.554734 8.2261 0.678168 8.26829 0.770242 8.39957C0.82347 8.47547 0.858256 8.57082 0.859988 8.67597C0.86163 8.77569 0.833207 8.85545 0.806495 8.90799L0.360794 8.68139ZM0.536595 8.68453L0.591515 9.1815L0.779475 9.16073L0.724555 8.66376L0.669635 8.16678L0.481674 8.18755L0.536595 8.68453ZM0.724555 8.66376L0.779475 9.16073L0.967436 9.13996L0.912516 8.64299L0.857595 8.14601L0.669635 8.16678L0.724555 8.66376ZM0.912516 8.64299L0.967436 9.13996C1.04493 9.1314 1.12033 9.1341 1.19518 9.14776L1.28495 8.65588L1.37472 8.16401C1.2036 8.13278 1.03071 8.12688 0.857595 8.14601L0.912516 8.64299ZM1.28495 8.65588L1.19518 9.14776L1.37966 9.18143L1.46943 8.68955L1.5592 8.19767L1.37472 8.16401L1.28495 8.65588ZM1.46943 8.68955L1.37966 9.18143L1.56413 9.21509L1.6539 8.72322L1.74367 8.23134L1.5592 8.19767L1.46943 8.68955ZM1.6539 8.72322L1.56413 9.21509C1.62551 9.22629 1.68301 9.2481 1.73925 9.28257L2.00054 8.85628L2.26183 8.42999C2.10186 8.33193 1.92827 8.26503 1.74367 8.23134L1.6539 8.72322ZM2.00054 8.85628L1.73925 9.28257L1.90141 9.38197L2.1627 8.95568L2.42399 8.52938L2.26183 8.42999L2.00054 8.85628ZM2.1627 8.95568L1.90141 9.38197L2.06357 9.48136L2.32486 9.05507L2.58615 8.62878L2.42399 8.52938L2.1627 8.95568ZM2.32486 9.05507L2.06357 9.48136C2.22977 9.58324 2.41131 9.6487 2.60386 9.67788L2.67878 9.18353L2.75369 8.68917C2.69057 8.6796 2.63617 8.65943 2.58615 8.62878L2.32486 9.05507ZM2.67878 9.18353L2.60386 9.67788L2.79562 9.70694L2.87053 9.21259L2.94545 8.71823L2.75369 8.68917L2.67878 9.18353ZM2.87053 9.21259L2.79562 9.70694L2.98737 9.736L3.06229 9.24164L3.13721 8.74729L2.94545 8.71823L2.87053 9.21259ZM3.06229 9.24164L2.98737 9.736C3.10317 9.75355 3.22057 9.77567 3.33961 9.80245L3.44934 9.31463L3.55907 8.82682C3.41772 8.79503 3.27709 8.76849 3.13721 8.74729L3.06229 9.24164ZM3.44934 9.31463L3.33961 9.80245L3.53491 9.84637L3.64463 9.35856L3.75436 8.87075L3.55907 8.82682L3.44934 9.31463ZM3.64463 9.35856L3.53491 9.84637L3.7302 9.8903L3.83993 9.40249L3.94965 8.91468L3.75436 8.87075L3.64463 9.35856ZM3.83993 9.40249L3.7302 9.8903C3.72873 9.88997 3.72391 9.8887 3.71703 9.88543C3.71004 9.88212 3.70293 9.87769 3.69648 9.87247C3.68269 9.86133 3.68117 9.8543 3.68637 9.86458L4.13258 9.63897L4.57878 9.41336C4.45249 9.16358 4.23801 8.97954 3.94965 8.91468L3.83993 9.40249ZM4.13258 9.63897L3.68637 9.86458L3.78373 10.0571L4.22993 9.83152L4.67614 9.60591L4.57878 9.41336L4.13258 9.63897ZM4.22993 9.83152L3.78373 10.0571L3.88108 10.2497L4.32729 10.0241L4.7735 9.79846L4.67614 9.60591L4.22993 9.83152ZM4.32729 10.0241L3.88108 10.2497C3.98167 10.4486 4.12718 10.6209 4.32494 10.7414L4.58517 10.3145L4.84539 9.88752C4.82912 9.8776 4.80271 9.85625 4.7735 9.79846L4.32729 10.0241ZM4.58517 10.3145L4.32494 10.7414L4.48546 10.8392L4.74569 10.4123L5.00591 9.98535L4.84539 9.88752L4.58517 10.3145ZM4.74569 10.4123L4.48546 10.8392L4.64598 10.9371L4.90621 10.5101L5.16643 10.0832L5.00591 9.98535L4.74569 10.4123ZM4.90621 10.5101L4.64598 10.9371C4.72208 10.9835 4.7917 11.0371 4.85541 11.0983L5.20177 10.7377L5.54813 10.3771C5.43178 10.2653 5.30436 10.1673 5.16643 10.0832L4.90621 10.5101ZM5.20177 10.7377L4.85541 11.0983L4.99046 11.228L5.33682 10.8674L5.68318 10.5068L5.54813 10.3771L5.20177 10.7377ZM5.33682 10.8674L4.99046 11.228L5.1255 11.3577L5.47187 10.9971L5.81823 10.6365L5.68318 10.5068L5.33682 10.8674ZM5.47187 10.9971L5.1255 11.3577C5.16903 11.3995 5.20513 11.4495 5.23388 11.5119L5.68792 11.3025L6.14196 11.0931C6.0627 10.9212 5.95476 10.7677 5.81823 10.6365L5.47187 10.9971ZM5.68792 11.3025L5.23388 11.5119L5.31488 11.6875L5.76893 11.4781L6.22297 11.2687L6.14196 11.0931L5.68792 11.3025ZM5.76893 11.4781L5.31488 11.6875L5.39589 11.8632L5.84993 11.6538L6.30398 11.4444L6.22297 11.2687L5.76893 11.4781ZM5.84993 11.6538L5.39589 11.8632C5.47888 12.0431 5.596 12.2008 5.74629 12.3308L6.07338 11.9526L6.40047 11.5745C6.36084 11.5402 6.32899 11.4986 6.30398 11.4444L5.84993 11.6538ZM6.07338 11.9526L5.74629 12.3308L5.88873 12.454L6.21582 12.0758L6.5429 11.6977L6.40047 11.5745L6.07338 11.9526ZM6.21582 12.0758L5.88873 12.454L6.03117 12.5772L6.35826 12.199L6.68534 11.8209L6.5429 11.6977L6.21582 12.0758ZM6.35826 12.199L6.03117 12.5772C6.0646 12.6061 6.08693 12.6379 6.10261 12.6783L6.56868 12.4973L7.03475 12.3162C6.95979 12.1232 6.84183 11.9562 6.68534 11.8209L6.35826 12.199ZM6.56868 12.4973L6.10261 12.6783L6.1706 12.8533L6.63667 12.6723L7.10274 12.4912L7.03475 12.3162L6.56868 12.4973ZM6.63667 12.6723L6.1706 12.8533L6.23858 13.0283L6.70466 12.8473L7.17073 12.6663L7.10274 12.4912L6.63667 12.6723ZM6.70466 12.8473L6.23858 13.0283C6.29514 13.1739 6.3645 13.3126 6.44685 13.4437L6.87029 13.1778L7.29373 12.9119C7.24588 12.8357 7.20483 12.754 7.17073 12.6663L6.70466 12.8473ZM6.87029 13.1778L6.44685 13.4437L6.54449 13.5992L6.96793 13.3333L7.39137 13.0674L7.29373 12.9119L6.87029 13.1778ZM6.96793 13.3333L6.54449 13.5992L6.64213 13.7547L7.06557 13.4888L7.48901 13.2229L7.39137 13.0674L6.96793 13.3333ZM7.06557 13.4888L6.64213 13.7547C6.67864 13.8129 6.70479 13.8746 6.72125 13.9419L7.20694 13.8232L7.69264 13.7044C7.65078 13.5332 7.58269 13.3721 7.48901 13.2229L7.06557 13.4888ZM7.20694 13.8232L6.72125 13.9419L6.76499 14.1208L7.25068 14.002L7.73637 13.8832L7.69264 13.7044L7.20694 13.8232ZM7.25068 14.002L6.76499 14.1208L6.80872 14.2996L7.29441 14.1808L7.7801 14.0621L7.73637 13.8832L7.25068 14.002ZM7.29441 14.1808L6.80872 14.2996C6.84037 14.429 6.87583 14.5564 6.91513 14.6816L7.39218 14.5318L7.86923 14.3821C7.83648 14.2778 7.80676 14.1711 7.7801 14.0621L7.29441 14.1808ZM7.39218 14.5318L6.91513 14.6816L6.96916 14.8537L7.44622 14.704L7.92327 14.5542L7.86923 14.3821L7.39218 14.5318ZM7.44622 14.704L6.96916 14.8537L7.0232 15.0259L7.50025 14.8761L7.9773 14.7264L7.92327 14.5542L7.44622 14.704ZM7.50025 14.8761L7.0232 15.0259C7.06263 15.1515 7.10668 15.2769 7.15529 15.402L7.62136 15.2209L8.08742 15.0398C8.04661 14.9348 8.00992 14.8303 7.9773 14.7264L7.50025 14.8761ZM7.62136 15.2209L7.15529 15.402L7.22236 15.5746L7.68842 15.3935L8.15448 15.2125L8.08742 15.0398L7.62136 15.2209ZM7.68842 15.3935L7.22236 15.5746L7.28943 15.7472L7.75549 15.5662L8.22155 15.3851L8.15448 15.2125L7.68842 15.3935ZM7.75549 15.5662L7.28943 15.7472C7.31723 15.8188 7.33415 15.8913 7.34081 15.9662L7.83884 15.9219L8.33688 15.8776C8.32182 15.7083 8.28317 15.5437 8.22155 15.3851L7.75549 15.5662ZM7.83884 15.9219L7.34081 15.9662L7.35709 16.1493L7.85512 16.105L8.35316 16.0607L8.33688 15.8776L7.83884 15.9219ZM7.85512 16.105L7.35709 16.1493L7.37337 16.3324L7.87141 16.2881L8.36944 16.2438L8.35316 16.0607L7.85512 16.105ZM7.87141 16.2881L7.37337 16.3324C7.37641 16.3665 7.38056 16.4062 7.38691 16.4428C7.38959 16.4582 7.39595 16.4932 7.40916 16.5328C7.41512 16.5508 7.43008 16.5934 7.45971 16.6416C7.4763 16.6686 7.56763 16.8182 7.76905 16.8673C8.02955 16.9309 8.20673 16.7775 8.26553 16.7104C8.32279 16.6452 8.34874 16.5809 8.35658 16.5611C8.37612 16.5117 8.38439 16.4681 8.38707 16.4538C8.39433 16.4153 8.39871 16.3742 8.40169 16.3417L7.90379 16.296L7.40589 16.2502C7.40351 16.2761 7.40251 16.2785 7.40439 16.2686C7.40508 16.2649 7.40661 16.2571 7.40927 16.2467C7.41158 16.2377 7.41693 16.2179 7.4268 16.193C7.43329 16.1765 7.45789 16.1147 7.51381 16.051C7.57126 15.9855 7.74709 15.8326 8.00624 15.8959C8.20631 15.9447 8.29629 16.093 8.31153 16.1178C8.33982 16.1638 8.35342 16.2033 8.35803 16.2172C8.36408 16.2354 8.36749 16.2495 8.36905 16.2563C8.37079 16.264 8.37177 16.2694 8.37217 16.2717C8.37311 16.2771 8.37184 16.2707 8.36944 16.2438L7.87141 16.2881ZM7.90379 16.296L8.40169 16.3417L8.41779 16.1665L7.91988 16.1208L7.42198 16.0751L7.40589 16.2502L7.90379 16.296ZM7.91988 16.1208L8.41779 16.1665L8.43388 15.9913L7.93598 15.9456L7.43808 15.8999L7.42198 16.0751L7.91988 16.1208ZM7.93598 15.9456L8.43388 15.9913C8.44085 15.9156 8.45767 15.8344 8.48662 15.7471L8.01208 15.5896L7.53753 15.4321C7.48649 15.5859 7.45258 15.7421 7.43808 15.8999L7.93598 15.9456ZM8.01208 15.5896L8.48662 15.7471L8.54662 15.5663L8.07207 15.4088L7.59753 15.2513L7.53753 15.4321L8.01208 15.5896ZM8.07207 15.4088L8.54662 15.5663L8.60662 15.3856L8.13207 15.2281L7.65753 15.0706L7.59753 15.2513L8.07207 15.4088ZM8.13207 15.2281L8.60662 15.3856C8.65876 15.2285 8.69238 15.0669 8.70754 14.9016L8.20963 14.8559L7.71172 14.8102C7.70347 14.9001 7.68538 14.9866 7.65753 15.0706L8.13207 15.2281ZM8.20963 14.8559L8.70754 14.9016L8.7251 14.7102L8.22719 14.6645L7.72928 14.6188L7.71172 14.8102L8.20963 14.8559ZM8.22719 14.6645L8.7251 14.7102L8.74265 14.5188L8.24475 14.4732L7.74684 14.4275L7.72928 14.6188L8.22719 14.6645ZM8.24475 14.4732L8.74265 14.5188C8.74572 14.4854 8.75574 14.4582 8.77868 14.4278L8.37979 14.1263L7.98089 13.8249C7.84719 14.0018 7.76718 14.2057 7.74684 14.4275L8.24475 14.4732ZM8.37979 14.1263L8.77868 14.4278L8.89617 14.2723L8.49727 13.9709L8.09837 13.6694L7.98089 13.8249L8.37979 14.1263ZM8.49727 13.9709L8.89617 14.2723L9.01365 14.1169L8.61475 13.8154L8.21586 13.514L8.09837 13.6694L8.49727 13.9709ZM8.61475 13.8154L9.01365 14.1169C9.08837 14.018 9.16334 13.9225 9.23855 13.8303L8.85112 13.5142L8.46368 13.1982C8.38038 13.3003 8.29778 13.4056 8.21586 13.514L8.61475 13.8154ZM8.85112 13.5142L9.23855 13.8303L9.35743 13.6846L8.96999 13.3685L8.58256 13.0525L8.46368 13.1982L8.85112 13.5142ZM8.96999 13.3685L9.35743 13.6846L9.47631 13.5389L9.08887 13.2228L8.70144 12.9067L8.58256 13.0525L8.96999 13.3685ZM9.08887 13.2228L9.47631 13.5389C9.6109 13.3739 9.69655 13.183 9.73633 12.9763L9.24535 12.8818L8.75437 12.7873C8.74403 12.841 8.72536 12.8774 8.70144 12.9067L9.08887 13.2228ZM9.24535 12.8818L9.73633 12.9763L9.77393 12.7811L9.28295 12.6865L8.79197 12.592L8.75437 12.7873L9.24535 12.8818ZM9.28295 12.6865L9.77393 12.7811L9.81153 12.5858L9.32055 12.4912L8.82957 12.3967L8.79197 12.592L9.28295 12.6865ZM9.32055 12.4912L9.81153 12.5858C9.82811 12.4997 9.85494 12.4215 9.89132 12.3496L9.44512 12.124L8.99891 11.8984C8.91934 12.0557 8.86312 12.2224 8.82957 12.3967L9.32055 12.4912ZM9.44512 12.124L9.89132 12.3496L9.97828 12.1776L9.53208 11.952L9.08588 11.7264L8.99891 11.8984L9.44512 12.124ZM9.53208 11.952L9.97828 12.1776L10.0652 12.0056L9.61905 11.78L9.17285 11.5544L9.08588 11.7264L9.53208 11.952ZM9.61905 11.78L10.0652 12.0056C10.0644 12.0074 10.0624 12.0107 10.0591 12.0148C10.0558 12.0189 10.0524 12.0222 10.0494 12.0246C10.0431 12.0296 10.0447 12.026 10.0636 12.0201L9.91434 11.5429L9.76512 11.0656C9.51602 11.1435 9.30008 11.3027 9.17285 11.5544L9.61905 11.78ZM9.91434 11.5429L10.0636 12.0201L10.2719 11.9549L10.1227 11.4777L9.97345 11.0005L9.76512 11.0656L9.91434 11.5429ZM10.1227 11.4777L10.2719 11.9549L10.4802 11.8898L10.331 11.4126L10.1818 10.9354L9.97345 11.0005L10.1227 11.4777ZM10.331 11.4126L10.4802 11.8898C10.7852 11.7944 10.999 11.5679 11.078 11.2593L10.5937 11.1352L10.1093 11.0112C10.1091 11.0118 10.115 10.9909 10.1378 10.9668C10.1483 10.9558 10.1591 10.9476 10.1683 10.9421C10.1772 10.9367 10.1825 10.9351 10.1818 10.9354L10.331 11.4126ZM10.5937 11.1352L11.078 11.2593L11.1324 11.0471L10.648 10.9231L10.1636 10.799L10.1093 11.0112L10.5937 11.1352ZM10.648 10.9231L11.1324 11.0471L11.1867 10.8349L10.7023 10.7109L10.218 10.5868L10.1636 10.799L10.648 10.9231ZM10.7023 10.7109L11.1867 10.8349C11.1872 10.8329 11.1804 10.8594 11.1503 10.89C11.1191 10.9217 11.0875 10.9329 11.0772 10.9354L10.9594 10.4495L10.8415 9.96362C10.6961 9.99888 10.5541 10.07 10.4373 10.1889C10.3215 10.3066 10.2537 10.4474 10.218 10.5868L10.7023 10.7109ZM10.9594 10.4495L11.0772 10.9354L11.2799 10.8863L11.162 10.4004L11.0442 9.91445L10.8415 9.96362L10.9594 10.4495ZM11.162 10.4004L11.2799 10.8863L11.4826 10.8371L11.3647 10.3512L11.2468 9.86528L11.0442 9.91445L11.162 10.4004ZM11.3647 10.3512L11.4826 10.8371C11.7072 10.7826 11.9098 10.6695 12.0682 10.4909L11.6941 10.1592L11.32 9.82742C11.3095 9.83928 11.2924 9.85423 11.2468 9.86528L11.3647 10.3512ZM11.6941 10.1592L12.0682 10.4909L12.1949 10.348L11.8208 10.0163L11.4467 9.68457L11.32 9.82742L11.6941 10.1592ZM11.8208 10.0163L12.1949 10.348L12.3215 10.2052L11.9474 9.87345L11.5733 9.54171L11.4467 9.68457L11.8208 10.0163ZM11.9474 9.87345L12.3215 10.2052C12.3739 10.1462 12.4317 10.0978 12.4956 10.0586L12.2341 9.63242L11.9727 9.20624C11.8233 9.29789 11.6899 9.41025 11.5733 9.54171L11.9474 9.87345ZM12.2341 9.63242L12.4956 10.0586L12.6556 9.96042L12.3941 9.53424L12.1327 9.10807L11.9727 9.20624L12.2341 9.63242ZM12.3941 9.53424L12.6556 9.96042L12.8156 9.86225L12.5542 9.43607L12.2927 9.00989L12.1327 9.10807L12.3941 9.53424ZM12.5542 9.43607L12.8156 9.86225C12.9271 9.79384 13.0384 9.72298 13.1493 9.6497L12.8738 9.23249L12.5982 8.81527C12.4964 8.88254 12.3945 8.94741 12.2927 9.00989L12.5542 9.43607ZM12.8738 9.23249L13.1493 9.6497L13.3089 9.54429L13.0334 9.12707L12.7578 8.70986L12.5982 8.81527L12.8738 9.23249ZM13.0334 9.12707L13.3089 9.54429L13.4685 9.43887L13.193 9.02166L12.9174 8.60445L12.7578 8.70986L13.0334 9.12707ZM13.193 9.02166L13.4685 9.43887C13.4761 9.43386 13.4856 9.42763 13.5186 9.43011L13.556 8.93151L13.5934 8.43291C13.3552 8.41504 13.1226 8.46892 12.9174 8.60445L13.193 9.02166ZM13.556 8.93151L13.5186 9.43011L13.7221 9.44537L13.7595 8.94677L13.7969 8.44817L13.5934 8.43291L13.556 8.93151ZM13.7595 8.94677L13.7221 9.44537L13.9255 9.46063L13.9629 8.96203L14.0003 8.46343L13.7969 8.44817L13.7595 8.94677ZM13.9629 8.96203L13.9255 9.46063C14.1084 9.47435 14.2895 9.4619 14.4652 9.41763L14.343 8.93278L14.2209 8.44793C14.161 8.46301 14.0887 8.47006 14.0003 8.46343L13.9629 8.96203ZM14.343 8.93278L14.4652 9.41763L14.6419 9.37312L14.5197 8.88827L14.3976 8.40342L14.2209 8.44793L14.343 8.93278ZM14.5197 8.88827L14.6419 9.37312L14.8185 9.3286L14.6964 8.84375L14.5742 8.3589L14.3976 8.40342L14.5197 8.88827ZM14.6964 8.84375L14.8185 9.3286C14.9852 9.28663 15.1447 9.21983 15.2969 9.13255L15.0481 8.69884L14.7993 8.26512C14.7181 8.31172 14.6432 8.34153 14.5742 8.3589L14.6964 8.84375ZM15.0481 8.69884L15.2969 9.13255L15.4719 9.03215L15.2232 8.59843L14.9744 8.16472L14.7993 8.26512L15.0481 8.69884ZM15.2232 8.59843L15.4719 9.03215L15.647 8.93174L15.3982 8.49803L15.1494 8.06431L14.9744 8.16472L15.2232 8.59843ZM15.3982 8.49803L15.647 8.93174C15.6979 8.9025 15.7098 8.89986 15.6956 8.90464C15.6918 8.90592 15.6458 8.92237 15.577 8.92258C15.511 8.92278 15.3191 8.90469 15.1882 8.71919L15.5967 8.43084L16.0052 8.1425C15.8664 7.94592 15.6604 7.92232 15.574 7.92259C15.4847 7.92286 15.4119 7.94494 15.375 7.95742C15.2948 7.98459 15.2151 8.02662 15.1494 8.06431L15.3982 8.49803ZM15.5967 8.43084L15.1882 8.71919L15.2117 8.75241L15.6201 8.46406L16.0286 8.17572L16.0052 8.1425L15.5967 8.43084ZM15.6201 8.46406L15.2117 8.75241L15.2351 8.78563L15.6436 8.49728L16.0521 8.20894L16.0286 8.17572L15.6201 8.46406ZM15.6436 8.49728L15.2351 8.78563C15.2247 8.77085 15.2051 8.74144 15.1873 8.70042C15.172 8.66529 15.1389 8.57929 15.1479 8.46477C15.1588 8.32447 15.2303 8.18608 15.3576 8.09644C15.462 8.02297 15.5643 8.01036 15.6076 8.0073C15.6932 8.00124 15.7576 8.02022 15.7641 8.02198C15.7835 8.02724 15.7964 8.03225 15.7988 8.0332C15.8029 8.03478 15.7836 8.02674 15.725 7.9959L15.492 8.43825L15.2589 8.88061C15.3171 8.91126 15.3814 8.94381 15.436 8.96507C15.4511 8.97094 15.4745 8.97956 15.5024 8.98712C15.5174 8.99119 15.5882 9.01117 15.6782 9.0048C15.7237 9.00159 15.8276 8.98849 15.9332 8.91422C16.0617 8.82377 16.1338 8.68424 16.1448 8.54248C16.1539 8.42651 16.1204 8.33871 16.1042 8.30147C16.0855 8.25833 16.0645 8.22649 16.0521 8.20894L15.6436 8.49728ZM15.492 8.43825L15.725 7.9959L15.5499 7.90365L15.3169 8.346L15.0838 8.78836L15.2589 8.88061L15.492 8.43825ZM15.3169 8.346L15.5499 7.90365L15.3749 7.8114L15.1418 8.25376L14.9087 8.69611L15.0838 8.78836L15.3169 8.346ZM15.1418 8.25376L15.3749 7.8114C15.2229 7.73132 15.0645 7.671 14.9001 7.63402L14.7903 8.12181L14.6806 8.60961C14.7514 8.62555 14.8273 8.65319 14.9087 8.69611L15.1418 8.25376ZM14.7903 8.12181L14.9001 7.63402L14.7238 7.59432L14.614 8.08212L14.5042 8.56991L14.6806 8.60961L14.7903 8.12181ZM14.614 8.08212L14.7238 7.59432L14.5474 7.55463L14.4376 8.04242L14.3278 8.53022L14.5042 8.56991L14.614 8.08212ZM14.4376 8.04242L14.5474 7.55463C14.3834 7.5177 14.2146 7.5042 14.0431 7.51108L14.0631 8.01068L14.0832 8.51028C14.1759 8.50656 14.2568 8.51422 14.3278 8.53022L14.4376 8.04242ZM14.0631 8.01068L14.0431 7.51108L13.845 7.51904L13.865 8.01864L13.8851 8.51823L14.0832 8.51028L14.0631 8.01068ZM13.865 8.01864L13.845 7.51904L13.6468 7.527L13.6669 8.02659L13.6869 8.52619L13.8851 8.51823L13.865 8.01864ZM13.6669 8.02659L13.6468 7.527C13.5769 7.5298 13.5169 7.5198 13.4623 7.49984L13.2906 7.96946L13.119 8.43907C13.3019 8.5059 13.4926 8.53399 13.6869 8.52619L13.6669 8.02659ZM13.2906 7.96946L13.4623 7.49984L13.2842 7.43474L13.1125 7.90436L12.9409 8.37398L13.119 8.43907L13.2906 7.96946ZM13.1125 7.90436L13.2842 7.43474L13.1061 7.36965L12.9344 7.83927L12.7628 8.30889L12.9409 8.37398L13.1125 7.90436ZM12.9344 7.83927L13.1061 7.36965C13.0896 7.36361 13.0696 7.35274 13.0437 7.31654L12.6371 7.60753L12.2305 7.89852C12.3636 8.08452 12.5419 8.22814 12.7628 8.30889L12.9344 7.83927ZM12.6371 7.60753L13.0437 7.31654L12.9244 7.14989L12.5178 7.44088L12.1112 7.73187L12.2305 7.89852L12.6371 7.60753ZM12.5178 7.44088L12.9244 7.14989L12.8051 6.98323L12.3985 7.27422L11.9919 7.56522L12.1112 7.73187L12.5178 7.44088ZM12.3985 7.27422L12.8051 6.98323C12.7008 6.83743 12.58 6.7081 12.441 6.60056L12.1351 6.99604L11.8292 7.39152C11.8824 7.4327 11.9373 7.48882 11.9919 7.56522L12.3985 7.27422ZM12.1351 6.99604L12.441 6.60056L12.2968 6.48902L11.9909 6.88451L11.685 7.27999L11.8292 7.39152L12.1351 6.99604ZM11.9909 6.88451L12.2968 6.48902L12.1527 6.37749L11.8467 6.77297L11.5408 7.16846L11.685 7.27999L11.9909 6.88451ZM11.8467 6.77297L12.1527 6.37749C11.9767 6.24138 11.7724 6.16635 11.5605 6.13542L11.4883 6.63018L11.4161 7.12494C11.4898 7.1357 11.5245 7.15586 11.5408 7.16846L11.8467 6.77297ZM11.4883 6.63018L11.5605 6.13542L11.3462 6.10416L11.274 6.59892L11.2018 7.09368L11.4161 7.12494L11.4883 6.63018ZM11.274 6.59892L11.3462 6.10416L11.1319 6.07289L11.0597 6.56765L10.9875 7.06241L11.2018 7.09368L11.274 6.59892ZM11.0597 6.56765L11.1319 6.07289C11.1288 6.07244 11.1519 6.0756 11.1818 6.09832C11.2129 6.12191 11.227 6.14807 11.2308 6.15739L10.7679 6.34629L10.305 6.53519C10.4279 6.83654 10.6812 7.01771 10.9875 7.06241L11.0597 6.56765ZM10.7679 6.34629L11.2308 6.15739L11.1533 5.96728L10.6903 6.15618L10.2274 6.34508L10.305 6.53519L10.7679 6.34629ZM10.6903 6.15618L11.1533 5.96728L11.0757 5.77718L10.6128 5.96608L10.1498 6.15498L10.2274 6.34508L10.6903 6.15618ZM10.6128 5.96608L11.0757 5.77718C10.9959 5.5815 10.8751 5.4082 10.709 5.27122L10.3909 5.65695L10.0727 6.04269C10.0991 6.0644 10.1262 6.09719 10.1498 6.15498L10.6128 5.96608ZM10.3909 5.65695L10.709 5.27122L10.5647 5.15219L10.2466 5.53793L9.92842 5.92366L10.0727 6.04269L10.3909 5.65695ZM10.2466 5.53793L10.5647 5.15219L10.4204 5.03317L10.1022 5.4189L9.7841 5.80464L9.92842 5.92366L10.2466 5.53793ZM10.1022 5.4189L10.4204 5.03317C10.3143 4.9457 10.2029 4.86063 10.0862 4.77788L9.79696 5.18571L9.5077 5.59354C9.60565 5.66302 9.69774 5.73341 9.7841 5.80464L10.1022 5.4189ZM9.79696 5.18571L10.0862 4.77788L9.92527 4.66372L9.636 5.07155L9.34674 5.47938L9.5077 5.59354L9.79696 5.18571ZM9.636 5.07155L9.92527 4.66372L9.76431 4.54955L9.47504 4.95738L9.18577 5.36521L9.34674 5.47938L9.636 5.07155ZM9.47504 4.95738L9.76431 4.54955C9.76259 4.54833 9.76328 4.5486 9.76529 4.55072C9.76735 4.55289 9.76975 4.55591 9.77194 4.55947C9.77412 4.56301 9.77523 4.56569 9.7756 4.56671C9.77593 4.56762 9.77519 4.56589 9.77433 4.56065L9.28095 4.64179L8.78758 4.72292C8.8305 4.98392 8.9654 5.2089 9.18577 5.36521L9.47504 4.95738ZM9.28095 4.64179L9.77433 4.56065L9.7412 4.35923L9.24783 4.44036L8.75446 4.5215L8.78758 4.72292L9.28095 4.64179ZM9.24783 4.44036L9.7412 4.35923L9.70808 4.1578L9.21471 4.23894L8.72133 4.32007L8.75446 4.5215L9.24783 4.44036ZM9.21471 4.23894L9.70808 4.1578C9.67324 3.94595 9.59057 3.74837 9.45415 3.57771L9.06359 3.88991L8.67304 4.20212C8.69394 4.22825 8.71201 4.26336 8.72133 4.32007L9.21471 4.23894ZM9.06359 3.88991L9.45415 3.57771L9.33616 3.43011L8.94561 3.74232L8.55506 4.05452L8.67304 4.20212L9.06359 3.88991ZM8.94561 3.74232L9.33616 3.43011L9.21817 3.28252L8.82762 3.59472L8.43707 3.90692L8.55506 4.05452L8.94561 3.74232ZM8.82762 3.59472L9.21817 3.28252C9.12891 3.17086 9.03154 3.06075 8.92647 2.95211L8.56706 3.29969L8.20764 3.64728C8.29268 3.73522 8.36902 3.82179 8.43707 3.90692L8.82762 3.59472ZM8.56706 3.29969L8.92647 2.95211L8.7839 2.80468L8.42448 3.15226L8.06506 3.49985L8.20764 3.64728L8.56706 3.29969ZM8.42448 3.15226L8.7839 2.80468L8.64132 2.65724L8.2819 3.00483L7.92248 3.35242L8.06506 3.49985L8.42448 3.15226ZM8.2819 3.00483L8.64132 2.65724C8.64028 2.65617 8.64221 2.65798 8.64533 2.66299C8.64854 2.66813 8.65199 2.67505 8.65476 2.68327C8.66085 2.70138 8.65922 2.71222 8.65968 2.70817L8.16293 2.65128L7.66618 2.59438C7.63365 2.87838 7.72207 3.14519 7.92248 3.35242L8.2819 3.00483ZM8.16293 2.65128L8.65968 2.70817L8.68329 2.50204L8.18654 2.44515L7.68979 2.38825L7.66618 2.59438L8.16293 2.65128ZM8.18654 2.44515L8.68329 2.50204L8.7069 2.29591L8.21015 2.23902L7.7134 2.18212L7.68979 2.38825L8.18654 2.44515ZM8.21015 2.23902L8.7069 2.29591C8.72297 2.15565 8.73721 2.02052 8.74963 1.89055L8.25189 1.84301L7.75416 1.79546C7.74239 1.91867 7.72881 2.04755 7.7134 2.18212L8.21015 2.23902ZM8.25189 1.84301L8.74963 1.89055L8.76777 1.70067L8.27003 1.65313L7.7723 1.60558L7.75416 1.79546L8.25189 1.84301ZM8.27003 1.65313L8.76777 1.70067L8.7859 1.51079L8.28817 1.46325L7.79044 1.4157L7.7723 1.60558L8.27003 1.65313ZM8.28817 1.46325L8.7859 1.51079C8.80802 1.27922 8.75814 1.0578 8.65 0.857434L8.20999 1.0949L7.76998 1.33237C7.79027 1.36996 7.7925 1.3941 7.79044 1.4157L8.28817 1.46325ZM8.20999 1.0949L8.65 0.857434L8.55369 0.678967L8.11368 0.916434L7.67366 1.1539L7.76998 1.33237L8.20999 1.0949ZM8.11368 0.916434L8.55369 0.678967L8.45737 0.5005L8.01736 0.737967L7.57735 0.975434L7.67366 1.1539L8.11368 0.916434ZM8.01736 0.737967L8.45737 0.5005C8.44353 0.47486 8.43312 0.454635 8.42559 0.439231C8.41768 0.423071 8.41487 0.416142 8.41492 0.416279C8.41503 0.416555 8.41697 0.421415 8.41961 0.429865C8.42191 0.437265 8.42722 0.455174 8.43139 0.480267C8.43479 0.500713 8.44257 0.554582 8.43226 0.624162C8.42202 0.693312 8.38382 0.836835 8.24169 0.94394L7.94078 0.544625L7.63987 0.145309C7.49445 0.254893 7.45417 0.4026 7.44306 0.477636C7.43188 0.553104 7.43999 0.614564 7.44494 0.644306C7.45525 0.706286 7.47469 0.757992 7.48519 0.784516C7.5091 0.844886 7.54291 0.911622 7.57735 0.975434L8.01736 0.737967ZM7.94078 0.544625L8.24169 0.94394L8.26143 0.929065L7.96052 0.52975L7.65961 0.130434L7.63987 0.145309L7.94078 0.544625ZM7.96052 0.52975L8.26143 0.929065L8.28117 0.91419L7.98026 0.514875L7.67935 0.115559L7.65961 0.130434L7.96052 0.52975ZM7.98026 0.514875L8.28117 0.91419C8.21654 0.962895 8.12886 1.00362 8.02335 1.01219C7.91994 1.0206 7.83286 0.995434 7.77079 0.965888C7.66207 0.914131 7.60485 0.837624 7.59076 0.818662C7.56928 0.789738 7.557 0.765928 7.55266 0.75726C7.54731 0.746585 7.54447 0.739523 7.54399 0.738313C7.54314 0.73621 7.54539 0.741702 7.55065 0.758672C7.55559 0.774584 7.56184 0.796229 7.56944 0.824506L8.05232 0.694809L8.53521 0.565113C8.51688 0.496875 8.49592 0.425506 8.47231 0.366529C8.46357 0.344711 8.43884 0.283375 8.39357 0.222424C8.37484 0.197204 8.31331 0.116623 8.20062 0.0629765C8.13657 0.0324857 8.04759 0.0069257 7.94236 0.0154774C7.83503 0.024199 7.74563 0.0656148 7.67935 0.115559L7.98026 0.514875ZM8.05232 0.694809L7.56944 0.824506L7.62176 1.01931L8.10465 0.889618L8.58753 0.759922L8.53521 0.565113L8.05232 0.694809Z" fill="#FFD85A"/>
</g>
<defs>
<clipPath id="clip0_379_3159">
<rect width="24" height="24" fill="white"/>
</clipPath>
</defs>
</svg>
