<svg width="24" height="24" viewBox="0 0 24 24" fill="none" xmlns="http://www.w3.org/2000/svg">
<g clip-path="url(#clip0_379_2725)">
<path d="M12 5C15.866 5 19 8.13401 19 12C19 15.866 15.866 19 12 19C8.13401 19 5 15.866 5 12C5 8.13401 8.13401 5 12 5Z" fill="#FF5053"/>
<path d="M12.5544 5.09737L12.4679 5.58984L12.5544 5.09737ZM13.8763 5.17214L13.9572 4.67873L13.8763 5.17214ZM14.0647 5.20303L13.9838 5.69644L14.0647 5.20303ZM14.4042 5.36184L14.0811 5.74345L14.4042 5.36184ZM14.7064 5.61767L15.0294 5.23605L14.7064 5.61767ZM15.0473 5.78587L14.9435 6.27498L15.0473 5.78587ZM15.7202 6.08462L15.2879 6.33575L15.7202 6.08462ZM15.8236 6.26252L15.3912 6.51365L15.8236 6.26252ZM15.9269 6.44042L15.4945 6.69155L15.9269 6.44042ZM16.2156 6.68311L16.3806 6.21111L16.2156 6.68311ZM16.401 6.7479L16.2361 7.21991L16.401 6.7479ZM16.5864 6.8127L16.7514 6.34069L16.5864 6.8127ZM16.8737 7.03682L17.2949 6.76734L16.8737 7.03682ZM17.0776 7.35549L17.4988 7.08601L17.0776 7.35549ZM17.3799 7.59868L17.1869 8.0599L17.3799 7.59868ZM17.7806 7.76639L17.5875 8.22762L17.7806 7.76639ZM17.9752 8.07521L17.4753 8.0624L17.9752 8.07521ZM17.9694 8.30017L18.4693 8.31297L17.9694 8.30017ZM17.9637 8.52513L18.4635 8.53793L17.9637 8.52513ZM18.1392 8.8713L17.8613 9.28697L18.1392 8.8713ZM18.3205 8.99251L18.5984 8.57684L18.3205 8.99251ZM18.5019 9.11373L18.224 9.5294L18.5019 9.11373ZM18.6368 9.44995L19.1256 9.55528L18.6368 9.44995ZM18.5442 9.87997L18.0554 9.77464L18.5442 9.87997ZM18.5338 10.2723L19.0238 10.173L18.5338 10.2723ZM18.5698 10.4497L18.0797 10.5491L18.5698 10.4497ZM18.6057 10.6271L18.1157 10.7264L18.6057 10.6271ZM18.8543 11.6964L18.3547 11.6763L18.8543 11.6964ZM18.8394 12.0645L19.339 12.0847L18.8394 12.0645ZM18.9076 12.444L18.4413 12.6244L18.9076 12.444ZM19.0588 12.8349L19.5252 12.6546L19.0588 12.8349ZM19.1118 13.2235L19.6084 13.2817L19.1118 13.2235ZM19.0892 13.4166L18.5926 13.3583L19.0892 13.4166ZM19.0665 13.6096L18.5699 13.5514L19.0665 13.6096ZM18.9001 13.9565L18.5349 13.615L18.9001 13.9565ZM18.6124 14.2641L18.9776 14.6056L18.6124 14.2641ZM18.3699 14.5749L17.9466 14.3088L18.3699 14.5749ZM18.2713 14.7319L18.6946 14.9979L18.2713 14.7319ZM18.1726 14.8889L17.7493 14.6228L18.1726 14.8889ZM18.0674 15.2578L17.5677 15.2423L18.0674 15.2578ZM18.0543 15.6815L18.5541 15.697L18.0543 15.6815ZM17.9545 16.0653L17.515 15.8268L17.9545 16.0653ZM17.768 16.4089L18.2074 16.6474L17.768 16.4089ZM17.4851 16.6667L17.6914 17.1221L17.4851 16.6667ZM17.1058 16.8386L16.8994 16.3832L17.1058 16.8386ZM16.7841 17.0573L16.4295 16.7048L16.7841 17.0573ZM16.5202 17.3228L16.8748 17.6753L16.5202 17.3228ZM16.2154 17.5329L16.0113 17.0764L16.2154 17.5329ZM15.8698 17.6874L16.0739 18.1439L15.8698 17.6874ZM15.5427 17.8656L15.8165 18.284L15.5427 17.8656ZM15.2343 18.0674L15.508 18.4858L15.2343 18.0674ZM14.9096 18.2387L14.7187 17.7767L14.9096 18.2387ZM14.5688 18.3796L14.7598 18.8417L14.5688 18.3796ZM14.2135 18.4691L14.2646 18.9664L14.2135 18.4691ZM13.8436 18.5071L13.7925 18.0097L13.8436 18.5071ZM13.1673 18.9056L13.4729 19.3013L13.1673 18.9056ZM12.814 19.0448L12.8472 19.5437L12.814 19.0448ZM12.4349 19.07L12.4017 18.5712L12.4349 19.07ZM12.0519 19.1287L11.9363 18.6422L12.0519 19.1287ZM11.2937 19.1552L11.5593 18.7315L11.2937 19.1552ZM10.9382 18.9323L10.6726 19.3559L10.9382 18.9323ZM10.5593 18.8478L10.4928 18.3523L10.5593 18.8478ZM10.3582 18.8748L10.4247 19.3704L10.3582 18.8748ZM10.1571 18.9018L10.0906 18.4063L10.1571 18.9018ZM9.78111 18.8464L9.56804 19.2987L9.78111 18.8464ZM9.43136 18.6817L9.21829 19.134L9.43136 18.6817ZM8.84937 18.1499L9.21992 17.8142L8.84937 18.1499ZM8.56134 17.8988L8.8382 17.4825L8.56134 17.8988ZM8.25669 17.6962L8.53354 17.2799L8.25669 17.6962ZM7.93932 17.5069L7.70405 17.9481L7.93932 17.5069ZM7.60925 17.3309L7.84452 16.8897L7.60925 17.3309ZM7.31196 17.1123L7.66328 16.7565L7.31196 17.1123ZM7.04743 16.8511L6.6961 17.2068L7.04743 16.8511ZM6.81833 16.5612L7.24553 16.3014L6.81833 16.5612ZM6.62465 16.2428L6.19745 16.5026L6.62465 16.2428ZM6.32573 15.9911L6.11775 16.4458L6.32573 15.9911ZM5.92158 15.8062L6.12957 15.3515L5.92158 15.8062ZM5.76435 15.479L5.27324 15.3852L5.76435 15.479ZM5.69502 14.6535L5.95045 14.2237L5.69502 14.6535ZM5.49113 14.5324L5.2357 14.9622L5.49113 14.5324ZM5.28723 14.4112L5.0318 14.841L5.28723 14.4112ZM5.14147 14.0783L5.62363 14.2107L5.14147 14.0783ZM5.25773 13.6548L4.77558 13.5224L5.25773 13.6548ZM5.28335 13.2627L4.79128 13.3514L5.28335 13.2627ZM4.83914 11.0256L4.36693 10.8612L4.83914 11.0256ZM4.96785 10.6559L5.44005 10.8202L4.96785 10.6559ZM5.2035 9.925L5.68057 10.0747L5.2035 9.925ZM5.33609 9.56862L4.87723 9.37001L5.33609 9.56862ZM5.48705 9.21985L5.94591 9.41847L5.48705 9.21985ZM5.72765 8.92356L5.43069 8.52131L5.72765 8.92356ZM5.89277 8.80166L5.59581 8.39941L5.89277 8.80166ZM6.05789 8.67976L6.35486 9.08202L6.05789 8.67976ZM6.2692 8.36761L6.75509 8.48558L6.2692 8.36761ZM6.31539 8.17736L5.82951 8.0594L6.31539 8.17736ZM6.53888 7.66339L6.89559 8.01376L6.53888 7.66339ZM6.80108 7.39644L6.44437 7.04607L6.80108 7.39644ZM7.02025 7.08116L6.57026 6.86319L7.02025 7.08116ZM7.43523 6.41461L7.12205 6.02484L7.43523 6.41461ZM7.58602 6.29345L7.8992 6.68322L7.58602 6.29345ZM7.73681 6.17229L7.42364 5.78252L7.73681 6.17229ZM8.48568 5.93654L8.57976 6.42761L8.48568 5.93654ZM8.83228 5.76857L8.50167 5.39347L8.83228 5.76857ZM9.12677 5.509L9.45738 5.8841L9.12677 5.509ZM9.8655 5.35705L9.84677 4.8574L9.8655 5.35705ZM10.2318 5.24325L10.498 5.66648L10.2318 5.24325ZM10.401 5.13685L10.1348 4.71362L10.401 5.13685ZM10.5701 5.03044L10.8364 5.45367L10.5701 5.03044ZM10.9372 5.00295L10.7521 5.46741L10.9372 5.00295ZM11.3332 5.16078L11.5183 4.69632L11.3332 5.16078ZM11.8828 5.24283L11.8783 5.74281L11.8828 5.24283ZM12.3696 5.06492L12.2831 5.55738L12.4679 5.58984L12.5544 5.09737L12.6409 4.60491L12.4561 4.57245L12.3696 5.06492ZM12.5544 5.09737L12.4679 5.58984C12.6243 5.61731 12.7826 5.62888 12.9421 5.6248L12.9293 5.12496L12.9165 4.62513C12.8226 4.62753 12.7309 4.62072 12.6409 4.60491L12.5544 5.09737ZM12.9293 5.12496L12.9421 5.6248L13.1322 5.61993L13.1194 5.12009L13.1066 4.62026L12.9165 4.62513L12.9293 5.12496ZM13.1194 5.12009L13.1322 5.61993L13.3223 5.61506L13.3095 5.11523L13.2967 4.61539L13.1066 4.62026L13.1194 5.12009ZM13.3095 5.11523L13.3223 5.61506C13.4175 5.61262 13.5123 5.61912 13.607 5.63466L13.6879 5.14125L13.7689 4.64784C13.6124 4.62219 13.4549 4.61134 13.2967 4.61539L13.3095 5.11523ZM13.6879 5.14125L13.607 5.63466L13.7954 5.66555L13.8763 5.17214L13.9572 4.67873L13.7689 4.64784L13.6879 5.14125ZM13.8763 5.17214L13.7954 5.66555L13.9838 5.69644L14.0647 5.20303L14.1456 4.70962L13.9572 4.67873L13.8763 5.17214ZM14.0647 5.20303L13.9838 5.69644C14.0166 5.70182 14.0468 5.7144 14.0811 5.74345L14.4042 5.36184L14.7272 4.98022C14.5601 4.83871 14.3639 4.74542 14.1456 4.70962L14.0647 5.20303ZM14.4042 5.36184L14.0811 5.74345L14.2322 5.87137L14.5553 5.48975L14.8783 5.10814L14.7272 4.98022L14.4042 5.36184ZM14.5553 5.48975L14.2322 5.87137L14.3833 5.99928L14.7064 5.61767L15.0294 5.23605L14.8783 5.10814L14.5553 5.48975ZM14.7064 5.61767L14.3833 5.99928C14.5458 6.13685 14.7344 6.23061 14.9435 6.27498L15.0473 5.78587L15.1511 5.29676C15.107 5.28741 15.0684 5.26904 15.0294 5.23605L14.7064 5.61767ZM15.0473 5.78587L14.9435 6.27498L15.1334 6.31527L15.2372 5.82615L15.341 5.33704L15.1511 5.29676L15.0473 5.78587ZM15.2372 5.82615L15.1334 6.31527L15.3233 6.35555L15.4271 5.86644L15.5308 5.37733L15.341 5.33704L15.2372 5.82615ZM15.4271 5.86644L15.3233 6.35555C15.3227 6.35543 15.3192 6.3546 15.3137 6.35217C15.3081 6.3497 15.3023 6.34633 15.2968 6.34225C15.2849 6.3334 15.2832 6.32764 15.2879 6.33575L15.7202 6.08462L16.1526 5.83349C16.0175 5.60097 15.8047 5.43544 15.5308 5.37733L15.4271 5.86644ZM15.7202 6.08462L15.2879 6.33575L15.3912 6.51365L15.8236 6.26252L16.2559 6.01139L16.1526 5.83349L15.7202 6.08462ZM15.8236 6.26252L15.3912 6.51365L15.4945 6.69155L15.9269 6.44042L16.3593 6.18929L16.2559 6.01139L15.8236 6.26252ZM15.9269 6.44042L15.4945 6.69155C15.6203 6.90798 15.8087 7.07057 16.0507 7.15512L16.2156 6.68311L16.3806 6.21111C16.3766 6.20972 16.3746 6.20864 16.3738 6.20823C16.3731 6.20783 16.3728 6.20758 16.3725 6.2073C16.3724 6.20724 16.3673 6.2032 16.3593 6.18929L15.9269 6.44042ZM16.2156 6.68311L16.0507 7.15512L16.2361 7.21991L16.401 6.7479L16.566 6.2759L16.3806 6.21111L16.2156 6.68311ZM16.401 6.7479L16.2361 7.21991L16.4214 7.2847L16.5864 6.8127L16.7514 6.34069L16.566 6.2759L16.401 6.7479ZM16.5864 6.8127L16.4214 7.2847C16.4358 7.28972 16.4417 7.29404 16.4434 7.29537C16.4449 7.29656 16.448 7.29907 16.4526 7.3063L16.8737 7.03682L17.2949 6.76734C17.1642 6.56303 16.9763 6.41929 16.7514 6.34069L16.5864 6.8127ZM16.8737 7.03682L16.4526 7.3063L16.5545 7.46563L16.9757 7.19615L17.3969 6.92668L17.2949 6.76734L16.8737 7.03682ZM16.9757 7.19615L16.5545 7.46563L16.6565 7.62496L17.0776 7.35549L17.4988 7.08601L17.3969 6.92668L16.9757 7.19615ZM17.0776 7.35549L16.6565 7.62496C16.787 7.82903 16.9739 7.97076 17.1869 8.0599L17.3799 7.59868L17.573 7.13745C17.5188 7.11479 17.5042 7.09439 17.4988 7.08601L17.0776 7.35549ZM17.3799 7.59868L17.1869 8.0599L17.3872 8.14376L17.5803 7.68254L17.7733 7.22131L17.573 7.13745L17.3799 7.59868ZM17.5803 7.68254L17.3872 8.14376L17.5875 8.22762L17.7806 7.76639L17.9737 7.30517L17.7733 7.22131L17.5803 7.68254ZM17.7806 7.76639L17.5875 8.22762C17.5779 8.22359 17.5385 8.20311 17.5064 8.15207C17.4917 8.12872 17.4834 8.10639 17.4791 8.08882C17.4751 8.07194 17.4754 8.06215 17.4753 8.0624L17.9752 8.07521L18.475 8.08802C18.4789 7.93751 18.4486 7.77159 18.3524 7.61899C18.2554 7.46501 18.1169 7.36511 17.9737 7.30517L17.7806 7.76639ZM17.9752 8.07521L17.4753 8.0624L17.4696 8.28736L17.9694 8.30017L18.4693 8.31297L18.475 8.08802L17.9752 8.07521ZM17.9694 8.30017L17.4696 8.28736L17.4638 8.51232L17.9637 8.52513L18.4635 8.53793L18.4693 8.31297L17.9694 8.30017ZM17.9637 8.52513L17.4638 8.51232C17.4558 8.82713 17.5925 9.10724 17.8613 9.28697L18.1392 8.8713L18.4171 8.45563C18.4171 8.45563 18.4184 8.45647 18.4205 8.45833C18.4227 8.4602 18.4258 8.46299 18.4292 8.46681C18.4365 8.47479 18.4442 8.48535 18.4506 8.498C18.4644 8.52528 18.4634 8.54333 18.4635 8.53793L17.9637 8.52513ZM18.1392 8.8713L17.8613 9.28697L18.0427 9.40819L18.3205 8.99251L18.5984 8.57684L18.4171 8.45563L18.1392 8.8713ZM18.3205 8.99251L18.0427 9.40819L18.224 9.5294L18.5019 9.11373L18.7797 8.69806L18.5984 8.57684L18.3205 8.99251ZM18.5019 9.11373L18.224 9.5294C18.218 9.52544 18.1844 9.49977 18.1623 9.44468C18.1403 9.38994 18.147 9.34931 18.1481 9.34462L18.6368 9.44995L19.1256 9.55528C19.1575 9.40725 19.1572 9.23892 19.0903 9.07211C19.0231 8.90494 18.9065 8.78283 18.7797 8.69806L18.5019 9.11373ZM18.6368 9.44995L18.1481 9.34462L18.1017 9.55963L18.5905 9.66496L19.0793 9.77029L19.1256 9.55528L18.6368 9.44995ZM18.5905 9.66496L18.1017 9.55963L18.0554 9.77464L18.5442 9.87997L19.033 9.9853L19.0793 9.77029L18.5905 9.66496ZM18.5442 9.87997L18.0554 9.77464C18.013 9.9712 18.0035 10.173 18.0438 10.3717L18.5338 10.2723L19.0238 10.173C19.0162 10.1352 19.0135 10.0754 19.033 9.9853L18.5442 9.87997ZM18.5338 10.2723L18.0438 10.3717L18.0797 10.5491L18.5698 10.4497L19.0598 10.3503L19.0238 10.173L18.5338 10.2723ZM18.5698 10.4497L18.0797 10.5491L18.1157 10.7264L18.6057 10.6271L19.0958 10.5277L19.0598 10.3503L18.5698 10.4497ZM18.6057 10.6271L18.1157 10.7264C18.1431 10.8616 18.1777 10.9961 18.2192 11.1298L18.6967 10.9814L19.1742 10.833C19.1424 10.7308 19.1163 10.629 19.0958 10.5277L18.6057 10.6271ZM18.6967 10.9814L18.2192 11.1298L18.2742 11.3068L18.7517 11.1584L19.2292 11.01L19.1742 10.833L18.6967 10.9814ZM18.7517 11.1584L18.2742 11.3068L18.3292 11.4838L18.8067 11.3354L19.2842 11.187L19.2292 11.01L18.7517 11.1584ZM18.8067 11.3354L18.3292 11.4838C18.3491 11.5476 18.3573 11.611 18.3547 11.6763L18.8543 11.6964L19.3539 11.7166C19.3611 11.5365 19.3377 11.3592 19.2842 11.187L18.8067 11.3354ZM18.8543 11.6964L18.3547 11.6763L18.3473 11.8603L18.8469 11.8805L19.3465 11.9006L19.3539 11.7166L18.8543 11.6964ZM18.8469 11.8805L18.3473 11.8603L18.3398 12.0444L18.8394 12.0645L19.339 12.0847L19.3465 11.9006L18.8469 11.8805ZM18.8394 12.0645L18.3398 12.0444C18.3318 12.2443 18.3696 12.439 18.4413 12.6244L18.9076 12.444L19.374 12.2636C19.3449 12.1884 19.3372 12.1301 19.339 12.0847L18.8394 12.0645ZM18.9076 12.444L18.4413 12.6244L18.5169 12.8198L18.9832 12.6395L19.4496 12.4591L19.374 12.2636L18.9076 12.444ZM18.9832 12.6395L18.5169 12.8198L18.5925 13.0153L19.0588 12.8349L19.5252 12.6546L19.4496 12.4591L18.9832 12.6395ZM19.0588 12.8349L18.5925 13.0153C18.6159 13.0758 18.6201 13.1236 18.6152 13.1652L19.1118 13.2235L19.6084 13.2817C19.6337 13.0659 19.6026 12.8547 19.5252 12.6546L19.0588 12.8349ZM19.1118 13.2235L18.6152 13.1652L18.5926 13.3583L19.0892 13.4166L19.5858 13.4748L19.6084 13.2817L19.1118 13.2235ZM19.0892 13.4166L18.5926 13.3583L18.5699 13.5514L19.0665 13.6096L19.5631 13.6679L19.5858 13.4748L19.0892 13.4166ZM19.0665 13.6096L18.5699 13.5514C18.5683 13.5651 18.5642 13.5836 18.5349 13.615L18.9001 13.9565L19.2652 14.298C19.4276 14.1244 19.5345 13.9116 19.5631 13.6679L19.0665 13.6096ZM18.9001 13.9565L18.5349 13.615L18.3911 13.7688L18.7562 14.1103L19.1214 14.4518L19.2652 14.298L18.9001 13.9565ZM18.7562 14.1103L18.3911 13.7688L18.2472 13.9226L18.6124 14.2641L18.9776 14.6056L19.1214 14.4518L18.7562 14.1103ZM18.6124 14.2641L18.2472 13.9226C18.1325 14.0453 18.0314 14.1739 17.9466 14.3088L18.3699 14.5749L18.7933 14.8409C18.84 14.7665 18.9006 14.6879 18.9776 14.6056L18.6124 14.2641ZM18.3699 14.5749L17.9466 14.3088L17.8479 14.4658L18.2713 14.7319L18.6946 14.9979L18.7933 14.8409L18.3699 14.5749ZM18.2713 14.7319L17.8479 14.4658L17.7493 14.6228L18.1726 14.8889L18.596 15.1549L18.6946 14.9979L18.2713 14.7319ZM18.1726 14.8889L17.7493 14.6228C17.6298 14.813 17.5744 15.0251 17.5677 15.2423L18.0674 15.2578L18.5672 15.2732C18.5692 15.2078 18.584 15.174 18.596 15.1549L18.1726 14.8889ZM18.0674 15.2578L17.5677 15.2423L17.5611 15.4542L18.0609 15.4696L18.5606 15.4851L18.5672 15.2732L18.0674 15.2578ZM18.0609 15.4696L17.5611 15.4542L17.5545 15.6661L18.0543 15.6815L18.5541 15.697L18.5606 15.4851L18.0609 15.4696ZM18.0543 15.6815L17.5545 15.6661C17.5524 15.736 17.5369 15.7865 17.515 15.8268L17.9545 16.0653L18.3939 16.3038C18.4964 16.1149 18.5475 15.9096 18.5541 15.697L18.0543 15.6815ZM17.9545 16.0653L17.515 15.8268L17.4218 15.9986L17.8612 16.2371L18.3007 16.4756L18.3939 16.3038L17.9545 16.0653ZM17.8612 16.2371L17.4218 15.9986L17.3285 16.1704L17.768 16.4089L18.2074 16.6474L18.3007 16.4756L17.8612 16.2371ZM17.768 16.4089L17.3285 16.1704C17.3218 16.1828 17.3127 16.1958 17.2787 16.2113L17.4851 16.6667L17.6914 17.1221C17.9102 17.023 18.0898 16.8642 18.2074 16.6474L17.768 16.4089ZM17.4851 16.6667L17.2787 16.2113L17.089 16.2972L17.2954 16.7526L17.5018 17.2081L17.6914 17.1221L17.4851 16.6667ZM17.2954 16.7526L17.089 16.2972L16.8994 16.3832L17.1058 16.8386L17.3121 17.294L17.5018 17.2081L17.2954 16.7526ZM17.1058 16.8386L16.8994 16.3832C16.7239 16.4627 16.5648 16.5687 16.4295 16.7048L16.7841 17.0573L17.1388 17.4098C17.1794 17.3688 17.2348 17.3291 17.3121 17.294L17.1058 16.8386ZM16.7841 17.0573L16.4295 16.7048L16.2976 16.8376L16.6522 17.19L17.0068 17.5425L17.1388 17.4098L16.7841 17.0573ZM16.6522 17.19L16.2976 16.8376L16.1656 16.9703L16.5202 17.3228L16.8748 17.6753L17.0068 17.5425L16.6522 17.19ZM16.5202 17.3228L16.1656 16.9703C16.1215 17.0147 16.071 17.0497 16.0113 17.0764L16.2154 17.5329L16.4196 17.9893C16.5903 17.9129 16.743 17.8079 16.8748 17.6753L16.5202 17.3228ZM16.2154 17.5329L16.0113 17.0764L15.8385 17.1537L16.0426 17.6102L16.2467 18.0666L16.4196 17.9893L16.2154 17.5329ZM16.0426 17.6102L15.8385 17.1537L15.6656 17.231L15.8698 17.6874L16.0739 18.1439L16.2467 18.0666L16.0426 17.6102ZM15.8698 17.6874L15.6656 17.231C15.5269 17.2931 15.3946 17.3651 15.269 17.4472L15.5427 17.8656L15.8165 18.284C15.8965 18.2317 15.9822 18.1849 16.0739 18.1439L15.8698 17.6874ZM15.5427 17.8656L15.269 17.4472L15.1148 17.5481L15.3885 17.9665L15.6622 18.3849L15.8165 18.284L15.5427 17.8656ZM15.3885 17.9665L15.1148 17.5481L14.9606 17.649L15.2343 18.0674L15.508 18.4858L15.6622 18.3849L15.3885 17.9665ZM15.2343 18.0674L14.9606 17.649C14.8839 17.6991 14.8034 17.7416 14.7187 17.7767L14.9096 18.2387L15.1006 18.7008C15.2431 18.6419 15.379 18.5702 15.508 18.4858L15.2343 18.0674ZM14.9096 18.2387L14.7187 17.7767L14.5482 17.8471L14.7392 18.3092L14.9302 18.7713L15.1006 18.7008L14.9096 18.2387ZM14.7392 18.3092L14.5482 17.8471L14.3778 17.9175L14.5688 18.3796L14.7598 18.8417L14.9302 18.7713L14.7392 18.3092ZM14.5688 18.3796L14.3778 17.9175C14.3092 17.9459 14.2379 17.9639 14.1623 17.9717L14.2135 18.4691L14.2646 18.9664C14.4355 18.9489 14.6011 18.9073 14.7598 18.8417L14.5688 18.3796ZM14.2135 18.4691L14.1623 17.9717L13.9774 17.9907L14.0285 18.4881L14.0797 18.9854L14.2646 18.9664L14.2135 18.4691ZM14.0285 18.4881L13.9774 17.9907L13.7925 18.0097L13.8436 18.5071L13.8948 19.0044L14.0797 18.9854L14.0285 18.4881ZM13.8436 18.5071L13.7925 18.0097C13.5663 18.0329 13.3636 18.1223 13.1893 18.2569L13.4949 18.6526L13.8006 19.0483C13.8447 19.0142 13.8744 19.0065 13.8948 19.0044L13.8436 18.5071ZM13.4949 18.6526L13.1893 18.2569L13.0255 18.3834L13.3311 18.7791L13.6368 19.1748L13.8006 19.0483L13.4949 18.6526ZM13.3311 18.7791L13.0255 18.3834L12.8617 18.5099L13.1673 18.9056L13.4729 19.3013L13.6368 19.1748L13.3311 18.7791ZM13.1673 18.9056L12.8617 18.5099C12.8237 18.5393 12.7992 18.5447 12.7807 18.5459L12.814 19.0448L12.8472 19.5437C13.0815 19.5281 13.2926 19.4407 13.4729 19.3013L13.1673 18.9056ZM12.814 19.0448L12.7807 18.5459L12.5912 18.5585L12.6245 19.0574L12.6577 19.5563L12.8472 19.5437L12.814 19.0448ZM12.6245 19.0574L12.5912 18.5585L12.4017 18.5712L12.4349 19.07L12.4682 19.5689L12.6577 19.5563L12.6245 19.0574ZM12.4349 19.07L12.4017 18.5712C12.2463 18.5815 12.0911 18.6054 11.9363 18.6422L12.0519 19.1287L12.1676 19.6151C12.2707 19.5906 12.3708 19.5754 12.4682 19.5689L12.4349 19.07ZM12.0519 19.1287L11.9363 18.6422L11.7428 18.6882L11.8585 19.1746L11.9741 19.6611L12.1676 19.6151L12.0519 19.1287ZM11.8585 19.1746L11.7428 18.6882L11.5494 18.7342L11.665 19.2206L11.7806 19.7071L11.9741 19.6611L11.8585 19.1746ZM11.665 19.2206L11.5494 18.7342C11.5478 18.7346 11.5487 18.7342 11.5518 18.7341C11.5549 18.734 11.5586 18.7342 11.5623 18.7349C11.564 18.7352 11.5654 18.7355 11.5665 18.7358C11.5675 18.7361 11.5681 18.7363 11.568 18.7363C11.5679 18.7363 11.565 18.7351 11.5593 18.7315L11.2937 19.1552L11.0282 19.5788C11.2533 19.7199 11.5135 19.7706 11.7806 19.7071L11.665 19.2206ZM11.2937 19.1552L11.5593 18.7315L11.3815 18.6201L11.116 19.0437L10.8504 19.4674L11.0282 19.5788L11.2937 19.1552ZM11.116 19.0437L11.3815 18.6201L11.2037 18.5086L10.9382 18.9323L10.6726 19.3559L10.8504 19.4674L11.116 19.0437ZM10.9382 18.9323L11.2037 18.5086C10.99 18.3747 10.7468 18.3182 10.4928 18.3523L10.5593 18.8478L10.6258 19.3434C10.6399 19.3415 10.6493 19.3413 10.6726 19.3559L10.9382 18.9323ZM10.5593 18.8478L10.4928 18.3523L10.2917 18.3793L10.3582 18.8748L10.4247 19.3704L10.6258 19.3434L10.5593 18.8478ZM10.3582 18.8748L10.2917 18.3793L10.0906 18.4063L10.1571 18.9018L10.2236 19.3974L10.4247 19.3704L10.3582 18.8748ZM10.1571 18.9018L10.0906 18.4063C10.0469 18.4121 10.0192 18.4059 9.99419 18.3941L9.78111 18.8464L9.56804 19.2987C9.77614 19.3968 9.99909 19.4275 10.2236 19.3974L10.1571 18.9018ZM9.78111 18.8464L9.99419 18.3941L9.81931 18.3117L9.60624 18.764L9.39316 19.2164L9.56804 19.2987L9.78111 18.8464ZM9.60624 18.764L9.81931 18.3117L9.64444 18.2293L9.43136 18.6817L9.21829 19.134L9.39316 19.2164L9.60624 18.764ZM9.43136 18.6817L9.64444 18.2293C9.59024 18.2038 9.53958 18.167 9.49133 18.1138L9.12078 18.4495L8.75023 18.7852C8.88293 18.9317 9.03932 19.0497 9.21829 19.134L9.43136 18.6817ZM9.12078 18.4495L9.49133 18.1138L9.35563 17.964L8.98508 18.2997L8.61452 18.6354L8.75023 18.7852L9.12078 18.4495ZM8.98508 18.2997L9.35563 17.964L9.21992 17.8142L8.84937 18.1499L8.47882 18.4856L8.61452 18.6354L8.98508 18.2997ZM8.84937 18.1499L9.21992 17.8142C9.10455 17.6868 8.97758 17.5751 8.8382 17.4825L8.56134 17.8988L8.28449 18.3152C8.3482 18.3575 8.41325 18.4132 8.47882 18.4856L8.84937 18.1499ZM8.56134 17.8988L8.8382 17.4825L8.68587 17.3812L8.40901 17.7975L8.13216 18.2139L8.28449 18.3152L8.56134 17.8988ZM8.40901 17.7975L8.68587 17.3812L8.53354 17.2799L8.25669 17.6962L7.97983 18.1126L8.13216 18.2139L8.40901 17.7975ZM8.25669 17.6962L8.53354 17.2799C8.41824 17.2032 8.29855 17.1318 8.17459 17.0657L7.93932 17.5069L7.70405 17.9481C7.80014 17.9994 7.89203 18.0542 7.97983 18.1126L8.25669 17.6962ZM7.93932 17.5069L8.17459 17.0657L8.00956 16.9777L7.77429 17.4189L7.53902 17.8601L7.70405 17.9481L7.93932 17.5069ZM7.77429 17.4189L8.00956 16.9777L7.84452 16.8897L7.60925 17.3309L7.37398 17.7721L7.53902 17.8601L7.77429 17.4189ZM7.60925 17.3309L7.84452 16.8897C7.77684 16.8536 7.71688 16.8095 7.66328 16.7565L7.31196 17.1123L6.96063 17.4681C7.08338 17.5893 7.22162 17.6909 7.37398 17.7721L7.60925 17.3309ZM7.31196 17.1123L7.66328 16.7565L7.53102 16.6259L7.17969 16.9817L6.82837 17.3375L6.96063 17.4681L7.31196 17.1123ZM7.17969 16.9817L7.53102 16.6259L7.39876 16.4953L7.04743 16.8511L6.6961 17.2068L6.82837 17.3375L7.17969 16.9817ZM7.04743 16.8511L7.39876 16.4953C7.33978 16.4371 7.28888 16.3727 7.24553 16.3014L6.81833 16.5612L6.39113 16.821C6.4769 16.9621 6.57873 17.0909 6.6961 17.2068L7.04743 16.8511ZM6.81833 16.5612L7.24553 16.3014L7.14869 16.1422L6.72149 16.402L6.29429 16.6618L6.39113 16.821L6.81833 16.5612ZM6.72149 16.402L7.14869 16.1422L7.05185 15.983L6.62465 16.2428L6.19745 16.5026L6.29429 16.6618L6.72149 16.402ZM6.62465 16.2428L7.05185 15.983C6.92602 15.7761 6.74154 15.6315 6.53372 15.5364L6.32573 15.9911L6.11775 16.4458C6.17937 16.474 6.19416 16.4972 6.19745 16.5026L6.62465 16.2428ZM6.32573 15.9911L6.53372 15.5364L6.33164 15.444L6.12366 15.8987L5.91567 16.3533L6.11775 16.4458L6.32573 15.9911ZM6.12366 15.8987L6.33164 15.444L6.12957 15.3515L5.92158 15.8062L5.71359 16.2609L5.91567 16.3533L6.12366 15.8987ZM5.92158 15.8062L6.12957 15.3515C6.14377 15.358 6.1969 15.3888 6.23191 15.4617C6.26481 15.5301 6.25427 15.5791 6.25547 15.5728L5.76435 15.479L5.27324 15.3852C5.24454 15.5354 5.24525 15.7172 5.33056 15.8948C5.41798 16.0767 5.56467 16.1928 5.71359 16.2609L5.92158 15.8062ZM5.76435 15.479L6.25547 15.5728L6.30033 15.3381L5.80921 15.2442L5.31809 15.1504L5.27324 15.3852L5.76435 15.479ZM5.80921 15.2442L6.30033 15.3381L6.34518 15.1033L5.85406 15.0095L5.36294 14.9156L5.31809 15.1504L5.80921 15.2442ZM5.85406 15.0095L6.34518 15.1033C6.37493 14.9476 6.3701 14.7712 6.29323 14.5991C6.2162 14.4267 6.08759 14.3052 5.95045 14.2237L5.69502 14.6535L5.43959 15.0834C5.43979 15.0835 5.43092 15.0782 5.41846 15.0651C5.40545 15.0514 5.39131 15.0319 5.38023 15.0071C5.35637 14.9537 5.3631 14.9148 5.36294 14.9156L5.85406 15.0095ZM5.69502 14.6535L5.95045 14.2237L5.74655 14.1025L5.49113 14.5324L5.2357 14.9622L5.43959 15.0834L5.69502 14.6535ZM5.49113 14.5324L5.74655 14.1025L5.54266 13.9814L5.28723 14.4112L5.0318 14.841L5.2357 14.9622L5.49113 14.5324ZM5.28723 14.4112L5.54266 13.9814C5.53723 13.9782 5.57809 14.0011 5.60686 14.0669C5.63754 14.1369 5.62803 14.1946 5.62363 14.2107L5.14147 14.0783L4.65931 13.9459C4.61615 14.1031 4.61156 14.2869 4.69082 14.4679C4.76818 14.6446 4.9013 14.7635 5.0318 14.841L5.28723 14.4112ZM5.14147 14.0783L5.62363 14.2107L5.68176 13.9989L5.1996 13.8666L4.71744 13.7342L4.65931 13.9459L5.14147 14.0783ZM5.1996 13.8666L5.68176 13.9989L5.73989 13.7872L5.25773 13.6548L4.77558 13.5224L4.71744 13.7342L5.1996 13.8666ZM5.25773 13.6548L5.73989 13.7872C5.79456 13.5881 5.81271 13.3809 5.77542 13.174L5.28335 13.2627L4.79128 13.3514C4.79734 13.385 4.79842 13.4392 4.77558 13.5224L5.25773 13.6548ZM5.28335 13.2627L5.77542 13.174L5.7429 12.9936L5.25083 13.0823L4.75876 13.171L4.79128 13.3514L5.28335 13.2627ZM5.25083 13.0823L5.7429 12.9936L5.71038 12.8131L5.21831 12.9018L4.72624 12.9906L4.75876 13.171L5.25083 13.0823ZM5.21831 12.9018L5.71038 12.8131C5.69397 12.7221 5.68579 12.6306 5.68578 12.5381L5.18578 12.5382L4.68578 12.5382C4.68579 12.6901 4.69928 12.841 4.72624 12.9906L5.21831 12.9018ZM5.18578 12.5382L5.68578 12.5381L5.68578 12.3549L5.18578 12.3549L4.68578 12.3549L4.68578 12.5382L5.18578 12.5382ZM5.18578 12.3549L5.68578 12.3549L5.68578 12.1716L5.18578 12.1716L4.68578 12.1716L4.68578 12.3549L5.18578 12.3549ZM5.18578 12.1716L5.68578 12.1716C5.68578 11.9532 5.62409 11.7476 5.5251 11.5602L5.08303 11.7938L4.64095 12.0274C4.67897 12.0994 4.68578 12.1456 4.68578 12.1716L5.18578 12.1716ZM5.08303 11.7938L5.5251 11.5602L5.42236 11.3658L4.98028 11.5994L4.5382 11.833L4.64095 12.0274L5.08303 11.7938ZM4.98028 11.5994L5.42236 11.3658L5.31961 11.1713L4.87753 11.4049L4.43545 11.6385L4.5382 11.833L4.98028 11.5994ZM4.87753 11.4049L5.31961 11.1713C5.31515 11.1629 5.31353 11.1582 5.31316 11.157C5.31283 11.156 5.31355 11.158 5.31401 11.1625C5.31449 11.1672 5.3145 11.1727 5.31381 11.1785C5.31312 11.1842 5.31196 11.1882 5.31134 11.19L4.83914 11.0256L4.36693 10.8612C4.27252 11.1324 4.31095 11.4029 4.43545 11.6385L4.87753 11.4049ZM4.83914 11.0256L5.31134 11.19L5.3757 11.0051L4.90349 10.8407L4.43128 10.6764L4.36693 10.8612L4.83914 11.0256ZM4.90349 10.8407L5.3757 11.0051L5.44005 10.8202L4.96785 10.6559L4.49564 10.4915L4.43128 10.6764L4.90349 10.8407ZM4.96785 10.6559L5.44005 10.8202C5.48461 10.6923 5.52672 10.5651 5.56637 10.4387L5.0893 10.289L4.61223 10.1393C4.57575 10.2556 4.53689 10.373 4.49564 10.4915L4.96785 10.6559ZM5.0893 10.289L5.56637 10.4387L5.62347 10.2567L5.1464 10.107L4.66933 9.95732L4.61223 10.1393L5.0893 10.289ZM5.1464 10.107L5.62347 10.2567L5.68057 10.0747L5.2035 9.925L4.72643 9.77533L4.66933 9.95732L5.1464 10.107ZM5.2035 9.925L5.68057 10.0747C5.71345 9.96991 5.75157 9.86745 5.79494 9.76724L5.33609 9.56862L4.87723 9.37001C4.81996 9.50231 4.76969 9.63744 4.72643 9.77533L5.2035 9.925ZM5.33609 9.56862L5.79494 9.76724L5.87043 9.59285L5.41157 9.39424L4.95271 9.19562L4.87723 9.37001L5.33609 9.56862ZM5.41157 9.39424L5.87043 9.59285L5.94591 9.41847L5.48705 9.21985L5.02819 9.02123L4.95271 9.19562L5.41157 9.39424ZM5.48705 9.21985L5.94591 9.41847C5.95839 9.38963 5.97966 9.35902 6.02462 9.32582L5.72765 8.92356L5.43069 8.52131C5.25549 8.65064 5.11636 8.81755 5.02819 9.02123L5.48705 9.21985ZM5.72765 8.92356L6.02462 9.32582L6.18974 9.20392L5.89277 8.80166L5.59581 8.39941L5.43069 8.52131L5.72765 8.92356ZM5.89277 8.80166L6.18974 9.20392L6.35486 9.08202L6.05789 8.67976L5.76093 8.27751L5.59581 8.39941L5.89277 8.80166ZM6.05789 8.67976L6.35486 9.08202C6.55436 8.93474 6.6952 8.73224 6.75509 8.48558L6.2692 8.36761L5.78332 8.24965C5.78144 8.25738 5.77973 8.25976 5.77923 8.26048C5.77855 8.2615 5.77436 8.26759 5.76093 8.27751L6.05789 8.67976ZM6.2692 8.36761L6.75509 8.48558L6.80128 8.29533L6.31539 8.17736L5.82951 8.0594L5.78332 8.24965L6.2692 8.36761ZM6.31539 8.17736L6.80128 8.29533L6.84747 8.10508L6.36158 7.98712L5.8757 7.86915L5.82951 8.0594L6.31539 8.17736ZM6.36158 7.98712L6.84747 8.10508C6.858 8.0617 6.87443 8.0353 6.89559 8.01376L6.53888 7.66339L6.18217 7.31302C6.02852 7.46945 5.92675 7.65886 5.8757 7.86915L6.36158 7.98712ZM6.53888 7.66339L6.89559 8.01376L7.02669 7.88028L6.66998 7.52991L6.31327 7.17955L6.18217 7.31302L6.53888 7.66339ZM6.66998 7.52991L7.02669 7.88028L7.15779 7.74681L6.80108 7.39644L6.44437 7.04607L6.31327 7.17955L6.66998 7.52991ZM6.80108 7.39644L7.15779 7.74681C7.28619 7.61608 7.38972 7.46535 7.47023 7.29914L7.02025 7.08116L6.57026 6.86319C6.53335 6.93938 6.49077 6.99883 6.44437 7.04607L6.80108 7.39644ZM7.02025 7.08116L7.47023 7.29914L7.5583 7.11734L7.10831 6.89936L6.65832 6.68139L6.57026 6.86319L7.02025 7.08116ZM7.10831 6.89936L7.5583 7.11734L7.64636 6.93554L7.19637 6.71757L6.74639 6.49959L6.65832 6.68139L7.10831 6.89936ZM7.19637 6.71757L7.64636 6.93554C7.67423 6.878 7.70822 6.83667 7.74841 6.80438L7.43523 6.41461L7.12205 6.02484C6.96118 6.15409 6.83594 6.31473 6.74639 6.49959L7.19637 6.71757ZM7.43523 6.41461L7.74841 6.80438L7.8992 6.68322L7.58602 6.29345L7.27285 5.90368L7.12205 6.02484L7.43523 6.41461ZM7.58602 6.29345L7.8992 6.68322L8.04999 6.56206L7.73681 6.17229L7.42364 5.78252L7.27285 5.90368L7.58602 6.29345ZM7.73681 6.17229L8.04999 6.56206C8.08369 6.53498 8.12426 6.51488 8.18105 6.504L8.08696 6.01293L7.99288 5.52186C7.78386 5.56191 7.591 5.64804 7.42364 5.78252L7.73681 6.17229ZM8.08696 6.01293L8.18105 6.504L8.38041 6.46581L8.28632 5.97474L8.19224 5.48367L7.99288 5.52186L8.08696 6.01293ZM8.28632 5.97474L8.38041 6.46581L8.57976 6.42761L8.48568 5.93654L8.3916 5.44547L8.19224 5.48367L8.28632 5.97474ZM8.48568 5.93654L8.57976 6.42761C8.79732 6.38593 8.99531 6.29137 9.16289 6.14366L8.83228 5.76857L8.50167 5.39347C8.47293 5.41881 8.43985 5.43623 8.3916 5.44547L8.48568 5.93654ZM8.83228 5.76857L9.16289 6.14366L9.31014 6.01388L8.97953 5.63878L8.64892 5.26369L8.50167 5.39347L8.83228 5.76857ZM8.97953 5.63878L9.31014 6.01388L9.45738 5.8841L9.12677 5.509L8.79616 5.13391L8.64892 5.26369L8.97953 5.63878ZM9.12677 5.509L9.45738 5.8841C9.46597 5.87652 9.47048 5.87474 9.47151 5.87433C9.47256 5.87391 9.47752 5.87194 9.48991 5.87148L9.47118 5.37183L9.45245 4.87218C9.20645 4.8814 8.98131 4.97072 8.79616 5.13391L9.12677 5.509ZM9.47118 5.37183L9.48991 5.87148L9.68707 5.86409L9.66834 5.36444L9.64961 4.86479L9.45245 4.87218L9.47118 5.37183ZM9.66834 5.36444L9.68707 5.86409L9.88423 5.8567L9.8655 5.35705L9.84677 4.8574L9.64961 4.86479L9.66834 5.36444ZM9.8655 5.35705L9.88423 5.8567C10.1046 5.84844 10.3119 5.78356 10.498 5.66648L10.2318 5.24325L9.9656 4.82002C9.92617 4.84482 9.88926 4.85581 9.84677 4.8574L9.8655 5.35705ZM10.2318 5.24325L10.498 5.66648L10.6672 5.56008L10.401 5.13685L10.1348 4.71362L9.9656 4.82002L10.2318 5.24325ZM10.401 5.13685L10.6672 5.56008L10.8364 5.45367L10.5701 5.03044L10.3039 4.60721L10.1348 4.71362L10.401 5.13685ZM10.5701 5.03044L10.8364 5.45367C10.8298 5.45781 10.8108 5.46695 10.7838 5.46897C10.7581 5.4709 10.7456 5.46481 10.7521 5.46741L10.9372 5.00295L11.1224 4.53849C10.8536 4.43132 10.5621 4.44481 10.3039 4.60721L10.5701 5.03044ZM10.9372 5.00295L10.7521 5.46741L10.9501 5.54632L11.1352 5.08186L11.3204 4.61741L11.1224 4.53849L10.9372 5.00295ZM11.1352 5.08186L10.9501 5.54632L11.148 5.62523L11.3332 5.16078L11.5183 4.69632L11.3204 4.61741L11.1352 5.08186ZM11.3332 5.16078L11.148 5.62523C11.2983 5.68515 11.4723 5.73918 11.6439 5.74072L11.6483 5.24074L11.6528 4.74076C11.6657 4.74087 11.6614 4.74256 11.6339 4.73558C11.6078 4.72897 11.5699 4.71687 11.5183 4.69632L11.3332 5.16078ZM11.6483 5.24074L11.6439 5.74072L11.7611 5.74176L11.7656 5.24178L11.77 4.7418L11.6528 4.74076L11.6483 5.24074ZM11.7656 5.24178L11.7611 5.74176L11.8783 5.74281L11.8828 5.24283L11.8872 4.74285L11.77 4.7418L11.7656 5.24178ZM11.8828 5.24283L11.8783 5.74281C11.9442 5.7434 12.0708 5.73874 12.1983 5.67357C12.2695 5.63714 12.3509 5.57657 12.4129 5.4804C12.4763 5.3821 12.5 5.27656 12.5 5.18291H12H11.5C11.5 5.10958 11.5188 5.02178 11.5724 4.93863C11.6246 4.85761 11.6914 4.80961 11.7431 4.78317C11.7924 4.75797 11.8333 4.74932 11.8529 4.7461C11.8738 4.74267 11.8865 4.74284 11.8872 4.74285L11.8828 5.24283ZM12 5.18291H12.5V5.12194H12H11.5V5.18291H12ZM12 5.12194H12.5V5.06097H12H11.5V5.12194H12ZM12 5.06097H12.5C12.5 5.19712 12.4393 5.33285 12.3272 5.42408C12.2374 5.49722 12.1493 5.51336 12.1224 5.51751C12.0686 5.52582 12.0477 5.51602 12.0983 5.52492L12.1848 5.03246L12.2713 4.54C12.1987 4.52725 12.0854 4.51139 11.97 4.5292C11.9123 4.53811 11.8011 4.56289 11.6959 4.64857C11.5684 4.75233 11.5 4.90449 11.5 5.06097H12ZM12.1848 5.03246L12.0983 5.52492L12.2831 5.55738L12.3696 5.06492L12.4561 4.57245L12.2713 4.54L12.1848 5.03246Z" fill="#FF5053"/>
<circle cx="12" cy="22" r="1" fill="#FF5053" fill-opacity="0.960784"/>
<path d="M12.7001 22.4192L13.1067 22.7102L12.7001 22.4192ZM12.4644 22.6201L12.2589 22.1643L12.4644 22.6201ZM12.3287 22.6813L12.1232 22.2255L12.3287 22.6813ZM12.193 22.7425L12.3985 23.1983L12.193 22.7425ZM11.8874 22.7955L11.8634 23.2949L11.8874 22.7955ZM11.1743 22.2885L10.7135 22.4827L11.1743 22.2885ZM11.1518 21.1529L10.8911 20.7262L11.1518 21.1529ZM11.9659 20.825L11.8968 21.3202L11.9659 20.825ZM12.1919 20.8566L12.261 20.3614L12.1919 20.8566ZM12.418 20.8881L12.3489 21.3833L12.418 20.8881ZM12.7068 21.1245L12.2288 21.271L12.7068 21.1245ZM12.9213 21.8044L13.3852 21.6179L12.9213 21.8044ZM12.9738 21.9348L13.4377 21.7483L12.9738 21.9348ZM12.9 22.1397L12.4934 21.8488L12.9 22.1397ZM12.8 22.2795L12.3934 21.9885L12.2934 22.1283L12.7001 22.4192L13.1067 22.7102L13.2067 22.5704L12.8 22.2795ZM12.7001 22.4192L12.2934 22.1283C12.2812 22.1453 12.2719 22.1544 12.2668 22.1588C12.2619 22.1629 12.2594 22.164 12.2589 22.1643L12.4644 22.6201L12.6699 23.0759C12.8525 22.9936 12.9967 22.8638 13.1067 22.7102L12.7001 22.4192ZM12.4644 22.6201L12.2589 22.1643L12.1232 22.2255L12.3287 22.6813L12.5342 23.1371L12.6699 23.0759L12.4644 22.6201ZM12.3287 22.6813L12.1232 22.2255L11.9875 22.2866L12.193 22.7425L12.3985 23.1983L12.5342 23.1371L12.3287 22.6813ZM12.193 22.7425L11.9875 22.2866C11.9787 22.2906 11.9571 22.2983 11.9113 22.2961L11.8874 22.7955L11.8634 23.2949C12.0442 23.3036 12.2264 23.2759 12.3985 23.1983L12.193 22.7425ZM11.8874 22.7955L11.9113 22.2961L11.7414 22.2879L11.7175 22.7874L11.6935 23.2868L11.8634 23.2949L11.8874 22.7955ZM11.7175 22.7874L11.7414 22.2879L11.5715 22.2798L11.5475 22.7792L11.5236 23.2786L11.6935 23.2868L11.7175 22.7874ZM11.5475 22.7792L11.5715 22.2798C11.5942 22.2809 11.6422 22.2894 11.6929 22.3254C11.7427 22.3608 11.7643 22.4011 11.7706 22.4161L11.3098 22.6102L10.8491 22.8044C10.9006 22.9266 10.9843 23.0486 11.1134 23.1404C11.2433 23.2327 11.3876 23.2721 11.5236 23.2786L11.5475 22.7792ZM11.3098 22.6102L11.7706 22.4161L11.7028 22.2552L11.2421 22.4494L10.7813 22.6435L10.8491 22.8044L11.3098 22.6102ZM11.2421 22.4494L11.7028 22.2552L11.635 22.0944L11.1743 22.2885L10.7135 22.4827L10.7813 22.6435L11.2421 22.4494ZM11.1743 22.2885L11.635 22.0944C11.6074 22.0288 11.5814 21.9413 11.5612 21.8271L11.0688 21.9139L10.5764 22.0007C10.6065 22.1715 10.6508 22.3338 10.7135 22.4827L11.1743 22.2885ZM11.0688 21.9139L11.5612 21.8271L11.5236 21.6134L11.0312 21.7001L10.5388 21.7869L10.5764 22.0007L11.0688 21.9139ZM11.0312 21.7001L11.5236 21.6134L11.4859 21.3996L10.9935 21.4864L10.5011 21.5732L10.5388 21.7869L11.0312 21.7001ZM10.9935 21.4864L11.4859 21.3996C11.4881 21.4121 11.4915 21.4568 11.466 21.5105C11.4415 21.562 11.4099 21.5811 11.4126 21.5795L11.1518 21.1529L10.8911 20.7262C10.7631 20.8045 10.6398 20.9191 10.5626 21.0817C10.4843 21.2467 10.4738 21.4182 10.5011 21.5732L10.9935 21.4864ZM11.1518 21.1529L11.4126 21.5795L11.6086 21.4597L11.3478 21.0331L11.0871 20.6064L10.8911 20.7262L11.1518 21.1529ZM11.3478 21.0331L11.6086 21.4597L11.8046 21.3399L11.5438 20.9133L11.283 20.4867L11.0871 20.6064L11.3478 21.0331ZM11.5438 20.9133L11.8046 21.3399C11.8372 21.32 11.8614 21.3153 11.8968 21.3202L11.9659 20.825L12.0349 20.3298C11.7689 20.2927 11.5117 20.3469 11.283 20.4867L11.5438 20.9133ZM11.9659 20.825L11.8968 21.3202L12.1229 21.3518L12.1919 20.8566L12.261 20.3614L12.0349 20.3298L11.9659 20.825ZM12.1919 20.8566L12.1229 21.3518L12.3489 21.3833L12.418 20.8881L12.4871 20.3929L12.261 20.3614L12.1919 20.8566ZM12.418 20.8881L12.3489 21.3833C12.3536 21.384 12.3238 21.3803 12.2865 21.3499C12.2475 21.3179 12.2323 21.2826 12.2288 21.271L12.7068 21.1245L13.1849 20.9781C13.1395 20.8298 13.0553 20.6868 12.9199 20.5761C12.7864 20.4668 12.6331 20.4132 12.4871 20.3929L12.418 20.8881ZM12.7068 21.1245L12.2288 21.271L12.2915 21.4759L12.7696 21.3294L13.2477 21.183L13.1849 20.9781L12.7068 21.1245ZM12.7696 21.3294L12.2915 21.4759L12.3543 21.6808L12.8324 21.5343L13.3104 21.3879L13.2477 21.183L12.7696 21.3294ZM12.8324 21.5343L12.3543 21.6808C12.395 21.8137 12.4307 21.9244 12.4574 21.9909L12.9213 21.8044L13.3852 21.6179C13.3771 21.5975 13.3534 21.5281 13.3104 21.3879L12.8324 21.5343ZM12.9213 21.8044L12.4574 21.9909L12.4837 22.0561L12.9476 21.8696L13.4115 21.6831L13.3852 21.6179L12.9213 21.8044ZM12.9476 21.8696L12.4837 22.0561L12.5099 22.1213L12.9738 21.9348L13.4377 21.7483L13.4115 21.6831L12.9476 21.8696ZM12.9738 21.9348L12.5099 22.1213C12.4534 21.9809 12.4907 21.8697 12.498 21.8493C12.5076 21.8227 12.5135 21.8207 12.4934 21.8488L12.9 22.1397L13.3067 22.4307C13.3532 22.3656 13.4047 22.2829 13.4389 22.188C13.4708 22.0992 13.5116 21.9321 13.4377 21.7483L12.9738 21.9348ZM12.9 22.1397L12.4934 21.8488L12.3934 21.9885L12.8 22.2795L13.2067 22.5704L13.3067 22.4307L12.9 22.1397Z" fill="#FF5053" fill-opacity="0.960784"/>
<circle cx="19" cy="19" r="1" fill="#FF5053"/>
<path d="M19.7001 19.4192L20.1067 19.7102L19.7001 19.4192ZM19.4644 19.6201L19.2589 19.1643L19.4644 19.6201ZM19.3287 19.6813L19.1232 19.2255L19.3287 19.6813ZM19.193 19.7425L19.3985 20.1983L19.193 19.7425ZM18.8874 19.7955L18.8634 20.2949L18.8874 19.7955ZM18.1743 19.2885L17.7135 19.4827L18.1743 19.2885ZM18.1518 18.1529L17.8911 17.7262L18.1518 18.1529ZM18.9659 17.825L18.8968 18.3202L18.9659 17.825ZM19.1919 17.8566L19.261 17.3614L19.1919 17.8566ZM19.418 17.8881L19.3489 18.3833L19.418 17.8881ZM19.7068 18.1245L19.2288 18.271L19.7068 18.1245ZM19.9213 18.8044L20.3852 18.6179L19.9213 18.8044ZM19.9738 18.9348L20.4377 18.7483L19.9738 18.9348ZM19.9 19.1397L19.4934 18.8488L19.9 19.1397ZM19.8 19.2795L19.3934 18.9885L19.2934 19.1283L19.7001 19.4192L20.1067 19.7102L20.2067 19.5704L19.8 19.2795ZM19.7001 19.4192L19.2934 19.1283C19.2812 19.1453 19.2719 19.1544 19.2668 19.1588C19.2619 19.1629 19.2594 19.164 19.2589 19.1643L19.4644 19.6201L19.6699 20.0759C19.8525 19.9936 19.9967 19.8638 20.1067 19.7102L19.7001 19.4192ZM19.4644 19.6201L19.2589 19.1643L19.1232 19.2255L19.3287 19.6813L19.5342 20.1371L19.6699 20.0759L19.4644 19.6201ZM19.3287 19.6813L19.1232 19.2255L18.9875 19.2866L19.193 19.7425L19.3985 20.1983L19.5342 20.1371L19.3287 19.6813ZM19.193 19.7425L18.9875 19.2866C18.9787 19.2906 18.9571 19.2983 18.9113 19.2961L18.8874 19.7955L18.8634 20.2949C19.0442 20.3036 19.2264 20.2759 19.3985 20.1983L19.193 19.7425ZM18.8874 19.7955L18.9113 19.2961L18.7414 19.2879L18.7175 19.7874L18.6935 20.2868L18.8634 20.2949L18.8874 19.7955ZM18.7175 19.7874L18.7414 19.2879L18.5715 19.2798L18.5475 19.7792L18.5236 20.2786L18.6935 20.2868L18.7175 19.7874ZM18.5475 19.7792L18.5715 19.2798C18.5942 19.2809 18.6422 19.2894 18.6929 19.3254C18.7427 19.3608 18.7643 19.4011 18.7706 19.4161L18.3098 19.6102L17.8491 19.8044C17.9006 19.9266 17.9843 20.0486 18.1134 20.1404C18.2433 20.2327 18.3876 20.2721 18.5236 20.2786L18.5475 19.7792ZM18.3098 19.6102L18.7706 19.4161L18.7028 19.2552L18.2421 19.4494L17.7813 19.6435L17.8491 19.8044L18.3098 19.6102ZM18.2421 19.4494L18.7028 19.2552L18.635 19.0944L18.1743 19.2885L17.7135 19.4827L17.7813 19.6435L18.2421 19.4494ZM18.1743 19.2885L18.635 19.0944C18.6074 19.0288 18.5814 18.9413 18.5612 18.8271L18.0688 18.9139L17.5764 19.0007C17.6065 19.1715 17.6508 19.3338 17.7135 19.4827L18.1743 19.2885ZM18.0688 18.9139L18.5612 18.8271L18.5236 18.6134L18.0312 18.7001L17.5388 18.7869L17.5764 19.0007L18.0688 18.9139ZM18.0312 18.7001L18.5236 18.6134L18.4859 18.3996L17.9935 18.4864L17.5011 18.5732L17.5388 18.7869L18.0312 18.7001ZM17.9935 18.4864L18.4859 18.3996C18.4881 18.4121 18.4915 18.4568 18.466 18.5105C18.4415 18.562 18.4099 18.5811 18.4126 18.5795L18.1518 18.1529L17.8911 17.7262C17.7631 17.8045 17.6398 17.9191 17.5626 18.0817C17.4843 18.2467 17.4738 18.4182 17.5011 18.5732L17.9935 18.4864ZM18.1518 18.1529L18.4126 18.5795L18.6086 18.4597L18.3478 18.0331L18.0871 17.6064L17.8911 17.7262L18.1518 18.1529ZM18.3478 18.0331L18.6086 18.4597L18.8046 18.3399L18.5438 17.9133L18.283 17.4867L18.0871 17.6064L18.3478 18.0331ZM18.5438 17.9133L18.8046 18.3399C18.8372 18.32 18.8614 18.3153 18.8968 18.3202L18.9659 17.825L19.0349 17.3298C18.7689 17.2927 18.5117 17.3469 18.283 17.4867L18.5438 17.9133ZM18.9659 17.825L18.8968 18.3202L19.1229 18.3518L19.1919 17.8566L19.261 17.3614L19.0349 17.3298L18.9659 17.825ZM19.1919 17.8566L19.1229 18.3518L19.3489 18.3833L19.418 17.8881L19.4871 17.3929L19.261 17.3614L19.1919 17.8566ZM19.418 17.8881L19.3489 18.3833C19.3536 18.384 19.3238 18.3803 19.2865 18.3499C19.2475 18.3179 19.2323 18.2826 19.2288 18.271L19.7068 18.1245L20.1849 17.9781C20.1395 17.8298 20.0553 17.6868 19.9199 17.5761C19.7864 17.4668 19.6331 17.4132 19.4871 17.3929L19.418 17.8881ZM19.7068 18.1245L19.2288 18.271L19.2915 18.4759L19.7696 18.3294L20.2477 18.183L20.1849 17.9781L19.7068 18.1245ZM19.7696 18.3294L19.2915 18.4759L19.3543 18.6808L19.8324 18.5343L20.3104 18.3879L20.2477 18.183L19.7696 18.3294ZM19.8324 18.5343L19.3543 18.6808C19.395 18.8137 19.4307 18.9244 19.4574 18.9909L19.9213 18.8044L20.3852 18.6179C20.3771 18.5975 20.3534 18.5281 20.3104 18.3879L19.8324 18.5343ZM19.9213 18.8044L19.4574 18.9909L19.4837 19.0561L19.9476 18.8696L20.4115 18.6831L20.3852 18.6179L19.9213 18.8044ZM19.9476 18.8696L19.4837 19.0561L19.5099 19.1213L19.9738 18.9348L20.4377 18.7483L20.4115 18.6831L19.9476 18.8696ZM19.9738 18.9348L19.5099 19.1213C19.4534 18.9809 19.4907 18.8697 19.498 18.8493C19.5076 18.8227 19.5135 18.8207 19.4934 18.8488L19.9 19.1397L20.3067 19.4307C20.3532 19.3656 20.4047 19.2829 20.4389 19.188C20.4708 19.0992 20.5116 18.9321 20.4377 18.7483L19.9738 18.9348ZM19.9 19.1397L19.4934 18.8488L19.3934 18.9885L19.8 19.2795L20.2067 19.5704L20.3067 19.4307L19.9 19.1397Z" fill="#FF5053" fill-opacity="0.960784"/>
<circle cx="22" cy="12" r="1" fill="#FF5053" fill-opacity="0.960784"/>
<path d="M22.7001 12.4192L23.1067 12.7102L22.7001 12.4192ZM22.4644 12.6201L22.2589 12.1643L22.4644 12.6201ZM22.3287 12.6813L22.1232 12.2255L22.3287 12.6813ZM22.193 12.7425L22.3985 13.1983L22.193 12.7425ZM21.8874 12.7955L21.8634 13.2949L21.8874 12.7955ZM21.1743 12.2885L20.7135 12.4827L21.1743 12.2885ZM21.1518 11.1529L20.8911 10.7262L21.1518 11.1529ZM21.9659 10.825L21.8968 11.3202L21.9659 10.825ZM22.1919 10.8566L22.261 10.3614L22.1919 10.8566ZM22.418 10.8881L22.3489 11.3833L22.418 10.8881ZM22.7068 11.1245L22.2288 11.271L22.7068 11.1245ZM22.9213 11.8044L23.3852 11.6179L22.9213 11.8044ZM22.9738 11.9348L23.4377 11.7483L22.9738 11.9348ZM22.9 12.1397L22.4934 11.8488L22.9 12.1397ZM22.8 12.2795L22.3934 11.9885L22.2934 12.1283L22.7001 12.4192L23.1067 12.7102L23.2067 12.5704L22.8 12.2795ZM22.7001 12.4192L22.2934 12.1283C22.2812 12.1453 22.2719 12.1544 22.2668 12.1588C22.2619 12.1629 22.2594 12.164 22.2589 12.1643L22.4644 12.6201L22.6699 13.0759C22.8525 12.9936 22.9967 12.8638 23.1067 12.7102L22.7001 12.4192ZM22.4644 12.6201L22.2589 12.1643L22.1232 12.2255L22.3287 12.6813L22.5342 13.1371L22.6699 13.0759L22.4644 12.6201ZM22.3287 12.6813L22.1232 12.2255L21.9875 12.2866L22.193 12.7425L22.3985 13.1983L22.5342 13.1371L22.3287 12.6813ZM22.193 12.7425L21.9875 12.2866C21.9787 12.2906 21.9571 12.2983 21.9113 12.2961L21.8874 12.7955L21.8634 13.2949C22.0442 13.3036 22.2264 13.2759 22.3985 13.1983L22.193 12.7425ZM21.8874 12.7955L21.9113 12.2961L21.7414 12.2879L21.7175 12.7874L21.6935 13.2868L21.8634 13.2949L21.8874 12.7955ZM21.7175 12.7874L21.7414 12.2879L21.5715 12.2798L21.5475 12.7792L21.5236 13.2786L21.6935 13.2868L21.7175 12.7874ZM21.5475 12.7792L21.5715 12.2798C21.5942 12.2809 21.6422 12.2894 21.6929 12.3254C21.7427 12.3608 21.7643 12.4011 21.7706 12.4161L21.3098 12.6102L20.8491 12.8044C20.9006 12.9266 20.9843 13.0486 21.1134 13.1404C21.2433 13.2327 21.3876 13.2721 21.5236 13.2786L21.5475 12.7792ZM21.3098 12.6102L21.7706 12.4161L21.7028 12.2552L21.2421 12.4494L20.7813 12.6435L20.8491 12.8044L21.3098 12.6102ZM21.2421 12.4494L21.7028 12.2552L21.635 12.0944L21.1743 12.2885L20.7135 12.4827L20.7813 12.6435L21.2421 12.4494ZM21.1743 12.2885L21.635 12.0944C21.6074 12.0288 21.5814 11.9413 21.5612 11.8271L21.0688 11.9139L20.5764 12.0007C20.6065 12.1715 20.6508 12.3338 20.7135 12.4827L21.1743 12.2885ZM21.0688 11.9139L21.5612 11.8271L21.5236 11.6134L21.0312 11.7001L20.5388 11.7869L20.5764 12.0007L21.0688 11.9139ZM21.0312 11.7001L21.5236 11.6134L21.4859 11.3996L20.9935 11.4864L20.5011 11.5732L20.5388 11.7869L21.0312 11.7001ZM20.9935 11.4864L21.4859 11.3996C21.4881 11.4121 21.4915 11.4568 21.466 11.5105C21.4415 11.562 21.4099 11.5811 21.4126 11.5795L21.1518 11.1529L20.8911 10.7262C20.7631 10.8045 20.6398 10.9191 20.5626 11.0817C20.4843 11.2467 20.4738 11.4182 20.5011 11.5732L20.9935 11.4864ZM21.1518 11.1529L21.4126 11.5795L21.6086 11.4597L21.3478 11.0331L21.0871 10.6064L20.8911 10.7262L21.1518 11.1529ZM21.3478 11.0331L21.6086 11.4597L21.8046 11.3399L21.5438 10.9133L21.283 10.4867L21.0871 10.6064L21.3478 11.0331ZM21.5438 10.9133L21.8046 11.3399C21.8372 11.32 21.8614 11.3153 21.8968 11.3202L21.9659 10.825L22.0349 10.3298C21.7689 10.2927 21.5117 10.3469 21.283 10.4867L21.5438 10.9133ZM21.9659 10.825L21.8968 11.3202L22.1229 11.3518L22.1919 10.8566L22.261 10.3614L22.0349 10.3298L21.9659 10.825ZM22.1919 10.8566L22.1229 11.3518L22.3489 11.3833L22.418 10.8881L22.4871 10.3929L22.261 10.3614L22.1919 10.8566ZM22.418 10.8881L22.3489 11.3833C22.3536 11.384 22.3238 11.3803 22.2865 11.3499C22.2475 11.3179 22.2323 11.2826 22.2288 11.271L22.7068 11.1245L23.1849 10.9781C23.1395 10.8298 23.0553 10.6868 22.9199 10.5761C22.7864 10.4668 22.6331 10.4132 22.4871 10.3929L22.418 10.8881ZM22.7068 11.1245L22.2288 11.271L22.2915 11.4759L22.7696 11.3294L23.2477 11.183L23.1849 10.9781L22.7068 11.1245ZM22.7696 11.3294L22.2915 11.4759L22.3543 11.6808L22.8324 11.5343L23.3104 11.3879L23.2477 11.183L22.7696 11.3294ZM22.8324 11.5343L22.3543 11.6808C22.395 11.8137 22.4307 11.9244 22.4574 11.9909L22.9213 11.8044L23.3852 11.6179C23.3771 11.5975 23.3534 11.5281 23.3104 11.3879L22.8324 11.5343ZM22.9213 11.8044L22.4574 11.9909L22.4837 12.0561L22.9476 11.8696L23.4115 11.6831L23.3852 11.6179L22.9213 11.8044ZM22.9476 11.8696L22.4837 12.0561L22.5099 12.1213L22.9738 11.9348L23.4377 11.7483L23.4115 11.6831L22.9476 11.8696ZM22.9738 11.9348L22.5099 12.1213C22.4534 11.9809 22.4907 11.8697 22.498 11.8493C22.5076 11.8227 22.5135 11.8207 22.4934 11.8488L22.9 12.1397L23.3067 12.4307C23.3532 12.3656 23.4047 12.2829 23.4389 12.188C23.4708 12.0992 23.5116 11.9321 23.4377 11.7483L22.9738 11.9348ZM22.9 12.1397L22.4934 11.8488L22.3934 11.9885L22.8 12.2795L23.2067 12.5704L23.3067 12.4307L22.9 12.1397Z" fill="#FF5053" fill-opacity="0.960784"/>
<circle cx="19" cy="5" r="1" fill="#FF5053" fill-opacity="0.960784"/>
<path d="M19.7001 5.4192L20.1067 5.71015L19.7001 5.4192ZM19.4644 5.62011L19.2589 5.16429L19.4644 5.62011ZM19.3287 5.68129L19.1232 5.22547L19.3287 5.68129ZM19.193 5.74246L19.3985 6.19828L19.193 5.74246ZM18.8874 5.79549L18.8634 6.29492L18.8874 5.79549ZM18.1743 5.2885L17.7135 5.48265L18.1743 5.2885ZM18.1518 4.15286L17.8911 3.72624L18.1518 4.15286ZM18.9659 3.82503L18.8968 4.32023L18.9659 3.82503ZM19.1919 3.85656L19.261 3.36135L19.1919 3.85656ZM19.418 3.88809L19.3489 4.3833L19.418 3.88809ZM19.7068 4.12452L19.2288 4.27096L19.7068 4.12452ZM19.9213 4.80441L20.3852 4.61787L19.9213 4.80441ZM19.9738 4.9348L20.4377 4.74826L19.9738 4.9348ZM19.9 5.13973L19.4934 4.84879L19.9 5.13973ZM19.8 5.27947L19.3934 4.98852L19.2934 5.12826L19.7001 5.4192L20.1067 5.71015L20.2067 5.57042L19.8 5.27947ZM19.7001 5.4192L19.2934 5.12826C19.2812 5.14531 19.2719 5.15441 19.2668 5.15879C19.2619 5.16293 19.2594 5.16404 19.2589 5.16429L19.4644 5.62011L19.6699 6.07593C19.8525 5.99362 19.9967 5.86383 20.1067 5.71015L19.7001 5.4192ZM19.4644 5.62011L19.2589 5.16429L19.1232 5.22547L19.3287 5.68129L19.5342 6.13711L19.6699 6.07593L19.4644 5.62011ZM19.3287 5.68129L19.1232 5.22547L18.9875 5.28664L19.193 5.74246L19.3985 6.19828L19.5342 6.13711L19.3287 5.68129ZM19.193 5.74246L18.9875 5.28664C18.9787 5.29062 18.9571 5.29826 18.9113 5.29607L18.8874 5.79549L18.8634 6.29492C19.0442 6.30358 19.2264 6.27587 19.3985 6.19828L19.193 5.74246ZM18.8874 5.79549L18.9113 5.29607L18.7414 5.28793L18.7175 5.78735L18.6935 6.28678L18.8634 6.29492L18.8874 5.79549ZM18.7175 5.78735L18.7414 5.28793L18.5715 5.27978L18.5475 5.77921L18.5236 6.27864L18.6935 6.28678L18.7175 5.78735ZM18.5475 5.77921L18.5715 5.27978C18.5942 5.28087 18.6422 5.28939 18.6929 5.32539C18.7427 5.36084 18.7643 5.40106 18.7706 5.41607L18.3098 5.61021L17.8491 5.80436C17.9006 5.92661 17.9843 6.04861 18.1134 6.1404C18.2433 6.23272 18.3876 6.27212 18.5236 6.27864L18.5475 5.77921ZM18.3098 5.61021L18.7706 5.41607L18.7028 5.25521L18.2421 5.44936L17.7813 5.64351L17.8491 5.80436L18.3098 5.61021ZM18.2421 5.44936L18.7028 5.25521L18.635 5.09435L18.1743 5.2885L17.7135 5.48265L17.7813 5.64351L18.2421 5.44936ZM18.1743 5.2885L18.635 5.09435C18.6074 5.02876 18.5814 4.94128 18.5612 4.82713L18.0688 4.9139L17.5764 5.00066C17.6065 5.17151 17.6508 5.33377 17.7135 5.48265L18.1743 5.2885ZM18.0688 4.9139L18.5612 4.82713L18.5236 4.61338L18.0312 4.70015L17.5388 4.78691L17.5764 5.00066L18.0688 4.9139ZM18.0312 4.70015L18.5236 4.61338L18.4859 4.39963L17.9935 4.4864L17.5011 4.57316L17.5388 4.78691L18.0312 4.70015ZM17.9935 4.4864L18.4859 4.39963C18.4881 4.4121 18.4915 4.45678 18.466 4.51055C18.4415 4.562 18.4099 4.58113 18.4126 4.57948L18.1518 4.15286L17.8911 3.72624C17.7631 3.80445 17.6398 3.91909 17.5626 4.08173C17.4843 4.24668 17.4738 4.4182 17.5011 4.57316L17.9935 4.4864ZM18.1518 4.15286L18.4126 4.57948L18.6086 4.45969L18.3478 4.03307L18.0871 3.60645L17.8911 3.72624L18.1518 4.15286ZM18.3478 4.03307L18.6086 4.45969L18.8046 4.33991L18.5438 3.91328L18.283 3.48666L18.0871 3.60645L18.3478 4.03307ZM18.5438 3.91328L18.8046 4.33991C18.8372 4.31996 18.8614 4.3153 18.8968 4.32023L18.9659 3.82503L19.0349 3.32982C18.7689 3.29271 18.5117 3.34689 18.283 3.48666L18.5438 3.91328ZM18.9659 3.82503L18.8968 4.32023L19.1229 4.35176L19.1919 3.85656L19.261 3.36135L19.0349 3.32982L18.9659 3.82503ZM19.1919 3.85656L19.1229 4.35176L19.3489 4.3833L19.418 3.88809L19.4871 3.39288L19.261 3.36135L19.1919 3.85656ZM19.418 3.88809L19.3489 4.3833C19.3536 4.38395 19.3238 4.38034 19.2865 4.34987C19.2475 4.3179 19.2323 4.2826 19.2288 4.27096L19.7068 4.12452L20.1849 3.97807C20.1395 3.82983 20.0553 3.68683 19.9199 3.57605C19.7864 3.46677 19.6331 3.41325 19.4871 3.39288L19.418 3.88809ZM19.7068 4.12452L19.2288 4.27096L19.2915 4.47586L19.7696 4.32941L20.2477 4.18297L20.1849 3.97807L19.7068 4.12452ZM19.7696 4.32941L19.2915 4.47586L19.3543 4.68076L19.8324 4.53431L20.3104 4.38786L20.2477 4.18297L19.7696 4.32941ZM19.8324 4.53431L19.3543 4.68076C19.395 4.8137 19.4307 4.92436 19.4574 4.99095L19.9213 4.80441L20.3852 4.61787C20.3771 4.59752 20.3534 4.52812 20.3104 4.38786L19.8324 4.53431ZM19.9213 4.80441L19.4574 4.99095L19.4837 5.05614L19.9476 4.8696L20.4115 4.68306L20.3852 4.61787L19.9213 4.80441ZM19.9476 4.8696L19.4837 5.05614L19.5099 5.12134L19.9738 4.9348L20.4377 4.74826L20.4115 4.68306L19.9476 4.8696ZM19.9738 4.9348L19.5099 5.12134C19.4534 4.98093 19.4907 4.86971 19.498 4.8493C19.5076 4.82271 19.5135 4.82071 19.4934 4.84879L19.9 5.13973L20.3067 5.43068C20.3532 5.3656 20.4047 5.28287 20.4389 5.18797C20.4708 5.09925 20.5116 4.93214 20.4377 4.74826L19.9738 4.9348ZM19.9 5.13973L19.4934 4.84879L19.3934 4.98852L19.8 5.27947L20.2067 5.57042L20.3067 5.43068L19.9 5.13973Z" fill="#FF5053" fill-opacity="0.960784"/>
<circle cx="12" cy="2" r="1" fill="#FF5053" fill-opacity="0.960784"/>
<path d="M12.7001 2.4192L13.1067 2.71015L12.7001 2.4192ZM12.4644 2.62011L12.2589 2.16429L12.4644 2.62011ZM12.3287 2.68129L12.1232 2.22547L12.3287 2.68129ZM12.193 2.74246L12.3985 3.19828L12.193 2.74246ZM11.8874 2.79549L11.8634 3.29492L11.8874 2.79549ZM11.1743 2.2885L10.7135 2.48265L11.1743 2.2885ZM11.1518 1.15286L10.8911 0.726237L11.1518 1.15286ZM11.9659 0.825027L11.8968 1.32023L11.9659 0.825027ZM12.1919 0.856558L12.261 0.361352L12.1919 0.856558ZM12.418 0.888089L12.3489 1.3833L12.418 0.888089ZM12.7068 1.12452L12.2288 1.27096L12.7068 1.12452ZM12.9213 1.80441L13.3852 1.61787L12.9213 1.80441ZM12.9738 1.9348L13.4377 1.74826L12.9738 1.9348ZM12.9 2.13973L12.4934 1.84879L12.9 2.13973ZM12.8 2.27947L12.3934 1.98852L12.2934 2.12826L12.7001 2.4192L13.1067 2.71015L13.2067 2.57042L12.8 2.27947ZM12.7001 2.4192L12.2934 2.12826C12.2812 2.14531 12.2719 2.15441 12.2668 2.15879C12.2619 2.16293 12.2594 2.16404 12.2589 2.16429L12.4644 2.62011L12.6699 3.07593C12.8525 2.99362 12.9967 2.86383 13.1067 2.71015L12.7001 2.4192ZM12.4644 2.62011L12.2589 2.16429L12.1232 2.22547L12.3287 2.68129L12.5342 3.13711L12.6699 3.07593L12.4644 2.62011ZM12.3287 2.68129L12.1232 2.22547L11.9875 2.28664L12.193 2.74246L12.3985 3.19828L12.5342 3.13711L12.3287 2.68129ZM12.193 2.74246L11.9875 2.28664C11.9787 2.29062 11.9571 2.29826 11.9113 2.29607L11.8874 2.79549L11.8634 3.29492C12.0442 3.30358 12.2264 3.27587 12.3985 3.19828L12.193 2.74246ZM11.8874 2.79549L11.9113 2.29607L11.7414 2.28793L11.7175 2.78735L11.6935 3.28678L11.8634 3.29492L11.8874 2.79549ZM11.7175 2.78735L11.7414 2.28793L11.5715 2.27978L11.5475 2.77921L11.5236 3.27864L11.6935 3.28678L11.7175 2.78735ZM11.5475 2.77921L11.5715 2.27978C11.5942 2.28087 11.6422 2.28939 11.6929 2.32539C11.7427 2.36084 11.7643 2.40106 11.7706 2.41607L11.3098 2.61021L10.8491 2.80436C10.9006 2.92661 10.9843 3.04861 11.1134 3.1404C11.2433 3.23272 11.3876 3.27212 11.5236 3.27864L11.5475 2.77921ZM11.3098 2.61021L11.7706 2.41607L11.7028 2.25521L11.2421 2.44936L10.7813 2.64351L10.8491 2.80436L11.3098 2.61021ZM11.2421 2.44936L11.7028 2.25521L11.635 2.09435L11.1743 2.2885L10.7135 2.48265L10.7813 2.64351L11.2421 2.44936ZM11.1743 2.2885L11.635 2.09435C11.6074 2.02876 11.5814 1.94128 11.5612 1.82713L11.0688 1.9139L10.5764 2.00066C10.6065 2.17151 10.6508 2.33377 10.7135 2.48265L11.1743 2.2885ZM11.0688 1.9139L11.5612 1.82713L11.5236 1.61338L11.0312 1.70015L10.5388 1.78691L10.5764 2.00066L11.0688 1.9139ZM11.0312 1.70015L11.5236 1.61338L11.4859 1.39963L10.9935 1.4864L10.5011 1.57316L10.5388 1.78691L11.0312 1.70015ZM10.9935 1.4864L11.4859 1.39963C11.4881 1.4121 11.4915 1.45678 11.466 1.51055C11.4415 1.562 11.4099 1.58113 11.4126 1.57948L11.1518 1.15286L10.8911 0.726237C10.7631 0.804451 10.6398 0.919095 10.5626 1.08173C10.4843 1.24668 10.4738 1.4182 10.5011 1.57316L10.9935 1.4864ZM11.1518 1.15286L11.4126 1.57948L11.6086 1.45969L11.3478 1.03307L11.0871 0.606449L10.8911 0.726237L11.1518 1.15286ZM11.3478 1.03307L11.6086 1.45969L11.8046 1.33991L11.5438 0.913283L11.283 0.48666L11.0871 0.606449L11.3478 1.03307ZM11.5438 0.913283L11.8046 1.33991C11.8372 1.31996 11.8614 1.3153 11.8968 1.32023L11.9659 0.825027L12.0349 0.32982C11.7689 0.29271 11.5117 0.346892 11.283 0.48666L11.5438 0.913283ZM11.9659 0.825027L11.8968 1.32023L12.1229 1.35176L12.1919 0.856558L12.261 0.361352L12.0349 0.32982L11.9659 0.825027ZM12.1919 0.856558L12.1229 1.35176L12.3489 1.3833L12.418 0.888089L12.4871 0.392883L12.261 0.361352L12.1919 0.856558ZM12.418 0.888089L12.3489 1.3833C12.3536 1.38395 12.3238 1.38034 12.2865 1.34987C12.2475 1.3179 12.2323 1.2826 12.2288 1.27096L12.7068 1.12452L13.1849 0.978071C13.1395 0.829834 13.0553 0.68683 12.9199 0.576054C12.7864 0.466772 12.6331 0.413247 12.4871 0.392883L12.418 0.888089ZM12.7068 1.12452L12.2288 1.27096L12.2915 1.47586L12.7696 1.32941L13.2477 1.18297L13.1849 0.978071L12.7068 1.12452ZM12.7696 1.32941L12.2915 1.47586L12.3543 1.68076L12.8324 1.53431L13.3104 1.38786L13.2477 1.18297L12.7696 1.32941ZM12.8324 1.53431L12.3543 1.68076C12.395 1.8137 12.4307 1.92436 12.4574 1.99095L12.9213 1.80441L13.3852 1.61787C13.3771 1.59752 13.3534 1.52812 13.3104 1.38786L12.8324 1.53431ZM12.9213 1.80441L12.4574 1.99095L12.4837 2.05614L12.9476 1.8696L13.4115 1.68306L13.3852 1.61787L12.9213 1.80441ZM12.9476 1.8696L12.4837 2.05614L12.5099 2.12134L12.9738 1.9348L13.4377 1.74826L13.4115 1.68306L12.9476 1.8696ZM12.9738 1.9348L12.5099 2.12134C12.4534 1.98093 12.4907 1.86971 12.498 1.8493C12.5076 1.82271 12.5135 1.82071 12.4934 1.84879L12.9 2.13973L13.3067 2.43068C13.3532 2.3656 13.4047 2.28287 13.4389 2.18797C13.4708 2.09925 13.5116 1.93214 13.4377 1.74826L12.9738 1.9348ZM12.9 2.13973L12.4934 1.84879L12.3934 1.98852L12.8 2.27947L13.2067 2.57042L13.3067 2.43068L12.9 2.13973Z" fill="#FF5053" fill-opacity="0.960784"/>
<circle cx="5" cy="5" r="1" fill="#FF5053" fill-opacity="0.960784"/>
<path d="M5.70006 5.4192L6.10669 5.71015L5.70006 5.4192ZM5.46438 5.62011L5.25889 5.16429L5.46438 5.62011ZM5.32869 5.68129L5.12319 5.22547L5.32869 5.68129ZM5.19299 5.74246L5.39848 6.19828L5.19299 5.74246ZM4.88737 5.79549L4.86345 6.29492L4.88737 5.79549ZM4.17428 5.2885L3.71351 5.48265L4.17428 5.2885ZM4.15183 4.15286L3.89107 3.72624L4.15183 4.15286ZM4.96586 3.82503L4.89679 4.32023L4.96586 3.82503ZM5.19193 3.85656L5.261 3.36135L5.19193 3.85656ZM5.418 3.88809L5.34893 4.3833L5.418 3.88809ZM5.70683 4.12452L5.22876 4.27096L5.70683 4.12452ZM5.92135 4.80441L6.38525 4.61787L5.92135 4.80441ZM5.97378 4.9348L6.43768 4.74826L5.97378 4.9348ZM5.90002 5.13973L5.49339 4.84879L5.90002 5.13973ZM5.80004 5.27947L5.39341 4.98852L5.29343 5.12826L5.70006 5.4192L6.10669 5.71015L6.20667 5.57042L5.80004 5.27947ZM5.70006 5.4192L5.29343 5.12826C5.28122 5.14531 5.27193 5.15441 5.26678 5.15879C5.26192 5.16293 5.25944 5.16404 5.25889 5.16429L5.46438 5.62011L5.66987 6.07593C5.85246 5.99362 5.99673 5.86383 6.10669 5.71015L5.70006 5.4192ZM5.46438 5.62011L5.25889 5.16429L5.12319 5.22547L5.32869 5.68129L5.53418 6.13711L5.66987 6.07593L5.46438 5.62011ZM5.32869 5.68129L5.12319 5.22547L4.9875 5.28664L5.19299 5.74246L5.39848 6.19828L5.53418 6.13711L5.32869 5.68129ZM5.19299 5.74246L4.9875 5.28664C4.97867 5.29062 4.95707 5.29826 4.9113 5.29607L4.88737 5.79549L4.86345 6.29492C5.04424 6.30358 5.22638 6.27587 5.39848 6.19828L5.19299 5.74246ZM4.88737 5.79549L4.9113 5.29607L4.74138 5.28793L4.71745 5.78735L4.69352 6.28678L4.86345 6.29492L4.88737 5.79549ZM4.71745 5.78735L4.74138 5.28793L4.57146 5.27978L4.54753 5.77921L4.5236 6.27864L4.69352 6.28678L4.71745 5.78735ZM4.54753 5.77921L4.57146 5.27978C4.59416 5.28087 4.64225 5.28939 4.69287 5.32539C4.74274 5.36084 4.76428 5.40106 4.7706 5.41607L4.30983 5.61021L3.84907 5.80436C3.90058 5.92661 3.98433 6.04861 4.11342 6.1404C4.24328 6.23272 4.38763 6.27212 4.5236 6.27864L4.54753 5.77921ZM4.30983 5.61021L4.7706 5.41607L4.70282 5.25521L4.24206 5.44936L3.78129 5.64351L3.84907 5.80436L4.30983 5.61021ZM4.24206 5.44936L4.70282 5.25521L4.63504 5.09435L4.17428 5.2885L3.71351 5.48265L3.78129 5.64351L4.24206 5.44936ZM4.17428 5.2885L4.63504 5.09435C4.60741 5.02876 4.58136 4.94128 4.56125 4.82713L4.06883 4.9139L3.57642 5.00066C3.60653 5.17151 3.65078 5.33377 3.71351 5.48265L4.17428 5.2885ZM4.06883 4.9139L4.56125 4.82713L4.52358 4.61338L4.03117 4.70015L3.53876 4.78691L3.57642 5.00066L4.06883 4.9139ZM4.03117 4.70015L4.52358 4.61338L4.48592 4.39963L3.99351 4.4864L3.50109 4.57316L3.53876 4.78691L4.03117 4.70015ZM3.99351 4.4864L4.48592 4.39963C4.48812 4.4121 4.49147 4.45678 4.46595 4.51055C4.44153 4.562 4.40989 4.58113 4.41258 4.57948L4.15183 4.15286L3.89107 3.72624C3.76311 3.80445 3.63976 3.91909 3.56256 4.08173C3.48426 4.24668 3.47379 4.4182 3.50109 4.57316L3.99351 4.4864ZM4.15183 4.15286L4.41258 4.57948L4.60857 4.45969L4.34781 4.03307L4.08706 3.60645L3.89107 3.72624L4.15183 4.15286ZM4.34781 4.03307L4.60857 4.45969L4.80456 4.33991L4.5438 3.91328L4.28305 3.48666L4.08706 3.60645L4.34781 4.03307ZM4.5438 3.91328L4.80456 4.33991C4.83719 4.31996 4.86143 4.3153 4.89679 4.32023L4.96586 3.82503L5.03493 3.32982C4.76886 3.29271 4.51172 3.34689 4.28305 3.48666L4.5438 3.91328ZM4.96586 3.82503L4.89679 4.32023L5.12286 4.35176L5.19193 3.85656L5.261 3.36135L5.03493 3.32982L4.96586 3.82503ZM5.19193 3.85656L5.12286 4.35176L5.34893 4.3833L5.418 3.88809L5.48707 3.39288L5.261 3.36135L5.19193 3.85656ZM5.418 3.88809L5.34893 4.3833C5.35364 4.38395 5.32377 4.38034 5.28654 4.34987C5.24749 4.3179 5.23233 4.2826 5.22876 4.27096L5.70683 4.12452L6.18491 3.97807C6.1395 3.82983 6.05528 3.68683 5.91995 3.57605C5.78644 3.46677 5.63307 3.41325 5.48707 3.39288L5.418 3.88809ZM5.70683 4.12452L5.22876 4.27096L5.29153 4.47586L5.7696 4.32941L6.24767 4.18297L6.18491 3.97807L5.70683 4.12452ZM5.7696 4.32941L5.29153 4.47586L5.35429 4.68076L5.83237 4.53431L6.31044 4.38786L6.24767 4.18297L5.7696 4.32941ZM5.83237 4.53431L5.35429 4.68076C5.39502 4.8137 5.43068 4.92436 5.45745 4.99095L5.92135 4.80441L6.38525 4.61787C6.37707 4.59752 6.3534 4.52812 6.31044 4.38786L5.83237 4.53431ZM5.92135 4.80441L5.45745 4.99095L5.48367 5.05614L5.94757 4.8696L6.41147 4.68306L6.38525 4.61787L5.92135 4.80441ZM5.94757 4.8696L5.48367 5.05614L5.50988 5.12134L5.97378 4.9348L6.43768 4.74826L6.41147 4.68306L5.94757 4.8696ZM5.97378 4.9348L5.50988 5.12134C5.45342 4.98093 5.49065 4.86971 5.498 4.8493C5.50757 4.82271 5.51348 4.82071 5.49339 4.84879L5.90002 5.13973L6.30665 5.43068C6.35322 5.3656 6.40474 5.28287 6.4389 5.18797C6.47084 5.09925 6.51162 4.93214 6.43768 4.74826L5.97378 4.9348ZM5.90002 5.13973L5.49339 4.84879L5.39341 4.98852L5.80004 5.27947L6.20667 5.57042L6.30665 5.43068L5.90002 5.13973Z" fill="#FF5053" fill-opacity="0.960784"/>
<circle cx="2" cy="12" r="1" fill="#FF5053" fill-opacity="0.960784"/>
<path d="M2.70006 12.4192L3.10669 12.7102L2.70006 12.4192ZM2.46438 12.6201L2.25889 12.1643L2.46438 12.6201ZM2.32869 12.6813L2.12319 12.2255L2.32869 12.6813ZM2.19299 12.7425L2.39848 13.1983L2.19299 12.7425ZM1.88737 12.7955L1.86345 13.2949L1.88737 12.7955ZM1.17428 12.2885L0.71351 12.4827L1.17428 12.2885ZM1.15183 11.1529L0.891074 10.7262L1.15183 11.1529ZM1.96586 10.825L1.89679 11.3202L1.96586 10.825ZM2.19193 10.8566L2.261 10.3614L2.19193 10.8566ZM2.418 10.8881L2.34893 11.3833L2.418 10.8881ZM2.70683 11.1245L2.22876 11.271L2.70683 11.1245ZM2.92135 11.8044L3.38525 11.6179L2.92135 11.8044ZM2.97378 11.9348L3.43768 11.7483L2.97378 11.9348ZM2.90002 12.1397L2.49339 11.8488L2.90002 12.1397ZM2.80004 12.2795L2.39341 11.9885L2.29343 12.1283L2.70006 12.4192L3.10669 12.7102L3.20667 12.5704L2.80004 12.2795ZM2.70006 12.4192L2.29343 12.1283C2.28122 12.1453 2.27193 12.1544 2.26678 12.1588C2.26192 12.1629 2.25944 12.164 2.25889 12.1643L2.46438 12.6201L2.66987 13.0759C2.85246 12.9936 2.99673 12.8638 3.10669 12.7102L2.70006 12.4192ZM2.46438 12.6201L2.25889 12.1643L2.12319 12.2255L2.32869 12.6813L2.53418 13.1371L2.66987 13.0759L2.46438 12.6201ZM2.32869 12.6813L2.12319 12.2255L1.9875 12.2866L2.19299 12.7425L2.39848 13.1983L2.53418 13.1371L2.32869 12.6813ZM2.19299 12.7425L1.9875 12.2866C1.97867 12.2906 1.95707 12.2983 1.9113 12.2961L1.88737 12.7955L1.86345 13.2949C2.04424 13.3036 2.22638 13.2759 2.39848 13.1983L2.19299 12.7425ZM1.88737 12.7955L1.9113 12.2961L1.74138 12.2879L1.71745 12.7874L1.69352 13.2868L1.86345 13.2949L1.88737 12.7955ZM1.71745 12.7874L1.74138 12.2879L1.57146 12.2798L1.54753 12.7792L1.5236 13.2786L1.69352 13.2868L1.71745 12.7874ZM1.54753 12.7792L1.57146 12.2798C1.59416 12.2809 1.64225 12.2894 1.69287 12.3254C1.74274 12.3608 1.76428 12.4011 1.7706 12.4161L1.30983 12.6102L0.849067 12.8044C0.900576 12.9266 0.984326 13.0486 1.11342 13.1404C1.24328 13.2327 1.38763 13.2721 1.5236 13.2786L1.54753 12.7792ZM1.30983 12.6102L1.7706 12.4161L1.70282 12.2552L1.24206 12.4494L0.781289 12.6435L0.849067 12.8044L1.30983 12.6102ZM1.24206 12.4494L1.70282 12.2552L1.63504 12.0944L1.17428 12.2885L0.71351 12.4827L0.781289 12.6435L1.24206 12.4494ZM1.17428 12.2885L1.63504 12.0944C1.60741 12.0288 1.58136 11.9413 1.56125 11.8271L1.06883 11.9139L0.576421 12.0007C0.606526 12.1715 0.650778 12.3338 0.71351 12.4827L1.17428 12.2885ZM1.06883 11.9139L1.56125 11.8271L1.52358 11.6134L1.03117 11.7001L0.538757 11.7869L0.576421 12.0007L1.06883 11.9139ZM1.03117 11.7001L1.52358 11.6134L1.48592 11.3996L0.993507 11.4864L0.501093 11.5732L0.538757 11.7869L1.03117 11.7001ZM0.993507 11.4864L1.48592 11.3996C1.48812 11.4121 1.49147 11.4568 1.46595 11.5105C1.44153 11.562 1.40989 11.5811 1.41258 11.5795L1.15183 11.1529L0.891074 10.7262C0.763106 10.8045 0.639758 10.9191 0.562559 11.0817C0.484262 11.2467 0.473786 11.4182 0.501093 11.5732L0.993507 11.4864ZM1.15183 11.1529L1.41258 11.5795L1.60857 11.4597L1.34781 11.0331L1.08706 10.6064L0.891074 10.7262L1.15183 11.1529ZM1.34781 11.0331L1.60857 11.4597L1.80456 11.3399L1.5438 10.9133L1.28305 10.4867L1.08706 10.6064L1.34781 11.0331ZM1.5438 10.9133L1.80456 11.3399C1.83719 11.32 1.86143 11.3153 1.89679 11.3202L1.96586 10.825L2.03493 10.3298C1.76886 10.2927 1.51172 10.3469 1.28305 10.4867L1.5438 10.9133ZM1.96586 10.825L1.89679 11.3202L2.12286 11.3518L2.19193 10.8566L2.261 10.3614L2.03493 10.3298L1.96586 10.825ZM2.19193 10.8566L2.12286 11.3518L2.34893 11.3833L2.418 10.8881L2.48707 10.3929L2.261 10.3614L2.19193 10.8566ZM2.418 10.8881L2.34893 11.3833C2.35364 11.384 2.32377 11.3803 2.28654 11.3499C2.24749 11.3179 2.23233 11.2826 2.22876 11.271L2.70683 11.1245L3.18491 10.9781C3.1395 10.8298 3.05528 10.6868 2.91995 10.5761C2.78644 10.4668 2.63307 10.4132 2.48707 10.3929L2.418 10.8881ZM2.70683 11.1245L2.22876 11.271L2.29153 11.4759L2.7696 11.3294L3.24767 11.183L3.18491 10.9781L2.70683 11.1245ZM2.7696 11.3294L2.29153 11.4759L2.35429 11.6808L2.83237 11.5343L3.31044 11.3879L3.24767 11.183L2.7696 11.3294ZM2.83237 11.5343L2.35429 11.6808C2.39502 11.8137 2.43068 11.9244 2.45745 11.9909L2.92135 11.8044L3.38525 11.6179C3.37707 11.5975 3.3534 11.5281 3.31044 11.3879L2.83237 11.5343ZM2.92135 11.8044L2.45745 11.9909L2.48367 12.0561L2.94757 11.8696L3.41147 11.6831L3.38525 11.6179L2.92135 11.8044ZM2.94757 11.8696L2.48367 12.0561L2.50988 12.1213L2.97378 11.9348L3.43768 11.7483L3.41147 11.6831L2.94757 11.8696ZM2.97378 11.9348L2.50988 12.1213C2.45342 11.9809 2.49065 11.8697 2.498 11.8493C2.50757 11.8227 2.51348 11.8207 2.49339 11.8488L2.90002 12.1397L3.30665 12.4307C3.35322 12.3656 3.40474 12.2829 3.4389 12.188C3.47084 12.0992 3.51162 11.9321 3.43768 11.7483L2.97378 11.9348ZM2.90002 12.1397L2.49339 11.8488L2.39341 11.9885L2.80004 12.2795L3.20667 12.5704L3.30665 12.4307L2.90002 12.1397Z" fill="#FF5053" fill-opacity="0.960784"/>
<circle cx="5" cy="19" r="1" fill="#FF5053" fill-opacity="0.960784"/>
<path d="M5.70006 19.4192L6.10669 19.7102L5.70006 19.4192ZM5.46438 19.6201L5.25889 19.1643L5.46438 19.6201ZM5.32869 19.6813L5.12319 19.2255L5.32869 19.6813ZM5.19299 19.7425L5.39848 20.1983L5.19299 19.7425ZM4.88737 19.7955L4.86345 20.2949L4.88737 19.7955ZM4.17428 19.2885L3.71351 19.4827L4.17428 19.2885ZM4.15183 18.1529L3.89107 17.7262L4.15183 18.1529ZM4.96586 17.825L4.89679 18.3202L4.96586 17.825ZM5.19193 17.8566L5.261 17.3614L5.19193 17.8566ZM5.418 17.8881L5.34893 18.3833L5.418 17.8881ZM5.70683 18.1245L5.22876 18.271L5.70683 18.1245ZM5.92135 18.8044L6.38525 18.6179L5.92135 18.8044ZM5.97378 18.9348L6.43768 18.7483L5.97378 18.9348ZM5.90002 19.1397L5.49339 18.8488L5.90002 19.1397ZM5.80004 19.2795L5.39341 18.9885L5.29343 19.1283L5.70006 19.4192L6.10669 19.7102L6.20667 19.5704L5.80004 19.2795ZM5.70006 19.4192L5.29343 19.1283C5.28122 19.1453 5.27193 19.1544 5.26678 19.1588C5.26192 19.1629 5.25944 19.164 5.25889 19.1643L5.46438 19.6201L5.66987 20.0759C5.85246 19.9936 5.99673 19.8638 6.10669 19.7102L5.70006 19.4192ZM5.46438 19.6201L5.25889 19.1643L5.12319 19.2255L5.32869 19.6813L5.53418 20.1371L5.66987 20.0759L5.46438 19.6201ZM5.32869 19.6813L5.12319 19.2255L4.9875 19.2866L5.19299 19.7425L5.39848 20.1983L5.53418 20.1371L5.32869 19.6813ZM5.19299 19.7425L4.9875 19.2866C4.97867 19.2906 4.95707 19.2983 4.9113 19.2961L4.88737 19.7955L4.86345 20.2949C5.04424 20.3036 5.22638 20.2759 5.39848 20.1983L5.19299 19.7425ZM4.88737 19.7955L4.9113 19.2961L4.74138 19.2879L4.71745 19.7874L4.69352 20.2868L4.86345 20.2949L4.88737 19.7955ZM4.71745 19.7874L4.74138 19.2879L4.57146 19.2798L4.54753 19.7792L4.5236 20.2786L4.69352 20.2868L4.71745 19.7874ZM4.54753 19.7792L4.57146 19.2798C4.59416 19.2809 4.64225 19.2894 4.69287 19.3254C4.74274 19.3608 4.76428 19.4011 4.7706 19.4161L4.30983 19.6102L3.84907 19.8044C3.90058 19.9266 3.98433 20.0486 4.11342 20.1404C4.24328 20.2327 4.38763 20.2721 4.5236 20.2786L4.54753 19.7792ZM4.30983 19.6102L4.7706 19.4161L4.70282 19.2552L4.24206 19.4494L3.78129 19.6435L3.84907 19.8044L4.30983 19.6102ZM4.24206 19.4494L4.70282 19.2552L4.63504 19.0944L4.17428 19.2885L3.71351 19.4827L3.78129 19.6435L4.24206 19.4494ZM4.17428 19.2885L4.63504 19.0944C4.60741 19.0288 4.58136 18.9413 4.56125 18.8271L4.06883 18.9139L3.57642 19.0007C3.60653 19.1715 3.65078 19.3338 3.71351 19.4827L4.17428 19.2885ZM4.06883 18.9139L4.56125 18.8271L4.52358 18.6134L4.03117 18.7001L3.53876 18.7869L3.57642 19.0007L4.06883 18.9139ZM4.03117 18.7001L4.52358 18.6134L4.48592 18.3996L3.99351 18.4864L3.50109 18.5732L3.53876 18.7869L4.03117 18.7001ZM3.99351 18.4864L4.48592 18.3996C4.48812 18.4121 4.49147 18.4568 4.46595 18.5105C4.44153 18.562 4.40989 18.5811 4.41258 18.5795L4.15183 18.1529L3.89107 17.7262C3.76311 17.8045 3.63976 17.9191 3.56256 18.0817C3.48426 18.2467 3.47379 18.4182 3.50109 18.5732L3.99351 18.4864ZM4.15183 18.1529L4.41258 18.5795L4.60857 18.4597L4.34781 18.0331L4.08706 17.6064L3.89107 17.7262L4.15183 18.1529ZM4.34781 18.0331L4.60857 18.4597L4.80456 18.3399L4.5438 17.9133L4.28305 17.4867L4.08706 17.6064L4.34781 18.0331ZM4.5438 17.9133L4.80456 18.3399C4.83719 18.32 4.86143 18.3153 4.89679 18.3202L4.96586 17.825L5.03493 17.3298C4.76886 17.2927 4.51172 17.3469 4.28305 17.4867L4.5438 17.9133ZM4.96586 17.825L4.89679 18.3202L5.12286 18.3518L5.19193 17.8566L5.261 17.3614L5.03493 17.3298L4.96586 17.825ZM5.19193 17.8566L5.12286 18.3518L5.34893 18.3833L5.418 17.8881L5.48707 17.3929L5.261 17.3614L5.19193 17.8566ZM5.418 17.8881L5.34893 18.3833C5.35364 18.384 5.32377 18.3803 5.28654 18.3499C5.24749 18.3179 5.23233 18.2826 5.22876 18.271L5.70683 18.1245L6.18491 17.9781C6.1395 17.8298 6.05528 17.6868 5.91995 17.5761C5.78644 17.4668 5.63307 17.4132 5.48707 17.3929L5.418 17.8881ZM5.70683 18.1245L5.22876 18.271L5.29153 18.4759L5.7696 18.3294L6.24767 18.183L6.18491 17.9781L5.70683 18.1245ZM5.7696 18.3294L5.29153 18.4759L5.35429 18.6808L5.83237 18.5343L6.31044 18.3879L6.24767 18.183L5.7696 18.3294ZM5.83237 18.5343L5.35429 18.6808C5.39502 18.8137 5.43068 18.9244 5.45745 18.9909L5.92135 18.8044L6.38525 18.6179C6.37707 18.5975 6.3534 18.5281 6.31044 18.3879L5.83237 18.5343ZM5.92135 18.8044L5.45745 18.9909L5.48367 19.0561L5.94757 18.8696L6.41147 18.6831L6.38525 18.6179L5.92135 18.8044ZM5.94757 18.8696L5.48367 19.0561L5.50988 19.1213L5.97378 18.9348L6.43768 18.7483L6.41147 18.6831L5.94757 18.8696ZM5.97378 18.9348L5.50988 19.1213C5.45342 18.9809 5.49065 18.8697 5.498 18.8493C5.50757 18.8227 5.51348 18.8207 5.49339 18.8488L5.90002 19.1397L6.30665 19.4307C6.35322 19.3656 6.40474 19.2829 6.4389 19.188C6.47084 19.0992 6.51162 18.9321 6.43768 18.7483L5.97378 18.9348ZM5.90002 19.1397L5.49339 18.8488L5.39341 18.9885L5.80004 19.2795L6.20667 19.5704L6.30665 19.4307L5.90002 19.1397Z" fill="#FF5053" fill-opacity="0.960784"/>
</g>
<defs>
<clipPath id="clip0_379_2725">
<rect width="24" height="24" fill="white"/>
</clipPath>
</defs>
</svg>
