<svg width="24" height="24" viewBox="0 0 24 24" fill="none" xmlns="http://www.w3.org/2000/svg">
<path d="M5.04395 10.0558C5.76096 3.65629 15.2458 1.33333 18.7207 8.03432C18.8198 8.07531 18.933 8.12455 19.0566 8.18373C19.4903 8.39128 20.0686 8.7222 20.6494 9.21791C21.8304 10.226 23 11.9051 23 14.4982C23 17.0952 21.8264 18.7407 20.6309 19.7121C20.0451 20.188 19.4618 20.4967 19.0254 20.6876C18.8063 20.7835 18.6206 20.851 18.4854 20.8956C18.4177 20.918 18.3624 20.9356 18.3213 20.9474C18.3008 20.9533 18.2837 20.9575 18.2705 20.9611C18.264 20.9628 18.2585 20.9648 18.2539 20.966C18.2516 20.9666 18.2489 20.9665 18.2471 20.9669L18.2451 20.9679H18.2432L18 19.9982L18.2422 20.9679L18.123 20.9982H5.9375L5.87598 20.9904L6 19.9982C5.8826 20.9374 5.87581 20.9877 5.875 20.9904H5.87402L5.87109 20.9894C5.86941 20.9892 5.86735 20.9897 5.86523 20.9894C5.86071 20.9888 5.85508 20.9874 5.84863 20.9865C5.83575 20.9846 5.81899 20.9828 5.79883 20.9796C5.75822 20.9732 5.70306 20.9636 5.63574 20.9503C5.501 20.9239 5.31464 20.8817 5.09473 20.8175C4.6584 20.6902 4.0679 20.4697 3.46973 20.0958C2.23878 19.3264 1 17.9093 1 15.4982C1.00006 13.0934 2.23151 11.6427 3.44531 10.8341C4.03149 10.4437 4.61107 10.2009 5.04395 10.0558Z" fill="#9EAFDE"/>
<path d="M5.22359 9.51993L5.69766 9.67886L5.22359 9.51993ZM5.31153 9.1563L5.80588 9.23127L5.31153 9.1563ZM5.36764 8.7863L4.87329 8.71134L5.36764 8.7863ZM5.45464 8.42254L5.92949 8.57911L5.45464 8.42254ZM5.57253 8.06501L5.09768 7.90844L5.57253 8.06501ZM6.0513 7.03355L6.44594 7.34056L6.0513 7.03355ZM6.28567 6.73228L6.68031 7.03929L6.28567 6.73228ZM6.51896 6.42838L6.12041 6.12646L6.51896 6.42838ZM6.75117 6.12185L7.14973 6.42377L6.75117 6.12185ZM6.99839 5.82456L6.62864 5.48797L6.99839 5.82456ZM8.72851 5.04217L8.70993 5.54183L8.72851 5.04217ZM9.07143 4.86986L9.48285 5.154L9.07143 4.86986ZM9.19604 4.68942L8.78463 4.40528L9.19604 4.68942ZM9.32066 4.50899L9.73208 4.79313L9.32066 4.50899ZM11.1317 4.00511L11.0837 3.50742L11.1317 4.00511ZM11.5089 3.96869L11.557 4.46637L11.5089 3.96869ZM11.8854 3.99856L11.7614 4.48295L11.8854 3.99856ZM12.2611 4.09472L12.385 3.61034L12.2611 4.09472ZM13.0033 4.15051L12.9963 4.65046L13.0033 4.15051ZM14.3139 4.25101L14.2424 4.74586L14.3139 4.25101ZM14.5026 4.2783L14.431 4.77315L14.5026 4.2783ZM14.8474 4.41897L14.5537 4.8236L14.8474 4.41897ZM15.8322 4.97836L15.6368 5.43858L15.8322 4.97836ZM16.1263 5.19922L16.5119 4.88094L16.1263 5.19922ZM16.2482 5.34699L15.8626 5.66527L16.2482 5.34699ZM16.3702 5.49476L15.9846 5.81304L16.3702 5.49476ZM16.6541 5.73612L16.4039 6.16901L16.6541 5.73612ZM16.816 5.8297L17.0662 5.39681L16.816 5.8297ZM16.9779 5.92329L17.2281 5.4904L16.9779 5.92329ZM17.2568 6.16021L16.8693 6.47623L17.2568 6.16021ZM17.4905 6.44687L17.878 6.13085L17.4905 6.44687ZM17.778 6.69574L18.0411 6.27054L17.778 6.69574ZM17.9487 6.80129L17.6856 7.2265L17.9487 6.80129ZM18.1193 6.90684L18.3823 6.48163L18.1193 6.90684ZM18.3365 7.20519L18.8225 7.08756L18.3365 7.20519ZM18.3832 7.39799L17.8972 7.51562L18.3832 7.39799ZM18.4299 7.5908L17.9439 7.70843L18.4299 7.5908ZM18.6249 7.90388L18.9398 7.51552L18.6249 7.90388ZM18.9215 8.14442L18.6066 8.53278L18.9215 8.14442ZM19.2293 8.35935L18.9742 8.78936L19.2293 8.35935ZM19.3889 8.45401L19.644 8.024L19.3889 8.45401ZM19.5484 8.54867L19.8035 8.11866L19.5484 8.54867ZM19.8542 8.75639L20.16 8.36078L19.8542 8.75639ZM20.1468 8.98251L20.4525 8.58691L20.1468 8.98251ZM20.4194 9.22917L20.7827 8.88565L20.4194 9.22917ZM20.5457 9.36277L20.909 9.01925L20.5457 9.36277ZM20.672 9.49637L20.3087 9.83989L20.672 9.49637ZM20.9779 9.71624L21.1944 9.26553L20.9779 9.71624ZM21.3372 9.88878L21.1207 10.3395L21.3372 9.88878ZM21.634 10.1248L22.0277 9.81655L21.634 10.1248ZM21.8685 10.4242L21.4748 10.7324L21.8685 10.4242ZM22.1177 10.7203L22.489 10.3854L22.1177 10.7203ZM22.2497 10.8667L22.621 10.5318L22.2497 10.8667ZM22.3817 11.013L22.0104 11.3479L22.3817 11.013ZM22.569 11.3466L23.0485 11.205L22.569 11.3466ZM22.6242 11.5337L23.1038 11.3922L22.6242 11.5337ZM22.6795 11.7209L22.1999 11.8624L22.6795 11.7209ZM22.7521 12.1013L23.2501 12.0565L22.7521 12.1013ZM22.7869 12.4878L22.289 12.5327L22.7869 12.4878ZM22.7789 13.063L22.28 13.0297L22.7789 13.063ZM22.809 13.6258L23.2869 13.479L22.809 13.6258ZM22.8645 13.8067L23.3425 13.66L22.8645 13.8067ZM22.9201 13.9877L22.4421 14.1345L22.9201 13.9877ZM22.9548 14.3549L23.4517 14.4106L22.9548 14.3549ZM22.913 14.7275L22.4161 14.6718L22.913 14.7275ZM22.8625 15.0962L22.3689 15.016L22.8625 15.0962ZM22.8032 15.4609L23.2967 15.5411L22.8032 15.4609ZM22.7328 15.8221L23.2203 15.9331L22.7328 15.8221ZM22.6921 16.001L22.2046 15.89L22.6921 16.001ZM22.6514 16.1798L22.1638 16.0688L22.6514 16.1798ZM22.6278 16.5611L23.126 16.519L22.6278 16.5611ZM22.662 16.966L22.1638 17.0082L22.662 16.966ZM22.5266 17.3042L22.1942 16.9308L22.5266 17.3042ZM22.2216 17.5758L22.554 17.9493L22.2216 17.5758ZM22.0169 17.8971L21.5356 17.7618L22.0169 17.8971ZM21.9648 18.0826L22.4462 18.2179L21.9648 18.0826ZM21.9127 18.2681L22.394 18.4034L21.9127 18.2681ZM21.6926 18.5557L21.9523 18.983L21.6926 18.5557ZM21.3567 18.7598L21.097 18.3326L21.3567 18.7598ZM21.0736 19.004L21.462 19.3189L21.0736 19.004ZM20.8432 19.2881L20.4548 18.9732L20.8432 19.2881ZM20.6197 19.5943L20.2024 19.319L20.6197 19.5943ZM20.5115 19.7585L20.9288 20.0338L20.5115 19.7585ZM20.4032 19.9227L19.9858 19.6475L20.4032 19.9227ZM20.136 20.1919L19.8604 19.7747L20.136 20.1919ZM19.8184 20.4017L20.094 20.8189L19.8184 20.4017ZM19.4735 20.5551L19.3475 20.0713L19.4735 20.5551ZM19.2876 20.6036L19.4136 21.0874L19.2876 20.6036ZM19.1016 20.652L18.9755 20.1682L19.1016 20.652ZM18.7746 20.7543L18.5964 20.2871L18.7746 20.7543ZM18.4925 20.8619L18.6707 21.329L18.4925 20.8619ZM18.2827 20.7396L18.7484 20.5577L18.2827 20.7396ZM18.2139 20.5636L17.7482 20.7455L18.2139 20.5636ZM18.0769 20.2884L17.5769 20.2916L18.0769 20.2884ZM18.0774 20.3654L17.5774 20.3686L18.0774 20.3654ZM18.0779 20.4423L17.5779 20.4455L18.0779 20.4423ZM18.0515 20.6063L17.5737 20.4589L18.0515 20.6063ZM18.0246 20.6934L18.5024 20.8408L18.0246 20.6934ZM17.9978 20.7804L18.4755 20.9279L17.9978 20.7804ZM17.7834 20.8764L17.7595 20.377L17.7834 20.8764ZM17.0334 20.8675L16.9394 21.3585L17.0334 20.8675ZM16.6584 20.7956L16.7525 20.3046L16.6584 20.7956ZM16.2834 20.7806L16.2281 20.2837L16.2834 20.7806ZM16.0959 20.8014L16.0406 20.3045L16.0959 20.8014ZM15.9084 20.8223L15.9637 21.3192L15.9084 20.8223ZM15.5334 20.8994L15.677 21.3783L15.5334 20.8994ZM15.1584 21.0118L15.0148 20.5328L15.1584 21.0118ZM14.7834 21.0556L14.8163 20.5567L14.7834 21.0556ZM14.5959 21.0432L14.563 21.5422L14.5959 21.0432ZM14.0334 21.0515L13.9468 20.559L14.0334 21.0515ZM13.6584 21.1174L13.745 21.6099L13.6584 21.1174ZM13.2834 21.1104L13.3877 20.6214L13.2834 21.1104ZM13.0959 21.0704L12.9916 21.5594L13.0959 21.0704ZM12.9084 21.0304L12.8041 21.5195L12.9084 21.0304ZM12.5334 21.0175L12.4619 20.5227L12.5334 21.0175ZM12.3459 21.0446L12.2744 20.5498L12.3459 21.0446ZM12.1584 21.0717L12.2299 21.5666L12.1584 21.0717ZM11.7834 21.0849L11.7464 21.5835L11.7834 21.0849ZM11.4084 21.0571L11.4454 20.5585L11.4084 21.0571ZM11.0334 20.9941L11.16 20.5104L11.0334 20.9941ZM10.6584 20.896L10.5318 21.3797L10.6584 20.896ZM10.2834 20.896L10.41 21.3797L10.2834 20.896ZM9.34591 21.0082L9.39253 20.5103L9.34591 21.0082ZM9.15841 20.9906L9.11179 21.4884L9.15841 20.9906ZM8.78341 20.9082L8.62003 21.3808L8.78341 20.9082ZM8.59591 20.8434L8.75928 20.3708L8.59591 20.8434ZM8.40841 20.7786L8.57178 20.306L8.40841 20.7786ZM7.84591 20.706L7.8356 21.2059L7.84591 20.706ZM7.65841 20.7022L7.66872 20.2023L7.65841 20.7022ZM7.28341 20.7998L7.52148 21.2395L7.28341 20.7998ZM6.90841 21.0029L6.67034 20.5632L6.90841 21.0029ZM6.53341 21.1386L6.62313 21.6305L6.53341 21.1386ZM6.15841 21.207L6.06869 20.7151L6.15841 21.207ZM6.02243 21.023L6.50905 21.1379L6.02243 21.023ZM6.07395 20.8048L5.58733 20.6899L6.07395 20.8048ZM6.12547 20.5865L6.61209 20.7014L6.12547 20.5865ZM5.67446 20.5704L6.17441 20.5634L5.67446 20.5704ZM5.68022 20.9803L5.18027 20.9874L5.68022 20.9803ZM5.50669 21.0998L5.28858 21.5497L5.50669 21.0998ZM5.33028 21.0143L5.5484 20.5643L5.33028 21.0143ZM5.15387 20.9287L5.37199 20.4788L5.15387 20.9287ZM4.79701 20.7848L4.95093 20.3091L4.79701 20.7848ZM4.61656 20.7264L4.77048 20.2507L4.61656 20.7264ZM4.43611 20.6681L4.28219 21.1438L4.43611 20.6681ZM4.08129 20.5321L3.878 20.9889L4.08129 20.5321ZM3.73256 20.3769L3.93585 19.9201L3.73256 20.3769ZM3.35158 19.9419L2.9187 20.1921L3.35158 19.9419ZM3.24828 19.7631L3.68116 19.5129L3.24828 19.7631ZM2.9728 19.5026L3.18745 19.051L2.9728 19.5026ZM2.62845 19.3389L2.8431 18.8873L2.62845 19.3389ZM2.38618 19.0783L1.9207 19.2609L2.38618 19.0783ZM2.24601 18.7209L2.7115 18.5383L2.24601 18.7209ZM1.9826 18.442L1.75265 18.886L1.9826 18.442ZM1.43483 17.9267L1.92932 18.0008L1.43483 17.9267ZM1.46701 17.7118L0.972523 17.6377L1.46701 17.7118ZM1.49919 17.4968L1.00471 17.4228L1.49919 17.4968ZM1.36959 17.1307L1.71099 16.7654L1.36959 17.1307ZM1.2078 16.9795L0.866401 17.3448L1.2078 16.9795ZM1.04601 16.8283L1.38741 16.463L1.04601 16.8283ZM0.924919 16.4806L1.41453 16.5819L0.924919 16.4806ZM1.00631 16.0875L1.49593 16.1889L1.00631 16.0875ZM0.970371 15.7003L0.506444 15.8868L0.970371 15.7003ZM0.817092 15.3189L1.28102 15.1325L0.817092 15.3189ZM0.827303 14.9454L0.375657 14.7309L0.827303 14.9454ZM1.001 14.5797L1.45265 14.7942L1.001 14.5797ZM1.11623 14.2096L0.621879 14.1347L1.11623 14.2096ZM1.17299 13.8351L1.66735 13.91L1.17299 13.8351ZM1.30259 13.4863L0.878908 13.2208L1.30259 13.4863ZM1.4038 13.3248L1.82748 13.5904L1.4038 13.3248ZM1.50501 13.1633L1.08133 12.8978L1.50501 13.1633ZM1.72178 12.8573L1.3313 12.5451L1.72178 12.8573ZM1.95288 12.5684L2.34336 12.8807L1.95288 12.5684ZM2.17836 12.2797L1.78069 11.9766L2.17836 12.2797ZM2.65998 11.7456L2.93753 12.1615L2.65998 11.7456ZM2.96365 11.543L2.68611 11.1271L2.96365 11.543ZM3.20757 11.2557L2.75953 11.0338L3.20757 11.2557ZM3.39174 10.884L3.83978 11.1059L3.39174 10.884ZM3.67839 10.6638L3.59165 10.1714L3.67839 10.6638ZM4.06754 10.5953L4.15429 11.0877L4.06754 10.5953ZM4.41822 10.4562L4.13946 10.0411L4.41822 10.4562ZM4.73043 10.2465L5.0092 10.6616L4.73043 10.2465ZM4.92589 10.1202L5.16526 10.5592L4.92589 10.1202ZM5.00459 10.0773L4.76523 9.63828L5.00459 10.0773ZM5.10383 9.87718L4.62976 9.71825L5.10383 9.87718ZM5.16371 9.69855L5.63778 9.85748L5.69766 9.67886L5.22359 9.51993L4.74952 9.361L4.68964 9.53963L5.16371 9.69855ZM5.22359 9.51993L5.69766 9.67886C5.74669 9.53261 5.78282 9.38332 5.80588 9.23127L5.31153 9.1563L4.81718 9.08134C4.80283 9.17595 4.78034 9.26908 4.74952 9.361L5.22359 9.51993ZM5.31153 9.1563L5.80588 9.23127L5.83393 9.04627L5.33959 8.9713L4.84524 8.89634L4.81718 9.08134L5.31153 9.1563ZM5.33959 8.9713L5.83393 9.04627L5.86199 8.86127L5.36764 8.7863L4.87329 8.71134L4.84524 8.89634L5.33959 8.9713ZM5.36764 8.7863L5.86199 8.86127C5.87647 8.7658 5.89892 8.67184 5.92949 8.57911L5.45464 8.42254L4.97979 8.26597C4.93177 8.41159 4.89622 8.56014 4.87329 8.71134L5.36764 8.7863ZM5.45464 8.42254L5.92949 8.57911L5.98844 8.40035L5.51358 8.24377L5.03873 8.0872L4.97979 8.26597L5.45464 8.42254ZM5.51358 8.24377L5.98844 8.40035L6.04738 8.22158L5.57253 8.06501L5.09768 7.90844L5.03873 8.0872L5.51358 8.24377ZM5.57253 8.06501L6.04738 8.22158C6.08199 8.11663 6.1216 8.01233 6.16629 7.90866L5.70713 7.71073L5.24798 7.5128C5.19179 7.64315 5.14166 7.77504 5.09768 7.90844L5.57253 8.06501ZM5.70713 7.71073L6.16629 7.90866L6.24195 7.73315L5.78279 7.53522L5.32364 7.33729L5.24798 7.5128L5.70713 7.71073ZM5.78279 7.53522L6.24195 7.73315L6.31761 7.55763L5.85845 7.3597L5.3993 7.16177L5.32364 7.33729L5.78279 7.53522ZM5.85845 7.3597L6.31761 7.55763C6.35128 7.47951 6.3939 7.40746 6.44594 7.34056L6.0513 7.03355L5.65665 6.72654C5.55245 6.86049 5.4665 7.00587 5.3993 7.16177L5.85845 7.3597ZM6.0513 7.03355L6.44594 7.34056L6.56313 7.18993L6.16848 6.88292L5.77384 6.57591L5.65665 6.72654L6.0513 7.03355ZM6.16848 6.88292L6.56313 7.18993L6.68031 7.03929L6.28567 6.73228L5.89102 6.42527L5.77384 6.57591L6.16848 6.88292ZM6.28567 6.73228L6.68031 7.03929C6.75976 6.93717 6.83883 6.83417 6.91751 6.7303L6.51896 6.42838L6.12041 6.12646C6.04429 6.22695 5.96782 6.32655 5.89102 6.42527L6.28567 6.73228ZM6.51896 6.42838L6.91751 6.7303L7.03362 6.57703L6.63507 6.27511L6.23651 5.97319L6.12041 6.12646L6.51896 6.42838ZM6.63507 6.27511L7.03362 6.57703L7.14973 6.42377L6.75117 6.12185L6.35262 5.81993L6.23651 5.97319L6.63507 6.27511ZM6.75117 6.12185L7.14973 6.42377C7.21794 6.33372 7.29072 6.24618 7.36813 6.16114L6.99839 5.82456L6.62864 5.48797C6.53125 5.59496 6.43922 5.70561 6.35262 5.81993L6.75117 6.12185ZM6.99839 5.82456L7.36813 6.16114L7.49924 6.01712L7.12949 5.68053L6.75975 5.34395L6.62864 5.48797L6.99839 5.82456ZM7.12949 5.68053L7.49924 6.01712L7.63034 5.8731L7.2606 5.53651L6.89086 5.19993L6.75975 5.34395L7.12949 5.68053ZM7.2606 5.53651L7.63034 5.8731C7.6807 5.81778 7.73767 5.7729 7.80296 5.73703L7.56218 5.29882L7.32139 4.86062C7.15939 4.94963 7.01531 5.06322 6.89086 5.19993L7.2606 5.53651ZM7.56218 5.29882L7.80296 5.73703L7.97343 5.64336L7.73265 5.20516L7.49187 4.76695L7.32139 4.86062L7.56218 5.29882ZM7.73265 5.20516L7.97343 5.64336L8.1439 5.54969L7.90312 5.11149L7.66234 4.67328L7.49187 4.76695L7.73265 5.20516ZM7.90312 5.11149L8.1439 5.54969C8.16881 5.53601 8.20679 5.52312 8.27331 5.52559L8.29189 5.02594L8.31047 4.52628C8.08592 4.51793 7.86472 4.56208 7.66234 4.67328L7.90312 5.11149ZM8.29189 5.02594L8.27331 5.52559L8.49162 5.53371L8.5102 5.03405L8.52878 4.5344L8.31047 4.52628L8.29189 5.02594ZM8.5102 5.03405L8.49162 5.53371L8.70993 5.54183L8.72851 5.04217L8.74709 4.54252L8.52878 4.5344L8.5102 5.03405ZM8.72851 5.04217L8.70993 5.54183C9.02699 5.55362 9.30312 5.41423 9.48285 5.154L9.07143 4.86986L8.66001 4.58572C8.65927 4.5868 8.67096 4.57042 8.69889 4.55639C8.72691 4.54231 8.74748 4.54253 8.74709 4.54252L8.72851 5.04217ZM9.07143 4.86986L9.48285 5.154L9.60746 4.97356L9.19604 4.68942L8.78463 4.40528L8.66001 4.58572L9.07143 4.86986ZM9.19604 4.68942L9.60746 4.97356L9.73208 4.79313L9.32066 4.50899L8.90924 4.22485L8.78463 4.40528L9.19604 4.68942ZM9.32066 4.50899L9.73208 4.79313C9.73937 4.78256 9.73562 4.79172 9.71587 4.80328C9.70639 4.80883 9.69582 4.81336 9.68505 4.81642C9.67441 4.81945 9.66617 4.82031 9.66163 4.82049L9.64213 4.32087L9.62262 3.82125C9.31472 3.83327 9.07013 3.9919 8.90924 4.22485L9.32066 4.50899ZM9.64213 4.32087L9.66163 4.82049L9.85849 4.8128L9.83898 4.31318L9.81948 3.81356L9.62262 3.82125L9.64213 4.32087ZM9.83898 4.31318L9.85849 4.8128L10.0553 4.80512L10.0358 4.3055L10.0163 3.80588L9.81948 3.81356L9.83898 4.31318ZM10.0358 4.3055L10.0553 4.80512C10.2397 4.79792 10.419 4.76187 10.5905 4.69558L10.4103 4.22919L10.2301 3.76279C10.1648 3.78801 10.0945 3.80283 10.0163 3.80588L10.0358 4.3055ZM10.4103 4.22919L10.5905 4.69558L10.7681 4.62696L10.5879 4.16056L10.4077 3.69417L10.2301 3.76279L10.4103 4.22919ZM10.5879 4.16056L10.7681 4.62696L10.9457 4.55833L10.7655 4.09194L10.5853 3.62554L10.4077 3.69417L10.5879 4.16056ZM10.7655 4.09194L10.9457 4.55833C11.0219 4.5289 11.0995 4.51054 11.1798 4.50279L11.1317 4.00511L11.0837 3.50742C10.9124 3.52395 10.7459 3.56348 10.5853 3.62554L10.7655 4.09194ZM11.1317 4.00511L11.1798 4.50279L11.3684 4.48458L11.3203 3.9869L11.2723 3.48921L11.0837 3.50742L11.1317 4.00511ZM11.3203 3.9869L11.3684 4.48458L11.557 4.46637L11.5089 3.96869L11.4609 3.471L11.2723 3.48921L11.3203 3.9869ZM11.5089 3.96869L11.557 4.46637C11.6236 4.45993 11.6909 4.46492 11.7614 4.48295L11.8854 3.99856L12.0093 3.51417C11.8293 3.46809 11.6456 3.45316 11.4609 3.471L11.5089 3.96869ZM11.8854 3.99856L11.7614 4.48295L11.9492 4.53103L12.0732 4.04664L12.1972 3.56226L12.0093 3.51417L11.8854 3.99856ZM12.0732 4.04664L11.9492 4.53103L12.1371 4.57911L12.2611 4.09472L12.385 3.61034L12.1972 3.56226L12.0732 4.04664ZM12.2611 4.09472L12.1371 4.57911C12.2987 4.62047 12.4622 4.64304 12.6267 4.64533L12.6337 4.14537L12.6406 3.64542C12.5588 3.64428 12.4739 3.63308 12.385 3.61034L12.2611 4.09472ZM12.6337 4.14537L12.6267 4.64533L12.8115 4.64789L12.8185 4.14794L12.8254 3.64799L12.6406 3.64542L12.6337 4.14537ZM12.8185 4.14794L12.8115 4.64789L12.9963 4.65046L13.0033 4.15051L13.0102 3.65056L12.8254 3.64799L12.8185 4.14794ZM13.0033 4.15051L12.9963 4.65046C13.1121 4.65207 13.2287 4.65628 13.3463 4.66308L13.3752 4.16392L13.4041 3.66476C13.2721 3.65711 13.1408 3.65238 13.0102 3.65056L13.0033 4.15051ZM13.3752 4.16392L13.3463 4.66308L13.5334 4.67392L13.5623 4.17476L13.5913 3.67559L13.4041 3.66476L13.3752 4.16392ZM13.5623 4.17476L13.5334 4.67392L13.7206 4.68476L13.7495 4.18559L13.7784 3.68643L13.5913 3.67559L13.5623 4.17476ZM13.7495 4.18559L13.7206 4.68476C13.8308 4.69114 13.9419 4.70239 14.0537 4.71857L14.1253 4.22372L14.1969 3.72887C14.0572 3.70867 13.9177 3.6945 13.7784 3.68643L13.7495 4.18559ZM14.1253 4.22372L14.0537 4.71857L14.2424 4.74586L14.3139 4.25101L14.3855 3.75616L14.1969 3.72887L14.1253 4.22372ZM14.3139 4.25101L14.2424 4.74586L14.431 4.77315L14.5026 4.2783L14.5742 3.78345L14.3855 3.75616L14.3139 4.25101ZM14.5026 4.2783L14.431 4.77315C14.4755 4.77958 14.5143 4.79503 14.5537 4.8236L14.8474 4.41897L15.1412 4.01434C14.9723 3.89173 14.7813 3.8134 14.5742 3.78345L14.5026 4.2783ZM14.8474 4.41897L14.5537 4.8236L14.7099 4.93698L15.0036 4.53235L15.2974 4.12773L15.1412 4.01434L14.8474 4.41897ZM15.0036 4.53235L14.7099 4.93698L14.8661 5.05037L15.1598 4.64574L15.4536 4.24111L15.2974 4.12773L15.0036 4.53235ZM15.1598 4.64574L14.8661 5.05037C14.9998 5.14742 15.1421 5.22847 15.2926 5.29242L15.4881 4.8322L15.6835 4.37199C15.6047 4.3385 15.5281 4.29524 15.4536 4.24111L15.1598 4.64574ZM15.4881 4.8322L15.2926 5.29242L15.4647 5.3655L15.6602 4.90528L15.8556 4.44507L15.6835 4.37199L15.4881 4.8322ZM15.6602 4.90528L15.4647 5.3655L15.6368 5.43858L15.8322 4.97836L16.0277 4.51815L15.8556 4.44507L15.6602 4.90528ZM15.8322 4.97836L15.6368 5.43858C15.6758 5.45513 15.7091 5.47927 15.7407 5.51749L16.1263 5.19922L16.5119 4.88094C16.3808 4.72214 16.2182 4.59904 16.0277 4.51815L15.8322 4.97836ZM16.1263 5.19922L15.7407 5.51749L15.8626 5.66527L16.2482 5.34699L16.6339 5.02871L16.5119 4.88094L16.1263 5.19922ZM16.2482 5.34699L15.8626 5.66527L15.9846 5.81304L16.3702 5.49476L16.7558 5.17648L16.6339 5.02871L16.2482 5.34699ZM16.3702 5.49476L15.9846 5.81304C16.1029 5.95637 16.2431 6.07605 16.4039 6.16901L16.6541 5.73612L16.9043 5.30323C16.8492 5.2714 16.8001 5.23017 16.7558 5.17648L16.3702 5.49476ZM16.6541 5.73612L16.4039 6.16901L16.5658 6.2626L16.816 5.8297L17.0662 5.39681L16.9043 5.30323L16.6541 5.73612ZM16.816 5.8297L16.5658 6.2626L16.7277 6.35618L16.9779 5.92329L17.2281 5.4904L17.0662 5.39681L16.816 5.8297ZM16.9779 5.92329L16.7277 6.35618C16.7838 6.3886 16.8301 6.42816 16.8693 6.47623L17.2568 6.16021L17.6442 5.84419C17.5276 5.70115 17.3879 5.58277 17.2281 5.4904L16.9779 5.92329ZM17.2568 6.16021L16.8693 6.47623L16.9862 6.61956L17.3736 6.30354L17.7611 5.98752L17.6442 5.84419L17.2568 6.16021ZM17.3736 6.30354L16.9862 6.61956L17.1031 6.76289L17.4905 6.44687L17.878 6.13085L17.7611 5.98752L17.3736 6.30354ZM17.4905 6.44687L17.1031 6.76289C17.219 6.90499 17.358 7.02383 17.515 7.12095L17.778 6.69574L18.0411 6.27054C17.9706 6.22693 17.918 6.17985 17.878 6.13085L17.4905 6.44687ZM17.778 6.69574L17.515 7.12095L17.6856 7.2265L17.9487 6.80129L18.2117 6.37608L18.0411 6.27054L17.778 6.69574ZM17.9487 6.80129L17.6856 7.2265L17.8562 7.33204L18.1193 6.90684L18.3823 6.48163L18.2117 6.37608L17.9487 6.80129ZM18.1193 6.90684L17.8562 7.33204C17.8599 7.33435 17.8608 7.33532 17.8598 7.33446C17.8588 7.33354 17.8569 7.33154 17.8547 7.32854C17.8525 7.32553 17.851 7.32279 17.8502 7.32098C17.8494 7.31925 17.8498 7.31958 17.8506 7.32281L18.3365 7.20519L18.8225 7.08756C18.76 6.82955 18.6065 6.62033 18.3823 6.48163L18.1193 6.90684ZM18.3365 7.20519L17.8506 7.32281L17.8972 7.51562L18.3832 7.39799L18.8692 7.28036L18.8225 7.08756L18.3365 7.20519ZM18.3832 7.39799L17.8972 7.51562L17.9439 7.70843L18.4299 7.5908L18.9158 7.47317L18.8692 7.28036L18.3832 7.39799ZM18.4299 7.5908L17.9439 7.70843C17.9997 7.93907 18.1224 8.14017 18.3099 8.29223L18.6249 7.90388L18.9398 7.51552C18.9295 7.50722 18.9222 7.4996 18.9158 7.47317L18.4299 7.5908ZM18.6249 7.90388L18.3099 8.29223L18.4582 8.41251L18.7732 8.02415L19.0881 7.63579L18.9398 7.51552L18.6249 7.90388ZM18.7732 8.02415L18.4582 8.41251L18.6066 8.53278L18.9215 8.14442L19.2364 7.75606L19.0881 7.63579L18.7732 8.02415ZM18.9215 8.14442L18.6066 8.53278C18.7238 8.62783 18.8463 8.71348 18.9742 8.78936L19.2293 8.35935L19.4845 7.92935C19.3996 7.87901 19.3169 7.82138 19.2364 7.75606L18.9215 8.14442ZM19.2293 8.35935L18.9742 8.78936L19.1337 8.88401L19.3889 8.45401L19.644 8.024L19.4845 7.92935L19.2293 8.35935ZM19.3889 8.45401L19.1337 8.88401L19.2933 8.97867L19.5484 8.54867L19.8035 8.11866L19.644 8.024L19.3889 8.45401ZM19.5484 8.54867L19.2933 8.97867C19.3821 9.03139 19.4671 9.08915 19.5484 9.15199L19.8542 8.75639L20.16 8.36078C20.0462 8.27288 19.9274 8.19215 19.8035 8.11866L19.5484 8.54867ZM19.8542 8.75639L19.5484 9.15199L19.6947 9.26505L20.0005 8.86945L20.3063 8.47385L20.16 8.36078L19.8542 8.75639ZM20.0005 8.86945L19.6947 9.26505L19.841 9.37811L20.1468 8.98251L20.4525 8.58691L20.3063 8.47385L20.0005 8.86945ZM20.1468 8.98251L19.841 9.37811C19.9181 9.43773 19.9897 9.50255 20.056 9.57269L20.4194 9.22917L20.7827 8.88565C20.6805 8.77765 20.5704 8.67804 20.4525 8.58691L20.1468 8.98251ZM20.4194 9.22917L20.056 9.57269L20.1824 9.70629L20.5457 9.36277L20.909 9.01925L20.7827 8.88565L20.4194 9.22917ZM20.5457 9.36277L20.1824 9.70629L20.3087 9.83989L20.672 9.49637L21.0353 9.15285L20.909 9.01925L20.5457 9.36277ZM20.672 9.49637L20.3087 9.83989C20.4383 9.97695 20.5913 10.0852 20.7615 10.1669L20.9779 9.71624L21.1944 9.26553C21.1251 9.23225 21.0742 9.19393 21.0353 9.15285L20.672 9.49637ZM20.9779 9.71624L20.7615 10.1669L20.9411 10.2532L21.1576 9.80251L21.374 9.3518L21.1944 9.26553L20.9779 9.71624ZM21.1576 9.80251L20.9411 10.2532L21.1207 10.3395L21.3372 9.88878L21.5537 9.43807L21.374 9.3518L21.1576 9.80251ZM21.3372 9.88878L21.1207 10.3395C21.1746 10.3654 21.2118 10.3966 21.2403 10.433L21.634 10.1248L22.0277 9.81655C21.9 9.65334 21.7392 9.52719 21.5537 9.43807L21.3372 9.88878ZM21.634 10.1248L21.2403 10.433L21.3575 10.5827L21.7512 10.2745L22.1449 9.96627L22.0277 9.81655L21.634 10.1248ZM21.7512 10.2745L21.3575 10.5827L21.4748 10.7324L21.8685 10.4242L22.2622 10.116L22.1449 9.96627L21.7512 10.2745ZM21.8685 10.4242L21.4748 10.7324C21.5603 10.8417 21.6509 10.9493 21.7464 11.0552L22.1177 10.7203L22.489 10.3854C22.4085 10.2962 22.3329 10.2063 22.2622 10.116L21.8685 10.4242ZM22.1177 10.7203L21.7464 11.0552L21.8784 11.2015L22.2497 10.8667L22.621 10.5318L22.489 10.3854L22.1177 10.7203ZM22.2497 10.8667L21.8784 11.2015L22.0104 11.3479L22.3817 11.013L22.753 10.6781L22.621 10.5318L22.2497 10.8667ZM22.3817 11.013L22.0104 11.3479C22.0489 11.3905 22.074 11.4358 22.0894 11.4881L22.569 11.3466L23.0485 11.205C22.9903 11.0078 22.8906 10.8307 22.753 10.6781L22.3817 11.013ZM22.569 11.3466L22.0894 11.4881L22.1447 11.6753L22.6242 11.5337L23.1038 11.3922L23.0485 11.205L22.569 11.3466ZM22.6242 11.5337L22.1447 11.6753L22.1999 11.8624L22.6795 11.7209L23.159 11.5794L23.1038 11.3922L22.6242 11.5337ZM22.6795 11.7209L22.1999 11.8624C22.2275 11.9559 22.2455 12.0503 22.2541 12.1462L22.7521 12.1013L23.2501 12.0565C23.2355 11.8947 23.2051 11.7355 23.159 11.5794L22.6795 11.7209ZM22.7521 12.1013L22.2541 12.1462L22.2715 12.3394L22.7695 12.2946L23.2675 12.2497L23.2501 12.0565L22.7521 12.1013ZM22.7695 12.2946L22.2715 12.3394L22.289 12.5327L22.7869 12.4878L23.2849 12.4429L23.2675 12.2497L22.7695 12.2946ZM22.7869 12.4878L22.289 12.5327C22.2983 12.6359 22.2995 12.7378 22.2927 12.8388L22.7916 12.872L23.2905 12.9053C23.3008 12.7516 23.2988 12.5974 23.2849 12.4429L22.7869 12.4878ZM22.7916 12.872L22.2927 12.8388L22.28 13.0297L22.7789 13.063L23.2778 13.0962L23.2905 12.9053L22.7916 12.872ZM22.7789 13.063L22.28 13.0297L22.2673 13.2207L22.7661 13.2539L23.265 13.2872L23.2778 13.0962L22.7789 13.063ZM22.7661 13.2539L22.2673 13.2207C22.2548 13.4081 22.2759 13.5931 22.331 13.7726L22.809 13.6258L23.2869 13.479C23.268 13.4173 23.2606 13.3544 23.265 13.2872L22.7661 13.2539ZM22.809 13.6258L22.331 13.7726L22.3866 13.9535L22.8645 13.8067L23.3425 13.66L23.2869 13.479L22.809 13.6258ZM22.8645 13.8067L22.3866 13.9535L22.4421 14.1345L22.9201 13.9877L23.3981 13.8409L23.3425 13.66L22.8645 13.8067ZM22.9201 13.9877L22.4421 14.1345C22.4593 14.1902 22.4641 14.2437 22.4579 14.2992L22.9548 14.3549L23.4517 14.4106C23.4733 14.2177 23.455 14.0263 23.3981 13.8409L22.9201 13.9877ZM22.9548 14.3549L22.4579 14.2992L22.437 14.4855L22.9339 14.5412L23.4308 14.5969L23.4517 14.4106L22.9548 14.3549ZM22.9339 14.5412L22.437 14.4855L22.4161 14.6718L22.913 14.7275L23.4099 14.7832L23.4308 14.5969L22.9339 14.5412ZM22.913 14.7275L22.4161 14.6718C22.4031 14.7879 22.3874 14.9026 22.3689 15.016L22.8625 15.0962L23.356 15.1764C23.3771 15.0466 23.395 14.9155 23.4099 14.7832L22.913 14.7275ZM22.8625 15.0962L22.3689 15.016L22.3393 15.1983L22.8328 15.2785L23.3263 15.3587L23.356 15.1764L22.8625 15.0962ZM22.8328 15.2785L22.3393 15.1983L22.3097 15.3807L22.8032 15.4609L23.2967 15.5411L23.3263 15.3587L22.8328 15.2785ZM22.8032 15.4609L22.3097 15.3807C22.2916 15.492 22.2701 15.6021 22.2453 15.7111L22.7328 15.8221L23.2203 15.9331C23.2498 15.8036 23.2753 15.6729 23.2967 15.5411L22.8032 15.4609ZM22.7328 15.8221L22.2453 15.7111L22.2046 15.89L22.6921 16.001L23.1796 16.112L23.2203 15.9331L22.7328 15.8221ZM22.6921 16.001L22.2046 15.89L22.1638 16.0688L22.6514 16.1798L23.1389 16.2909L23.1796 16.112L22.6921 16.001ZM22.6514 16.1798L22.1638 16.0688C22.1241 16.2434 22.1142 16.4225 22.1295 16.6033L22.6278 16.5611L23.126 16.519C23.1184 16.4299 23.1243 16.3548 23.1389 16.2909L22.6514 16.1798ZM22.6278 16.5611L22.1295 16.6033L22.1467 16.8057L22.6449 16.7636L23.1431 16.7214L23.126 16.519L22.6278 16.5611ZM22.6449 16.7636L22.1467 16.8057L22.1638 17.0082L22.662 16.966L23.1602 16.9239L23.1431 16.7214L22.6449 16.7636ZM22.662 16.966L22.1638 17.0082C22.1638 17.0084 22.1634 17.0039 22.1645 16.9956C22.1657 16.9872 22.1682 16.9769 22.1725 16.966C22.1821 16.9421 22.1942 16.9307 22.1942 16.9308L22.5266 17.3042L22.8591 17.6777C23.0777 17.4831 23.185 17.2167 23.1602 16.9239L22.662 16.966ZM22.5266 17.3042L22.1942 16.9308L22.0416 17.0666L22.3741 17.44L22.7066 17.8135L22.8591 17.6777L22.5266 17.3042ZM22.3741 17.44L22.0416 17.0666L21.8891 17.2023L22.2216 17.5758L22.554 17.9493L22.7066 17.8135L22.3741 17.44ZM22.2216 17.5758L21.8891 17.2023C21.7205 17.3524 21.5978 17.5406 21.5356 17.7618L22.0169 17.8971L22.4983 18.0324C22.5056 18.0063 22.5193 17.9802 22.554 17.9493L22.2216 17.5758ZM22.0169 17.8971L21.5356 17.7618L21.4834 17.9473L21.9648 18.0826L22.4462 18.2179L22.4983 18.0324L22.0169 17.8971ZM21.9648 18.0826L21.4834 17.9473L21.4313 18.1328L21.9127 18.2681L22.394 18.4034L22.4462 18.2179L21.9648 18.0826ZM21.9127 18.2681L21.4313 18.1328C21.4305 18.1357 21.4301 18.1361 21.4308 18.1348C21.4315 18.1333 21.4328 18.1312 21.4345 18.1289C21.4363 18.1266 21.4377 18.1253 21.4381 18.1249C21.4384 18.1246 21.437 18.1259 21.4329 18.1284L21.6926 18.5557L21.9523 18.983C22.17 18.8506 22.3243 18.6516 22.394 18.4034L21.9127 18.2681ZM21.6926 18.5557L21.4329 18.1284L21.265 18.2305L21.5246 18.6578L21.7843 19.085L21.9523 18.983L21.6926 18.5557ZM21.5246 18.6578L21.265 18.2305L21.097 18.3326L21.3567 18.7598L21.6164 19.1871L21.7843 19.085L21.5246 18.6578ZM21.3567 18.7598L21.097 18.3326C20.9397 18.4282 20.8007 18.5466 20.6852 18.6891L21.0736 19.004L21.462 19.3189C21.5 19.2719 21.5498 19.2276 21.6164 19.1871L21.3567 18.7598ZM21.0736 19.004L20.6852 18.6891L20.57 18.8311L20.9584 19.146L21.3468 19.4609L21.462 19.3189L21.0736 19.004ZM20.9584 19.146L20.57 18.8311L20.4548 18.9732L20.8432 19.2881L21.2316 19.603L21.3468 19.4609L20.9584 19.146ZM20.8432 19.2881L20.4548 18.9732C20.367 19.0815 20.2829 19.1969 20.2024 19.319L20.6197 19.5943L21.0371 19.8696C21.101 19.7728 21.1659 19.684 21.2316 19.603L20.8432 19.2881ZM20.6197 19.5943L20.2024 19.319L20.0941 19.4832L20.5115 19.7585L20.9288 20.0338L21.0371 19.8696L20.6197 19.5943ZM20.5115 19.7585L20.0941 19.4832L19.9858 19.6475L20.4032 19.9227L20.8205 20.198L20.9288 20.0338L20.5115 19.7585ZM20.4032 19.9227L19.9858 19.6475C19.9495 19.7025 19.9081 19.7432 19.8604 19.7747L20.136 20.1919L20.4116 20.6091C20.5758 20.5006 20.7124 20.362 20.8205 20.198L20.4032 19.9227ZM20.136 20.1919L19.8604 19.7747L19.7016 19.8796L19.9772 20.2968L20.2528 20.714L20.4116 20.6091L20.136 20.1919ZM19.9772 20.2968L19.7016 19.8796L19.5427 19.9846L19.8184 20.4017L20.094 20.8189L20.2528 20.714L19.9772 20.2968ZM19.8184 20.4017L19.5427 19.9846C19.4832 20.0239 19.4188 20.0527 19.3475 20.0713L19.4735 20.5551L19.5996 21.039C19.7762 20.993 19.9418 20.9195 20.094 20.8189L19.8184 20.4017ZM19.4735 20.5551L19.3475 20.0713L19.1615 20.1197L19.2876 20.6036L19.4136 21.0874L19.5996 21.039L19.4735 20.5551ZM19.2876 20.6036L19.1615 20.1197L18.9755 20.1682L19.1016 20.652L19.2276 21.1359L19.4136 21.0874L19.2876 20.6036ZM19.1016 20.652L18.9755 20.1682C18.8384 20.2039 18.7113 20.2433 18.5964 20.2871L18.7746 20.7543L18.9528 21.2215C19.0258 21.1936 19.1168 21.1648 19.2276 21.1359L19.1016 20.652ZM18.7746 20.7543L18.5964 20.2871L18.4553 20.3409L18.6335 20.8081L18.8117 21.2753L18.9528 21.2215L18.7746 20.7543ZM18.6335 20.8081L18.4553 20.3409L18.3143 20.3947L18.4925 20.8619L18.6707 21.329L18.8117 21.2753L18.6335 20.8081ZM18.4925 20.8619L18.3143 20.3947C18.3709 20.3731 18.4944 20.3522 18.6213 20.4262C18.6744 20.4571 18.7072 20.4936 18.725 20.5179C18.7422 20.5414 18.7484 20.5575 18.7484 20.5577L18.2827 20.7396L17.817 20.9215C17.8594 21.0302 17.9442 21.189 18.1178 21.2902C18.3146 21.4049 18.5201 21.3865 18.6707 21.329L18.4925 20.8619ZM18.2827 20.7396L18.7484 20.5577L18.6797 20.3816L18.2139 20.5636L17.7482 20.7455L17.817 20.9215L18.2827 20.7396ZM18.2139 20.5636L18.6797 20.3816L18.6109 20.2056L18.1452 20.3875L17.6794 20.5694L17.7482 20.7455L18.2139 20.5636ZM18.1452 20.3875L18.6109 20.2056C18.5923 20.1581 18.5556 20.0638 18.5054 19.991C18.4943 19.9748 18.4509 19.9115 18.3738 19.8572C18.3329 19.8285 18.2501 19.7791 18.1328 19.7675C17.9973 19.754 17.8658 19.796 17.7651 19.8781C17.6782 19.9489 17.6369 20.0304 17.6187 20.0736C17.599 20.1202 17.5901 20.1605 17.5858 20.1845C17.5772 20.2319 17.5768 20.2719 17.5769 20.2916L18.0769 20.2884L18.5769 20.2852C18.5769 20.2921 18.5771 20.3218 18.5699 20.3617C18.5663 20.382 18.5583 20.4192 18.5396 20.4633C18.5224 20.504 18.4823 20.5837 18.3968 20.6533C18.2975 20.7343 18.1676 20.7758 18.0339 20.7626C17.9183 20.7511 17.8375 20.7026 17.7987 20.6753C17.7258 20.624 17.6874 20.5663 17.682 20.5584C17.6546 20.5186 17.6521 20.4995 17.6794 20.5694L18.1452 20.3875ZM18.0769 20.2884L17.5769 20.2916L17.5774 20.3686L18.0774 20.3654L18.5774 20.3622L18.5769 20.2852L18.0769 20.2884ZM18.0774 20.3654L17.5774 20.3686L17.5779 20.4455L18.0779 20.4423L18.5779 20.4392L18.5774 20.3622L18.0774 20.3654ZM18.0779 20.4423L17.5779 20.4455C17.5778 20.4374 17.5793 20.441 17.5737 20.4589L18.0515 20.6063L18.5293 20.7538C18.5595 20.6557 18.5786 20.5499 18.5779 20.4392L18.0779 20.4423ZM18.0515 20.6063L17.5737 20.4589L17.5469 20.5459L18.0246 20.6934L18.5024 20.8408L18.5293 20.7538L18.0515 20.6063ZM18.0246 20.6934L17.5469 20.5459L17.52 20.6329L17.9978 20.7804L18.4755 20.9279L18.5024 20.8408L18.0246 20.6934ZM17.9978 20.7804L17.52 20.6329C17.5651 20.487 17.6713 20.4162 17.7264 20.3916C17.7714 20.3714 17.7925 20.3754 17.7595 20.377L17.7834 20.8764L17.8074 21.3758C17.8993 21.3714 18.0187 21.3564 18.1351 21.3042C18.2616 21.2476 18.4126 21.1318 18.4755 20.9279L17.9978 20.7804ZM17.7834 20.8764L17.7595 20.377L17.572 20.386L17.5959 20.8854L17.6199 21.3848L17.8074 21.3758L17.7834 20.8764ZM17.5959 20.8854L17.572 20.386L17.3845 20.395L17.4084 20.8944L17.4324 21.3938L17.6199 21.3848L17.5959 20.8854ZM17.4084 20.8944L17.3845 20.395C17.2997 20.399 17.2143 20.393 17.1275 20.3764L17.0334 20.8675L16.9394 21.3585C17.1026 21.3898 17.2672 21.4017 17.4324 21.3938L17.4084 20.8944ZM17.0334 20.8675L17.1275 20.3764L16.94 20.3405L16.8459 20.8316L16.7519 21.3226L16.9394 21.3585L17.0334 20.8675ZM16.8459 20.8316L16.94 20.3405L16.7525 20.3046L16.6584 20.7956L16.5644 21.2867L16.7519 21.3226L16.8459 20.8316ZM16.6584 20.7956L16.7525 20.3046C16.5789 20.2713 16.4035 20.2641 16.2281 20.2837L16.2834 20.7806L16.3387 21.2775C16.4133 21.2692 16.488 21.2721 16.5644 21.2867L16.6584 20.7956ZM16.2834 20.7806L16.2281 20.2837L16.0406 20.3045L16.0959 20.8014L16.1512 21.2984L16.3387 21.2775L16.2834 20.7806ZM16.0959 20.8014L16.0406 20.3045L15.8531 20.3254L15.9084 20.8223L15.9637 21.3192L16.1512 21.2984L16.0959 20.8014ZM15.9084 20.8223L15.8531 20.3254C15.6971 20.3427 15.5426 20.3746 15.3898 20.4204L15.5334 20.8994L15.677 21.3783C15.7742 21.3492 15.8697 21.3297 15.9637 21.3192L15.9084 20.8223ZM15.5334 20.8994L15.3898 20.4204L15.2023 20.4766L15.3459 20.9556L15.4895 21.4345L15.677 21.3783L15.5334 20.8994ZM15.3459 20.9556L15.2023 20.4766L15.0148 20.5328L15.1584 21.0118L15.302 21.4907L15.4895 21.4345L15.3459 20.9556ZM15.1584 21.0118L15.0148 20.5328C14.9446 20.5539 14.8793 20.5609 14.8163 20.5567L14.7834 21.0556L14.7505 21.5545C14.9375 21.5669 15.1222 21.5446 15.302 21.4907L15.1584 21.0118ZM14.7834 21.0556L14.8163 20.5567L14.6288 20.5443L14.5959 21.0432L14.563 21.5422L14.7505 21.5545L14.7834 21.0556ZM14.5959 21.0432L14.6288 20.5443L14.4413 20.5319L14.4084 21.0309L14.3755 21.5298L14.563 21.5422L14.5959 21.0432ZM14.4084 21.0309L14.4413 20.5319C14.2758 20.521 14.1107 20.5302 13.9468 20.559L14.0334 21.0515L14.12 21.5439C14.2061 21.5288 14.291 21.5242 14.3755 21.5298L14.4084 21.0309ZM14.0334 21.0515L13.9468 20.559L13.7593 20.592L13.8459 21.0844L13.9325 21.5769L14.12 21.5439L14.0334 21.0515ZM13.8459 21.0844L13.7593 20.592L13.5718 20.625L13.6584 21.1174L13.745 21.6099L13.9325 21.5769L13.8459 21.0844ZM13.6584 21.1174L13.5718 20.625C13.5105 20.6358 13.4503 20.6348 13.3877 20.6214L13.2834 21.1104L13.1791 21.5994C13.3665 21.6394 13.5563 21.6431 13.745 21.6099L13.6584 21.1174ZM13.2834 21.1104L13.3877 20.6214L13.2002 20.5814L13.0959 21.0704L12.9916 21.5594L13.1791 21.5994L13.2834 21.1104ZM13.0959 21.0704L13.2002 20.5814L13.0127 20.5414L12.9084 21.0304L12.8041 21.5195L12.9916 21.5594L13.0959 21.0704ZM12.9084 21.0304L13.0127 20.5414C12.8306 20.5026 12.6461 20.4961 12.4619 20.5227L12.5334 21.0175L12.6049 21.5124C12.6707 21.5029 12.7362 21.505 12.8041 21.5195L12.9084 21.0304ZM12.5334 21.0175L12.4619 20.5227L12.2744 20.5498L12.3459 21.0446L12.4174 21.5395L12.6049 21.5124L12.5334 21.0175ZM12.3459 21.0446L12.2744 20.5498L12.0869 20.5769L12.1584 21.0717L12.2299 21.5666L12.4174 21.5395L12.3459 21.0446ZM12.1584 21.0717L12.0869 20.5769C11.9976 20.5898 11.9089 20.5928 11.8204 20.5863L11.7834 21.0849L11.7464 21.5835C11.9079 21.5955 12.0693 21.5898 12.2299 21.5666L12.1584 21.0717ZM11.7834 21.0849L11.8204 20.5863L11.6329 20.5724L11.5959 21.071L11.5589 21.5696L11.7464 21.5835L11.7834 21.0849ZM11.5959 21.071L11.6329 20.5724L11.4454 20.5585L11.4084 21.0571L11.3714 21.5557L11.5589 21.5696L11.5959 21.071ZM11.4084 21.0571L11.4454 20.5585C11.3516 20.5515 11.2565 20.5357 11.16 20.5104L11.0334 20.9941L10.9068 21.4778C11.0603 21.518 11.2153 21.5441 11.3714 21.5557L11.4084 21.0571ZM11.0334 20.9941L11.16 20.5104L10.9725 20.4613L10.8459 20.9451L10.7193 21.4288L10.9068 21.4778L11.0334 20.9941ZM10.8459 20.9451L10.9725 20.4613L10.785 20.4123L10.6584 20.896L10.5318 21.3797L10.7193 21.4288L10.8459 20.9451ZM10.6584 20.896L10.785 20.4123C10.577 20.3578 10.3648 20.3579 10.1568 20.4123L10.2834 20.896L10.41 21.3797C10.452 21.3687 10.4898 21.3687 10.5318 21.3797L10.6584 20.896ZM10.2834 20.896L10.1568 20.4123L9.96927 20.4614L10.0959 20.9451L10.2225 21.4288L10.41 21.3797L10.2834 20.896ZM10.0959 20.9451L9.96927 20.4614L9.78177 20.5105L9.90841 20.9942L10.035 21.4779L10.2225 21.4288L10.0959 20.9451ZM9.90841 20.9942L9.78177 20.5105C9.71158 20.5289 9.6452 20.534 9.58003 20.5279L9.53341 21.0257L9.48679 21.5235C9.67162 21.5409 9.85524 21.525 10.035 21.4779L9.90841 20.9942ZM9.53341 21.0257L9.58003 20.5279L9.39253 20.5103L9.34591 21.0082L9.29929 21.506L9.48679 21.5235L9.53341 21.0257ZM9.34591 21.0082L9.39253 20.5103L9.20503 20.4928L9.15841 20.9906L9.11179 21.4884L9.29929 21.506L9.34591 21.0082ZM9.15841 20.9906L9.20503 20.4928C9.12188 20.485 9.03603 20.4665 8.94678 20.4357L8.78341 20.9082L8.62003 21.3808C8.78079 21.4364 8.94493 21.4728 9.11179 21.4884L9.15841 20.9906ZM8.78341 20.9082L8.94678 20.4357L8.75928 20.3708L8.59591 20.8434L8.43253 21.316L8.62003 21.3808L8.78341 20.9082ZM8.59591 20.8434L8.75928 20.3708L8.57178 20.306L8.40841 20.7786L8.24503 21.2511L8.43253 21.316L8.59591 20.8434ZM8.40841 20.7786L8.57178 20.306C8.40036 20.2468 8.2238 20.2137 8.04372 20.21L8.03341 20.7099L8.0231 21.2098C8.09302 21.2112 8.16645 21.224 8.24503 21.2511L8.40841 20.7786ZM8.03341 20.7099L8.04372 20.21L7.85622 20.2061L7.84591 20.706L7.8356 21.2059L8.0231 21.2098L8.03341 20.7099ZM7.84591 20.706L7.85622 20.2061L7.66872 20.2023L7.65841 20.7022L7.6481 21.202L7.8356 21.2059L7.84591 20.706ZM7.65841 20.7022L7.66872 20.2023C7.4458 20.1977 7.23592 20.2569 7.04534 20.3601L7.28341 20.7998L7.52148 21.2395C7.5809 21.2073 7.62101 21.2015 7.6481 21.202L7.65841 20.7022ZM7.28341 20.7998L7.04534 20.3601L6.85784 20.4616L7.09591 20.9013L7.33398 21.341L7.52148 21.2395L7.28341 20.7998ZM7.09591 20.9013L6.85784 20.4616L6.67034 20.5632L6.90841 21.0029L7.14648 21.4425L7.33398 21.341L7.09591 20.9013ZM6.90841 21.0029L6.67034 20.5632C6.58628 20.6087 6.51103 20.6344 6.44369 20.6467L6.53341 21.1386L6.62313 21.6305C6.80578 21.5971 6.98054 21.5324 7.14648 21.4425L6.90841 21.0029ZM6.53341 21.1386L6.44369 20.6467L6.25619 20.6809L6.34591 21.1728L6.43563 21.6647L6.62313 21.6305L6.53341 21.1386ZM6.34591 21.1728L6.25619 20.6809L6.06869 20.7151L6.15841 21.207L6.24813 21.6989L6.43563 21.6647L6.34591 21.1728ZM6.15841 21.207L6.06869 20.7151C6.07605 20.7138 6.12272 20.7054 6.18994 20.7206C6.2676 20.7382 6.3626 20.7859 6.43278 20.8809C6.49705 20.9679 6.50889 21.0519 6.5109 21.0898C6.5129 21.1273 6.507 21.1465 6.50905 21.1379L6.02243 21.023L5.53581 20.9081C5.514 21.0004 5.46404 21.2526 5.62854 21.4752C5.8275 21.7445 6.13163 21.7201 6.24813 21.6989L6.15841 21.207ZM6.02243 21.023L6.50905 21.1379L6.56057 20.9196L6.07395 20.8048L5.58733 20.6899L5.53581 20.9081L6.02243 21.023ZM6.07395 20.8048L6.56057 20.9196L6.61209 20.7014L6.12547 20.5865L5.63885 20.4717L5.58733 20.6899L6.07395 20.8048ZM6.12547 20.5865L6.61209 20.7014C6.63396 20.6088 6.66586 20.4371 6.60565 20.261C6.57042 20.1579 6.50098 20.0469 6.38184 19.9667C6.26639 19.889 6.14564 19.8681 6.05353 19.8676L6.05064 20.3676L6.04774 20.8676C5.99775 20.8673 5.9117 20.8557 5.82355 20.7964C5.73171 20.7346 5.68215 20.651 5.65939 20.5844C5.63898 20.5247 5.6401 20.4805 5.64057 20.4695C5.64114 20.4563 5.64263 20.4556 5.63885 20.4717L6.12547 20.5865ZM6.05064 20.3676L6.05353 19.8676L5.92718 19.8669L5.92428 20.3669L5.92139 20.8669L6.04774 20.8676L6.05064 20.3676ZM5.92428 20.3669L5.92718 19.8669L5.80083 19.8661L5.79793 20.3661L5.79504 20.8661L5.92139 20.8669L5.92428 20.3669ZM5.79793 20.3661L5.80083 19.8661C5.59526 19.865 5.39401 19.9629 5.276 20.1582C5.18352 20.3111 5.17307 20.4747 5.17451 20.5774L5.67446 20.5704L6.17441 20.5634C6.17393 20.5294 6.1831 20.5906 6.13177 20.6755C6.1014 20.7258 6.05193 20.78 5.98008 20.8188C5.90958 20.8568 5.84245 20.8664 5.79504 20.8661L5.79793 20.3661ZM5.67446 20.5704L5.17451 20.5774L5.17739 20.7824L5.67734 20.7754L6.17729 20.7683L6.17441 20.5634L5.67446 20.5704ZM5.67734 20.7754L5.17739 20.7824L5.18027 20.9874L5.68022 20.9803L6.18017 20.9733L6.17729 20.7683L5.67734 20.7754ZM5.68022 20.9803L5.18027 20.9874C5.18027 20.9871 5.18016 20.9807 5.18146 20.9695C5.18273 20.9586 5.18581 20.9389 5.19382 20.9136C5.20972 20.8634 5.25222 20.7714 5.35478 20.7008C5.46028 20.6282 5.56783 20.6204 5.63247 20.6268C5.69049 20.6325 5.72425 20.6496 5.72481 20.6499L5.50669 21.0998L5.28858 21.5497C5.37158 21.5899 5.6514 21.7106 5.92179 21.5245C6.17687 21.3489 6.1814 21.0603 6.18017 20.9733L5.68022 20.9803ZM5.50669 21.0998L5.72481 20.6499L5.5484 20.5643L5.33028 21.0143L5.11217 21.4642L5.28858 21.5497L5.50669 21.0998ZM5.33028 21.0143L5.5484 20.5643L5.37199 20.4788L5.15387 20.9287L4.93575 21.3786L5.11217 21.4642L5.33028 21.0143ZM5.15387 20.9287L5.37199 20.4788C5.2343 20.4121 5.09392 20.3554 4.95093 20.3091L4.79701 20.7848L4.64309 21.2605C4.7407 21.2921 4.83823 21.3314 4.93575 21.3786L5.15387 20.9287ZM4.79701 20.7848L4.95093 20.3091L4.77048 20.2507L4.61656 20.7264L4.46264 21.2022L4.64309 21.2605L4.79701 20.7848ZM4.61656 20.7264L4.77048 20.2507L4.59003 20.1923L4.43611 20.6681L4.28219 21.1438L4.46264 21.2022L4.61656 20.7264ZM4.43611 20.6681L4.59003 20.1923C4.48661 20.1589 4.38482 20.1199 4.28458 20.0753L4.08129 20.5321L3.878 20.9889C4.01026 21.0477 4.14501 21.0994 4.28219 21.1438L4.43611 20.6681ZM4.08129 20.5321L4.28458 20.0753L4.11021 19.9977L3.90693 20.4545L3.70364 20.9113L3.878 20.9889L4.08129 20.5321ZM3.90693 20.4545L4.11021 19.9977L3.93585 19.9201L3.73256 20.3769L3.52927 20.8337L3.70364 20.9113L3.90693 20.4545ZM3.73256 20.3769L3.93585 19.9201C3.92401 19.9148 3.90838 19.906 3.88777 19.8703L3.45489 20.1206L3.02201 20.3708C3.13914 20.5734 3.30862 20.7355 3.52927 20.8337L3.73256 20.3769ZM3.45489 20.1206L3.88777 19.8703L3.78447 19.6916L3.35158 19.9419L2.9187 20.1921L3.02201 20.3708L3.45489 20.1206ZM3.35158 19.9419L3.78447 19.6916L3.68116 19.5129L3.24828 19.7631L2.8154 20.0134L2.9187 20.1921L3.35158 19.9419ZM3.24828 19.7631L3.68116 19.5129C3.56602 19.3137 3.40133 19.1527 3.18745 19.051L2.9728 19.5026L2.75814 19.9542C2.77384 19.9616 2.7928 19.9743 2.8154 20.0134L3.24828 19.7631ZM2.9728 19.5026L3.18745 19.051L3.01528 18.9692L2.80062 19.4207L2.58597 19.8723L2.75814 19.9542L2.9728 19.5026ZM2.80062 19.4207L3.01528 18.9692L2.8431 18.8873L2.62845 19.3389L2.41379 19.7905L2.58597 19.8723L2.80062 19.4207ZM2.62845 19.3389L2.8431 18.8873C2.84043 18.8861 2.84027 18.8857 2.84175 18.8868C2.84329 18.8879 2.84556 18.8898 2.84797 18.8924C2.85039 18.895 2.85198 18.8972 2.85278 18.8985C2.85355 18.8998 2.85298 18.8991 2.85167 18.8958L2.38618 19.0783L1.9207 19.2609C2.01345 19.4974 2.18336 19.6809 2.41379 19.7905L2.62845 19.3389ZM2.38618 19.0783L2.85167 18.8958L2.78158 18.7171L2.3161 18.8996L1.85061 19.0822L1.9207 19.2609L2.38618 19.0783ZM2.3161 18.8996L2.78158 18.7171L2.7115 18.5383L2.24601 18.7209L1.78052 18.9034L1.85061 19.0822L2.3161 18.8996ZM2.24601 18.7209L2.7115 18.5383C2.61459 18.2912 2.43363 18.1126 2.21255 17.9981L1.9826 18.442L1.75265 18.886C1.7739 18.897 1.78111 18.9046 1.78164 18.9052C1.78203 18.9056 1.78165 18.9052 1.78103 18.9042C1.78041 18.9033 1.78028 18.9028 1.78052 18.9034L2.24601 18.7209ZM1.9826 18.442L2.21255 17.9981L2.01923 17.8979L1.78928 18.3419L1.55933 18.7859L1.75265 18.886L1.9826 18.442ZM1.78928 18.3419L2.01923 17.8979L1.82591 17.7978L1.59596 18.2418L1.36601 18.6858L1.55933 18.7859L1.78928 18.3419ZM1.59596 18.2418L1.82591 17.7978C1.83237 17.8012 1.87359 17.8255 1.90418 17.8853C1.93481 17.9452 1.93046 17.9931 1.92932 18.0008L1.43483 17.9267L0.94034 17.8527C0.917736 18.0037 0.929519 18.1757 1.01386 18.3406C1.09816 18.5055 1.23068 18.6157 1.36601 18.6858L1.59596 18.2418ZM1.43483 17.9267L1.92932 18.0008L1.9615 17.7858L1.46701 17.7118L0.972523 17.6377L0.94034 17.8527L1.43483 17.9267ZM1.46701 17.7118L1.9615 17.7858L1.99368 17.5709L1.49919 17.4968L1.00471 17.4228L0.972523 17.6377L1.46701 17.7118ZM1.49919 17.4968L1.99368 17.5709C2.04005 17.2612 1.93634 16.976 1.71099 16.7654L1.36959 17.1307L1.02819 17.496C1.0318 17.4994 1.02025 17.4893 1.01154 17.4647C1.0027 17.4397 1.00478 17.4223 1.00471 17.4228L1.49919 17.4968ZM1.36959 17.1307L1.71099 16.7654L1.5492 16.6142L1.2078 16.9795L0.866401 17.3448L1.02819 17.496L1.36959 17.1307ZM1.2078 16.9795L1.5492 16.6142L1.38741 16.463L1.04601 16.8283L0.704612 17.1936L0.866401 17.3448L1.2078 16.9795ZM1.04601 16.8283L1.38741 16.463C1.38079 16.4568 1.39565 16.4686 1.40703 16.5013C1.41924 16.5364 1.4176 16.5671 1.41453 16.5819L0.924919 16.4806L0.435306 16.3792C0.368641 16.7011 0.48513 16.9885 0.704612 17.1936L1.04601 16.8283ZM0.924919 16.4806L1.41453 16.5819L1.45523 16.3854L0.965616 16.284L0.476004 16.1826L0.435306 16.3792L0.924919 16.4806ZM0.965616 16.284L1.45523 16.3854L1.49593 16.1889L1.00631 16.0875L0.516701 15.9861L0.476004 16.1826L0.965616 16.284ZM1.00631 16.0875L1.49593 16.1889C1.54352 15.959 1.52117 15.7299 1.4343 15.5138L0.970371 15.7003L0.506444 15.8868C0.521758 15.9249 0.523372 15.9539 0.516701 15.9861L1.00631 16.0875ZM0.970371 15.7003L1.4343 15.5138L1.35766 15.3231L0.893732 15.5096L0.429805 15.6961L0.506444 15.8868L0.970371 15.7003ZM0.893732 15.5096L1.35766 15.3231L1.28102 15.1325L0.817092 15.3189L0.353165 15.5054L0.429805 15.6961L0.893732 15.5096ZM0.817092 15.3189L1.28102 15.1325C1.27953 15.1288 1.27975 15.1284 1.28025 15.131C1.28076 15.1337 1.28129 15.1382 1.28114 15.1439C1.28098 15.1496 1.28019 15.1545 1.27931 15.158C1.27844 15.1615 1.27786 15.1622 1.27895 15.1599L0.827303 14.9454L0.375657 14.7309C0.256847 14.981 0.25091 15.251 0.353165 15.5054L0.817092 15.3189ZM0.827303 14.9454L1.27895 15.1599L1.3658 14.9771L0.914153 14.7626L0.462508 14.548L0.375657 14.7309L0.827303 14.9454ZM0.914153 14.7626L1.3658 14.9771L1.45265 14.7942L1.001 14.5797L0.549358 14.3652L0.462508 14.548L0.914153 14.7626ZM1.001 14.5797L1.45265 14.7942C1.53009 14.6312 1.58385 14.4609 1.61059 14.2845L1.11623 14.2096L0.621879 14.1347C0.610778 14.2079 0.587714 14.2844 0.549358 14.3652L1.001 14.5797ZM1.11623 14.2096L1.61059 14.2845L1.63897 14.0973L1.14461 14.0223L0.650259 13.9474L0.621879 14.1347L1.11623 14.2096ZM1.14461 14.0223L1.63897 14.0973L1.66735 13.91L1.17299 13.8351L0.678639 13.7602L0.650259 13.9474L1.14461 14.0223ZM1.17299 13.8351L1.66735 13.91C1.67594 13.8533 1.69491 13.8019 1.72626 13.7519L1.30259 13.4863L0.878908 13.2208C0.775313 13.3861 0.707887 13.5672 0.678639 13.7602L1.17299 13.8351ZM1.30259 13.4863L1.72626 13.7519L1.82748 13.5904L1.4038 13.3248L0.98012 13.0593L0.878908 13.2208L1.30259 13.4863ZM1.4038 13.3248L1.82748 13.5904L1.92869 13.4288L1.50501 13.1633L1.08133 12.8978L0.98012 13.0593L1.4038 13.3248ZM1.50501 13.1633L1.92869 13.4288C1.98631 13.3369 2.04753 13.2506 2.11225 13.1696L1.72178 12.8573L1.3313 12.5451C1.24196 12.6568 1.15866 12.7744 1.08133 12.8978L1.50501 13.1633ZM1.72178 12.8573L2.11225 13.1696L2.22781 13.0252L1.83733 12.7129L1.44685 12.4006L1.3313 12.5451L1.72178 12.8573ZM1.83733 12.7129L2.22781 13.0252L2.34336 12.8807L1.95288 12.5684L1.5624 12.2561L1.44685 12.4006L1.83733 12.7129ZM1.95288 12.5684L2.34336 12.8807C2.42278 12.7814 2.50034 12.6821 2.57603 12.5827L2.17836 12.2797L1.78069 11.9766C1.70981 12.0696 1.63705 12.1627 1.5624 12.2561L1.95288 12.5684ZM2.17836 12.2797L2.57603 12.5827L2.68596 12.4385L2.28829 12.1354L1.89061 11.8323L1.78069 11.9766L2.17836 12.2797ZM2.28829 12.1354L2.68596 12.4385L2.79589 12.2943L2.39821 11.9912L2.00054 11.6881L1.89061 11.8323L2.28829 12.1354ZM2.39821 11.9912L2.79589 12.2943C2.83542 12.2424 2.882 12.1986 2.93753 12.1615L2.65998 11.7456L2.38243 11.3297C2.2355 11.4278 2.10757 11.5477 2.00054 11.6881L2.39821 11.9912ZM2.65998 11.7456L2.93753 12.1615L3.08937 12.0602L2.81182 11.6443L2.53427 11.2284L2.38243 11.3297L2.65998 11.7456ZM2.81182 11.6443L3.08937 12.0602L3.2412 11.9589L2.96365 11.543L2.68611 11.1271L2.53427 11.2284L2.81182 11.6443ZM2.96365 11.543L3.2412 11.9589C3.42474 11.8364 3.56075 11.6692 3.65561 11.4777L3.20757 11.2557L2.75953 11.0338C2.73162 11.0901 2.70502 11.1144 2.68611 11.1271L2.96365 11.543ZM3.20757 11.2557L3.65561 11.4777L3.74769 11.2918L3.29966 11.0699L2.85162 10.8479L2.75953 11.0338L3.20757 11.2557ZM3.29966 11.0699L3.74769 11.2918L3.83978 11.1059L3.39174 10.884L2.9437 10.662L2.85162 10.8479L3.29966 11.0699ZM3.39174 10.884L3.83978 11.1059C3.84161 11.1022 3.83511 11.1163 3.81399 11.1325C3.79213 11.1493 3.772 11.155 3.76514 11.1562L3.67839 10.6638L3.59165 10.1714C3.29639 10.2234 3.07153 10.404 2.9437 10.662L3.39174 10.884ZM3.67839 10.6638L3.76514 11.1562L3.95971 11.122L3.87297 10.6295L3.78622 10.1371L3.59165 10.1714L3.67839 10.6638ZM3.87297 10.6295L3.95971 11.122L4.15429 11.0877L4.06754 10.5953L3.9808 10.1029L3.78622 10.1371L3.87297 10.6295ZM4.06754 10.5953L4.15429 11.0877C4.34915 11.0534 4.53209 10.982 4.69699 10.8712L4.41822 10.4562L4.13946 10.0411C4.09622 10.0701 4.04537 10.0915 3.9808 10.1029L4.06754 10.5953ZM4.41822 10.4562L4.69699 10.8712L4.8531 10.7664L4.57433 10.3513L4.29556 9.93624L4.13946 10.0411L4.41822 10.4562ZM4.57433 10.3513L4.8531 10.7664L5.0092 10.6616L4.73043 10.2465L4.45167 9.8314L4.29556 9.93624L4.57433 10.3513ZM4.73043 10.2465L5.0092 10.6616C5.06007 10.6274 5.09965 10.6012 5.12871 10.5824C5.14325 10.573 5.15401 10.5662 5.16153 10.5616C5.17029 10.5562 5.17041 10.5563 5.16526 10.5592L4.92589 10.1202L4.68653 9.68119C4.63529 9.70913 4.54795 9.76673 4.45167 9.8314L4.73043 10.2465ZM4.92589 10.1202L5.16526 10.5592L5.20461 10.5377L4.96524 10.0987L4.72588 9.65974L4.68653 9.68119L4.92589 10.1202ZM4.96524 10.0987L5.20461 10.5377L5.24396 10.5162L5.00459 10.0773L4.76523 9.63828L4.72588 9.65974L4.96524 10.0987ZM5.00459 10.0773L5.24396 10.5162C5.34473 10.4613 5.40382 10.3864 5.42896 10.3521C5.45926 10.3107 5.48148 10.27 5.49701 10.2387C5.52824 10.1757 5.55488 10.1048 5.5779 10.0361L5.10383 9.87718L4.62976 9.71825C4.62182 9.74192 4.61516 9.76019 4.60981 9.77381C4.60717 9.78052 4.60505 9.78559 4.60347 9.78921C4.60187 9.79288 4.60108 9.79448 4.60114 9.79435C4.60116 9.79432 4.60256 9.79147 4.60546 9.78652C4.60825 9.78176 4.61372 9.77282 4.62214 9.76131C4.63026 9.75022 4.64422 9.73251 4.66468 9.71244C4.68457 9.69294 4.71772 9.66419 4.76523 9.63828L5.00459 10.0773ZM5.10383 9.87718L5.5779 10.0361L5.63778 9.85748L5.16371 9.69855L4.68964 9.53963L4.62976 9.71825L5.10383 9.87718Z" fill="#9EAFDE"/>
</svg>
