<svg width="24" height="24" viewBox="0 0 24 24" fill="none" xmlns="http://www.w3.org/2000/svg">
<path d="M5.04395 9.05776C5.76096 2.65825 15.2458 0.335282 18.7207 7.03627C18.8198 7.07726 18.933 7.1265 19.0566 7.18569C19.4903 7.39324 20.0686 7.72416 20.6494 8.21987C21.8304 9.22792 23 10.9071 23 13.5001C23 16.0972 21.8264 17.7426 20.6309 18.714C20.0451 19.19 19.4618 19.4987 19.0254 19.6896C18.8063 19.7854 18.6206 19.8529 18.4854 19.8976C18.4177 19.92 18.3624 19.9375 18.3213 19.9494C18.3008 19.9552 18.2837 19.9595 18.2705 19.963C18.264 19.9648 18.2585 19.9667 18.2539 19.9679C18.2516 19.9685 18.2489 19.9684 18.2471 19.9689L18.2451 19.9699H18.2432L18 19.0001L18.2422 19.9699L18.123 20.0001H5.9375L5.87598 19.9923L6 19.0001C5.8826 19.9393 5.87581 19.9897 5.875 19.9923H5.87402L5.87109 19.9914C5.86941 19.9911 5.86735 19.9916 5.86523 19.9914C5.86071 19.9907 5.85508 19.9893 5.84863 19.9884C5.83575 19.9866 5.81899 19.9848 5.79883 19.9816C5.75822 19.9752 5.70306 19.9655 5.63574 19.9523C5.501 19.9258 5.31464 19.8836 5.09473 19.8195C4.6584 19.6922 4.0679 19.4717 3.46973 19.0978C2.23878 18.3283 1 16.9112 1 14.5001C1.00006 12.0953 2.23151 10.6447 3.44531 9.83608C4.03149 9.44565 4.61107 9.2029 5.04395 9.05776Z" fill="#D4D4D4"/>
<path d="M5.22359 8.52188L5.69766 8.68081L5.22359 8.52188ZM5.31153 8.15826L5.80588 8.23322L5.31153 8.15826ZM5.36764 7.78826L4.87329 7.71329L5.36764 7.78826ZM5.45464 7.42449L5.92949 7.58106L5.45464 7.42449ZM5.57253 7.06696L5.09768 6.91039L5.57253 7.06696ZM6.0513 6.0355L6.44594 6.34252L6.0513 6.0355ZM6.28567 5.73424L6.68031 6.04125L6.28567 5.73424ZM6.51896 5.43033L6.12041 5.12841L6.51896 5.43033ZM6.75117 5.1238L7.14973 5.42572L6.75117 5.1238ZM6.99839 4.82651L6.62864 4.48992L6.99839 4.82651ZM8.72851 4.04413L8.70993 4.54378L8.72851 4.04413ZM9.07143 3.87181L9.48285 4.15595L9.07143 3.87181ZM9.19604 3.69138L8.78463 3.40723L9.19604 3.69138ZM9.32066 3.51094L9.73208 3.79508L9.32066 3.51094ZM11.1317 3.00706L11.0837 2.50937L11.1317 3.00706ZM11.5089 2.97064L11.557 3.46833L11.5089 2.97064ZM11.8854 3.00051L11.7614 3.4849L11.8854 3.00051ZM12.2611 3.09668L12.385 2.61229L12.2611 3.09668ZM13.0033 3.15247L12.9963 3.65242L13.0033 3.15247ZM14.3139 3.25296L14.2424 3.74781L14.3139 3.25296ZM14.5026 3.28025L14.431 3.7751L14.5026 3.28025ZM14.8474 3.42092L14.5537 3.82555L14.8474 3.42092ZM15.8322 3.98032L15.6368 4.44053L15.8322 3.98032ZM16.1263 4.20117L16.5119 3.88289L16.1263 4.20117ZM16.2482 4.34894L15.8626 4.66722L16.2482 4.34894ZM16.3702 4.49671L15.9846 4.81499L16.3702 4.49671ZM16.6541 4.73807L16.4039 5.17096L16.6541 4.73807ZM16.816 4.83166L17.0662 4.39877L16.816 4.83166ZM16.9779 4.92525L17.2281 4.49235L16.9779 4.92525ZM17.2568 5.16216L16.8693 5.47818L17.2568 5.16216ZM17.4905 5.44882L17.878 5.13281L17.4905 5.44882ZM17.778 5.6977L18.0411 5.27249L17.778 5.6977ZM17.9487 5.80324L17.6856 6.22845L17.9487 5.80324ZM18.1193 5.90879L18.3823 5.48358L18.1193 5.90879ZM18.3365 6.20714L18.8225 6.08951L18.3365 6.20714ZM18.3832 6.39995L17.8972 6.51757L18.3832 6.39995ZM18.4299 6.59275L17.9439 6.71038L18.4299 6.59275ZM18.6249 6.90583L18.9398 6.51747L18.6249 6.90583ZM18.9215 7.14637L18.6066 7.53473L18.9215 7.14637ZM19.2293 7.3613L18.9742 7.79131L19.2293 7.3613ZM19.3889 7.45596L19.644 7.02596L19.3889 7.45596ZM19.5484 7.55062L19.8035 7.12062L19.5484 7.55062ZM19.8542 7.75834L20.16 7.36274L19.8542 7.75834ZM20.1468 7.98446L20.4525 7.58886L20.1468 7.98446ZM20.4194 8.23112L20.7827 7.8876L20.4194 8.23112ZM20.5457 8.36472L20.909 8.0212L20.5457 8.36472ZM20.672 8.49832L20.3087 8.84185L20.672 8.49832ZM20.9779 8.71819L21.1944 8.26748L20.9779 8.71819ZM21.3372 8.89073L21.1207 9.34144L21.3372 8.89073ZM21.634 9.12672L22.0277 8.8185L21.634 9.12672ZM21.8685 9.42617L21.4748 9.73439L21.8685 9.42617ZM22.1177 9.72225L22.489 9.38736L22.1177 9.72225ZM22.2497 9.86861L22.621 9.53372L22.2497 9.86861ZM22.3817 10.015L22.0104 10.3499L22.3817 10.015ZM22.569 10.3485L23.0485 10.207L22.569 10.3485ZM22.6242 10.5357L23.1038 10.3941L22.6242 10.5357ZM22.6795 10.7229L22.1999 10.8644L22.6795 10.7229ZM22.7521 11.1033L23.2501 11.0584L22.7521 11.1033ZM22.7869 11.4898L22.289 11.5346L22.7869 11.4898ZM22.7789 12.0649L22.28 12.0317L22.7789 12.0649ZM22.809 12.6278L23.2869 12.481L22.809 12.6278ZM22.8645 12.8087L23.3425 12.6619L22.8645 12.8087ZM22.9201 12.9896L22.4421 13.1364L22.9201 12.9896ZM22.9548 13.3569L23.4517 13.4126L22.9548 13.3569ZM22.913 13.7295L22.4161 13.6737L22.913 13.7295ZM22.8625 14.0981L22.3689 14.0179L22.8625 14.0981ZM22.8032 14.4629L23.2967 14.5431L22.8032 14.4629ZM22.7328 14.8241L23.2203 14.9351L22.7328 14.8241ZM22.6921 15.0029L22.2046 14.8919L22.6921 15.0029ZM22.6514 15.1818L22.1638 15.0708L22.6514 15.1818ZM22.6278 15.5631L23.126 15.5209L22.6278 15.5631ZM22.662 15.968L22.1638 16.0101L22.662 15.968ZM22.5266 16.3062L22.1942 15.9327L22.5266 16.3062ZM22.2216 16.5777L22.554 16.9512L22.2216 16.5777ZM22.0169 16.899L21.5356 16.7638L22.0169 16.899ZM21.9648 17.0846L22.4462 17.2198L21.9648 17.0846ZM21.9127 17.2701L22.394 17.4053L21.9127 17.2701ZM21.6926 17.5576L21.9523 17.9849L21.6926 17.5576ZM21.3567 17.7618L21.097 17.3345L21.3567 17.7618ZM21.0736 18.0059L21.462 18.3208L21.0736 18.0059ZM20.8432 18.29L20.4548 17.9751L20.8432 18.29ZM20.6197 18.5963L20.2024 18.321L20.6197 18.5963ZM20.5115 18.7605L20.9288 19.0358L20.5115 18.7605ZM20.4032 18.9247L19.9858 18.6494L20.4032 18.9247ZM20.136 19.1938L19.8604 18.7767L20.136 19.1938ZM19.8184 19.4037L20.094 19.8209L19.8184 19.4037ZM19.4735 19.5571L19.3475 19.0732L19.4735 19.5571ZM19.2876 19.6055L19.4136 20.0894L19.2876 19.6055ZM19.1016 19.654L18.9755 19.1701L19.1016 19.654ZM18.7746 19.7562L18.5964 19.2891L18.7746 19.7562ZM18.4925 19.8638L18.6707 20.331L18.4925 19.8638ZM18.2827 19.7416L18.7484 19.5597L18.2827 19.7416ZM18.2139 19.5655L17.7482 19.7474L18.2139 19.5655ZM18.0769 19.2904L17.5769 19.2935L18.0769 19.2904ZM18.0774 19.3673L17.5774 19.3705L18.0774 19.3673ZM18.0779 19.4443L17.5779 19.4475L18.0779 19.4443ZM18.0515 19.6083L17.5737 19.4608L18.0515 19.6083ZM18.0246 19.6953L18.5024 19.8428L18.0246 19.6953ZM17.9978 19.7823L18.4755 19.9298L17.9978 19.7823ZM17.7834 19.8784L17.7595 19.3789L17.7834 19.8784ZM17.0334 19.8694L16.9394 20.3605L17.0334 19.8694ZM16.6584 19.7976L16.7525 19.3065L16.6584 19.7976ZM16.2834 19.7825L16.2281 19.2856L16.2834 19.7825ZM16.0959 19.8034L16.0406 19.3065L16.0959 19.8034ZM15.9084 19.8243L15.9637 20.3212L15.9084 19.8243ZM15.5334 19.9013L15.677 20.3803L15.5334 19.9013ZM15.1584 20.0137L15.0148 19.5348L15.1584 20.0137ZM14.7834 20.0576L14.8163 19.5587L14.7834 20.0576ZM14.5959 20.0452L14.563 20.5441L14.5959 20.0452ZM14.0334 20.0534L13.9468 19.561L14.0334 20.0534ZM13.6584 20.1194L13.745 20.6118L13.6584 20.1194ZM13.2834 20.1124L13.3877 19.6234L13.2834 20.1124ZM13.0959 20.0724L12.9916 20.5614L13.0959 20.0724ZM12.9084 20.0324L12.8041 20.5214L12.9084 20.0324ZM12.5334 20.0195L12.4619 19.5246L12.5334 20.0195ZM12.3459 20.0466L12.2744 19.5517L12.3459 20.0466ZM12.1584 20.0737L12.2299 20.5685L12.1584 20.0737ZM11.7834 20.0869L11.7464 20.5855L11.7834 20.0869ZM11.4084 20.059L11.4454 19.5604L11.4084 20.059ZM11.0334 19.9961L11.16 19.5124L11.0334 19.9961ZM10.6584 19.8979L10.5318 20.3817L10.6584 19.8979ZM10.2834 19.898L10.41 20.3817L10.2834 19.898ZM9.34591 20.0101L9.39253 19.5123L9.34591 20.0101ZM9.15841 19.9926L9.11179 20.4904L9.15841 19.9926ZM8.78341 19.9102L8.62003 20.3827L8.78341 19.9102ZM8.59591 19.8454L8.75928 19.3728L8.59591 19.8454ZM8.40841 19.7805L8.57178 19.308L8.40841 19.7805ZM7.84591 19.708L7.8356 20.2079L7.84591 19.708ZM7.65841 19.7041L7.66872 19.2042L7.65841 19.7041ZM7.28341 19.8018L7.52148 20.2414L7.28341 19.8018ZM6.90841 20.0048L6.67034 19.5651L6.90841 20.0048ZM6.53341 20.1405L6.62313 20.6324L6.53341 20.1405ZM6.15841 20.2089L6.06869 19.717L6.15841 20.2089ZM6.02243 20.0249L6.50905 20.1398L6.02243 20.0249ZM6.07395 19.8067L5.58733 19.6918L6.07395 19.8067ZM6.12547 19.5885L6.61209 19.7034L6.12547 19.5885ZM5.67446 19.5723L6.17441 19.5653L5.67446 19.5723ZM5.68022 19.9823L5.18027 19.9893L5.68022 19.9823ZM5.50669 20.1017L5.28858 20.5516L5.50669 20.1017ZM5.33028 20.0162L5.5484 19.5663L5.33028 20.0162ZM5.15387 19.9307L5.37199 19.4808L5.15387 19.9307ZM4.79701 19.7868L4.95093 19.3111L4.79701 19.7868ZM4.61656 19.7284L4.77048 19.2527L4.61656 19.7284ZM4.43611 19.67L4.28219 20.1457L4.43611 19.67ZM4.08129 19.534L3.878 19.9908L4.08129 19.534ZM3.73256 19.3788L3.93585 18.922L3.73256 19.3788ZM3.35158 18.9438L2.9187 19.194L3.35158 18.9438ZM3.24828 18.7651L3.68116 18.5149L3.24828 18.7651ZM2.9728 18.5045L3.18745 18.053L2.9728 18.5045ZM2.62845 18.3409L2.8431 17.8893L2.62845 18.3409ZM2.38618 18.0803L1.9207 18.2628L2.38618 18.0803ZM2.24601 17.7228L2.7115 17.5403L2.24601 17.7228ZM1.9826 17.444L1.75265 17.888L1.9826 17.444ZM1.43483 16.9287L1.92932 17.0027L1.43483 16.9287ZM1.46701 16.7137L0.972523 16.6397L1.46701 16.7137ZM1.49919 16.4988L1.00471 16.4248L1.49919 16.4988ZM1.36959 16.1326L1.71099 15.7673L1.36959 16.1326ZM1.2078 15.9814L0.866401 16.3467L1.2078 15.9814ZM1.04601 15.8302L1.38741 15.4649L1.04601 15.8302ZM0.924919 15.4825L1.41453 15.5839L0.924919 15.4825ZM1.00631 15.0894L1.49593 15.1908L1.00631 15.0894ZM0.970371 14.7022L0.506444 14.8887L0.970371 14.7022ZM0.817092 14.3209L1.28102 14.1344L0.817092 14.3209ZM0.827303 13.9474L0.375657 13.7328L0.827303 13.9474ZM1.001 13.5816L1.45265 13.7962L1.001 13.5816ZM1.11623 13.2115L0.621879 13.1366L1.11623 13.2115ZM1.17299 12.837L1.66735 12.912L1.17299 12.837ZM1.30259 12.4883L0.878908 12.2228L1.30259 12.4883ZM1.4038 12.3268L1.82748 12.5923L1.4038 12.3268ZM1.50501 12.1653L1.08133 11.8998L1.50501 12.1653ZM1.72178 11.8593L1.3313 11.547L1.72178 11.8593ZM1.95288 11.5703L2.34336 11.8826L1.95288 11.5703ZM2.17836 11.2816L1.78069 10.9785L2.17836 11.2816ZM2.65998 10.7476L2.93753 11.1635L2.65998 10.7476ZM2.96365 10.5449L2.68611 10.129L2.96365 10.5449ZM3.20757 10.2577L2.75953 10.0358L3.20757 10.2577ZM3.39174 9.88594L3.83978 10.1079L3.39174 9.88594ZM3.67839 9.66578L3.59165 9.17336L3.67839 9.66578ZM4.06754 9.59722L4.15429 10.0896L4.06754 9.59722ZM4.41822 9.45811L4.13946 9.04303L4.41822 9.45811ZM4.73043 9.24843L5.0092 9.6635L4.73043 9.24843ZM4.92589 9.12213L5.16526 9.56111L4.92589 9.12213ZM5.00459 9.07921L4.76523 8.64023L5.00459 9.07921ZM5.10383 8.87913L4.62976 8.7202L5.10383 8.87913ZM5.16371 8.70051L5.63778 8.85943L5.69766 8.68081L5.22359 8.52188L4.74952 8.36295L4.68964 8.54158L5.16371 8.70051ZM5.22359 8.52188L5.69766 8.68081C5.74669 8.53456 5.78282 8.38527 5.80588 8.23322L5.31153 8.15826L4.81718 8.08329C4.80283 8.17791 4.78034 8.27103 4.74952 8.36295L5.22359 8.52188ZM5.31153 8.15826L5.80588 8.23322L5.83393 8.04822L5.33959 7.97326L4.84524 7.89829L4.81718 8.08329L5.31153 8.15826ZM5.33959 7.97326L5.83393 8.04822L5.86199 7.86322L5.36764 7.78826L4.87329 7.71329L4.84524 7.89829L5.33959 7.97326ZM5.36764 7.78826L5.86199 7.86322C5.87647 7.76776 5.89892 7.67379 5.92949 7.58106L5.45464 7.42449L4.97979 7.26792C4.93177 7.41354 4.89622 7.56209 4.87329 7.71329L5.36764 7.78826ZM5.45464 7.42449L5.92949 7.58106L5.98844 7.4023L5.51358 7.24573L5.03873 7.08916L4.97979 7.26792L5.45464 7.42449ZM5.51358 7.24573L5.98844 7.4023L6.04738 7.22354L5.57253 7.06696L5.09768 6.91039L5.03873 7.08916L5.51358 7.24573ZM5.57253 7.06696L6.04738 7.22354C6.08199 7.11858 6.1216 7.01428 6.16629 6.91061L5.70713 6.71268L5.24798 6.51475C5.19179 6.6451 5.14166 6.77699 5.09768 6.91039L5.57253 7.06696ZM5.70713 6.71268L6.16629 6.91061L6.24195 6.7351L5.78279 6.53717L5.32364 6.33924L5.24798 6.51475L5.70713 6.71268ZM5.78279 6.53717L6.24195 6.7351L6.31761 6.55958L5.85845 6.36165L5.3993 6.16372L5.32364 6.33924L5.78279 6.53717ZM5.85845 6.36165L6.31761 6.55958C6.35128 6.48147 6.3939 6.40941 6.44594 6.34252L6.0513 6.0355L5.65665 5.72849C5.55245 5.86244 5.4665 6.00782 5.3993 6.16372L5.85845 6.36165ZM6.0513 6.0355L6.44594 6.34252L6.56313 6.19188L6.16848 5.88487L5.77384 5.57786L5.65665 5.72849L6.0513 6.0355ZM6.16848 5.88487L6.56313 6.19188L6.68031 6.04125L6.28567 5.73424L5.89102 5.42722L5.77384 5.57786L6.16848 5.88487ZM6.28567 5.73424L6.68031 6.04125C6.75976 5.93912 6.83883 5.83613 6.91751 5.73225L6.51896 5.43033L6.12041 5.12841C6.04429 5.2289 5.96782 5.3285 5.89102 5.42722L6.28567 5.73424ZM6.51896 5.43033L6.91751 5.73225L7.03362 5.57899L6.63507 5.27707L6.23651 4.97515L6.12041 5.12841L6.51896 5.43033ZM6.63507 5.27707L7.03362 5.57899L7.14973 5.42572L6.75117 5.1238L6.35262 4.82188L6.23651 4.97515L6.63507 5.27707ZM6.75117 5.1238L7.14973 5.42572C7.21794 5.33568 7.29072 5.24814 7.36813 5.1631L6.99839 4.82651L6.62864 4.48992C6.53125 4.59691 6.43922 4.70756 6.35262 4.82188L6.75117 5.1238ZM6.99839 4.82651L7.36813 5.1631L7.49924 5.01907L7.12949 4.68249L6.75975 4.3459L6.62864 4.48992L6.99839 4.82651ZM7.12949 4.68249L7.49924 5.01907L7.63034 4.87505L7.2606 4.53847L6.89086 4.20188L6.75975 4.3459L7.12949 4.68249ZM7.2606 4.53847L7.63034 4.87505C7.6807 4.81973 7.73767 4.77486 7.80296 4.73898L7.56218 4.30078L7.32139 3.86257C7.15939 3.95159 7.01531 4.06517 6.89086 4.20188L7.2606 4.53847ZM7.56218 4.30078L7.80296 4.73898L7.97343 4.64531L7.73265 4.20711L7.49187 3.7689L7.32139 3.86257L7.56218 4.30078ZM7.73265 4.20711L7.97343 4.64531L8.1439 4.55165L7.90312 4.11344L7.66234 3.67523L7.49187 3.7689L7.73265 4.20711ZM7.90312 4.11344L8.1439 4.55165C8.16881 4.53796 8.20679 4.52507 8.27331 4.52754L8.29189 4.02789L8.31047 3.52824C8.08592 3.51988 7.86472 3.56403 7.66234 3.67523L7.90312 4.11344ZM8.29189 4.02789L8.27331 4.52754L8.49162 4.53566L8.5102 4.03601L8.52878 3.53635L8.31047 3.52824L8.29189 4.02789ZM8.5102 4.03601L8.49162 4.53566L8.70993 4.54378L8.72851 4.04413L8.74709 3.54447L8.52878 3.53635L8.5102 4.03601ZM8.72851 4.04413L8.70993 4.54378C9.02699 4.55557 9.30312 4.41618 9.48285 4.15595L9.07143 3.87181L8.66001 3.58767C8.65927 3.58875 8.67096 3.57238 8.69889 3.55834C8.72691 3.54426 8.74748 3.54449 8.74709 3.54447L8.72851 4.04413ZM9.07143 3.87181L9.48285 4.15595L9.60746 3.97552L9.19604 3.69138L8.78463 3.40723L8.66001 3.58767L9.07143 3.87181ZM9.19604 3.69138L9.60746 3.97552L9.73208 3.79508L9.32066 3.51094L8.90924 3.2268L8.78463 3.40723L9.19604 3.69138ZM9.32066 3.51094L9.73208 3.79508C9.73937 3.78452 9.73562 3.79368 9.71587 3.80523C9.70639 3.81078 9.69582 3.81531 9.68505 3.81837C9.67441 3.8214 9.66617 3.82226 9.66163 3.82244L9.64213 3.32282L9.62262 2.8232C9.31472 2.83522 9.07013 2.99385 8.90924 3.2268L9.32066 3.51094ZM9.64213 3.32282L9.66163 3.82244L9.85849 3.81476L9.83898 3.31514L9.81948 2.81552L9.62262 2.8232L9.64213 3.32282ZM9.83898 3.31514L9.85849 3.81476L10.0553 3.80707L10.0358 3.30745L10.0163 2.80783L9.81948 2.81552L9.83898 3.31514ZM10.0358 3.30745L10.0553 3.80707C10.2397 3.79988 10.419 3.76382 10.5905 3.69754L10.4103 3.23114L10.2301 2.76475C10.1648 2.78996 10.0945 2.80478 10.0163 2.80783L10.0358 3.30745ZM10.4103 3.23114L10.5905 3.69754L10.7681 3.62891L10.5879 3.16252L10.4077 2.69612L10.2301 2.76475L10.4103 3.23114ZM10.5879 3.16252L10.7681 3.62891L10.9457 3.56029L10.7655 3.09389L10.5853 2.6275L10.4077 2.69612L10.5879 3.16252ZM10.7655 3.09389L10.9457 3.56029C11.0219 3.53085 11.0995 3.51249 11.1798 3.50474L11.1317 3.00706L11.0837 2.50937C10.9124 2.5259 10.7459 2.56544 10.5853 2.6275L10.7655 3.09389ZM11.1317 3.00706L11.1798 3.50474L11.3684 3.48654L11.3203 2.98885L11.2723 2.49116L11.0837 2.50937L11.1317 3.00706ZM11.3203 2.98885L11.3684 3.48654L11.557 3.46833L11.5089 2.97064L11.4609 2.47295L11.2723 2.49116L11.3203 2.98885ZM11.5089 2.97064L11.557 3.46833C11.6236 3.46189 11.6909 3.46687 11.7614 3.4849L11.8854 3.00051L12.0093 2.51613C11.8293 2.47005 11.6456 2.45512 11.4609 2.47295L11.5089 2.97064ZM11.8854 3.00051L11.7614 3.4849L11.9492 3.53298L12.0732 3.04859L12.1972 2.56421L12.0093 2.51613L11.8854 3.00051ZM12.0732 3.04859L11.9492 3.53298L12.1371 3.58106L12.2611 3.09668L12.385 2.61229L12.1972 2.56421L12.0732 3.04859ZM12.2611 3.09668L12.1371 3.58106C12.2987 3.62243 12.4622 3.64499 12.6267 3.64728L12.6337 3.14733L12.6406 2.64738C12.5588 2.64624 12.4739 2.63503 12.385 2.61229L12.2611 3.09668ZM12.6337 3.14733L12.6267 3.64728L12.8115 3.64985L12.8185 3.1499L12.8254 2.64994L12.6406 2.64738L12.6337 3.14733ZM12.8185 3.1499L12.8115 3.64985L12.9963 3.65242L13.0033 3.15247L13.0102 2.65251L12.8254 2.64994L12.8185 3.1499ZM13.0033 3.15247L12.9963 3.65242C13.1121 3.65403 13.2287 3.65823 13.3463 3.66504L13.3752 3.16587L13.4041 2.66671C13.2721 2.65907 13.1408 2.65433 13.0102 2.65251L13.0033 3.15247ZM13.3752 3.16587L13.3463 3.66504L13.5334 3.67587L13.5623 3.17671L13.5913 2.67755L13.4041 2.66671L13.3752 3.16587ZM13.5623 3.17671L13.5334 3.67587L13.7206 3.68671L13.7495 3.18755L13.7784 2.68838L13.5913 2.67755L13.5623 3.17671ZM13.7495 3.18755L13.7206 3.68671C13.8308 3.6931 13.9419 3.70434 14.0537 3.72052L14.1253 3.22567L14.1969 2.73082C14.0572 2.71062 13.9177 2.69645 13.7784 2.68838L13.7495 3.18755ZM14.1253 3.22567L14.0537 3.72052L14.2424 3.74781L14.3139 3.25296L14.3855 2.75811L14.1969 2.73082L14.1253 3.22567ZM14.3139 3.25296L14.2424 3.74781L14.431 3.7751L14.5026 3.28025L14.5742 2.7854L14.3855 2.75811L14.3139 3.25296ZM14.5026 3.28025L14.431 3.7751C14.4755 3.78153 14.5143 3.79698 14.5537 3.82555L14.8474 3.42092L15.1412 3.01629C14.9723 2.89368 14.7813 2.81535 14.5742 2.7854L14.5026 3.28025ZM14.8474 3.42092L14.5537 3.82555L14.7099 3.93893L15.0036 3.53431L15.2974 3.12968L15.1412 3.01629L14.8474 3.42092ZM15.0036 3.53431L14.7099 3.93893L14.8661 4.05232L15.1598 3.64769L15.4536 3.24307L15.2974 3.12968L15.0036 3.53431ZM15.1598 3.64769L14.8661 4.05232C14.9998 4.14937 15.1421 4.23042 15.2926 4.29437L15.4881 3.83416L15.6835 3.37394C15.6047 3.34045 15.5281 3.2972 15.4536 3.24307L15.1598 3.64769ZM15.4881 3.83416L15.2926 4.29437L15.4647 4.36745L15.6602 3.90724L15.8556 3.44702L15.6835 3.37394L15.4881 3.83416ZM15.6602 3.90724L15.4647 4.36745L15.6368 4.44053L15.8322 3.98032L16.0277 3.5201L15.8556 3.44702L15.6602 3.90724ZM15.8322 3.98032L15.6368 4.44053C15.6758 4.45708 15.7091 4.48122 15.7407 4.51945L16.1263 4.20117L16.5119 3.88289C16.3808 3.72409 16.2182 3.60099 16.0277 3.5201L15.8322 3.98032ZM16.1263 4.20117L15.7407 4.51945L15.8626 4.66722L16.2482 4.34894L16.6339 4.03066L16.5119 3.88289L16.1263 4.20117ZM16.2482 4.34894L15.8626 4.66722L15.9846 4.81499L16.3702 4.49671L16.7558 4.17843L16.6339 4.03066L16.2482 4.34894ZM16.3702 4.49671L15.9846 4.81499C16.1029 4.95833 16.2431 5.07801 16.4039 5.17096L16.6541 4.73807L16.9043 4.30518C16.8492 4.27335 16.8001 4.23212 16.7558 4.17843L16.3702 4.49671ZM16.6541 4.73807L16.4039 5.17096L16.5658 5.26455L16.816 4.83166L17.0662 4.39877L16.9043 4.30518L16.6541 4.73807ZM16.816 4.83166L16.5658 5.26455L16.7277 5.35814L16.9779 4.92525L17.2281 4.49235L17.0662 4.39877L16.816 4.83166ZM16.9779 4.92525L16.7277 5.35814C16.7838 5.39056 16.8301 5.43011 16.8693 5.47818L17.2568 5.16216L17.6442 4.84615C17.5276 4.70311 17.3879 4.58472 17.2281 4.49235L16.9779 4.92525ZM17.2568 5.16216L16.8693 5.47818L16.9862 5.62151L17.3736 5.30549L17.7611 4.98948L17.6442 4.84615L17.2568 5.16216ZM17.3736 5.30549L16.9862 5.62151L17.1031 5.76484L17.4905 5.44882L17.878 5.13281L17.7611 4.98948L17.3736 5.30549ZM17.4905 5.44882L17.1031 5.76484C17.219 5.90695 17.358 6.02578 17.515 6.1229L17.778 5.6977L18.0411 5.27249C17.9706 5.22889 17.918 5.1818 17.878 5.13281L17.4905 5.44882ZM17.778 5.6977L17.515 6.1229L17.6856 6.22845L17.9487 5.80324L18.2117 5.37804L18.0411 5.27249L17.778 5.6977ZM17.9487 5.80324L17.6856 6.22845L17.8562 6.334L18.1193 5.90879L18.3823 5.48358L18.2117 5.37804L17.9487 5.80324ZM18.1193 5.90879L17.8562 6.334C17.8599 6.3363 17.8608 6.33727 17.8598 6.33641C17.8588 6.3355 17.8569 6.3335 17.8547 6.33049C17.8525 6.32748 17.851 6.32475 17.8502 6.32294C17.8494 6.3212 17.8498 6.32153 17.8506 6.32477L18.3365 6.20714L18.8225 6.08951C18.76 5.83151 18.6065 5.62228 18.3823 5.48358L18.1193 5.90879ZM18.3365 6.20714L17.8506 6.32477L17.8972 6.51757L18.3832 6.39995L18.8692 6.28232L18.8225 6.08951L18.3365 6.20714ZM18.3832 6.39995L17.8972 6.51757L17.9439 6.71038L18.4299 6.59275L18.9158 6.47512L18.8692 6.28232L18.3832 6.39995ZM18.4299 6.59275L17.9439 6.71038C17.9997 6.94102 18.1224 7.14213 18.3099 7.29419L18.6249 6.90583L18.9398 6.51747C18.9295 6.50917 18.9222 6.50156 18.9158 6.47512L18.4299 6.59275ZM18.6249 6.90583L18.3099 7.29419L18.4582 7.41446L18.7732 7.0261L19.0881 6.63774L18.9398 6.51747L18.6249 6.90583ZM18.7732 7.0261L18.4582 7.41446L18.6066 7.53473L18.9215 7.14637L19.2364 6.75802L19.0881 6.63774L18.7732 7.0261ZM18.9215 7.14637L18.6066 7.53473C18.7238 7.62978 18.8463 7.71544 18.9742 7.79131L19.2293 7.3613L19.4845 6.9313C19.3996 6.88096 19.3169 6.82333 19.2364 6.75802L18.9215 7.14637ZM19.2293 7.3613L18.9742 7.79131L19.1337 7.88597L19.3889 7.45596L19.644 7.02596L19.4845 6.9313L19.2293 7.3613ZM19.3889 7.45596L19.1337 7.88597L19.2933 7.98062L19.5484 7.55062L19.8035 7.12062L19.644 7.02596L19.3889 7.45596ZM19.5484 7.55062L19.2933 7.98062C19.3821 8.03334 19.4671 8.0911 19.5484 8.15394L19.8542 7.75834L20.16 7.36274C20.0462 7.27483 19.9274 7.19411 19.8035 7.12062L19.5484 7.55062ZM19.8542 7.75834L19.5484 8.15394L19.6947 8.267L20.0005 7.8714L20.3063 7.4758L20.16 7.36274L19.8542 7.75834ZM20.0005 7.8714L19.6947 8.267L19.841 8.38006L20.1468 7.98446L20.4525 7.58886L20.3063 7.4758L20.0005 7.8714ZM20.1468 7.98446L19.841 8.38006C19.9181 8.43968 19.9897 8.50451 20.056 8.57465L20.4194 8.23112L20.7827 7.8876C20.6805 7.77961 20.5704 7.67999 20.4525 7.58886L20.1468 7.98446ZM20.4194 8.23112L20.056 8.57465L20.1824 8.70825L20.5457 8.36472L20.909 8.0212L20.7827 7.8876L20.4194 8.23112ZM20.5457 8.36472L20.1824 8.70825L20.3087 8.84185L20.672 8.49832L21.0353 8.1548L20.909 8.0212L20.5457 8.36472ZM20.672 8.49832L20.3087 8.84185C20.4383 8.9789 20.5913 9.08716 20.7615 9.1689L20.9779 8.71819L21.1944 8.26748C21.1251 8.2342 21.0742 8.19588 21.0353 8.1548L20.672 8.49832ZM20.9779 8.71819L20.7615 9.1689L20.9411 9.25517L21.1576 8.80446L21.374 8.35375L21.1944 8.26748L20.9779 8.71819ZM21.1576 8.80446L20.9411 9.25517L21.1207 9.34144L21.3372 8.89073L21.5537 8.44002L21.374 8.35375L21.1576 8.80446ZM21.3372 8.89073L21.1207 9.34144C21.1746 9.36734 21.2118 9.39852 21.2403 9.43495L21.634 9.12672L22.0277 8.8185C21.9 8.6553 21.7392 8.52915 21.5537 8.44002L21.3372 8.89073ZM21.634 9.12672L21.2403 9.43495L21.3575 9.58467L21.7512 9.27645L22.1449 8.96822L22.0277 8.8185L21.634 9.12672ZM21.7512 9.27645L21.3575 9.58467L21.4748 9.73439L21.8685 9.42617L22.2622 9.11795L22.1449 8.96822L21.7512 9.27645ZM21.8685 9.42617L21.4748 9.73439C21.5603 9.84368 21.6509 9.95126 21.7464 10.0571L22.1177 9.72225L22.489 9.38736C22.4085 9.2981 22.3329 9.20829 22.2622 9.11795L21.8685 9.42617ZM22.1177 9.72225L21.7464 10.0571L21.8784 10.2035L22.2497 9.86861L22.621 9.53372L22.489 9.38736L22.1177 9.72225ZM22.2497 9.86861L21.8784 10.2035L22.0104 10.3499L22.3817 10.015L22.753 9.68008L22.621 9.53372L22.2497 9.86861ZM22.3817 10.015L22.0104 10.3499C22.0489 10.3925 22.074 10.4377 22.0894 10.49L22.569 10.3485L23.0485 10.207C22.9903 10.0097 22.8906 9.83262 22.753 9.68008L22.3817 10.015ZM22.569 10.3485L22.0894 10.49L22.1447 10.6772L22.6242 10.5357L23.1038 10.3941L23.0485 10.207L22.569 10.3485ZM22.6242 10.5357L22.1447 10.6772L22.1999 10.8644L22.6795 10.7229L23.159 10.5813L23.1038 10.3941L22.6242 10.5357ZM22.6795 10.7229L22.1999 10.8644C22.2275 10.9578 22.2455 11.0523 22.2541 11.1482L22.7521 11.1033L23.2501 11.0584C23.2355 10.8966 23.2051 10.7375 23.159 10.5813L22.6795 10.7229ZM22.7521 11.1033L22.2541 11.1482L22.2715 11.3414L22.7695 11.2965L23.2675 11.2517L23.2501 11.0584L22.7521 11.1033ZM22.7695 11.2965L22.2715 11.3414L22.289 11.5346L22.7869 11.4898L23.2849 11.4449L23.2675 11.2517L22.7695 11.2965ZM22.7869 11.4898L22.289 11.5346C22.2983 11.6379 22.2995 11.7398 22.2927 11.8407L22.7916 11.874L23.2905 11.9072C23.3008 11.7536 23.2988 11.5994 23.2849 11.4449L22.7869 11.4898ZM22.7916 11.874L22.2927 11.8407L22.28 12.0317L22.7789 12.0649L23.2778 12.0982L23.2905 11.9072L22.7916 11.874ZM22.7789 12.0649L22.28 12.0317L22.2673 12.2226L22.7661 12.2559L23.265 12.2892L23.2778 12.0982L22.7789 12.0649ZM22.7661 12.2559L22.2673 12.2226C22.2548 12.41 22.2759 12.595 22.331 12.7745L22.809 12.6278L23.2869 12.481C23.268 12.4193 23.2606 12.3564 23.265 12.2892L22.7661 12.2559ZM22.809 12.6278L22.331 12.7745L22.3866 12.9555L22.8645 12.8087L23.3425 12.6619L23.2869 12.481L22.809 12.6278ZM22.8645 12.8087L22.3866 12.9555L22.4421 13.1364L22.9201 12.9896L23.3981 12.8428L23.3425 12.6619L22.8645 12.8087ZM22.9201 12.9896L22.4421 13.1364C22.4593 13.1922 22.4641 13.2457 22.4579 13.3011L22.9548 13.3569L23.4517 13.4126C23.4733 13.2196 23.455 13.0283 23.3981 12.8428L22.9201 12.9896ZM22.9548 13.3569L22.4579 13.3011L22.437 13.4874L22.9339 13.5432L23.4308 13.5989L23.4517 13.4126L22.9548 13.3569ZM22.9339 13.5432L22.437 13.4874L22.4161 13.6737L22.913 13.7295L23.4099 13.7852L23.4308 13.5989L22.9339 13.5432ZM22.913 13.7295L22.4161 13.6737C22.4031 13.7899 22.3874 13.9046 22.3689 14.0179L22.8625 14.0981L23.356 14.1783C23.3771 14.0485 23.395 13.9174 23.4099 13.7852L22.913 13.7295ZM22.8625 14.0981L22.3689 14.0179L22.3393 14.2003L22.8328 14.2805L23.3263 14.3607L23.356 14.1783L22.8625 14.0981ZM22.8328 14.2805L22.3393 14.2003L22.3097 14.3826L22.8032 14.4629L23.2967 14.5431L23.3263 14.3607L22.8328 14.2805ZM22.8032 14.4629L22.3097 14.3826C22.2916 14.494 22.2701 14.6041 22.2453 14.7131L22.7328 14.8241L23.2203 14.9351C23.2498 14.8056 23.2753 14.6749 23.2967 14.5431L22.8032 14.4629ZM22.7328 14.8241L22.2453 14.7131L22.2046 14.8919L22.6921 15.0029L23.1796 15.1139L23.2203 14.9351L22.7328 14.8241ZM22.6921 15.0029L22.2046 14.8919L22.1638 15.0708L22.6514 15.1818L23.1389 15.2928L23.1796 15.1139L22.6921 15.0029ZM22.6514 15.1818L22.1638 15.0708C22.1241 15.2453 22.1142 15.4245 22.1295 15.6053L22.6278 15.5631L23.126 15.5209C23.1184 15.4318 23.1243 15.3568 23.1389 15.2928L22.6514 15.1818ZM22.6278 15.5631L22.1295 15.6053L22.1467 15.8077L22.6449 15.7655L23.1431 15.7234L23.126 15.5209L22.6278 15.5631ZM22.6449 15.7655L22.1467 15.8077L22.1638 16.0101L22.662 15.968L23.1602 15.9258L23.1431 15.7234L22.6449 15.7655ZM22.662 15.968L22.1638 16.0101C22.1638 16.0104 22.1634 16.0058 22.1645 15.9976C22.1657 15.9892 22.1682 15.9789 22.1725 15.9679C22.1821 15.9441 22.1942 15.9327 22.1942 15.9327L22.5266 16.3062L22.8591 16.6796C23.0777 16.4851 23.185 16.2186 23.1602 15.9258L22.662 15.968ZM22.5266 16.3062L22.1942 15.9327L22.0416 16.0685L22.3741 16.442L22.7066 16.8154L22.8591 16.6796L22.5266 16.3062ZM22.3741 16.442L22.0416 16.0685L21.8891 16.2043L22.2216 16.5777L22.554 16.9512L22.7066 16.8154L22.3741 16.442ZM22.2216 16.5777L21.8891 16.2043C21.7205 16.3544 21.5978 16.5425 21.5356 16.7638L22.0169 16.899L22.4983 17.0343C22.5056 17.0082 22.5193 16.9822 22.554 16.9512L22.2216 16.5777ZM22.0169 16.899L21.5356 16.7638L21.4834 16.9493L21.9648 17.0846L22.4462 17.2198L22.4983 17.0343L22.0169 16.899ZM21.9648 17.0846L21.4834 16.9493L21.4313 17.1348L21.9127 17.2701L22.394 17.4053L22.4462 17.2198L21.9648 17.0846ZM21.9127 17.2701L21.4313 17.1348C21.4305 17.1377 21.4301 17.1381 21.4308 17.1367C21.4315 17.1353 21.4328 17.1331 21.4345 17.1308C21.4363 17.1286 21.4377 17.1272 21.4381 17.1269C21.4384 17.1266 21.437 17.1279 21.4329 17.1304L21.6926 17.5576L21.9523 17.9849C22.17 17.8526 22.3243 17.6536 22.394 17.4053L21.9127 17.2701ZM21.6926 17.5576L21.4329 17.1304L21.265 17.2324L21.5246 17.6597L21.7843 18.087L21.9523 17.9849L21.6926 17.5576ZM21.5246 17.6597L21.265 17.2324L21.097 17.3345L21.3567 17.7618L21.6164 18.1891L21.7843 18.087L21.5246 17.6597ZM21.3567 17.7618L21.097 17.3345C20.9397 17.4301 20.8007 17.5485 20.6852 17.691L21.0736 18.0059L21.462 18.3208C21.5 18.2739 21.5498 18.2295 21.6164 18.1891L21.3567 17.7618ZM21.0736 18.0059L20.6852 17.691L20.57 17.8331L20.9584 18.148L21.3468 18.4629L21.462 18.3208L21.0736 18.0059ZM20.9584 18.148L20.57 17.8331L20.4548 17.9751L20.8432 18.29L21.2316 18.6049L21.3468 18.4629L20.9584 18.148ZM20.8432 18.29L20.4548 17.9751C20.367 18.0835 20.2829 18.1989 20.2024 18.321L20.6197 18.5963L21.0371 18.8716C21.101 18.7748 21.1659 18.686 21.2316 18.6049L20.8432 18.29ZM20.6197 18.5963L20.2024 18.321L20.0941 18.4852L20.5115 18.7605L20.9288 19.0358L21.0371 18.8716L20.6197 18.5963ZM20.5115 18.7605L20.0941 18.4852L19.9858 18.6494L20.4032 18.9247L20.8205 19.2L20.9288 19.0358L20.5115 18.7605ZM20.4032 18.9247L19.9858 18.6494C19.9495 18.7044 19.9081 18.7452 19.8604 18.7767L20.136 19.1938L20.4116 19.611C20.5758 19.5026 20.7124 19.3639 20.8205 19.2L20.4032 18.9247ZM20.136 19.1938L19.8604 18.7767L19.7016 18.8816L19.9772 19.2988L20.2528 19.7159L20.4116 19.611L20.136 19.1938ZM19.9772 19.2988L19.7016 18.8816L19.5427 18.9865L19.8184 19.4037L20.094 19.8209L20.2528 19.7159L19.9772 19.2988ZM19.8184 19.4037L19.5427 18.9865C19.4832 19.0259 19.4188 19.0547 19.3475 19.0732L19.4735 19.5571L19.5996 20.0409C19.7762 19.9949 19.9418 19.9214 20.094 19.8209L19.8184 19.4037ZM19.4735 19.5571L19.3475 19.0732L19.1615 19.1217L19.2876 19.6055L19.4136 20.0894L19.5996 20.0409L19.4735 19.5571ZM19.2876 19.6055L19.1615 19.1217L18.9755 19.1701L19.1016 19.654L19.2276 20.1378L19.4136 20.0894L19.2876 19.6055ZM19.1016 19.654L18.9755 19.1701C18.8384 19.2059 18.7113 19.2452 18.5964 19.2891L18.7746 19.7562L18.9528 20.2234C19.0258 20.1955 19.1168 20.1667 19.2276 20.1378L19.1016 19.654ZM18.7746 19.7562L18.5964 19.2891L18.4553 19.3429L18.6335 19.81L18.8117 20.2772L18.9528 20.2234L18.7746 19.7562ZM18.6335 19.81L18.4553 19.3429L18.3143 19.3967L18.4925 19.8638L18.6707 20.331L18.8117 20.2772L18.6335 19.81ZM18.4925 19.8638L18.3143 19.3967C18.3709 19.3751 18.4944 19.3542 18.6213 19.4282C18.6744 19.4591 18.7072 19.4956 18.725 19.5199C18.7422 19.5434 18.7484 19.5595 18.7484 19.5597L18.2827 19.7416L17.817 19.9235C17.8594 20.0321 17.9442 20.191 18.1178 20.2922C18.3146 20.4069 18.5201 20.3884 18.6707 20.331L18.4925 19.8638ZM18.2827 19.7416L18.7484 19.5597L18.6797 19.3836L18.2139 19.5655L17.7482 19.7474L17.817 19.9235L18.2827 19.7416ZM18.2139 19.5655L18.6797 19.3836L18.6109 19.2075L18.1452 19.3894L17.6794 19.5714L17.7482 19.7474L18.2139 19.5655ZM18.1452 19.3894L18.6109 19.2075C18.5923 19.16 18.5556 19.0657 18.5054 18.9929C18.4943 18.9768 18.4509 18.9134 18.3738 18.8592C18.3329 18.8304 18.2501 18.7811 18.1328 18.7694C17.9973 18.7559 17.8658 18.798 17.7651 18.8801C17.6782 18.9509 17.6369 19.0323 17.6187 19.0755C17.599 19.1221 17.5901 19.1624 17.5858 19.1864C17.5772 19.2339 17.5768 19.2739 17.5769 19.2935L18.0769 19.2904L18.5769 19.2872C18.5769 19.294 18.5771 19.3238 18.5699 19.3637C18.5663 19.3839 18.5583 19.4211 18.5396 19.4653C18.5224 19.506 18.4823 19.5856 18.3968 19.6553C18.2975 19.7362 18.1676 19.7778 18.0339 19.7645C17.9183 19.753 17.8375 19.7045 17.7987 19.6772C17.7258 19.626 17.6874 19.5683 17.682 19.5603C17.6546 19.5206 17.6521 19.5015 17.6794 19.5714L18.1452 19.3894ZM18.0769 19.2904L17.5769 19.2935L17.5774 19.3705L18.0774 19.3673L18.5774 19.3641L18.5769 19.2872L18.0769 19.2904ZM18.0774 19.3673L17.5774 19.3705L17.5779 19.4475L18.0779 19.4443L18.5779 19.4411L18.5774 19.3641L18.0774 19.3673ZM18.0779 19.4443L17.5779 19.4475C17.5778 19.4394 17.5793 19.4429 17.5737 19.4608L18.0515 19.6083L18.5293 19.7558C18.5595 19.6576 18.5786 19.5518 18.5779 19.4411L18.0779 19.4443ZM18.0515 19.6083L17.5737 19.4608L17.5469 19.5478L18.0246 19.6953L18.5024 19.8428L18.5293 19.7558L18.0515 19.6083ZM18.0246 19.6953L17.5469 19.5478L17.52 19.6349L17.9978 19.7823L18.4755 19.9298L18.5024 19.8428L18.0246 19.6953ZM17.9978 19.7823L17.52 19.6349C17.5651 19.489 17.6713 19.4182 17.7264 19.3935C17.7714 19.3734 17.7925 19.3774 17.7595 19.3789L17.7834 19.8784L17.8074 20.3778C17.8993 20.3734 18.0187 20.3583 18.1351 20.3062C18.2616 20.2495 18.4126 20.1337 18.4755 19.9298L17.9978 19.7823ZM17.7834 19.8784L17.7595 19.3789L17.572 19.3879L17.5959 19.8874L17.6199 20.3868L17.8074 20.3778L17.7834 19.8784ZM17.5959 19.8874L17.572 19.3879L17.3845 19.3969L17.4084 19.8963L17.4324 20.3958L17.6199 20.3868L17.5959 19.8874ZM17.4084 19.8963L17.3845 19.3969C17.2997 19.401 17.2143 19.395 17.1275 19.3783L17.0334 19.8694L16.9394 20.3605C17.1026 20.3918 17.2672 20.4037 17.4324 20.3958L17.4084 19.8963ZM17.0334 19.8694L17.1275 19.3783L16.94 19.3424L16.8459 19.8335L16.7519 20.3246L16.9394 20.3605L17.0334 19.8694ZM16.8459 19.8335L16.94 19.3424L16.7525 19.3065L16.6584 19.7976L16.5644 20.2887L16.7519 20.3246L16.8459 19.8335ZM16.6584 19.7976L16.7525 19.3065C16.5789 19.2733 16.4035 19.2661 16.2281 19.2856L16.2834 19.7825L16.3387 20.2795C16.4133 20.2712 16.488 20.274 16.5644 20.2887L16.6584 19.7976ZM16.2834 19.7825L16.2281 19.2856L16.0406 19.3065L16.0959 19.8034L16.1512 20.3003L16.3387 20.2795L16.2834 19.7825ZM16.0959 19.8034L16.0406 19.3065L15.8531 19.3273L15.9084 19.8243L15.9637 20.3212L16.1512 20.3003L16.0959 19.8034ZM15.9084 19.8243L15.8531 19.3273C15.6971 19.3447 15.5426 19.3766 15.3898 19.4224L15.5334 19.9013L15.677 20.3803C15.7742 20.3511 15.8697 20.3316 15.9637 20.3212L15.9084 19.8243ZM15.5334 19.9013L15.3898 19.4224L15.2023 19.4786L15.3459 19.9575L15.4895 20.4365L15.677 20.3803L15.5334 19.9013ZM15.3459 19.9575L15.2023 19.4786L15.0148 19.5348L15.1584 20.0137L15.302 20.4927L15.4895 20.4365L15.3459 19.9575ZM15.1584 20.0137L15.0148 19.5348C14.9446 19.5558 14.8793 19.5628 14.8163 19.5587L14.7834 20.0576L14.7505 20.5565C14.9375 20.5688 15.1222 20.5466 15.302 20.4927L15.1584 20.0137ZM14.7834 20.0576L14.8163 19.5587L14.6288 19.5463L14.5959 20.0452L14.563 20.5441L14.7505 20.5565L14.7834 20.0576ZM14.5959 20.0452L14.6288 19.5463L14.4413 19.5339L14.4084 20.0328L14.3755 20.5317L14.563 20.5441L14.5959 20.0452ZM14.4084 20.0328L14.4413 19.5339C14.2758 19.523 14.1107 19.5321 13.9468 19.561L14.0334 20.0534L14.12 20.5459C14.2061 20.5307 14.291 20.5261 14.3755 20.5317L14.4084 20.0328ZM14.0334 20.0534L13.9468 19.561L13.7593 19.594L13.8459 20.0864L13.9325 20.5788L14.12 20.5459L14.0334 20.0534ZM13.8459 20.0864L13.7593 19.594L13.5718 19.6269L13.6584 20.1194L13.745 20.6118L13.9325 20.5788L13.8459 20.0864ZM13.6584 20.1194L13.5718 19.6269C13.5105 19.6377 13.4503 19.6367 13.3877 19.6234L13.2834 20.1124L13.1791 20.6014C13.3665 20.6413 13.5563 20.645 13.745 20.6118L13.6584 20.1194ZM13.2834 20.1124L13.3877 19.6234L13.2002 19.5834L13.0959 20.0724L12.9916 20.5614L13.1791 20.6014L13.2834 20.1124ZM13.0959 20.0724L13.2002 19.5834L13.0127 19.5434L12.9084 20.0324L12.8041 20.5214L12.9916 20.5614L13.0959 20.0724ZM12.9084 20.0324L13.0127 19.5434C12.8306 19.5046 12.6461 19.498 12.4619 19.5246L12.5334 20.0195L12.6049 20.5144C12.6707 20.5049 12.7362 20.5069 12.8041 20.5214L12.9084 20.0324ZM12.5334 20.0195L12.4619 19.5246L12.2744 19.5517L12.3459 20.0466L12.4174 20.5414L12.6049 20.5144L12.5334 20.0195ZM12.3459 20.0466L12.2744 19.5517L12.0869 19.5788L12.1584 20.0737L12.2299 20.5685L12.4174 20.5414L12.3459 20.0466ZM12.1584 20.0737L12.0869 19.5788C11.9976 19.5917 11.9089 19.5948 11.8204 19.5882L11.7834 20.0869L11.7464 20.5855C11.9079 20.5975 12.0693 20.5917 12.2299 20.5685L12.1584 20.0737ZM11.7834 20.0869L11.8204 19.5882L11.6329 19.5743L11.5959 20.0729L11.5589 20.5716L11.7464 20.5855L11.7834 20.0869ZM11.5959 20.0729L11.6329 19.5743L11.4454 19.5604L11.4084 20.059L11.3714 20.5577L11.5589 20.5716L11.5959 20.0729ZM11.4084 20.059L11.4454 19.5604C11.3516 19.5534 11.2565 19.5376 11.16 19.5124L11.0334 19.9961L10.9068 20.4798C11.0603 20.5199 11.2153 20.5461 11.3714 20.5577L11.4084 20.059ZM11.0334 19.9961L11.16 19.5124L10.9725 19.4633L10.8459 19.947L10.7193 20.4307L10.9068 20.4798L11.0334 19.9961ZM10.8459 19.947L10.9725 19.4633L10.785 19.4142L10.6584 19.8979L10.5318 20.3817L10.7193 20.4307L10.8459 19.947ZM10.6584 19.8979L10.785 19.4142C10.577 19.3598 10.3648 19.3598 10.1568 19.4143L10.2834 19.898L10.41 20.3817C10.452 20.3707 10.4898 20.3707 10.5318 20.3817L10.6584 19.8979ZM10.2834 19.898L10.1568 19.4143L9.96927 19.4634L10.0959 19.9471L10.2225 20.4308L10.41 20.3817L10.2834 19.898ZM10.0959 19.9471L9.96927 19.4634L9.78177 19.5125L9.90841 19.9961L10.035 20.4798L10.2225 20.4308L10.0959 19.9471ZM9.90841 19.9961L9.78177 19.5125C9.71158 19.5308 9.6452 19.536 9.58003 19.5299L9.53341 20.0277L9.48679 20.5255C9.67162 20.5428 9.85524 20.5269 10.035 20.4798L9.90841 19.9961ZM9.53341 20.0277L9.58003 19.5299L9.39253 19.5123L9.34591 20.0101L9.29929 20.5079L9.48679 20.5255L9.53341 20.0277ZM9.34591 20.0101L9.39253 19.5123L9.20503 19.4947L9.15841 19.9926L9.11179 20.4904L9.29929 20.5079L9.34591 20.0101ZM9.15841 19.9926L9.20503 19.4947C9.12188 19.487 9.03603 19.4685 8.94678 19.4376L8.78341 19.9102L8.62003 20.3827C8.78079 20.4383 8.94493 20.4748 9.11179 20.4904L9.15841 19.9926ZM8.78341 19.9102L8.94678 19.4376L8.75928 19.3728L8.59591 19.8454L8.43253 20.3179L8.62003 20.3827L8.78341 19.9102ZM8.59591 19.8454L8.75928 19.3728L8.57178 19.308L8.40841 19.7805L8.24503 20.2531L8.43253 20.3179L8.59591 19.8454ZM8.40841 19.7805L8.57178 19.308C8.40036 19.2487 8.2238 19.2157 8.04372 19.2119L8.03341 19.7118L8.0231 20.2117C8.09302 20.2132 8.16645 20.2259 8.24503 20.2531L8.40841 19.7805ZM8.03341 19.7118L8.04372 19.2119L7.85622 19.2081L7.84591 19.708L7.8356 20.2079L8.0231 20.2117L8.03341 19.7118ZM7.84591 19.708L7.85622 19.2081L7.66872 19.2042L7.65841 19.7041L7.6481 20.204L7.8356 20.2079L7.84591 19.708ZM7.65841 19.7041L7.66872 19.2042C7.4458 19.1996 7.23592 19.2589 7.04534 19.3621L7.28341 19.8018L7.52148 20.2414C7.5809 20.2093 7.62101 20.2034 7.6481 20.204L7.65841 19.7041ZM7.28341 19.8018L7.04534 19.3621L6.85784 19.4636L7.09591 19.9033L7.33398 20.343L7.52148 20.2414L7.28341 19.8018ZM7.09591 19.9033L6.85784 19.4636L6.67034 19.5651L6.90841 20.0048L7.14648 20.4445L7.33398 20.343L7.09591 19.9033ZM6.90841 20.0048L6.67034 19.5651C6.58628 19.6106 6.51103 19.6364 6.44369 19.6486L6.53341 20.1405L6.62313 20.6324C6.80578 20.5991 6.98054 20.5343 7.14648 20.4445L6.90841 20.0048ZM6.53341 20.1405L6.44369 19.6486L6.25619 19.6828L6.34591 20.1747L6.43563 20.6666L6.62313 20.6324L6.53341 20.1405ZM6.34591 20.1747L6.25619 19.6828L6.06869 19.717L6.15841 20.2089L6.24813 20.7008L6.43563 20.6666L6.34591 20.1747ZM6.15841 20.2089L6.06869 19.717C6.07605 19.7157 6.12272 19.7074 6.18994 19.7226C6.2676 19.7402 6.3626 19.7879 6.43278 19.8829C6.49705 19.9698 6.50889 20.0538 6.5109 20.0917C6.5129 20.1293 6.507 20.1485 6.50905 20.1398L6.02243 20.0249L5.53581 19.91C5.514 20.0024 5.46404 20.2546 5.62854 20.4772C5.8275 20.7464 6.13163 20.7221 6.24813 20.7008L6.15841 20.2089ZM6.02243 20.0249L6.50905 20.1398L6.56057 19.9216L6.07395 19.8067L5.58733 19.6918L5.53581 19.91L6.02243 20.0249ZM6.07395 19.8067L6.56057 19.9216L6.61209 19.7034L6.12547 19.5885L5.63885 19.4736L5.58733 19.6918L6.07395 19.8067ZM6.12547 19.5885L6.61209 19.7034C6.63396 19.6107 6.66586 19.4391 6.60565 19.2629C6.57042 19.1599 6.50098 19.0489 6.38184 18.9687C6.26639 18.891 6.14564 18.8701 6.05353 18.8696L6.05064 19.3696L6.04774 19.8695C5.99775 19.8693 5.9117 19.8577 5.82355 19.7983C5.73171 19.7365 5.68215 19.653 5.65939 19.5864C5.63898 19.5266 5.6401 19.4824 5.64057 19.4715C5.64114 19.4583 5.64263 19.4576 5.63885 19.4736L6.12547 19.5885ZM6.05064 19.3696L6.05353 18.8696L5.92718 18.8688L5.92428 19.3688L5.92139 19.8688L6.04774 19.8695L6.05064 19.3696ZM5.92428 19.3688L5.92718 18.8688L5.80083 18.8681L5.79793 19.3681L5.79504 19.8681L5.92139 19.8688L5.92428 19.3688ZM5.79793 19.3681L5.80083 18.8681C5.59526 18.8669 5.39401 18.9649 5.276 19.1601C5.18352 19.3131 5.17307 19.4767 5.17451 19.5794L5.67446 19.5723L6.17441 19.5653C6.17393 19.5314 6.1831 19.5926 6.13177 19.6775C6.1014 19.7277 6.05193 19.782 5.98008 19.8207C5.90958 19.8587 5.84245 19.8684 5.79504 19.8681L5.79793 19.3681ZM5.67446 19.5723L5.17451 19.5794L5.17739 19.7843L5.67734 19.7773L6.17729 19.7703L6.17441 19.5653L5.67446 19.5723ZM5.67734 19.7773L5.17739 19.7843L5.18027 19.9893L5.68022 19.9823L6.18017 19.9753L6.17729 19.7703L5.67734 19.7773ZM5.68022 19.9823L5.18027 19.9893C5.18027 19.9891 5.18016 19.9827 5.18146 19.9715C5.18273 19.9605 5.18581 19.9408 5.19382 19.9156C5.20972 19.8654 5.25222 19.7734 5.35478 19.7028C5.46028 19.6301 5.56783 19.6224 5.63247 19.6287C5.69049 19.6344 5.72425 19.6515 5.72481 19.6518L5.50669 20.1017L5.28858 20.5516C5.37158 20.5919 5.6514 20.7126 5.92179 20.5265C6.17687 20.3509 6.1814 20.0623 6.18017 19.9753L5.68022 19.9823ZM5.50669 20.1017L5.72481 19.6518L5.5484 19.5663L5.33028 20.0162L5.11217 20.4661L5.28858 20.5516L5.50669 20.1017ZM5.33028 20.0162L5.5484 19.5663L5.37199 19.4808L5.15387 19.9307L4.93575 20.3806L5.11217 20.4661L5.33028 20.0162ZM5.15387 19.9307L5.37199 19.4808C5.2343 19.414 5.09392 19.3573 4.95093 19.3111L4.79701 19.7868L4.64309 20.2625C4.7407 20.2941 4.83823 20.3333 4.93575 20.3806L5.15387 19.9307ZM4.79701 19.7868L4.95093 19.3111L4.77048 19.2527L4.61656 19.7284L4.46264 20.2041L4.64309 20.2625L4.79701 19.7868ZM4.61656 19.7284L4.77048 19.2527L4.59003 19.1943L4.43611 19.67L4.28219 20.1457L4.46264 20.2041L4.61656 19.7284ZM4.43611 19.67L4.59003 19.1943C4.48661 19.1608 4.38482 19.1218 4.28458 19.0772L4.08129 19.534L3.878 19.9908C4.01026 20.0497 4.14501 20.1013 4.28219 20.1457L4.43611 19.67ZM4.08129 19.534L4.28458 19.0772L4.11021 18.9996L3.90693 19.4564L3.70364 19.9132L3.878 19.9908L4.08129 19.534ZM3.90693 19.4564L4.11021 18.9996L3.93585 18.922L3.73256 19.3788L3.52927 19.8356L3.70364 19.9132L3.90693 19.4564ZM3.73256 19.3788L3.93585 18.922C3.92401 18.9168 3.90838 18.9079 3.88777 18.8723L3.45489 19.1225L3.02201 19.3728C3.13914 19.5754 3.30862 19.7374 3.52927 19.8356L3.73256 19.3788ZM3.45489 19.1225L3.88777 18.8723L3.78447 18.6936L3.35158 18.9438L2.9187 19.194L3.02201 19.3728L3.45489 19.1225ZM3.35158 18.9438L3.78447 18.6936L3.68116 18.5149L3.24828 18.7651L2.8154 19.0153L2.9187 19.194L3.35158 18.9438ZM3.24828 18.7651L3.68116 18.5149C3.56602 18.3157 3.40133 18.1546 3.18745 18.053L2.9728 18.5045L2.75814 18.9561C2.77384 18.9636 2.7928 18.9762 2.8154 19.0153L3.24828 18.7651ZM2.9728 18.5045L3.18745 18.053L3.01528 17.9711L2.80062 18.4227L2.58597 18.8743L2.75814 18.9561L2.9728 18.5045ZM2.80062 18.4227L3.01528 17.9711L2.8431 17.8893L2.62845 18.3409L2.41379 18.7924L2.58597 18.8743L2.80062 18.4227ZM2.62845 18.3409L2.8431 17.8893C2.84043 17.888 2.84027 17.8877 2.84175 17.8887C2.84329 17.8898 2.84556 17.8917 2.84797 17.8943C2.85039 17.8969 2.85198 17.8992 2.85278 17.9005C2.85355 17.9017 2.85298 17.9011 2.85167 17.8977L2.38618 18.0803L1.9207 18.2628C2.01345 18.4993 2.18336 18.6829 2.41379 18.7924L2.62845 18.3409ZM2.38618 18.0803L2.85167 17.8977L2.78158 17.719L2.3161 17.9016L1.85061 18.0841L1.9207 18.2628L2.38618 18.0803ZM2.3161 17.9016L2.78158 17.719L2.7115 17.5403L2.24601 17.7228L1.78052 17.9054L1.85061 18.0841L2.3161 17.9016ZM2.24601 17.7228L2.7115 17.5403C2.61459 17.2932 2.43363 17.1145 2.21255 17L1.9826 17.444L1.75265 17.888C1.7739 17.899 1.78111 17.9066 1.78164 17.9071C1.78203 17.9075 1.78165 17.9072 1.78103 17.9062C1.78041 17.9052 1.78028 17.9048 1.78052 17.9054L2.24601 17.7228ZM1.9826 17.444L2.21255 17L2.01923 16.8999L1.78928 17.3439L1.55933 17.7879L1.75265 17.888L1.9826 17.444ZM1.78928 17.3439L2.01923 16.8999L1.82591 16.7998L1.59596 17.2437L1.36601 17.6877L1.55933 17.7879L1.78928 17.3439ZM1.59596 17.2437L1.82591 16.7998C1.83237 16.8031 1.87359 16.8274 1.90418 16.8873C1.93481 16.9471 1.93046 16.9951 1.92932 17.0027L1.43483 16.9287L0.94034 16.8546C0.917736 17.0056 0.929519 17.1777 1.01386 17.3426C1.09816 17.5074 1.23068 17.6176 1.36601 17.6877L1.59596 17.2437ZM1.43483 16.9287L1.92932 17.0027L1.9615 16.7878L1.46701 16.7137L0.972523 16.6397L0.94034 16.8546L1.43483 16.9287ZM1.46701 16.7137L1.9615 16.7878L1.99368 16.5728L1.49919 16.4988L1.00471 16.4248L0.972523 16.6397L1.46701 16.7137ZM1.49919 16.4988L1.99368 16.5728C2.04005 16.2632 1.93634 15.9779 1.71099 15.7673L1.36959 16.1326L1.02819 16.4979C1.0318 16.5013 1.02025 16.4912 1.01154 16.4666C1.0027 16.4416 1.00478 16.4243 1.00471 16.4248L1.49919 16.4988ZM1.36959 16.1326L1.71099 15.7673L1.5492 15.6161L1.2078 15.9814L0.866401 16.3467L1.02819 16.4979L1.36959 16.1326ZM1.2078 15.9814L1.5492 15.6161L1.38741 15.4649L1.04601 15.8302L0.704612 16.1955L0.866401 16.3467L1.2078 15.9814ZM1.04601 15.8302L1.38741 15.4649C1.38079 15.4588 1.39565 15.4706 1.40703 15.5033C1.41924 15.5383 1.4176 15.5691 1.41453 15.5839L0.924919 15.4825L0.435306 15.3811C0.368641 15.7031 0.48513 15.9904 0.704612 16.1955L1.04601 15.8302ZM0.924919 15.4825L1.41453 15.5839L1.45523 15.3874L0.965616 15.286L0.476004 15.1846L0.435306 15.3811L0.924919 15.4825ZM0.965616 15.286L1.45523 15.3874L1.49593 15.1908L1.00631 15.0894L0.516701 14.9881L0.476004 15.1846L0.965616 15.286ZM1.00631 15.0894L1.49593 15.1908C1.54352 14.961 1.52117 14.7319 1.4343 14.5158L0.970371 14.7022L0.506444 14.8887C0.521758 14.9268 0.523372 14.9558 0.516701 14.9881L1.00631 15.0894ZM0.970371 14.7022L1.4343 14.5158L1.35766 14.3251L0.893732 14.5116L0.429805 14.698L0.506444 14.8887L0.970371 14.7022ZM0.893732 14.5116L1.35766 14.3251L1.28102 14.1344L0.817092 14.3209L0.353165 14.5074L0.429805 14.698L0.893732 14.5116ZM0.817092 14.3209L1.28102 14.1344C1.27953 14.1307 1.27975 14.1303 1.28025 14.1329C1.28076 14.1357 1.28129 14.1402 1.28114 14.1458C1.28098 14.1515 1.28019 14.1564 1.27931 14.16C1.27844 14.1635 1.27786 14.1642 1.27895 14.1619L0.827303 13.9474L0.375657 13.7328C0.256847 13.983 0.25091 14.253 0.353165 14.5074L0.817092 14.3209ZM0.827303 13.9474L1.27895 14.1619L1.3658 13.979L0.914153 13.7645L0.462508 13.55L0.375657 13.7328L0.827303 13.9474ZM0.914153 13.7645L1.3658 13.979L1.45265 13.7962L1.001 13.5816L0.549358 13.3671L0.462508 13.55L0.914153 13.7645ZM1.001 13.5816L1.45265 13.7962C1.53009 13.6331 1.58385 13.4629 1.61059 13.2865L1.11623 13.2115L0.621879 13.1366C0.610778 13.2099 0.587714 13.2864 0.549358 13.3671L1.001 13.5816ZM1.11623 13.2115L1.61059 13.2865L1.63897 13.0992L1.14461 13.0243L0.650259 12.9494L0.621879 13.1366L1.11623 13.2115ZM1.14461 13.0243L1.63897 13.0992L1.66735 12.912L1.17299 12.837L0.678639 12.7621L0.650259 12.9494L1.14461 13.0243ZM1.17299 12.837L1.66735 12.912C1.67594 12.8553 1.69491 12.8038 1.72626 12.7538L1.30259 12.4883L0.878908 12.2228C0.775313 12.3881 0.707887 12.5691 0.678639 12.7621L1.17299 12.837ZM1.30259 12.4883L1.72626 12.7538L1.82748 12.5923L1.4038 12.3268L0.98012 12.0613L0.878908 12.2228L1.30259 12.4883ZM1.4038 12.3268L1.82748 12.5923L1.92869 12.4308L1.50501 12.1653L1.08133 11.8998L0.98012 12.0613L1.4038 12.3268ZM1.50501 12.1653L1.92869 12.4308C1.98631 12.3389 2.04753 12.2525 2.11225 12.1716L1.72178 11.8593L1.3313 11.547C1.24196 11.6587 1.15866 11.7764 1.08133 11.8998L1.50501 12.1653ZM1.72178 11.8593L2.11225 12.1716L2.22781 12.0271L1.83733 11.7148L1.44685 11.4025L1.3313 11.547L1.72178 11.8593ZM1.83733 11.7148L2.22781 12.0271L2.34336 11.8826L1.95288 11.5703L1.5624 11.258L1.44685 11.4025L1.83733 11.7148ZM1.95288 11.5703L2.34336 11.8826C2.42278 11.7833 2.50034 11.684 2.57603 11.5847L2.17836 11.2816L1.78069 10.9785C1.70981 11.0715 1.63705 11.1647 1.5624 11.258L1.95288 11.5703ZM2.17836 11.2816L2.57603 11.5847L2.68596 11.4405L2.28829 11.1374L1.89061 10.8343L1.78069 10.9785L2.17836 11.2816ZM2.28829 11.1374L2.68596 11.4405L2.79589 11.2962L2.39821 10.9931L2.00054 10.6901L1.89061 10.8343L2.28829 11.1374ZM2.39821 10.9931L2.79589 11.2962C2.83542 11.2443 2.882 11.2005 2.93753 11.1635L2.65998 10.7476L2.38243 10.3317C2.2355 10.4297 2.10757 10.5496 2.00054 10.6901L2.39821 10.9931ZM2.65998 10.7476L2.93753 11.1635L3.08937 11.0621L2.81182 10.6462L2.53427 10.2304L2.38243 10.3317L2.65998 10.7476ZM2.81182 10.6462L3.08937 11.0621L3.2412 10.9608L2.96365 10.5449L2.68611 10.129L2.53427 10.2304L2.81182 10.6462ZM2.96365 10.5449L3.2412 10.9608C3.42474 10.8383 3.56075 10.6711 3.65561 10.4796L3.20757 10.2577L2.75953 10.0358C2.73162 10.0921 2.70502 10.1164 2.68611 10.129L2.96365 10.5449ZM3.20757 10.2577L3.65561 10.4796L3.74769 10.2938L3.29966 10.0718L2.85162 9.84987L2.75953 10.0358L3.20757 10.2577ZM3.29966 10.0718L3.74769 10.2938L3.83978 10.1079L3.39174 9.88594L2.9437 9.66399L2.85162 9.84987L3.29966 10.0718ZM3.39174 9.88594L3.83978 10.1079C3.84161 10.1042 3.83511 10.1183 3.81399 10.1345C3.79213 10.1513 3.772 10.157 3.76514 10.1582L3.67839 9.66578L3.59165 9.17336C3.29639 9.22537 3.07153 9.40594 2.9437 9.66399L3.39174 9.88594ZM3.67839 9.66578L3.76514 10.1582L3.95971 10.1239L3.87297 9.6315L3.78622 9.13908L3.59165 9.17336L3.67839 9.66578ZM3.87297 9.6315L3.95971 10.1239L4.15429 10.0896L4.06754 9.59722L3.9808 9.10481L3.78622 9.13908L3.87297 9.6315ZM4.06754 9.59722L4.15429 10.0896C4.34915 10.0553 4.53209 9.98393 4.69699 9.87319L4.41822 9.45811L4.13946 9.04303C4.09622 9.07207 4.04537 9.09343 3.9808 9.10481L4.06754 9.59722ZM4.41822 9.45811L4.69699 9.87319L4.8531 9.76834L4.57433 9.35327L4.29556 8.93819L4.13946 9.04303L4.41822 9.45811ZM4.57433 9.35327L4.8531 9.76834L5.0092 9.6635L4.73043 9.24843L4.45167 8.83335L4.29556 8.93819L4.57433 9.35327ZM4.73043 9.24843L5.0092 9.6635C5.06007 9.62934 5.09965 9.60317 5.12871 9.58439C5.14325 9.57499 5.15401 9.56819 5.16153 9.56355C5.17029 9.55814 5.17041 9.5583 5.16526 9.56111L4.92589 9.12213L4.68653 8.68315C4.63529 8.71109 4.54795 8.76868 4.45167 8.83335L4.73043 9.24843ZM4.92589 9.12213L5.16526 9.56111L5.20461 9.53965L4.96524 9.10067L4.72588 8.66169L4.68653 8.68315L4.92589 9.12213ZM4.96524 9.10067L5.20461 9.53965L5.24396 9.5182L5.00459 9.07921L4.76523 8.64023L4.72588 8.66169L4.96524 9.10067ZM5.00459 9.07921L5.24396 9.5182C5.34473 9.46325 5.40382 9.3884 5.42896 9.35406C5.45926 9.31269 5.48148 9.27193 5.49701 9.24062C5.52824 9.17767 5.55488 9.10672 5.5779 9.03806L5.10383 8.87913L4.62976 8.7202C4.62182 8.74387 4.61516 8.76215 4.60981 8.77576C4.60717 8.78248 4.60505 8.78755 4.60347 8.79117C4.60187 8.79484 4.60108 8.79643 4.60114 8.79631C4.60116 8.79628 4.60256 8.79343 4.60546 8.78847C4.60825 8.78372 4.61372 8.77477 4.62214 8.76326C4.63026 8.75217 4.64422 8.73446 4.66468 8.71439C4.68457 8.69489 4.71772 8.66614 4.76523 8.64023L5.00459 9.07921ZM5.10383 8.87913L5.5779 9.03806L5.63778 8.85943L5.16371 8.70051L4.68964 8.54158L4.62976 8.7202L5.10383 8.87913Z" fill="#D4D4D4"/>
<circle cx="8.5" cy="21.5" r="1.5" fill="#6EAAFF"/>
<path d="M9.60482 22.074L10.0167 22.3576L9.60482 22.074ZM8.98776 22.7008L9.32163 23.073L8.98776 22.7008ZM8.60427 22.8159L8.53726 23.3114L8.60427 22.8159ZM8.16086 22.7559L8.22787 22.2604L8.16086 22.7559ZM7.76827 22.5794L7.44283 22.959L7.76827 22.5794ZM7.59739 22.4329L7.27195 22.8125L7.59739 22.4329ZM7.42651 22.2864L7.75196 21.9068L7.42651 22.2864ZM7.41981 20.6732L7.12852 20.2668L7.41981 20.6732ZM8.64127 20.1947L8.45526 20.6589L8.64127 20.1947ZM9.70338 20.9399L9.33101 21.2735L9.70338 20.9399ZM9.8892 21.2045L9.42104 21.3801L9.8892 21.2045ZM9.92614 21.303L10.3943 21.1275L9.92614 21.303ZM9.86827 21.6913L9.45643 21.4078L9.86827 21.6913ZM9.73655 21.8827L9.3247 21.5992L9.19298 21.7905L9.60482 22.074L10.0167 22.3576L10.1484 22.1662L9.73655 21.8827ZM9.60482 22.074L9.19298 21.7905C9.12602 21.8878 9.05395 21.9697 8.97745 22.0383L9.31132 22.4105L9.64519 22.7827C9.78439 22.6578 9.90798 22.5154 10.0167 22.3576L9.60482 22.074ZM9.31132 22.4105L8.97745 22.0383L8.81567 22.1834L9.14954 22.5556L9.48341 22.9278L9.64519 22.7827L9.31132 22.4105ZM9.14954 22.5556L8.81567 22.1834L8.65389 22.3286L8.98776 22.7008L9.32163 23.073L9.48341 22.9278L9.14954 22.5556ZM8.98776 22.7008L8.65389 22.3286C8.65135 22.3308 8.65146 22.3303 8.65443 22.3286C8.65751 22.3268 8.66195 22.3248 8.66722 22.3232C8.67246 22.3216 8.6764 22.3212 8.6781 22.321C8.67965 22.3209 8.67763 22.3213 8.67129 22.3204L8.60427 22.8159L8.53726 23.3114C8.82539 23.3503 9.10104 23.2708 9.32163 23.073L8.98776 22.7008ZM8.60427 22.8159L8.67129 22.3204L8.44958 22.2904L8.38257 22.7859L8.31555 23.2814L8.53726 23.3114L8.60427 22.8159ZM8.38257 22.7859L8.44958 22.2904L8.22787 22.2604L8.16086 22.7559L8.09384 23.2514L8.31555 23.2814L8.38257 22.7859ZM8.16086 22.7559L8.22787 22.2604C8.1762 22.2534 8.13494 22.2352 8.09372 22.1998L7.76827 22.5794L7.44283 22.959C7.62944 23.119 7.84991 23.2184 8.09384 23.2514L8.16086 22.7559ZM7.76827 22.5794L8.09372 22.1998L7.92284 22.0533L7.59739 22.4329L7.27195 22.8125L7.44283 22.959L7.76827 22.5794ZM7.59739 22.4329L7.92284 22.0533L7.75196 21.9068L7.42651 22.2864L7.10107 22.666L7.27195 22.8125L7.59739 22.4329ZM7.42651 22.2864L7.75196 21.9068C7.69586 21.8587 7.63283 21.7825 7.57007 21.6627L7.12718 21.8947L6.68428 22.1268C6.7928 22.3339 6.92932 22.5187 7.10107 22.666L7.42651 22.2864ZM7.12718 21.8947L7.57007 21.6627L7.44162 21.4175L6.99872 21.6495L6.55583 21.8816L6.68428 22.1268L7.12718 21.8947ZM6.99872 21.6495L7.44162 21.4175L7.31316 21.1723L6.87027 21.4044L6.42737 21.6364L6.55583 21.8816L6.99872 21.6495ZM6.87027 21.4044L7.31316 21.1723C7.3081 21.1626 7.3366 21.2132 7.31667 21.2965C7.29682 21.3793 7.24901 21.4108 7.25911 21.4036L6.96781 20.9972L6.67652 20.5908C6.53595 20.6916 6.39654 20.8449 6.34418 21.0635C6.29173 21.2824 6.3468 21.4826 6.42737 21.6364L6.87027 21.4044ZM6.96781 20.9972L7.25911 21.4036L7.48511 21.2416L7.19381 20.8352L6.90252 20.4288L6.67652 20.5908L6.96781 20.9972ZM7.19381 20.8352L7.48511 21.2416L7.71111 21.0796L7.41981 20.6732L7.12852 20.2668L6.90252 20.4288L7.19381 20.8352ZM7.41981 20.6732L7.71111 21.0796C7.84587 20.983 7.96486 20.9103 8.06858 20.8579L7.84339 20.4115L7.6182 19.9651C7.45849 20.0457 7.29509 20.1474 7.12852 20.2668L7.41981 20.6732ZM7.84339 20.4115L8.06858 20.8579L8.26616 20.7583L8.04097 20.3119L7.81578 19.8654L7.6182 19.9651L7.84339 20.4115ZM8.04097 20.3119L8.26616 20.7583L8.46374 20.6586L8.23855 20.2122L8.01336 19.7658L7.81578 19.8654L8.04097 20.3119ZM8.23855 20.2122L8.46374 20.6586C8.4687 20.6561 8.47035 20.6558 8.4689 20.6562C8.46732 20.6567 8.46404 20.6573 8.45966 20.6575C8.45528 20.6577 8.45191 20.6573 8.45022 20.657C8.44866 20.6567 8.45023 20.6568 8.45526 20.6589L8.64127 20.1947L8.82728 19.7306C8.55707 19.6223 8.27306 19.6348 8.01336 19.7658L8.23855 20.2122ZM8.64127 20.1947L8.45526 20.6589L8.6604 20.7411L8.84641 20.277L9.03242 19.8128L8.82728 19.7306L8.64127 20.1947ZM8.84641 20.277L8.6604 20.7411L8.86555 20.8233L9.05156 20.3592L9.23756 19.8951L9.03242 19.8128L8.84641 20.277ZM9.05156 20.3592L8.86555 20.8233C8.93029 20.8492 8.98473 20.8871 9.03322 20.9412L9.40559 20.6076L9.77796 20.2739C9.62793 20.1064 9.44634 19.9787 9.23756 19.8951L9.05156 20.3592ZM9.40559 20.6076L9.03322 20.9412L9.18212 21.1074L9.55449 20.7737L9.92686 20.44L9.77796 20.2739L9.40559 20.6076ZM9.55449 20.7737L9.18212 21.1074L9.33101 21.2735L9.70338 20.9399L10.0757 20.6062L9.92686 20.44L9.55449 20.7737ZM9.70338 20.9399L9.33101 21.2735C9.37201 21.3193 9.3988 21.3533 9.41508 21.3764C9.43326 21.4023 9.42926 21.402 9.42104 21.3801L9.8892 21.2045L10.3574 21.029C10.2978 20.87 10.1805 20.7231 10.0757 20.6062L9.70338 20.9399ZM9.8892 21.2045L9.42104 21.3801L9.45797 21.4786L9.92614 21.303L10.3943 21.1275L10.3574 21.029L9.8892 21.2045ZM9.92614 21.303L9.45797 21.4786L9.4949 21.5771L9.96307 21.4015L10.4312 21.226L10.3943 21.1275L9.92614 21.303ZM9.96307 21.4015L9.4949 21.5771C9.45287 21.465 9.47851 21.3803 9.48261 21.3678C9.48731 21.3534 9.48581 21.3652 9.45643 21.4078L9.86827 21.6913L10.2801 21.9749C10.3386 21.89 10.3968 21.7896 10.4331 21.6786C10.4688 21.5695 10.4979 21.4037 10.4312 21.226L9.96307 21.4015ZM9.86827 21.6913L9.45643 21.4078L9.3247 21.5992L9.73655 21.8827L10.1484 22.1662L10.2801 21.9749L9.86827 21.6913Z" fill="#6EAAFF"/>
<circle cx="10.5" cy="15.5" r="1.5" fill="#6EAAFF"/>
<path d="M11.6048 16.074L12.0167 16.3576L11.6048 16.074ZM10.9878 16.7008L11.3216 17.073L10.9878 16.7008ZM10.6043 16.8159L10.5373 17.3114L10.6043 16.8159ZM10.1609 16.7559L10.2279 16.2604L10.1609 16.7559ZM9.76827 16.5794L9.44283 16.959L9.76827 16.5794ZM9.59739 16.4329L9.27195 16.8125L9.59739 16.4329ZM9.42651 16.2864L9.75196 15.9068L9.42651 16.2864ZM9.41981 14.6732L9.12852 14.2668L9.41981 14.6732ZM10.6413 14.1947L10.4553 14.6589L10.6413 14.1947ZM11.7034 14.9399L11.331 15.2735L11.7034 14.9399ZM11.8892 15.2045L11.421 15.3801L11.8892 15.2045ZM11.9261 15.303L12.3943 15.1275L11.9261 15.303ZM11.8683 15.6913L11.4564 15.4078L11.8683 15.6913ZM11.7365 15.8827L11.3247 15.5992L11.193 15.7905L11.6048 16.074L12.0167 16.3576L12.1484 16.1662L11.7365 15.8827ZM11.6048 16.074L11.193 15.7905C11.126 15.8878 11.0539 15.9697 10.9774 16.0383L11.3113 16.4105L11.6452 16.7827C11.7844 16.6578 11.908 16.5154 12.0167 16.3576L11.6048 16.074ZM11.3113 16.4105L10.9774 16.0383L10.8157 16.1834L11.1495 16.5556L11.4834 16.9278L11.6452 16.7827L11.3113 16.4105ZM11.1495 16.5556L10.8157 16.1834L10.6539 16.3286L10.9878 16.7008L11.3216 17.073L11.4834 16.9278L11.1495 16.5556ZM10.9878 16.7008L10.6539 16.3286C10.6513 16.3308 10.6515 16.3303 10.6544 16.3286C10.6575 16.3268 10.662 16.3248 10.6672 16.3232C10.6725 16.3216 10.6764 16.3212 10.6781 16.321C10.6796 16.3209 10.6776 16.3213 10.6713 16.3204L10.6043 16.8159L10.5373 17.3114C10.8254 17.3503 11.101 17.2708 11.3216 17.073L10.9878 16.7008ZM10.6043 16.8159L10.6713 16.3204L10.4496 16.2904L10.3826 16.7859L10.3156 17.2814L10.5373 17.3114L10.6043 16.8159ZM10.3826 16.7859L10.4496 16.2904L10.2279 16.2604L10.1609 16.7559L10.0938 17.2514L10.3156 17.2814L10.3826 16.7859ZM10.1609 16.7559L10.2279 16.2604C10.1762 16.2534 10.1349 16.2352 10.0937 16.1998L9.76827 16.5794L9.44283 16.959C9.62944 17.119 9.84991 17.2184 10.0938 17.2514L10.1609 16.7559ZM9.76827 16.5794L10.0937 16.1998L9.92284 16.0533L9.59739 16.4329L9.27195 16.8125L9.44283 16.959L9.76827 16.5794ZM9.59739 16.4329L9.92284 16.0533L9.75196 15.9068L9.42651 16.2864L9.10107 16.666L9.27195 16.8125L9.59739 16.4329ZM9.42651 16.2864L9.75196 15.9068C9.69586 15.8587 9.63283 15.7825 9.57007 15.6627L9.12718 15.8947L8.68428 16.1268C8.7928 16.3339 8.92932 16.5187 9.10107 16.666L9.42651 16.2864ZM9.12718 15.8947L9.57007 15.6627L9.44162 15.4175L8.99872 15.6495L8.55583 15.8816L8.68428 16.1268L9.12718 15.8947ZM8.99872 15.6495L9.44162 15.4175L9.31316 15.1723L8.87027 15.4044L8.42737 15.6364L8.55583 15.8816L8.99872 15.6495ZM8.87027 15.4044L9.31316 15.1723C9.3081 15.1626 9.3366 15.2132 9.31667 15.2965C9.29682 15.3793 9.24901 15.4108 9.25911 15.4036L8.96781 14.9972L8.67652 14.5908C8.53595 14.6916 8.39654 14.8449 8.34418 15.0635C8.29173 15.2824 8.3468 15.4826 8.42737 15.6364L8.87027 15.4044ZM8.96781 14.9972L9.25911 15.4036L9.48511 15.2416L9.19381 14.8352L8.90252 14.4288L8.67652 14.5908L8.96781 14.9972ZM9.19381 14.8352L9.48511 15.2416L9.71111 15.0796L9.41981 14.6732L9.12852 14.2668L8.90252 14.4288L9.19381 14.8352ZM9.41981 14.6732L9.71111 15.0796C9.84587 14.983 9.96486 14.9103 10.0686 14.8579L9.84339 14.4115L9.6182 13.9651C9.45849 14.0457 9.29509 14.1474 9.12852 14.2668L9.41981 14.6732ZM9.84339 14.4115L10.0686 14.8579L10.2662 14.7583L10.041 14.3119L9.81578 13.8654L9.6182 13.9651L9.84339 14.4115ZM10.041 14.3119L10.2662 14.7583L10.4637 14.6586L10.2385 14.2122L10.0134 13.7658L9.81578 13.8654L10.041 14.3119ZM10.2385 14.2122L10.4637 14.6586C10.4687 14.6561 10.4704 14.6558 10.4689 14.6562C10.4673 14.6567 10.464 14.6573 10.4597 14.6575C10.4553 14.6577 10.4519 14.6573 10.4502 14.657C10.4487 14.6567 10.4502 14.6568 10.4553 14.6589L10.6413 14.1947L10.8273 13.7306C10.5571 13.6223 10.2731 13.6348 10.0134 13.7658L10.2385 14.2122ZM10.6413 14.1947L10.4553 14.6589L10.6604 14.7411L10.8464 14.277L11.0324 13.8128L10.8273 13.7306L10.6413 14.1947ZM10.8464 14.277L10.6604 14.7411L10.8655 14.8233L11.0516 14.3592L11.2376 13.8951L11.0324 13.8128L10.8464 14.277ZM11.0516 14.3592L10.8655 14.8233C10.9303 14.8492 10.9847 14.8871 11.0332 14.9412L11.4056 14.6076L11.778 14.2739C11.6279 14.1064 11.4463 13.9787 11.2376 13.8951L11.0516 14.3592ZM11.4056 14.6076L11.0332 14.9412L11.1821 15.1074L11.5545 14.7737L11.9269 14.44L11.778 14.2739L11.4056 14.6076ZM11.5545 14.7737L11.1821 15.1074L11.331 15.2735L11.7034 14.9399L12.0757 14.6062L11.9269 14.44L11.5545 14.7737ZM11.7034 14.9399L11.331 15.2735C11.372 15.3193 11.3988 15.3533 11.4151 15.3764C11.4333 15.4023 11.4293 15.402 11.421 15.3801L11.8892 15.2045L12.3574 15.029C12.2978 14.87 12.1805 14.7231 12.0757 14.6062L11.7034 14.9399ZM11.8892 15.2045L11.421 15.3801L11.458 15.4786L11.9261 15.303L12.3943 15.1275L12.3574 15.029L11.8892 15.2045ZM11.9261 15.303L11.458 15.4786L11.4949 15.5771L11.9631 15.4015L12.4312 15.226L12.3943 15.1275L11.9261 15.303ZM11.9631 15.4015L11.4949 15.5771C11.4529 15.465 11.4785 15.3803 11.4826 15.3678C11.4873 15.3534 11.4858 15.3652 11.4564 15.4078L11.8683 15.6913L12.2801 15.9749C12.3386 15.89 12.3968 15.7896 12.4331 15.6786C12.4688 15.5695 12.4979 15.4037 12.4312 15.226L11.9631 15.4015ZM11.8683 15.6913L11.4564 15.4078L11.3247 15.5992L11.7365 15.8827L12.1484 16.1662L12.2801 15.9749L11.8683 15.6913Z" fill="#6EAAFF"/>
<circle cx="14.5" cy="19.5" r="1.5" fill="#6EAAFF"/>
<path d="M15.6048 20.074L16.0167 20.3576L15.6048 20.074ZM14.9878 20.7008L15.3216 21.073L14.9878 20.7008ZM14.6043 20.8159L14.5373 21.3114L14.6043 20.8159ZM14.1609 20.7559L14.2279 20.2604L14.1609 20.7559ZM13.7683 20.5794L13.4428 20.959L13.7683 20.5794ZM13.5974 20.4329L13.2719 20.8125L13.5974 20.4329ZM13.4265 20.2864L13.752 19.9068L13.4265 20.2864ZM13.4198 18.6732L13.1285 18.2668L13.4198 18.6732ZM14.6413 18.1947L14.4553 18.6589L14.6413 18.1947ZM15.7034 18.9399L15.331 19.2735L15.7034 18.9399ZM15.8892 19.2045L15.421 19.3801L15.8892 19.2045ZM15.9261 19.303L16.3943 19.1275L15.9261 19.303ZM15.8683 19.6913L15.4564 19.4078L15.8683 19.6913ZM15.7365 19.8827L15.3247 19.5992L15.193 19.7905L15.6048 20.074L16.0167 20.3576L16.1484 20.1662L15.7365 19.8827ZM15.6048 20.074L15.193 19.7905C15.126 19.8878 15.0539 19.9697 14.9774 20.0383L15.3113 20.4105L15.6452 20.7827C15.7844 20.6578 15.908 20.5154 16.0167 20.3576L15.6048 20.074ZM15.3113 20.4105L14.9774 20.0383L14.8157 20.1834L15.1495 20.5556L15.4834 20.9278L15.6452 20.7827L15.3113 20.4105ZM15.1495 20.5556L14.8157 20.1834L14.6539 20.3286L14.9878 20.7008L15.3216 21.073L15.4834 20.9278L15.1495 20.5556ZM14.9878 20.7008L14.6539 20.3286C14.6513 20.3308 14.6515 20.3303 14.6544 20.3286C14.6575 20.3268 14.662 20.3248 14.6672 20.3232C14.6725 20.3216 14.6764 20.3212 14.6781 20.321C14.6796 20.3209 14.6776 20.3213 14.6713 20.3204L14.6043 20.8159L14.5373 21.3114C14.8254 21.3503 15.101 21.2708 15.3216 21.073L14.9878 20.7008ZM14.6043 20.8159L14.6713 20.3204L14.4496 20.2904L14.3826 20.7859L14.3156 21.2814L14.5373 21.3114L14.6043 20.8159ZM14.3826 20.7859L14.4496 20.2904L14.2279 20.2604L14.1609 20.7559L14.0938 21.2514L14.3156 21.2814L14.3826 20.7859ZM14.1609 20.7559L14.2279 20.2604C14.1762 20.2534 14.1349 20.2352 14.0937 20.1998L13.7683 20.5794L13.4428 20.959C13.6294 21.119 13.8499 21.2184 14.0938 21.2514L14.1609 20.7559ZM13.7683 20.5794L14.0937 20.1998L13.9228 20.0533L13.5974 20.4329L13.2719 20.8125L13.4428 20.959L13.7683 20.5794ZM13.5974 20.4329L13.9228 20.0533L13.752 19.9068L13.4265 20.2864L13.1011 20.666L13.2719 20.8125L13.5974 20.4329ZM13.4265 20.2864L13.752 19.9068C13.6959 19.8587 13.6328 19.7825 13.5701 19.6627L13.1272 19.8947L12.6843 20.1268C12.7928 20.3339 12.9293 20.5187 13.1011 20.666L13.4265 20.2864ZM13.1272 19.8947L13.5701 19.6627L13.4416 19.4175L12.9987 19.6495L12.5558 19.8816L12.6843 20.1268L13.1272 19.8947ZM12.9987 19.6495L13.4416 19.4175L13.3132 19.1723L12.8703 19.4044L12.4274 19.6364L12.5558 19.8816L12.9987 19.6495ZM12.8703 19.4044L13.3132 19.1723C13.3081 19.1626 13.3366 19.2132 13.3167 19.2965C13.2968 19.3793 13.249 19.4108 13.2591 19.4036L12.9678 18.9972L12.6765 18.5908C12.5359 18.6916 12.3965 18.8449 12.3442 19.0635C12.2917 19.2824 12.3468 19.4826 12.4274 19.6364L12.8703 19.4044ZM12.9678 18.9972L13.2591 19.4036L13.4851 19.2416L13.1938 18.8352L12.9025 18.4288L12.6765 18.5908L12.9678 18.9972ZM13.1938 18.8352L13.4851 19.2416L13.7111 19.0796L13.4198 18.6732L13.1285 18.2668L12.9025 18.4288L13.1938 18.8352ZM13.4198 18.6732L13.7111 19.0796C13.8459 18.983 13.9649 18.9103 14.0686 18.8579L13.8434 18.4115L13.6182 17.9651C13.4585 18.0457 13.2951 18.1474 13.1285 18.2668L13.4198 18.6732ZM13.8434 18.4115L14.0686 18.8579L14.2662 18.7583L14.041 18.3119L13.8158 17.8654L13.6182 17.9651L13.8434 18.4115ZM14.041 18.3119L14.2662 18.7583L14.4637 18.6586L14.2385 18.2122L14.0134 17.7658L13.8158 17.8654L14.041 18.3119ZM14.2385 18.2122L14.4637 18.6586C14.4687 18.6561 14.4704 18.6558 14.4689 18.6562C14.4673 18.6567 14.464 18.6573 14.4597 18.6575C14.4553 18.6577 14.4519 18.6573 14.4502 18.657C14.4487 18.6567 14.4502 18.6568 14.4553 18.6589L14.6413 18.1947L14.8273 17.7306C14.5571 17.6223 14.2731 17.6348 14.0134 17.7658L14.2385 18.2122ZM14.6413 18.1947L14.4553 18.6589L14.6604 18.7411L14.8464 18.277L15.0324 17.8128L14.8273 17.7306L14.6413 18.1947ZM14.8464 18.277L14.6604 18.7411L14.8655 18.8233L15.0516 18.3592L15.2376 17.8951L15.0324 17.8128L14.8464 18.277ZM15.0516 18.3592L14.8655 18.8233C14.9303 18.8492 14.9847 18.8871 15.0332 18.9412L15.4056 18.6076L15.778 18.2739C15.6279 18.1064 15.4463 17.9787 15.2376 17.8951L15.0516 18.3592ZM15.4056 18.6076L15.0332 18.9412L15.1821 19.1074L15.5545 18.7737L15.9269 18.44L15.778 18.2739L15.4056 18.6076ZM15.5545 18.7737L15.1821 19.1074L15.331 19.2735L15.7034 18.9399L16.0757 18.6062L15.9269 18.44L15.5545 18.7737ZM15.7034 18.9399L15.331 19.2735C15.372 19.3193 15.3988 19.3533 15.4151 19.3764C15.4333 19.4023 15.4293 19.402 15.421 19.3801L15.8892 19.2045L16.3574 19.029C16.2978 18.87 16.1805 18.7231 16.0757 18.6062L15.7034 18.9399ZM15.8892 19.2045L15.421 19.3801L15.458 19.4786L15.9261 19.303L16.3943 19.1275L16.3574 19.029L15.8892 19.2045ZM15.9261 19.303L15.458 19.4786L15.4949 19.5771L15.9631 19.4015L16.4312 19.226L16.3943 19.1275L15.9261 19.303ZM15.9631 19.4015L15.4949 19.5771C15.4529 19.465 15.4785 19.3803 15.4826 19.3678C15.4873 19.3534 15.4858 19.3652 15.4564 19.4078L15.8683 19.6913L16.2801 19.9749C16.3386 19.89 16.3968 19.7896 16.4331 19.6786C16.4688 19.5695 16.4979 19.4037 16.4312 19.226L15.9631 19.4015ZM15.8683 19.6913L15.4564 19.4078L15.3247 19.5992L15.7365 19.8827L16.1484 20.1662L16.2801 19.9749L15.8683 19.6913Z" fill="#6EAAFF"/>
<circle cx="16.5" cy="13.5" r="1.5" fill="#6EAAFF"/>
<path d="M17.6048 14.074L18.0167 14.3576L17.6048 14.074ZM16.9878 14.7008L17.3216 15.073L16.9878 14.7008ZM16.6043 14.8159L16.5373 15.3114L16.6043 14.8159ZM16.1609 14.7559L16.2279 14.2604L16.1609 14.7559ZM15.7683 14.5794L15.4428 14.959L15.7683 14.5794ZM15.5974 14.4329L15.2719 14.8125L15.5974 14.4329ZM15.4265 14.2864L15.752 13.9068L15.4265 14.2864ZM15.4198 12.6732L15.1285 12.2668L15.4198 12.6732ZM16.6413 12.1947L16.4553 12.6589L16.6413 12.1947ZM17.7034 12.9399L17.331 13.2735L17.7034 12.9399ZM17.8892 13.2045L17.421 13.3801L17.8892 13.2045ZM17.9261 13.303L18.3943 13.1275L17.9261 13.303ZM17.8683 13.6913L17.4564 13.4078L17.8683 13.6913ZM17.7365 13.8827L17.3247 13.5992L17.193 13.7905L17.6048 14.074L18.0167 14.3576L18.1484 14.1662L17.7365 13.8827ZM17.6048 14.074L17.193 13.7905C17.126 13.8878 17.0539 13.9697 16.9774 14.0383L17.3113 14.4105L17.6452 14.7827C17.7844 14.6578 17.908 14.5154 18.0167 14.3576L17.6048 14.074ZM17.3113 14.4105L16.9774 14.0383L16.8157 14.1834L17.1495 14.5556L17.4834 14.9278L17.6452 14.7827L17.3113 14.4105ZM17.1495 14.5556L16.8157 14.1834L16.6539 14.3286L16.9878 14.7008L17.3216 15.073L17.4834 14.9278L17.1495 14.5556ZM16.9878 14.7008L16.6539 14.3286C16.6513 14.3308 16.6515 14.3303 16.6544 14.3286C16.6575 14.3268 16.662 14.3248 16.6672 14.3232C16.6725 14.3216 16.6764 14.3212 16.6781 14.321C16.6796 14.3209 16.6776 14.3213 16.6713 14.3204L16.6043 14.8159L16.5373 15.3114C16.8254 15.3503 17.101 15.2708 17.3216 15.073L16.9878 14.7008ZM16.6043 14.8159L16.6713 14.3204L16.4496 14.2904L16.3826 14.7859L16.3156 15.2814L16.5373 15.3114L16.6043 14.8159ZM16.3826 14.7859L16.4496 14.2904L16.2279 14.2604L16.1609 14.7559L16.0938 15.2514L16.3156 15.2814L16.3826 14.7859ZM16.1609 14.7559L16.2279 14.2604C16.1762 14.2534 16.1349 14.2352 16.0937 14.1998L15.7683 14.5794L15.4428 14.959C15.6294 15.119 15.8499 15.2184 16.0938 15.2514L16.1609 14.7559ZM15.7683 14.5794L16.0937 14.1998L15.9228 14.0533L15.5974 14.4329L15.2719 14.8125L15.4428 14.959L15.7683 14.5794ZM15.5974 14.4329L15.9228 14.0533L15.752 13.9068L15.4265 14.2864L15.1011 14.666L15.2719 14.8125L15.5974 14.4329ZM15.4265 14.2864L15.752 13.9068C15.6959 13.8587 15.6328 13.7825 15.5701 13.6627L15.1272 13.8947L14.6843 14.1268C14.7928 14.3339 14.9293 14.5187 15.1011 14.666L15.4265 14.2864ZM15.1272 13.8947L15.5701 13.6627L15.4416 13.4175L14.9987 13.6495L14.5558 13.8816L14.6843 14.1268L15.1272 13.8947ZM14.9987 13.6495L15.4416 13.4175L15.3132 13.1723L14.8703 13.4044L14.4274 13.6364L14.5558 13.8816L14.9987 13.6495ZM14.8703 13.4044L15.3132 13.1723C15.3081 13.1626 15.3366 13.2132 15.3167 13.2965C15.2968 13.3793 15.249 13.4108 15.2591 13.4036L14.9678 12.9972L14.6765 12.5908C14.5359 12.6916 14.3965 12.8449 14.3442 13.0635C14.2917 13.2824 14.3468 13.4826 14.4274 13.6364L14.8703 13.4044ZM14.9678 12.9972L15.2591 13.4036L15.4851 13.2416L15.1938 12.8352L14.9025 12.4288L14.6765 12.5908L14.9678 12.9972ZM15.1938 12.8352L15.4851 13.2416L15.7111 13.0796L15.4198 12.6732L15.1285 12.2668L14.9025 12.4288L15.1938 12.8352ZM15.4198 12.6732L15.7111 13.0796C15.8459 12.983 15.9649 12.9103 16.0686 12.8579L15.8434 12.4115L15.6182 11.9651C15.4585 12.0457 15.2951 12.1474 15.1285 12.2668L15.4198 12.6732ZM15.8434 12.4115L16.0686 12.8579L16.2662 12.7583L16.041 12.3119L15.8158 11.8654L15.6182 11.9651L15.8434 12.4115ZM16.041 12.3119L16.2662 12.7583L16.4637 12.6586L16.2385 12.2122L16.0134 11.7658L15.8158 11.8654L16.041 12.3119ZM16.2385 12.2122L16.4637 12.6586C16.4687 12.6561 16.4704 12.6558 16.4689 12.6562C16.4673 12.6567 16.464 12.6573 16.4597 12.6575C16.4553 12.6577 16.4519 12.6573 16.4502 12.657C16.4487 12.6567 16.4502 12.6568 16.4553 12.6589L16.6413 12.1947L16.8273 11.7306C16.5571 11.6223 16.2731 11.6348 16.0134 11.7658L16.2385 12.2122ZM16.6413 12.1947L16.4553 12.6589L16.6604 12.7411L16.8464 12.277L17.0324 11.8128L16.8273 11.7306L16.6413 12.1947ZM16.8464 12.277L16.6604 12.7411L16.8655 12.8233L17.0516 12.3592L17.2376 11.8951L17.0324 11.8128L16.8464 12.277ZM17.0516 12.3592L16.8655 12.8233C16.9303 12.8492 16.9847 12.8871 17.0332 12.9412L17.4056 12.6076L17.778 12.2739C17.6279 12.1064 17.4463 11.9787 17.2376 11.8951L17.0516 12.3592ZM17.4056 12.6076L17.0332 12.9412L17.1821 13.1074L17.5545 12.7737L17.9269 12.44L17.778 12.2739L17.4056 12.6076ZM17.5545 12.7737L17.1821 13.1074L17.331 13.2735L17.7034 12.9399L18.0757 12.6062L17.9269 12.44L17.5545 12.7737ZM17.7034 12.9399L17.331 13.2735C17.372 13.3193 17.3988 13.3533 17.4151 13.3764C17.4333 13.4023 17.4293 13.402 17.421 13.3801L17.8892 13.2045L18.3574 13.029C18.2978 12.87 18.1805 12.7231 18.0757 12.6062L17.7034 12.9399ZM17.8892 13.2045L17.421 13.3801L17.458 13.4786L17.9261 13.303L18.3943 13.1275L18.3574 13.029L17.8892 13.2045ZM17.9261 13.303L17.458 13.4786L17.4949 13.5771L17.9631 13.4015L18.4312 13.226L18.3943 13.1275L17.9261 13.303ZM17.9631 13.4015L17.4949 13.5771C17.4529 13.465 17.4785 13.3803 17.4826 13.3678C17.4873 13.3534 17.4858 13.3652 17.4564 13.4078L17.8683 13.6913L18.2801 13.9749C18.3386 13.89 18.3968 13.7896 18.4331 13.6786C18.4688 13.5695 18.4979 13.4037 18.4312 13.226L17.9631 13.4015ZM17.8683 13.6913L17.4564 13.4078L17.3247 13.5992L17.7365 13.8827L18.1484 14.1662L18.2801 13.9749L17.8683 13.6913Z" fill="#6EAAFF"/>
</svg>
